<?xml version="1.0" encoding="utf-8"?>
<!-- Generator: Adobe Illustrator 22.1.0, SVG Export Plug-In . SVG Version: 6.00 Build 0)  -->
<svg version="1.1" id="Layer_1" xmlns="http://www.w3.org/2000/svg" xmlns:xlink="http://www.w3.org/1999/xlink" x="0px" y="0px"
	 viewBox="0 0 286.7 110.1" style="enable-background:new 0 0 286.7 110.1;" xml:space="preserve">
<style type="text/css">
	.st0{fill:#A5A4A4;}
	.st1{fill:#2D2F77;}
</style>
<g id="Layer_1_1_">
</g>
<g>
	<g>
		<path d="M124.4,109.5c0,0,1.6,0.7,4.4,0.6c0,0,1.1-1.8,0.5-2.8s0.6-0.7,0.7-1.7s-0.7-2.9-0.3-3.6c0.4-0.6,1.2-6.8,2.6-10.4
			c1.4-3.7,2.8-9,3-10.1c0,0,1.3,0,1.1-1.5l-0.9-0.3c0,0,2.3-5.9,2.6-8.2c0.3-2.3,1.5-4.2,2.3-7.4c0.8-3.2,2-6,3.8-11.9
			s0.4-3.5,2.9-12.4s3.4-9.8,4.8-15.2c1.4-5.4,2.2-6.4,1.8-6.7c-0.4-0.3-2,4.3-2.7,5.8s-1.3,4.3-3,8.9s-3.4,8-5.3,14.3
			c-1.9,6.3-3.6,10.2-5.3,16.3s-1.9,4.5-2.7,8.4c-0.7,4-2.7,6-2.8,6.9l-1.6-0.4c0,0-1.1,1.4,0.5,1.9c0,0-1,5.2-1.5,7.6
			c-0.8,3.3-2.6,7.2-3.6,10.5c-0.4,1.2-0.2,0.7-1,3.3c0,0-0.2,0.6-0.4,1.5c-0.2,1-0.3,1.6-0.1,2c0.3,0.6,0.9,0.8,0.8,1.2
			c-0.1,0.3-0.4,0.2-0.6,0.5c-0.2,0.2-0.2,0.5-0.1,1.3C124.2,108.3,124.2,108.9,124.4,109.5z"/>
		<g>
			<path class="st0" d="M127,105.3c-0.2-1.9-0.2-3.8,0.2-5.7c0.2-0.9,0.5-1.9,1-2.7c0.5-0.8,0.9-1.7,1.2-2.6
				c0.7-1.8,1.1-3.6,1.1-5.5c0.4-0.9,1.1-1.6,1.6-2.4c0.6-0.8,1-1.6,1.2-2.5c-0.1,0.9-0.6,1.8-1.1,2.6c-0.5,0.8-1.2,1.5-1.6,2.3
				c0,1.9-0.4,3.8-1,5.6c-0.3,0.9-0.7,1.8-1.2,2.6c-0.5,0.8-0.8,1.7-1,2.6C127,101.5,126.9,103.4,127,105.3z"/>
		</g>
		<g>
			<path class="st0" d="M131,86.1c0.4-0.7,0.7-1.3,0.9-2c0.3-0.7,0.5-1.4,0.7-2.1c0.1-0.4,0.2-0.7,0.3-1.1s0.5-0.7,0.7-0.9
				c0.5-0.5,1.1-1,1.2-1.8c0,0.8-0.5,1.4-1.1,2c-0.3,0.3-0.6,0.5-0.7,0.8c-0.1,0.3-0.2,0.7-0.3,1.1C132.5,83.5,131.9,84.9,131,86.1z
				"/>
		</g>
		<g>
			<path class="st0" d="M135.7,73.4c0.8-2.9,1.3-5.8,2.2-8.6c0.5-1.4,1.2-2.7,1.9-4s1.4-2.6,1.7-4.1c0.3-1.4,0.3-2.9,0.7-4.4
				c0.2-0.7,0.5-1.4,0.8-2.1c0.3-0.7,0.5-1.4,0.7-2.1c0.8-2.9,1.8-5.7,2.4-8.5c-0.6,2.9-1.5,5.7-2.3,8.6c-0.2,0.7-0.5,1.4-0.7,2.1
				c-0.3,0.7-0.6,1.4-0.7,2.1c-0.3,1.4-0.4,2.9-0.7,4.4s-1,2.8-1.7,4.1s-1.4,2.6-1.9,4C137.1,67.6,136.6,70.6,135.7,73.4z"/>
		</g>
		<g>
			<path class="st0" d="M128.5,100.8c0.4-1.2,1-2.4,1.3-3.6c0.4-1.2,0.5-2.5,0.8-3.8s0.9-2.4,1.3-3.6c0.2-0.6,0.4-1.2,0.5-1.8
				c0.1-0.3,0.4-0.5,0.6-0.8c0.2-0.2,0.4-0.5,0.3-0.8c0.1,0.3-0.1,0.6-0.3,0.9c-0.2,0.2-0.4,0.5-0.5,0.8c0,0.6-0.2,1.3-0.5,1.9
				c-0.4,1.2-1,2.4-1.3,3.6s-0.4,2.5-0.8,3.8C129.6,98.5,129,99.7,128.5,100.8z"/>
		</g>
		<g>
			<path class="st0" d="M133.8,77.8c0.2-0.7,0.8-1.1,1.4-1.5c0.3-0.2,0.5-0.5,0.6-0.8s0.2-0.7,0.3-1c0.5-1.3,1.1-2.5,1.4-3.8
				c0.2-1.3,0.1-2.8,0.7-4c0.3-0.6,0.6-1.2,0.9-1.8c0.3-0.6,0.7-1.3,0.5-1.9c0.2,0.7-0.1,1.4-0.4,2c-0.3,0.6-0.6,1.2-0.9,1.8
				c-0.6,1.3-0.4,2.7-0.6,4c-0.3,1.4-1,2.6-1.5,3.8c-0.1,0.3-0.2,0.6-0.3,1c-0.1,0.3-0.4,0.6-0.6,0.8
				C134.7,76.7,134.1,77.1,133.8,77.8z"/>
		</g>
	</g>
	<g>
		<g>
			<g>
				<g>
					<path class="st1" d="M178.7,23.2c0-0.1,0-0.1,0-0.1C178.7,23.4,178.7,23.2,178.7,23.2z"/>
					<path class="st1" d="M180.7,23.3L180.7,23.3c0-0.1,0.1-0.2,0.1-0.4C180.8,23.1,180.8,23.2,180.7,23.3z"/>
					<path class="st1" d="M179.3,21.5c0.1,0,0.4,0,0.7,0.1s0.5,0.3,0.7,0.5v0.1c0,0.1,0.1,0.1,0.1,0.2c-0.1-0.3-0.3-0.6-0.6-0.8
						C179.8,21.5,179.5,21.5,179.3,21.5z"/>
					<path class="st1" d="M177.9,22.2c0.1-0.1-0.2,0.3,0.2-0.3l0,0C178.1,22,178,22.1,177.9,22.2z"/>
					<path class="st1" d="M178.1,21.9C178.3,21.7,178,22.1,178.1,21.9L178.1,21.9z"/>
					<path class="st1" d="M177.6,23.2c0-0.1,0-0.3,0-0.4C177.6,22.9,177.6,23.3,177.6,23.2C177.6,23.6,177.6,23.5,177.6,23.2z"/>
					<path class="st1" d="M177.6,23.6c0-0.1,0-0.1,0-0.2C177.6,23.4,177.6,23.5,177.6,23.6z"/>
					<path class="st1" d="M177.6,23c0,0.1,0,0.3,0,0.4c0-0.1,0,0,0-0.2C177.6,23.2,177.6,23.2,177.6,23z"/>
					<path class="st1" d="M177.7,22.7c0.1-0.2,0.2-0.5,0-0.1c0.1-0.4,0.3-0.5,0.2-0.5C177.9,22.2,177.8,22.3,177.7,22.7z"/>
					<path class="st1" d="M179.1,21.5c0.1,0,0.2,0,0.3,0s0.2,0,0.3,0C179.5,21.5,179.1,21.5,179.1,21.5z"/>
					<path class="st1" d="M178.6,25.5l-0.1-0.1c-0.1-0.1-0.1-0.1-0.2-0.2C178.3,25.3,178.5,25.4,178.6,25.5z"/>
					<path class="st1" d="M178.4,25.3c0.1,0.1,0.2,0.2,0.4,0.3C178.5,25.4,178.4,25.3,178.4,25.3z"/>
					<path class="st1" d="M177.6,23.7c0-0.2,0-0.5,0-0.7c0,0.3,0,0.6,0,0.9V23.7z"/>
					<path class="st1" d="M180.2,25.8c-0.1,0-0.2,0-0.3,0c0.2,0,0.3,0,0.4-0.1C180.3,25.8,180.3,25.8,180.2,25.8z"/>
					<path class="st1" d="M181.3,25.4C181.1,25.5,181.5,25.3,181.3,25.4c0.3-0.2,0.5-0.4,0.7-0.6C181.8,25.1,181.6,25.3,181.3,25.4z
						"/>
					<path class="st1" d="M182.2,24.5c-0.1,0.1-0.1,0.2-0.2,0.3C182,24.8,182.1,24.7,182.2,24.5z"/>
					<path class="st1" d="M179.5,25.8c0,0,0.1,0,0.4,0h-0.2C179.7,25.8,179.6,25.8,179.5,25.8z"/>
					<path class="st1" d="M179.7,25.8L179.7,25.8c0.2,0,0.3,0,0.4,0C180,25.8,179.9,25.8,179.7,25.8z"/>
					<path class="st1" d="M179.5,25.8L179.5,25.8L179.5,25.8z"/>
					<path class="st1" d="M178,24.8c0.1,0.2,0.5,0.6,0.2,0.2C178,24.8,178.2,25.1,178,24.8z"/>
					<path class="st1" d="M179.3,25.8c-0.2,0-0.3-0.1-0.4-0.2c0,0,0.1,0,0,0C178.9,25.7,179.1,25.7,179.3,25.8z"/>
					<path class="st1" d="M179.5,25.8c-0.1,0-0.2,0-0.2,0S179.4,25.8,179.5,25.8L179.5,25.8z"/>
					<path class="st1" d="M181.6,25.2c0.1-0.1,0.3-0.3,0.5-0.5c-0.2,0.2-0.4,0.4-0.6,0.6C181.5,25.3,181.4,25.3,181.6,25.2z"/>
					<path class="st1" d="M180.7,25.7L180.7,25.7C180.8,25.7,180.7,25.7,180.7,25.7z"/>
					<path class="st1" d="M182.5,22.3L182.5,22.3L182.5,22.3z"/>
					<path class="st1" d="M181.5,25.3c-0.2,0.1-0.3,0.2-0.4,0.2C181.2,25.4,181.4,25.3,181.5,25.3C181.5,25.2,181.5,25.2,181.5,25.3
						z"/>
					<path class="st1" d="M182.4,23.9c0,0.1-0.1,0.2-0.1,0.3C182.4,24.1,182.4,23.9,182.4,23.9z"/>
					<path class="st1" d="M180.9,25.6L180.9,25.6L180.9,25.6z"/>
					<path class="st1" d="M180.9,25.6c0.1,0,0.2-0.1,0.2-0.1C181,25.6,180.9,25.6,180.9,25.6C180.8,25.6,180.8,25.6,180.9,25.6z"/>
					<path class="st1" d="M182.2,21.6c0,0,0.3,0.5,0.3,1c0,0.4,0.1,0.2,0-0.2c0,0,0,0-0.1-0.5c0.1,0.2,0.2,1,0.1,0.6
						c-0.1-0.6-0.1-0.5-0.2-0.8c0,0.1,0-0.1-0.1-0.2c-0.1-0.2-0.3-0.3-0.2-0.3C182.1,21.3,182.2,21.4,182.2,21.6
						C182.2,21.6,182.2,21.4,182.2,21.6z"/>
					<path class="st1" d="M182.6,23.2c0,0.1,0,0.1,0,0.2c0-0.2,0-0.4,0.1-0.7c0-0.3-0.1-0.4-0.1-0.4
						C182.6,22.6,182.6,22.9,182.6,23.2L182.6,23.2z"/>
					<path class="st1" d="M182.3,24.2c0.1-0.1,0.2-0.6,0.1-0.3c-0.2,0.5-0.1,0.4-0.3,0.7C182.5,23.8,182,24.8,182.3,24.2
						c-0.1,0.2-0.2,0.3-0.2,0.4C182.2,24.5,182.2,24.4,182.3,24.2L182.3,24.2L182.3,24.2L182.3,24.2
						C182.3,24.3,182.3,24.3,182.3,24.2C182.3,24.3,182.3,24.2,182.3,24.2L182.3,24.2C182.4,24,182.3,24.2,182.3,24.2L182.3,24.2
						L182.3,24.2c0.1-0.2,0.2-0.5,0.2-0.8C182.5,23.6,182.5,23.8,182.3,24.2z"/>
					<path class="st1" d="M178.5,25.3C178.5,25.3,178.5,25.4,178.5,25.3C178.6,25.4,178.6,25.4,178.5,25.3z"/>
					<path class="st1" d="M178.8,25.5c-0.1,0-0.1-0.1-0.3-0.2c-0.1-0.1,0,0,0,0c-0.1-0.1-0.3-0.3,0,0l0,0c0.3,0.2,0.7,0.4,0.7,0.4
						C179.1,25.7,179,25.7,178.8,25.5z"/>
					<path class="st1" d="M180.8,25.6c0.2-0.1,0.4-0.2,0.6-0.4c-0.1,0.1-0.2,0.1-0.3,0.2l0,0C180.8,25.6,180.9,25.6,180.8,25.6z"/>
					<path class="st1" d="M182.5,22.2L182.5,22.2c0,0,0-0.2-0.1-0.3C182.5,21.9,182.5,22.1,182.5,22.2z"/>
					<path class="st1" d="M182.1,21.2L182.1,21.2c0-0.1-0.1-0.1-0.1-0.2L182.1,21.2z"/>
					<path class="st1" d="M198.5,10c0-0.1,0-0.1,0-0.2C198.6,9.9,198.6,9.9,198.5,10z"/>
					<path class="st1" d="M197.8,11.1L197.8,11.1L197.8,11.1z"/>
					<path class="st1" d="M184.6,22.9c0-0.3-0.1-0.7-0.1-0.6v0.1C184.6,22.5,184.6,22.7,184.6,22.9z"/>
					<path class="st1" d="M185.8,9.2L185.8,9.2c-0.2,0-0.2,0-0.3,0C185.6,9.2,185.7,9.2,185.8,9.2z"/>
					<path class="st1" d="M186.1,9c0.1,0,0.3,0,0.4,0.1C186.4,9,186.3,9,186.1,9z"/>
					<path class="st1" d="M195.1,3l-0.2-0.1C195.2,3.1,195.1,3,195.1,3z"/>
					<path class="st1" d="M175.9,24.8c0.1,0.3,0.1,0.5,0.2,0.7C176,25.1,175.9,24.9,175.9,24.8z"/>
					<path class="st1" d="M198.9,10.8c0.1-0.1,0.1-0.2,0.1-0.2C198.9,10.8,198.9,10.9,198.9,10.8z"/>
					<path class="st1" d="M176.4,26.2c0,0,0-0.1-0.1-0.1c-0.1-0.2-0.2-0.4-0.3-0.6C176.2,25.7,176.3,26,176.4,26.2z"/>
					<path class="st1" d="M166.2,8.2L166.2,8.2C166.2,8.3,166.2,8.2,166.2,8.2z"/>
					<path class="st1" d="M158.1,12.5c0.1-0.1,0.2-0.2,0.3-0.2C158.3,12.3,158.2,12.4,158.1,12.5z"/>
					<path class="st1" d="M178.6,20C178.8,20,178.6,20,178.6,20L178.6,20z"/>
					<path class="st1" d="M179.6,20C179.5,20,179.5,20,179.6,20C179.5,20,179.5,20,179.6,20z"/>
					<path class="st1" d="M177.9,27.6L177.9,27.6L177.9,27.6z"/>
					<path class="st1" d="M178.9,20c-0.1,0-0.2,0-0.3,0C178.6,20,178.7,20,178.9,20z"/>
					<path class="st1" d="M178.8,20c0.1,0,0.1,0,0.2,0C179,19.9,179,19.9,178.8,20z"/>
					<path class="st1" d="M178.3,20.1c0.1,0,0.2,0,0.3-0.1c0,0-0.1,0,0,0C178.5,20,178.4,20,178.3,20.1z"/>
					<path class="st1" d="M181.5,1.4L181.5,1.4C181.2,1.5,181.3,1.5,181.5,1.4z"/>
					<path class="st1" d="M182.8,17.8L182.8,17.8L182.8,17.8z"/>
					<path class="st1" d="M182.5,17.1c0.1,0.3,0.2,0.5,0.2,0.7v-0.3L182.5,17.1z"/>
					<path class="st1" d="M198,6.5c0,0.2,0.1,0.3,0.1,0.5c-0.3-0.5-0.4-0.9-0.3-0.5c0.1,0,0.3,0.4,0.4,0.9c0.2,0.5,0.2,0.9,0.3,0.9
						c0,0.1,0,0.2,0,0.3c0-0.1,0-0.1,0-0.2c0,0.6,0.2,0.4,0.1,1.2c-0.1,0.3-0.2,0.4-0.1,0.2c0,0.2-0.1,0.4-0.2,0.6
						c-0.1,0.1-0.1,0.1,0-0.1c-0.2,0.2-0.3,0.5-0.6,0.7l0,0c-0.1,0.1-0.3,0.3-0.4,0.4c-0.2,0.1,0.1-0.1,0-0.1
						c-0.1,0.1-0.3,0.2-0.5,0.3c-0.2,0,0.2-0.2,0.5-0.3c-0.3,0-0.3,0.1-0.5,0.2c-0.2,0.1-0.4,0.2-0.9,0.3c0.2,0,0.3-0.1,0.5-0.1
						c-0.3,0-0.7,0.1-1.3,0.1c0.1,0.1,1.1,0,0.6,0.2c-0.2,0-0.4,0-0.7,0.1c0-0.1-0.3,0-0.7-0.1v-0.1c-0.4,0-0.4,0-0.6,0
						c-0.4-0.1-0.5-0.2-0.6-0.3c-0.6-0.3,0.4,0.3-0.4,0c-0.5-0.3-1-0.5-1.7-0.8c-0.4-0.2,0.1,0,0-0.1l-0.4-0.1c-0.1,0,0,0,0-0.1
						c-0.3-0.1-0.1,0.1-0.5-0.2c-0.2,0-0.9-0.6-1.6-0.8c-0.1-0.1,0.1,0,0.1-0.1c-0.9-0.3-0.7-0.2-1.5-0.4c-0.2-0.1-0.4-0.1-0.6-0.2
						c0.5,0.1-0.2,0.1-0.7,0.1c0.2,0,0.3,0.1,0.4,0.1c-0.3,0-0.5,0-0.8,0c-0.1,0,0,0,0.1-0.1c-0.1,0-0.1,0-0.1,0
						c-0.3,0-0.2-0.1,0.1-0.1c0.1,0,0.2,0,0.3,0c0.2,0,0.4-0.1,0.4-0.1c-0.1,0-0.2,0-0.3,0c0.1,0,0.1,0,0.1,0s-0.1,0-0.3,0
						c-0.1,0-0.1,0-0.2-0.1l0,0c-0.4,0-0.8,0.1-1.1,0.2c-0.7,0.4-1.4,0.8-1.9,1.9c0.1-0.3-0.1-0.1-0.1-0.1c0.2-0.3,0.5-0.9,1.1-1.3
						c-0.3,0.2-0.2,0.1-0.2,0.1c-0.3,0.3-0.6,0.6-0.8,0.9c0-0.1-0.2,0.2-0.3,0.5c0.1-0.1,0,0.1,0,0.4c-0.1,0.3-0.1,0.7-0.1,0.9
						c0,0-0.1-0.1,0-0.7c-0.2,0.6,0,0.8,0,1.5c0-0.1,0-0.2,0-0.3c0,0.3,0.1,1.1,0.1,0.9v-0.1c0,0.9,0.5,2.8,0.6,2.9
						c0,0-0.1-0.1-0.2-0.1c0.2,0.5,0.5,1,0.7,1.5c-0.1-0.1-0.1,0.5-0.4-0.3c0.1,0.2,0.1,0.5,0.3,0.9c0-0.1,0-0.4,0.1-0.2
						c0.1,0.6,0.1,0.4,0.2,1.1c-0.1-0.2,0.1,0,0.2,0.3c0,0-0.1,0.1-0.1-0.1l0.4,0.8c-0.1-0.2-0.1,0-0.1,0.2c0-0.1,0.2,0.7,0.3,0.9
						l-0.1-0.4c0.2,1,0.4,0.9,0.5,1.9c0-0.1-0.2-0.3-0.1,0.2c0.1,0.2,0.4,1,0.1,1.9l-0.1,0.2l-0.2,0.6c0-0.2,0.2-0.6,0.2-1
						c0-0.2,0-0.4,0-0.6s0-0.4,0-0.5c0,0.4,0,0.1,0,0.6c0,0.2,0-0.3,0-0.4c0,0.4-0.1,0.8-0.2,1.2c0.1,0-0.3,0.9-0.3,0.8
						c0.2-0.4,0.4-0.8,0.4-1.3c0,0,0,0.2,0,0.5c-0.1,0.3-0.2,0.7-0.5,1.1c-0.1,0.2,0-0.2,0-0.2c0,0.1-0.5,0.7-0.6,0.7
						c0.1-0.1,0.2-0.2,0.3-0.3c-0.4,0.3-0.5,0.6-1.1,0.9c-0.2,0.1-0.6,0.2-0.6,0.2c0.3-0.1,0.5,0,0.3,0.2c0,0-0.3,0.1-0.6,0.2
						s-0.6,0.1-0.7,0.1c-0.3,0,0.5-0.1,0.2-0.2c0,0-0.2,0-0.3,0.1c-0.2,0,0.1,0-0.4,0c-0.1,0.1-1-0.1-0.2,0c-0.5,0-0.5-0.1-1-0.2
						c0.2,0.1-0.5,0-0.9-0.3l-0.1-0.1c-0.8-0.6-1.1-1-1.5-1.8c0-0.1-0.2-0.5-0.1-0.3c-0.1-0.1-0.1-0.2-0.2-0.5
						c-0.1-0.5,0.2,0.6,0.1,0.2c0,0-0.3-0.7-0.3-1.1c0,0.1,0.2,0.9,0.3,1.3c0,0-0.4-0.6-0.5-1.6c0-0.8,0-0.3,0-0.5
						c0-0.7,0.1-1,0.2-1.3c0.1-0.3,0.1-0.5,0.5-1c0.3-0.3,0.1,0,0.1,0c-0.4,0.5-0.5,0.8-0.7,1.2c0-0.2,0.1-0.3,0.2-0.5
						c-0.1,0.2-0.2,0.6-0.3,0.8c0.1-0.2,0.2-0.8,0.6-1.3c0.4-0.5,1.1-0.9,1.7-1c0.2-0.1,0.5-0.1,0.4-0.1s-0.2,0-0.3,0.1
						c-0.3,0,0.6-0.2,0.2-0.1c0.4-0.1,1-0.2,1.6-0.1h0.1c0,0-0.4-0.1-0.6-0.1c0.3,0,1,0.2,1.3,0.3c-0.1-0.1-0.3-0.1-0.4-0.2
						c0.5,0.1,1,0.3,1.4,0.8c-0.2-0.2-0.1-0.1-0.4-0.4c0.1,0.1-0.2-0.1-0.5-0.2s-0.6-0.2-0.4-0.1c-0.4-0.2-0.7-0.2-1.3-0.2
						c0,0,0.2,0-0.3,0H179l0,0l0,0l0,0c0.1,0,0.2,0,0.3,0c-0.2,0-1,0.2-1.3,0.3c-0.3,0.1,0.1-0.1,0,0c-0.1,0-0.2,0.1-0.4,0.2
						c-0.1,0-0.7,0.4-0.1,0c-0.2,0.1-0.4,0.2-0.5,0.3c-0.3,0.2-0.6,0.6-0.8,0.9s-0.2,0.7-0.2,0.5c-0.1,0.3-0.2,0.6-0.2,1l0,0
						c-0.1,1,0.2,2,0.6,3c0.2,0.3,0.3,0.6,0.7,1c0,0,0,0.1,0.1,0.1c0.3,0.3,1,0.8,1.1,0.9c0.2,0.1,0.7,0.4,1.2,0.4
						c0.5,0.1,1.1,0.1,1.5,0l0,0c0.5-0.1,1-0.3,1.5-0.6h-0.1c0.5-0.3,1.2-0.7,1.7-1.5c0,0.1-0.1,0.2-0.2,0.4
						c0.3-0.4,0.6-0.9,0.7-1.4c0.1-0.5,0.1-1,0.1-1.5c0-0.2,0-0.4-0.1-0.6V23v-0.1c0-0.1,0-0.2,0-0.3c0,0.1,0,0.2,0,0.3
						c0-0.2-0.1-0.4-0.1-0.7v-0.1c0,0,0,0,0-0.1c0-0.3-0.1-0.2-0.1-0.1c0-0.1-0.1-0.2-0.1-0.3c0-0.2-0.2-0.7-0.2-0.9
						c-0.1-0.2-0.4-1.2-0.5-1.3c0,0,0-0.1,0,0c-0.1-0.3-0.2-0.6-0.3-0.8v-0.1l-0.3-0.6c-0.1-0.4-0.1-0.5,0.1-0.2
						c-0.3-0.9-0.2-0.7-0.5-1.4l0,0c-0.1-0.3-0.2-0.7-0.2-0.9c0-0.3-0.2-1.1-0.2-1.9c-0.1-0.9-0.1-1.9,0.3-2.5c-0.1,0.1,0,0,0.1-0.2
						s0.3-0.4,0.3-0.4c0.1-0.1,0.2-0.2,0.1,0c0.5-0.6,0.9-0.7,1.3-0.9c0.1,0-0.1,0.1-0.1,0.1c0.1,0,0.2-0.1,0.3-0.1
						s-0.1,0.1-0.2,0.1c0.7-0.2,0.8-0.3,0.9-0.4c0.4,0,0.6,0,0.9,0c0.1,0,0.4,0.1-0.1,0.1c0.1,0,0.6,0.1,1,0.2
						c0.4,0.1,0.7,0.2,0.8,0.2c0.2,0.1,0.4,0.1,0.4,0.2c0.6,0.3,0.6,0.3,1.2,0.5l-0.2-0.1c0.3,0,0.5,0.2,1,0.4l0,0
						c1,0.6,0.5,0.2,1.5,0.8v-0.1c0.1,0,0.3,0.1,0.6,0.3s0.6,0.4,1,0.5c-0.1,0-0.2-0.1-0.2-0.1c0.4,0.1,1,0.5,1.4,0.5
						c0.1,0-0.1,0-0.3,0c1,0.2,0.1-0.1,0.9-0.1c0.1,0-0.2,0.1,0.3,0.1c0.1,0,0.5-0.1,0.9-0.2c0.4-0.1,0.9-0.3,1.2-0.4
						c-0.2,0-0.3,0.1,0-0.1c0.2-0.1,0.6-0.3,0.9-0.5c0.3-0.2,0.5-0.5,0.6-0.8c0-0.1,0.1-0.1,0.1-0.1c0.2-0.4,0.3-1.4,0.2-1.6
						c0.1-0.2,0-0.8-0.1-1.4c-0.2-0.5-0.4-1-0.3-1.1c-0.2-0.4-0.3-0.8-0.5-1.1l0,0c-0.4-0.7-0.6-0.9-0.8-1.1c-0.1-0.2,0-0.1,0-0.1
						c-0.7-0.9-0.8-1-1.6-1.6V2.4c-0.1-0.1-0.4-0.4-0.8-0.7c-0.4-0.3-1-0.6-1.5-0.9c0,0,0,0,0.1,0c-0.1-0.1-0.3-0.1-0.5-0.2
						s-0.3-0.1-0.5-0.2c-0.3-0.1-0.7-0.3-1-0.4c-0.6-0.2-1.2-0.3-1.5-0.1c-0.3,0-0.6,0-0.8,0c1.1,0.1-0.2,0.1,0.3,0.2
						c-0.4,0-1.1-0.1-0.6-0.1h0.1c0.2-0.2-1.3-0.1-1.3-0.2c-2.1,0.1-4.2,0.3-6.1,0.7l0.3,0.1c-0.2,0-0.5,0.1-0.7,0.1s-0.3,0,0.2-0.2
						c-0.3,0-0.8,0.3-0.8,0.3c-0.9,0.2,0.3-0.3,0-0.2L180.4,1h0.1c-0.3,0.1-0.3,0.2-0.9,0.4c-0.4,0.1-0.2,0-0.4,0c0,0-0.1,0-0.2,0.1
						l-0.8,0.3h0.4C178.3,2,177.8,2,178.2,2c-0.6,0-3.1,1-3.4,1.1c-0.5,0.3-1,0.5-1.6,0.7c0.2,0,0.3,0-0.2,0.3
						c0.1-0.3-1,0.3-1.5,0.3c0.4-0.1-1.4,0.7-0.8,0.6c-0.4,0.2-0.1-0.1-0.4,0c-1,0.6-2.3,1-3.5,1.8c0,0,0.2,0,0,0.2l-0.7,0.2
						c-0.2,0.2-0.1,0.3-0.6,0.5c0.1,0,0.2,0,0,0.1c-2.5,1.2-4.6,3.1-7.1,4.5c0.3-0.2,0.2,0-0.1,0.2c0.2-0.1,0.1,0.1,0.1,0.1l-1,0.6
						c-0.1,0.3-1,0.8-1,1l0.3-0.3c-0.3,0.5,0.8-0.1,0.9,0.1c0.3-0.5,1.3-0.7,1.8-1.4c0.2-0.1-0.1,0.2,0,0.1c0.1-0.2,0.3-0.4,0.8-0.7
						v0.1c1.1-0.9,1.7-1.1,3-1.9H163c0.3-0.2,0.4-0.2,0.5-0.3c0.2-0.4-0.8,0.5-0.6,0.2c0.5-0.1,2-1.3,2.4-1.2c0.4-0.3-0.2,0,0.3-0.3
						h0.2l0.1-0.1c0.3-0.2,0.5-0.2,0.5-0.1c-0.1,0-0.2,0.1-0.3,0.2c0.4-0.2,1.1-0.6,1.2-0.7L167,7.7c1.2-0.8,2.8-1.5,4-2.2h-0.1
						c0.9-0.5,0.8-0.3,1.8-0.9l0,0c0.2-0.1,0.5-0.3,0.8-0.4c-0.2,0.2,0.5-0.1,0.2,0.1c1-0.5,0.5-0.3,1.1-0.8h0.2
						c0.2-0.2,0.2-0.2,0.8-0.4c-0.4,0.2,0.4,0-0.1,0.2c1.2-0.3,1.6-0.8,2.2-0.7c0.5-0.4-1,0.2-0.8,0.1c-0.3,0,0.4-0.3,0.8-0.4
						c0.4-0.1,0.7,0,1.6-0.3c-0.1,0-0.1,0-0.2,0.1c0.4-0.1,0.7-0.3,1.1-0.3c0.2-0.2,0.6-0.1,0.6-0.3l-0.9,0.3
						c0.5-0.2,0.9-0.5,1.7-0.6c-0.1,0-0.3,0.1-0.5,0.2c0.2,0,0.5-0.1,0.7-0.1c0,0.1-1.1,0.3-1.5,0.5c0.3,0,1-0.4,0.7-0.1
						c0.3-0.3,0.9-0.2,1.5-0.5v0.1c0.1,0,0.3-0.1,0.5-0.2l-0.3,0.2c0.5-0.2,1-0.1,1.5-0.2c-1.1,0.2-0.3-0.1-0.7-0.1
						c1.3-0.3,0.8,0.1,2.2-0.1c-0.2,0-0.7,0-0.4,0s0.7,0,0.8,0c1-0.1-0.2-0.1,0.3-0.2c0.3,0.1,0.5-0.1,0.9-0.1v0.1
						c1.1,0.1,0.3-0.2,1.3-0.1l-0.4,0.1h0.5l-0.1,0.1c0.6-0.1,0.7,0,1.3,0.1c-0.1-0.1,0.1-0.1,0.6-0.1c0.3,0.1-0.2,0,0.5,0.1
						c-0.2,0-0.3,0.1-0.6-0.1h-0.2c0.3,0.1,0.9,0.1,1.1,0.2c-0.1,0-0.2-0.1-0.3-0.1l1,0.2c0.1,0.1,0,0.1-0.1,0
						c0.2,0.1,0.3,0.1,0.6,0.1c-0.1,0-0.1,0.1-0.5,0c0.3,0.1,0.6,0.1,0.9,0.3c0,0.1,0.4,0.3,0.3,0.3c0.2,0.1,0.5,0.2,0.8,0.4
						s0.6,0.3,0.9,0.6c0,0,0.1,0,0.2,0.1c0.5,0.4,0.8,0.9,1.4,1.4l0.2,0.4c0.4,0.5-0.2-0.6,0.4,0.2c0.4,0.6,0.1,0.3,0.2,0.5
						c0.2,0.3,0.6,0.8,0.7,1.4C198.2,6.9,198.1,6.7,198,6.5z M195.8,12c0.1,0,0.4-0.1,0.5-0.1C196.2,12,196,12,195.8,12z M184.7,9.2
						c0.1-0.1,0.3-0.1,0.5-0.1C185,9.1,184.9,9.2,184.7,9.2z M176.5,21.1L176.5,21.1C176.3,21.4,176.4,21.3,176.5,21.1z M177.1,20.6
						L177.1,20.6c0,0-0.1,0.1-0.3,0.2C176.8,20.8,176.9,20.7,177.1,20.6z M179.2,1.4h0.1C179,1.5,179.1,1.5,179.2,1.4z"/>
					<path class="st1" d="M186,9C186.1,9,186.1,9,186,9C186.2,9,186.2,9,186,9z"/>
					<path class="st1" d="M195.2,3L195.2,3C195.2,3,195.1,3,195.2,3L195.2,3z"/>
					<path class="st1" d="M180.6,28.2c0.1,0,0.2,0,0.3,0C180.9,28.1,180.8,28.1,180.6,28.2z"/>
					<path class="st1" d="M180.7,20.1c-0.1,0-0.3-0.1-0.4-0.1C180.5,20.1,180.6,20.1,180.7,20.1C180.7,20.1,180.6,20.1,180.7,20.1z"
						/>
					<path class="st1" d="M182.5,23.3c0,0.1,0,0.1,0,0.2l0,0C182.5,23.2,182.5,23,182.5,23.3z"/>
					<path class="st1" d="M181.1,20.4c0,0,0.3,0.2,0.5,0.4l0,0C181.6,20.7,181.4,20.5,181.1,20.4z"/>
					<path class="st1" d="M181.7,20.8l0.2,0.2C181.9,21,181.8,20.9,181.7,20.8z"/>
					<path class="st1" d="M177.9,20.2c0.1,0,0.1-0.1,0.2-0.1C178.2,20,177.1,20.5,177.9,20.2z"/>
					<polygon class="st1" points="181.3,20.5 181.2,20.5 181,20.4 					"/>
					<path class="st1" d="M178.9,20.1c0.2,0,0.3,0,0.5,0h0.1C179.2,20,178.9,20,178.9,20.1z"/>
					<path class="st1" d="M179.5,20c0.2,0,0.3,0,0.4,0C179.8,20,179.7,20,179.5,20z"/>
					<path class="st1" d="M180.7,20.2h-0.1c-0.1,0-0.2-0.1-0.3-0.1C180.3,20.1,180.5,20.2,180.7,20.2z"/>
					<path class="st1" d="M175.8,23.8c0,0.2,0,0.4,0.1,0.5c0,0.1,0-0.1,0-0.3C175.9,23.9,175.9,23.7,175.8,23.8z"/>
					<path class="st1" d="M176.1,22.1c0,0.1-0.1,0.1-0.1,0.2l0,0L176.1,22.1z"/>
					<path class="st1" d="M175.9,23.7C175.9,23.7,176,24.5,175.9,23.7C175.9,23.7,175.9,23.2,175.9,23.7z"/>
					<polygon class="st1" points="181.4,28.1 181.3,28.2 181.3,28.2 					"/>
					<path class="st1" d="M184.1,22.5c0.1,0.6,0.1,0.1,0.2,0.7c0,0.1-0.1-0.5,0-0.3C184.1,22.5,184.1,22.3,184.1,22.5z"/>
					<path class="st1" d="M184.2,22.9c0,0.1,0,0.1,0,0.2C184.3,22.9,184.2,22.9,184.2,22.9z"/>
					<polygon class="st1" points="156.8,13.4 156.4,13.6 156.7,13.5 					"/>
					<path class="st1" d="M156.3,14l-0.2-0.1l-0.1,0.3C156.1,14.2,156.2,14,156.3,14z"/>
					<path class="st1" d="M194.7,11.9L194.7,11.9c0,0,0.1,0,0.3,0.1L194.7,11.9z"/>
					<polygon class="st1" points="198.5,9.5 198.5,9.6 198.6,9.5 					"/>
					<path class="st1" d="M197.2,5.4c0.1,0.2,0.2,0.3,0.3,0.5C197.3,5.6,197.3,5.3,197.2,5.4z"/>
				</g>
			</g>
		</g>
	</g>
	<g>
		<g>
			<g>
				<g>
					<path class="st1" d="M142.8,16.7C142.8,16.6,142.8,16.6,142.8,16.7C142.7,16.8,142.8,16.7,142.8,16.7z"/>
					<path class="st1" d="M143.9,16.1L143.9,16.1c0-0.1-0.1-0.2-0.1-0.3C143.8,15.9,143.9,16,143.9,16.1z"/>
					<path class="st1" d="M142.1,15.4c0.2-0.1,0.8-0.4,1.2-0.2h0.1c0.1,0,0.1,0.1,0.2,0.1C143,15.1,142.3,15.2,142.1,15.4z"/>
					<path class="st1" d="M141.5,16.5c0-0.1,0,0.3,0-0.3c0,0,0,0,0,0.1C141.5,16.3,141.5,16.4,141.5,16.5z"/>
					<path class="st1" d="M141.5,16.2C141.5,16,141.4,16.4,141.5,16.2L141.5,16.2z"/>
					<path class="st1" d="M141.7,17.3c-0.1-0.1-0.1-0.2-0.1-0.3C141.6,17.1,141.7,17.4,141.7,17.3C141.8,17.6,141.8,17.5,141.7,17.3
						z"/>
					<path class="st1" d="M141.9,17.6l-0.1-0.1C141.8,17.5,141.8,17.5,141.9,17.6z"/>
					<path class="st1" d="M141.6,17.2c0,0.1,0.1,0.2,0.2,0.3c0,0,0,0-0.1-0.1C141.7,17.3,141.7,17.3,141.6,17.2z"/>
					<path class="st1" d="M141.5,17C141.5,16.8,141.5,16.6,141.5,17c-0.1-0.4,0-0.5-0.1-0.5C141.5,16.5,141.4,16.7,141.5,17z"/>
					<path class="st1" d="M142,15.5c0.1,0,0.1-0.1,0.2-0.1c0.1,0,0.1-0.1,0.2-0.1C142.2,15.3,141.9,15.5,142,15.5z"/>
					<path class="st1" d="M143.5,18.1h-0.1c-0.1,0-0.2,0-0.2,0S143.4,18.1,143.5,18.1z"/>
					<path class="st1" d="M143.3,18.1c0.1,0,0.2,0,0.3-0.1C143.4,18.1,143.3,18.1,143.3,18.1z"/>
					<path class="st1" d="M141.9,17.6c-0.1-0.1-0.3-0.3-0.3-0.5C141.7,17.4,141.8,17.5,141.9,17.6L141.9,17.6z"/>
					<path class="st1" d="M144.6,17.3c0,0.1-0.1,0.1-0.1,0.2C144.6,17.4,144.6,17.3,144.6,17.3L144.6,17.3z"/>
					<path class="st1" d="M144.9,16.4C144.9,16.6,144.9,16.2,144.9,16.4c0-0.3,0-0.5-0.1-0.7C144.9,15.9,144.9,16.2,144.9,16.4z"/>
					<path class="st1" d="M144.7,15.4c0,0.1,0.1,0.2,0.1,0.3C144.8,15.6,144.7,15.5,144.7,15.4z"/>
					<path class="st1" d="M144.2,17.7c0,0,0.1,0,0.2-0.2l-0.1,0.1C144.3,17.6,144.2,17.7,144.2,17.7z"/>
					<path class="st1" d="M144.3,17.6L144.3,17.6c0.1-0.1,0.2-0.2,0.2-0.2S144.4,17.5,144.3,17.6z"/>
					<path class="st1" d="M144.2,17.7L144.2,17.7L144.2,17.7z"/>
					<path class="st1" d="M142.7,18.1c0.2,0,0.6,0,0.2,0C142.8,18.1,143.1,18.1,142.7,18.1z"/>
					<path class="st1" d="M144,17.8c-0.1,0.1-0.2,0.1-0.3,0.2c0,0,0.1,0,0,0C143.8,18,143.9,17.9,144,17.8z"/>
					<path class="st1" d="M144.2,17.7l-0.1,0.1L144.2,17.7L144.2,17.7z"/>
					<path class="st1" d="M144.8,16.1c0-0.2-0.1-0.3-0.1-0.5c0.1,0.2,0.1,0.4,0.1,0.6C144.8,16.2,144.9,16.3,144.8,16.1z"/>
					<path class="st1" d="M144.8,16.9L144.8,16.9L144.8,16.9z"/>
					<path class="st1" d="M143.3,14.2L143.3,14.2L143.3,14.2z"/>
					<path class="st1" d="M144.8,16.2c0,0.2,0,0.3,0,0.4C144.8,16.5,144.8,16.3,144.8,16.2L144.8,16.2z"/>
					<path class="st1" d="M144.4,14.9c0,0.1,0.1,0.2,0.2,0.2C144.5,15.1,144.4,15,144.4,14.9z"/>
					<path class="st1" d="M144.8,16.8L144.8,16.8L144.8,16.8z"/>
					<path class="st1" d="M144.8,16.8c0-0.1,0-0.2,0-0.2C144.8,16.7,144.8,16.8,144.8,16.8L144.8,16.8z"/>
					<path class="st1" d="M142.7,14.2c0,0,0.5,0,0.8,0.2c0.3,0.1,0.1,0-0.2-0.1c0,0,0,0-0.4-0.1c0.1,0,0.8,0.3,0.5,0.2
						c-0.5-0.1-0.4-0.1-0.6-0.2c0.2,0-0.6,0-0.5,0.1C142.4,14.2,142.6,14.2,142.7,14.2C142.7,14.2,142.6,14.2,142.7,14.2z"/>
					<path class="st1" d="M144,14.5l0.1,0.1c-0.1-0.1-0.2-0.2-0.4-0.3s-0.3-0.1-0.3-0.1C143.6,14.3,143.8,14.4,144,14.5L144,14.5z"
						/>
					<path class="st1" d="M144.5,15.2c-0.1-0.1-0.3-0.4-0.2-0.2c0.3,0.4,0.2,0.3,0.3,0.5C144.3,14.8,144.8,15.7,144.5,15.2
						c0.1,0.1,0.1,0.2,0.2,0.4C144.7,15.4,144.6,15.3,144.5,15.2L144.5,15.2L144.5,15.2L144.5,15.2
						C144.6,15.2,144.6,15.2,144.5,15.2C144.6,15.2,144.6,15.2,144.5,15.2L144.5,15.2C144.4,15,144.5,15.1,144.5,15.2L144.5,15.2
						L144.5,15.2c-0.1-0.2-0.3-0.4-0.5-0.5C144.2,14.7,144.4,14.9,144.5,15.2z"/>
					<path class="st1" d="M143.3,18C143.4,18,143.4,18,143.3,18C143.4,18,143.4,18,143.3,18z"/>
					<path class="st1" d="M143.6,18c0,0-0.1,0-0.3,0.1c-0.1,0,0,0,0,0c-0.1,0-0.4,0,0,0h0.1c0.3,0,0.6-0.2,0.6-0.2
						C143.9,17.9,143.8,17.9,143.6,18z"/>
					<path class="st1" d="M144.8,16.8c0-0.2,0.1-0.4,0-0.6c0,0.1,0,0.2,0,0.3l0,0C144.8,16.8,144.8,16.7,144.8,16.8z"/>
					<path class="st1" d="M143.2,14.2L143.2,14.2c0,0-0.2,0-0.3-0.1C143,14.1,143.1,14.2,143.2,14.2z"/>
					<path class="st1" d="M142.4,14.1L142.4,14.1c0,0-0.1,0-0.2,0C142.3,14.1,142.4,14.1,142.4,14.1z"/>
					<path class="st1" d="M129.2,20.6l-0.1-0.1C129.2,20.6,129.2,20.6,129.2,20.6z"/>
					<path class="st1" d="M130,21.7L130,21.7L130,21.7z"/>
					<path class="st1" d="M141.8,10c-0.2-0.1-0.5-0.3-0.5-0.2l0.1,0.1C141.6,9.9,141.7,10,141.8,10z"/>
					<path class="st1" d="M138,19.7L138,19.7c0-0.1,0-0.2,0-0.2C138,19.6,138,19.6,138,19.7z"/>
					<path class="st1" d="M138.2,20l-0.1,0.3C138.1,20.2,138.1,20.1,138.2,20z"/>
					<path class="st1" d="M127.8,13.7v-0.2C127.7,13.8,127.8,13.7,127.8,13.7z"/>
					<path class="st1" d="M143.4,19c0.2,0,0.4-0.1,0.6-0.1C143.7,19,143.5,19,143.4,19z"/>
					<path class="st1" d="M130.1,20.7c-0.1-0.1-0.1-0.1-0.1-0.1C130,20.7,130.1,20.7,130.1,20.7z"/>
					<path class="st1" d="M144.6,18.6c0,0-0.1,0-0.1,0.1c-0.1,0.1-0.3,0.2-0.5,0.3C144.2,18.8,144.4,18.7,144.6,18.6z"/>
					<path class="st1" d="M148.3,7.2L148.3,7.2C148.3,7.3,148.3,7.3,148.3,7.2z"/>
					<path class="st1" d="M152.5,13.3c0-0.1-0.1-0.2-0.2-0.2C152.3,13.1,152.4,13.2,152.5,13.3z"/>
					<path class="st1" d="M140.2,16.1C140.3,15.9,140.2,16.1,140.2,16.1L140.2,16.1z"/>
					<path class="st1" d="M140.5,15.3C140.5,15.4,140.5,15.4,140.5,15.3C140.5,15.4,140.5,15.4,140.5,15.3z"/>
					<path class="st1" d="M145.3,17.1C145.3,17.1,145.4,17.1,145.3,17.1L145.3,17.1z"/>
					<path class="st1" d="M140.3,15.8V16C140.3,16,140.3,16,140.3,15.8z"/>
					<path class="st1" d="M140.3,15.9c0-0.1,0-0.1,0-0.1C140.3,15.7,140.3,15.7,140.3,15.9z"/>
					<path class="st1" d="M140.2,16.3c0-0.1,0-0.2,0-0.3l0,0C140.2,16.2,140.2,16.2,140.2,16.3z"/>
					<path class="st1" d="M135.3,4.9C135.4,4.9,135.4,4.9,135.3,4.9C135.5,4.8,135.5,4.9,135.3,4.9z"/>
					<path class="st1" d="M138.1,11.2L138.1,11.2L138.1,11.2z"/>
					<path class="st1" d="M137.9,11.7c0-0.2,0.1-0.4,0.2-0.5l-0.2,0.1C137.9,11.4,137.9,11.6,137.9,11.7z"/>
					<path class="st1" d="M128,17.8l0.1,0.4c-0.2-0.5-0.3-0.9-0.3-0.4c0.1,0,0.2,0.4,0.4,0.8c0.1,0.4,0.3,0.8,0.4,0.8l0.1,0.3
						c0-0.1,0-0.1-0.1-0.2c0.2,0.5,0.3,0.3,0.6,0.9c0.1,0.2,0.2,0.4,0.1,0.3l0.3,0.4c0.1,0.1,0,0.1,0,0c0.2,0.2,0.3,0.4,0.5,0.7l0,0
						c0.1,0.1,0.3,0.3,0.4,0.3c0.1,0.2-0.1-0.1-0.1,0c0.1,0.1,0.2,0.2,0.4,0.3c0.1,0.2-0.2-0.1-0.4-0.3c0.2,0.4,0.3,0.3,1,0.9
						c-0.1-0.1-0.3-0.2-0.4-0.2c0.2,0.3,0.5,0.4,1,0.7c-0.1-0.1-0.8-0.7-0.4-0.4c0.1,0.1,0.3,0.2,0.6,0.3c0,0.1,0.2,0.2,0.6,0.2v0.1
						c0.4,0.1,0.3,0,0.6,0c0.4,0.1,0.5,0.1,0.6,0.2c0.7,0.1-0.4-0.1,0.3-0.1c0.5,0,1,0,1.6-0.3c0.4-0.1,0,0.1,0.1,0s0.2-0.1,0.3-0.2
						c0.1,0,0.1,0,0.1,0c0.2-0.2,0-0.1,0.4-0.3c0.1-0.1,0.8-0.5,1-1.1c0.1-0.1,0,0.1,0.1,0.1c0.3-0.7,0.3-0.6,0.4-1.2l0.2-0.5
						c-0.2,0.3-0.1-0.1-0.1-0.6c-0.1,0.1-0.1,0.2-0.1,0.3c0-0.2,0.1-0.4,0.1-0.6c0-0.1,0,0,0.1,0.1v-0.1c0.1-0.2,0.1-0.1,0.1,0.1
						c0,0.1-0.1,0.2-0.1,0.2c0,0.2,0,0.3,0.1,0.3c0,0,0-0.1,0-0.2v0.1c0,0,0-0.1,0-0.2l0.1-0.1l0,0c0.1-0.3,0.1-0.6,0.1-0.9
						c-0.1-0.6-0.2-1.2-0.4-2.1c0.1,0.2,0.1,0,0.2,0c0,0.3,0.2,0.7,0.2,1.3c0-0.3,0-0.2,0-0.1c0-0.3-0.1-0.6-0.2-0.9
						c0.1,0,0-0.2,0-0.4c-0.1,0.2-0.2-0.7-0.3-1c0,0,0.1,0.1,0.1,0.5c0-0.5-0.2-0.6-0.2-1.1c0,0.1,0,0.2,0,0.2
						c-0.1-0.2-0.1-0.9-0.1-0.7v0.1c0-0.4-0.1-0.9-0.1-1.4s0-0.8,0-0.9c0,0,0.1,0.1,0.1,0.2c0-0.4,0.1-0.9,0.3-1.3
						c0,0.1,0.4-0.1,0.1,0.4c0.1-0.1,0.2-0.3,0.4-0.5c-0.1,0.1-0.3,0.1-0.2,0c0.4-0.2,0.2-0.2,0.7-0.4c-0.2,0.1,0-0.1,0.2-0.2v0.1
						c0.2-0.1,0.4-0.2,0.6-0.2c-0.2,0,0,0.1,0.1,0.1c-0.1,0,0.6,0,0.8,0c-0.1,0-0.2,0-0.3-0.1c0.3,0,0.5,0.1,0.8,0.1
						c0.2,0,0.4,0.1,0.7,0.2c-0.1,0-0.3,0,0.1,0.2c0.2,0,0.8,0.3,1.3,0.8l0.1,0.1c0.1,0.1,0.2,0.3,0.4,0.4c-0.2-0.2-1-0.8-1.4-1.1
						c0.2,0.2,0,0.1,0.4,0.3c0.1,0.1-0.2-0.1-0.3-0.2c0.3,0.2,0.5,0.4,0.7,0.7c0-0.1,0.5,0.6,0.5,0.5c-0.2-0.3-0.5-0.5-0.8-0.8
						c0-0.1,0.6,0.3,1,0.9c0.1,0.2-0.2-0.1-0.2,0c0.1,0.1,0.4,0.5,0.4,0.6l-0.2-0.2c0.2,0.3,0.4,0.5,0.6,1c0.1,0.1,0.2,0.5,0.2,0.5
						c-0.1-0.3,0.1-0.4,0.2-0.2c0,0.1,0.3,0.8,0.3,1c0,0.3-0.2-0.4-0.2-0.1c0,0,0.1,0.1,0.1,0.2c0,0.2-0.1-0.1,0,0.3
						c0.1,0.1,0.1,0.8,0.1,0.2c0.1,0.4,0.1,0.4,0.1,0.8c0-0.1,0.1,0.4,0,0.8c0,0,0,0.1-0.1,0.1c-0.2,0.7-0.5,1.1-1.1,1.5
						c-0.1,0-0.4,0.2-0.2,0.1c-0.1,0-0.2,0.1-0.4,0.2c-0.4,0.1,0.5-0.1,0.1-0.1c0,0-0.5,0.2-0.8,0.2c0.1,0.1,0.7-0.1,1-0.2
						c0,0-0.5,0.4-1.3,0.3c-0.6-0.1-0.3-0.1-0.4-0.1c-0.6-0.1-0.8-0.3-1-0.4s-0.4-0.2-0.6-0.6c-0.2-0.3,0,0,0-0.1
						c0.3,0.4,0.5,0.6,0.7,0.8c-0.1-0.1-0.2-0.2-0.3-0.3c0.1,0.1,0.4,0.3,0.5,0.4c-0.1-0.1-0.6-0.3-0.9-0.8
						c-0.3-0.4-0.5-1.1-0.5-1.5c0-0.2,0-0.4,0-0.3s0,0.2,0,0.3c0,0.3,0-0.5,0-0.2c0-0.4,0.1-0.8,0.4-1.2c0,0,0.1,0,0.1-0.1
						c0,0-0.2,0.3-0.3,0.4c0.1-0.2,0.5-0.6,0.7-0.8c-0.1,0.1-0.2,0.1-0.3,0.2c0.3-0.3,0.7-0.5,1.2-0.6c-0.2,0-0.1,0-0.4,0.1
						c0.1,0-0.1,0.1-0.4,0.2c-0.2,0.2-0.4,0.3-0.2,0.2c-0.3,0.2-0.4,0.4-0.6,0.8c0,0,0.1-0.2-0.1,0.2v0.1l0,0l0,0l0,0
						c0-0.1,0-0.1,0.1-0.2c-0.1,0.2-0.1,0.8-0.1,1s0-0.1,0,0s0,0.2,0.1,0.3c0,0,0.1,0.6,0,0.1c0,0.2,0.1,0.3,0.2,0.5
						c0.1,0.3,0.3,0.6,0.5,0.8c0.2,0.2,0.5,0.4,0.3,0.3c0.2,0.2,0.5,0.3,0.7,0.3l0,0c0.8,0.2,1.6,0.1,2.4-0.3
						c0.2-0.2,0.4-0.3,0.7-0.7l0.1-0.1c0.2-0.3,0.4-0.9,0.4-1.1c0.1-0.2,0.1-0.6,0.1-1c0-0.4-0.2-0.9-0.3-1.2l0,0
						c-0.1-0.4-0.3-0.7-0.5-1.2l0,0c-0.2-0.4-0.5-1-0.9-1.5c0,0,0.1,0.2,0.2,0.3c-0.4-0.7-1.1-1.3-1.7-1.8c-0.2-0.1-0.3-0.2-0.4-0.2
						l0,0c0,0,0,0-0.1,0s-0.1-0.1-0.2-0.1c0.1,0,0.1,0.1,0.2,0.1c-0.1-0.1-0.3-0.2-0.5-0.2l-0.1-0.1l0,0c-0.2-0.1-0.2,0-0.1,0
						c-0.1,0-0.2,0-0.3,0c-0.2-0.1-0.6-0.1-0.8-0.1c-0.1,0-0.3,0-0.6,0.1c-0.3,0-0.5,0.2-0.6,0.2c0,0-0.1,0,0,0
						c-0.2,0.1-0.4,0.2-0.6,0.3h-0.1c-0.1,0.1-0.2,0.3-0.3,0.4c-0.2,0.2-0.3,0.3-0.2,0.1c-0.2,0.3-0.2,0.5-0.3,0.6
						c0,0.1-0.1,0.3-0.1,0.6l0,0c0,0.2,0,0.6,0,0.7c-0.1,0.5,0.2,2.5,0.3,3.7c0.1-0.3,0,0.6,0.1,0.6c0,0.1,0,0.2-0.1,0.1
						c0.1,0.6,0,0.9,0.1,1.4c0,0.1,0-0.1-0.1-0.1c0,0.1,0,0.2,0,0.3c0,0.1,0-0.1,0-0.2c0,0.6,0,0.7,0.1,0.8
						c-0.1,0.3-0.1,0.5-0.1,0.7c-0.1,0.1-0.1,0.3,0-0.1c0,0.2-0.4,1.3-0.4,1.3c0,0.1-0.1,0.3-0.2,0.3c-0.2,0.4-0.3,0.5-0.6,0.8
						l0.1-0.1c-0.1,0.2-0.3,0.3-0.6,0.5l0,0c-0.4,0.2-0.5,0.2-0.6,0.3c-0.1,0-0.2,0.1-0.6,0.1l0.1,0.1c-0.1,0.2-0.8,0-1.3,0l0.2,0.1
						c-0.3,0-0.8-0.3-1-0.4c-0.1,0,0.1,0,0.2,0c-0.7-0.3-0.1,0.1-0.6-0.1c-0.1-0.1,0.2-0.1-0.2-0.2c-0.1-0.1-1-0.4-1.3-0.8
						c0.1,0.1,0.1,0.2-0.1,0c-0.3-0.3-0.6-0.9-0.9-1.2v-0.1c-0.2-0.2-0.6-0.8-0.7-1c0-0.2-0.2-0.6-0.4-1s-0.3-0.8-0.2-0.8
						c-0.1-0.3-0.2-0.6-0.2-0.9l0,0c-0.1-0.6-0.1-0.8-0.2-1c0-0.1,0,0,0.1,0c0-0.9,0.1-1,0-1.7l0.1-0.1c0-0.2,0.4-1.2,0.6-2
						c0,0,0,0,0,0.1c0.2-1,1.2-1.9,1.2-2.4c0.1-0.2,0.2-0.4,0.3-0.6c-0.5,0.7,0-0.2-0.3,0.1c0.2-0.3,0.6-0.6,0.4-0.3h-0.1
						c0,0.2,0.7-0.8,0.8-0.7c1.1-1.2,2.5-2.1,3.9-2.7l-0.2-0.1l0.5-0.2c0.1,0,0.2,0-0.1,0.2c0.2,0,0.6-0.3,0.6-0.3
						c0.7-0.2-0.2,0.3,0,0.2l0.3-0.1h-0.1c0.2-0.1,0.2-0.2,0.7-0.3c0.3,0,0.2,0,0.3,0c0,0,0,0,0.2,0s0.4-0.1,0.7-0.1L138.1,5
						c0.3-0.1,0.6-0.1,0.3-0.2c0.2,0.1,0.9,0,1.5,0s1.2,0,1.3,0.1c0.4,0,0.8,0.1,1.3,0.2c-0.1,0-0.2-0.2,0.3-0.1
						c-0.2,0.2,0.7,0.4,1,0.7c-0.2-0.3,1.1,0.5,0.8,0.1c0.3,0.2,0,0.1,0.2,0.3c0.8,0.3,1.7,1,2.5,1.6c0,0-0.1-0.2,0.1-0.1
						c0.1,0.2,0.2,0.3,0.3,0.5c0.2,0.1,0.3-0.1,0.5,0.3c0-0.1-0.1-0.2,0.1-0.1c1.5,1.5,3.3,3,4.2,5c-0.1-0.3,0-0.1,0.2,0
						c-0.1-0.1,0.1-0.1,0.1-0.1l0.4,0.8c0.2,0,0.5,0.8,0.7,0.8l-0.2-0.2c0.4,0.2,0.1-0.7,0.3-0.8c-0.4-0.2-0.4-1.1-1.1-1.5
						c-0.1-0.2,0.1,0.1,0.1,0c-0.2-0.1-0.3-0.3-0.6-0.6l0,0c-0.7-0.9-1-1.3-1.9-2.3v0.1c-0.2-0.2-0.2-0.3-0.3-0.4
						c-0.3-0.1,0.5,0.6,0.2,0.5c-0.1-0.4-1.4-1.4-1.4-1.7c-0.3-0.3,0,0.2-0.3-0.1V7.7h-0.1c-0.2-0.2-0.3-0.3-0.2-0.4
						c0,0,0.2,0.1,0.2,0.2c-0.2-0.3-0.8-0.6-0.9-0.7l0.3,0.3c-1-0.6-2.2-1.5-3.3-1.8l0.1,0.1c-0.8-0.3-0.6-0.3-1.5-0.6l0,0
						c-0.2,0-0.4-0.1-0.7-0.1c0.3,0-0.4-0.2-0.1-0.2c-1-0.1-0.5,0-1.1,0.1l-0.1-0.1c-0.2,0-0.2,0.1-0.7,0.1c0.4-0.1-0.3-0.1,0.1-0.2
						c-0.5-0.1-0.9-0.1-1.2,0s-0.5,0.1-0.8,0c-0.4,0.3,0.9,0,0.6,0.1c0.2,0.1-0.4,0.2-0.7,0.2s-0.6-0.2-1.4,0c0.1,0,0.1,0,0.2-0.1
						c-0.3,0-0.6,0.2-0.9,0.3c-0.2,0.2-0.5,0.2-0.5,0.3c0.2-0.1,0.5-0.2,0.7-0.3c-0.7-0.2-1,0.1-1.7,0.3c0-0.1,0.2-0.2,0.3-0.2
						c-0.2,0-0.3,0.2-0.6,0.2c0-0.2,0.8-0.4,1.2-0.7c-0.2,0-0.8,0.4-0.6,0.2c-0.2,0.3-0.8,0.3-1.2,0.7V5.3c-0.1,0.1-0.2,0.2-0.3,0.3
						l0.2-0.2c-0.3,0.3-0.8,0.4-1.1,0.7c0.7-0.5,0.2,0,0.6-0.2c-0.8,0.7-0.7,0.2-1.6,1c0.1-0.1,0.5-0.4,0.3-0.2
						c-0.2,0.1-0.4,0.3-0.6,0.4c-0.6,0.6,0.1,0-0.1,0.3c-0.3,0.1-0.3,0.3-0.5,0.6l-0.1-0.1c-0.7,0.7,0,0.3-0.6,0.9
						c0-0.1,0.1-0.2,0.1-0.3c-0.1,0.1-0.2,0.2-0.3,0.4V8.8c-0.2,0.4-0.3,0.5-0.6,0.9c0.1-0.1,0.1,0.1-0.1,0.5
						c-0.2,0.2,0-0.2-0.3,0.3c0-0.1,0-0.3,0.2-0.5c0,0,0-0.1,0-0.2c-0.2,0.2-0.4,0.7-0.5,0.8c0-0.1,0.1-0.2,0.1-0.2
						c-0.1,0.3-0.2,0.5-0.3,0.8c-0.1,0.1-0.1,0,0-0.1c-0.1,0.2-0.1,0.3-0.2,0.5c0-0.1-0.1-0.1,0-0.4c-0.1,0.3-0.2,0.5-0.3,0.8
						c0,0-0.2,0.4-0.2,0.3c-0.2,0.4-0.2,1.1-0.4,1.7c0,0,0,0.1,0,0.2c0,0.3-0.1,0.5-0.1,0.8s0,0.6,0,0.9l-0.1,0.4
						c0.1,0.5,0.1-0.5,0.2,0.3c0.1,0.6-0.1,0.2-0.1,0.5c0.1,0.3,0.3,0.8,0.4,1.4C128.1,18.1,128.1,17.9,128,17.8z M131.5,23
						c-0.1-0.1-0.4-0.2-0.4-0.2C131.3,22.8,131.3,22.9,131.5,23z M138.2,18.8c0,0.1,0,0.2,0,0.4C138.2,19.1,138.2,19,138.2,18.8z
						 M140.7,17.9L140.7,17.9C140.8,18.1,140.8,18.1,140.7,17.9z M140.4,17.4C140.4,17.3,140.4,17.3,140.4,17.4s0.1,0.1,0.1,0.3
						C140.5,17.6,140.5,17.5,140.4,17.4z M137.2,5h-0.1C137.3,4.9,137.3,4.9,137.2,5z"/>
					<path class="st1" d="M138.1,19.9C138.1,20,138.1,20,138.1,19.9C138.1,20,138.1,20,138.1,19.9z"/>
					<path class="st1" d="M127.8,13.8L127.8,13.8C127.8,13.7,127.8,13.7,127.8,13.8L127.8,13.8z"/>
					<path class="st1" d="M145.2,15c0-0.1,0-0.1,0-0.2C145.1,14.7,145.1,14.8,145.2,15z"/>
					<path class="st1" d="M141,14.6c-0.1,0.1-0.2,0.2-0.3,0.3C140.9,14.7,141,14.6,141,14.6L141,14.6z"/>
					<path class="st1" d="M144,14.7c0.1,0,0.1,0.1,0.1,0.1l0,0C144,14.6,143.8,14.5,144,14.7z"/>
					<path class="st1" d="M141.4,14.4c0,0,0.2-0.1,0.5-0.2l0,0C141.9,14.2,141.6,14.3,141.4,14.4z"/>
					<path class="st1" d="M141.9,14.2c0.1,0,0.2,0,0.2,0C142.2,14.2,142,14.2,141.9,14.2z"/>
					<path class="st1" d="M140.3,16.7c0-0.1,0-0.1,0-0.1C140.2,16.4,140.4,17.3,140.3,16.7z"/>
					<path class="st1" d="M141.6,14.4L141.6,14.4l-0.2,0.1C141.4,14.4,141.5,14.4,141.6,14.4z"/>
					<path class="st1" d="M140.4,15.9c0-0.1,0.1-0.3,0.1-0.4c0,0,0,0,0-0.1C140.4,15.6,140.4,15.9,140.4,15.9z"/>
					<path class="st1" d="M140.5,15.4c0.1-0.1,0.1-0.2,0.2-0.3C140.7,15.1,140.6,15.3,140.5,15.4z"/>
					<path class="st1" d="M141.1,14.7L141.1,14.7c-0.2,0.1-0.2,0.2-0.3,0.3C140.9,14.8,141,14.7,141.1,14.7z"/>
					<path class="st1" d="M142.6,19c0.1,0,0.3,0,0.4,0c0,0-0.1,0-0.2,0C142.7,19,142.5,19,142.6,19z"/>
					<path class="st1" d="M141.4,18.5c0.1,0,0.1,0.1,0.1,0.1l0,0C141.5,18.5,141.5,18.5,141.4,18.5z"/>
					<path class="st1" d="M142.6,18.9C142.6,18.9,143.2,18.9,142.6,18.9C142.6,18.9,142.2,18.8,142.6,18.9z"/>
					<polygon class="st1" points="145.1,14.3 145.1,14.4 145.2,14.3 					"/>
					<path class="st1" d="M141.3,10.3c0.4,0.2,0.1,0,0.5,0.2c0.1,0-0.3-0.2-0.2-0.1C141.3,10.3,141.2,10.2,141.3,10.3z"/>
					<path class="st1" d="M141.6,10.4c0,0,0.1,0,0.1,0.1C141.7,10.4,141.6,10.4,141.6,10.4z"/>
					<polygon class="st1" points="153,14.4 153.2,14.7 153.1,14.5 					"/>
					<path class="st1" d="M153.5,14.8l-0.1,0.1l0.2,0.1C153.6,15,153.5,14.9,153.5,14.8z"/>
					<path class="st1" d="M132.3,23.6L132.3,23.6c0-0.1-0.1-0.1-0.2-0.1C132.2,23.5,132.3,23.5,132.3,23.6z"/>
					<polygon class="st1" points="128.9,20.3 129,20.4 129,20.2 					"/>
					<path class="st1" d="M127.6,16.6c0,0.2,0.1,0.4,0.1,0.5C127.6,16.8,127.7,16.5,127.6,16.6z"/>
				</g>
			</g>
		</g>
	</g>
	<g>
		<path d="M176,51.4c-0.5,0.8-1.8,0.7-2.2-0.2c-0.5-0.9,0.2-2.6-1.1-2.6c-2.3,0-2.8,2.3-2.8,4.7V57h2.7v0.2h-2.7v13.1
			c0,2.6,0.2,3.9,2.2,3.9v0.2h-7.3v-0.2c2,0,2.2-1.3,2.2-3.9c0-11.6,0-12.3,0-13.1h-2.2V57h2.2c0-2.1,0-3.6,0-3.6c0-4.2,2.8-5,5.2-5
			c1.4,0,2.3,0.4,2.6,0.5C176.2,49.5,176.5,50.6,176,51.4z"/>
		<path d="M190.8,58.3c0,1.2-1.3,1.6-2.1,1.1c-0.9-0.6-0.9-1.7-2.2-1.3c-1.2,0.3-2.7,2.4-3.2,4.3v7.9c0,2.6,0.2,3.9,2.2,3.9v0.2
			h-7.3v-0.2c2,0,2.2-1.3,2.2-3.9V61c0-2.6-0.2-3.9-2.2-3.9V57h5.7v0.2c-0.3,0.2-0.6,1.6-0.6,4.8c0.9-3.2,3.6-5.2,5-5.3
			C189.8,56.5,190.9,57.1,190.8,58.3z"/>
		<path d="M199.8,62.6c-0.2,1.1-0.2,2.3-0.1,3.5c0.5,5.2,3.3,8.4,7,8.3c2.2,0,4.2-1.2,5.5-2.5v0.4c-1.3,1.1-2.8,2-5.5,2.2
			c-4.9,0.3-9.7-2.6-10.2-8.3c-0.4-5.4,3.6-9.2,8.5-9.6c4.1-0.3,7.3,2,7.9,6H199.8z M199.8,62.5H210c-0.3-2.9-1.4-5.6-5-5.7
			C202.3,56.8,200.4,59.2,199.8,62.5z"/>
		<path d="M231.6,69.9c0,3-2.3,4.6-6.4,4.6c-3.2,0-5.1-1.8-5.8-2.8c-0.8-1.2-0.6-2.5,0.3-2.8c0.9-0.4,1.9,0.3,1.8,1.3
			c-0.1,1-1.2,1.8-0.3,2.8c0.7,0.8,1.8,1.4,4,1.4c2.3,0,3.8-1.5,3.8-3.2c0-4.2-9.2-4.4-9.2-10.4c0-2.7,2.3-4.1,5.8-4.1
			c3.1,0,4.4,1.5,5.1,2.5c0.8,1.2,0.6,2.5-0.3,2.8c-0.9,0.3-1.9-0.3-1.8-1.3c0.1-1,1.1-1.7,0.2-2.7c-0.6-0.7-1.3-1.2-3.2-1.2
			c-2.2,0-3.4,1.5-3.4,3.2C222.2,64.2,231.6,64.8,231.6,69.9z"/>
		<path d="M256.6,74.1v0.2h-7.3v-0.2c2,0,2.2-1.3,2.2-3.9V62c0-2.4-0.4-5.2-3.8-5.2c-1.5,0-3.7,1.3-4.5,3.5v9.9
			c0,2.6,0.2,3.9,2.2,3.9v0.2h-7.3v-0.2c2,0,2.2-1.3,2.2-3.9V52.5c0-2.6-0.2-3.8-2.2-3.8v-0.2h5.7v0.2c-0.3,0.2-0.6,1.8-0.6,5.3v6
			c0.8-1.8,2.6-3.3,5.2-3.3c3.5,0,6,1.4,6,5.6v8C254.4,72.8,254.6,74.1,256.6,74.1z"/>
	</g>
	<g>
		<path d="M43.8,74v0.2c-0.5,0.3-0.9,0.4-1.6,0.4c-2,0-3.8-0.5-4.1-3.3c-0.8,1.4-1.9,2.6-3.4,3c-2.6,0.8-6.3,0.1-6.1-3.4
			c0.2-3.7,5.2-4.2,7.6-5c0.7-0.2,1.3-0.5,1.9-0.8c0-1.1,0-2.2,0-3.1c0-3-0.4-5.2-3-5.2c-2.3,0-3.4,0.7-3.9,1.9
			c-0.5,1.1,0.5,1.5,0.7,2.6c0.2,0.9-0.6,1.8-1.6,1.5c-0.9-0.2-1.4-1.5-0.8-2.7c0.6-1.3,1.9-3.4,5.6-3.4c3.3,0,5.7,1.6,5.7,5.1
			s0,8.8,0,8.8c0,2.3,0.1,3.7,1.7,3.7C43,74.3,43.6,74.1,43.8,74z M38,71.1c0-0.2,0-0.4,0-0.6c0,0,0-2.6,0-5.2
			c-0.5,0.3-1,0.5-1.7,0.8c-1.7,0.6-5,0.9-5.4,4.1C30.5,73.9,33,75,35.2,74C36.4,73.3,37.4,72.3,38,71.1z"/>
		<path d="M60.4,72.1v0.4c-1.1,0.8-2.7,1.9-4.8,2c-4.9,0.3-9.6-2.5-9.8-8.4c-0.2-5.8,3.3-9.1,8.2-9.6c3.5-0.4,6,1.8,6.6,3.1
			s0.2,2.5-0.8,2.7c-0.9,0.2-1.8-0.6-1.5-1.6c0.2-1,1.2-1.3,0.5-2.5c-0.7-1-2.7-1.8-4.7-1.7c-3.6,0.3-5.4,4.3-5.2,9.3
			s3.1,8.3,6.9,8.3C57.3,74.4,59.4,73.1,60.4,72.1z"/>
		<path d="M80,72.1v0.4c-1.1,0.8-2.7,1.9-4.8,2c-4.9,0.3-9.6-2.5-9.8-8.4c-0.2-5.8,3.3-9.1,8.2-9.6c3.5-0.4,6,1.8,6.6,3.1
			s0.2,2.5-0.8,2.7c-0.9,0.2-1.8-0.6-1.5-1.6c0.2-1,1.2-1.3,0.5-2.5c-0.7-1-2.7-1.8-4.7-1.7c-3.6,0.3-5.4,4.3-5.2,9.3
			c0.2,5,3.1,8.3,6.9,8.3C76.9,74.4,79,73.1,80,72.1z"/>
		<path d="M91.3,74.1v0.2H84v-0.2c2,0,2.2-1.3,2.2-3.9V61c0-2.6-0.2-3.8-2.2-3.8V57h5.7v0.2c-0.4,0.2-0.6,1.8-0.6,5.3v7.8
			C89.1,72.8,89.3,74.1,91.3,74.1z M85.8,51.4c0-1.1,0.8-2,1.9-2c1,0,1.9,0.9,1.9,2s-0.8,1.9-1.9,1.9C86.6,53.3,85.8,52.4,85.8,51.4
			z"/>
		<path d="M112.4,64.8c0.2,4.9-2.9,9.3-7.9,9.7c-5.1,0.5-9.8-2.7-10.1-8.1c-0.3-5.4,3.3-9.5,8.5-9.8
			C107.9,56.3,112.3,59.6,112.4,64.8z M109.3,65c-0.3-4.3-2.8-8.5-6.4-8.2c-3.8,0.3-5.9,4.1-5.5,9.5c0.4,5.5,3.3,8.7,7.1,8.2
			C107.8,74,109.7,69.7,109.3,65z"/>
	</g>
	<g>
		<path class="st1" d="M118.1,93.5l-37.9,0.4l-37.9,0.2l-18.9,0.1h-9.5H9.2H6.8c-0.7,0-1.7,0-2.5-0.2c-1.7-0.5-3.2-1.8-3.8-3.5
			c-0.2-0.4-0.3-0.9-0.3-1.3c-0.1-0.4-0.1-0.9-0.1-1.3v-2.4L0,76V57.1V38.2c0-0.4,0-0.8,0.1-1.3c0.1-0.4,0.2-0.9,0.3-1.3
			C0.8,34.7,1.3,34,2,33.4s1.5-1.1,2.3-1.3c0.4-0.1,0.9-0.2,1.3-0.2c0.5,0,0.8,0,1.2,0h9.5L54.2,32l37.9,0.2l37.9,0.4L92.1,33
			l-37.9,0.2l-37.9,0.1H6.8c-0.4,0-0.8,0-1.2,0c-0.3,0-0.7,0.1-1,0.2c-0.7,0.2-1.3,0.5-1.8,1s-0.9,1-1.2,1.7c-0.1,0.3-0.2,0.6-0.3,1
			c-0.1,0.3,0,0.7-0.1,1.1v18.9v18.9v9.5V88c0,0.4,0,0.8,0,1.1c0,0.3,0.1,0.7,0.3,1c0.5,1.3,1.6,2.3,2.9,2.7C5.1,93,5.7,93,6.6,93H9
			h4.7h9.5l18.9,0.1L80,93.3L118.1,93.5z"/>
	</g>
	<g>
		<path class="st1" d="M159.8,32.6l39.9-0.4l39.9-0.2l39.9-0.1h1.2c0.5,0,0.9,0,1.4,0.2c0.9,0.2,1.8,0.7,2.5,1.3s1.3,1.4,1.6,2.3
			c0.2,0.4,0.3,0.9,0.3,1.4c0,0.2,0,0.5,0,0.7v0.6v10v20v20c0,1.9-0.9,3.8-2.5,4.9c-0.8,0.6-1.7,0.9-2.6,1c-0.5,0.1-0.9,0.1-1.3,0.1
			h-1.2h-10L229,94.3l-39.9-0.2l-39.9-0.4l39.9-0.4l39.9-0.2l39.9-0.1h10h1.2c0.4,0,0.8,0,1.2,0c0.7-0.1,1.4-0.4,2-0.8
			c1.2-0.8,1.9-2.2,1.8-3.7v-20v-20v-10v-0.6c0-0.2,0-0.4,0-0.5c-0.1-0.4-0.1-0.7-0.3-1c-0.2-0.7-0.7-1.3-1.2-1.8s-1.2-0.8-1.9-1
			c-0.3-0.1-0.7-0.1-1.1-0.1h-1.2l-39.9-0.1L199.7,33L159.8,32.6z"/>
	</g>
</g>
</svg>
