<?xml version="1.0" encoding="utf-8"?>
<!-- Generator: Adobe Illustrator 22.1.0, SVG Export Plug-In . SVG Version: 6.00 Build 0)  -->
<svg version="1.1" xmlns="http://www.w3.org/2000/svg" xmlns:xlink="http://www.w3.org/1999/xlink" x="0px" y="0px"
	 viewBox="0 0 356 508" style="enable-background:new 0 0 356 508;" xml:space="preserve">
<style type="text/css">
	.st0{fill:#3A3A3A;stroke:#3A3A3A;stroke-miterlimit:10;}
	.st1{fill:#B5A04D;stroke:#B5A04D;stroke-miterlimit:10;}
	.st2{fill:#FFFFFF;stroke:#E2E2E2;stroke-miterlimit:10;}
	.st3{fill:#FFFFFF;}
	.st4{fill:none;stroke:#7D7D7D;stroke-width:0.5;stroke-miterlimit:10;}
	.st5{fill:#7D7D7D;}
	.st6{fill:#3A3A3A;}
	.st7{fill:#A5A4A4;}
	.st8{fill:#2D2F77;}
	.st9{fill:#663695;}
</style>
<g id="Layer_1">
</g>
<g id="_x3C_Layer_x3E_">
	<g>
		<path class="st0" d="M58.3,476.1c0,0-4.9,4.9,0,20c0,0,30.2,11,76,11.8s78.4-9.8,86.2-13.1c0,0,3.3-10.6,0-18.8
			c0,0-36-26.6-36.4-45.4c0,0-3.3-21.2,4.1-31.5c7.4-10.2,35.6-34.7,41.2-39.1l-5.6-230.4c0,0-70.5-23.3-172.7,0v233.9
			c0,0,40,24.3,43.8,37.3c3.8,13,2.2,30.3-1.6,35.2C89.5,441.1,58.3,476.1,58.3,476.1z"/>
		<path class="st0" d="M224.9,174.4c3.4-1.5,28.6-12.5,49.5,0c16,9.5,21.4,27.8,25.6,41.8c2.9,9.9,3.7,18.4,4.2,24
			c0.6,7.2,1.5,18.4-1,32.4c-1.5,8-3.3,17.8-9.9,28.5c-3.4,5.6-6.7,9.2-10.6,13.4c-7.8,8.4-14.4,13-25.3,21.5
			c-7.3,5.6-16.8,12.9-28.1,21.2l-0.6-25.2c0,0,3-2,7.5-5.3c7.5-5.4,12.4-8.8,17.2-12.6c8-6.4,12.6-10.1,17.7-16.5
			c3-3.9,7.3-9.4,9.8-17.7c1-3.3,1.3-5.9,1.9-11.1c1.3-10.7,1.2-19,1.2-21.5c-0.1-8.5-0.3-16.1-2.6-25.9
			c-2.3-9.7-4.6-18.7-12.2-24.6c-1.6-1.3-5.3-4-10.7-4.7c-4.2-0.5-7.5,0.5-9.6,1.1c0,0-5.1,1.6-9.8,5.3c-10.4,8.3-12.8,25.1-13,26.9
			L224.9,174.4z"/>
		<g>
			<path class="st1" d="M181.8,429.8c-0.1,0.1-1.1,0.1-3.1,0.2c-2.4,0-3.6,0.1-5.8,0c-4.5-0.1-13.8,0-23.8-0.1
				c-12.7-0.1-14-0.5-30-0.9c-9.5-0.2-17.5-0.3-23.2-0.3c0.7-6.9,0.6-12.6,0.5-16.8c-0.3-7.7-1.2-10.1-1.6-11
				c-1.7-4.1-4.2-6.7-8.6-11.2c-3.8-3.9-7.1-6.5-9-8c0,0-8-6.3-26.2-18.1l0,0V176c2.3-1.5,6-3.3,10.5-3.1c3.9,0.2,4.6,1.8,8.8,2.1
				c6.8,0.6,8.3-3.2,12.8-1.9c5.2,1.5,4.6,7,9.8,8.4c4.4,1.2,6.1-2.4,11.6-1.3c4.8,1,4.8,4,8.3,4.1c4.9,0.2,5.8-5.6,14.2-8.9
				c2.6-1,5.8-2.3,9-1.1c3.8,1.5,3.2,4.8,7.1,7c3.9,2.2,5.9-0.4,13.7,1c4.3,0.8,3.8,1.6,8,2.3c4.1,0.7,10.4,1.8,14-1.6
				c2.8-2.6,1.6-5.7,4.5-7.2c2.5-1.3,3.8,0.8,7.9,0.2c4.6-0.8,5.2-3.8,8.4-3.5c3.5,0.3,3.9,4,7.4,4.3c3.1,0.2,4.2-2.6,7.9-3.4
				c2.1-0.5,5.3-0.4,10,2.6l4.4,184.2c-17.3,14.5-30.1,26.6-36.6,33.6c-2.8,3-6.1,6.9-7.9,12.7c-1.1,3.8-1.3,8-1.5,10
				C183,423.7,184,428.8,181.8,429.8z"/>
		</g>
		<g>
			<path class="st2" d="M224.9,176c-4.7-3-7.9-3.1-10-2.6c-3.8,0.9-4.8,3.7-7.9,3.4c-3.5-0.3-3.9-4-7.4-4.3
				c-3.2-0.3-3.8,2.8-8.4,3.5c-4.1,0.7-5.4-1.4-7.9-0.2c-2.9,1.5-1.6,4.6-4.5,7.2c-3.6,3.3-9.9,2.3-14,1.6c-4.2-0.7-3.7-1.5-8-2.3
				c-7.9-1.5-9.9,1.2-13.7-1c-3.9-2.2-3.2-5.5-7.1-7c-3.2-1.2-6.4,0-9,1.1c-8.4,3.3-9.3,9.1-14.2,8.9c-3.5-0.1-3.5-3.2-8.3-4.1
				c-5.4-1.1-7.2,2.4-11.6,1.3c-5.3-1.4-4.6-7-9.8-8.4c-4.5-1.3-6,2.5-12.8,1.9c-4.2-0.4-4.9-1.9-8.8-2.1c-4.5-0.2-8.2,1.6-10.5,3.1
				l0-17.9c0,0,11-4.7,14.2-2.2c3.2,2.6,8.1,5.9,11.4,4.3c3.4-1.6,15.2-2.2,18,0.1c2.8,2.3,10-6.5,13.8-5.2
				c3.8,1.3,8.4,6.8,10.5,5.6c2.1-1.3,12.7-5.7,17.9-1.4c5.2,4.3,7,6.8,9.6,5c2.7-1.8,3.8-9.1,7-8.2c3.2,0.9,6.4,4.3,8.9,1.3
				c2.5-3,11.1-4.1,15.2-2.3c4.1,1.8,8.6,6.8,11.6,4.5c3-2.3,13-5.2,17.5-3.2c4.5,2,6.3,6.4,8.9,4.3s5.9-4.8,8.7-3.4L224.9,176z"/>
		</g>
		<path class="st0" d="M183.9,425.4c0.1,1.1,0.2,1.7,0.2,1.7c0.4,18.8,36.4,45.4,36.4,45.4c3.3,8.2,0,18.8,0,18.8
			c-7.8,3.3-40.4,13.9-86.2,13.1s-76-11.8-76-11.8c-4.9-15.1,0-20,0-20s31.2-35,35-39.9c1.2-1.6,2.2-4.5,2.9-8.1L183.9,425.4z"/>
		<circle class="st3" cx="138" cy="138.3" r="9.8"/>
		<path class="st4" d="M132.3,130.3c1,2.3,1.8,4.3,2.5,5.8c2.8,6.5,10.9,9.9,0-25.2c-10.9-35.1-14.9-26.4-16.8-46.6
			c-1.9-20.2-4.3-42.5-9.6-56s-20-7.5-24.6,0c0,0,10.5-5.8,13.5,1c2.9,6.8,1.4,5.9,3.2,13.8c1.8,7.9,6.8,16.5,6.9,21.6
			s-0.3,8.3,1.1,12.2c2.9,8.2,7.1,23.3,7.1,29.5s2.8,15.5,5.9,20.5c1.4,2.2,3.6,6.9,5.9,12"/>
		<path class="st4" d="M83.3,8.6c0,0-11.3,0.9-9.4,4.1S80.3,11.6,83.3,8.6z"/>
		<path class="st4" d="M82.9,9c0,0,8.6-7.3,5.3-8.8S83.5,4.9,82.9,9z"/>
		<g>
			<path class="st5" d="M83,8.3c1-0.1,1.9-0.1,2.8,0.1c0.9,0.2,1.8,0.6,2.5,1.2c-0.7-0.5-1.6-0.8-2.5-0.9C84.9,8.7,84,8.8,83.2,9
				l0,0C83,9.1,82.8,9,82.7,8.8C82.7,8.6,82.8,8.3,83,8.3C83,8.3,83,8.3,83,8.3z"/>
		</g>
		<g>
			<path class="st6" d="M84.2,330.6c0,2.5-2.3,3.6-4.4,3.6h-6.4V334c1.1,0,1.2-0.7,1.3-2.2v-9.5c0-1.5-0.1-2.2-1.3-2.2v-0.1H79
				c2,0,4.2,1,4.2,3.5c0,2.1-1.5,3.1-3.3,3.4C82,327,84.2,328,84.2,330.6z M77.7,320.2c-1.1,0-1.3,0.7-1.3,2.2v4.6
				c0.7,0,1.6,0,2.2,0c1.5,0,2.8-0.9,2.8-3.4s-1.6-3.4-2.8-3.4H77.7z M82.3,330.6c0-2.5-1.7-3.5-2.9-3.5c0,0-2.8,0-3,0v4.7
				c0,1.5,0.1,2.2,1.3,2.2c0.6,0,1.3,0,1.7,0C80.6,334,82.3,333.1,82.3,330.6z"/>
			<path class="st6" d="M97.9,320.1v0.1c-1.1,0-1.3,0.7-1.3,2.2v7.4c0,3.5-2.3,4.6-4.6,4.6c-2.2,0-5.1-1.1-5.1-4.6v-7.4
				c0-1.5-0.1-2.2-1.3-2.2v-0.1H90v0.1c-1.1,0-1.2,0.7-1.3,2.2v7.6c0,2.6,1.4,4.2,3.3,4.2c3.1,0,4.5-1.8,4.5-4.4v-7.4
				c0-1.5-0.1-2.2-1.3-2.2v-0.1H97.9z"/>
			<path class="st6" d="M111.7,323.1h-0.1c-0.6-1.3-1.5-2.9-3.5-2.9h-0.3c-1.1,0-1.3,0.7-1.3,2.2v9.5c0,1.5,0.1,2.2,1.3,2.2v0.1
				h-4.3V334c1.1,0,1.3-0.7,1.3-2.2v-9.5c0-1.5-0.1-2.2-1.3-2.2h-0.3c-2,0-2.9,1.6-3.5,2.9h-0.1l0.4-3h11.3L111.7,323.1z"/>
			<path class="st6" d="M125.3,323.1h-0.1c-0.6-1.3-1.5-2.9-3.5-2.9h-0.3c-1.1,0-1.3,0.7-1.3,2.2v9.5c0,1.5,0.1,2.2,1.3,2.2v0.1
				h-4.3V334c1.1,0,1.3-0.7,1.3-2.2v-9.5c0-1.5-0.1-2.2-1.3-2.2h-0.3c-2,0-2.9,1.6-3.5,2.9h-0.1l0.4-3h11.3L125.3,323.1z"/>
			<path class="st6" d="M137.7,330.7l-0.8,3.4h-9.8V334c1.1,0,1.3-0.7,1.3-2.2v-9.5c0-1.5-0.1-2.2-1.3-2.2v-0.1h9.1l0.7,2.8h-0.1
				c-0.6-1.3-1.7-2.7-3.7-2.7h-1.7c-1.1,0-1.2,0.7-1.3,2.2v4.7h1.5c1.6,0,2.8-1.1,2.8-2.5h0.1v5h-0.1c0-1.3-1.2-2.5-2.8-2.5h-1.5
				v4.6c0,1.5,0.1,2.2,1.3,2.2h2.3c2,0,3.3-2,3.9-3.3H137.7z"/>
			<path class="st6" d="M152.5,334v0.1c0,0-1.1,0-2.2,0c-0.9,0-1.7-0.2-2.3-0.9c-1.8-2-2-6-4.1-6.1c0,0-1.6,0-1.8,0v4.7
				c0,1.5,0.1,2.2,1.3,2.2v0.1h-4.3V334c1.1,0,1.2-0.7,1.3-2.2v-9.5c0-1.5-0.1-2.2-1.3-2.2v-0.1h5.6c2,0,4.2,1,4.2,3.6
				c0,2.1-1.5,3.2-3.3,3.5c2,0.6,2.5,3,3.7,4.9C150.2,333.1,151.3,334,152.5,334z M144.2,327.1c1.3,0,2.9-0.9,2.9-3.5
				c0-2.5-1.8-3.5-2.9-3.5h-0.6c-1.1,0-1.2,0.7-1.3,2.2v4.7C142.9,327.1,143.7,327.1,144.2,327.1z"/>
			<path class="st6" d="M168.8,330.6c0,2.5-2.3,3.6-4.4,3.6h-6.4V334c1.1,0,1.2-0.7,1.3-2.2v-9.5c0-1.5-0.1-2.2-1.3-2.2v-0.1h5.7
				c2,0,4.2,1,4.2,3.5c0,2.1-1.5,3.1-3.3,3.4C166.5,327,168.8,328,168.8,330.6z M162.2,320.2c-1.1,0-1.3,0.7-1.3,2.2v4.6
				c0.7,0,1.6,0,2.2,0c1.5,0,2.8-0.9,2.8-3.4s-1.6-3.4-2.8-3.4H162.2z M166.8,330.6c0-2.5-1.7-3.5-2.9-3.5c0,0-2.8,0-3,0v4.7
				c0,1.5,0.1,2.2,1.3,2.2c0.6,0,1.3,0,1.7,0C165.2,334,166.8,333.1,166.8,330.6z"/>
			<path class="st6" d="M181.1,330.7l-0.8,3.4h-9.8V334c1.1,0,1.3-0.7,1.3-2.2v-9.5c0-1.5-0.1-2.2-1.3-2.2v-0.1h9.1l0.7,2.8h-0.1
				c-0.6-1.3-1.7-2.7-3.7-2.7h-1.7c-1.1,0-1.2,0.7-1.3,2.2v4.7h1.5c1.6,0,2.8-1.1,2.8-2.5h0.1v5h-0.1c0-1.3-1.2-2.5-2.8-2.5h-1.5
				v4.6c0,1.5,0.1,2.2,1.3,2.2h2.3c2,0,3.3-2,3.9-3.3H181.1z"/>
			<path class="st6" d="M193.2,330.7l-0.8,3.4h-9.8V334c1.1,0,1.3-0.7,1.3-2.2v-9.5c0-1.5-0.1-2.2-1.3-2.2v-0.1h9.1l0.7,2.8h-0.1
				c-0.6-1.3-1.7-2.7-3.7-2.7h-1.7c-1.1,0-1.2,0.7-1.3,2.2v4.7h1.5c1.6,0,2.8-1.1,2.8-2.5h0.1v5h-0.1c0-1.3-1.2-2.5-2.8-2.5h-1.5
				v4.6c0,1.5,0.1,2.2,1.3,2.2h2.3c2,0,3.3-2,3.9-3.3H193.2z"/>
			<path class="st6" d="M207.9,334v0.1c0,0-1.1,0-2.2,0c-0.9,0-1.7-0.2-2.3-0.9c-1.8-2-2-6-4.1-6.1c0,0-1.6,0-1.8,0v4.7
				c0,1.5,0.1,2.2,1.3,2.2v0.1h-4.3V334c1.1,0,1.2-0.7,1.3-2.2v-9.5c0-1.5-0.1-2.2-1.3-2.2v-0.1h5.6c2,0,4.2,1,4.2,3.6
				c0,2.1-1.5,3.2-3.3,3.5c2,0.6,2.5,3,3.7,4.9C205.6,333.1,206.7,334,207.9,334z M199.6,327.1c1.3,0,2.9-0.9,2.9-3.5
				c0-2.5-1.8-3.5-2.9-3.5H199c-1.1,0-1.2,0.7-1.3,2.2v4.7C198.4,327.1,199.1,327.1,199.6,327.1z"/>
		</g>
		<g>
			<path d="M129.3,249.3c0,0,0.7,0.3,2.1,0.3c0,0,0.5-0.8,0.2-1.3s0.3-0.3,0.3-0.8c0.1-0.5-0.3-1.4-0.1-1.7s0.6-3.1,1.2-4.8
				c0.6-1.7,1.3-4.2,1.4-4.7c0,0,0.6,0,0.5-0.7l-0.4-0.1c0,0,1.1-2.7,1.2-3.8c0.1-1.1,0.7-2,1.1-3.4c0.4-1.5,0.9-2.8,1.7-5.5
				c0.8-2.7,0.2-1.6,1.4-5.7c1.2-4.1,1.6-4.5,2.2-7c0.7-2.5,1-3,0.8-3.1c-0.2-0.1-0.9,2-1.2,2.7c-0.3,0.7-0.6,2-1.4,4.1
				c-0.8,2.1-1.6,3.7-2.4,6.6c-0.9,2.9-1.7,4.7-2.5,7.5c-0.8,2.8-0.9,2.1-1.2,3.9s-1.2,2.8-1.3,3.2l-0.7-0.2c0,0-0.5,0.6,0.2,0.9
				c0,0-0.5,2.4-0.7,3.5c-0.4,1.5-1.2,3.3-1.7,4.8c-0.2,0.6-0.1,0.3-0.4,1.5c0,0-0.1,0.3-0.2,0.7c-0.1,0.5-0.1,0.7-0.1,0.9
				c0.1,0.3,0.4,0.4,0.4,0.6c0,0.1-0.2,0.1-0.3,0.2c-0.1,0.1-0.1,0.2,0,0.6C129.2,248.8,129.2,249,129.3,249.3z"/>
			<g>
				<path class="st7" d="M130.5,247.4c-0.1-0.9-0.1-1.8,0.1-2.6c0.1-0.9,0.7-1.6,1-2.4c0.3-0.8,0.5-1.7,0.5-2.6
					c0.4-0.8,1.2-1.4,1.3-2.3c-0.1,0.4-0.3,0.8-0.5,1.2c-0.2,0.4-0.6,0.7-0.7,1.1c0,0.9-0.2,1.8-0.5,2.6c-0.3,0.8-0.9,1.5-1,2.4
					C130.5,245.6,130.5,246.5,130.5,247.4z"/>
			</g>
			<g>
				<path class="st7" d="M132.4,238.6c0.3-0.6,0.6-1.2,0.8-1.9c0-0.2,0.1-0.3,0.2-0.5c0.1-0.2,0.2-0.3,0.3-0.4
					c0.2-0.2,0.5-0.5,0.5-0.8c0,0.4-0.2,0.7-0.5,0.9c-0.3,0.2-0.4,0.5-0.4,0.9C133,237.3,132.8,238,132.4,238.6z"/>
			</g>
			<g>
				<path class="st7" d="M134.5,232.7c0.4-1.3,0.6-2.7,1-4c0.4-1.3,1.4-2.4,1.6-3.7c0.1-0.7,0.2-1.4,0.3-2c0.2-0.7,0.5-1.3,0.7-1.9
					l1.1-3.9l-1.1,4c-0.2,0.7-0.5,1.3-0.7,1.9c-0.2,0.7-0.2,1.3-0.3,2c-0.3,1.4-1.3,2.4-1.7,3.7C135.2,230,134.9,231.4,134.5,232.7z
					"/>
			</g>
			<g>
				<path class="st7" d="M131.2,245.3c0.2-0.6,0.4-1.1,0.6-1.7c0.2-0.6,0.2-1.2,0.4-1.7c0.1-0.6,0.4-1.1,0.6-1.7
					c0.1-0.3,0.2-0.5,0.2-0.9c0.1-0.3,0.5-0.4,0.4-0.7c0.1,0.3-0.3,0.5-0.4,0.8c0,0.3-0.1,0.6-0.2,0.9c-0.2,0.6-0.5,1.1-0.6,1.7
					c-0.1,0.6-0.2,1.2-0.4,1.7C131.7,244.3,131.4,244.8,131.2,245.3z"/>
			</g>
			<g>
				<path class="st7" d="M133.6,234.7c0.1-0.3,0.4-0.5,0.6-0.7c0.3-0.2,0.3-0.5,0.4-0.8c0.2-0.6,0.5-1.2,0.6-1.8
					c0.1-0.6,0-1.3,0.3-1.9c0.1-0.3,0.3-0.6,0.4-0.8c0.1-0.3,0.3-0.6,0.2-0.9c0.1,0.3-0.1,0.6-0.2,0.9c-0.1,0.3-0.3,0.6-0.4,0.9
					c-0.3,0.6-0.2,1.2-0.3,1.9c-0.1,0.6-0.4,1.2-0.7,1.8c-0.1,0.3-0.2,0.6-0.5,0.8C134,234.2,133.8,234.4,133.6,234.7z"/>
			</g>
			<g>
				<g>
					<g>
						<g>
							<path class="st8" d="M154.3,209.5C154.3,209.5,154.3,209.5,154.3,209.5C154.3,209.6,154.3,209.5,154.3,209.5z"/>
							<path class="st8" d="M155.3,209.6L155.3,209.6c0,0,0-0.1,0-0.2C155.3,209.5,155.3,209.5,155.3,209.6z"/>
							<path class="st8" d="M154.6,208.7c0.1,0,0.5,0,0.6,0.3l0,0c0,0,0,0.1,0,0.1C155.2,208.8,154.8,208.7,154.6,208.7z"/>
							<path class="st8" d="M154,209.1c0,0-0.1,0.1,0.1-0.1c0,0,0,0,0,0C154.1,209,154,209,154,209.1z"/>
							<path class="st8" d="M154.1,208.9C154.2,208.9,154,209,154.1,208.9L154.1,208.9z"/>
							<path class="st8" d="M153.8,209.5c0-0.1,0-0.1,0-0.2C153.9,209.4,153.8,209.6,153.8,209.5
								C153.8,209.7,153.8,209.6,153.8,209.5z"/>
							<path class="st8" d="M153.8,209.7L153.8,209.7C153.8,209.6,153.8,209.6,153.8,209.7z"/>
							<path class="st8" d="M153.9,209.4c0,0.1,0,0.1,0,0.2c0,0,0,0,0-0.1C153.8,209.5,153.8,209.5,153.9,209.4z"/>
							<path class="st8" d="M153.9,209.3C153.9,209.2,154,209.1,153.9,209.3c0.1-0.2,0.1-0.3,0.1-0.3
								C154,209.1,153.9,209.1,153.9,209.3z"/>
							<path class="st8" d="M154.5,208.7c0,0,0.1,0,0.1,0c0,0,0.1,0,0.1,0C154.7,208.7,154.5,208.7,154.5,208.7z"/>
							<path class="st8" d="M154.3,210.6C154.3,210.6,154.2,210.5,154.3,210.6c-0.1-0.1-0.1-0.1-0.2-0.2
								C154.2,210.5,154.3,210.6,154.3,210.6z"/>
							<path class="st8" d="M154.2,210.5c0.1,0,0.1,0.1,0.2,0.1C154.2,210.5,154.2,210.5,154.2,210.5z"/>
							<path class="st8" d="M153.9,209.7c0-0.1,0-0.2,0-0.3C153.8,209.5,153.8,209.7,153.9,209.7L153.9,209.7z"/>
							<path class="st8" d="M155,210.7c0,0-0.1,0-0.1,0C155,210.7,155.1,210.7,155,210.7L155,210.7z"/>
							<path class="st8" d="M155.5,210.6C155.5,210.6,155.6,210.5,155.5,210.6c0.1-0.1,0.2-0.2,0.3-0.3
								C155.8,210.4,155.7,210.5,155.5,210.6z"/>
							<path class="st8" d="M155.9,210.1c0,0-0.1,0.1-0.1,0.2C155.9,210.2,155.9,210.2,155.9,210.1z"/>
							<path class="st8" d="M154.7,210.7c0,0,0,0,0.2,0L154.7,210.7C154.8,210.7,154.8,210.7,154.7,210.7z"/>
							<path class="st8" d="M154.8,210.7L154.8,210.7c0.1,0,0.2,0,0.2,0C155,210.7,154.9,210.7,154.8,210.7z"/>
							<path class="st8" d="M154.7,210.7L154.7,210.7C154.7,210.7,154.7,210.7,154.7,210.7z"/>
							<path class="st8" d="M154,210.3c0.1,0.1,0.2,0.3,0.1,0.1C154.1,210.3,154.1,210.4,154,210.3z"/>
							<path class="st8" d="M154.6,210.7c-0.1,0-0.1,0-0.2-0.1c0,0,0,0,0,0C154.5,210.7,154.5,210.7,154.6,210.7z"/>
							<path class="st8" d="M154.7,210.7l-0.1,0C154.6,210.7,154.7,210.7,154.7,210.7L154.7,210.7z"/>
							<path class="st8" d="M155.7,210.4c0.1-0.1,0.1-0.1,0.2-0.2C155.8,210.3,155.7,210.4,155.7,210.4
								C155.6,210.5,155.6,210.5,155.7,210.4z"/>
							<path class="st8" d="M155.3,210.7L155.3,210.7C155.3,210.7,155.3,210.7,155.3,210.7z"/>
							<polygon class="st8" points="156.1,209.1 156.1,209.1 156.1,209.1 							"/>
							<path class="st8" d="M155.6,210.5c-0.1,0.1-0.1,0.1-0.2,0.1C155.5,210.6,155.6,210.5,155.6,210.5
								C155.7,210.5,155.7,210.5,155.6,210.5z"/>
							<path class="st8" d="M156.1,209.8c0,0,0,0.1-0.1,0.2C156,210,156.1,209.9,156.1,209.8z"/>
							<path class="st8" d="M155.3,210.6L155.3,210.6C155.4,210.6,155.4,210.6,155.3,210.6z"/>
							<path class="st8" d="M155.3,210.6c0,0,0.1,0,0.1-0.1C155.4,210.6,155.4,210.6,155.3,210.6
								C155.3,210.6,155.3,210.6,155.3,210.6z"/>
							<path class="st8" d="M156,208.8c0,0,0.1,0.2,0.1,0.4c0,0.2,0,0.1,0-0.1c0,0,0,0-0.1-0.2c0,0.1,0.1,0.5,0.1,0.3
								C156.1,208.9,156.1,209,156,208.8c0.1,0.2-0.1-0.3-0.1-0.2C155.9,208.6,155.9,208.7,156,208.8
								C156,208.8,155.9,208.7,156,208.8z"/>
							<path class="st8" d="M156.1,209.5L156.1,209.5c0,0,0-0.1,0-0.2c0-0.1,0-0.2,0-0.2C156.1,209.3,156.2,209.4,156.1,209.5
								L156.1,209.5z"/>
							<path class="st8" d="M156,210c0-0.1,0.1-0.3,0-0.1c-0.1,0.2-0.1,0.2-0.1,0.3C156.1,209.8,155.9,210.3,156,210
								c0,0.1-0.1,0.1-0.1,0.2C155.9,210.1,156,210.1,156,210L156,210L156,210L156,210C156,210,156,210,156,210L156,210L156,210
								C156.1,209.9,156,210,156,210L156,210L156,210c0.1-0.1,0.1-0.2,0.1-0.4C156.1,209.7,156.1,209.8,156,210z"/>
							<path class="st8" d="M154.3,210.5C154.3,210.5,154.3,210.5,154.3,210.5C154.3,210.5,154.3,210.5,154.3,210.5z"/>
							<path class="st8" d="M154.4,210.6c0,0,0,0-0.1-0.1c-0.1-0.1,0,0,0,0c0,0-0.2-0.1,0,0l0,0c0.1,0.1,0.3,0.2,0.3,0.2
								C154.5,210.7,154.5,210.7,154.4,210.6z"/>
							<path class="st8" d="M155.3,210.6c0.1,0,0.2-0.1,0.3-0.2c0,0-0.1,0.1-0.1,0.1l0,0C155.4,210.6,155.4,210.6,155.3,210.6z"/>
							<path class="st8" d="M156.1,209L156.1,209c0,0,0-0.1,0-0.2C156.1,208.9,156.1,209,156.1,209z"/>
							<path class="st8" d="M155.9,208.6L155.9,208.6C155.9,208.6,155.9,208.6,155.9,208.6L155.9,208.6z"/>
							<path class="st8" d="M163.5,203.4C163.5,203.4,163.5,203.4,163.5,203.4C163.5,203.4,163.5,203.4,163.5,203.4z"/>
							<path class="st8" d="M163.2,204L163.2,204C163.2,204,163.2,203.9,163.2,204z"/>
							<path class="st8" d="M157.1,209.4c0-0.1,0-0.3,0-0.3l0,0C157,209.2,157.1,209.3,157.1,209.4z"/>
							<path class="st8" d="M157.6,203L157.6,203c-0.1,0-0.1,0-0.1,0C157.5,203.1,157.6,203.1,157.6,203z"/>
							<path class="st8" d="M157.8,203l0.2,0C157.9,203,157.8,203,157.8,203z"/>
							<path class="st8" d="M162,200.2l-0.1,0C162,200.2,161.9,200.2,162,200.2z"/>
							<path class="st8" d="M153.1,210.2c0,0.1,0.1,0.2,0.1,0.3C153.1,210.4,153.1,210.4,153.1,210.2z"/>
							<path class="st8" d="M163.7,203.8C163.7,203.7,163.7,203.7,163.7,203.8C163.7,203.8,163.6,203.8,163.7,203.8z"/>
							<path class="st8" d="M153.3,210.9C153.3,210.9,153.3,210.9,153.3,210.9c-0.1-0.1-0.1-0.2-0.2-0.3
								C153.2,210.7,153.3,210.8,153.3,210.9z"/>
							<path class="st8" d="M148.6,202.6C148.6,202.6,148.6,202.6,148.6,202.6C148.6,202.6,148.6,202.6,148.6,202.6z"/>
							<path class="st8" d="M144.9,204.6c0,0,0.1-0.1,0.1-0.1C145,204.6,144.9,204.6,144.9,204.6z"/>
							<path class="st8" d="M154.3,208.1C154.4,208,154.3,208,154.3,208.1L154.3,208.1z"/>
							<path class="st8" d="M154.8,208C154.7,208,154.7,208.1,154.8,208C154.7,208.1,154.7,208,154.8,208z"/>
							<path class="st8" d="M154,211.6L154,211.6C154,211.6,154,211.6,154,211.6z"/>
							<path class="st8" d="M154.4,208c0,0-0.1,0-0.1,0C154.3,208,154.4,208,154.4,208z"/>
							<path class="st8" d="M154.4,208C154.4,208,154.5,208,154.4,208C154.5,208,154.5,208,154.4,208z"/>
							<path class="st8" d="M154.2,208.1c0.1,0,0.1,0,0.2,0c0,0,0,0,0,0C154.3,208.1,154.2,208.1,154.2,208.1z"/>
							<path class="st8" d="M155.6,199.5C155.6,199.5,155.6,199.5,155.6,199.5C155.5,199.5,155.6,199.5,155.6,199.5z"/>
							<polygon class="st8" points="156.2,207 156.2,207 156.2,207 							"/>
							<path class="st8" d="M156.1,206.7c0.1,0.1,0.1,0.2,0.1,0.3l0-0.1L156.1,206.7z"/>
							<path class="st8" d="M163.3,201.8c0,0.1,0,0.1,0.1,0.2C163.2,201.8,163.2,201.6,163.3,201.8c0,0,0.2,0.8,0.3,0.9l0,0.1
								c0,0,0,0,0-0.1c0,0.3,0.1,0.2,0,0.6c0,0.1-0.1,0.2-0.1,0.1c0,0.1-0.1,0.2-0.1,0.3c0,0.1,0,0,0,0c-0.1,0.1-0.2,0.2-0.3,0.3
								l0,0c0,0-0.1,0.1-0.2,0.2c-0.1,0,0,0,0,0c-0.1,0-0.1,0.1-0.2,0.1c-0.1,0,0.1-0.1,0.2-0.2c-0.2,0-0.2,0.1-0.7,0.2
								c0.1,0,0.1,0,0.2-0.1c-0.2,0-0.3,0.1-0.6,0c0.1,0,0.5,0,0.3,0.1c-0.1,0-0.2,0-0.3,0c0,0-0.1,0-0.3,0l0,0c-0.2,0-0.2,0-0.3,0
								c-0.2,0-0.2-0.1-0.3-0.1c-0.3-0.1,0.2,0.1-0.2,0c-0.2-0.1-0.4-0.2-0.8-0.4c-0.2-0.1,0,0,0,0l-0.2-0.1c0,0,0,0,0,0
								c-0.1-0.1,0,0-0.2-0.1c-0.1,0-0.4-0.3-0.7-0.3c-0.1,0,0,0,0,0c-0.4-0.1-0.3-0.1-0.7-0.2c-0.1,0-0.2-0.1-0.3-0.1
								c0.2,0.1-0.1,0-0.3,0.1c0.1,0,0.1,0,0.2,0c-0.1,0-0.3,0-0.4,0c0,0,0,0,0.1,0c0,0,0,0-0.1,0c-0.1,0-0.1,0,0,0l0.1,0
								c0.1,0,0.2,0,0.2-0.1c0,0-0.1,0-0.1,0c0,0,0,0,0,0c0,0-0.1,0-0.1,0l-0.1,0l0,0c-0.2,0-0.3,0-0.5,0.1
								c-0.3,0.2-0.6,0.4-0.9,0.9c0-0.1,0,0,0-0.1c0.1-0.1,0.2-0.4,0.5-0.6c-0.1,0.1-0.1,0.1-0.1,0c-0.1,0.1-0.3,0.3-0.3,0.4
								c0,0-0.1,0.1-0.1,0.2c0.1-0.1-0.1,0.4-0.1,0.6c0,0,0,0,0-0.3c-0.1,0.3,0,0.4,0,0.7c0-0.1,0-0.1,0-0.1c0,0.2,0,0.5,0,0.4
								l0-0.1c0,0.4,0.2,1.3,0.3,1.3c0,0-0.1,0-0.1-0.1l0.3,0.7c0-0.1,0,0.2-0.1-0.1c0,0.1,0.1,0.2,0.1,0.4c0-0.1,0-0.2,0-0.1
								c0,0.3,0,0.2,0.1,0.5c0-0.1,0,0,0.1,0.2c0,0,0,0-0.1,0l0.2,0.4c0-0.1,0,0,0,0.1c0,0,0.1,0.3,0.1,0.4l0-0.2
								c0.1,0.4,0.2,0.4,0.2,0.9c0-0.1-0.1-0.1,0,0.1c0,0.1,0.1,0.5,0,0.9l0,0.1l-0.1,0.3c0.1-0.2,0.2-0.7,0.1-1c0,0.2,0,0,0,0.3
								c0,0.1,0-0.1,0-0.2c0,0.2,0,0.4-0.1,0.6c0,0-0.1,0.4-0.1,0.4c0.1-0.2,0.2-0.4,0.2-0.6c0,0,0,0.4-0.3,0.7
								c-0.1,0.1,0-0.1,0-0.1c0,0.1-0.2,0.3-0.3,0.3c0,0,0.1-0.1,0.1-0.1c-0.2,0.2-0.3,0.3-0.5,0.4c-0.1,0-0.3,0.1-0.3,0.1
								c0.1,0,0.2,0,0.1,0.1c0,0-0.5,0.1-0.6,0.1c-0.2,0,0.2-0.1,0.1-0.1c0,0-0.1,0-0.1,0c-0.1,0,0,0-0.2,0c0,0-0.4,0-0.1,0
								c-0.2,0-0.2,0-0.5-0.1c0.1,0-0.2,0-0.4-0.1c0,0,0,0,0,0c-0.4-0.3-0.5-0.5-0.7-0.8c0,0-0.1-0.2,0-0.1c0-0.1-0.1-0.1-0.1-0.2
								c-0.1-0.2,0.1,0.3,0,0.1c0,0-0.1-0.3-0.1-0.5c0,0.1,0.1,0.4,0.2,0.6c0,0-0.2-0.3-0.2-0.7c0-0.3,0-0.2,0-0.2
								c0-0.3,0.1-0.5,0.1-0.6c0-0.1,0.1-0.2,0.2-0.4c0.2-0.2,0,0,0.1,0c-0.2,0.2-0.3,0.4-0.3,0.5c0-0.1,0.1-0.1,0.1-0.2
								c0,0.1-0.1,0.3-0.1,0.4c0-0.1,0.1-0.4,0.3-0.6c0.2-0.3,0.5-0.4,0.8-0.5c0.1,0,0.2-0.1,0.2,0c-0.1,0-0.1,0-0.2,0
								c-0.1,0,0.3-0.1,0.1,0c0.2-0.1,0.5-0.1,0.8,0l0.1,0c0,0-0.2,0-0.3,0c0.1,0,0.5,0.1,0.6,0.1c-0.1,0-0.1-0.1-0.2-0.1
								c0.2,0,0.5,0.2,0.7,0.4c-0.1-0.1,0-0.1-0.2-0.2c0.1,0.1-0.1-0.1-0.2-0.1c-0.1-0.1-0.3-0.1-0.2-0.1c-0.2-0.1-0.3-0.1-0.6-0.1
								c0,0,0.1,0-0.1,0c0,0,0,0,0,0l0,0l0,0c0,0,0,0,0,0c0,0,0.1,0,0.1,0c-0.1,0-0.5,0.1-0.6,0.1c-0.1,0,0.1,0,0,0
								c-0.1,0-0.1,0-0.2,0.1c0,0-0.3,0.2,0,0c-0.1,0-0.2,0.1-0.2,0.2c-0.1,0.1-0.3,0.3-0.3,0.4c-0.1,0.1-0.1,0.3-0.1,0.2
								c0,0.1-0.1,0.3-0.1,0.4l0,0c0,0.4,0.1,0.9,0.3,1.4c0.1,0.1,0.2,0.3,0.3,0.5l0,0c0.1,0.1,0.4,0.4,0.5,0.4
								c0.2,0.2,0.9,0.3,1.2,0.2l0,0c0.2,0,0.5-0.1,0.7-0.3l0,0c0.2-0.1,0.5-0.3,0.8-0.7c0,0-0.1,0.1-0.1,0.2
								c0.3-0.4,0.4-0.9,0.4-1.3c0-0.1,0-0.2,0-0.3c0,0,0,0,0,0c0,0,0,0,0,0c0,0,0-0.1,0-0.1c0,0.1,0,0.1,0,0.1c0-0.1,0-0.2-0.1-0.3
								l0-0.1c0,0,0,0,0,0c0-0.1,0-0.1,0,0c0-0.1,0-0.1,0-0.2c0-0.1-0.1-0.3-0.1-0.4c0-0.1-0.2-0.6-0.2-0.6c0,0,0,0,0,0
								c0-0.1-0.1-0.3-0.1-0.4l0-0.1l-0.1-0.3c0-0.2,0-0.2,0-0.1c-0.2-0.5-0.1-0.2-0.2-0.7l0,0c0-0.1-0.1-0.3-0.1-0.4
								c0-0.3-0.3-1.4,0-2.1c-0.1,0.1,0.2-0.3,0.2-0.3c0,0,0.1-0.1,0,0c0.2-0.3,0.4-0.3,0.6-0.4c0,0-0.1,0,0,0c0,0,0.1,0,0.1-0.1
								c0,0,0,0-0.1,0c0.3-0.1,0.4-0.1,0.4-0.2c0.2,0,0.3,0,0.4,0c0.1,0,0.2,0-0.1,0c0.1,0,0.8,0.2,0.8,0.1c0.1,0,0.2,0.1,0.2,0.1
								c0.3,0.1,0.3,0.1,0.6,0.3l-0.1,0c0.1,0,0.2,0.1,0.4,0.2l0,0c0.5,0.3,0.2,0.1,0.7,0.4l0,0c0.1,0,0.4,0.3,0.7,0.4l-0.1,0
								c0.2,0,0.5,0.2,0.6,0.2c0,0-0.1,0-0.1,0c0.5,0.1,0.1,0,0.4,0c0.1,0-0.1,0.1,0.2,0c0.1,0,0.7-0.1,1-0.3c-0.1,0-0.1,0,0,0
								c0.2-0.1,0.6-0.3,0.7-0.6c0,0,0,0,0,0c0.1-0.2,0.2-0.6,0.1-0.7c0.1-0.2-0.3-1.1-0.2-1.1c-0.1-0.2-0.2-0.4-0.2-0.5l0,0
								c-0.2-0.3-0.3-0.4-0.4-0.5c0-0.1,0,0,0,0c-0.3-0.4-0.4-0.5-0.7-0.7l0-0.1c-0.1-0.1-0.6-0.5-1.1-0.7c0,0,0,0,0.1,0
								c-0.3-0.1-0.6-0.2-0.9-0.3c-0.3-0.1-0.6-0.1-0.7-0.1c-0.1,0-0.3,0-0.4,0c0.5,0-0.1,0,0.1,0.1c-0.2,0-0.5-0.1-0.3-0.1l0,0
								c0.1-0.1-0.6-0.1-0.6-0.1c-1,0-1.9,0.1-2.8,0.3l0.1,0c-0.1,0-0.2,0-0.3,0.1c-0.1,0-0.1,0,0.1-0.1c-0.1,0-0.4,0.1-0.4,0.1
								c-0.4,0.1,0.2-0.1,0-0.1l-0.2,0.1l0,0c-0.1,0.1-0.1,0.1-0.4,0.2c-0.2,0-0.1,0-0.2,0c0,0,0,0-0.1,0l-0.4,0.1l0.2,0
								c-0.2,0.1-0.4,0.1-0.2,0.1c-0.3,0-1.4,0.5-1.6,0.5c-0.2,0.1-0.4,0.2-0.7,0.3c0.1,0,0.1,0-0.1,0.1c0-0.1-0.5,0.1-0.7,0.2
								c0.2,0-0.7,0.3-0.4,0.3c-0.2,0.1,0,0-0.2,0c-0.4,0.3-1,0.5-1.6,0.8c0,0,0.1,0,0,0.1l-0.3,0.1c-0.1,0.1-0.1,0.1-0.3,0.2
								c0,0,0.1,0,0,0c-0.6,0.3-1.1,0.6-1.6,1c-0.5,0.4-1,0.8-1.6,1.1c0.2-0.1,0.1,0,0,0.1c0.1,0,0,0,0.1,0l-0.5,0.3
								c0,0.1-0.5,0.4-0.5,0.4l0.1-0.1c-0.1,0.2,0.4-0.1,0.4,0c0.1-0.2,0.6-0.3,0.9-0.7c0.1,0,0,0.1,0,0.1c0.1-0.1,0.2-0.2,0.3-0.3
								l0,0c0.5-0.4,0.7-0.6,1.4-0.9l-0.1,0c0.1-0.1,0.2-0.1,0.2-0.1c0.1-0.2-0.4,0.2-0.3,0.1c0.2,0,0.9-0.6,1.1-0.6
								c0.2-0.1-0.1,0,0.1-0.1l0.1,0l0-0.1c0.1-0.1,0.2-0.1,0.2-0.1c0,0-0.1,0.1-0.1,0.1c0.2-0.1,0.5-0.3,0.6-0.3l-0.2,0.1
								c0.6-0.4,1.3-0.7,1.8-1l-0.1,0c0.4-0.2,0.4-0.2,0.8-0.4l0,0c0.1-0.1,0.2-0.1,0.4-0.2c-0.1,0.1,0.3-0.1,0.1,0
								c0.5-0.2,0.2-0.1,0.5-0.3l0.1,0c0.1-0.1,0.1-0.1,0.4-0.2c-0.2,0.1,0.2,0,0,0.1c0.5-0.1,0.8-0.4,1-0.3c0.2-0.2-0.5,0.1-0.3,0
								c-0.1,0,0.2-0.1,0.4-0.2c0.2-0.1,0.3,0,0.8-0.1c0,0,0,0-0.1,0c0.2,0,0.3-0.1,0.5-0.1c0.1-0.1,0.3-0.1,0.3-0.1l-0.4,0.1
								c0.2-0.1,0.4-0.2,0.8-0.3c0,0-0.1,0.1-0.2,0.1c0.1,0,0.2-0.1,0.3-0.1c0,0.1-0.5,0.1-0.7,0.2c0.1,0,0.4-0.2,0.3-0.1
								c0.2-0.1,0.4-0.1,0.7-0.2l0,0c0,0,0.1-0.1,0.2-0.1l-0.1,0.1c0.2-0.1,0.5-0.1,0.7-0.1c-0.5,0.1-0.1,0-0.3,0
								c0.6-0.1,0.4,0,1-0.1c-0.1,0-0.3,0-0.2,0c0.1,0,0.3,0,0.4,0c0.4,0-0.1,0,0.1-0.1c0.2,0,0.2,0,0.4-0.1l0,0
								c0.5,0,0.1-0.1,0.6,0l-0.2,0l0.2,0l-0.1,0c0.3,0,0.3,0,0.6,0c-0.1,0,0-0.1,0.3,0c0.1,0-0.1,0,0.2,0.1c-0.1,0-0.2,0-0.3,0
								c0,0-0.1,0-0.1,0c0.2,0.1,0.4,0.1,0.5,0.1c0,0-0.1,0-0.1,0l0.5,0.1c0.1,0,0,0-0.1,0c0.1,0,0.2,0,0.3,0.1c0,0,0,0-0.2,0
								c0.1,0,0.3,0.1,0.4,0.1c0,0,0.2,0.1,0.1,0.1c0.2,0.1,0.5,0.2,0.8,0.5c0,0,0,0,0.1,0.1c0.2,0.2,0.4,0.4,0.7,0.7l0.1,0.2
								c0.2,0.2-0.1-0.3,0.2,0.1c0.2,0.3,0,0.1,0.1,0.2c0.1,0.1,0.3,0.4,0.3,0.7C163.4,202,163.3,201.9,163.3,201.8z M162.2,204.4
								c0.1,0,0.2-0.1,0.2-0.1C162.4,204.4,162.3,204.4,162.2,204.4z M157.1,203.1c0,0,0.1,0,0.2,0C157.3,203,157.2,203,157.1,203.1
								z M153.4,208.5L153.4,208.5C153.3,208.7,153.3,208.6,153.4,208.5z M153.6,208.3C153.6,208.3,153.6,208.3,153.6,208.3
								c-0.1,0-0.1,0.1-0.1,0.1C153.5,208.4,153.5,208.4,153.6,208.3z M154.6,199.5L154.6,199.5
								C154.5,199.5,154.6,199.5,154.6,199.5z"/>
							<path class="st8" d="M157.7,203C157.8,203,157.8,203,157.7,203C157.8,203,157.8,203,157.7,203z"/>
							<path class="st8" d="M162,200.2L162,200.2C162,200.2,162,200.2,162,200.2L162,200.2z"/>
							<path class="st8" d="M155.2,211.8l0.1,0C155.3,211.8,155.3,211.8,155.2,211.8z"/>
							<path class="st8" d="M155.3,208.1l-0.2-0.1C155.2,208.1,155.2,208.1,155.3,208.1C155.3,208.1,155.2,208.1,155.3,208.1z"/>
							<path class="st8" d="M156.1,209.6C156.1,209.6,156.1,209.6,156.1,209.6L156.1,209.6C156.1,209.5,156.1,209.4,156.1,209.6z"/>
							<path class="st8" d="M155.4,208.2c0,0,0.1,0.1,0.2,0.2l0,0C155.7,208.4,155.6,208.3,155.4,208.2z"/>
							<path class="st8" d="M155.7,208.4C155.8,208.4,155.8,208.5,155.7,208.4C155.8,208.5,155.8,208.5,155.7,208.4z"/>
							<path class="st8" d="M154,208.1C154,208.1,154,208.1,154,208.1C154.1,208.1,153.6,208.3,154,208.1z"/>
							<polygon class="st8" points="155.5,208.3 155.5,208.3 155.4,208.2 							"/>
							<path class="st8" d="M154.4,208.1c0.1,0,0.2,0,0.2,0c0,0,0,0,0.1,0C154.6,208.1,154.4,208.1,154.4,208.1z"/>
							<path class="st8" d="M154.7,208.1c0.1,0,0.1,0,0.2,0C154.9,208.1,154.8,208.1,154.7,208.1z"/>
							<path class="st8" d="M155.3,208.2L155.3,208.2c-0.1,0-0.2-0.1-0.2-0.1C155.1,208.1,155.2,208.1,155.3,208.2z"/>
							<path class="st8" d="M153,209.8c0,0.1,0,0.2,0,0.3c0,0,0,0,0-0.1C153,209.8,153,209.7,153,209.8z"/>
							<path class="st8" d="M153.2,209c0,0,0,0.1,0,0.1l0,0L153.2,209z"/>
							<path class="st8" d="M153.1,209.8C153.1,209.8,153.1,210.1,153.1,209.8C153.1,209.8,153.1,209.5,153.1,209.8z"/>
							<polygon class="st8" points="155.6,211.8 155.5,211.8 155.6,211.8 							"/>
							<path class="st8" d="M156.9,209.2c0,0.3,0,0.1,0.1,0.3c0,0.1,0-0.2,0-0.1C156.9,209.2,156.9,209.1,156.9,209.2z"/>
							<path class="st8" d="M156.9,209.4C156.9,209.4,156.9,209.4,156.9,209.4C156.9,209.4,156.9,209.4,156.9,209.4z"/>
							<polygon class="st8" points="144.3,205 144.1,205.1 144.2,205.1 							"/>
							<path class="st8" d="M144,205.3L144,205.3l-0.1,0.1C143.9,205.4,144,205.3,144,205.3z"/>
							<path class="st8" d="M161.7,204.3L161.7,204.3c0,0,0.1,0,0.1,0L161.7,204.3z"/>
							<polygon class="st8" points="163.5,203.2 163.5,203.3 163.6,203.2 							"/>
							<path class="st8" d="M162.9,201.3c0,0.1,0.1,0.2,0.1,0.2C163,201.4,163,201.3,162.9,201.3z"/>
						</g>
					</g>
				</g>
			</g>
			<g>
				<g>
					<g>
						<g>
							<path class="st8" d="M137.8,206.5C137.8,206.5,137.8,206.5,137.8,206.5C137.7,206.6,137.8,206.5,137.8,206.5z"/>
							<path class="st8" d="M138.3,206.2L138.3,206.2c0,0,0-0.1-0.1-0.1C138.3,206.1,138.3,206.2,138.3,206.2z"/>
							<path class="st8" d="M137.4,205.9c0.1-0.1,0.4-0.2,0.5-0.1l0,0c0,0,0.1,0,0.1,0C137.9,205.8,137.6,205.8,137.4,205.9z"/>
							<path class="st8" d="M137.2,206.4c0,0,0,0.1,0-0.1c0,0,0,0,0,0C137.2,206.3,137.2,206.4,137.2,206.4z"/>
							<path class="st8" d="M137.2,206.3C137.2,206.2,137.2,206.4,137.2,206.3L137.2,206.3z"/>
							<path class="st8" d="M137.3,206.8c0,0,0-0.1-0.1-0.1C137.2,206.7,137.3,206.8,137.3,206.8
								C137.3,206.9,137.3,206.9,137.3,206.8z"/>
							<path class="st8" d="M137.4,206.9L137.4,206.9C137.3,206.9,137.3,206.9,137.4,206.9z"/>
							<path class="st8" d="M137.2,206.7c0,0,0.1,0.1,0.1,0.1C137.3,206.9,137.3,206.9,137.2,206.7
								C137.3,206.8,137.3,206.8,137.2,206.7z"/>
							<path class="st8" d="M137.2,206.6C137.2,206.6,137.2,206.5,137.2,206.6C137.2,206.3,137.2,206.4,137.2,206.6z"/>
							<path class="st8" d="M137.4,206C137.4,206,137.5,205.9,137.4,206c0.1-0.1,0.1-0.1,0.2-0.1C137.5,205.9,137.4,206,137.4,206z"
								/>
							<path class="st8" d="M138.1,207.2C138.1,207.2,138,207.2,138.1,207.2c-0.1,0-0.1,0-0.2,0C138,207.2,138.1,207.2,138.1,207.2z
								"/>
							<path class="st8" d="M138,207.2c0.1,0,0.1,0,0.2,0C138,207.2,138,207.2,138,207.2z"/>
							<path class="st8" d="M137.4,206.9c-0.1-0.1-0.1-0.1-0.2-0.2C137.3,206.8,137.3,206.9,137.4,206.9L137.4,206.9z"/>
							<path class="st8" d="M138.6,206.8L138.6,206.8C138.6,206.8,138.6,206.8,138.6,206.8L138.6,206.8z"/>
							<path class="st8" d="M138.7,206.4C138.7,206.5,138.7,206.3,138.7,206.4c0-0.1,0-0.2,0-0.3
								C138.7,206.2,138.7,206.3,138.7,206.4z"/>
							<path class="st8" d="M138.7,205.9c0,0,0,0.1,0,0.1C138.7,206,138.7,206,138.7,205.9z"/>
							<path class="st8" d="M138.4,207C138.4,207,138.5,207,138.4,207L138.4,207L138.4,207z"/>
							<path class="st8" d="M138.5,206.9L138.5,206.9c0.1-0.1,0.1-0.1,0.1-0.1C138.6,206.8,138.5,206.9,138.5,206.9z"/>
							<path class="st8" d="M138.4,207L138.4,207C138.4,207,138.4,207,138.4,207z"/>
							<path class="st8" d="M137.8,207.1c0.1,0,0.3,0,0.1,0C137.8,207.2,137.9,207.2,137.8,207.1z"/>
							<path class="st8" d="M138.4,207c0,0-0.1,0.1-0.2,0.1c0,0,0,0,0,0C138.2,207.1,138.3,207.1,138.4,207z"/>
							<polygon class="st8" points="138.4,207 138.4,207 138.4,207 							"/>
							<path class="st8" d="M138.7,206.2c0-0.1,0-0.2-0.1-0.2C138.7,206.1,138.7,206.2,138.7,206.2
								C138.7,206.3,138.7,206.3,138.7,206.2z"/>
							<path class="st8" d="M138.7,206.6L138.7,206.6C138.7,206.6,138.7,206.6,138.7,206.6z"/>
							<polygon class="st8" points="138,205.4 138,205.4 138,205.4 							"/>
							<path class="st8" d="M138.7,206.3c0,0.1,0,0.1,0,0.2C138.7,206.4,138.7,206.4,138.7,206.3
								C138.7,206.3,138.7,206.3,138.7,206.3z"/>
							<path class="st8" d="M138.5,205.7c0,0,0,0.1,0.1,0.1C138.6,205.8,138.5,205.7,138.5,205.7z"/>
							<path class="st8" d="M138.7,206.6L138.7,206.6C138.7,206.6,138.7,206.6,138.7,206.6z"/>
							<path class="st8" d="M138.7,206.6C138.7,206.5,138.7,206.5,138.7,206.6C138.7,206.5,138.7,206.6,138.7,206.6
								C138.7,206.6,138.7,206.6,138.7,206.6z"/>
							<path class="st8" d="M137.7,205.4c0,0,0.2,0,0.4,0.1c0.1,0.1,0.1,0-0.1-0.1c0,0,0,0-0.2,0c0.1,0,0.4,0.1,0.2,0.1
								C137.9,205.4,137.9,205.4,137.7,205.4c0.1,0-0.2,0-0.2,0C137.6,205.4,137.7,205.4,137.7,205.4
								C137.8,205.4,137.7,205.4,137.7,205.4z"/>
							<path class="st8" d="M138.3,205.5L138.3,205.5c0,0-0.1,0-0.1-0.1c-0.1,0-0.1,0-0.1-0.1C138.1,205.4,138.3,205.5,138.3,205.5
								L138.3,205.5z"/>
							<path class="st8" d="M138.6,205.8C138.6,205.8,138.4,205.6,138.6,205.8c0,0.1,0,0,0.1,0.1C138.5,205.7,138.7,206,138.6,205.8
								c0,0.1,0.1,0.1,0.1,0.2C138.6,205.9,138.6,205.9,138.6,205.8L138.6,205.8L138.6,205.8L138.6,205.8
								C138.6,205.9,138.6,205.9,138.6,205.8L138.6,205.8C138.6,205.8,138.6,205.8,138.6,205.8C138.5,205.7,138.6,205.8,138.6,205.8
								L138.6,205.8L138.6,205.8c0-0.1-0.1-0.2-0.2-0.2C138.4,205.6,138.5,205.7,138.6,205.8z"/>
							<path class="st8" d="M138,207.1L138,207.1C138.1,207.1,138.1,207.1,138,207.1z"/>
							<path class="st8" d="M138.2,207.1c0,0,0,0-0.1,0c-0.1,0,0,0,0,0c0,0-0.2,0,0,0l0,0c0.1,0,0.3-0.1,0.3-0.1
								C138.3,207.1,138.3,207.1,138.2,207.1z"/>
							<path class="st8" d="M138.7,206.6c0-0.1,0-0.2,0-0.3c0,0,0,0.1,0,0.1l0,0C138.7,206.5,138.7,206.5,138.7,206.6z"/>
							<path class="st8" d="M138,205.4L138,205.4c0,0-0.1,0-0.1,0C137.9,205.3,137.9,205.4,138,205.4z"/>
							<polygon class="st8" points="137.6,205.3 137.6,205.3 137.5,205.3 							"/>
							<path class="st8" d="M131.6,208.3L131.6,208.3C131.5,208.3,131.5,208.3,131.6,208.3z"/>
							<path class="st8" d="M131.9,208.8L131.9,208.8C131.9,208.8,131.9,208.8,131.9,208.8z"/>
							<path class="st8" d="M137.3,203.5c-0.1-0.1-0.2-0.1-0.2-0.1l0,0C137.2,203.4,137.3,203.4,137.3,203.5z"/>
							<path class="st8" d="M135.6,207.9L135.6,207.9c0-0.1,0-0.1,0-0.1C135.6,207.8,135.6,207.9,135.6,207.9z"/>
							<path class="st8" d="M135.6,208l-0.1,0.2C135.6,208.1,135.6,208.1,135.6,208z"/>
							<path class="st8" d="M130.9,205.2l0-0.1C130.9,205.2,130.9,205.1,130.9,205.2z"/>
							<path class="st8" d="M138.1,207.6c0.1,0,0.2,0,0.3-0.1C138.2,207.6,138.1,207.6,138.1,207.6z"/>
							<path class="st8" d="M131.9,208.4C131.9,208.3,131.9,208.3,131.9,208.4C131.9,208.4,131.9,208.4,131.9,208.4z"/>
							<path class="st8" d="M138.6,207.4C138.6,207.4,138.6,207.4,138.6,207.4c-0.1,0.1-0.2,0.1-0.3,0.2
								C138.4,207.5,138.5,207.5,138.6,207.4z"/>
							<path class="st8" d="M140.3,202.2C140.3,202.2,140.3,202.2,140.3,202.2C140.3,202.2,140.3,202.2,140.3,202.2z"/>
							<path class="st8" d="M142.3,204.9c0,0-0.1-0.1-0.1-0.1C142.2,204.9,142.2,204.9,142.3,204.9z"/>
							<path class="st8" d="M136.6,206.3C136.6,206.2,136.6,206.2,136.6,206.3L136.6,206.3z"/>
							<path class="st8" d="M136.7,205.9C136.7,205.9,136.7,205.9,136.7,205.9C136.7,205.9,136.7,205.9,136.7,205.9z"/>
							<path class="st8" d="M139,206.7L139,206.7C139,206.7,139,206.7,139,206.7z"/>
							<path class="st8" d="M136.6,206.1C136.6,206.2,136.6,206.2,136.6,206.1C136.6,206.2,136.6,206.2,136.6,206.1z"/>
							<path class="st8" d="M136.6,206.1C136.6,206.1,136.6,206.1,136.6,206.1C136.6,206.1,136.6,206.1,136.6,206.1z"/>
							<path class="st8" d="M136.6,206.4c0,0,0-0.1,0-0.1c0,0,0,0,0,0C136.6,206.3,136.6,206.3,136.6,206.4z"/>
							<path class="st8" d="M134.4,201.1C134.4,201.1,134.4,201.1,134.4,201.1C134.4,201.1,134.4,201.1,134.4,201.1z"/>
							<polygon class="st8" points="135.6,204 135.6,204 135.6,204 							"/>
							<path class="st8" d="M135.5,204.2c0-0.1,0.1-0.2,0.1-0.2l-0.1,0.1C135.5,204.1,135.5,204.2,135.5,204.2z"/>
							<path class="st8" d="M131,207l0,0.2C130.9,207,130.9,206.8,131,207c0,0,0.2,0.7,0.3,0.7l0,0.1c0,0,0,0,0-0.1
								c0.1,0.2,0.1,0.1,0.3,0.4c0.1,0.1,0.1,0.2,0,0.1l0.2,0.2c0,0.1,0,0.1,0,0c0.1,0.1,0.1,0.2,0.2,0.3l0,0c0.1,0,0.1,0.1,0.2,0.2
								c0.1,0.1,0,0,0,0l0.2,0.1c0.1,0.1-0.1,0-0.2-0.1c0.1,0.2,0.1,0.1,0.5,0.4c-0.1,0-0.1-0.1-0.2-0.1c0.1,0.1,0.2,0.2,0.4,0.3
								c-0.1,0-0.4-0.3-0.2-0.2c0.1,0,0.1,0.1,0.3,0.1c0,0,0.1,0.1,0.3,0.1l0,0c0.2,0,0.2,0,0.3,0c0.2,0,0.2,0.1,0.3,0.1
								c0.3,0-0.2-0.1,0.2,0c0.2,0,0.4,0,0.7-0.1c0.2,0,0,0,0,0c0,0,0.1-0.1,0.1-0.1c0,0,0,0,0,0c0.1-0.1,0,0,0.2-0.1
								c0,0,0.4-0.2,0.5-0.5c0,0,0,0,0,0c0.1-0.3,0.1-0.3,0.2-0.5l0.1-0.2c-0.1,0.2,0-0.1,0-0.3c0,0.1,0,0.1-0.1,0.1
								c0-0.1,0-0.2,0-0.3c0,0,0,0,0,0l0-0.1c0-0.1,0,0,0,0l0,0.1c0,0.1,0,0.2,0,0.1c0,0,0-0.1,0-0.1c0,0,0,0,0,0c0,0,0,0,0-0.1
								l0-0.1l0,0c0-0.1,0-0.3,0.1-0.4c0-0.3-0.1-0.5-0.2-1c0,0.1,0,0,0.1,0c0,0.1,0.1,0.3,0.1,0.6c0-0.1,0-0.1,0-0.1
								c0-0.1,0-0.3-0.1-0.4c0,0,0-0.1,0-0.2c0,0.1-0.1-0.3-0.1-0.5c0,0,0,0,0.1,0.2c0-0.2-0.1-0.3-0.1-0.5c0,0.1,0,0.1,0,0.1
								c0-0.1-0.1-0.4,0-0.3l0,0c-0.1-0.3-0.1-1-0.1-1.1c0,0,0,0,0,0.1c0-0.2,0-0.4,0.1-0.6c0,0.1,0.2-0.1,0,0.2
								c0-0.1,0.1-0.1,0.2-0.3c0,0-0.1,0.1-0.1,0c0.2-0.1,0.1-0.1,0.3-0.2c-0.1,0,0-0.1,0.1-0.1c0,0,0,0,0,0.1
								c0.1,0,0.2-0.1,0.3-0.1c-0.1,0,0,0,0.1,0c0,0,0.3,0,0.3,0l-0.1,0c0.3,0.1,0.4,0,0.7,0.2c0,0-0.1,0,0,0.1
								c0.1,0,0.4,0.1,0.6,0.4l0,0.1l0.2,0.2c-0.1-0.1-0.4-0.4-0.6-0.5c0.1,0.1,0.1,0.1,0.2,0.2c0,0.1-0.1-0.1-0.1-0.1
								c0.1,0.1,0.2,0.2,0.3,0.3c0,0,0.2,0.3,0.2,0.2c-0.1-0.1-0.2-0.3-0.3-0.4c0,0,0.3,0.2,0.4,0.4c0,0.1-0.1,0-0.1,0
								c0,0,0.2,0.3,0.2,0.3l-0.1-0.1c0.1,0.2,0.2,0.2,0.3,0.4c0,0.1,0.1,0.2,0.1,0.2c0-0.1,0-0.2,0.1-0.1c0,0,0.1,0.4,0.1,0.5
								c0,0.1-0.1-0.2-0.1-0.1c0,0,0,0.1,0,0.1c0,0.1,0,0,0,0.1c0,0,0.1,0.3,0,0.1c0,0.2,0,0.2,0,0.4c0-0.1,0,0.2,0,0.4c0,0,0,0,0,0
								c-0.1,0.3-0.2,0.5-0.5,0.7c0,0-0.2,0.1-0.1,0c0,0-0.1,0-0.2,0.1c-0.2,0,0.2-0.1,0.1,0c0,0-0.2,0.1-0.4,0.1c0,0,0.3,0,0.5-0.1
								c0,0-0.2,0.2-0.6,0.1c-0.3,0-0.1,0-0.2,0c-0.3-0.1-0.3-0.1-0.4-0.2c-0.1-0.1-0.2-0.1-0.3-0.3c-0.1-0.2,0,0,0-0.1
								c0.1,0.2,0.2,0.3,0.3,0.4c-0.1,0-0.1-0.1-0.1-0.1c0.1,0.1,0.2,0.1,0.2,0.2c-0.1,0-0.3-0.1-0.4-0.4c-0.1-0.2-0.2-0.5-0.2-0.7
								c0-0.1,0-0.2,0-0.1l0,0.1c0,0.1,0-0.2,0-0.1c0-0.2,0-0.4,0.2-0.6l0,0c0,0-0.1,0.1-0.1,0.2c0-0.1,0.2-0.3,0.3-0.4
								c0,0-0.1,0.1-0.1,0.1c0.1-0.1,0.3-0.2,0.5-0.3c-0.1,0,0,0-0.2,0c0.1,0-0.1,0-0.2,0.1c-0.1,0.1-0.2,0.2-0.1,0.1
								c-0.1,0.1-0.2,0.2-0.3,0.4c0,0,0-0.1,0,0.1c0,0,0,0,0,0c0,0,0,0,0,0l0,0c0,0,0,0,0,0c0,0,0-0.1,0-0.1c0,0.1-0.1,0.4,0,0.5
								c0,0.1,0,0,0,0c0,0,0,0.1,0,0.1c0,0,0.1,0.3,0,0c0,0.1,0,0.1,0.1,0.2c0,0.1,0.2,0.3,0.2,0.4c0.1,0.1,0.2,0.2,0.1,0.1
								c0.1,0.1,0.2,0.1,0.3,0.2l0,0c0.3,0.1,0.8,0.1,1.1-0.2c0.1-0.1,0.2-0.2,0.3-0.3l0,0c0.1-0.1,0.2-0.4,0.2-0.5
								c0.1-0.2,0-0.8-0.1-1l0,0c-0.1-0.2-0.1-0.3-0.2-0.5l0,0c-0.1-0.2-0.2-0.4-0.4-0.7c0,0,0.1,0.1,0.1,0.1
								c-0.2-0.3-0.5-0.6-0.8-0.8c-0.1-0.1-0.1-0.1-0.2-0.1c0,0,0,0,0,0l0,0c0,0-0.1,0-0.1-0.1c0,0,0.1,0,0.1,0.1
								c-0.1,0-0.2-0.1-0.2-0.1l0,0c0,0,0,0,0,0c-0.1,0-0.1,0,0,0c0,0-0.1,0-0.1,0c-0.1,0-0.3,0-0.4-0.1c-0.1,0-0.5,0.1-0.5,0.1
								c0,0,0,0,0,0c-0.1,0-0.2,0.1-0.3,0.2l-0.1,0c-0.1,0.1-0.1,0.1-0.1,0.2c-0.1,0.1-0.1,0.2-0.1,0c-0.2,0.3-0.1,0.2-0.2,0.5l0,0
								c0,0.1,0,0.3,0,0.3c0,0.2,0.1,1.1,0.2,1.7c0-0.1,0,0.3,0.1,0.3c0,0,0,0.1,0,0c0,0.3,0,0.4,0,0.6c0,0,0-0.1,0,0
								c0,0,0,0.1,0,0.1c0,0,0,0,0-0.1c0,0.3,0,0.3,0.1,0.4c0,0.1-0.1,0.2-0.1,0.3c0,0-0.1,0.1,0-0.1c0,0.1-0.2,0.6-0.2,0.6
								c0,0-0.1,0.1-0.1,0.2c-0.1,0.2-0.1,0.2-0.3,0.4l0,0c0,0.1-0.1,0.1-0.3,0.2l0,0c-0.4,0.2-0.2,0.1-0.6,0.2l0,0
								c0,0.1-0.4,0-0.6,0l0.1,0c-0.1,0-0.4-0.1-0.5-0.2c0,0,0,0,0.1,0c-0.3-0.1-0.1,0-0.3-0.1c0,0,0.1,0-0.1-0.1
								c-0.1,0-0.5-0.2-0.6-0.4c0,0,0.1,0.1,0,0c-0.1-0.1-0.3-0.4-0.4-0.5c0,0,0,0,0,0c-0.1-0.1-0.3-0.4-0.3-0.4
								c0-0.1-0.4-0.8-0.3-0.8c0-0.1-0.1-0.3-0.1-0.4l0,0c0-0.3-0.1-0.4-0.1-0.5c0-0.1,0,0,0,0c0-0.4,0-0.4,0-0.8l0,0
								c0-0.1,0.2-0.6,0.3-0.9c0,0,0,0,0,0c0.1-0.4,0.6-0.9,0.6-1.1c0-0.1,0.1-0.2,0.1-0.3c-0.2,0.3,0-0.1-0.1,0
								c0.1-0.1,0.3-0.3,0.2-0.1l0,0c0,0.1,0.3-0.4,0.4-0.3c0.5-0.6,1.1-1,1.8-1.3l-0.1,0l0.2-0.1c0.1,0,0.1,0-0.1,0.1
								c0.1,0,0.3-0.1,0.3-0.1c0.3-0.1-0.1,0.1,0,0.1l0.1-0.1l0,0c0.1-0.1,0.1-0.1,0.3-0.1c0.1,0,0.1,0,0.1,0c0,0,0,0,0.1,0l0.3-0.1
								l-0.1,0c0.1,0,0.3,0,0.1-0.1c0.2,0,1.2,0,1.3,0c0.2,0,0.4,0,0.6,0.1c-0.1,0-0.1-0.1,0.1,0c-0.1,0.1,0.3,0.2,0.5,0.3
								c-0.1-0.1,0.5,0.2,0.4,0.1c0.2,0.1,0,0,0.1,0.1c0.4,0.1,0.8,0.4,1.2,0.7c0,0,0-0.1,0.1,0c0.1,0.1,0.1,0.1,0.2,0.2
								c0.1,0.1,0.1,0,0.2,0.1c0,0,0-0.1,0,0c0.7,0.7,1.5,1.4,2,2.3c-0.1-0.1,0-0.1,0.1,0c0-0.1,0,0,0,0l0.2,0.4
								c0.1,0,0.2,0.4,0.3,0.4l-0.1-0.1c0.2,0.1,0-0.3,0.1-0.3c-0.2-0.1-0.2-0.5-0.5-0.7c0-0.1,0.1,0,0.1,0c-0.1,0-0.1-0.1-0.3-0.3
								l0,0c-0.3-0.4-0.5-0.6-0.9-1.1l0,0.1c-0.1-0.1-0.1-0.1-0.1-0.2c-0.1-0.1,0.2,0.3,0.1,0.2c0-0.2-0.6-0.6-0.7-0.8
								c-0.2-0.1,0,0.1-0.1-0.1l0-0.1l-0.1,0c-0.1-0.1-0.1-0.2-0.1-0.2c0,0,0.1,0.1,0.1,0.1c-0.1-0.1-0.4-0.3-0.4-0.3l0.1,0.1
								c-0.5-0.3-1-0.7-1.5-0.8l0,0c-0.4-0.1-0.3-0.2-0.7-0.3l0,0c-0.1,0-0.2,0-0.3-0.1c0.1,0-0.2-0.1,0-0.1c-0.4,0-0.2,0-0.5,0
								l-0.1,0c-0.1,0-0.1,0-0.3,0c0.2,0-0.1,0,0.1-0.1c-0.5-0.1-0.7,0.1-0.9,0c-0.2,0.1,0.4,0,0.3,0c0.1,0-0.2,0.1-0.3,0.1
								c-0.1,0-0.3-0.1-0.6,0l0.1,0c-0.1,0-0.3,0.1-0.4,0.1c-0.1,0.1-0.2,0.1-0.2,0.1l0.3-0.1c-0.2,0.1-0.3,0.2-0.6,0.3
								c0,0,0.1-0.1,0.2-0.1c-0.1,0-0.2,0.1-0.3,0.1c0-0.1,0.4-0.2,0.6-0.3c-0.1,0-0.4,0.2-0.3,0.1c-0.1,0.1-0.3,0.1-0.5,0.3l0,0
								c0,0-0.1,0.1-0.2,0.1l0.1-0.1c-0.2,0.1-0.4,0.2-0.5,0.3c0.3-0.2,0.1,0,0.3-0.1c-0.4,0.3-0.3,0.1-0.7,0.5
								c0.1-0.1,0.2-0.2,0.2-0.1c-0.1,0.1-0.2,0.2-0.3,0.2c-0.3,0.3,0.1,0,0,0.1c-0.1,0.1-0.1,0.1-0.2,0.3l0,0
								c-0.3,0.3,0,0.1-0.3,0.4l0.1-0.2c0,0.1-0.1,0.1-0.1,0.2l0-0.1c-0.1,0.2-0.2,0.2-0.3,0.4c0,0,0,0.1-0.1,0.2
								c-0.1,0.1,0-0.1-0.1,0.2c0-0.1,0-0.1,0.1-0.2c0,0,0-0.1,0-0.1c-0.1,0.1-0.2,0.3-0.2,0.4c0,0,0-0.1,0.1-0.1
								c-0.1,0.1-0.1,0.2-0.1,0.4c0,0,0,0,0,0c0,0.1,0,0.1-0.1,0.2c0,0,0,0,0-0.2c0,0.1-0.1,0.2-0.1,0.4c0,0-0.1,0.2-0.1,0.1
								c-0.1,0.2-0.1,0.5-0.2,0.8c0,0,0,0,0,0.1c0,0.3-0.1,0.5-0.1,0.8l0,0.2c0,0.2,0-0.2,0.1,0.2c0,0.3,0,0.1,0,0.2
								c0,0.1,0.1,0.4,0.2,0.6C131,207.2,131,207.1,131,207z M132.6,209.4c-0.1,0-0.2-0.1-0.2-0.1
								C132.5,209.3,132.5,209.4,132.6,209.4z M135.7,207.5c0,0,0,0.1,0,0.2C135.6,207.6,135.7,207.6,135.7,207.5z M136.8,207.1
								L136.8,207.1C136.9,207.2,136.9,207.1,136.8,207.1z M136.7,206.8C136.7,206.8,136.7,206.8,136.7,206.8c0,0.1,0,0.1,0.1,0.1
								C136.7,206.9,136.7,206.9,136.7,206.8z M135.2,201.1L135.2,201.1C135.3,201.1,135.2,201.1,135.2,201.1z"/>
							<path class="st8" d="M135.6,208C135.6,208,135.6,208,135.6,208C135.6,208.1,135.6,208.1,135.6,208z"/>
							<path class="st8" d="M130.9,205.2L130.9,205.2C130.9,205.2,130.9,205.2,130.9,205.2L130.9,205.2z"/>
							<path class="st8" d="M138.9,205.7L138.9,205.7C138.9,205.6,138.9,205.6,138.9,205.7z"/>
							<path class="st8" d="M137,205.5c0,0-0.1,0.1-0.1,0.1C136.9,205.6,136.9,205.6,137,205.5C137,205.6,136.9,205.6,137,205.5z"/>
							<path class="st8" d="M138.3,205.6C138.4,205.6,138.4,205.6,138.3,205.6L138.3,205.6C138.3,205.6,138.3,205.5,138.3,205.6z"/>
							<path class="st8" d="M137.1,205.5c0,0,0.1-0.1,0.2-0.1l0,0C137.4,205.4,137.2,205.4,137.1,205.5z"/>
							<path class="st8" d="M137.4,205.4c0,0,0.1,0,0.1,0C137.5,205.4,137.4,205.4,137.4,205.4z"/>
							<path class="st8" d="M136.6,206.5C136.6,206.5,136.6,206.5,136.6,206.5C136.6,206.4,136.7,206.8,136.6,206.5z"/>
							<path class="st8" d="M137.2,205.5L137.2,205.5L137.2,205.5C137.2,205.5,137.2,205.5,137.2,205.5z"/>
							<path class="st8" d="M136.7,206.1c0-0.1,0-0.1,0.1-0.2c0,0,0,0,0,0C136.7,206,136.7,206.1,136.7,206.1z"/>
							<path class="st8" d="M136.7,205.9c0-0.1,0.1-0.1,0.1-0.1C136.8,205.8,136.8,205.9,136.7,205.9z"/>
							<path class="st8" d="M137,205.6L137,205.6c-0.1,0.1-0.1,0.1-0.1,0.1C136.9,205.7,137,205.6,137,205.6z"/>
							<path class="st8" d="M137.7,207.6c0.1,0,0.1,0,0.2,0C137.9,207.6,137.9,207.6,137.7,207.6
								C137.7,207.6,137.7,207.6,137.7,207.6z"/>
							<path class="st8" d="M137.2,207.3C137.2,207.4,137.2,207.4,137.2,207.3L137.2,207.3L137.2,207.3z"/>
							<path class="st8" d="M137.7,207.5C137.7,207.5,138,207.5,137.7,207.5C137.7,207.5,137.5,207.5,137.7,207.5z"/>
							<polygon class="st8" points="138.8,205.4 138.9,205.5 138.9,205.4 							"/>
							<path class="st8" d="M137.1,203.6c0.2,0.1,0.1,0,0.2,0.1c0.1,0-0.1-0.1-0.1-0.1C137.1,203.5,137,203.5,137.1,203.6z"/>
							<path class="st8" d="M137.2,203.6C137.3,203.6,137.3,203.6,137.2,203.6C137.3,203.6,137.3,203.6,137.2,203.6z"/>
							<polygon class="st8" points="142.5,205.4 142.6,205.6 142.6,205.5 							"/>
							<path class="st8" d="M142.8,205.6L142.8,205.6l0.1,0.1C142.8,205.7,142.8,205.7,142.8,205.6z"/>
							<path class="st8" d="M133,209.7L133,209.7c0,0,0,0-0.1-0.1L133,209.7z"/>
							<polygon class="st8" points="131.4,208.2 131.4,208.2 131.4,208.1 							"/>
							<path class="st8" d="M130.8,206.5c0,0.1,0,0.2,0,0.2C130.8,206.5,130.8,206.4,130.8,206.5z"/>
						</g>
					</g>
				</g>
			</g>
			<path class="st9" d="M126.9,239.1H77.8c-1.3,0-2.4-1.1-2.4-2.4v-17.7c0-1.3,1.1-2.4,2.4-2.4h53.6"/>
			<path class="st9" d="M145.2,216.7h53.1c1.3,0,2.4,1.1,2.4,2.4v17.7c0,1.3-1.1,2.4-2.4,2.4h-56.9"/>
			<g>
				<path class="st3" d="M153.1,222.5c-0.2,0.4-0.8,0.3-1-0.1c-0.2-0.4,0.1-1.2-0.5-1.2c-1.1,0-1.3,1-1.3,2.1v1.7h1.2v0.1h-1.2v6
					c0,1.2,0.1,1.8,1,1.8v0.1H148V233c0.9,0,1-0.6,1-1.8c0-5.3,0-5.7,0-6h-1v-0.1h1c0-1,0-1.6,0-1.6c0-1.9,1.3-2.3,2.4-2.3
					c0.6,0,1.1,0.2,1.2,0.2C153.2,221.6,153.3,222.2,153.1,222.5z"/>
				<path class="st3" d="M160,225.7c0,0.5-0.6,0.7-1,0.5c-0.4-0.3-0.4-0.8-1-0.6c-0.6,0.2-1.2,1.1-1.5,2l0,3.6c0,1.2,0.1,1.8,1,1.8
					v0.1h-3.4V233c0.9,0,1-0.6,1-1.8V227c0-1.2-0.1-1.8-1-1.8v-0.1h2.6v0.1c-0.1,0.1-0.3,0.7-0.3,2.2c0.4-1.5,1.7-2.4,2.3-2.5
					C159.5,224.9,160,225.2,160,225.7z"/>
				<path class="st3" d="M164.1,227.7c-0.1,0.5-0.1,1.1-0.1,1.6c0.2,2.4,1.5,3.9,3.2,3.8c1,0,1.9-0.5,2.5-1.1v0.2
					c-0.6,0.5-1.3,0.9-2.5,1c-2.3,0.1-4.5-1.2-4.7-3.8c-0.2-2.5,1.7-4.3,3.9-4.4c1.9-0.1,3.4,0.9,3.7,2.7H164.1z M162.6,229.4
					 M164.1,227.6h4.7c-0.1-1.3-0.6-2.6-2.3-2.6C165.2,225,164.4,226.1,164.1,227.6z"/>
				<path class="st3" d="M178.8,231.1c0,1.4-1.1,2.1-3,2.1c-1.5,0-2.4-0.8-2.7-1.3c-0.4-0.5-0.3-1.1,0.1-1.3
					c0.4-0.2,0.9,0.2,0.8,0.6c0,0.5-0.6,0.8-0.1,1.3c0.3,0.4,0.8,0.7,1.8,0.7c1,0,1.8-0.7,1.8-1.5c0-2-4.3-2-4.3-4.8
					c0-1.2,1-1.9,2.7-1.9c1.4,0,2,0.7,2.3,1.1c0.4,0.5,0.3,1.1-0.1,1.3c-0.4,0.2-0.9-0.2-0.8-0.6c0-0.5,0.5-0.8,0.1-1.2
					c-0.3-0.3-0.6-0.5-1.5-0.5c-1,0-1.6,0.7-1.6,1.5C174.4,228.5,178.8,228.7,178.8,231.1z"/>
				<path class="st3" d="M190.3,233L190.3,233l-3.4,0.1V233c0.9,0,1-0.6,1-1.8v-3.8c0-1.1-0.2-2.4-1.8-2.4c-0.7,0-1.7,0.6-2.1,1.6
					v4.6c0,1.2,0.1,1.8,1,1.8v0.1h-3.4V233c0.9,0,1-0.6,1-1.8V223c0-1.2-0.1-1.8-1-1.8v-0.1h2.6v0.1c-0.2,0.1-0.3,0.8-0.3,2.4v2.8
					c0.4-0.8,1.2-1.5,2.4-1.5c1.6,0,2.8,0.7,2.8,2.6v3.7C189.3,232.4,189.4,233,190.3,233z"/>
			</g>
			<g>
				<path class="st3" d="M92.1,232.9L92.1,232.9c-0.2,0.2-0.4,0.3-0.8,0.3c-0.9,0-1.8-0.2-1.9-1.5c-0.4,0.7-0.9,1.2-1.6,1.4
					c-1.2,0.4-2.9,0.1-2.8-1.6c0.1-1.7,2.4-1.9,3.5-2.3c0.3-0.1,0.6-0.2,0.9-0.4c0-0.5,0-1,0-1.4c0-1.4-0.2-2.4-1.4-2.4
					c-1,0-1.6,0.3-1.8,0.9c-0.2,0.5,0.2,0.7,0.3,1.2c0.1,0.4-0.3,0.8-0.7,0.7c-0.4-0.1-0.6-0.7-0.4-1.3c0.3-0.6,0.9-1.6,2.6-1.6
					c1.5,0,2.6,0.8,2.6,2.4c0,1.6,0,4.1,0,4.1c0,1.1,0,1.7,0.8,1.7C91.7,233.1,92,233,92.1,232.9z M89.4,231.6c0-0.1,0-0.2,0-0.3
					c0,0,0-1.2,0-2.4c-0.2,0.1-0.5,0.2-0.8,0.4c-0.8,0.3-2.3,0.4-2.5,1.9c-0.2,1.7,1,2.2,2,1.7C88.7,232.6,89.1,232.2,89.4,231.6z"
					/>
				<path class="st3" d="M99.8,232.1v0.2c-0.5,0.4-1.2,0.9-2.2,0.9c-2.3,0.1-4.4-1.1-4.5-3.9c-0.1-2.7,1.5-4.2,3.8-4.4
					c1.6-0.2,2.8,0.8,3,1.4c0.3,0.6,0.1,1.2-0.4,1.3c-0.4,0.1-0.8-0.3-0.7-0.7c0.1-0.5,0.6-0.6,0.2-1.1c-0.3-0.5-1.2-0.8-2.2-0.8
					c-1.7,0.1-2.5,2-2.4,4.3c0.1,2.3,1.4,3.8,3.2,3.8C98.4,233.2,99.3,232.6,99.8,232.1z"/>
				<path class="st3" d="M108.8,232.1v0.2c-0.5,0.4-1.2,0.9-2.2,0.9c-2.3,0.1-4.4-1.1-4.5-3.9c-0.1-2.7,1.5-4.2,3.8-4.4
					c1.6-0.2,2.8,0.8,3,1.4c0.3,0.6,0.1,1.2-0.4,1.3c-0.4,0.1-0.8-0.3-0.7-0.7c0.1-0.5,0.6-0.6,0.2-1.1c-0.3-0.5-1.2-0.8-2.2-0.8
					c-1.7,0.1-2.5,2-2.4,4.3c0.1,2.3,1.4,3.8,3.2,3.8C107.4,233.2,108.4,232.6,108.8,232.1z"/>
				<path class="st3" d="M114,233L114,233l-3.4,0.1V233c0.9,0,1-0.6,1-1.8v-4.3c0-1.2-0.1-1.8-1-1.8v-0.1h2.6v0.1
					c-0.2,0.1-0.3,0.8-0.3,2.4v3.6C113,232.4,113.1,233,114,233z M111.5,222.5c0-0.5,0.4-0.9,0.9-0.9c0.5,0,0.9,0.4,0.9,0.9
					c0,0.5-0.4,0.9-0.9,0.9C111.9,223.4,111.5,223,111.5,222.5z"/>
				<path class="st3" d="M123.8,228.7c0.1,2.2-1.3,4.3-3.6,4.5c-2.3,0.2-4.5-1.2-4.7-3.7c-0.1-2.5,1.5-4.4,3.9-4.5
					C121.7,224.8,123.7,226.3,123.8,228.7z M122.4,228.8c-0.1-2-1.3-3.9-2.9-3.8c-1.8,0.1-2.7,1.9-2.5,4.4c0.2,2.5,1.5,4,3.3,3.8
					C121.6,232.9,122.5,231,122.4,228.8z"/>
			</g>
			<g>
				<path class="st8" d="M126.4,242l-17.5,0.1l-17.5,0l-8.7,0l-4.4,0l-2.2,0l-1.1,0c-0.3,0-0.8,0-1.1-0.1c-0.8-0.2-1.4-0.8-1.7-1.5
					c-0.1-0.4-0.2-0.8-0.2-1.1l0-1.1l0-4.4l0-8.7l0-8.7c0-0.8,0.3-1.6,0.9-2.1c0.3-0.3,0.7-0.5,1-0.6c0.4-0.1,0.8-0.1,1.1-0.1l4.4,0
					l17.5,0l17.5,0l17.5,0.1l-17.5,0.1l-17.5,0l-17.5,0l-4.4,0c-0.4,0-0.7,0-1,0.1c-0.3,0.1-0.6,0.3-0.9,0.5
					c-0.5,0.4-0.7,1.1-0.7,1.8l0,8.7l0,8.7l0,4.4c0,0.7-0.1,1.5,0.1,2.1c0.2,0.6,0.8,1.1,1.4,1.3c0.3,0.1,0.6,0.1,1,0.1l1.1,0l2.2,0
					l4.4,0l8.7,0l17.5,0L126.4,242z"/>
			</g>
			<g>
				<path class="st8" d="M145.6,213.9l18.4-0.1l18.4,0l18.4,0c0.4,0,0.8,0,1.2,0.1c0.4,0.1,0.8,0.3,1.1,0.6c0.6,0.5,0.9,1.4,0.9,2.2
					l0,4.6l0,9.2l0,9.2c0,0.8-0.4,1.7-1.1,2.2c-0.3,0.2-0.7,0.4-1.2,0.5c-0.4,0-0.8,0-1.2,0l-4.6,0l-18.4,0l-18.4,0l-18.4-0.1
					l18.4-0.1l18.4,0l18.4,0l4.6,0c0.4,0,0.8,0,1.1,0c0.3,0,0.7-0.2,1-0.4c0.6-0.4,0.9-1.1,0.9-1.8l0-9.2l0-9.2l0-4.6
					c0.1-0.7-0.2-1.4-0.7-1.9c-0.3-0.2-0.6-0.4-0.9-0.5c-0.3-0.1-0.7-0.1-1.1-0.1l-18.4,0l-18.4,0L145.6,213.9z"/>
			</g>
		</g>
		<g>
			<path class="st6" d="M126.8,341.9L109,342l-17.8,0l-17.8,0c-0.8,0-1.5,0-2.3,0c-0.8-0.1-1.5-0.6-2-1.2c-0.2-0.3-0.4-0.7-0.5-1.1
				c-0.1-0.4-0.1-0.8-0.1-1.2l0-2.2l0-8.9l0-8.9l0-2.2c0-0.4,0-0.8,0.1-1.2c0.1-0.4,0.3-0.8,0.5-1.1c0.5-0.7,1.2-1.1,2-1.2
				c0.8-0.1,1.5,0,2.3,0l17.8,0l17.8,0l17.8,0.1l-17.8,0.1l-17.8,0l-17.8,0c-0.7,0-1.5,0-2.2,0c-0.7,0.1-1.3,0.5-1.7,1
				c-0.2,0.3-0.3,0.6-0.4,0.9c-0.1,0.3-0.1,0.7-0.1,1.1l0,2.2l0,8.9l0,8.9l0,2.2c0,0.4,0,0.7,0.1,1.1c0.1,0.3,0.2,0.7,0.4,0.9
				c0.4,0.6,1,0.9,1.7,1c0.7,0.1,1.5,0,2.2,0l17.8,0l17.8,0L126.8,341.9z"/>
		</g>
		<g>
			<path class="st6" d="M143.3,313.1l20.4-0.1l20.4,0l20.4,0l2.5,0l1.3,0c0.4,0,0.9,0,1.3,0.1c0.9,0.2,1.7,0.9,2,1.7
				c0.2,0.4,0.3,0.9,0.2,1.3l0,1.3l0,10.2l0,10.2l0,1.3c0,0.4-0.1,0.9-0.2,1.3c-0.4,0.8-1.1,1.5-2,1.7c-0.5,0.1-0.9,0.1-1.3,0.1
				l-1.3,0l-2.5,0l-20.4,0l-20.4,0l-20.4-0.1l20.4-0.1l20.4,0l20.4,0l2.5,0l1.3,0c0.4,0,0.8,0,1.2-0.1c0.8-0.2,1.4-0.7,1.7-1.5
				c0.2-0.4,0.2-0.7,0.2-1.2l0-1.3l0-10.2l0-10.2l0-1.3c0-0.4,0-0.8-0.2-1.2c-0.3-0.7-1-1.3-1.7-1.5c-0.4-0.1-0.8-0.1-1.2-0.1
				l-1.3,0l-2.5,0l-20.4,0l-20.4,0L143.3,313.1z"/>
		</g>
	</g>
</g>
</svg>
