<?xml version="1.0" encoding="utf-8"?>
<!-- Generator: Adobe Illustrator 22.1.0, SVG Export Plug-In . SVG Version: 6.00 Build 0)  -->
<svg version="1.1" xmlns="http://www.w3.org/2000/svg" xmlns:xlink="http://www.w3.org/1999/xlink" x="0px" y="0px"
	 viewBox="0 0 356 508" style="enable-background:new 0 0 356 508;" xml:space="preserve">
<style type="text/css">
	.st0{fill:#966342;stroke:#4C3429;stroke-miterlimit:10;}
	.st1{fill:#4C3429;}
	.st2{fill:#846659;stroke:#4C3429;stroke-width:0.75;stroke-miterlimit:10;}
	.st3{fill:#40403F;stroke:#303030;stroke-width:0.5;stroke-miterlimit:10;}
	.st4{fill:#FFFFFF;}
	.st5{fill:none;stroke:#7D7D7D;stroke-width:0.5;stroke-miterlimit:10;}
	.st6{fill:#7D7D7D;}
	.st7{fill:#A5A4A4;}
	.st8{fill:#2D2F77;}
	.st9{fill:#663695;}
</style>
<g id="Layer_1">
</g>
<g id="_x3C_Layer_x3E_">
	<g>
		<path class="st0" d="M249.4,336.2c0,0,11.6,22,22.9,26.2c0,0-11.9-1.1-11.4,4c0.5,5.1,4-2.6,23.9,7.8s12.4-10.8,38.5-13.3
			c0,0,12.2-2.4,0-4.3c-12.2-1.9-13.9,6.3-19.3,3.3c-5.3-3,3.5-16.4,0.5-20.6c-3-4.2-8.2,10.1-9.6,15.8c0,0-8.9-28.7-12.7-30.3
			c-3.8-1.6-7.9-5.8-8.1-13.2c0,0-19.4,18-22.7,21.4C251.3,333,251.3,332.6,249.4,336.2z"/>
		<path class="st0" d="M29.1,328.4c2.8-4.8,4.8-32.3,21.2-63.8S69.6,237,69.8,232c0.3-4.9-0.5-13.3,0-20.6
			c0.5-7.3-20.3-13.8-29.4-3.6C31.3,218,7,234.5,1.4,295.6s16.7,46.2,19.2,46.4S29.1,328.4,29.1,328.4z"/>
		<path class="st0" d="M31.2,336.7c-3.7,3.5-1.6,17.5,8.7,35.7c10.4,18.2,39.6,44.4,51.5,44.4s56.8-1.4,70.4,2.1
			c13.6,3.5,40.9,13.6,43.7,15.9c2.8,2.3-4.8-14.5-9.7-20.2s72.3,7.6,79.7,17.3c7.4,9.7-14.4-29.2-46.3-32.8c-1.8-0.2-2.7-3,8.3-2.8
			c10.9,0.2,19.4,0.5,21.3,1.2c1.9,0.7-4.9-11.1-37.9-10.4c0,0,0.6-19.2-11.7-25.8c-12.2-6.6-79.1-39.6-128.4-36.3
			C31.7,328.4,31.2,336.7,31.2,336.7z"/>
		<g>
			<path class="st1" d="M221.4,384.7c-0.1,2.2-0.6,4.3-1.5,6.3c-0.4,1-0.9,2-1.6,2.8c-0.7,0.9-1.5,1.7-2.5,2.2
				c-1.9,1.1-3.9,1.9-5.9,2.5l-1.5,0.5l-1.5,0.4l-1.5,0.4l-1.6,0.3c-2.1,0.5-4.2,0.8-6.2,1.1c-2.1,0.3-4.2,0.6-6.3,0.8
				c-2.1,0.2-4.2,0.4-6.3,0.6c-2.1,0.2-4.2,0.3-6.3,0.4c-8.4,0.5-16.8,0.8-25.2,0.8c-4.2,0.1-8.4-0.1-12.6-0.4
				c-4.2-0.4-8.4-0.9-12.5-1.8c-16.6-3.3-32.3-9.9-46.6-18.9c-7.1-4.5-13.9-9.5-20.2-15.1c-6.3-5.6-12.1-11.7-16.8-18.7
				c4.7,7,10.6,13,16.9,18.6c6.3,5.6,13.1,10.6,20.2,15c14.3,8.8,30,15.4,46.5,18.6c4.1,0.8,8.3,1.3,12.5,1.7
				c4.2,0.3,8.4,0.4,12.6,0.3c8.4-0.1,16.8-0.4,25.2-0.9c2.1-0.1,4.2-0.3,6.3-0.5c2.1-0.2,4.2-0.4,6.3-0.6c2.1-0.2,4.2-0.5,6.2-0.8
				c2.1-0.4,4.1-0.7,6.2-1.1l1.5-0.3l1.5-0.4l1.5-0.4l1.5-0.5c2-0.6,3.9-1.4,5.7-2.4c0.9-0.5,1.6-1.2,2.2-2c0.6-0.8,1.1-1.7,1.4-2.7
				c0.8-1.9,1.3-3.9,1.4-5.9L221.4,384.7z"/>
		</g>
		<path class="st0" d="M31.3,321c-1.2,4.8-7.2,19.9,1.5,13.7c8.7-6.1,34.9-9.4,50-9.8c15.1-0.4,55-0.6,128.7,37.8
			c0,0,3.8,2.8,5.4,6.6c0,0,19.8-6.2,33.3-35.1c1.4-3,32.9-28.3,37.9-40c5-11.6,7-23.3,10.3-30.1c3.3-6.8,11.9-25.6,15.8-28.2
			c4.4-2.9,9.6-6.4,11.7-13.3c0.2-0.5,0.6-3.3,1.5-8.9c1.5-9.9,1.7-11.4,3.1-13.3c2-2.7,3.7-2.3,8.9-5.4c3.1-1.9,8.5-5.1,12-10.6
			c0.8-1.2,6.6-10.6,2.7-19.2c-1.8-4.1-5.1-6.3-7.8-8.2c-4.3-3-8.2-4.1-12.6-5.2c-6-1.5-13.9-3.3-23.5-4.9c-0.6-1.2-5.5-10.9-16-12
			c-12.3-1.3-19.4,4.7-24,15.3c0,0-10.2-3.3-18.5,2.4c-8.2,5.7-12.6,8.8-14.4,11.4c0,0-16-1.6-37.2,18.2
			c-21.2,19.8-50.5,31.3-55.8,32.2c-5.3,0.9-21.4,2.9-30.5,0.5c-9.1-2.3-50-6.6-78.8,89.3L31.3,321z"/>
		<g>
			<path class="st1" d="M248.6,336.3c-1.8-1.5-3.6-2.9-5.3-4.5c-0.2-0.2-0.4-0.4-0.7-0.6c-0.1-0.1-0.1-0.1-0.2-0.2
				c-0.1-0.1-0.1-0.1-0.2-0.3c0-0.1-0.1-0.1-0.1-0.2l0-0.1l0-0.2c-0.1-0.6-0.2-1.2-0.2-1.7l-0.4-3.5c-0.4-4.6-0.8-9.2-1.1-13.9
				c-0.3-4.6-0.5-9.3-0.6-13.9c0-2.3-0.1-4.7,0.7-6.9c0.4-1.1,0.9-2.2,1.5-3.1c0.6-1,1.4-1.9,2.4-2.5c-1,0.6-1.7,1.6-2.3,2.5
				c-0.6,1-1.1,2.1-1.4,3.1c-0.8,2.2-0.6,4.5-0.6,6.8c0.2,4.6,0.5,9.2,0.9,13.9c0.4,4.6,0.8,9.2,1.3,13.8l0.4,3.4
				c0.1,0.6,0.2,1.1,0.3,1.7c0.1,0.3,0,0.3,0.3,0.5c0.2,0.2,0.4,0.4,0.6,0.6c1.8,1.5,3.6,2.9,5.4,4.3L248.6,336.3z"/>
		</g>
		<g>
			<path class="st1" d="M272.7,312.2c1.2-2.6,1.9-5.5,2.5-8.3c0.5-2.9,0.8-5.8,0.9-8.7c0.1-5.9-0.5-11.7-1.7-17.5
				c-0.7-2.9-1.5-5.7-2.5-8.5c-1-2.8-2.2-5.5-3.5-8.1c-1.3-2.7-2.7-5.2-3.9-7.9c-1.2-2.7-2.3-5.5-2.3-8.5c0.1,3,1.1,5.8,2.4,8.4
				c1.3,2.7,2.7,5.2,4,7.9c1.3,2.6,2.5,5.3,3.6,8.1c1,2.8,1.9,5.6,2.6,8.5c1.3,5.8,2,11.7,2,17.6c0,3-0.3,5.9-0.8,8.9
				c-0.2,1.5-0.6,2.9-1,4.4c-0.4,1.4-0.8,2.8-1.5,4.3L272.7,312.2z"/>
		</g>
		<circle class="st0" cx="299.2" cy="176.4" r="19.6"/>
		<circle class="st2" cx="300.4" cy="182.4" r="11.8"/>
		<circle class="st3" cx="300.4" cy="183.6" r="4.8"/>
		<g>
			<path class="st1" d="M57.2,299.6c2.2-1.5,4-3.4,5.8-5.2c1.8-1.9,3.5-3.9,5.2-5.8c3.4-3.9,6.8-8,10.3-11.8
				c3.6-3.8,7.6-7.3,11.6-10.6c4.1-3.3,8.3-6.4,12.6-9.4c4.4-2.9,8.9-5.6,13.6-8c4.7-2.4,9.5-4.5,14.6-6c2.5-0.7,5.1-1.4,7.6-2.1
				l1.9-0.5c0.6-0.2,1.2-0.4,1.8-0.6c1.2-0.4,2.5-0.8,3.7-1.3c4.9-1.9,9.6-4,14.3-6.3c9.3-4.6,18.3-9.9,27-15.6
				c8.7-5.8,17.2-11.9,24.6-19.2c3.8-3.6,7.6-7.2,11.7-10.4c4.1-3.2,8.6-6.1,13.2-8.5c9.3-4.8,19.3-8.2,29.3-11.2
				c-9.9,3.2-19.8,6.9-28.9,11.8c-4.6,2.5-8.9,5.3-13,8.6c-4.1,3.2-7.8,6.9-11.5,10.5c-0.9,0.9-1.9,1.8-2.8,2.7l-1.4,1.3l-1.5,1.3
				c-1,0.9-2,1.7-3,2.5c-1,0.8-2,1.7-3.1,2.4c-4.1,3.2-8.5,6.2-12.8,9.1c-8.7,5.8-17.7,11.2-27.1,15.8c-4.7,2.3-9.5,4.4-14.4,6.3
				c-1.2,0.5-2.5,0.8-3.7,1.3c-0.6,0.2-1.2,0.4-1.9,0.6l-1.9,0.5c-2.6,0.7-5.1,1.3-7.5,2c-5,1.5-9.7,3.6-14.4,5.9
				c-4.6,2.3-9.1,5-13.5,7.8c-4.4,2.8-8.6,5.9-12.7,9.1c-4.1,3.3-8.1,6.6-11.7,10.4c-3.6,3.7-7.1,7.7-10.6,11.5
				c-1.8,1.9-3.5,3.9-5.4,5.7C61.3,296.3,59.4,298.2,57.2,299.6z"/>
		</g>
		<g>
			<path class="st1" d="M82.2,321.2l29.3-8.6c9.8-2.9,19.6-5.8,29.3-8.8c4.9-1.5,9.7-3.1,14.5-4.8l1.8-0.7l0.9-0.3l0.8-0.4
				c1.1-0.4,2.2-1.3,3.3-1.9l6.6-3.8c4.4-2.5,8.8-5.1,13.1-7.8c2.1-1.4,4.3-2.8,6.3-4.3l1.5-1.2c0.4-0.4,0.9-0.8,1.3-1.3
				c0.8-0.8,1.3-2,1.9-3.1c4.6-9.1,9.2-18.2,14.1-27.1c4.9-8.9,9.9-17.9,15.9-26.2c1.5-2.1,3.1-4.1,4.8-6c1.7-1.9,3.5-3.8,5.8-5.2
				c1.2-0.7,2.4-1.1,3.6-1.5l3.5-1.4c2.3-1,4.7-2,7-3.1c4.6-2.1,9.2-4.3,13.7-6.7c2.2-1.2,4.5-2.5,6.6-3.8c2.1-1.4,4.3-2.7,6.1-4.6
				c-1.7,1.9-3.9,3.3-6,4.8c-2.1,1.4-4.3,2.7-6.6,3.9c-4.4,2.5-9,4.8-13.6,7.1c-2.3,1.1-4.6,2.2-7,3.2l-3.5,1.5
				c-1.2,0.5-2.4,0.9-3.4,1.5c-2.1,1.3-3.8,3.2-5.5,5c-1.6,1.9-3.2,3.9-4.6,6c-5.8,8.3-10.8,17.2-15.6,26.2c-4.8,9-9.3,18.1-14,27.2
				c-0.6,1.1-1.1,2.3-2.1,3.4c-0.5,0.5-1,0.9-1.4,1.4l-1.5,1.2c-2.1,1.6-4.2,3-6.4,4.3c-4.3,2.7-8.8,5.2-13.2,7.7l-6.6,3.8
				c-1.1,0.6-2.1,1.3-3.4,1.9l-0.9,0.4l-0.9,0.3l-1.8,0.7c-4.8,1.7-9.7,3.2-14.6,4.7C121.6,310.8,101.9,316.1,82.2,321.2z"/>
		</g>
		<circle class="st4" cx="180.8" cy="212.8" r="10"/>
		<path class="st5" d="M175.1,204.7c1,2.3,1.9,4.4,2.5,5.8c2.8,6.6,11,10,0-25.4c-11-35.5-15.1-26.7-17-47.1s-4.3-42.9-9.7-56.6
			c-5.4-13.7-20.2-7.6-24.9,0c0,0,10.6-5.8,13.6,1c3,6.8,1.4,5.9,3.2,13.9c1.8,8,6.8,16.7,7,21.8c0.2,5.1-0.3,8.4,1.1,12.4
			c2.9,8.2,7.2,23.5,7.2,29.8c0,6.3,2.8,15.7,6,20.7c1.4,2.2,3.7,6.9,5.9,12.1c0.7,1.6,3.1,7.7,3.1,7.7"/>
		<path class="st5" d="M125.5,81.8c0,0-11.4,0.9-9.5,4.1C117.9,89.1,122.5,84.8,125.5,81.8z"/>
		<path class="st5" d="M125.1,82.2c0,0,8.7-7.4,5.3-8.9C127,71.8,125.7,78,125.1,82.2z"/>
		<g>
			<path class="st6" d="M125.3,81.4c1-0.1,1.9-0.1,2.9,0.1c0.9,0.2,1.8,0.6,2.5,1.2c-0.7-0.6-1.6-0.8-2.5-0.9
				c-0.9-0.1-1.8,0.1-2.6,0.3l0,0c-0.2,0.1-0.4-0.1-0.5-0.3C124.9,81.7,125,81.5,125.3,81.4C125.2,81.4,125.2,81.4,125.3,81.4z"/>
		</g>
		<g>
			<path class="st4" d="M106.2,308.9v0.2c-0.9,0.7-1.9,1.3-3.8,1.4c-3.5,0.2-6.5-1.7-6.8-5.4c-0.3-3.6,2.3-6.2,5.7-6.5
				c1-0.1,2.4,0.2,3.3,0.4c0.8,0.2,1.2,0.2,1.2-0.9h0.1v4.2h-0.1c0-1.1-1-2.5-2-3.1c-0.8-0.4-1.7-0.6-2.5-0.6
				c-2.5,0.2-4.3,3-4.1,6.3c0.3,3.2,2.5,5.5,5.1,5.4C104,310.4,105.3,309.7,106.2,308.9z"/>
			<path class="st4" d="M118.2,308.5c0,1.2,0.1,1.8,1,1.8v0.1h-3.5v-0.1c0.9,0,1-0.6,1-1.8v-3.9h-6.4v3.9c0,1.2,0.1,1.8,1,1.8v0.1
				h-3.5v-0.1c0.9,0,1-0.6,1-1.8v-7.8c0-1.2-0.1-1.8-1-1.8v-0.1h3.5v0.1c-0.9,0-1,0.6-1,1.8v3.9h6.4v-3.9c0-1.2-0.1-1.8-1-1.8v-0.1
				h3.5v0.1c-0.9,0-1,0.6-1,1.8V308.5z"/>
			<path class="st4" d="M133.4,304c0.3,3.6-2.3,6.2-5.7,6.5c-3.4,0.3-6.4-1.7-6.8-5.4c-0.3-3.6,2.3-6.2,5.7-6.5
				C130.1,298.3,133.1,300.4,133.4,304z M131.7,304.2c-0.3-3.2-2.6-5.7-5.1-5.4c-2.5,0.2-4.4,3-4.1,6.3c0.3,3.2,2.6,5.7,5.1,5.4
				C130.2,310.2,132,307.4,131.7,304.2z"/>
			<path class="st4" d="M145.5,308.9v0.2c-0.9,0.7-1.9,1.3-3.8,1.4c-3.5,0.2-6.5-1.7-6.8-5.4c-0.3-3.6,2.3-6.2,5.7-6.5
				c1-0.1,2.4,0.2,3.3,0.4c0.8,0.2,1.2,0.2,1.2-0.9h0.1v4.2h-0.1c0-1.1-1-2.5-2-3.1c-0.8-0.4-1.7-0.6-2.5-0.6
				c-2.5,0.2-4.3,3-4.1,6.3c0.3,3.2,2.5,5.5,5.1,5.4C143.3,310.4,144.6,309.7,145.5,308.9z"/>
			<path class="st4" d="M159.6,304c0.3,3.6-2.3,6.2-5.7,6.5c-3.4,0.3-6.4-1.7-6.8-5.4c-0.3-3.6,2.3-6.2,5.7-6.5
				C156.3,298.3,159.3,300.4,159.6,304z M157.9,304.2c-0.3-3.2-2.6-5.7-5.1-5.4c-2.5,0.2-4.4,3-4.1,6.3c0.3,3.2,2.6,5.7,5.1,5.4
				C156.4,310.2,158.2,307.4,157.9,304.2z"/>
			<path class="st4" d="M170,307.6l-0.7,2.8h-8v-0.1c0.9,0,1-0.6,1-1.8v-7.8c0-1.2-0.1-1.8-1-1.8v-0.1h3.5v0.1c-0.9,0-1,0.6-1,1.8
				v7.8c0,1.2,0.1,1.8,1,1.8h1.9C168.3,310.3,169.4,308.7,170,307.6L170,307.6z"/>
			<path class="st4" d="M182,310.3L182,310.3l-3.7,0.1v-0.1c0.8,0,0.9-0.3,0.5-1.5c-0.2-0.4-0.6-1.7-1.1-3h-4
				c-0.3,0.7-0.5,1.2-0.5,1.4c-0.5,1.4-0.4,3.2,0.7,3.2v0.1h-3.5v-0.1c1.1-0.2,1.8-0.9,2.5-2.6c0.6-1.4,3.5-9,3.5-9h0.1
				c0,0,3.1,8.3,3.6,9.3C180.5,309.2,180.9,310.3,182,310.3z M177.6,305.7c-0.9-2.3-1.9-5-1.9-5.1c-0.6,1.5-1.4,3.7-2,5.1H177.6z"/>
			<path class="st4" d="M191.5,301.3L191.5,301.3c-0.6-1.1-1.3-2.4-3-2.4h-0.3c-0.9,0-1,0.6-1,1.8v7.8c0,1.2,0.1,1.8,1,1.8v0.1h-3.6
				v-0.1c0.9,0,1-0.6,1-1.8v-7.8c0-1.2-0.1-1.8-1-1.8h-0.3c-1.7,0-2.4,1.3-2.9,2.4h-0.1l0.4-2.5h9.3L191.5,301.3z"/>
			<path class="st4" d="M201.7,307.6l-0.7,2.8H193v-0.1c0.9,0,1-0.6,1-1.8v-7.8c0-1.2-0.1-1.8-1-1.8v-0.1h7.5l0.6,2.3H201
				c-0.5-1.1-1.4-2.2-3.1-2.2h-1.4c-0.9,0-1,0.6-1,1.8v3.9h1.2c1.3,0,2.3-0.9,2.3-2h0.1v4.2H199c0-1.1-1-2-2.3-2h-1.2v3.8
				c0,1.2,0.1,1.8,1,1.8h1.9C200.1,310.3,201.1,308.7,201.7,307.6L201.7,307.6z"/>
			<path class="st4" d="M214.6,301.1L214.6,301.1c-0.6-1.1-1.5-2.2-3.2-2.2H210c-0.9,0-1,0.6-1,1.8v3.9h1.2c1.3,0,2.3-0.9,2.3-2h0.1
				v4.2h-0.1c0-1.1-1-2-2.3-2h-1.2v3.8c0,1.2,0.1,1.8,1,1.8v0.1h-3.5v-0.1c0.9,0,1-0.6,1-1.8v-7.8c0-1.2-0.1-1.8-1-1.8v-0.1h7.5
				L214.6,301.1z"/>
			<path class="st4" d="M226.6,310.3L226.6,310.3c0,0.1-0.9,0.1-1.8,0.1c-0.7,0-1.4-0.2-1.9-0.7c-1.4-1.6-1.6-4.9-3.4-5
				c0,0-1.3,0-1.4,0v3.9c0,1.2,0.1,1.8,1,1.8v0.1h-3.5v-0.1c0.9,0,1-0.6,1-1.8v-7.8c0-1.2-0.1-1.8-1-1.8v-0.1h4.6
				c1.6,0,3.5,0.8,3.5,2.9c0,1.7-1.3,2.6-2.8,2.9c1.6,0.5,2,2.5,3.1,4C224.7,309.6,225.6,310.3,226.6,310.3z M219.7,304.6
				c1,0,2.4-0.8,2.4-2.9s-1.4-2.9-2.4-2.9h-0.5c-0.9,0-1,0.6-1,1.8v3.9C218.7,304.6,219.3,304.6,219.7,304.6z"/>
			<path class="st4" d="M239,304c0.3,3.6-2.3,6.2-5.7,6.5c-3.4,0.3-6.4-1.7-6.8-5.4c-0.3-3.6,2.3-6.2,5.7-6.5
				C235.7,298.3,238.7,300.4,239,304z M237.4,304.2c-0.3-3.2-2.6-5.7-5.1-5.4c-2.5,0.2-4.4,3-4.1,6.3c0.3,3.2,2.6,5.7,5.1,5.4
				C235.8,310.2,237.7,307.4,237.4,304.2z"/>
			<path class="st4" d="M252.2,305.1L252.2,305.1c-0.9,0.1-1,0.7-1,1.9c0,0.8,0,1.6,0,3.5h-0.1c0-1-2.6-0.1-3.7,0
				c-3.5,0.2-6.5-1.7-6.8-5.4c-0.3-3.6,2.3-6.2,5.7-6.5c1.1-0.1,2.7,0.2,3.5,0.4c0.8,0.2,1.1,0.1,1.1-0.9h0.1v4.2h-0.1
				c0-1.1-1-2.5-2-3.1c-0.8-0.4-1.7-0.6-2.5-0.6c-2.5,0.2-4.3,3-4.1,6.3c0.3,3.2,2.6,5.7,5.1,5.4c0.7-0.1,1.6-0.3,2.3-0.8v-2.6
				c0-1.2-0.1-1.8-1-1.8v-0.1H252.2z"/>
		</g>
		<g>
			<path d="M163.6,282.2c0,0,0.8,0.3,2.1,0.3c0,0,0.5-0.8,0.2-1.3c-0.3-0.5,0.3-0.3,0.3-0.8c0.1-0.5-0.3-1.4-0.1-1.7
				c0.2-0.3,0.6-3.2,1.2-4.9s1.3-4.2,1.4-4.7c0,0,0.6,0,0.5-0.7l-0.4-0.1c0,0,1.1-2.8,1.2-3.8c0.1-1.1,0.7-2,1.1-3.5s1-2.8,1.7-5.6
				c0.8-2.8,0.2-1.6,1.4-5.8s1.6-4.6,2.2-7.1c0.7-2.5,1-3,0.8-3.1c-0.2-0.1-0.9,2-1.3,2.7c-0.3,0.7-0.6,2-1.4,4.1
				c-0.8,2.1-1.6,3.7-2.5,6.7c-0.9,2.9-1.7,4.8-2.5,7.6c-0.8,2.8-0.9,2.1-1.2,3.9c-0.3,1.8-1.2,2.8-1.3,3.2l-0.8-0.2
				c0,0-0.5,0.7,0.2,0.9c0,0-0.5,2.4-0.7,3.5c-0.4,1.6-1.2,3.4-1.7,4.9c-0.2,0.6-0.1,0.3-0.5,1.6c0,0-0.1,0.3-0.2,0.7
				c-0.1,0.5-0.1,0.7-0.1,0.9c0.1,0.3,0.4,0.4,0.4,0.6c0,0.1-0.2,0.1-0.3,0.3c-0.1,0.1-0.1,0.2,0,0.6
				C163.5,281.6,163.5,281.9,163.6,282.2z"/>
			<g>
				<path class="st7" d="M164.8,280.2c-0.1-0.9-0.1-1.8,0.1-2.7c0.1-0.9,0.7-1.6,1-2.5c0.3-0.8,0.5-1.7,0.5-2.6
					c0.4-0.8,1.2-1.4,1.3-2.3c-0.1,0.4-0.3,0.8-0.5,1.2c-0.2,0.4-0.6,0.7-0.7,1.1c0,0.9-0.2,1.8-0.5,2.6c-0.3,0.9-0.9,1.5-1,2.4
					C164.8,278.5,164.8,279.3,164.8,280.2z"/>
			</g>
			<g>
				<path class="st7" d="M166.7,271.3c0.3-0.6,0.6-1.3,0.8-1.9c0-0.2,0.1-0.3,0.2-0.5c0.1-0.2,0.2-0.3,0.3-0.4
					c0.3-0.2,0.5-0.5,0.5-0.9c0,0.4-0.3,0.7-0.5,0.9c-0.3,0.2-0.4,0.5-0.5,0.9C167.4,270,167.1,270.7,166.7,271.3z"/>
			</g>
			<g>
				<path class="st7" d="M168.9,265.3c0.4-1.3,0.6-2.7,1-4c0.4-1.3,1.4-2.4,1.6-3.8c0.1-0.7,0.2-1.4,0.3-2c0.2-0.7,0.5-1.3,0.7-1.9
					l1.1-4l-1.1,4c-0.2,0.7-0.5,1.3-0.7,2c-0.2,0.7-0.2,1.4-0.3,2c-0.3,1.4-1.3,2.5-1.7,3.8C169.5,262.7,169.3,264,168.9,265.3z"/>
			</g>
			<g>
				<path class="st7" d="M165.5,278.1c0.2-0.6,0.4-1.1,0.6-1.7c0.2-0.6,0.2-1.2,0.4-1.8c0.1-0.6,0.4-1.1,0.6-1.7
					c0.1-0.3,0.2-0.6,0.2-0.9c0.1-0.3,0.5-0.4,0.4-0.8c0.1,0.3-0.3,0.5-0.4,0.8c0,0.3-0.1,0.6-0.2,0.9c-0.2,0.6-0.5,1.1-0.6,1.7
					c-0.1,0.6-0.2,1.2-0.4,1.8C166,277.1,165.8,277.6,165.5,278.1z"/>
			</g>
			<g>
				<path class="st7" d="M168,267.4c0.1-0.3,0.4-0.5,0.6-0.7c0.3-0.2,0.3-0.5,0.4-0.8c0.2-0.6,0.5-1.2,0.7-1.8
					c0.1-0.6,0-1.3,0.3-1.9c0.1-0.3,0.3-0.6,0.4-0.9c0.1-0.3,0.3-0.6,0.2-0.9c0.1,0.3-0.1,0.6-0.2,0.9c-0.1,0.3-0.3,0.6-0.4,0.9
					c-0.3,0.6-0.2,1.2-0.3,1.9c-0.1,0.6-0.4,1.2-0.7,1.8c-0.1,0.3-0.2,0.7-0.5,0.8C168.4,266.9,168.1,267.1,168,267.4z"/>
			</g>
			<g>
				<g>
					<g>
						<g>
							<path class="st8" d="M188.9,242C188.9,241.9,188.9,241.9,188.9,242C188.9,242,188.9,242,188.9,242z"/>
							<path class="st8" d="M189.9,242L189.9,242c0,0,0-0.1,0-0.2C189.9,241.9,189.9,242,189.9,242z"/>
							<path class="st8" d="M189.2,241.1c0.1,0,0.5,0,0.6,0.3l0,0c0,0,0,0.1,0,0.1C189.8,241.2,189.4,241.1,189.2,241.1z"/>
							<path class="st8" d="M188.6,241.5c0,0-0.1,0.1,0.1-0.1c0,0,0,0,0,0C188.6,241.4,188.6,241.4,188.6,241.5z"/>
							<path class="st8" d="M188.7,241.4C188.8,241.3,188.6,241.4,188.7,241.4L188.7,241.4z"/>
							<path class="st8" d="M188.4,242c0-0.1,0-0.1,0-0.2C188.4,241.8,188.4,242,188.4,242C188.4,242.1,188.4,242.1,188.4,242z"/>
							<path class="st8" d="M188.4,242.1L188.4,242.1C188.4,242.1,188.4,242,188.4,242.1z"/>
							<path class="st8" d="M188.4,241.8c0,0.1,0,0.1,0,0.2c0,0,0,0,0-0.1C188.4,242,188.4,241.9,188.4,241.8z"/>
							<path class="st8" d="M188.5,241.7C188.5,241.6,188.6,241.5,188.5,241.7c0.1-0.2,0.1-0.3,0.1-0.3
								C188.6,241.5,188.5,241.5,188.5,241.7z"/>
							<path class="st8" d="M189.1,241.2c0,0,0.1,0,0.1,0c0,0,0.1,0,0.1,0C189.3,241.1,189.1,241.1,189.1,241.2z"/>
							<path class="st8" d="M188.9,243C188.9,243,188.8,243,188.9,243c-0.1-0.1-0.1-0.1-0.2-0.2C188.8,242.9,188.9,243,188.9,243z"
								/>
							<path class="st8" d="M188.8,242.9c0.1,0,0.1,0.1,0.2,0.1C188.8,243,188.8,242.9,188.8,242.9z"/>
							<path class="st8" d="M188.4,242.2c0-0.1,0-0.2,0-0.3C188.4,242,188.4,242.1,188.4,242.2L188.4,242.2z"/>
							<path class="st8" d="M189.6,243.2c0,0-0.1,0-0.1,0C189.6,243.2,189.7,243.2,189.6,243.2L189.6,243.2z"/>
							<path class="st8" d="M190.1,243C190.1,243,190.2,242.9,190.1,243c0.1-0.1,0.2-0.2,0.3-0.3C190.4,242.8,190.3,242.9,190.1,243
								z"/>
							<path class="st8" d="M190.5,242.6c0,0-0.1,0.1-0.1,0.2C190.5,242.7,190.5,242.6,190.5,242.6z"/>
							<path class="st8" d="M189.3,243.2c0,0,0,0,0.2,0L189.3,243.2C189.4,243.2,189.4,243.2,189.3,243.2z"/>
							<path class="st8" d="M189.4,243.2L189.4,243.2c0.1,0,0.2,0,0.2,0C189.6,243.2,189.5,243.2,189.4,243.2z"/>
							<path class="st8" d="M189.3,243.2L189.3,243.2C189.3,243.2,189.3,243.2,189.3,243.2z"/>
							<path class="st8" d="M188.6,242.7c0.1,0.1,0.2,0.3,0.1,0.1C188.6,242.7,188.7,242.8,188.6,242.7z"/>
							<path class="st8" d="M189.2,243.1c-0.1,0-0.1,0-0.2-0.1c0,0,0,0,0,0C189.1,243.1,189.1,243.1,189.2,243.1z"/>
							<path class="st8" d="M189.3,243.2l-0.1,0C189.2,243.1,189.3,243.1,189.3,243.2L189.3,243.2z"/>
							<path class="st8" d="M190.3,242.9c0.1-0.1,0.1-0.1,0.2-0.2C190.4,242.7,190.3,242.8,190.3,242.9
								C190.2,242.9,190.2,242.9,190.3,242.9z"/>
							<path class="st8" d="M189.9,243.1L189.9,243.1C189.9,243.1,189.9,243.1,189.9,243.1z"/>
							<polygon class="st8" points="190.7,241.5 190.7,241.5 190.7,241.5 							"/>
							<path class="st8" d="M190.2,242.9c-0.1,0.1-0.1,0.1-0.2,0.1C190.1,243,190.2,242.9,190.2,242.9
								C190.2,242.9,190.2,242.9,190.2,242.9z"/>
							<path class="st8" d="M190.7,242.3c0,0,0,0.1-0.1,0.2C190.6,242.4,190.7,242.3,190.7,242.3z"/>
							<path class="st8" d="M189.9,243.1L189.9,243.1C190,243.1,190,243.1,189.9,243.1z"/>
							<path class="st8" d="M189.9,243.1c0,0,0.1,0,0.1-0.1C190,243,190,243.1,189.9,243.1C189.9,243.1,189.9,243.1,189.9,243.1z"/>
							<path class="st8" d="M190.6,241.2c0,0,0.1,0.2,0.1,0.5c0,0.2,0,0.1,0-0.1c0,0,0,0-0.1-0.2c0,0.1,0.1,0.5,0.1,0.3
								C190.7,241.3,190.7,241.4,190.6,241.2c0.1,0.2-0.1-0.3-0.1-0.2C190.5,241,190.6,241.1,190.6,241.2
								C190.6,241.2,190.5,241.1,190.6,241.2z"/>
							<path class="st8" d="M190.7,241.9L190.7,241.9c0,0,0-0.1,0-0.2c0-0.1,0-0.2,0-0.2C190.7,241.7,190.8,241.8,190.7,241.9
								L190.7,241.9z"/>
							<path class="st8" d="M190.6,242.4c0-0.1,0.1-0.3,0-0.1c-0.1,0.2-0.1,0.2-0.1,0.3C190.7,242.2,190.5,242.7,190.6,242.4
								c0,0.1-0.1,0.1-0.1,0.2C190.5,242.6,190.6,242.5,190.6,242.4L190.6,242.4L190.6,242.4L190.6,242.4
								C190.6,242.4,190.6,242.5,190.6,242.4L190.6,242.4L190.6,242.4C190.7,242.3,190.6,242.4,190.6,242.4L190.6,242.4L190.6,242.4
								c0.1-0.1,0.1-0.2,0.1-0.4C190.7,242.1,190.7,242.2,190.6,242.4z"/>
							<path class="st8" d="M188.8,242.9C188.8,242.9,188.9,242.9,188.8,242.9C188.9,243,188.9,243,188.8,242.9z"/>
							<path class="st8" d="M189,243c0,0,0,0-0.1-0.1c-0.1-0.1,0,0,0,0c0,0-0.2-0.1,0,0l0,0c0.1,0.1,0.3,0.2,0.3,0.2
								C189.1,243.1,189.1,243.1,189,243z"/>
							<path class="st8" d="M189.9,243.1c0.1,0,0.2-0.1,0.3-0.2c0,0-0.1,0.1-0.2,0.1l0,0C190,243,190,243,189.9,243.1z"/>
							<path class="st8" d="M190.7,241.5L190.7,241.5c0,0,0-0.1,0-0.2C190.7,241.4,190.7,241.4,190.7,241.5z"/>
							<path class="st8" d="M190.5,241L190.5,241C190.5,241,190.5,241,190.5,241L190.5,241z"/>
							<path class="st8" d="M198.2,235.8C198.2,235.8,198.2,235.7,198.2,235.8C198.2,235.7,198.2,235.8,198.2,235.8z"/>
							<path class="st8" d="M197.8,236.3L197.8,236.3C197.9,236.3,197.9,236.3,197.8,236.3z"/>
							<path class="st8" d="M191.7,241.8c0-0.2,0-0.3,0-0.3l0,0C191.7,241.6,191.7,241.7,191.7,241.8z"/>
							<path class="st8" d="M192.3,235.4L192.3,235.4c-0.1,0-0.1,0-0.1,0C192.2,235.4,192.2,235.4,192.3,235.4z"/>
							<path class="st8" d="M192.4,235.3l0.2,0C192.5,235.3,192.5,235.3,192.4,235.3z"/>
							<path class="st8" d="M196.6,232.5l-0.1,0C196.7,232.5,196.6,232.5,196.6,232.5z"/>
							<path class="st8" d="M187.6,242.7c0,0.1,0.1,0.2,0.1,0.3C187.7,242.8,187.7,242.8,187.6,242.7z"/>
							<path class="st8" d="M198.3,236.2C198.4,236.1,198.4,236.1,198.3,236.2C198.3,236.1,198.3,236.2,198.3,236.2z"/>
							<path class="st8" d="M187.9,243.3C187.9,243.3,187.9,243.3,187.9,243.3c-0.1-0.1-0.1-0.2-0.2-0.3
								C187.8,243.1,187.8,243.2,187.9,243.3z"/>
							<path class="st8" d="M183.1,234.9C183.1,234.9,183.1,234.9,183.1,234.9C183.1,234.9,183.1,234.9,183.1,234.9z"/>
							<path class="st8" d="M179.4,237c0,0,0.1-0.1,0.1-0.1C179.5,236.9,179.4,237,179.4,237z"/>
							<path class="st8" d="M188.9,240.5C189,240.4,188.9,240.5,188.9,240.5L188.9,240.5z"/>
							<path class="st8" d="M189.3,240.5C189.3,240.4,189.3,240.5,189.3,240.5C189.3,240.5,189.3,240.4,189.3,240.5z"/>
							<path class="st8" d="M188.6,244L188.6,244C188.6,244,188.6,244,188.6,244z"/>
							<path class="st8" d="M189,240.4c0,0-0.1,0-0.1,0C188.9,240.5,188.9,240.4,189,240.4z"/>
							<path class="st8" d="M189,240.4C189,240.4,189.1,240.4,189,240.4C189.1,240.4,189.1,240.4,189,240.4z"/>
							<path class="st8" d="M188.7,240.5c0.1,0,0.1,0,0.2,0c0,0,0,0,0,0C188.8,240.5,188.8,240.5,188.7,240.5z"/>
							<path class="st8" d="M190.2,231.8C190.2,231.8,190.2,231.8,190.2,231.8C190.1,231.8,190.2,231.8,190.2,231.8z"/>
							<polygon class="st8" points="190.8,239.4 190.8,239.4 190.8,239.4 							"/>
							<path class="st8" d="M190.7,239.1c0.1,0.1,0.1,0.2,0.1,0.3l0-0.1L190.7,239.1z"/>
							<path class="st8" d="M198,234.2c0,0.1,0,0.1,0.1,0.2C197.9,234.1,197.8,234,198,234.2c0,0,0.2,0.8,0.3,0.9l0,0.2
								c0,0,0,0,0-0.1c0,0.3,0.1,0.2,0,0.6c0,0.1-0.1,0.2-0.1,0.1c0,0.1-0.1,0.2-0.1,0.3c0,0.1,0,0,0,0c-0.1,0.1-0.2,0.2-0.3,0.3
								l0,0c0,0-0.1,0.1-0.2,0.2c-0.1,0,0,0,0,0c-0.1,0-0.1,0.1-0.2,0.1c-0.1,0,0.1-0.1,0.2-0.2c-0.2,0-0.2,0.1-0.7,0.2
								c0.1,0,0.2,0,0.2-0.1c-0.2,0-0.3,0.1-0.6,0c0.1,0,0.5,0,0.3,0.1c-0.1,0-0.2,0-0.3,0c0,0-0.1,0-0.3,0l0,0c-0.2,0-0.2,0-0.3,0
								c-0.2,0-0.2-0.1-0.3-0.1c-0.3-0.1,0.2,0.1-0.2,0c-0.2-0.1-0.4-0.2-0.8-0.4c-0.2-0.1,0,0,0,0l-0.2-0.1c0,0,0,0,0,0
								c-0.1-0.1,0,0-0.3-0.1c-0.1,0-0.4-0.3-0.7-0.3c-0.1,0,0,0,0,0c-0.4-0.2-0.3-0.1-0.7-0.2c-0.1,0-0.2-0.1-0.3-0.1
								c0.2,0.1-0.1,0-0.3,0.1c0.1,0,0.1,0,0.2,0c-0.1,0-0.3,0-0.4,0c0,0,0,0,0.1,0c0,0,0,0-0.1,0c-0.1,0-0.1,0,0,0c0,0,0.1,0,0.1,0
								c0.1,0,0.2,0,0.2-0.1c0,0-0.1,0-0.1,0c0,0,0,0,0,0c0,0-0.1,0-0.1,0l-0.1,0l0,0c-0.2,0-0.4,0-0.5,0.1
								c-0.3,0.2-0.6,0.4-0.9,0.9c0-0.1,0,0,0-0.1c0.1-0.1,0.2-0.4,0.5-0.6c-0.1,0.1-0.1,0.1-0.1,0c-0.1,0.1-0.3,0.3-0.4,0.4
								c0,0-0.1,0.1-0.1,0.2c0.1-0.1-0.1,0.4-0.1,0.6c0,0,0,0,0-0.3c-0.1,0.3,0,0.4,0,0.7c0-0.1,0-0.1,0-0.1c0,0.2,0.1,0.5,0,0.4
								l0-0.1c0,0.4,0.2,1.3,0.3,1.3c0,0-0.1,0-0.1-0.1l0.3,0.7c0-0.1,0,0.2-0.2-0.1c0,0.1,0.1,0.2,0.1,0.4c0-0.1,0-0.2,0-0.1
								c0,0.3,0,0.2,0.1,0.5c0-0.1,0,0,0.1,0.2c0,0,0,0-0.1,0l0.2,0.4c0-0.1,0,0,0,0.1c0,0,0.1,0.3,0.1,0.4l0-0.2
								c0.1,0.4,0.2,0.4,0.2,0.9c0-0.1-0.1-0.1,0,0.1c0,0.1,0.1,0.5,0,0.9l0,0.1l-0.1,0.3c0.1-0.2,0.2-0.7,0.1-1c0,0.2,0,0,0,0.3
								c0,0.1,0-0.1,0-0.2c0,0.2,0,0.4-0.1,0.6c0,0-0.1,0.4-0.1,0.4c0.1-0.2,0.2-0.4,0.2-0.6c0,0,0,0.4-0.3,0.7
								c-0.1,0.1,0-0.1,0-0.1c0,0.1-0.2,0.3-0.3,0.3c0,0,0.1-0.1,0.1-0.1c-0.2,0.2-0.3,0.3-0.5,0.4c-0.1,0-0.3,0.1-0.3,0.1
								c0.2,0,0.2,0,0.1,0.1c0,0-0.5,0.1-0.6,0.1c-0.2,0,0.2-0.1,0.1-0.1c0,0-0.1,0-0.1,0c-0.1,0,0,0-0.2,0c0,0-0.4,0-0.1,0
								c-0.2,0-0.2,0-0.5-0.1c0.1,0-0.2,0-0.4-0.1c0,0,0,0,0,0c-0.4-0.3-0.5-0.5-0.7-0.8c0,0-0.1-0.2,0-0.1c0-0.1-0.1-0.1-0.1-0.2
								c-0.1-0.2,0.1,0.3,0,0.1c0,0-0.1-0.3-0.1-0.5c0,0.1,0.1,0.4,0.2,0.6c0,0-0.2-0.3-0.2-0.7c0-0.4,0-0.2,0-0.2
								c0-0.3,0.1-0.5,0.1-0.6c0-0.1,0.1-0.2,0.2-0.5c0.2-0.2,0,0,0.1,0c-0.2,0.2-0.3,0.4-0.3,0.5c0-0.1,0.1-0.1,0.1-0.2
								c0,0.1-0.1,0.3-0.1,0.4c0-0.1,0.1-0.4,0.3-0.6c0.2-0.3,0.5-0.4,0.8-0.5c0.1,0,0.2-0.1,0.2,0c-0.1,0-0.1,0-0.2,0
								c-0.1,0,0.3-0.1,0.1,0c0.2-0.1,0.5-0.1,0.8,0l0.1,0c0,0-0.2,0-0.3,0c0.1,0,0.5,0.1,0.6,0.1c-0.1,0-0.1-0.1-0.2-0.1
								c0.2,0,0.5,0.2,0.7,0.4c-0.1-0.1,0-0.1-0.2-0.2c0.1,0.1-0.1-0.1-0.2-0.1c-0.1-0.1-0.3-0.1-0.2-0.1c-0.2-0.1-0.3-0.1-0.6-0.1
								c0,0,0.1,0-0.1,0c0,0,0,0,0,0l0,0l0,0c0,0,0,0,0,0c0,0,0.1,0,0.1,0c-0.1,0-0.5,0.1-0.6,0.1c-0.1,0,0.1,0,0,0
								c-0.1,0-0.1,0-0.2,0.1c0,0-0.3,0.2,0,0c-0.1,0-0.2,0.1-0.2,0.2c-0.1,0.1-0.3,0.3-0.3,0.4c-0.1,0.1-0.1,0.3-0.1,0.2
								c0,0.1-0.1,0.3-0.1,0.4l0,0c0,0.4,0.1,0.9,0.3,1.4c0.1,0.1,0.2,0.3,0.3,0.5l0,0c0.1,0.2,0.4,0.4,0.5,0.4
								c0.2,0.2,0.9,0.3,1.3,0.2l0,0c0.2,0,0.5-0.1,0.7-0.3l0,0c0.2-0.1,0.6-0.3,0.8-0.7c0,0-0.1,0.1-0.1,0.2
								c0.3-0.4,0.4-0.9,0.4-1.4c0-0.1,0-0.2,0-0.3c0,0,0,0,0,0c0,0,0,0,0,0c0,0,0-0.1,0-0.1c0,0.1,0,0.1,0,0.1c0-0.1,0-0.2-0.1-0.3
								l0-0.1c0,0,0,0,0,0c0-0.1,0-0.1,0,0c0-0.1,0-0.1,0-0.2c0-0.1-0.1-0.3-0.1-0.4c0-0.1-0.2-0.6-0.2-0.6c0,0,0,0,0,0
								c0-0.1-0.1-0.3-0.1-0.4l0-0.1l-0.1-0.3c0-0.2,0-0.2,0-0.1c-0.2-0.5-0.1-0.2-0.2-0.7l0,0c0-0.1-0.1-0.3-0.1-0.4
								c0-0.3-0.3-1.4,0-2.1c-0.1,0.1,0.2-0.3,0.2-0.3c0,0,0.1-0.1,0,0c0.2-0.3,0.4-0.3,0.6-0.4c0,0-0.1,0,0,0c0,0,0.1,0,0.1-0.1
								c0,0,0,0-0.1,0c0.3-0.1,0.4-0.1,0.4-0.2c0.2,0,0.3,0,0.4,0c0.1,0,0.2,0-0.1,0c0.1,0,0.8,0.2,0.8,0.2c0.1,0,0.2,0.1,0.2,0.1
								c0.3,0.1,0.3,0.1,0.6,0.3l-0.1,0c0.1,0,0.2,0.1,0.4,0.2l0,0c0.5,0.3,0.2,0.1,0.7,0.4l0,0c0.1,0,0.4,0.3,0.7,0.4l-0.1,0
								c0.2,0,0.5,0.2,0.6,0.2c0,0-0.1,0-0.1,0c0.5,0.1,0.1,0,0.4,0c0.1,0-0.1,0.1,0.2,0c0.1,0,0.7-0.1,1-0.3c-0.1,0-0.1,0,0,0
								c0.2-0.1,0.6-0.4,0.7-0.6c0,0,0,0,0,0c0.1-0.2,0.2-0.6,0.1-0.7c0.1-0.2-0.3-1.1-0.2-1.1c-0.1-0.2-0.2-0.4-0.2-0.5l0,0
								c-0.2-0.3-0.3-0.4-0.4-0.5c0-0.1,0,0,0,0c-0.3-0.4-0.4-0.5-0.7-0.7l0-0.1c-0.1-0.1-0.6-0.5-1.1-0.7c0,0,0,0,0.1,0
								c-0.3-0.1-0.6-0.2-0.9-0.4c-0.3-0.1-0.6-0.1-0.7-0.1c-0.1,0-0.3,0-0.4,0c0.5,0-0.1,0,0.1,0.1c-0.2,0-0.5-0.1-0.3-0.1l0,0
								c0.1-0.1-0.6-0.1-0.6-0.1c-1,0-1.9,0.1-2.9,0.3l0.1,0c-0.1,0-0.2,0-0.3,0.1c-0.1,0-0.1,0,0.1-0.1c-0.1,0-0.4,0.1-0.4,0.1
								c-0.4,0.1,0.2-0.1,0-0.1l-0.2,0.1l0,0c-0.1,0.1-0.1,0.1-0.4,0.2c-0.2,0-0.1,0-0.2,0c0,0,0,0-0.1,0l-0.4,0.1l0.2,0
								c-0.2,0.1-0.4,0.1-0.2,0.1c-0.3,0-1.4,0.5-1.6,0.5c-0.2,0.1-0.4,0.2-0.7,0.3c0.1,0,0.1,0-0.1,0.1c0-0.1-0.5,0.1-0.7,0.2
								c0.2,0-0.7,0.3-0.4,0.3c-0.2,0.1,0,0-0.2,0c-0.4,0.3-1.1,0.5-1.6,0.8c0,0,0.1,0,0,0.1l-0.3,0.1c-0.1,0.1-0.1,0.1-0.3,0.2
								c0,0,0.1,0,0,0c-0.6,0.3-1.1,0.6-1.7,1c-0.5,0.4-1,0.8-1.6,1.1c0.2-0.1,0.1,0,0,0.1c0.1,0,0,0,0.1,0l-0.5,0.3
								c0,0.1-0.5,0.4-0.5,0.4l0.1-0.1c-0.1,0.2,0.4-0.1,0.4,0c0.1-0.2,0.6-0.3,0.9-0.7c0.1,0,0,0.1,0,0.1c0.1-0.1,0.2-0.2,0.4-0.3
								l0,0c0.5-0.4,0.8-0.6,1.4-0.9l-0.1,0c0.1-0.1,0.2-0.1,0.2-0.1c0.1-0.2-0.4,0.2-0.3,0.1c0.2,0,1-0.6,1.1-0.6
								c0.2-0.1-0.1,0,0.1-0.1l0.1,0l0-0.1c0.1-0.1,0.2-0.1,0.2-0.1c0,0-0.1,0.1-0.1,0.1c0.2-0.1,0.5-0.3,0.6-0.3l-0.2,0.1
								c0.6-0.4,1.3-0.7,1.9-1l-0.1,0c0.4-0.2,0.4-0.2,0.9-0.4l0,0c0.1-0.1,0.2-0.1,0.4-0.2c-0.1,0.1,0.3-0.1,0.1,0
								c0.5-0.2,0.2-0.1,0.5-0.3l0.1,0c0.1-0.1,0.1-0.1,0.4-0.2c-0.2,0.1,0.2,0,0,0.1c0.6-0.1,0.8-0.4,1-0.4c0.2-0.2-0.5,0.1-0.3,0
								c-0.1,0,0.2-0.1,0.4-0.2c0.2-0.1,0.3,0,0.8-0.1c0,0,0,0-0.1,0c0.2,0,0.3-0.1,0.5-0.1c0.1-0.1,0.3-0.1,0.3-0.1l-0.4,0.1
								c0.2-0.1,0.4-0.2,0.8-0.3c0,0-0.1,0.1-0.2,0.1c0.1,0,0.2-0.1,0.3-0.1c0,0.1-0.5,0.1-0.7,0.2c0.1,0,0.5-0.2,0.3-0.1
								c0.2-0.1,0.4-0.1,0.7-0.2l0,0c0,0,0.1-0.1,0.2-0.1l-0.1,0.1c0.2-0.1,0.5-0.1,0.7-0.1c-0.5,0.1-0.1,0-0.3,0
								c0.6-0.1,0.4,0,1-0.1c-0.1,0-0.3,0-0.2,0c0.1,0,0.3,0,0.4,0c0.5,0-0.1,0,0.1-0.1c0.2,0,0.2,0,0.4-0.1l0,0
								c0.5,0,0.1-0.1,0.6,0l-0.2,0l0.2,0l-0.1,0c0.3,0,0.3,0,0.6,0c-0.1,0,0-0.1,0.3,0c0.2,0-0.1,0,0.2,0.1c-0.1,0-0.2,0-0.3,0
								c0,0-0.1,0-0.1,0c0.2,0.1,0.4,0.1,0.5,0.1c0,0-0.1,0-0.1,0l0.5,0.1c0.1,0,0,0-0.1,0c0.1,0,0.2,0,0.3,0.1c0,0,0,0-0.2,0
								c0.1,0,0.3,0.1,0.4,0.1c0,0,0.2,0.1,0.1,0.1c0.2,0.1,0.6,0.2,0.8,0.5c0,0,0,0,0.1,0.1c0.2,0.2,0.4,0.4,0.7,0.7l0.1,0.2
								c0.2,0.2-0.1-0.3,0.2,0.1c0.2,0.3,0,0.1,0.1,0.2c0.1,0.1,0.3,0.4,0.3,0.7C198,234.3,198,234.3,198,234.2z M196.9,236.7
								c0.1,0,0.2-0.1,0.2-0.1C197.1,236.7,197,236.7,196.9,236.7z M191.7,235.4c0,0,0.1,0,0.2,0
								C191.9,235.4,191.8,235.4,191.7,235.4z M187.9,241L187.9,241C187.8,241.1,187.9,241,187.9,241z M188.2,240.7
								C188.2,240.7,188.2,240.7,188.2,240.7c-0.1,0-0.1,0.1-0.1,0.1C188.1,240.8,188.1,240.8,188.2,240.7z M189.2,231.8
								L189.2,231.8C189.1,231.8,189.1,231.8,189.2,231.8z"/>
							<path class="st8" d="M192.4,235.3C192.4,235.3,192.4,235.3,192.4,235.3C192.4,235.3,192.4,235.3,192.4,235.3z"/>
							<path class="st8" d="M196.6,232.5L196.6,232.5C196.6,232.5,196.6,232.5,196.6,232.5L196.6,232.5z"/>
							<path class="st8" d="M189.8,244.3l0.1,0C189.9,244.3,189.9,244.3,189.8,244.3z"/>
							<path class="st8" d="M189.9,240.5l-0.2-0.1C189.8,240.5,189.8,240.5,189.9,240.5C189.9,240.5,189.8,240.5,189.9,240.5z"/>
							<path class="st8" d="M190.7,242C190.7,242,190.7,242,190.7,242L190.7,242C190.7,241.9,190.7,241.9,190.7,242z"/>
							<path class="st8" d="M190,240.6c0,0,0.1,0.1,0.2,0.2l0,0C190.3,240.8,190.2,240.7,190,240.6z"/>
							<path class="st8" d="M190.3,240.8C190.4,240.8,190.4,240.9,190.3,240.8C190.4,240.9,190.4,240.9,190.3,240.8z"/>
							<path class="st8" d="M188.6,240.5C188.6,240.5,188.6,240.5,188.6,240.5C188.7,240.5,188.2,240.7,188.6,240.5z"/>
							<polygon class="st8" points="190.1,240.7 190.1,240.7 190,240.6 							"/>
							<path class="st8" d="M189,240.5c0.1,0,0.2,0,0.2,0c0,0,0,0,0.1,0C189.2,240.5,189,240.5,189,240.5z"/>
							<path class="st8" d="M189.3,240.5c0.1,0,0.1,0,0.2,0C189.5,240.5,189.4,240.5,189.3,240.5z"/>
							<path class="st8" d="M189.8,240.6L189.8,240.6c-0.1,0-0.2-0.1-0.2-0.1C189.7,240.5,189.8,240.5,189.8,240.6z"/>
							<path class="st8" d="M187.6,242.2c0,0.1,0,0.2,0,0.3c0,0,0,0,0-0.1C187.6,242.3,187.6,242.2,187.6,242.2z"/>
							<path class="st8" d="M187.7,241.4c0,0,0,0.1,0,0.1l0,0L187.7,241.4z"/>
							<path class="st8" d="M187.6,242.2C187.6,242.2,187.7,242.5,187.6,242.2C187.6,242.2,187.6,241.9,187.6,242.2z"/>
							<polygon class="st8" points="190.2,244.2 190.1,244.3 190.2,244.3 							"/>
							<path class="st8" d="M191.5,241.6c0,0.3,0,0.1,0.1,0.3c0,0.1,0-0.2,0-0.1C191.5,241.6,191.5,241.5,191.5,241.6z"/>
							<path class="st8" d="M191.5,241.8C191.5,241.8,191.5,241.8,191.5,241.8C191.5,241.8,191.5,241.8,191.5,241.8z"/>
							<polygon class="st8" points="178.8,237.4 178.6,237.5 178.7,237.5 							"/>
							<path class="st8" d="M178.5,237.7L178.5,237.7l-0.1,0.1C178.4,237.8,178.5,237.7,178.5,237.7z"/>
							<path class="st8" d="M196.4,236.7L196.4,236.7c0,0,0.1,0,0.1,0L196.4,236.7z"/>
							<polygon class="st8" points="198.2,235.6 198.2,235.6 198.3,235.5 							"/>
							<path class="st8" d="M197.6,233.6c0,0.1,0.1,0.2,0.1,0.2C197.7,233.7,197.6,233.6,197.6,233.6z"/>
						</g>
					</g>
				</g>
			</g>
			<g>
				<g>
					<g>
						<g>
							<path class="st8" d="M172.2,238.9C172.2,238.9,172.2,238.9,172.2,238.9C172.2,239,172.2,238.9,172.2,238.9z"/>
							<path class="st8" d="M172.7,238.6L172.7,238.6c0,0,0-0.1-0.1-0.1C172.7,238.5,172.7,238.6,172.7,238.6z"/>
							<path class="st8" d="M171.9,238.3c0.1-0.1,0.4-0.2,0.6-0.1l0,0c0,0,0.1,0,0.1,0C172.3,238.1,172,238.2,171.9,238.3z"/>
							<path class="st8" d="M171.6,238.8c0,0,0,0.1,0-0.1c0,0,0,0,0,0C171.6,238.7,171.6,238.8,171.6,238.8z"/>
							<path class="st8" d="M171.6,238.7C171.6,238.6,171.6,238.8,171.6,238.7L171.6,238.7z"/>
							<path class="st8" d="M171.7,239.2c0,0,0-0.1-0.1-0.1C171.6,239.1,171.7,239.2,171.7,239.2
								C171.7,239.3,171.7,239.3,171.7,239.2z"/>
							<path class="st8" d="M171.8,239.3L171.8,239.3C171.7,239.3,171.7,239.3,171.8,239.3z"/>
							<path class="st8" d="M171.6,239.1c0,0.1,0.1,0.1,0.1,0.1C171.7,239.2,171.7,239.3,171.6,239.1
								C171.7,239.2,171.7,239.2,171.6,239.1z"/>
							<path class="st8" d="M171.6,239C171.6,238.9,171.6,238.8,171.6,239C171.6,238.7,171.6,238.7,171.6,239z"/>
							<path class="st8" d="M171.8,238.4C171.8,238.3,171.9,238.3,171.8,238.4c0.1-0.1,0.1-0.1,0.2-0.1
								C171.9,238.3,171.8,238.4,171.8,238.4z"/>
							<path class="st8" d="M172.5,239.6C172.5,239.6,172.5,239.6,172.5,239.6c-0.1,0-0.1,0-0.2,0
								C172.4,239.6,172.5,239.6,172.5,239.6z"/>
							<path class="st8" d="M172.4,239.6c0.1,0,0.1,0,0.2,0C172.5,239.6,172.4,239.6,172.4,239.6z"/>
							<path class="st8" d="M171.8,239.3c-0.1-0.1-0.1-0.1-0.2-0.2C171.7,239.2,171.7,239.3,171.8,239.3L171.8,239.3z"/>
							<path class="st8" d="M173,239.2L173,239.2C173,239.2,173,239.2,173,239.2L173,239.2z"/>
							<path class="st8" d="M173.2,238.8C173.2,238.9,173.2,238.7,173.2,238.8c0-0.1,0-0.2,0-0.3
								C173.1,238.6,173.2,238.7,173.2,238.8z"/>
							<path class="st8" d="M173.1,238.3c0,0,0,0.1,0.1,0.1C173.1,238.4,173.1,238.4,173.1,238.3z"/>
							<path class="st8" d="M172.8,239.4C172.9,239.4,172.9,239.4,172.8,239.4L172.8,239.4L172.8,239.4z"/>
							<path class="st8" d="M172.9,239.3L172.9,239.3c0.1-0.1,0.1-0.1,0.1-0.1C173,239.2,173,239.3,172.9,239.3z"/>
							<path class="st8" d="M172.8,239.4L172.8,239.4C172.8,239.4,172.8,239.4,172.8,239.4z"/>
							<path class="st8" d="M172.2,239.5c0.1,0,0.3,0,0.1,0C172.2,239.5,172.3,239.6,172.2,239.5z"/>
							<path class="st8" d="M172.8,239.4c0,0-0.1,0.1-0.2,0.1c0,0,0,0,0,0C172.7,239.5,172.7,239.5,172.8,239.4z"/>
							<polygon class="st8" points="172.8,239.4 172.8,239.4 172.8,239.4 							"/>
							<path class="st8" d="M173.1,238.6c0-0.1,0-0.2-0.1-0.2C173.1,238.5,173.1,238.6,173.1,238.6
								C173.1,238.7,173.1,238.7,173.1,238.6z"/>
							<path class="st8" d="M173.1,239L173.1,239C173.1,239,173.1,239,173.1,239z"/>
							<polygon class="st8" points="172.4,237.8 172.4,237.8 172.4,237.8 							"/>
							<path class="st8" d="M173.1,238.7c0,0.1,0,0.1,0,0.2C173.1,238.8,173.1,238.7,173.1,238.7
								C173.1,238.7,173.1,238.7,173.1,238.7z"/>
							<path class="st8" d="M172.9,238.1c0,0,0,0.1,0.1,0.1C173,238.2,173,238.1,172.9,238.1z"/>
							<path class="st8" d="M173.1,239L173.1,239C173.1,238.9,173.1,238.9,173.1,239z"/>
							<path class="st8" d="M173.1,239c0,0,0-0.1,0-0.1C173.1,238.9,173.1,238.9,173.1,239C173.1,239,173.1,239,173.1,239z"/>
							<path class="st8" d="M172.1,237.7c0,0,0.2,0,0.4,0.1c0.2,0.1,0.1,0-0.1-0.1c0,0,0,0-0.2,0c0.1,0,0.4,0.1,0.2,0.1
								C172.3,237.7,172.3,237.7,172.1,237.7c0.1,0-0.2,0-0.2,0C172,237.7,172.1,237.7,172.1,237.7
								C172.2,237.7,172.1,237.7,172.1,237.7z"/>
							<path class="st8" d="M172.7,237.9L172.7,237.9c0,0-0.1,0-0.1-0.1c-0.1,0-0.1-0.1-0.1-0.1
								C172.6,237.8,172.7,237.9,172.7,237.9L172.7,237.9z"/>
							<path class="st8" d="M173,238.2C173,238.2,172.9,238,173,238.2c0,0.1,0,0,0.1,0.1C172.9,238,173.1,238.4,173,238.2
								c0,0.1,0.1,0.1,0.1,0.2C173.1,238.3,173,238.3,173,238.2L173,238.2L173,238.2L173,238.2C173,238.2,173,238.2,173,238.2
								L173,238.2C173,238.2,173,238.2,173,238.2C173,238.1,173,238.2,173,238.2L173,238.2L173,238.2c0-0.1-0.1-0.2-0.2-0.2
								C172.8,238,172.9,238.1,173,238.2z"/>
							<path class="st8" d="M172.5,239.5L172.5,239.5C172.5,239.5,172.5,239.5,172.5,239.5z"/>
							<path class="st8" d="M172.6,239.5c0,0,0,0-0.1,0c-0.1,0,0,0,0,0c0,0-0.2,0,0,0l0,0c0.1,0,0.3-0.1,0.3-0.1
								C172.7,239.5,172.7,239.5,172.6,239.5z"/>
							<path class="st8" d="M173.1,239c0-0.1,0-0.2,0-0.3c0,0,0,0.1,0,0.1l0,0C173.1,238.9,173.1,238.9,173.1,239z"/>
							<path class="st8" d="M172.4,237.7L172.4,237.7c0,0-0.1,0-0.1,0C172.3,237.7,172.4,237.7,172.4,237.7z"/>
							<polygon class="st8" points="172,237.7 172,237.7 171.9,237.7 							"/>
							<path class="st8" d="M165.9,240.7L165.9,240.7C165.9,240.7,165.9,240.7,165.9,240.7z"/>
							<path class="st8" d="M166.2,241.2L166.2,241.2C166.2,241.2,166.2,241.2,166.2,241.2z"/>
							<path class="st8" d="M171.7,235.8c-0.1-0.1-0.2-0.1-0.2-0.1l0,0C171.6,235.8,171.7,235.8,171.7,235.8z"/>
							<path class="st8" d="M170,240.3L170,240.3c0-0.1,0-0.1,0-0.1C170,240.2,170,240.3,170,240.3z"/>
							<path class="st8" d="M170,240.4l-0.1,0.2C170,240.5,170,240.5,170,240.4z"/>
							<path class="st8" d="M165.2,237.5l0-0.1C165.2,237.6,165.2,237.5,165.2,237.5z"/>
							<path class="st8" d="M172.5,240c0.1,0,0.2,0,0.3-0.1C172.6,240,172.5,240,172.5,240z"/>
							<path class="st8" d="M166.2,240.8C166.2,240.7,166.2,240.7,166.2,240.8C166.2,240.8,166.3,240.8,166.2,240.8z"/>
							<path class="st8" d="M173,239.8C173,239.8,173,239.8,173,239.8c-0.1,0.1-0.2,0.1-0.3,0.2C172.8,239.9,172.9,239.8,173,239.8z
								"/>
							<path class="st8" d="M174.7,234.5C174.7,234.5,174.7,234.5,174.7,234.5C174.8,234.5,174.8,234.5,174.7,234.5z"/>
							<path class="st8" d="M176.7,237.3c0,0-0.1-0.1-0.1-0.1C176.7,237.2,176.7,237.3,176.7,237.3z"/>
							<path class="st8" d="M171,238.6C171,238.6,171,238.6,171,238.6L171,238.6z"/>
							<path class="st8" d="M171.1,238.3C171.1,238.3,171.1,238.3,171.1,238.3C171.1,238.3,171.1,238.3,171.1,238.3z"/>
							<path class="st8" d="M173.4,239.1L173.4,239.1C173.4,239.1,173.4,239.1,173.4,239.1z"/>
							<path class="st8" d="M171,238.5c0,0,0,0.1,0,0.1C171,238.6,171,238.6,171,238.5z"/>
							<path class="st8" d="M171,238.5C171,238.5,171,238.5,171,238.5C171,238.5,171,238.5,171,238.5z"/>
							<path class="st8" d="M171,238.7c0,0,0-0.1,0-0.1c0,0,0,0,0,0C171,238.7,171,238.7,171,238.7z"/>
							<path class="st8" d="M168.7,233.4C168.7,233.4,168.7,233.4,168.7,233.4C168.8,233.4,168.8,233.4,168.7,233.4z"/>
							<polygon class="st8" points="170,236.3 170,236.3 170,236.3 							"/>
							<path class="st8" d="M169.9,236.6c0-0.1,0.1-0.2,0.1-0.2l-0.1,0.1C169.9,236.5,169.9,236.5,169.9,236.6z"/>
							<path class="st8" d="M165.3,239.4l0,0.2C165.2,239.4,165.2,239.2,165.3,239.4c0,0,0.2,0.7,0.3,0.7l0,0.1c0,0,0,0,0-0.1
								c0.1,0.2,0.1,0.1,0.3,0.4c0.1,0.1,0.1,0.2,0,0.1l0.2,0.2c0,0.1,0,0.1,0,0c0.1,0.1,0.2,0.2,0.2,0.3l0,0c0.1,0,0.1,0.1,0.2,0.2
								c0.1,0.1,0,0,0,0l0.2,0.1c0.1,0.1-0.1,0-0.2-0.1c0.1,0.2,0.1,0.1,0.5,0.4c-0.1,0-0.1-0.1-0.2-0.1c0.1,0.1,0.2,0.2,0.4,0.3
								c-0.1,0-0.4-0.3-0.2-0.2c0.1,0,0.1,0.1,0.3,0.1c0,0,0.1,0.1,0.3,0.1l0,0c0.2,0,0.2,0,0.3,0c0.2,0,0.2,0.1,0.3,0.1
								c0.3,0-0.2-0.1,0.2,0c0.3,0,0.4,0,0.7-0.1c0.2,0,0,0,0,0c0,0,0.1-0.1,0.1-0.1c0,0,0,0,0,0c0.1-0.1,0,0,0.2-0.2
								c0,0,0.4-0.2,0.5-0.5c0-0.1,0,0,0,0c0.1-0.3,0.1-0.3,0.2-0.6l0.1-0.2c-0.1,0.2,0-0.1,0-0.3c0,0.1,0,0.1-0.1,0.1
								c0-0.1,0-0.2,0-0.3c0,0,0,0,0,0l0-0.1c0-0.1,0,0,0,0l0,0.1c0,0.1,0,0.2,0,0.1c0,0,0-0.1,0-0.1c0,0,0,0,0,0c0,0,0,0,0-0.1
								l0-0.1l0,0c0-0.1,0-0.3,0.1-0.4c0-0.3-0.1-0.5-0.2-1c0,0.1,0,0,0.1,0c0,0.1,0.1,0.3,0.1,0.6c0-0.1,0-0.1,0-0.1
								c0-0.1,0-0.3-0.1-0.4c0,0,0-0.1,0-0.2c0,0.1-0.1-0.3-0.1-0.5c0,0,0,0,0.1,0.2c0-0.2-0.1-0.3-0.1-0.5c0,0.1,0,0.1,0,0.1
								c0-0.1-0.1-0.4,0-0.3l0,0.1c-0.1-0.3-0.1-1-0.1-1.1c0,0,0,0.1,0,0.1c0-0.2,0.1-0.4,0.1-0.6c0,0.1,0.2-0.1,0,0.2
								c0-0.1,0.1-0.1,0.2-0.3c0,0-0.1,0.1-0.1,0c0.2-0.1,0.1-0.1,0.3-0.2c-0.1,0,0-0.1,0.1-0.1c0,0,0,0,0,0.1
								c0.1,0,0.2-0.1,0.3-0.1c-0.1,0,0,0,0.1,0c0,0,0.3,0,0.4,0l-0.1,0c0.3,0.1,0.4,0,0.7,0.2c0,0-0.1,0,0,0.1
								c0.1,0,0.4,0.1,0.6,0.4l0,0.1l0.2,0.2c-0.1-0.1-0.4-0.4-0.7-0.5c0.1,0.1,0.1,0.1,0.2,0.2c0,0.1-0.1-0.1-0.1-0.1
								c0.1,0.1,0.2,0.2,0.3,0.3c0,0,0.2,0.3,0.2,0.2c-0.1-0.1-0.2-0.3-0.4-0.4c0,0,0.3,0.2,0.4,0.4c0,0.1-0.1,0-0.1,0
								c0,0,0.2,0.3,0.2,0.3l-0.1-0.1c0.1,0.2,0.2,0.2,0.3,0.4c0,0.1,0.1,0.2,0.1,0.2c0-0.1,0-0.2,0.1-0.1c0,0,0.1,0.4,0.2,0.5
								c0,0.1-0.1-0.2-0.1-0.1c0,0,0,0.1,0,0.1c0,0.1,0,0,0,0.1c0,0,0.1,0.4,0,0.1c0,0.2,0,0.2,0,0.4c0-0.1,0,0.2,0,0.4c0,0,0,0,0,0
								c-0.1,0.3-0.2,0.5-0.5,0.7c0,0-0.2,0.1-0.1,0c0,0-0.1,0-0.2,0.1c-0.2,0,0.2-0.1,0.1,0c0,0-0.2,0.1-0.4,0.1c0,0,0.3,0,0.5-0.1
								c0,0-0.2,0.2-0.6,0.1c-0.3,0-0.1,0-0.2,0c-0.3-0.1-0.4-0.1-0.4-0.2c-0.1-0.1-0.2-0.1-0.3-0.3c-0.1-0.2,0,0,0-0.1
								c0.1,0.2,0.2,0.3,0.3,0.4c-0.1,0-0.1-0.1-0.1-0.1c0.1,0.1,0.2,0.1,0.2,0.2c-0.1,0-0.3-0.2-0.4-0.4c-0.1-0.2-0.2-0.5-0.2-0.7
								c0-0.1,0-0.2,0-0.1l0,0.1c0,0.1,0-0.2,0-0.1c0-0.2,0-0.4,0.2-0.6l0,0c0,0-0.1,0.1-0.1,0.2c0-0.1,0.2-0.3,0.3-0.4
								c0,0-0.1,0.1-0.1,0.1c0.1-0.1,0.3-0.2,0.5-0.3c-0.1,0-0.1,0-0.2,0c0.1,0-0.1,0-0.2,0.1c-0.1,0.1-0.2,0.2-0.1,0.1
								c-0.1,0.1-0.2,0.2-0.3,0.4c0,0,0-0.1,0,0.1c0,0,0,0,0,0l0,0l0,0c0,0,0,0,0,0c0,0,0-0.1,0-0.1c0,0.1-0.1,0.4,0,0.5
								c0,0.1,0,0,0,0c0,0,0,0.1,0,0.1c0,0,0.1,0.3,0,0c0,0.1,0,0.1,0.1,0.2c0,0.1,0.2,0.3,0.2,0.4c0.1,0.1,0.2,0.2,0.1,0.1
								c0.1,0.1,0.2,0.1,0.3,0.2l0,0c0.3,0.1,0.8,0.1,1.1-0.2c0.1-0.1,0.2-0.2,0.3-0.3l0,0c0.1-0.1,0.2-0.4,0.2-0.5
								c0.1-0.2,0-0.8-0.1-1l0,0c-0.1-0.2-0.1-0.3-0.2-0.5l0,0c-0.1-0.2-0.2-0.4-0.4-0.7c0,0,0.1,0.1,0.1,0.1
								c-0.2-0.3-0.5-0.6-0.8-0.8c-0.1-0.1-0.1-0.1-0.2-0.1c0,0,0,0,0,0l0,0c0,0-0.1,0-0.1-0.1c0,0,0.1,0,0.1,0.1
								c-0.1,0-0.2-0.1-0.2-0.1l0,0c0,0,0,0,0,0c-0.1,0-0.1,0,0,0c0,0-0.1,0-0.1,0c-0.1,0-0.3,0-0.4-0.1c-0.1,0-0.5,0.1-0.5,0.1
								c0,0,0,0,0,0c-0.1,0-0.2,0.1-0.3,0.2l-0.1,0c-0.1,0.1-0.1,0.1-0.1,0.2c-0.1,0.1-0.1,0.2-0.1,0c-0.2,0.3-0.1,0.3-0.2,0.6l0,0
								c0,0.1,0,0.3,0,0.3c0,0.2,0.1,1.1,0.2,1.7c0-0.1,0,0.3,0.1,0.3c0,0,0,0.1,0,0c0,0.3,0,0.4,0,0.6c0,0,0-0.1,0,0
								c0,0,0,0.1,0,0.1c0,0,0,0,0-0.1c0,0.3,0,0.3,0.1,0.4c0,0.2-0.1,0.2-0.1,0.3c0,0-0.1,0.1,0-0.1c0,0.1-0.2,0.6-0.2,0.6
								c0,0-0.1,0.1-0.1,0.2c-0.1,0.2-0.1,0.2-0.3,0.4l0,0c0,0.1-0.1,0.1-0.3,0.3l0,0c-0.4,0.2-0.2,0.1-0.6,0.2l0,0
								c0,0.1-0.4,0-0.6,0l0.1,0c-0.1,0-0.4-0.1-0.5-0.2c0,0,0,0,0.1,0c-0.3-0.1-0.1,0-0.3-0.1c0,0,0.1,0-0.1-0.1
								c-0.1,0-0.5-0.2-0.6-0.4c0,0,0.1,0.1,0,0c-0.1-0.1-0.3-0.4-0.4-0.5c0,0,0,0,0,0c-0.1-0.1-0.3-0.4-0.3-0.5
								c0-0.2-0.4-0.8-0.3-0.8c0-0.1-0.1-0.3-0.1-0.4l0,0c0-0.3-0.1-0.4-0.1-0.5c0-0.1,0,0,0,0c0-0.4,0-0.4,0-0.8l0,0
								c0-0.1,0.2-0.6,0.3-1c0,0,0,0,0,0c0.1-0.4,0.6-0.9,0.6-1.1c0-0.1,0.1-0.2,0.2-0.3c-0.2,0.3,0-0.1-0.1,0
								c0.1-0.1,0.3-0.3,0.2-0.1l0,0c0,0.1,0.3-0.4,0.4-0.3c0.5-0.6,1.2-1,1.8-1.3l-0.1,0l0.2-0.1c0.1,0,0.1,0-0.1,0.1
								c0.1,0,0.3-0.1,0.3-0.1c0.3-0.1-0.1,0.1,0,0.1l0.1-0.1l0,0c0.1-0.1,0.1-0.1,0.3-0.1c0.1,0,0.1,0,0.1,0c0,0,0,0,0.1,0l0.3-0.1
								l-0.1,0c0.1,0,0.3,0,0.1-0.1c0.2,0,1.2,0,1.3,0c0.2,0,0.4,0,0.6,0.1c-0.1,0-0.1-0.1,0.1,0c-0.1,0.1,0.3,0.2,0.5,0.3
								c-0.1-0.1,0.5,0.2,0.4,0.1c0.2,0.1,0,0,0.1,0.1c0.4,0.1,0.8,0.5,1.2,0.7c0,0,0-0.1,0.1,0c0.1,0.1,0.1,0.1,0.2,0.2
								c0.1,0.1,0.1,0,0.2,0.1c0,0,0-0.1,0,0c0.7,0.7,1.5,1.4,2,2.3c-0.1-0.1,0-0.1,0.1,0c0-0.1,0,0,0,0l0.2,0.4
								c0.1,0,0.3,0.4,0.3,0.4l-0.1-0.1c0.2,0.1,0-0.3,0.1-0.3c-0.2-0.1-0.2-0.5-0.5-0.7c0-0.1,0.1,0,0.1,0c-0.1,0-0.1-0.1-0.3-0.3
								l0,0c-0.3-0.4-0.5-0.6-0.9-1.1l0,0.1c-0.1-0.1-0.1-0.1-0.1-0.2c-0.2-0.1,0.3,0.3,0.1,0.2c0-0.2-0.7-0.6-0.7-0.8
								c-0.2-0.1,0,0.1-0.1-0.1l0-0.1l-0.1,0c-0.1-0.1-0.1-0.2-0.1-0.2c0,0,0.1,0.1,0.1,0.1c-0.1-0.1-0.4-0.3-0.4-0.3l0.1,0.1
								c-0.5-0.3-1-0.7-1.5-0.9l0,0c-0.4-0.1-0.3-0.2-0.7-0.3l0,0c-0.1,0-0.2,0-0.3-0.1c0.1,0-0.2-0.1,0-0.1c-0.4,0-0.2,0-0.5,0
								l-0.1,0c-0.1,0-0.1,0-0.3,0c0.2,0-0.1,0,0.1-0.1c-0.5-0.1-0.7,0.1-0.9,0c-0.2,0.1,0.4,0,0.3,0c0.1,0-0.2,0.1-0.3,0.1
								c-0.1,0-0.3-0.1-0.6,0l0.1,0c-0.1,0-0.3,0.1-0.4,0.1c-0.1,0.1-0.2,0.1-0.2,0.1l0.3-0.1c-0.2,0.1-0.3,0.2-0.6,0.3
								c0,0,0.1-0.1,0.2-0.1c-0.1,0-0.2,0.1-0.3,0.1c0-0.1,0.4-0.2,0.6-0.3c-0.1,0-0.4,0.2-0.3,0.1c-0.1,0.1-0.3,0.1-0.5,0.3l0,0
								c0,0-0.1,0.1-0.2,0.1l0.1-0.1c-0.2,0.1-0.4,0.2-0.5,0.3c0.3-0.2,0.1,0,0.3-0.1c-0.4,0.3-0.3,0.1-0.7,0.5
								c0.1-0.1,0.2-0.2,0.2-0.1c-0.1,0.1-0.2,0.2-0.3,0.2c-0.3,0.3,0.1,0,0,0.1c-0.1,0.1-0.1,0.1-0.2,0.3l0,0
								c-0.3,0.3,0,0.1-0.3,0.4l0.1-0.2c0,0.1-0.1,0.1-0.1,0.2l0-0.1c-0.1,0.2-0.2,0.2-0.3,0.4c0,0,0,0.1-0.1,0.2
								c-0.1,0.1,0-0.1-0.1,0.2c0-0.1,0-0.1,0.1-0.2c0,0,0-0.1,0-0.1c-0.1,0.1-0.2,0.3-0.2,0.4c0,0,0-0.1,0.1-0.1
								c-0.1,0.1-0.1,0.2-0.1,0.4c0,0.1,0,0,0,0c0,0.1,0,0.1-0.1,0.2c0,0,0,0,0-0.2c0,0.1-0.1,0.2-0.1,0.4c0,0-0.1,0.2-0.1,0.1
								c-0.1,0.2-0.1,0.5-0.2,0.8c0,0,0,0,0,0.1c0,0.3-0.1,0.5-0.1,0.8l0,0.2c0,0.2,0-0.2,0.1,0.2c0,0.3,0,0.1,0,0.2
								c0,0.1,0.1,0.4,0.2,0.6C165.4,239.5,165.3,239.5,165.3,239.4z M166.9,241.8c-0.1,0-0.2-0.1-0.2-0.1
								C166.8,241.7,166.9,241.8,166.9,241.8z M170,239.9c0,0,0,0.1,0,0.2C170,240,170,240,170,239.9z M171.2,239.5L171.2,239.5
								C171.3,239.6,171.3,239.5,171.2,239.5z M171.1,239.2C171.1,239.2,171.1,239.2,171.1,239.2c0,0.1,0,0.1,0.1,0.1
								C171.1,239.3,171.1,239.3,171.1,239.2z M169.6,233.4L169.6,233.4C169.6,233.4,169.6,233.4,169.6,233.4z"/>
							<path class="st8" d="M170,240.4C170,240.4,170,240.4,170,240.4C170,240.5,170,240.5,170,240.4z"/>
							<path class="st8" d="M165.3,237.5L165.3,237.5C165.3,237.5,165.2,237.5,165.3,237.5L165.3,237.5z"/>
							<path class="st8" d="M173.3,238.1L173.3,238.1C173.3,238,173.3,238,173.3,238.1z"/>
							<path class="st8" d="M171.4,237.9c0,0-0.1,0.1-0.1,0.1C171.3,238,171.3,238,171.4,237.9C171.4,237.9,171.3,237.9,171.4,237.9
								z"/>
							<path class="st8" d="M172.8,238C172.8,238,172.8,238,172.8,238L172.8,238C172.7,237.9,172.7,237.9,172.8,238z"/>
							<path class="st8" d="M171.5,237.9c0,0,0.1-0.1,0.2-0.1l0,0C171.8,237.8,171.6,237.8,171.5,237.9z"/>
							<path class="st8" d="M171.8,237.8c0,0,0.1,0,0.1,0C171.9,237.7,171.8,237.7,171.8,237.8z"/>
							<path class="st8" d="M171,238.9C171,238.8,171,238.9,171,238.9C171,238.8,171.1,239.2,171,238.9z"/>
							<path class="st8" d="M171.6,237.8L171.6,237.8L171.6,237.8C171.6,237.9,171.6,237.8,171.6,237.8z"/>
							<path class="st8" d="M171.1,238.5c0-0.1,0-0.1,0.1-0.2c0,0,0,0,0,0C171.1,238.4,171.1,238.5,171.1,238.5z"/>
							<path class="st8" d="M171.1,238.3c0-0.1,0.1-0.1,0.1-0.1C171.2,238.2,171.2,238.2,171.1,238.3z"/>
							<path class="st8" d="M171.4,238L171.4,238c-0.1,0.1-0.1,0.1-0.1,0.1C171.3,238,171.4,238,171.4,238z"/>
							<path class="st8" d="M172.1,240c0.1,0,0.1,0,0.2,0C172.3,240,172.3,240,172.1,240C172.2,240,172.1,240,172.1,240z"/>
							<path class="st8" d="M171.6,239.7C171.6,239.7,171.6,239.8,171.6,239.7L171.6,239.7L171.6,239.7z"/>
							<path class="st8" d="M172.1,239.9C172.1,239.9,172.4,239.9,172.1,239.9C172.1,239.9,171.9,239.9,172.1,239.9z"/>
							<polygon class="st8" points="173.3,237.8 173.3,237.8 173.3,237.8 							"/>
							<path class="st8" d="M171.5,235.9c0.2,0.1,0.1,0,0.2,0.1c0.1,0-0.1-0.1-0.1-0.1C171.5,235.9,171.4,235.9,171.5,235.9z"/>
							<path class="st8" d="M171.6,235.9C171.7,235.9,171.7,236,171.6,235.9C171.7,236,171.7,235.9,171.6,235.9z"/>
							<polygon class="st8" points="177,237.8 177.1,237.9 177,237.8 							"/>
							<path class="st8" d="M177.2,238L177.2,238l0.1,0.1C177.3,238.1,177.2,238,177.2,238z"/>
							<path class="st8" d="M167.3,242.1L167.3,242.1c0,0,0,0-0.1-0.1L167.3,242.1z"/>
							<polygon class="st8" points="165.8,240.6 165.8,240.6 165.8,240.5 							"/>
							<path class="st8" d="M165.1,238.9c0,0.1,0,0.2,0,0.2C165.1,238.9,165.2,238.8,165.1,238.9z"/>
						</g>
					</g>
				</g>
			</g>
			<path class="st9" d="M161.2,271.8h-49.7c-1.3,0-2.4-1.1-2.4-2.4v-17.8c0-1.3,1.1-2.4,2.4-2.4h54.2"/>
			<path class="st9" d="M179.7,249.2h53.6c1.3,0,2.4,1.1,2.4,2.4v17.8c0,1.3-1.1,2.4-2.4,2.4h-57.5"/>
			<g>
				<path class="st4" d="M187.7,255.1c-0.2,0.4-0.8,0.3-1-0.1c-0.2-0.4,0.1-1.2-0.5-1.2c-1.1,0-1.3,1.1-1.3,2.2v1.7h1.3v0.1h-1.3
					v6.1c0,1.2,0.1,1.8,1,1.8v0.1h-3.4v-0.1c0.9,0,1-0.6,1-1.8c0-5.4,0-5.7,0-6.1h-1v-0.1h1c0-1,0-1.7,0-1.7c0-1.9,1.3-2.3,2.4-2.3
					c0.6,0,1.1,0.2,1.2,0.2C187.8,254.2,187.9,254.7,187.7,255.1z"/>
				<path class="st4" d="M194.6,258.3c0,0.6-0.6,0.7-1,0.5c-0.4-0.3-0.4-0.8-1-0.6c-0.6,0.2-1.2,1.1-1.5,2l0,3.7
					c0,1.2,0.1,1.8,1,1.8v0.1h-3.4v-0.1c0.9,0,1-0.6,1-1.8v-4.3c0-1.2-0.1-1.8-1-1.8v-0.1h2.6v0.1c-0.1,0.1-0.3,0.8-0.3,2.3
					c0.4-1.5,1.7-2.4,2.3-2.5C194.1,257.5,194.6,257.8,194.6,258.3z"/>
				<path class="st4" d="M198.8,260.3c-0.1,0.5-0.1,1.1-0.1,1.6c0.2,2.4,1.5,3.9,3.3,3.9c1,0,1.9-0.5,2.6-1.1v0.2
					c-0.6,0.5-1.3,0.9-2.6,1c-2.3,0.1-4.5-1.2-4.7-3.9c-0.2-2.5,1.7-4.3,4-4.5c1.9-0.1,3.4,0.9,3.7,2.8H198.8z M197.2,262
					 M198.8,260.2h4.7c-0.1-1.3-0.7-2.6-2.3-2.6C199.9,257.6,199.1,258.7,198.8,260.2z"/>
				<path class="st4" d="M213.6,263.7c0,1.4-1.1,2.2-3,2.2c-1.5,0-2.4-0.8-2.7-1.3c-0.4-0.5-0.3-1.2,0.1-1.3
					c0.4-0.2,0.9,0.2,0.8,0.6c0,0.5-0.6,0.8-0.1,1.3c0.3,0.4,0.8,0.7,1.9,0.7c1.1,0,1.8-0.7,1.8-1.5c0-2-4.3-2.1-4.3-4.9
					c0-1.3,1.1-1.9,2.7-1.9c1.5,0,2.1,0.7,2.4,1.1c0.4,0.5,0.3,1.1-0.1,1.3c-0.4,0.2-0.9-0.2-0.8-0.6c0-0.5,0.5-0.8,0.1-1.2
					c-0.3-0.3-0.6-0.6-1.5-0.6c-1,0-1.6,0.7-1.6,1.5C209.2,261.1,213.6,261.4,213.6,263.7z"/>
				<path class="st4" d="M225.2,265.7L225.2,265.7l-3.4,0.1v-0.1c0.9,0,1-0.6,1-1.8v-3.8c0-1.1-0.2-2.4-1.8-2.4
					c-0.7,0-1.7,0.6-2.1,1.6v4.6c0,1.2,0.1,1.8,1,1.8v0.1h-3.4v-0.1c0.9,0,1-0.6,1-1.8v-8.3c0-1.2-0.1-1.8-1-1.8v-0.1h2.7v0.1
					c-0.2,0.1-0.3,0.8-0.3,2.4v2.8c0.4-0.8,1.2-1.5,2.4-1.5c1.6,0,2.8,0.7,2.8,2.6v3.7C224.2,265.1,224.3,265.7,225.2,265.7z"/>
			</g>
			<g>
				<path class="st4" d="M126,265.6L126,265.6c-0.2,0.2-0.4,0.3-0.8,0.3c-0.9,0-1.8-0.2-1.9-1.6c-0.4,0.7-0.9,1.2-1.6,1.4
					c-1.2,0.4-3,0.1-2.8-1.6c0.1-1.7,2.4-2,3.6-2.3c0.3-0.1,0.6-0.2,0.9-0.4c0-0.5,0-1,0-1.5c0-1.4-0.2-2.4-1.4-2.4
					c-1.1,0-1.6,0.3-1.8,0.9c-0.2,0.5,0.2,0.7,0.3,1.2c0.1,0.4-0.3,0.8-0.7,0.7c-0.4-0.1-0.6-0.7-0.4-1.3c0.3-0.6,0.9-1.6,2.6-1.6
					c1.5,0,2.7,0.8,2.7,2.4c0,1.6,0,4.1,0,4.1c0,1.1,0,1.7,0.8,1.7C125.7,265.8,125.9,265.7,126,265.6z M123.3,264.3
					c0-0.1,0-0.2,0-0.3c0,0,0-1.2,0-2.4c-0.2,0.1-0.5,0.2-0.8,0.4c-0.8,0.3-2.3,0.4-2.5,1.9c-0.2,1.7,1,2.3,2,1.8
					C122.6,265.3,123,264.8,123.3,264.3z"/>
				<path class="st4" d="M133.8,264.8v0.2c-0.5,0.4-1.3,0.9-2.3,0.9c-2.3,0.1-4.5-1.1-4.6-3.9c-0.1-2.7,1.5-4.2,3.8-4.5
					c1.6-0.2,2.8,0.8,3.1,1.5c0.3,0.6,0.1,1.2-0.4,1.3c-0.4,0.1-0.8-0.3-0.7-0.7c0.1-0.5,0.6-0.6,0.2-1.1c-0.3-0.5-1.3-0.8-2.2-0.8
					c-1.7,0.1-2.5,2-2.4,4.4c0.1,2.4,1.5,3.9,3.2,3.9C132.3,265.8,133.3,265.2,133.8,264.8z"/>
				<path class="st4" d="M142.9,264.8v0.2c-0.5,0.4-1.3,0.9-2.3,0.9c-2.3,0.1-4.5-1.1-4.6-3.9c-0.1-2.7,1.5-4.2,3.8-4.5
					c1.6-0.2,2.8,0.8,3.1,1.5c0.3,0.6,0.1,1.2-0.4,1.3c-0.4,0.1-0.8-0.3-0.7-0.7c0.1-0.5,0.6-0.6,0.2-1.1c-0.3-0.5-1.3-0.8-2.2-0.8
					c-1.7,0.1-2.5,2-2.4,4.4c0.1,2.4,1.5,3.9,3.2,3.9C141.5,265.8,142.5,265.2,142.9,264.8z"/>
				<path class="st4" d="M148.2,265.7L148.2,265.7l-3.4,0.1v-0.1c0.9,0,1-0.6,1-1.8v-4.3c0-1.2-0.1-1.8-1-1.8v-0.1h2.6v0.1
					c-0.2,0.1-0.3,0.8-0.3,2.5v3.6C147.2,265.1,147.2,265.7,148.2,265.7z M145.6,255.1c0-0.5,0.4-0.9,0.9-0.9c0.5,0,0.9,0.4,0.9,0.9
					c0,0.5-0.4,0.9-0.9,0.9C146,256,145.6,255.6,145.6,255.1z"/>
				<path class="st4" d="M158,261.4c0.1,2.3-1.4,4.3-3.7,4.5c-2.4,0.2-4.6-1.3-4.7-3.8c-0.1-2.5,1.6-4.4,4-4.6
					C155.9,257.4,158,258.9,158,261.4z M156.6,261.4c-0.1-2-1.3-3.9-3-3.8c-1.8,0.1-2.7,1.9-2.6,4.4c0.2,2.6,1.5,4,3.3,3.8
					C155.9,265.6,156.7,263.6,156.6,261.4z"/>
			</g>
			<g>
				<path class="st8" d="M160.7,274.7l-17.7,0.1l-17.7,0l-8.8,0l-4.4,0l-2.2,0l-1.1,0c-0.4,0-0.8,0-1.2-0.1
					c-0.8-0.2-1.4-0.8-1.7-1.6c-0.1-0.4-0.2-0.8-0.2-1.2l0-1.1l0-4.4l0-8.8l0-8.8c0-0.8,0.3-1.6,0.9-2.1c0.3-0.3,0.7-0.5,1-0.6
					c0.4-0.1,0.8-0.1,1.2-0.1l4.4,0l17.7,0l17.7,0l17.7,0.1l-17.7,0.1l-17.7,0l-17.7,0l-4.4,0c-0.4,0-0.7,0-1,0.1
					c-0.3,0.1-0.6,0.3-0.9,0.5c-0.5,0.5-0.8,1.1-0.7,1.8l0,8.8l0,8.8l0,4.4c0,0.7-0.1,1.5,0.1,2.1c0.2,0.6,0.8,1.1,1.4,1.3
					c0.3,0.1,0.7,0.1,1,0.1l1.1,0l2.2,0l4.4,0l8.8,0l17.7,0L160.7,274.7z"/>
			</g>
			<g>
				<path class="st8" d="M180.1,246.3l18.6-0.1l18.6,0l18.6,0c0.4,0,0.8,0,1.2,0.1c0.4,0.1,0.8,0.3,1.1,0.6c0.7,0.5,1,1.5,0.9,2.2
					l0,4.7l0,9.3l0,9.3c0,0.8-0.4,1.7-1.1,2.2c-0.3,0.3-0.8,0.4-1.2,0.5c-0.4,0-0.8,0-1.2,0l-4.7,0l-18.6,0l-18.6,0l-18.6-0.1
					l18.6-0.1l18.6,0l18.6,0l4.7,0c0.4,0,0.8,0,1.1,0c0.3-0.1,0.7-0.2,1-0.4c0.6-0.4,0.9-1.1,0.9-1.8l0-9.3l0-9.3l0-4.7
					c0.1-0.8-0.2-1.5-0.7-1.9c-0.3-0.2-0.6-0.4-0.9-0.5c-0.3-0.1-0.7-0.1-1.1-0.1l-18.6,0l-18.6,0L180.1,246.3z"/>
			</g>
		</g>
		<g>
			<path class="st4" d="M157.8,319.1l-20,0.1l-20,0l-20,0l-2.5,0c-0.4,0-0.8,0-1.3,0c-0.4,0-0.9-0.1-1.3-0.3c-0.8-0.3-1.5-1-1.8-1.9
				c-0.1-0.4-0.1-0.9-0.1-1.3l0-1.2l0-10l0-10l0-1.2c0-0.4,0-0.9,0.1-1.3c0.3-0.9,1-1.6,1.8-1.9c0.4-0.2,0.8-0.3,1.3-0.3
				c0.4,0,0.8,0,1.3,0l2.5,0l20,0l20,0l20,0.1l-20,0.1l-20,0l-20,0l-2.5,0c-0.8,0-1.7-0.1-2.4,0.3c-0.7,0.3-1.3,0.9-1.5,1.6
				c-0.1,0.4-0.1,0.7-0.1,1.2l0,1.2l0,10l0,10l0,1.2c0,0.4,0,0.8,0.1,1.2c0.2,0.7,0.8,1.3,1.5,1.6c0.7,0.3,1.5,0.3,2.4,0.3l2.5,0
				l20,0l20,0L157.8,319.1z"/>
		</g>
		<g>
			<path class="st4" d="M174.5,290l23.9-0.1l23.9,0l23.9,0l6,0l1.5,0c0.5,0,1,0.1,1.5,0.4c1,0.4,1.8,1.3,1.9,2.5l0,12l0,12
				c-0.1,1.1-0.9,2-1.9,2.5c-0.5,0.2-1,0.3-1.5,0.4l-1.5,0l-6,0l-23.9,0l-23.9,0l-23.9-0.1l23.9-0.1l23.9,0l23.9,0l6,0
				c1,0,2,0.1,2.8-0.3c0.8-0.4,1.5-1.2,1.6-2.1l0-11.9l0-11.9c-0.1-0.9-0.7-1.7-1.6-2.1c-0.8-0.4-1.8-0.3-2.8-0.3l-6,0l-23.9,0
				l-23.9,0L174.5,290z"/>
		</g>
	</g>
</g>
</svg>
