<?xml version="1.0" encoding="utf-8"?>
<!-- Generator: Adobe Illustrator 22.1.0, SVG Export Plug-In . SVG Version: 6.00 Build 0)  -->
<svg version="1.1" id="Layer_1" xmlns="http://www.w3.org/2000/svg" xmlns:xlink="http://www.w3.org/1999/xlink" x="0px" y="0px"
	 viewBox="0 0 250.6 501.9" style="enable-background:new 0 0 250.6 501.9;" xml:space="preserve">
<style type="text/css">
	.st0{fill:#DDD7C3;stroke:#B5A04D;stroke-miterlimit:10;}
	.st1{fill:#3A3B3A;stroke:#3A3B3A;stroke-miterlimit:10;}
	.st2{fill:#B5A04D;stroke:#B5A04D;stroke-miterlimit:10;}
	.st3{fill:#FFFFFF;stroke:#E2E2E2;stroke-miterlimit:10;}
	.st4{fill:#010101;}
	.st5{fill:#A5A4A4;}
	.st6{fill:#2C3178;}
	.st7{fill:#3A3B3A;}
	.st8{fill:#FFFFFF;}
	.st9{fill:none;stroke:#7E7E7E;stroke-width:0.5;stroke-miterlimit:10;}
	.st10{fill:#7E7E7E;}
</style>
<g>
	<path class="st0" d="M233.5,501.4H17.1c-9.2,0-16.6-7.6-16.6-16.8V152.5c0-9.3,7.5-16.8,16.6-16.8h216.4c9.2,0,16.6,7.6,16.6,16.8
		v332.1C250.1,493.8,242.6,501.4,233.5,501.4z"/>
	<path class="st1" d="M68.7,429c0,0-2.5,2.5,0,10.3c0,0,15.6,5.8,39.3,6.3s40.5-4.9,44.6-6.6c0,0,1.7-5.5,0-9.7
		c0,0-18.5-13.8-18.7-23.6c0,0-1.7-11,2.2-16.3c3.8-5.3,18.5-17.9,21.4-20.1l-2.4-119.1c0,0-36.4-12.2-89.3-0.4l-0.5,120.9
		c0,0,20.6,12.7,22.6,19.4c1.9,6.7,1.1,15.7-0.9,18.2C85,411,68.7,429,68.7,429z"/>
	<path class="st1" d="M155.6,273.5c1.8-0.8,14.8-6.4,25.6,0.1c8.2,4.9,11,14.4,13.1,21.7c1.5,5.1,1.9,9.5,2.1,12.4
		c0.3,3.7,0.7,9.5-0.6,16.7c-0.8,4.1-1.7,9.2-5.2,14.7c-1.8,2.9-3.5,4.7-5.5,6.9c-4.1,4.3-7.5,6.7-13.1,11.1
		c-3.8,2.9-8.7,6.6-14.6,10.9l-0.3-13c0,0,1.6-1,3.9-2.7c3.9-2.8,6.4-4.5,8.9-6.5c4.2-3.3,6.5-5.2,9.2-8.5c1.6-2,3.8-4.8,5.1-9.1
		c0.5-1.7,0.7-3,1-5.7c0.7-5.5,0.7-9.8,0.7-11.1c0-4.4-0.1-8.3-1.3-13.4c-1.2-5-2.3-9.7-6.2-12.7c-0.8-0.7-2.7-2.1-5.5-2.5
		c-2.2-0.3-3.9,0.2-5,0.5c0,0-2.6,0.8-5.1,2.7c-5.4,4.3-6.7,12.9-6.8,13.9L155.6,273.5z"/>
	<g>
		<path class="st2" d="M132.7,405.4c-0.1,0.1-0.6,0-1.6,0.1c-1.2,0-1.9,0-3,0c-2.3-0.1-7.1,0-12.3-0.1c-6.6-0.1-7.2-0.3-15.5-0.5
			c-4.9-0.1-9-0.2-12-0.2c0.4-3.6,0.3-6.5,0.3-8.7c-0.1-4-0.6-5.2-0.8-5.7c-0.9-2.1-2.2-3.5-4.4-5.8c-2-2-3.7-3.4-4.6-4.2
			c0,0-4.1-3.3-13.5-9.4l0,0l0.4-97c1.2-0.8,3.1-1.7,5.4-1.6c2,0.1,2.4,0.9,4.5,1.1c3.5,0.3,4.3-1.6,6.6-1c2.7,0.8,2.4,3.6,5,4.4
			c2.3,0.6,3.2-1.2,6-0.6c2.5,0.5,2.5,2.1,4.3,2.1c2.5,0.1,3-2.9,7.4-4.6c1.3-0.5,3-1.2,4.7-0.5c2,0.8,1.6,2.5,3.7,3.6
			c2,1.1,3.1-0.2,7.1,0.5c2.2,0.4,2,0.8,4.1,1.2c2.1,0.4,5.4,1,7.2-0.8c1.5-1.3,0.8-2.9,2.3-3.7c1.3-0.7,2,0.4,4.1,0.1
			c2.4-0.4,2.7-2,4.4-1.8c1.8,0.2,2,2.1,3.8,2.2c1.6,0.1,2.2-1.3,4.1-1.7c1.1-0.3,2.7-0.2,5.2,1.4l1.8,95.2
			c-9,7.5-15.6,13.7-19,17.3c-1.5,1.5-3.2,3.6-4.1,6.5c-0.6,2-0.7,4.1-0.8,5.2C133.3,402.3,133.8,404.9,132.7,405.4z"/>
	</g>
	<g>
		<path class="st3" d="M155.6,274.3c-2.4-1.6-4.1-1.6-5.2-1.4c-2,0.5-2.5,1.9-4.1,1.7c-1.8-0.2-2-2.1-3.8-2.2
			c-1.7-0.2-2,1.4-4.4,1.8c-2.1,0.4-2.8-0.7-4.1-0.1c-1.5,0.8-0.8,2.4-2.3,3.7c-1.9,1.7-5.1,1.2-7.2,0.8c-2.2-0.4-1.9-0.8-4.1-1.2
			c-4.1-0.8-5.1,0.6-7.1-0.5c-2-1.1-1.6-2.9-3.7-3.6c-1.7-0.6-3.3,0-4.7,0.5c-4.3,1.7-4.8,4.7-7.4,4.6c-1.8-0.1-1.8-1.7-4.3-2.1
			c-2.8-0.6-3.7,1.2-6,0.6c-2.7-0.7-2.4-3.6-5-4.4c-2.3-0.7-3.1,1.3-6.6,1c-2.2-0.2-2.5-1-4.5-1.1c-2.3-0.1-4.2,0.8-5.4,1.6l0-9.3
			c0,0,5.7-2.4,7.3-1.1c1.6,1.4,4.2,3.1,5.9,2.2c1.8-0.8,7.9-1.1,9.3,0.1c1.4,1.2,5.2-3.3,7.1-2.7c2,0.7,4.3,3.5,5.4,2.9
			c1.1-0.7,6.6-2.9,9.3-0.7c2.7,2.2,3.6,3.5,5,2.6c1.4-0.9,2-4.7,3.6-4.2c1.7,0.5,3.3,2.2,4.6,0.7c1.3-1.5,5.7-2.1,7.9-1.2
			s4.4,3.5,6,2.4c1.6-1.2,6.7-2.7,9.1-1.6c2.3,1,3.2,3.3,4.6,2.2c1.3-1.1,3.1-2.5,4.5-1.7L155.6,274.3z"/>
	</g>
	<path class="st1" d="M133.8,403.1c0,0.6,0.1,0.9,0.1,0.9c0.2,9.7,18.7,23.6,18.7,23.6c1.7,4.2,0,9.7,0,9.7
		c-4,1.7-20.9,7.1-44.6,6.6s-39.3-6.3-39.3-6.3c-2.5-7.8,0-10.3,0-10.3s16.2-18,18.2-20.5c0.6-0.8,1.1-2.3,1.5-4.2L133.8,403.1z"/>
	<g>
		<path class="st4" d="M115,237.2c0,0,0.8,0.4,2.5,0.4c0,0,0.6-0.9,0.2-1.5c-0.4-0.6,0.4-0.4,0.4-0.9c0.1-0.6-0.3-1.7-0.1-2
			c0.2-0.4,0.7-3.7,1.5-5.7c0.7-2,1.6-5,1.7-5.6c0,0,0.7,0,0.6-0.8l-0.5-0.1c0,0,1.3-3.2,1.4-4.5c0.1-1.3,0.8-2.4,1.3-4
			c0.5-1.8,1.1-3.3,2-6.5s0.2-1.9,1.7-6.8c1.4-4.9,1.9-5.3,2.6-8.3c0.8-3,1.2-3.6,1-3.7c-0.2-0.1-1.1,2.4-1.4,3.2
			c-0.4,0.8-0.7,2.4-1.7,4.9c-1,2.5-1.9,4.4-2.9,7.8c-1.1,3.4-2,5.6-3,8.9c-1,3.3-1.1,2.5-1.4,4.6c-0.4,2.1-1.4,3.3-1.6,3.8
			l-0.8-0.2c0,0-0.6,0.7,0.2,1.1c0,0-0.6,2.8-0.8,4.2c-0.5,1.8-1.4,3.9-2,5.7c-0.2,0.7-0.1,0.4-0.5,1.8c0,0-0.1,0.4-0.2,0.8
			c-0.1,0.6-0.1,0.8-0.1,1.1c0.1,0.4,0.5,0.5,0.5,0.7c0,0.1-0.2,0.1-0.4,0.2c-0.1,0.1-0.1,0.2,0,0.7
			C114.9,236.6,114.9,236.8,115,237.2z"/>
		<g>
			<path class="st5" d="M116.4,234.9c-0.1-1.1-0.1-2.1,0.1-3.1c0.1-1.1,0.8-1.9,1.2-2.8s0.6-2,0.6-3.1c0.5-0.9,1.4-1.7,1.6-2.7
				c-0.1,0.5-0.4,0.9-0.6,1.4c-0.2,0.5-0.7,0.8-0.8,1.3c0,1.1-0.2,2.1-0.6,3.1c-0.4,0.9-1.1,1.8-1.2,2.8
				C116.5,232.8,116.4,233.8,116.4,234.9z"/>
		</g>
		<g>
			<path class="st5" d="M118.7,224.5c0.4-0.7,0.7-1.4,1-2.3c0-0.2,0.1-0.4,0.2-0.6c0.1-0.2,0.2-0.4,0.4-0.5c0.2-0.2,0.6-0.6,0.6-0.9
				c0,0.5-0.2,0.8-0.6,1.1s-0.5,0.6-0.5,1.1C119.5,222.9,119.2,223.8,118.7,224.5z"/>
		</g>
		<g>
			<path class="st5" d="M121.3,217.5c0.5-1.5,0.7-3.2,1.2-4.7c0.5-1.5,1.7-2.8,1.9-4.4c0.1-0.8,0.2-1.7,0.4-2.4
				c0.2-0.8,0.6-1.5,0.8-2.3l1.3-4.6l-1.3,4.7c-0.2,0.8-0.6,1.5-0.8,2.3c-0.2,0.8-0.2,1.5-0.4,2.4c-0.4,1.7-1.6,2.8-2,4.4
				C122.1,214.3,121.8,215.9,121.3,217.5z"/>
		</g>
		<g>
			<path class="st5" d="M117.3,232.4c0.2-0.7,0.5-1.3,0.7-2c0.2-0.7,0.2-1.4,0.5-2c0.1-0.7,0.5-1.3,0.7-2c0.1-0.4,0.2-0.6,0.2-1.1
				c0.1-0.4,0.6-0.5,0.5-0.8c0.1,0.4-0.4,0.6-0.5,0.9c0,0.4-0.1,0.7-0.2,1.1c-0.2,0.7-0.6,1.3-0.7,2c-0.1,0.7-0.2,1.4-0.5,2
				C117.9,231.2,117.5,231.8,117.3,232.4z"/>
		</g>
		<g>
			<path class="st5" d="M120.2,219.8c0.1-0.4,0.5-0.6,0.7-0.8c0.4-0.2,0.4-0.6,0.5-0.9c0.2-0.7,0.6-1.4,0.7-2.1s0-1.5,0.4-2.3
				c0.1-0.4,0.4-0.7,0.5-0.9c0.1-0.4,0.4-0.7,0.2-1.1c0.1,0.4-0.1,0.7-0.2,1.1c-0.1,0.4-0.4,0.7-0.5,1.1c-0.4,0.7-0.2,1.4-0.4,2.3
				c-0.1,0.7-0.5,1.4-0.8,2.1c-0.1,0.4-0.2,0.7-0.6,0.9C120.7,219.3,120.4,219.5,120.2,219.8z"/>
		</g>
		<g>
			<g>
				<g>
					<g>
						<path class="st6" d="M144.9,190L144.9,190C144.9,190.2,144.9,190,144.9,190z"/>
						<path class="st6" d="M146.1,190.2L146.1,190.2c0,0,0-0.1,0-0.2C146.1,190,146.1,190,146.1,190.2z"/>
						<path class="st6" d="M145.3,189.1c0.1,0,0.6,0,0.7,0.4l0,0l0,0.1C146,189.2,145.5,189.1,145.3,189.1z"/>
						<path class="st6" d="M144.5,189.6c0,0-0.1,0.1,0.1-0.1l0,0C144.7,189.4,144.6,189.4,144.5,189.6z"/>
						<path class="st6" d="M144.7,189.3C144.8,189.3,144.6,189.4,144.7,189.3L144.7,189.3z"/>
						<path class="st6" d="M144.3,190c0-0.1,0-0.1,0-0.2C144.4,189.9,144.3,190.2,144.3,190C144.3,190.3,144.3,190.2,144.3,190z"/>
						<path class="st6" d="M144.3,190.3L144.3,190.3C144.3,190.2,144.3,190.2,144.3,190.3z"/>
						<path class="st6" d="M144.4,189.9c0,0.1,0,0.1,0,0.2c0,0,0,0,0-0.1C144.3,190,144.3,190,144.4,189.9z"/>
						<path class="st6" d="M144.4,189.8C144.4,189.7,144.5,189.6,144.4,189.8c0.1-0.2,0.1-0.4,0.1-0.4
							C144.5,189.6,144.4,189.6,144.4,189.8z"/>
						<path class="st6" d="M145.1,189.1l0.1,0l0.1,0C145.4,189.1,145.1,189.1,145.1,189.1z"/>
						<path class="st6" d="M144.9,191.3C144.9,191.3,144.8,191.2,144.9,191.3c-0.1-0.1-0.1-0.1-0.2-0.2
							C144.8,191.2,144.9,191.3,144.9,191.3z"/>
						<path class="st6" d="M144.8,191.2c0.1,0,0.1,0.1,0.2,0.1C144.8,191.2,144.8,191.2,144.8,191.2z"/>
						<path class="st6" d="M144.4,190.3c0-0.1,0-0.2,0-0.4C144.3,190,144.3,190.3,144.4,190.3L144.4,190.3z"/>
						<path class="st6" d="M145.7,191.5l-0.1,0C145.7,191.5,145.8,191.5,145.7,191.5L145.7,191.5z"/>
						<path class="st6" d="M146.3,191.3C146.3,191.3,146.4,191.2,146.3,191.3c0.1-0.1,0.2-0.2,0.4-0.4
							C146.7,191.1,146.6,191.2,146.3,191.3z"/>
						<path class="st6" d="M146.8,190.8c0,0-0.1,0.1-0.1,0.2C146.8,190.9,146.8,190.9,146.8,190.8z"/>
						<path class="st6" d="M145.4,191.5c0,0,0,0,0.2,0L145.4,191.5C145.5,191.5,145.5,191.5,145.4,191.5z"/>
						<path class="st6" d="M145.5,191.5L145.5,191.5c0.1,0,0.2,0,0.2,0S145.6,191.5,145.5,191.5z"/>
						<path class="st6" d="M145.4,191.5L145.4,191.5L145.4,191.5z"/>
						<path class="st6" d="M144.5,191c0.1,0.1,0.2,0.4,0.1,0.1C144.7,191,144.7,191.1,144.5,191z"/>
						<path class="st6" d="M145.3,191.5c-0.1,0-0.1,0-0.2-0.1l0,0C145.1,191.5,145.1,191.5,145.3,191.5z"/>
						<path class="st6" d="M145.4,191.5l-0.1,0C145.3,191.5,145.4,191.5,145.4,191.5L145.4,191.5z"/>
						<path class="st6" d="M146.6,191.1c0.1-0.1,0.1-0.1,0.2-0.2C146.7,191,146.6,191.1,146.6,191.1
							C146.4,191.2,146.4,191.2,146.6,191.1z"/>
						<path class="st6" d="M146.1,191.5L146.1,191.5L146.1,191.5z"/>
						<path class="st6" d="M147,189.6L147,189.6L147,189.6z"/>
						<path class="st6" d="M146.4,191.2c-0.1,0.1-0.1,0.1-0.2,0.1C146.3,191.3,146.4,191.2,146.4,191.2
							C146.6,191.2,146.6,191.2,146.4,191.2z"/>
						<path class="st6" d="M147,190.4c0,0,0,0.1-0.1,0.2C146.9,190.6,147,190.5,147,190.4z"/>
						<path class="st6" d="M146.1,191.3L146.1,191.3C146.2,191.3,146.2,191.3,146.1,191.3z"/>
						<path class="st6" d="M146.1,191.3c0,0,0.1,0,0.1-0.1C146.2,191.3,146.2,191.3,146.1,191.3L146.1,191.3z"/>
						<path class="st6" d="M146.9,189.2c0,0,0.1,0.2,0.1,0.5c0,0.2,0,0.1,0-0.1c0,0,0,0-0.1-0.2c0,0.1,0.1,0.6,0.1,0.4
							C147,189.3,147,189.5,146.9,189.2c0.1,0.2-0.1-0.4-0.1-0.2C146.8,189,146.8,189.1,146.9,189.2
							C146.9,189.2,146.8,189.1,146.9,189.2z"/>
						<path class="st6" d="M147,190L147,190c0,0,0-0.1,0-0.2c0-0.1,0-0.2,0-0.2C147,189.8,147.2,189.9,147,190L147,190z"/>
						<path class="st6" d="M146.9,190.6c0-0.1,0.1-0.4,0-0.1c-0.1,0.2-0.1,0.2-0.1,0.4C147,190.4,146.8,191,146.9,190.6
							c0,0.1-0.1,0.1-0.1,0.2C146.8,190.8,146.9,190.8,146.9,190.6L146.9,190.6L146.9,190.6L146.9,190.6L146.9,190.6L146.9,190.6
							L146.9,190.6C147,190.5,146.9,190.6,146.9,190.6L146.9,190.6L146.9,190.6c0.1-0.1,0.1-0.2,0.1-0.5
							C147,190.3,147,190.4,146.9,190.6z"/>
						<path class="st6" d="M144.9,191.2L144.9,191.2L144.9,191.2z"/>
						<path class="st6" d="M145,191.3c0,0,0,0-0.1-0.1c-0.1-0.1,0,0,0,0s-0.2-0.1,0,0l0,0c0.1,0.1,0.4,0.2,0.4,0.2
							C145.1,191.5,145.1,191.5,145,191.3z"/>
						<path class="st6" d="M146.1,191.3c0.1,0,0.2-0.1,0.4-0.2l-0.1,0.1l0,0C146.2,191.3,146.2,191.3,146.1,191.3z"/>
						<path class="st6" d="M147,189.5L147,189.5c0,0,0-0.1,0-0.2C147,189.3,147,189.5,147,189.5z"/>
						<path class="st6" d="M146.8,189L146.8,189L146.8,189L146.8,189z"/>
						<path class="st6" d="M155.9,182.8L155.9,182.8L155.9,182.8z"/>
						<path class="st6" d="M155.5,183.6L155.5,183.6C155.5,183.6,155.5,183.4,155.5,183.6z"/>
						<path class="st6" d="M148.2,189.9c0-0.1,0-0.4,0-0.4l0,0C148.1,189.7,148.2,189.8,148.2,189.9z"/>
						<path class="st6" d="M148.9,182.3L148.9,182.3c-0.1,0-0.1,0-0.1,0C148.7,182.5,148.9,182.5,148.9,182.3z"/>
						<path class="st6" d="M149.1,182.3l0.2,0C149.2,182.3,149.1,182.3,149.1,182.3z"/>
						<path class="st6" d="M154.1,179l-0.1,0C154.1,179,154,179,154.1,179z"/>
						<path class="st6" d="M143.5,190.9c0,0.1,0.1,0.2,0.1,0.4C143.5,191.1,143.5,191.1,143.5,190.9z"/>
						<path class="st6" d="M156.1,183.3C156.1,183.2,156.1,183.2,156.1,183.3C156.1,183.3,156,183.3,156.1,183.3z"/>
						<path class="st6" d="M143.7,191.7L143.7,191.7c-0.1-0.1-0.1-0.2-0.2-0.4C143.6,191.5,143.7,191.6,143.7,191.7z"/>
						<path class="st6" d="M138.2,181.8L138.2,181.8L138.2,181.8z"/>
						<path class="st6" d="M133.8,184.2l0.1-0.1C133.9,184.2,133.8,184.2,133.8,184.2z"/>
						<path class="st6" d="M144.9,188.4C145,188.3,144.9,188.3,144.9,188.4L144.9,188.4z"/>
						<path class="st6" d="M145.5,188.3C145.4,188.3,145.4,188.4,145.5,188.3C145.4,188.4,145.4,188.3,145.5,188.3z"/>
						<path class="st6" d="M144.5,192.5L144.5,192.5L144.5,192.5z"/>
						<path class="st6" d="M145,188.3l-0.1,0C144.9,188.3,145,188.3,145,188.3z"/>
						<path class="st6" d="M145,188.3C145,188.3,145.1,188.3,145,188.3C145.1,188.3,145.1,188.3,145,188.3z"/>
						<path class="st6" d="M144.8,188.4c0.1,0,0.1,0,0.2,0l0,0C144.9,188.4,144.8,188.4,144.8,188.4z"/>
						<path class="st6" d="M146.5,178.2L146.5,178.2C146.4,178.2,146.5,178.2,146.5,178.2z"/>
						<path class="st6" d="M147.2,187.1L147.2,187.1L147.2,187.1z"/>
						<path class="st6" d="M147.1,186.7c0.1,0.1,0.1,0.2,0.1,0.4l0-0.1L147.1,186.7z"/>
						<path class="st6" d="M155.6,180.9c0,0.1,0,0.1,0.1,0.2C155.5,180.9,155.5,180.7,155.6,180.9c0,0,0.2,1,0.4,1.1l0,0.1
							c0,0,0,0,0-0.1c0,0.4,0.1,0.2,0,0.7c0,0.1-0.1,0.2-0.1,0.1c0,0.1-0.1,0.2-0.1,0.4s0,0,0,0c-0.1,0.1-0.2,0.2-0.4,0.4l0,0
							c0,0-0.1,0.1-0.2,0.2c-0.1,0,0,0,0,0c-0.1,0-0.1,0.1-0.2,0.1c-0.1,0,0.1-0.1,0.2-0.2c-0.2,0-0.2,0.1-0.8,0.2
							c0.1,0,0.1,0,0.2-0.1c-0.2,0-0.4,0.1-0.7,0c0.1,0,0.6,0,0.4,0.1c-0.1,0-0.2,0-0.4,0c0,0-0.1,0-0.4,0l0,0c-0.2,0-0.2,0-0.4,0
							c-0.2,0-0.2-0.1-0.4-0.1c-0.4-0.1,0.2,0.1-0.2,0c-0.2-0.1-0.5-0.2-0.9-0.5c-0.2-0.1,0,0,0,0l-0.2-0.1l0,0
							c-0.1-0.1,0,0-0.2-0.1c-0.1,0-0.5-0.4-0.8-0.4c-0.1,0,0,0,0,0c-0.5-0.1-0.4-0.1-0.8-0.2c-0.1,0-0.2-0.1-0.4-0.1
							c0.2,0.1-0.1,0-0.4,0.1c0.1,0,0.1,0,0.2,0c-0.1,0-0.4,0-0.5,0c0,0,0,0,0.1,0c0,0,0,0-0.1,0c-0.1,0-0.1,0,0,0l0.1,0
							c0.1,0,0.2,0,0.2-0.1l-0.1,0l0,0l-0.1,0l-0.1,0l0,0c-0.2,0-0.4,0-0.6,0.1c-0.4,0.2-0.7,0.5-1.1,1.1c0-0.1,0,0,0-0.1
							c0.1-0.1,0.2-0.5,0.6-0.7c-0.1,0.1-0.1,0.1-0.1,0c-0.1,0.1-0.4,0.4-0.4,0.5c0,0-0.1,0.1-0.1,0.2c0.1-0.1-0.1,0.5-0.1,0.7
							c0,0,0,0,0-0.4c-0.1,0.4,0,0.5,0,0.8c0-0.1,0-0.1,0-0.1c0,0.2,0,0.6,0,0.5l0-0.1c0,0.5,0.2,1.5,0.3,1.5c0,0-0.1,0-0.1-0.1
							l0.4,0.8c0-0.1,0,0.2-0.1-0.1c0,0.1,0.1,0.2,0.1,0.5c0-0.1,0-0.2,0-0.1c0,0.4,0,0.2,0.1,0.6c0-0.1,0,0,0.1,0.2c0,0,0,0-0.1,0
							l0.2,0.5c0-0.1,0,0,0,0.1c0,0,0.1,0.4,0.1,0.5l0-0.2c0.1,0.5,0.2,0.5,0.2,1.1c0-0.1-0.1-0.1,0,0.1c0,0.1,0.1,0.6,0,1.1l0,0.1
							l-0.1,0.4c0.1-0.2,0.2-0.8,0.1-1.2c0,0.2,0,0,0,0.4c0,0.1,0-0.1,0-0.2c0,0.2,0,0.5-0.1,0.7l-0.1,0.5c0.1-0.2,0.2-0.5,0.2-0.7
							c0,0,0,0.5-0.4,0.8c-0.1,0.1,0-0.1,0-0.1c0,0.1-0.2,0.4-0.4,0.4l0.1-0.1c-0.2,0.2-0.4,0.4-0.6,0.5c-0.1,0-0.4,0.1-0.4,0.1
							c0.1,0,0.2,0,0.1,0.1c0,0-0.6,0.1-0.7,0.1c-0.2,0,0.2-0.1,0.1-0.1l-0.1,0c-0.1,0,0,0-0.2,0c0,0-0.5,0-0.1,0
							c-0.2,0-0.2,0-0.6-0.1c0.1,0-0.2,0-0.5-0.1l0,0c-0.5-0.4-0.6-0.6-0.8-1c0,0-0.1-0.2,0-0.1c0-0.1-0.1-0.1-0.1-0.2
							c-0.1-0.2,0.1,0.4,0,0.1c0,0-0.1-0.4-0.1-0.6c0,0.1,0.1,0.5,0.2,0.7c0,0-0.2-0.4-0.2-0.8c0-0.4,0-0.2,0-0.2
							c0-0.4,0.1-0.6,0.1-0.7c0-0.1,0.1-0.2,0.2-0.5c0.2-0.2,0,0,0.1,0c-0.2,0.2-0.4,0.5-0.4,0.6c0-0.1,0.1-0.1,0.1-0.2
							c0,0.1-0.1,0.4-0.1,0.5c0-0.1,0.1-0.5,0.4-0.7c0.2-0.4,0.6-0.5,1-0.6c0.1,0,0.2-0.1,0.2,0c-0.1,0-0.1,0-0.2,0s0.4-0.1,0.1,0
							c0.2-0.1,0.6-0.1,0.9,0l0.1,0c0,0-0.2,0-0.4,0c0.1,0,0.6,0.1,0.7,0.1c-0.1,0-0.1-0.1-0.2-0.1c0.2,0,0.6,0.2,0.8,0.5
							c-0.1-0.1,0-0.1-0.2-0.2c0.1,0.1-0.1-0.1-0.2-0.1c-0.1-0.1-0.4-0.1-0.2-0.1c-0.2-0.1-0.4-0.1-0.7-0.1c0,0,0.1,0-0.1,0l0,0l0,0
							l0,0l0,0l0.1,0c-0.1,0-0.6,0.1-0.7,0.1c-0.1,0,0.1,0,0,0c-0.1,0-0.1,0-0.2,0.1c0,0-0.4,0.2,0,0c-0.1,0-0.2,0.1-0.2,0.2
							c-0.1,0.1-0.4,0.4-0.4,0.5c-0.1,0.1-0.1,0.4-0.1,0.2c0,0.1-0.1,0.4-0.1,0.5l0,0c0,0.5,0.1,1.1,0.3,1.7
							c0.1,0.1,0.2,0.4,0.4,0.6l0,0c0.1,0.1,0.5,0.5,0.6,0.5c0.2,0.2,1.1,0.4,1.4,0.2l0,0c0.2,0,0.6-0.1,0.8-0.4l0,0
							c0.2-0.1,0.6-0.4,1-0.8c0,0-0.1,0.1-0.1,0.2c0.4-0.5,0.5-1.1,0.5-1.5c0-0.1,0-0.2,0-0.4l0,0l0,0l0-0.1c0,0.1,0,0.1,0,0.1
							c0-0.1,0-0.2-0.1-0.4l0-0.1l0,0c0-0.1,0-0.1,0,0c0-0.1,0-0.1,0-0.2c0-0.1-0.1-0.4-0.1-0.5c0-0.1-0.2-0.7-0.2-0.7l0,0
							c0-0.1-0.1-0.4-0.1-0.5l0-0.1l-0.1-0.4c0-0.2,0-0.2,0-0.1c-0.2-0.6-0.1-0.2-0.2-0.8l0,0c0-0.1-0.1-0.4-0.1-0.5
							c0-0.4-0.3-1.7,0-2.5c-0.1,0.1,0.2-0.4,0.2-0.4s0.1-0.1,0,0c0.2-0.4,0.5-0.4,0.7-0.5c0,0-0.1,0,0,0c0,0,0.1,0,0.1-0.1
							c0,0,0,0-0.1,0c0.4-0.1,0.5-0.1,0.5-0.2c0.2,0,0.4,0,0.5,0c0.1,0,0.2,0-0.1,0c0.1,0,0.9,0.2,0.9,0.1c0.1,0,0.2,0.1,0.2,0.1
							c0.4,0.1,0.4,0.1,0.7,0.4l-0.1,0c0.1,0,0.2,0.1,0.5,0.2l0,0c0.6,0.4,0.2,0.1,0.8,0.5l0,0c0.1,0,0.5,0.4,0.8,0.5l-0.1,0
							c0.2,0,0.6,0.2,0.7,0.2l-0.1,0c0.6,0.1,0.1,0,0.5,0c0.1,0-0.1,0.1,0.2,0c0.1,0,0.8-0.1,1.2-0.4c-0.1,0-0.1,0,0,0
							c0.2-0.1,0.7-0.4,0.8-0.7l0,0c0.1-0.2,0.2-0.7,0.1-0.8c0.1-0.2-0.4-1.3-0.2-1.3c-0.1-0.2-0.2-0.5-0.2-0.6l0,0
							c-0.2-0.4-0.4-0.5-0.5-0.6c0-0.1,0,0,0,0c-0.4-0.5-0.5-0.6-0.8-0.8l0-0.1c-0.1-0.1-0.7-0.6-1.3-0.8c0,0,0,0,0.1,0
							c-0.4-0.1-0.7-0.2-1.1-0.4c-0.4-0.1-0.7-0.1-0.8-0.1c-0.1,0-0.4,0-0.5,0c0.6,0-0.1,0,0.1,0.1c-0.2,0-0.6-0.1-0.4-0.1l0,0
							c0.1-0.1-0.7-0.1-0.7-0.1c-1.2,0-2.3,0.1-3.3,0.3l0.1,0c-0.1,0-0.2,0-0.4,0.1c-0.1,0-0.1,0,0.1-0.1c-0.1,0-0.5,0.1-0.5,0.1
							c-0.5,0.1,0.2-0.1,0-0.1l-0.2,0.1l0,0c-0.1,0.1-0.1,0.1-0.5,0.2c-0.2,0-0.1,0-0.2,0c0,0,0,0-0.1,0l-0.5,0.1l0.2,0
							c-0.2,0.1-0.5,0.1-0.2,0.1c-0.4,0-1.7,0.6-1.9,0.6c-0.2,0.1-0.5,0.2-0.8,0.4c0.1,0,0.1,0-0.1,0.1c0-0.1-0.6,0.1-0.8,0.2
							c0.2,0-0.8,0.4-0.5,0.4c-0.2,0.1,0,0-0.2,0c-0.5,0.4-1.2,0.6-1.9,0.9c0,0,0.1,0,0,0.1l-0.4,0.1c-0.1,0.1-0.1,0.1-0.4,0.2
							c0,0,0.1,0,0,0c-0.7,0.4-1.3,0.7-1.9,1.2c-0.6,0.5-1.2,0.9-1.9,1.3c0.2-0.1,0.1,0,0,0.1c0.1,0,0,0,0.1,0l-0.6,0.4
							c0,0.1-0.6,0.5-0.6,0.5l0.1-0.1c-0.1,0.2,0.5-0.1,0.5,0c0.1-0.2,0.7-0.4,1.1-0.8c0.1,0,0,0.1,0,0.1c0.1-0.1,0.2-0.2,0.4-0.4
							l0,0c0.6-0.5,0.8-0.7,1.7-1.1l-0.1,0c0.1-0.1,0.2-0.1,0.2-0.1c0.1-0.2-0.5,0.2-0.4,0.1c0.2,0,1.1-0.7,1.3-0.7
							c0.2-0.1-0.1,0,0.1-0.1l0.1,0l0-0.1c0.1-0.1,0.2-0.1,0.2-0.1l-0.1,0.1c0.2-0.1,0.6-0.4,0.7-0.4l-0.2,0.1
							c0.7-0.5,1.5-0.8,2.1-1.2l-0.1,0c0.5-0.2,0.5-0.2,1-0.5l0,0c0.1-0.1,0.2-0.1,0.5-0.2c-0.1,0.1,0.4-0.1,0.1,0
							c0.6-0.2,0.2-0.1,0.6-0.4l0.1,0c0.1-0.1,0.1-0.1,0.5-0.2c-0.2,0.1,0.2,0,0,0.1c0.6-0.1,1-0.5,1.2-0.4c0.2-0.2-0.6,0.1-0.4,0
							c-0.1,0,0.2-0.1,0.5-0.2c0.2-0.1,0.4,0,1-0.1c0,0,0,0-0.1,0c0.2,0,0.4-0.1,0.6-0.1c0.1-0.1,0.4-0.1,0.4-0.1l-0.5,0.1
							c0.2-0.1,0.5-0.2,1-0.4c0,0-0.1,0.1-0.2,0.1c0.1,0,0.2-0.1,0.4-0.1c0,0.1-0.6,0.1-0.8,0.2c0.1,0,0.5-0.2,0.4-0.1
							c0.2-0.1,0.5-0.1,0.8-0.2l0,0c0,0,0.1-0.1,0.2-0.1l-0.1,0.1c0.2-0.1,0.6-0.1,0.8-0.1c-0.6,0.1-0.1,0-0.4,0
							c0.7-0.1,0.5,0,1.2-0.1c-0.1,0-0.4,0-0.2,0s0.4,0,0.5,0c0.5,0-0.1,0,0.1-0.1c0.2,0,0.2,0,0.5-0.1l0,0c0.6,0,0.1-0.1,0.7,0
							l-0.2,0l0.2,0l-0.1,0c0.4,0,0.4,0,0.7,0c-0.1,0,0-0.1,0.4,0c0.1,0-0.1,0,0.2,0.1c-0.1,0-0.2,0-0.4,0l-0.1,0
							c0.2,0.1,0.5,0.1,0.6,0.1l-0.1,0l0.6,0.1c0.1,0,0,0-0.1,0c0.1,0,0.2,0,0.4,0.1c0,0,0,0-0.2,0c0.1,0,0.4,0.1,0.5,0.1
							c0,0,0.2,0.1,0.1,0.1c0.2,0.1,0.6,0.2,0.9,0.6c0,0,0,0,0.1,0.1c0.2,0.2,0.5,0.5,0.8,0.8l0.1,0.2c0.2,0.2-0.1-0.4,0.2,0.1
							c0.2,0.4,0,0.1,0.1,0.2c0.1,0.1,0.4,0.5,0.4,0.8C155.7,181.2,155.6,181.1,155.6,180.9z M154.3,184c0.1,0,0.2-0.1,0.2-0.1
							C154.5,184,154.4,184,154.3,184z M148.3,182.5c0,0,0.1,0,0.2,0C148.5,182.3,148.4,182.3,148.3,182.5z M143.8,188.8
							L143.8,188.8C143.7,189.1,143.7,189,143.8,188.8z M144.1,188.6L144.1,188.6c-0.1,0-0.1,0.1-0.1,0.1
							C144,188.7,144,188.7,144.1,188.6z M145.3,178.2L145.3,178.2C145.2,178.2,145.3,178.2,145.3,178.2z"/>
						<path class="st6" d="M149,182.3C149.1,182.3,149.1,182.3,149,182.3C149.1,182.3,149.1,182.3,149,182.3z"/>
						<path class="st6" d="M154.1,179L154.1,179L154.1,179L154.1,179z"/>
						<path class="st6" d="M146,192.8l0.1,0C146.1,192.8,146.1,192.8,146,192.8z"/>
						<path class="st6" d="M146.1,188.4l-0.2-0.1C146,188.4,146,188.4,146.1,188.4C146.1,188.4,146,188.4,146.1,188.4z"/>
						<path class="st6" d="M147,190.2L147,190.2L147,190.2C147,190,147,189.9,147,190.2z"/>
						<path class="st6" d="M146.2,188.5c0,0,0.1,0.1,0.2,0.2l0,0C146.6,188.7,146.5,188.6,146.2,188.5z"/>
						<path class="st6" d="M146.6,188.7C146.7,188.7,146.7,188.9,146.6,188.7C146.7,188.9,146.7,188.9,146.6,188.7z"/>
						<path class="st6" d="M144.6,188.4L144.6,188.4C144.7,188.4,144.1,188.6,144.6,188.4z"/>
						<polygon class="st6" points="146.3,188.6 146.3,188.6 146.2,188.5 						"/>
						<path class="st6" d="M145,188.4c0.1,0,0.2,0,0.2,0s0,0,0.1,0C145.3,188.4,145,188.4,145,188.4z"/>
						<path class="st6" d="M145.4,188.4c0.1,0,0.1,0,0.2,0C145.6,188.4,145.5,188.4,145.4,188.4z"/>
						<path class="st6" d="M146.1,188.5L146.1,188.5c-0.1,0-0.2-0.1-0.2-0.1C145.9,188.4,146,188.4,146.1,188.5z"/>
						<path class="st6" d="M143.4,190.4c0,0.1,0,0.2,0,0.4c0,0,0,0,0-0.1C143.4,190.4,143.4,190.3,143.4,190.4z"/>
						<path class="st6" d="M143.6,189.4l0,0.1l0,0L143.6,189.4z"/>
						<path class="st6" d="M143.5,190.4C143.5,190.4,143.5,190.7,143.5,190.4C143.5,190.4,143.5,190,143.5,190.4z"/>
						<path class="st6" d="M146.4,192.8l-0.1,0L146.4,192.8z"/>
						<path class="st6" d="M148,189.7c0,0.4,0,0.1,0.1,0.4c0,0.1,0-0.2,0-0.1C148,189.7,148,189.6,148,189.7z"/>
						<path class="st6" d="M148,189.9L148,189.9L148,189.9z"/>
						<polygon class="st6" points="133.1,184.6 132.8,184.8 132.9,184.8 						"/>
						<path class="st6" d="M132.7,185L132.7,185l-0.1,0.1C132.6,185.1,132.7,185,132.7,185z"/>
						<path class="st6" d="M153.7,183.9L153.7,183.9l0.1,0L153.7,183.9z"/>
						<polygon class="st6" points="155.9,182.6 155.9,182.7 156,182.6 						"/>
						<path class="st6" d="M155.2,180.3c0,0.1,0.1,0.2,0.1,0.2C155.3,180.5,155.3,180.3,155.2,180.3z"/>
					</g>
				</g>
			</g>
		</g>
		<g>
			<g>
				<g>
					<g>
						<path class="st6" d="M125.3,186.4L125.3,186.4C125.2,186.5,125.3,186.4,125.3,186.4z"/>
						<path class="st6" d="M125.9,186L125.9,186c0,0,0-0.1-0.1-0.1C125.9,185.9,125.9,186,125.9,186z"/>
						<path class="st6" d="M124.9,185.7c0.1-0.1,0.5-0.2,0.6-0.1l0,0l0.1,0C125.5,185.6,125.1,185.6,124.9,185.7z"/>
						<path class="st6" d="M124.6,186.3c0,0,0,0.1,0-0.1l0,0C124.6,186.1,124.6,186.3,124.6,186.3z"/>
						<path class="st6" d="M124.6,186.1C124.6,186,124.6,186.3,124.6,186.1L124.6,186.1z"/>
						<path class="st6" d="M124.7,186.7c0,0,0-0.1-0.1-0.1L124.7,186.7C124.7,186.9,124.7,186.9,124.7,186.7z"/>
						<path class="st6" d="M124.9,186.9L124.9,186.9C124.7,186.9,124.7,186.9,124.9,186.9z"/>
						<path class="st6" d="M124.6,186.6l0.1,0.1C124.7,186.9,124.7,186.9,124.6,186.6C124.7,186.7,124.7,186.7,124.6,186.6z"/>
						<path class="st6" d="M124.6,186.5C124.6,186.5,124.6,186.4,124.6,186.5C124.6,186.1,124.6,186.3,124.6,186.5z"/>
						<path class="st6" d="M124.9,185.8C124.9,185.8,125,185.7,124.9,185.8c0.1-0.1,0.1-0.1,0.2-0.1
							C125,185.7,124.9,185.8,124.9,185.8z"/>
						<path class="st6" d="M125.7,187.2C125.7,187.2,125.6,187.2,125.7,187.2c-0.1,0-0.1,0-0.2,0
							C125.6,187.2,125.7,187.2,125.7,187.2z"/>
						<path class="st6" d="M125.6,187.2c0.1,0,0.1,0,0.2,0C125.6,187.2,125.6,187.2,125.6,187.2z"/>
						<path class="st6" d="M124.9,186.9c-0.1-0.1-0.1-0.1-0.2-0.2C124.7,186.7,124.7,186.9,124.9,186.9L124.9,186.9z"/>
						<path class="st6" d="M126.3,186.7L126.3,186.7L126.3,186.7L126.3,186.7z"/>
						<path class="st6" d="M126.4,186.3C126.4,186.4,126.4,186.2,126.4,186.3c0-0.1,0-0.2,0-0.4C126.4,186,126.4,186.2,126.4,186.3z
							"/>
						<path class="st6" d="M126.4,185.7l0,0.1C126.4,185.8,126.4,185.8,126.4,185.7z"/>
						<path class="st6" d="M126,187C126,187,126.2,187,126,187L126,187L126,187z"/>
						<path class="st6" d="M126.2,186.9L126.2,186.9c0.1-0.1,0.1-0.1,0.1-0.1C126.3,186.7,126.2,186.9,126.2,186.9z"/>
						<path class="st6" d="M126,187L126,187L126,187z"/>
						<path class="st6" d="M125.3,187.1c0.1,0,0.4,0,0.1,0C125.3,187.2,125.4,187.2,125.3,187.1z"/>
						<path class="st6" d="M126,187c0,0-0.1,0.1-0.2,0.1l0,0C125.8,187.1,125.9,187.1,126,187z"/>
						<path class="st6" d="M126,187L126,187L126,187z"/>
						<path class="st6" d="M126.4,186c0-0.1,0-0.2-0.1-0.2C126.4,185.9,126.4,186,126.4,186C126.4,186.2,126.4,186.2,126.4,186z"/>
						<path class="st6" d="M126.4,186.5L126.4,186.5L126.4,186.5z"/>
						<path class="st6" d="M125.6,185.1L125.6,185.1L125.6,185.1z"/>
						<path class="st6" d="M126.4,186.2c0,0.1,0,0.1,0,0.2C126.4,186.3,126.4,186.3,126.4,186.2L126.4,186.2z"/>
						<path class="st6" d="M126.2,185.4c0,0,0,0.1,0.1,0.1L126.2,185.4z"/>
						<path class="st6" d="M126.4,186.5L126.4,186.5L126.4,186.5z"/>
						<path class="st6" d="M126.4,186.5C126.4,186.4,126.4,186.4,126.4,186.5C126.4,186.4,126.4,186.5,126.4,186.5L126.4,186.5z"/>
						<path class="st6" d="M125.2,185.1c0,0,0.2,0,0.5,0.1c0.1,0.1,0.1,0-0.1-0.1c0,0,0,0-0.2,0c0.1,0,0.5,0.1,0.2,0.1
							C125.5,185.1,125.5,185.1,125.2,185.1c0.1,0-0.2,0-0.2,0C125.1,185.1,125.2,185.1,125.2,185.1
							C125.3,185.1,125.2,185.1,125.2,185.1z"/>
						<path class="st6" d="M125.9,185.2L125.9,185.2c0,0-0.1,0-0.1-0.1c-0.1,0-0.1,0-0.1-0.1C125.7,185.1,125.9,185.2,125.9,185.2
							L125.9,185.2z"/>
						<path class="st6" d="M126.3,185.6C126.3,185.6,126,185.3,126.3,185.6c0,0.1,0,0,0.1,0.1C126.2,185.4,126.4,185.8,126.3,185.6
							c0,0.1,0.1,0.1,0.1,0.2C126.3,185.7,126.3,185.7,126.3,185.6L126.3,185.6L126.3,185.6L126.3,185.6
							C126.3,185.7,126.3,185.7,126.3,185.6L126.3,185.6L126.3,185.6C126.2,185.4,126.3,185.6,126.3,185.6L126.3,185.6L126.3,185.6
							c0-0.1-0.1-0.2-0.2-0.2C126,185.3,126.2,185.4,126.3,185.6z"/>
						<path class="st6" d="M125.6,187.1L125.6,187.1C125.7,187.1,125.7,187.1,125.6,187.1z"/>
						<path class="st6" d="M125.8,187.1c0,0,0,0-0.1,0c-0.1,0,0,0,0,0s-0.2,0,0,0l0,0c0.1,0,0.4-0.1,0.4-0.1
							C125.9,187.1,125.9,187.1,125.8,187.1z"/>
						<path class="st6" d="M126.4,186.5c0-0.1,0-0.2,0-0.4l0,0.1l0,0C126.4,186.4,126.4,186.4,126.4,186.5z"/>
						<path class="st6" d="M125.6,185.1L125.6,185.1l-0.1,0C125.5,185,125.5,185.1,125.6,185.1z"/>
						<polygon class="st6" points="125.1,185 125.1,185 125,185 						"/>
						<path class="st6" d="M118,188.5L118,188.5C117.8,188.5,117.8,188.5,118,188.5z"/>
						<path class="st6" d="M118.3,189.1L118.3,189.1L118.3,189.1z"/>
						<path class="st6" d="M124.8,182.8c-0.1-0.1-0.2-0.1-0.2-0.1l0,0C124.6,182.7,124.8,182.7,124.8,182.8z"/>
						<path class="st6" d="M122.7,188L122.7,188c0-0.1,0-0.1,0-0.1C122.7,187.9,122.7,188,122.7,188z"/>
						<path class="st6" d="M122.7,188.2l-0.1,0.2C122.7,188.3,122.7,188.3,122.7,188.2z"/>
						<path class="st6" d="M117.1,184.8l0-0.1C117.1,184.8,117.1,184.7,117.1,184.8z"/>
						<path class="st6" d="M125.7,187.7c0.1,0,0.2,0,0.4-0.1C125.8,187.7,125.7,187.7,125.7,187.7z"/>
						<path class="st6" d="M118.3,188.6C118.3,188.5,118.3,188.5,118.3,188.6L118.3,188.6z"/>
						<path class="st6" d="M126.3,187.5L126.3,187.5c-0.1,0.1-0.2,0.1-0.4,0.2C126,187.6,126.2,187.6,126.3,187.5z"/>
						<path class="st6" d="M128.3,181.3L128.3,181.3L128.3,181.3z"/>
						<path class="st6" d="M130.7,184.5l-0.1-0.1C130.6,184.5,130.6,184.5,130.7,184.5z"/>
						<path class="st6" d="M123.9,186.1C123.9,186,123.9,186,123.9,186.1L123.9,186.1z"/>
						<path class="st6" d="M124,185.7L124,185.7L124,185.7z"/>
						<path class="st6" d="M126.8,186.6L126.8,186.6L126.8,186.6z"/>
						<path class="st6" d="M123.9,185.9C123.9,186,123.9,186,123.9,185.9C123.9,186,123.9,186,123.9,185.9z"/>
						<path class="st6" d="M123.9,185.9L123.9,185.9L123.9,185.9z"/>
						<path class="st6" d="M123.9,186.3l0-0.1l0,0C123.9,186.1,123.9,186.1,123.9,186.3z"/>
						<path class="st6" d="M121.3,180L121.3,180L121.3,180z"/>
						<path class="st6" d="M122.7,183.4L122.7,183.4L122.7,183.4z"/>
						<path class="st6" d="M122.6,183.6c0-0.1,0.1-0.2,0.1-0.2l-0.1,0.1L122.6,183.6z"/>
						<path class="st6" d="M117.3,186.9l0,0.2C117.1,186.9,117.1,186.7,117.3,186.9c0,0,0.2,0.8,0.4,0.8l0,0.1c0,0,0,0,0-0.1
							c0.1,0.2,0.1,0.1,0.4,0.5c0.1,0.1,0.1,0.2,0,0.1l0.2,0.2c0,0.1,0,0.1,0,0c0.1,0.1,0.1,0.2,0.2,0.4l0,0c0.1,0,0.1,0.1,0.2,0.2
							c0.1,0.1,0,0,0,0l0.2,0.1c0.1,0.1-0.1,0-0.2-0.1c0.1,0.2,0.1,0.1,0.6,0.5c-0.1,0-0.1-0.1-0.2-0.1c0.1,0.1,0.2,0.2,0.5,0.4
							c-0.1,0-0.5-0.4-0.2-0.2c0.1,0,0.1,0.1,0.4,0.1c0,0,0.1,0.1,0.4,0.1l0,0c0.2,0,0.2,0,0.4,0c0.2,0,0.2,0.1,0.4,0.1
							c0.4,0-0.2-0.1,0.2,0c0.2,0,0.5,0,0.8-0.1c0.2,0,0,0,0,0l0.1-0.1l0,0c0.1-0.1,0,0,0.2-0.1c0,0,0.5-0.2,0.6-0.6l0,0
							c0.1-0.4,0.1-0.4,0.2-0.6l0.1-0.2c-0.1,0.2,0-0.1,0-0.4c0,0.1,0,0.1-0.1,0.1c0-0.1,0-0.2,0-0.4l0,0l0-0.1c0-0.1,0,0,0,0l0,0.1
							c0,0.1,0,0.2,0,0.1l0-0.1l0,0c0,0,0,0,0-0.1l0-0.1l0,0c0-0.1,0-0.4,0.1-0.5c0-0.4-0.1-0.6-0.2-1.2c0,0.1,0,0,0.1,0
							c0,0.1,0.1,0.4,0.1,0.7c0-0.1,0-0.1,0-0.1c0-0.1,0-0.4-0.1-0.5c0,0,0-0.1,0-0.2c0,0.1-0.1-0.4-0.1-0.6c0,0,0,0,0.1,0.2
							c0-0.2-0.1-0.4-0.1-0.6c0,0.1,0,0.1,0,0.1c0-0.1-0.1-0.5,0-0.4l0,0c-0.1-0.4-0.1-1.2-0.1-1.3c0,0,0,0,0,0.1
							c0-0.2,0-0.5,0.1-0.7c0,0.1,0.2-0.1,0,0.2c0-0.1,0.1-0.1,0.2-0.4c0,0-0.1,0.1-0.1,0c0.2-0.1,0.1-0.1,0.4-0.2
							c-0.1,0,0-0.1,0.1-0.1c0,0,0,0,0,0.1c0.1,0,0.2-0.1,0.4-0.1c-0.1,0,0,0,0.1,0l0.4,0l-0.1,0c0.4,0.1,0.5,0,0.8,0.2
							c0,0-0.1,0,0,0.1c0.1,0,0.5,0.1,0.7,0.5l0,0.1l0.2,0.2c-0.1-0.1-0.5-0.5-0.7-0.6c0.1,0.1,0.1,0.1,0.2,0.2
							c0,0.1-0.1-0.1-0.1-0.1c0.1,0.1,0.2,0.2,0.4,0.4c0,0,0.2,0.4,0.2,0.2c-0.1-0.1-0.2-0.4-0.4-0.5c0,0,0.4,0.2,0.5,0.5
							c0,0.1-0.1,0-0.1,0l0.2,0.4l-0.1-0.1c0.1,0.2,0.2,0.2,0.4,0.5c0,0.1,0.1,0.2,0.1,0.2c0-0.1,0-0.2,0.1-0.1c0,0,0.1,0.5,0.1,0.6
							c0,0.1-0.1-0.2-0.1-0.1l0,0.1c0,0.1,0,0,0,0.1c0,0,0.1,0.4,0,0.1c0,0.2,0,0.2,0,0.5c0-0.1,0,0.2,0,0.5l0,0
							c-0.1,0.4-0.2,0.6-0.6,0.8c0,0-0.2,0.1-0.1,0c0,0-0.1,0-0.2,0.1c-0.2,0,0.2-0.1,0.1,0c0,0-0.2,0.1-0.5,0.1c0,0,0.4,0,0.6-0.1
							c0,0-0.2,0.2-0.7,0.1c-0.4,0-0.1,0-0.2,0c-0.4-0.1-0.4-0.1-0.5-0.2c-0.1-0.1-0.2-0.1-0.4-0.4c-0.1-0.2,0,0,0-0.1
							c0.1,0.2,0.2,0.4,0.4,0.5c-0.1,0-0.1-0.1-0.1-0.1c0.1,0.1,0.2,0.1,0.2,0.2c-0.1,0-0.4-0.1-0.5-0.5c-0.1-0.2-0.2-0.6-0.2-0.8
							c0-0.1,0-0.2,0-0.1l0,0.1c0,0.1,0-0.2,0-0.1c0-0.2,0-0.5,0.2-0.7l0,0c0,0-0.1,0.1-0.1,0.2c0-0.1,0.2-0.4,0.4-0.5l-0.1,0.1
							c0.1-0.1,0.4-0.2,0.6-0.4c-0.1,0,0,0-0.2,0c0.1,0-0.1,0-0.2,0.1c-0.1,0.1-0.2,0.2-0.1,0.1c-0.1,0.1-0.2,0.2-0.4,0.5
							c0,0,0-0.1,0,0.1l0,0l0,0l0,0l0,0l0-0.1c0,0.1-0.1,0.5,0,0.6c0,0.1,0,0,0,0l0,0.1c0,0,0.1,0.4,0,0c0,0.1,0,0.1,0.1,0.2
							c0,0.1,0.2,0.4,0.2,0.5c0.1,0.1,0.2,0.2,0.1,0.1c0.1,0.1,0.2,0.1,0.4,0.2l0,0c0.4,0.1,0.9,0.1,1.3-0.2
							c0.1-0.1,0.2-0.2,0.4-0.4l0,0c0.1-0.1,0.2-0.5,0.2-0.6c0.1-0.2,0-0.9-0.1-1.2l0,0c-0.1-0.2-0.1-0.4-0.2-0.6l0,0
							c-0.1-0.2-0.2-0.5-0.5-0.8l0.1,0.1c-0.2-0.4-0.6-0.7-0.9-1c-0.1-0.1-0.1-0.1-0.2-0.1l0,0l0,0c0,0-0.1,0-0.1-0.1
							c0,0,0.1,0,0.1,0.1c-0.1,0-0.2-0.1-0.2-0.1l0,0l0,0c-0.1,0-0.1,0,0,0l-0.1,0c-0.1,0-0.4,0-0.5-0.1c-0.1,0-0.6,0.1-0.6,0.1l0,0
							c-0.1,0-0.2,0.1-0.4,0.2l-0.1,0c-0.1,0.1-0.1,0.1-0.1,0.2c-0.1,0.1-0.1,0.2-0.1,0c-0.2,0.4-0.1,0.2-0.2,0.6l0,0
							c0,0.1,0,0.4,0,0.4c0,0.2,0.1,1.3,0.2,2c0-0.1,0,0.4,0.1,0.4c0,0,0,0.1,0,0c0,0.4,0,0.5,0,0.7c0,0,0-0.1,0,0l0,0.1
							c0,0,0,0,0-0.1c0,0.4,0,0.4,0.1,0.5c0,0.1-0.1,0.2-0.1,0.4c0,0-0.1,0.1,0-0.1c0,0.1-0.2,0.7-0.2,0.7s-0.1,0.1-0.1,0.2
							c-0.1,0.2-0.1,0.2-0.4,0.5l0,0c0,0.1-0.1,0.1-0.4,0.2l0,0c-0.5,0.2-0.2,0.1-0.7,0.2l0,0c0,0.1-0.5,0-0.7,0l0.1,0
							c-0.1,0-0.5-0.1-0.6-0.2c0,0,0,0,0.1,0c-0.4-0.1-0.1,0-0.4-0.1c0,0,0.1,0-0.1-0.1c-0.1,0-0.6-0.2-0.7-0.5c0,0,0.1,0.1,0,0
							c-0.1-0.1-0.4-0.5-0.5-0.6l0,0c-0.1-0.1-0.4-0.5-0.4-0.5c0-0.1-0.5-1-0.4-1c0-0.1-0.1-0.4-0.1-0.5l0,0c0-0.4-0.1-0.5-0.1-0.6
							c0-0.1,0,0,0,0c0-0.5,0-0.5,0-0.9l0,0c0-0.1,0.2-0.7,0.4-1.1l0,0c0.1-0.5,0.7-1.1,0.7-1.3c0-0.1,0.1-0.2,0.1-0.4
							c-0.2,0.4,0-0.1-0.1,0c0.1-0.1,0.4-0.4,0.2-0.1l0,0c0,0.1,0.4-0.5,0.5-0.4c0.6-0.7,1.3-1.2,2.1-1.5l-0.1,0l0.2-0.1
							c0.1,0,0.1,0-0.1,0.1c0.1,0,0.4-0.1,0.4-0.1c0.4-0.1-0.1,0.1,0,0.1l0.1-0.1l0,0c0.1-0.1,0.1-0.1,0.4-0.1c0.1,0,0.1,0,0.1,0
							s0,0,0.1,0l0.4-0.1l-0.1,0c0.1,0,0.4,0,0.1-0.1c0.2,0,1.4,0,1.5,0c0.2,0,0.5,0,0.7,0.1c-0.1,0-0.1-0.1,0.1,0
							c-0.1,0.1,0.4,0.2,0.6,0.4c-0.1-0.1,0.6,0.2,0.5,0.1c0.2,0.1,0,0,0.1,0.1c0.5,0.1,0.9,0.5,1.4,0.8c0,0,0-0.1,0.1,0
							s0.1,0.1,0.2,0.2c0.1,0.1,0.1,0,0.2,0.1c0,0,0-0.1,0,0c0.8,0.8,1.8,1.7,2.4,2.7c-0.1-0.1,0-0.1,0.1,0c0-0.1,0,0,0,0l0.2,0.5
							c0.1,0,0.2,0.5,0.4,0.5l-0.1-0.1c0.2,0.1,0-0.4,0.1-0.4c-0.2-0.1-0.2-0.6-0.6-0.8c0-0.1,0.1,0,0.1,0c-0.1,0-0.1-0.1-0.4-0.4
							l0,0c-0.4-0.5-0.6-0.7-1.1-1.3l0,0.1c-0.1-0.1-0.1-0.1-0.1-0.2c-0.1-0.1,0.2,0.4,0.1,0.2c0-0.2-0.7-0.7-0.8-1
							c-0.2-0.1,0,0.1-0.1-0.1l0-0.1l-0.1,0c-0.1-0.1-0.1-0.2-0.1-0.2l0.1,0.1c-0.1-0.1-0.5-0.4-0.5-0.4l0.1,0.1
							c-0.6-0.4-1.2-0.8-1.8-1l0,0c-0.5-0.1-0.4-0.2-0.8-0.4l0,0c-0.1,0-0.2,0-0.4-0.1c0.1,0-0.2-0.1,0-0.1c-0.5,0-0.2,0-0.6,0
							l-0.1,0c-0.1,0-0.1,0-0.4,0c0.2,0-0.1,0,0.1-0.1c-0.6-0.1-0.8,0.1-1.1,0c-0.2,0.1,0.5,0,0.4,0c0.1,0-0.2,0.1-0.4,0.1
							c-0.1,0-0.4-0.1-0.7,0l0.1,0c-0.1,0-0.4,0.1-0.5,0.1c-0.1,0.1-0.2,0.1-0.2,0.1l0.4-0.1c-0.2,0.1-0.4,0.2-0.7,0.4
							c0,0,0.1-0.1,0.2-0.1c-0.1,0-0.2,0.1-0.4,0.1c0-0.1,0.5-0.2,0.7-0.4c-0.1,0-0.5,0.2-0.4,0.1c-0.1,0.1-0.4,0.1-0.6,0.4l0,0
							c0,0-0.1,0.1-0.2,0.1l0.1-0.1c-0.2,0.1-0.5,0.2-0.6,0.4c0.4-0.2,0.1,0,0.4-0.1c-0.5,0.4-0.4,0.1-0.8,0.6
							c0.1-0.1,0.2-0.2,0.2-0.1c-0.1,0.1-0.2,0.2-0.4,0.2c-0.4,0.4,0.1,0,0,0.1c-0.1,0.1-0.1,0.1-0.2,0.4l0,0
							c-0.4,0.4,0,0.1-0.4,0.5l0.1-0.2c0,0.1-0.1,0.1-0.1,0.2l0-0.1c-0.1,0.2-0.2,0.2-0.4,0.5c0,0,0,0.1-0.1,0.2
							c-0.1,0.1,0-0.1-0.1,0.2c0-0.1,0-0.1,0.1-0.2l0-0.1c-0.1,0.1-0.2,0.4-0.2,0.5c0,0,0-0.1,0.1-0.1c-0.1,0.1-0.1,0.2-0.1,0.5l0,0
							c0,0.1,0,0.1-0.1,0.2c0,0,0,0,0-0.2c0,0.1-0.1,0.2-0.1,0.5c0,0-0.1,0.2-0.1,0.1c-0.1,0.2-0.1,0.6-0.2,0.9c0,0,0,0,0,0.1
							c0,0.4-0.1,0.6-0.1,0.9l0,0.2c0,0.2,0-0.2,0.1,0.2c0,0.4,0,0.1,0,0.2c0,0.1,0.1,0.5,0.2,0.7
							C117.3,187.2,117.3,187.1,117.3,186.9z M119.1,189.8c-0.1,0-0.2-0.1-0.2-0.1C119,189.7,119,189.8,119.1,189.8z M122.8,187.6
							c0,0,0,0.1,0,0.2C122.7,187.7,122.8,187.7,122.8,187.6z M124.1,187.1L124.1,187.1C124.3,187.2,124.3,187.1,124.1,187.1z
							 M124,186.7L124,186.7c0,0.1,0,0.1,0.1,0.1C124,186.9,124,186.9,124,186.7z M122.3,180L122.3,180
							C122.4,180,122.3,180,122.3,180z"/>
						<path class="st6" d="M122.7,188.2L122.7,188.2C122.7,188.3,122.7,188.3,122.7,188.2z"/>
						<path class="st6" d="M117.1,184.8L117.1,184.8L117.1,184.8L117.1,184.8z"/>
						<path class="st6" d="M126.6,185.4L126.6,185.4C126.6,185.3,126.6,185.3,126.6,185.4z"/>
						<path class="st6" d="M124.4,185.2l-0.1,0.1C124.3,185.3,124.3,185.3,124.4,185.2C124.4,185.3,124.3,185.3,124.4,185.2z"/>
						<path class="st6" d="M125.9,185.3C126,185.3,126,185.3,125.9,185.3L125.9,185.3C125.9,185.3,125.9,185.2,125.9,185.3z"/>
						<path class="st6" d="M124.5,185.2c0,0,0.1-0.1,0.2-0.1l0,0C124.9,185.1,124.6,185.1,124.5,185.2z"/>
						<path class="st6" d="M124.9,185.1l0.1,0L124.9,185.1z"/>
						<path class="st6" d="M123.9,186.4L123.9,186.4C123.9,186.3,124,186.7,123.9,186.4z"/>
						<path class="st6" d="M124.6,185.2L124.6,185.2L124.6,185.2L124.6,185.2z"/>
						<path class="st6" d="M124,185.9c0-0.1,0-0.1,0.1-0.2l0,0C124,185.8,124,185.9,124,185.9z"/>
						<path class="st6" d="M124,185.7c0-0.1,0.1-0.1,0.1-0.1C124.1,185.5,124.1,185.7,124,185.7z"/>
						<path class="st6" d="M124.4,185.3L124.4,185.3c-0.1,0.1-0.1,0.1-0.1,0.1C124.3,185.4,124.4,185.3,124.4,185.3z"/>
						<path class="st6" d="M125.2,187.7c0.1,0,0.1,0,0.2,0C125.4,187.7,125.4,187.7,125.2,187.7L125.2,187.7z"/>
						<path class="st6" d="M124.6,187.3C124.6,187.5,124.6,187.5,124.6,187.3L124.6,187.3L124.6,187.3z"/>
						<path class="st6" d="M125.2,187.6C125.2,187.6,125.6,187.6,125.2,187.6C125.2,187.6,125,187.6,125.2,187.6z"/>
						<polygon class="st6" points="126.5,185.1 126.6,185.2 126.6,185.1 						"/>
						<path class="st6" d="M124.5,182.9c0.2,0.1,0.1,0,0.2,0.1c0.1,0-0.1-0.1-0.1-0.1C124.5,182.8,124.4,182.8,124.5,182.9z"/>
						<path class="st6" d="M124.6,182.9C124.8,182.9,124.8,182.9,124.6,182.9C124.8,182.9,124.8,182.9,124.6,182.9z"/>
						<polygon class="st6" points="130.9,185.1 131,185.3 131,185.2 						"/>
						<path class="st6" d="M131.3,185.3L131.3,185.3l0.1,0.1C131.3,185.5,131.3,185.5,131.3,185.3z"/>
						<path class="st6" d="M119.6,190.2L119.6,190.2c0,0,0,0-0.1-0.1L119.6,190.2z"/>
						<polygon class="st6" points="117.7,188.4 117.7,188.4 117.7,188.3 						"/>
						<path class="st6" d="M117,186.3c0,0.1,0,0.2,0,0.2C117,186.3,117,186.2,117,186.3z"/>
					</g>
				</g>
			</g>
		</g>
		<g>
			<path d="M143.4,205.5c-0.2,0.5-1,0.4-1.2-0.1c-0.2-0.5,0.1-1.4-0.6-1.4c-1.3,0-1.5,1.2-1.6,2.5l0,2l1.4,0l0,0.1l-1.4,0l0,7.1
				c0,1.4,0.1,2.1,1.2,2.1l0,0.1l-3.9,0v0c1.1,0,1.2-0.7,1.2-2.1c0-6.3,0-6.8,0-7.1l-1.2,0l0-0.1l1.2,0c0-1.2,0-1.9,0-1.9
				c0-2.3,1.6-2.7,2.9-2.7c0.7,0,1.3,0.2,1.4,0.2C143.5,204.4,143.6,205.1,143.4,205.5z"/>
			<path d="M151.6,209.3c0,0.6-0.7,0.8-1.2,0.6c-0.5-0.4-0.5-1-1.2-0.7c-0.7,0.2-1.4,1.3-1.8,2.4l0,4.3c0,1.4,0.1,2.1,1.2,2.1l0,0.1
				l-4,0l0-0.1c1.1,0,1.2-0.7,1.2-2.1l0-5c0-1.4-0.1-2.1-1.2-2.1l0-0.1l3.1,0l0,0.1c-0.1,0.1-0.4,0.8-0.4,2.6c0.5-1.8,2-2.8,2.7-3
				C151,208.3,151.6,208.7,151.6,209.3z"/>
			<path d="M156.4,211.7c-0.1,0.6-0.1,1.3-0.1,1.9c0.2,2.9,1.8,4.6,3.8,4.5c1.2,0,2.3-0.6,3-1.3l0,0.2c-0.7,0.6-1.5,1.1-3,1.2
				c-2.7,0.1-5.3-1.4-5.6-4.5c-0.2-3,2-5.1,4.7-5.2c2.3-0.1,4,1.1,4.4,3.2L156.4,211.7z M156.4,211.6l5.6,0
				c-0.1-1.5-0.7-3.1-2.7-3.1C157.8,208.5,156.8,209.8,156.4,211.6z"/>
			<path d="M173.9,215.8c0,1.7-1.3,2.5-3.6,2.5c-1.8,0-2.8-1-3.2-1.6c-0.5-0.6-0.4-1.3,0.1-1.5c0.5-0.2,1.1,0.2,0.9,0.7
				c0,0.6-0.7,0.9-0.1,1.5c0.4,0.5,0.9,0.8,2.1,0.8s2.1-0.8,2.1-1.8c0-2.4-5.1-2.4-5.1-5.7c0-1.4,1.2-2.3,3.2-2.2
				c1.7,0,2.4,0.8,2.7,1.3c0.5,0.6,0.4,1.3-0.1,1.5c-0.5,0.2-1.1-0.2-0.9-0.7c0-0.6,0.6-0.9,0.1-1.4c-0.4-0.4-0.7-0.6-1.8-0.6
				c-1.2,0-1.9,0.8-1.9,1.8C168.7,212.7,173.9,213,173.9,215.8z"/>
			<path d="M187.5,218.1L187.5,218.1l-4,0.1l0-0.1c1.1,0,1.2-0.7,1.2-2.1l0-4.5c0-1.3-0.2-2.9-2.1-2.9c-0.8,0-2,0.7-2.5,1.9l0,5.5
				c0,1.4,0.1,2.1,1.2,2.1l0,0.1l-4,0l0-0.1c1.1,0,1.2-0.7,1.2-2.1l0-9.7c0-1.4-0.1-2.1-1.2-2.1l0-0.1l3.1,0l0,0.1
				c-0.2,0.1-0.4,0.9-0.4,2.8l0,3.3c0.5-0.9,1.4-1.8,2.9-1.8c1.9,0,3.3,0.8,3.3,3.1l0,4.4C186.3,217.4,186.4,218.1,187.5,218.1z"/>
		</g>
		<g>
			<path d="M70.9,217.5L70.9,217.5c-0.2,0.2-0.5,0.4-1,0.4c-1.1,0-2.1-0.2-2.2-1.8c-0.5,0.8-1.1,1.4-1.9,1.7
				c-1.4,0.5-3.4,0.1-3.3-1.9c0.1-2,2.9-2.2,4.2-2.7c0.4-0.1,0.7-0.2,1.1-0.5c0-0.6,0-1.2,0-1.7c0-1.7-0.2-2.9-1.6-2.9
				c-1.2,0-1.9,0.3-2.1,1.1c-0.2,0.6,0.2,0.8,0.3,1.4c0.1,0.5-0.4,0.9-0.8,0.8c-0.5-0.1-0.7-0.8-0.5-1.5c0.4-0.7,1.1-1.9,3.1-1.9
				c1.8,0,3.1,1,3.1,2.9c0,1.9,0,4.9,0,4.9c0,1.3,0,2,0.9,2C70.5,217.7,70.8,217.6,70.9,217.5z M67.7,215.9c0-0.1,0-0.2,0-0.4
				c0,0,0-1.4,0-2.8c-0.2,0.1-0.6,0.2-1,0.5c-1,0.4-2.7,0.5-3,2.2c-0.2,2,1.2,2.6,2.4,2C66.9,217.1,67.4,216.6,67.7,215.9z"/>
			<path d="M80.1,216.6l0,0.2c-0.6,0.5-1.4,1.1-2.6,1.1c-2.7,0.1-5.2-1.3-5.3-4.7c-0.1-3.2,1.8-5,4.5-5.2c1.9-0.2,3.3,1,3.6,1.7
				c0.4,0.7,0.1,1.4-0.5,1.5c-0.5,0.1-0.9-0.4-0.8-0.8c0.1-0.6,0.7-0.7,0.2-1.3c-0.4-0.6-1.4-1-2.6-1c-2,0.1-3,2.4-2.9,5.1
				s1.6,4.5,3.8,4.5C78.4,217.9,79.5,217.2,80.1,216.6z"/>
			<path d="M90.8,216.6l0,0.2c-0.6,0.5-1.4,1.1-2.6,1.1c-2.7,0.1-5.2-1.3-5.3-4.7c-0.1-3.2,1.8-5,4.5-5.2c1.9-0.2,3.3,1,3.6,1.7
				c0.4,0.7,0.1,1.4-0.5,1.5c-0.5,0.1-0.9-0.4-0.8-0.8c0.1-0.6,0.7-0.7,0.2-1.3c-0.4-0.6-1.4-1-2.6-1c-2,0.1-3,2.4-2.9,5.1
				s1.6,4.5,3.8,4.5C89.1,217.9,90.3,217.2,90.8,216.6z"/>
			<path d="M96.9,217.7L96.9,217.7l-4,0.1l0-0.1c1.1,0,1.2-0.7,1.2-2.1l0-5.1c0-1.4-0.1-2.1-1.2-2.1l0-0.1l3.1,0l0,0.1
				c-0.2,0.1-0.4,0.9-0.4,2.8l0,4.3C95.7,217,95.9,217.7,96.9,217.7z M94,205.2c0-0.6,0.5-1.1,1.1-1.1c0.6,0,1.1,0.5,1.1,1.1
				c0,0.6-0.5,1.1-1.1,1.1C94.5,206.3,94,205.8,94,205.2z"/>
			<path d="M108.6,212.7c0.1,2.6-1.6,5.1-4.3,5.3c-2.7,0.2-5.3-1.4-5.6-4.4c-0.1-3,1.8-5.2,4.7-5.3
				C106.1,208,108.5,209.8,108.6,212.7z M106.9,212.8c-0.1-2.4-1.5-4.6-3.4-4.5c-2.1,0.1-3.2,2.2-3,5.2c0.2,3,1.8,4.8,3.9,4.5
				C106,217.6,107,215.4,106.9,212.8z"/>
		</g>
		<g>
			<path class="st6" d="M111.6,228.5l-20.8,0l-20.8-0.1l-10.3,0l-5.2,0l-2.6,0l-1.3,0c-0.4,0-0.9,0-1.3-0.1c-0.9-0.2-1.7-1-2-1.8
				c-0.1-0.5-0.2-1-0.2-1.3l0-1.3l0-5.2l0-10.3l0-10.3c0-0.9,0.4-1.9,1.1-2.5c0.4-0.4,0.8-0.6,1.2-0.7c0.5-0.1,1-0.1,1.3-0.1l5.2,0
				l20.8,0.1l20.8,0.1l20.8,0.2l-20.8,0L76.7,195L56,194.9l-5.2,0c-0.5,0-0.8,0-1.2,0.1c-0.4,0.1-0.7,0.4-1.1,0.6
				c-0.6,0.5-0.8,1.3-0.8,2.1l0,10.3l0,10.3l0,5.2c0,0.8-0.1,1.8,0.1,2.5c0.2,0.7,0.9,1.3,1.7,1.6c0.4,0.1,0.7,0.1,1.2,0.1l1.3,0
				l2.6,0l5.2,0l10.3,0l20.8,0.1L111.6,228.5z"/>
		</g>
		<g>
			<path class="st6" d="M134.6,195.2l21.8,0l21.8,0.1l21.8,0.1c0.5,0,0.9,0,1.4,0.1c0.5,0.1,0.9,0.4,1.3,0.7
				c0.7,0.6,1.1,1.7,1.1,2.6l0,5.5l0,10.9l0,10.9c0,0.9-0.5,2-1.3,2.6c-0.4,0.2-0.8,0.5-1.4,0.6c-0.5,0-0.9,0-1.4,0l-5.5,0
				l-21.8-0.1l-21.8-0.1l-21.8-0.2l21.8,0l21.8,0.1l21.8,0.1l5.5,0c0.5,0,0.9,0,1.3,0s0.8-0.2,1.2-0.5c0.7-0.5,1.1-1.3,1.1-2.1
				l0-10.9l0-10.9l0-5.5c0.1-0.8-0.2-1.7-0.8-2.3c-0.4-0.2-0.7-0.5-1.1-0.6s-0.8-0.1-1.3-0.1l-21.8-0.1l-21.8-0.1L134.6,195.2z"/>
		</g>
	</g>
	<g>
		<path class="st7" d="M65.2,475.6c0,2.6-2.4,3.8-4.6,3.8l-6.7,0l0-0.2c1.2,0,1.3-0.7,1.4-2.3l0-10c0-1.6-0.1-2.3-1.4-2.3l0-0.1
			l5.9,0c2.1,0,4.4,1.1,4.4,3.7c0,2.2-1.6,3.3-3.5,3.6C62.9,471.8,65.2,472.8,65.2,475.6z M58.4,464.6c-1.2,0-1.4,0.7-1.4,2.3l0,4.8
			c0.7,0,1.7,0,2.3,0c1.6,0,2.9-0.9,3-3.6c0-2.6-1.7-3.6-2.9-3.6L58.4,464.6L58.4,464.6z M63.2,475.6c0-2.6-1.8-3.7-3-3.7
			c0,0-2.9,0-3.2,0l0,4.9c0,1.6,0.1,2.3,1.4,2.3c0.6,0,1.4,0,1.8,0C61.4,479.1,63.2,478.2,63.2,475.6z"/>
		<path class="st7" d="M79.6,464.6l0,0.1c-1.2,0-1.4,0.7-1.4,2.3l0,7.8c0,3.7-2.4,4.8-4.9,4.8c-2.3,0-5.4-1.2-5.3-4.9l0-7.8
			c0-1.6-0.1-2.3-1.4-2.3l0-0.1l4.6,0l0,0.1c-1.2,0-1.3,0.7-1.4,2.3l0,8c0,2.7,1.5,4.4,3.4,4.4c3.3,0,4.7-1.9,4.8-4.6l0-7.8
			c0-1.6-0.1-2.3-1.4-2.3l0-0.1L79.6,464.6L79.6,464.6z"/>
		<path class="st7" d="M94.1,467.8l-0.1,0c-0.6-1.4-1.6-3.1-3.7-3.1l-0.3,0c-1.2,0-1.4,0.7-1.4,2.3l0,10c0,1.6,0.1,2.3,1.4,2.3
			l0,0.1l-4.5,0l0-0.2c1.2,0,1.4-0.7,1.4-2.3l0-10c0-1.6-0.1-2.3-1.4-2.3l-0.3,0c-2.1,0-3.1,1.7-3.7,3l-0.1,0l0.4-3.2l11.9,0.1
			L94.1,467.8z"/>
		<path class="st7" d="M108.4,467.9l-0.1,0c-0.6-1.4-1.6-3.1-3.7-3.1l-0.3,0c-1.2,0-1.4,0.7-1.4,2.3l0,10c0,1.6,0.1,2.3,1.4,2.3
			l0,0.1l-4.5,0l0-0.2c1.2,0,1.4-0.7,1.4-2.3l0-10c0-1.6-0.1-2.3-1.4-2.3l-0.3,0c-2.1,0-3.1,1.7-3.7,3l-0.1,0l0.4-3.2l11.9,0.1
			L108.4,467.9z"/>
		<path class="st7" d="M121.4,475.9l-0.9,3.6l-10.3,0l0-0.1c1.2,0,1.4-0.7,1.4-2.3l0-10c0-1.6-0.1-2.3-1.4-2.3l0-0.1l9.6,0l0.7,2.9
			l-0.1,0c-0.6-1.4-1.8-2.8-3.9-2.9l-1.8,0c-1.2,0-1.3,0.7-1.4,2.3l0,4.9l1.6,0c1.7,0,2.9-1.1,3-2.6l0.1,0l0,5.3l-0.1,0
			c0-1.4-1.2-2.6-2.9-2.6l-1.6,0l0,4.8c0,1.6,0.1,2.3,1.4,2.3l2.4,0c2.1,0,3.5-2.1,4.1-3.5l0.1,0L121.4,475.9z"/>
		<path class="st7" d="M137,479.5l0,0.1c0,0-1.2,0-2.3,0c-0.9,0-1.8-0.2-2.4-1c-1.9-2.1-2.1-6.3-4.3-6.4c0,0-1.7,0-1.9,0l0,4.9
			c0,1.6,0.1,2.3,1.4,2.3l0,0.1l-4.5,0l0-0.1c1.2,0,1.3-0.7,1.4-2.3l0-10c0-1.6-0.1-2.3-1.4-2.3l0-0.1l5.9,0c2.1,0,4.4,1.1,4.4,3.8
			c0,2.2-1.6,3.4-3.5,3.7c2.1,0.6,2.6,3.2,3.9,5.2C134.6,478.5,135.7,479.5,137,479.5z M128.3,472.2c1.4,0,3.1-0.9,3.1-3.7
			c0-2.6-1.9-3.7-3-3.7l-0.6,0c-1.2,0-1.3,0.7-1.4,2.3l0,4.9C126.9,472.2,127.7,472.2,128.3,472.2z"/>
		<path class="st7" d="M154.1,476c0,2.6-2.4,3.8-4.6,3.8l-6.7,0l0-0.2c1.2,0,1.3-0.7,1.4-2.3l0-10c0-1.6-0.1-2.3-1.4-2.3l0-0.1l6,0
			c2.1,0,4.4,1.1,4.4,3.7c0,2.2-1.6,3.3-3.5,3.6C151.7,472.2,154.1,473.2,154.1,476z M147.2,465c-1.2,0-1.4,0.7-1.4,2.3l0,4.8
			c0.7,0,1.7,0,2.3,0c1.6,0,2.9-0.9,3-3.6c0-2.6-1.7-3.6-2.9-3.6L147.2,465L147.2,465z M152,476c0-2.6-1.8-3.7-3-3.7
			c0,0-2.9,0-3.2,0l0,4.9c0,1.6,0.1,2.3,1.4,2.3c0.6,0,1.4,0,1.8,0C150.3,479.5,152,478.6,152,476z"/>
		<path class="st7" d="M167.1,476.1l-0.9,3.6l-10.3,0l0-0.1c1.2,0,1.4-0.7,1.4-2.3l0-10c0-1.6-0.1-2.3-1.4-2.3l0-0.1l9.6,0l0.7,2.9
			l-0.1,0c-0.6-1.4-1.8-2.8-3.9-2.9l-1.8,0c-1.2,0-1.3,0.7-1.4,2.3l0,4.9l1.6,0c1.7,0,2.9-1.1,3-2.6l0.1,0l0,5.3l-0.1,0
			c0-1.4-1.2-2.6-2.9-2.6l-1.6,0l0,4.8c0,1.6,0.1,2.3,1.4,2.3l2.4,0c2.1,0,3.5-2.1,4.1-3.5l0.1,0L167.1,476.1z"/>
		<path class="st7" d="M179.8,476.2l-0.9,3.6l-10.3,0l0-0.1c1.2,0,1.4-0.7,1.4-2.3l0-10c0-1.6-0.1-2.3-1.4-2.3l0-0.1l9.6,0l0.7,2.9
			l-0.1,0c-0.6-1.4-1.8-2.8-3.9-2.9l-1.8,0c-1.2,0-1.3,0.7-1.4,2.3l0,4.9l1.6,0c1.7,0,2.9-1.1,3-2.6l0.1,0l0,5.3l-0.1,0
			c0-1.4-1.2-2.6-2.9-2.6l-1.6,0l0,4.8c0,1.6,0.1,2.3,1.4,2.3l2.4,0c2.1,0,3.5-2.1,4.1-3.5l0.1,0L179.8,476.2z"/>
		<path class="st7" d="M195.2,479.7l0,0.1c0,0-1.2,0-2.3,0c-0.9,0-1.8-0.2-2.4-1c-1.9-2.1-2.1-6.3-4.3-6.4c0,0-1.7,0-1.9,0l0,4.9
			c0,1.6,0.1,2.3,1.4,2.3l0,0.1l-4.5,0l0-0.1c1.2,0,1.3-0.7,1.4-2.3l0-10c0-1.6-0.1-2.3-1.4-2.3l0-0.1l5.9,0c2.1,0,4.4,1.1,4.4,3.8
			c0,2.2-1.6,3.4-3.5,3.7c2.1,0.6,2.6,3.2,3.9,5.2C192.8,478.8,194,479.7,195.2,479.7z M186.5,472.4c1.4,0,3.1-0.9,3.1-3.7
			c0-2.6-1.9-3.7-3-3.7l-0.6,0c-1.2,0-1.3,0.7-1.4,2.3l0,4.9C185.3,472.4,186,472.4,186.5,472.4z"/>
	</g>
	<g>
		<path class="st7" d="M107.4,489.2l-22.7,0L62,489.1L39.3,489c-1,0-1.9,0-2.9,0c-1-0.1-1.9-0.7-2.5-1.4c-0.3-0.4-0.5-0.8-0.6-1.3
			s-0.1-0.9-0.1-1.4l0-2.6l0-10.4l0-10.4l0-2.6c0-0.5,0-0.9,0.1-1.4c0.1-0.5,0.4-0.9,0.6-1.3c0.6-0.8,1.5-1.3,2.6-1.4
			c1-0.1,1.9,0,2.9,0l22.7,0.1l22.7,0.1l22.7,0.2l-22.7,0l-22.7-0.1L39.4,455c-0.9,0-1.9,0-2.8,0c-0.9,0.1-1.7,0.6-2.2,1.2
			c-0.3,0.4-0.4,0.7-0.5,1.1s-0.1,0.8-0.1,1.3l0,2.6l0,10.4l0,10.4l0,2.6c0,0.5,0,0.8,0.1,1.3c0.1,0.4,0.3,0.8,0.5,1.1
			c0.5,0.7,1.3,1.1,2.2,1.2s1.9,0,2.8,0l22.7,0.1l22.7,0.1L107.4,489.2z"/>
	</g>
	<g>
		<path class="st7" d="M128.6,455.5l26,0l26,0.1l26,0.1l3.2,0l1.7,0c0.5,0,1.1,0,1.7,0.1c1.1,0.2,2.2,1.1,2.5,2
			c0.3,0.5,0.4,1.1,0.2,1.5l0,1.5l-0.1,12l-0.1,12l0,1.5c0,0.5-0.1,1.1-0.3,1.5c-0.5,0.9-1.4,1.8-2.6,2c-0.6,0.1-1.1,0.1-1.7,0.1
			l-1.7,0l-3.2,0l-26-0.1l-26-0.1l-26-0.2l26,0l26,0.1l26,0.1l3.2,0l1.7,0c0.5,0,1,0,1.5-0.1c1-0.2,1.8-0.8,2.2-1.7
			c0.3-0.5,0.3-0.8,0.3-1.4l0-1.5l0.1-12l0.1-12l0-1.5c0-0.5,0-0.9-0.2-1.4c-0.4-0.8-1.3-1.5-2.2-1.8c-0.5-0.1-1-0.1-1.5-0.1l-1.7,0
			l-3.2,0l-26-0.1l-26-0.1L128.6,455.5z"/>
	</g>
	<circle class="st8" cx="121.5" cy="156.4" r="10.9"/>
	<g>
		<path class="st9" d="M117.5,146.8c1,2.6,1.8,4.8,2.5,6.5c2.8,7.3,10.9,11.1,0-28.3c-10.9-39.5-14.9-29.7-16.8-52.4
			s-4.3-47.8-9.6-63s-20-8.4-24.6,0c0,0,10.5-6.5,13.5,1.1c2.9,7.6,1.4,6.6,3.2,15.5c1.8,8.9,6.8,18.6,6.9,24.3s-0.3,9.3,1.1,13.7
			c2.9,9.2,7.1,26.2,7.1,33.2s2.8,17.4,5.9,23.1c1.4,2.5,3.6,7.8,5.9,13.5"/>
		<path class="st9" d="M68.5,10c0,0-11.3,1-9.4,4.6S65.5,13.3,68.5,10z"/>
		<path class="st9" d="M68.1,10.4c0,0,8.6-8.2,5.3-9.9S68.7,5.8,68.1,10.4z"/>
		<g>
			<path class="st10" d="M68.2,9.6c1-0.1,1.9-0.1,2.8,0.1c0.9,0.2,1.8,0.7,2.5,1.3c-0.7-0.6-1.6-0.9-2.5-1c-0.9,0-1.8,0.1-2.6,0.3
				l0,0c-0.2,0.1-0.4,0-0.5-0.2C67.9,10,68,9.6,68.2,9.6L68.2,9.6z"/>
		</g>
	</g>
</g>
</svg>
