<?xml version="1.0" encoding="utf-8"?>
<!-- Generator: Adobe Illustrator 22.1.0, SVG Export Plug-In . SVG Version: 6.00 Build 0)  -->
<svg version="1.1" id="Layer_1" xmlns="http://www.w3.org/2000/svg" xmlns:xlink="http://www.w3.org/1999/xlink" x="0px" y="0px"
	 viewBox="0 0 224.1 450.8" style="enable-background:new 0 0 224.1 450.8;" xml:space="preserve">
<style type="text/css">
	.st0{fill:url(#SVGID_1_);stroke:#141414;stroke-miterlimit:10;}
	.st1{fill:#141414;}
	.st2{fill:url(#SVGID_2_);}
	.st3{fill:url(#SVGID_3_);}
	.st4{fill:#FFFFFF;}
	.st5{fill:none;stroke:#7E7E7E;stroke-width:0.5;stroke-miterlimit:10;}
	.st6{fill:#7E7E7E;}
	.st7{fill:#DEECF9;stroke:#FFFFFF;stroke-width:0.25;stroke-miterlimit:10;}
	.st8{fill:#010101;}
	.st9{fill:#A5A4A4;}
	.st10{fill:#2C3178;}
</style>
<g>
	
		<linearGradient id="SVGID_1_" gradientUnits="userSpaceOnUse" x1="112.0498" y1="271.6805" x2="112.0498" y2="-64.785" gradientTransform="matrix(1 0 0 -1 0 385.5)">
		<stop  offset="0.2655" style="stop-color:#29377C"/>
		<stop  offset="0.3621" style="stop-color:#2C4288"/>
		<stop  offset="0.6407" style="stop-color:#4464A6"/>
		<stop  offset="0.8516" style="stop-color:#547DBC"/>
		<stop  offset="0.9688" style="stop-color:#5B88C6"/>
	</linearGradient>
	<path class="st0" d="M208.8,450.3H15.3c-8.2,0-14.8-7-14.8-15.4V129.3c0-8.6,6.7-15.4,14.8-15.4h193.4c8.2,0,14.8,7,14.8,15.4
		v305.6C223.6,443.3,216.9,450.3,208.8,450.3z"/>
	<path class="st1" d="M40.6,348.4c-2.2-1.7-2.9-4.4-3.4-5.6c-0.5-1.2-0.2-6.1,5.8-5.2c6.1,0.8,4.2,5.9,3.9,7.2s1.7,2.8,5.9,2.3
		s8.1,37.1,15.3,45.8c0,0,5,7.4,5.9,8c0,0-37.6,11.1-52.6-1.3c0,0,0.7-3.9,5.3-9.9s9.9-17.1,9.4-23.8c-0.5-6.7,1.3-13.8,2.7-15.2
		c0,0,0.4-0.8,2.3-0.8C43,349.7,40.6,348.4,40.6,348.4z"/>
	<path class="st1" d="M129.9,353c0.5-1.7,0.8-4.3,0.4-4.9c-0.4-0.5-2.6,0.7-3.4-0.8c-0.8-1.5-5.5-5.6-0.8-9.5s8.1,0,8.5,2.2
		s-0.7,4.8,0.3,5.1c1,0.3,2.2-1,4.5,4.7c2.4,5.8,14.9,33,17.2,49.9c0,0-33.4,5-38.3,1.4c0,0,1.5-27.1,5.5-34.9
		C127.8,358.7,129.9,353,129.9,353z"/>
	<path class="st1" d="M117.8,376.1c-2.9,0.1-6.1,1.5-6.4,4.1c-0.3,2.6-2.3,1.8-2.3,4.5c0,2.7,0.1,5.8,2.2,6.4c2.1,0.6,4.2-1,5.6-0.9
		c1.4,0.1,40.7-0.7,42.9,1.1s5.9,6.4,6.6,8c0,0,1.7-21.8,1.5-24.2l-1.5-1.1c0,0-19.5,0.8-21,2C143.7,377.2,117.8,376.1,117.8,376.1z
		"/>
	
		<linearGradient id="SVGID_2_" gradientUnits="userSpaceOnUse" x1="115.5925" y1="122.9572" x2="90.2661" y2="122.9572" gradientTransform="matrix(1 0 0 -1 0 385.5)">
		<stop  offset="0" style="stop-color:#010101"/>
		<stop  offset="0.4988" style="stop-color:#0A0A0B"/>
		<stop  offset="0.6785" style="stop-color:#1F1E1F"/>
		<stop  offset="0.8065" style="stop-color:#39393B"/>
		<stop  offset="0.9094" style="stop-color:#4D4D4F"/>
		<stop  offset="0.9688" style="stop-color:#595A5C"/>
	</linearGradient>
	<path class="st2" d="M90.4,194c0,0,1.7,44.2,1.5,54.1c-0.2,9.9-1.7,40.5-0.5,54.5c1.2,14-0.1,108.6-0.1,108.6h24.3
		c0,0-6.4-53.4-6.6-74.3c-0.2-21,0.2-35.8-1.8-47.8c-1.9-12-0.4-44.5-0.8-47.4c-0.4-2.9-3.2-40-3-47.6c0.3-11.3-1.8-54-1.8-59.4
		s-0.2-21-0.2-21H90.3c0,0-0.2,55.9,0,65.7C90.5,189.4,90.3,193,90.4,194z"/>
	
		<linearGradient id="SVGID_3_" gradientUnits="userSpaceOnUse" x1="194.4566" y1="122.9572" x2="163.6832" y2="122.9572" gradientTransform="matrix(1 0 0 -1 0 385.5)">
		<stop  offset="0" style="stop-color:#010101"/>
		<stop  offset="0.4988" style="stop-color:#0A0A0B"/>
		<stop  offset="0.6785" style="stop-color:#1F1E1F"/>
		<stop  offset="0.8065" style="stop-color:#39393B"/>
		<stop  offset="0.9094" style="stop-color:#4D4D4F"/>
		<stop  offset="0.9688" style="stop-color:#595A5C"/>
	</linearGradient>
	<path class="st3" d="M163.6,194.1c0,0,1.6,46.7,1.6,60.9c0,14.2-0.5,79.7-0.2,88.4c0.2,8.7-0.2,67.9-0.2,67.9h29.6
		c0,0-3.6-28.8-3.3-53.1c0.2-24.4-2-82.4-3.7-89.1c-1.6-6.7-0.7-75.1-0.7-75.1c0.4-9-0.8-79.3-0.8-79.3c-0.8-0.3-2.2-0.6-3.8-0.8
		c-1.7-0.2-2.8-0.2-5.4-0.2c-1.9,0-3.8,0-5.6,0c-1.8,0-4.3,0-7.4,0c0,19.8,0,39.6,0,59.4C163.6,180.2,163.6,187.2,163.6,194.1z"/>
	<path class="st1" d="M223.6,397v26.7c0,2.8,0,5.1,0,6.6c0,2.5,0.1,3.4,0,5.1c-0.1,3.1-0.2,4.6-0.7,6.1c-0.9,2.8-2.7,4.5-3.6,5.2
		c-3.1,2.8-6.6,3.5-8.9,3.9c-2.4,0.4-3.5,0.2-8.2,0.1c-3.9-0.1-7.1-0.1-9.3,0c-53.9,0-107.8,0-161.8,0c-3.3-0.1-6.1,0-7.9,0
		c-3.2,0.1-4.9,0.2-7.9,0c-3.3-0.2-4.9-0.7-6.3-1.2c-0.7-0.3-2.1-0.9-3.7-2.1c-0.6-0.5-3.2-2.7-4.5-6.5c-0.6-1.9-0.5-3.1-0.5-7.7
		c0-2.2,0.1-5.4,0-9.4c0-8.7,0-17.3,0-26c0,0,62.4-0.5,78.2,0.8c15.8,1.3,55.5,0,60.7-0.7c18.5-2.5,33.8,0.4,58.3-0.2
		C208.6,397.5,217.6,397.2,223.6,397z"/>
	<circle class="st4" cx="109" cy="130.5" r="8.4"/>
	<path class="st5" d="M106.7,122.4c0.2,0.4,0.3,0.8,0.5,1.2c2.4,6,9.3,9,0-22.8s-12.7-24-14.3-42.3S89.2,20,84.6,7.7
		s-17.1-6.8-21.1,0c0,0,9-5.2,11.5,0.9c2.5,6.1,1.1,5.3,2.7,12.5c1.5,7.2,5.8,15,5.9,19.6c0.2,4.6-0.2,7.6,0.9,11.1
		c2.5,7.4,6.1,21.2,6.1,26.8c0,5.6,2.4,14.1,5.1,18.6c1.1,2,3,6.2,5,10.9l0.9,2.1l0.9,2.9"/>
	<path class="st5" d="M63.2,7.6c0,0-9.6,0.8-8,3.5C56.7,13.8,60.7,10.1,63.2,7.6z"/>
	<path class="st5" d="M62.8,7.9c0,0,7.4-6.3,4.5-7.5S63.4,4.4,62.8,7.9z"/>
	<g>
		<path class="st6" d="M62.9,7.3c0.8-0.1,1.6-0.1,2.4,0.1c0.8,0.2,1.5,0.5,2.1,1.1c-0.6-0.5-1.4-0.7-2.1-0.8c-0.8-0.1-1.5,0-2.3,0.2
			l0,0c-0.2,0.1-0.3-0.1-0.4-0.2C62.7,7.6,62.8,7.4,62.9,7.3L62.9,7.3z"/>
	</g>
	<g>
		<path class="st4" d="M47.2,421.1L47.2,421.1c-0.5-0.9-1.3-1.9-2.7-1.9h-1.1c-0.8,0-0.9,0.5-0.9,1.5v3.3h1.1c1.1,0,2-0.8,2-1.7h0.1
			v3.6h-0.1c0-0.9-0.9-1.7-2-1.7h-1.1v3.3c0,1.1,0.1,1.5,0.9,1.5v0.1h-3v-0.1c0.8,0,0.9-0.5,0.9-1.5v-6.6c0-1.1-0.1-1.5-0.9-1.5
			v-0.1h6.4L47.2,421.1z"/>
		<path class="st4" d="M58.6,423.6c0.3,3-1.9,5.2-4.9,5.5c-2.9,0.3-5.5-1.5-5.8-4.5c-0.3-3.1,1.9-5.2,4.9-5.5
			C55.8,418.8,58.3,420.5,58.6,423.6z M57.2,423.7c-0.2-2.7-2.2-4.8-4.3-4.6c-2.1,0.2-3.7,2.6-3.4,5.3c0.2,2.7,2.2,4.8,4.3,4.6
			C55.9,428.8,57.5,426.5,57.2,423.7z"/>
		<path class="st4" d="M69.2,428.9L69.2,428.9c0,0.1-0.8,0.1-1.5,0.1c-0.6,0-1.2-0.2-1.6-0.6c-1.2-1.4-1.4-4.2-2.9-4.2
			c0,0-1.1,0-1.2,0v3.3c0,1.1,0.1,1.5,0.9,1.5v0.1h-3v-0.1c0.8,0,0.9-0.5,0.9-1.5v-6.6c0-1.1-0.1-1.5-0.9-1.5v-0.1h3.9
			c1.4,0,3,0.7,3,2.5c0,1.4-1.1,2.2-2.3,2.4c1.4,0.5,1.7,2,2.6,3.4C67.6,428.3,68.4,428.9,69.2,428.9z M63.4,424.1
			c0.9,0,2-0.7,2-2.4c0-1.7-1.2-2.4-2-2.4h-0.5c-0.8,0-0.9,0.5-0.9,1.5v3.3C62.6,424.1,63.1,424.1,63.4,424.1z"/>
		<path class="st4" d="M77.7,426.5c0,1.7-1.6,2.5-3.1,2.5h-4.5v-0.1c0.8,0,0.9-0.5,0.9-1.5v-6.6c0-1.1-0.1-1.5-0.9-1.5v-0.1H74
			c1.4,0,3,0.7,3,2.4c0,1.4-1.1,2.2-2.3,2.3C76.1,424,77.7,424.8,77.7,426.5z M73.1,419.2c-0.8,0-0.9,0.5-0.9,1.5v3.3
			c0.5,0,1.1,0,1.5,0c1.1,0,2-0.6,2-2.3c0-1.7-1.1-2.4-2-2.4H73.1L73.1,419.2z M76.4,426.5c0-1.7-1.2-2.4-2-2.4c0,0-1.9,0-2,0v3.3
			c0,1.1,0.1,1.5,0.9,1.5c0.5,0,0.9,0,1.2,0C75.2,428.9,76.4,428.3,76.4,426.5z"/>
		<path class="st4" d="M81,427.4c0,1.1,0.1,1.5,0.9,1.5v0.1h-3v-0.1c0.8,0,0.9-0.5,0.9-1.5v-6.6c0-1.1-0.1-1.5-0.9-1.5v-0.1h3v0.1
			c-0.8,0-0.9,0.5-0.9,1.5V427.4z"/>
		<path class="st4" d="M92.6,424.1c0,2.7-1.5,4.9-4.5,4.9h-4.7v-0.1c0.8,0,0.9-0.5,0.9-1.5v-6.6c0-1.1-0.1-1.5-0.9-1.5v-0.1H88
			C91.1,419.1,92.6,421.3,92.6,424.1z M91.1,424.1c0-3.8-2-4.9-3.8-4.9h-1.1c-0.8,0-0.9,0.5-0.9,1.5v6.6c0,1.1,0.1,1.5,0.9,1.5
			c0.3,0,0.7,0,1.1,0C89.2,428.9,91.1,427.9,91.1,424.1z"/>
		<path class="st4" d="M103.1,424.1c0,2.7-1.5,4.9-4.5,4.9h-4.7v-0.1c0.8,0,0.9-0.5,0.9-1.5v-6.6c0-1.1-0.1-1.5-0.9-1.5v-0.1h4.7
			C101.6,419.1,103.1,421.3,103.1,424.1z M101.8,424.1c0-3.8-2-4.9-3.8-4.9h-1.1c-0.8,0-0.9,0.5-0.9,1.5v6.6c0,1.1,0.1,1.5,0.9,1.5
			c0.3,0,0.7,0,1.1,0C99.8,428.9,101.8,427.9,101.8,424.1z"/>
		<path class="st4" d="M111.9,426.6l-0.6,2.3h-6.8v-0.1c0.8,0,0.9-0.5,0.9-1.5v-6.6c0-1.1-0.1-1.5-0.9-1.5v-0.1h6.4l0.5,2h-0.1
			c-0.4-0.9-1.2-1.9-2.7-1.9h-1.1c-0.8,0-0.9,0.5-0.9,1.5v3.3h1.1c1.1,0,2-0.8,2-1.7h0.1v3.6h-0.1c0-0.9-0.9-1.7-2-1.7h-1.1v3.3
			c0,1.1,0.1,1.5,0.9,1.5h1.6C110.5,428.9,111.4,427.6,111.9,426.6L111.9,426.6z"/>
		<path class="st4" d="M122.9,419.1L122.9,419.1c-0.9,0.1-1.7,1.1-1.7,2.7v7.1H121c-0.1-0.2-6.4-8.2-6.7-8.6v5.8
			c0,1.7,0.8,2.7,1.7,2.7v0.1h-3.6v-0.1c1,0,1.7-1,1.7-2.7v-5.9c-0.5-0.6-1.1-1.1-1.7-1.1v-0.1h2.3l6.2,8v-5.2
			c0-1.7-0.8-2.7-1.7-2.7v-0.1H122.9L122.9,419.1z"/>
		<path class="st4" d="M133.7,421.1L133.7,421.1c-0.5-0.9-1.3-1.9-2.7-1.9h-1.1c-0.8,0-0.9,0.5-0.9,1.5v3.3h1.1c1.1,0,2-0.8,2-1.7
			h0.1v3.6h-0.1c0-0.9-0.9-1.7-2-1.7H129v3.3c0,1.1,0.1,1.5,0.9,1.5v0.1h-3v-0.1c0.8,0,0.9-0.5,0.9-1.5v-6.6c0-1.1-0.1-1.5-0.9-1.5
			v-0.1h6.4L133.7,421.1z"/>
		<path class="st4" d="M145.2,423.6c0.3,3-1.9,5.2-4.9,5.5c-2.9,0.3-5.5-1.5-5.8-4.5c-0.3-3.1,1.9-5.2,4.9-5.5
			C142.4,418.8,144.9,420.5,145.2,423.6z M143.7,423.7c-0.2-2.7-2.2-4.8-4.3-4.6c-2.1,0.2-3.7,2.6-3.4,5.3c0.2,2.7,2.2,4.8,4.3,4.6
			C142.5,428.8,144,426.5,143.7,423.7z"/>
		<path class="st4" d="M155.8,428.9L155.8,428.9c0,0.1-0.8,0.1-1.5,0.1c-0.6,0-1.2-0.2-1.6-0.6c-1.2-1.4-1.4-4.2-2.9-4.2
			c0,0-1.1,0-1.2,0v3.3c0,1.1,0.1,1.5,0.9,1.5v0.1h-3v-0.1c0.8,0,0.9-0.5,0.9-1.5v-6.6c0-1.1-0.1-1.5-0.9-1.5v-0.1h3.9
			c1.4,0,3,0.7,3,2.5c0,1.4-1.1,2.2-2.3,2.4c1.4,0.5,1.7,2,2.6,3.4C154.2,428.3,155,428.9,155.8,428.9z M150,424.1
			c0.9,0,2-0.7,2-2.4c0-1.7-1.2-2.4-2-2.4h-0.5c-0.8,0-0.9,0.5-0.9,1.5v3.3C149.1,424.1,149.7,424.1,150,424.1z"/>
		<path class="st4" d="M164.1,426.6l-0.6,2.3h-6.8v-0.1c0.8,0,0.9-0.5,0.9-1.5v-6.6c0-1.1-0.1-1.5-0.9-1.5v-0.1h6.4l0.5,2h-0.1
			c-0.4-0.9-1.2-1.9-2.7-1.9h-1.1c-0.8,0-0.9,0.5-0.9,1.5v3.3h1.1c1.1,0,2-0.8,2-1.7h0.1v3.6l0,0c0-0.9-0.9-1.7-2-1.7h-1.1v3.3
			c0,1.1,0.1,1.5,0.9,1.5h1.6C162.7,428.9,163.6,427.6,164.1,426.6L164.1,426.6z"/>
		<path class="st4" d="M171.7,426.6c0,1.7-1.4,2.6-3.3,2.6c-0.8,0-1.5-0.2-2-0.3c-0.5-0.1-1.2-0.3-1.2,0.7h-0.1V426h0.1
			c0,0.8,0.9,3.1,3.2,3.1c1.3,0,2.1-0.8,2.1-2c0-2.5-5.2-2.7-5.2-5.6c0-1.7,1.4-2.4,3-2.4c0.8,0,1.4,0.2,2,0.4
			c0.5,0.2,0.8,0,0.8-0.8h0.1v3.6h-0.1c0-1.7-1.1-3.1-2.8-3.1c-0.9,0-1.9,0.5-1.9,1.9C166.5,423.4,171.7,423.7,171.7,426.6z"/>
		<path class="st4" d="M181,421.3L181,421.3c-0.5-0.9-1.1-2-2.5-2h-0.2c-0.8,0-0.9,0.5-0.9,1.5v6.6c0,1.1,0.1,1.5,0.9,1.5v0.1h-3
			v-0.1c0.8,0,0.9-0.5,0.9-1.5v-6.6c0-1.1-0.1-1.5-0.9-1.5H175c-1.4,0-2,1.1-2.4,2h-0.1l0.3-2.1h7.9L181,421.3z"/>
	</g>
	<g>
		<path class="st4" d="M97.1,436.3l-18.3,0.1H60.4H42.1c-1.5,0-3,0-4.6,0c-0.8-0.1-1.6-0.5-2.1-1.1c-0.3-0.3-0.5-0.7-0.5-1.1
			c-0.1-0.5,0-0.8-0.1-1.1V424v-9.2c0-0.4,0-0.8,0.1-1.1c0.1-0.4,0.3-0.8,0.5-1.1c0.5-0.6,1.4-0.9,2.1-1.1c1.6-0.1,3,0,4.6,0h18.3
			h18.3l18.3,0.1l-18.3,0.1H60.4H42.1c-1.5,0-3.1,0-4.5,0c-0.8,0.1-1.4,0.4-1.9,0.9c-0.2,0.2-0.4,0.6-0.5,0.9c-0.1,0.3,0,0.8,0,1.1
			v9.2v9.2c0,0.4,0,0.8,0,1.1c0.1,0.4,0.2,0.7,0.5,0.9c0.5,0.5,1.2,0.8,1.9,0.9c1.5,0.1,3,0,4.5,0h18.3h18.3L97.1,436.3z"/>
	</g>
	<g>
		<path class="st4" d="M111.2,411.7l21.5-0.1h21.5h21.5h5.4h1.4c0.5,0,0.9,0,1.4,0.1c0.9,0.2,1.8,0.7,2.2,1.6c0.2,0.5,0.2,1,0.2,1.4
			v1.4v2.7v5.4v5.4v2.7v1.4c0,0.5,0,0.9-0.2,1.4c-0.4,0.9-1.4,1.4-2.2,1.6c-0.5,0.1-0.9,0.1-1.4,0.1h-1.4h-5.4h-21.5h-21.5
			l-21.5-0.1l21.5-0.1h21.5h21.5h5.4h1.4c0.5,0,0.9,0,1.3-0.1c0.8-0.2,1.7-0.7,2-1.4c0.2-0.4,0.2-0.8,0.2-1.2v-1.4v-2.7v-5.4v-5.4
			v-2.7v-1.4c0-0.5,0-0.9-0.2-1.2c-0.4-0.8-1.1-1.2-2-1.4c-0.4-0.1-0.8-0.1-1.3-0.1h-1.4h-5.4h-21.5h-21.5L111.2,411.7z"/>
	</g>
	<path class="st7" d="M184,245.5H40.7c-1.2,0-2.3-1-2.3-2.3v-51.4c0-1.2,1-2.3,2.3-2.3H184c1.2,0,2.3,1,2.3,2.3v51.4
		C186.3,244.5,185.2,245.5,184,245.5z"/>
	<path class="st8" d="M103.8,241.7c0,0,0.7,0.3,1.9,0.2c0,0,0.5-0.8,0.2-1.2c-0.2-0.5,0.2-0.3,0.3-0.8c0.1-0.5-0.3-1.3-0.1-1.5
		c0.2-0.2,0.5-2.9,1.1-4.5c0.6-1.6,1.2-3.9,1.3-4.4c0,0,0.5,0,0.5-0.6l-0.4-0.2c0,0,1-2.6,1.1-3.6c0.1-1,0.7-1.8,1-3.2
		c0.3-1.4,0.9-2.6,1.6-5.2s0.2-1.5,1.3-5.4c1.1-3.9,1.4-4.2,2-6.6c0.6-2.3,0.9-2.7,0.8-2.9c-0.2-0.2-0.9,1.8-1.1,2.5
		c-0.3,0.7-0.5,1.8-1.3,3.8s-1.4,3.5-2.3,6.2c-0.8,2.7-1.6,4.4-2.3,7c-0.7,2.7-0.8,1.9-1.1,3.6c-0.3,1.7-1.1,2.6-1.2,3l-0.7-0.2
		c0,0-0.5,0.6,0.2,0.8c0,0-0.5,2.2-0.7,3.3c-0.3,1.4-1.1,3.1-1.6,4.5c-0.2,0.5-0.1,0.3-0.5,1.4c0,0-0.1,0.2-0.2,0.6
		c-0.1,0.5-0.2,0.7-0.1,0.8c0.2,0.3,0.4,0.4,0.3,0.5c0,0.1-0.2,0.1-0.2,0.2c-0.1,0.1-0.1,0.2,0,0.6
		C103.7,241.2,103.7,241.4,103.8,241.7z"/>
	<g>
		<path class="st9" d="M104.9,239.9c-0.1-0.8-0.1-1.7,0.1-2.4c0.1-0.8,0.7-1.5,0.9-2.3c0.3-0.8,0.5-1.6,0.5-2.4
			c0.2-0.4,0.5-0.7,0.7-1c0.2-0.3,0.5-0.7,0.5-1.1c-0.1,0.4-0.2,0.8-0.5,1.1c-0.2,0.3-0.5,0.6-0.7,1c0,0.8-0.2,1.7-0.5,2.4
			c-0.2,0.8-0.8,1.4-0.9,2.3C104.9,238.3,104.9,239.1,104.9,239.9z"/>
	</g>
	<g>
		<path class="st9" d="M106.7,231.7c0.3-0.5,0.5-1.1,0.7-1.8c0.1-0.2,0.1-0.3,0.2-0.5c0.1-0.2,0.2-0.3,0.3-0.4
			c0.2-0.2,0.5-0.5,0.5-0.8c0,0.3-0.2,0.6-0.5,0.8c-0.3,0.2-0.4,0.5-0.5,0.8C107.3,230.5,107.1,231.1,106.7,231.7z"/>
	</g>
	<g>
		<path class="st9" d="M108.7,226.2c0.4-1.2,0.5-2.5,1-3.7c0.4-1.2,1.3-2.3,1.5-3.5c0.2-0.6,0.2-1.3,0.3-1.9
			c0.2-0.6,0.5-1.2,0.7-1.8c0.4-1.2,0.7-2.4,1.1-3.7c-0.3,1.2-0.7,2.5-1,3.7c-0.2,0.6-0.5,1.2-0.6,1.8c-0.2,0.6-0.2,1.3-0.3,1.9
			c-0.2,1.3-1.2,2.3-1.6,3.5C109.3,223.7,109,224.9,108.7,226.2z"/>
	</g>
	<g>
		<path class="st9" d="M105.6,238c0.2-0.5,0.4-1.1,0.6-1.6c0.2-0.5,0.2-1.1,0.3-1.6c0.2-0.5,0.4-1.1,0.6-1.6
			c0.1-0.2,0.2-0.5,0.2-0.8c0.1-0.3,0.5-0.4,0.4-0.7c0.1,0.3-0.3,0.5-0.4,0.7c0,0.3-0.1,0.5-0.2,0.8c-0.2,0.5-0.5,1.1-0.5,1.6
			c-0.2,0.5-0.2,1.1-0.4,1.6C106.1,237,105.8,237.5,105.6,238z"/>
	</g>
	<g>
		<path class="st9" d="M107.9,228.1c0.1-0.3,0.4-0.5,0.6-0.7c0.3-0.2,0.3-0.5,0.4-0.8c0.2-0.5,0.5-1.1,0.6-1.7
			c0.1-0.5,0-1.2,0.3-1.7c0.2-0.3,0.3-0.5,0.4-0.8c0.2-0.2,0.3-0.5,0.2-0.8c0.1,0.3-0.1,0.6-0.2,0.8c-0.2,0.3-0.3,0.5-0.4,0.8
			c-0.2,0.5-0.2,1.1-0.2,1.7c-0.2,0.6-0.4,1.1-0.6,1.7c-0.1,0.2-0.1,0.3-0.2,0.5c-0.1,0.2-0.2,0.3-0.3,0.4
			C108.2,227.6,108,227.8,107.9,228.1z"/>
	</g>
	<g>
		<g>
			<g>
				<g>
					<path class="st10" d="M127.2,204.5C127.2,204.5,127.2,204.4,127.2,204.5C127.2,204.6,127.2,204.5,127.2,204.5z"/>
					<path class="st10" d="M128.1,204.6L128.1,204.6c0-0.1,0-0.1,0-0.2C128.1,204.4,128.1,204.5,128.1,204.6z"/>
					<path class="st10" d="M127.5,203.8c0.1,0,0.5,0,0.6,0.2l0,0c0,0,0,0.1,0.1,0.1c-0.1-0.2-0.2-0.2-0.3-0.3
						C127.7,203.8,127.6,203.8,127.5,203.8z"/>
					<path class="st10" d="M126.9,204.1c0,0-0.1,0.1,0.1-0.2l0,0C127,204,126.9,204,126.9,204.1z"/>
					<path class="st10" d="M127,204C127.1,203.9,126.9,204.1,127,204L127,204z"/>
					<path class="st10" d="M126.8,204.5c0-0.1,0-0.2,0-0.2C126.8,204.4,126.8,204.5,126.8,204.5
						C126.8,204.7,126.8,204.6,126.8,204.5z"/>
					<path class="st10" d="M126.8,204.7L126.8,204.7C126.8,204.6,126.8,204.6,126.8,204.7z"/>
					<path class="st10" d="M126.8,204.4c0,0.1,0,0.2,0,0.2S126.8,204.6,126.8,204.4C126.8,204.5,126.8,204.5,126.8,204.4z"/>
					<path class="st10" d="M126.8,204.3C126.9,204.2,126.9,204.1,126.8,204.3c0.1-0.2,0.2-0.2,0.2-0.2S126.9,204.1,126.8,204.3z"/>
					<path class="st10" d="M127.5,203.8c0.1,0,0.1,0,0.2,0h0.1C127.6,203.8,127.4,203.8,127.5,203.8z"/>
					<path class="st10" d="M127.2,205.5C127.2,205.5,127.2,205.4,127.2,205.5c-0.1-0.1-0.2-0.1-0.2-0.2
						C127.1,205.4,127.2,205.5,127.2,205.5z"/>
					<path class="st10" d="M127.2,205.4c0.1,0.1,0.1,0.1,0.2,0.1C127.2,205.4,127.2,205.4,127.2,205.4z"/>
					<path class="st10" d="M126.8,204.8c0-0.1,0-0.2,0-0.3C126.8,204.5,126.8,204.7,126.8,204.8L126.8,204.8z"/>
					<path class="st10" d="M127.9,205.7L127.9,205.7c0,0,0.1,0,0.2,0C127.9,205.7,127.9,205.7,127.9,205.7z"/>
					<path class="st10" d="M128.4,205.5C128.3,205.5,128.4,205.4,128.4,205.5c0.2-0.1,0.2-0.2,0.3-0.2
						C128.6,205.3,128.4,205.4,128.4,205.5z"/>
					<path class="st10" d="M128.7,205.1c0,0.1-0.1,0.1-0.1,0.2C128.7,205.2,128.7,205.1,128.7,205.1z"/>
					<path class="st10" d="M127.6,205.7c0,0,0.1,0,0.2,0H127.6C127.7,205.7,127.6,205.7,127.6,205.7z"/>
					<path class="st10" d="M127.7,205.7L127.7,205.7c0.1,0,0.2,0,0.2,0S127.8,205.7,127.7,205.7z"/>
					<path class="st10" d="M127.6,205.7L127.6,205.7L127.6,205.7z"/>
					<path class="st10" d="M126.9,205.2C127,205.3,127.2,205.5,126.9,205.2C127,205.2,127,205.4,126.9,205.2z"/>
					<path class="st10" d="M127.5,205.6c-0.1,0-0.2-0.1-0.2-0.1l0,0C127.4,205.6,127.5,205.6,127.5,205.6z"/>
					<path class="st10" d="M127.6,205.7L127.6,205.7C127.5,205.7,127.5,205.7,127.6,205.7L127.6,205.7z"/>
					<path class="st10" d="M128.5,205.4c0.1-0.1,0.2-0.2,0.2-0.2C128.6,205.2,128.5,205.3,128.5,205.4
						C128.4,205.4,128.4,205.4,128.5,205.4z"/>
					<path class="st10" d="M128.1,205.6L128.1,205.6L128.1,205.6z"/>
					<path class="st10" d="M128.9,204.1L128.9,204.1L128.9,204.1z"/>
					<path class="st10" d="M128.4,205.4c-0.1,0.1-0.2,0.1-0.2,0.1C128.4,205.5,128.4,205.4,128.4,205.4
						C128.4,205.4,128.4,205.4,128.4,205.4z"/>
					<path class="st10" d="M128.8,204.8c0,0.1,0,0.1-0.1,0.2C128.8,204.9,128.8,204.8,128.8,204.8z"/>
					<path class="st10" d="M128.1,205.6L128.1,205.6C128.2,205.6,128.2,205.6,128.1,205.6z"/>
					<path class="st10" d="M128.1,205.6C128.2,205.6,128.2,205.6,128.1,205.6C128.2,205.5,128.2,205.6,128.1,205.6L128.1,205.6z"/>
					<path class="st10" d="M128.7,203.8c0,0,0.1,0.2,0.2,0.5c0,0.2,0,0.1,0-0.1c0,0,0,0-0.1-0.2c0,0.1,0.1,0.5,0.1,0.3
						C128.8,203.9,128.8,204,128.7,203.8c0.1,0.2-0.2-0.2-0.1-0.2C128.7,203.7,128.7,203.8,128.7,203.8
						C128.7,203.8,128.7,203.8,128.7,203.8z"/>
					<path class="st10" d="M128.9,204.5L128.9,204.5c0,0,0-0.1,0-0.2c0-0.2,0-0.2,0-0.2C128.9,204.3,128.9,204.4,128.9,204.5
						L128.9,204.5z"/>
					<path class="st10" d="M128.8,205c0-0.1,0.1-0.2,0.1-0.2c-0.1,0.2-0.1,0.2-0.2,0.3C128.9,204.8,128.7,205.2,128.8,205
						c0,0.1-0.1,0.2-0.1,0.2C128.7,205.1,128.7,205.1,128.8,205L128.8,205L128.8,205L128.8,205C128.8,205,128.7,205,128.8,205
						L128.8,205L128.8,205C128.8,204.8,128.8,204.9,128.8,205L128.8,205L128.8,205c0.1-0.1,0.1-0.2,0.1-0.4
						C128.9,204.7,128.9,204.8,128.8,205z"/>
					<path class="st10" d="M127.2,205.4L127.2,205.4C127.2,205.4,127.2,205.4,127.2,205.4z"/>
					<path class="st10" d="M127.3,205.5c0,0-0.1,0-0.2-0.1c-0.1-0.1,0,0,0,0c-0.1,0-0.2-0.2,0,0l0,0c0.2,0.1,0.3,0.2,0.3,0.2
						C127.5,205.6,127.4,205.6,127.3,205.5z"/>
					<path class="st10" d="M128.1,205.5c0.1-0.1,0.2-0.1,0.3-0.2c-0.1,0-0.1,0.1-0.2,0.1l0,0C128.2,205.5,128.2,205.5,128.1,205.5z"
						/>
					<path class="st10" d="M128.9,204.1L128.9,204.1c0,0,0-0.1-0.1-0.2C128.9,204,128.9,204,128.9,204.1z"/>
					<path class="st10" d="M128.7,203.7L128.7,203.7C128.7,203.7,128.7,203.6,128.7,203.7L128.7,203.7z"/>
					<path class="st10" d="M135.9,198.8L135.9,198.8L135.9,198.8z"/>
					<path class="st10" d="M135.5,199.4L135.5,199.4C135.5,199.3,135.5,199.3,135.5,199.4z"/>
					<path class="st10" d="M129.8,204.4c0-0.2,0-0.3-0.1-0.3v0.1C129.7,204.2,129.7,204.3,129.8,204.4z"/>
					<path class="st10" d="M130.3,198.5L130.3,198.5c-0.1,0-0.1,0-0.2,0C130.3,198.5,130.3,198.5,130.3,198.5z"/>
					<path class="st10" d="M130.4,198.4c0.1,0,0.2,0,0.2,0S130.5,198.4,130.4,198.4z"/>
					<path class="st10" d="M134.4,195.7L134.4,195.7C134.4,195.8,134.4,195.7,134.4,195.7z"/>
					<path class="st10" d="M126.1,205.2c0,0.2,0.1,0.2,0.1,0.3C126.1,205.4,126.1,205.4,126.1,205.2z"/>
					<path class="st10" d="M135.9,199.1C135.9,199.1,135.9,199.1,135.9,199.1C135.9,199.1,135.9,199.1,135.9,199.1z"/>
					<path class="st10" d="M126.3,205.8C126.2,205.7,126.2,205.7,126.3,205.8c-0.1-0.2-0.1-0.2-0.2-0.3
						C126.2,205.6,126.2,205.7,126.3,205.8z"/>
					<path class="st10" d="M121.9,198L121.9,198C121.8,198,121.9,198,121.9,198z"/>
					<path class="st10" d="M118.4,200c0,0,0.1-0.1,0.2-0.1C118.5,199.9,118.4,199.9,118.4,200z"/>
					<path class="st10" d="M127.2,203.2C127.3,203.2,127.2,203.2,127.2,203.2L127.2,203.2z"/>
					<path class="st10" d="M127.6,203.2L127.6,203.2L127.6,203.2z"/>
					<path class="st10" d="M126.9,206.4L126.9,206.4L126.9,206.4z"/>
					<path class="st10" d="M127.3,203.2c0,0-0.1,0-0.2,0C127.2,203.2,127.2,203.2,127.3,203.2z"/>
					<path class="st10" d="M127.3,203.2L127.3,203.2C127.4,203.2,127.4,203.2,127.3,203.2z"/>
					<path class="st10" d="M127.1,203.2c0.1,0,0.1,0,0.2,0l0,0C127.2,203.2,127.2,203.2,127.1,203.2z"/>
					<path class="st10" d="M128.4,195.1L128.4,195.1C128.4,195.1,128.4,195.1,128.4,195.1z"/>
					<path class="st10" d="M129.1,202.2L129.1,202.2L129.1,202.2z"/>
					<path class="st10" d="M128.9,201.9c0.1,0.2,0.1,0.2,0.1,0.3v-0.1L128.9,201.9z"/>
					<path class="st10" d="M135.6,197.3c0,0.1,0.1,0.2,0.1,0.2C135.6,197.3,135.5,197.1,135.6,197.3c0,0,0.2,0.8,0.2,0.8v0.2
						c0-0.1,0-0.1,0-0.1c0,0.3,0.1,0.2,0,0.5c0,0.2-0.1,0.2-0.1,0.1c0,0.1-0.1,0.2-0.1,0.2c-0.1,0.1-0.1,0.1,0,0
						c-0.1,0.1-0.2,0.2-0.2,0.3l0,0c-0.1,0.1-0.2,0.2-0.2,0.2c-0.1,0.1,0.1,0,0,0c-0.1,0.1-0.2,0.1-0.2,0.1s0.1-0.1,0.2-0.2
						c-0.2,0.1-0.2,0.2-0.6,0.2c0.1,0,0.2-0.1,0.2-0.1c-0.2,0-0.3,0.1-0.5,0.1c0.1,0,0.5,0,0.2,0.1c-0.1,0-0.1,0-0.3,0
						c0,0-0.2,0-0.3,0l0,0c-0.1,0-0.2,0-0.3,0c-0.2-0.1-0.2-0.1-0.3-0.1c-0.3-0.1,0.2,0.1-0.2,0c-0.2-0.2-0.4-0.2-0.7-0.4
						c-0.2-0.1,0,0,0,0l-0.2-0.1l0,0c-0.2-0.1,0,0-0.2-0.1c-0.1,0-0.4-0.2-0.7-0.3c-0.1,0,0,0,0,0c-0.4-0.2-0.3-0.1-0.6-0.2
						c-0.1,0-0.2-0.1-0.3-0.1c0.2,0.1-0.1,0-0.3,0c0.1,0,0.2,0,0.2,0c-0.2,0-0.2,0-0.4,0c-0.1,0,0,0,0.1,0H130c-0.2,0-0.1,0,0,0
						s0.1,0,0.2,0c0.1,0,0.2,0,0.2-0.1c-0.1,0-0.1,0-0.2,0c0,0,0.1,0,0,0h-0.1H130l0,0c-0.2,0-0.3,0.1-0.5,0.1
						c-0.3,0.2-0.6,0.3-0.8,0.8c0.1-0.2,0-0.1,0-0.1c0.1-0.2,0.2-0.4,0.5-0.5c-0.2,0.1-0.1,0.1-0.1,0c-0.2,0.1-0.2,0.2-0.3,0.4
						c0,0-0.1,0.1-0.2,0.2c0.1-0.1-0.1,0.4-0.1,0.6c0,0,0,0,0-0.3c-0.1,0.3,0,0.4,0,0.6c0-0.1,0-0.1,0-0.2c0,0.2,0.1,0.5,0,0.4v-0.1
						c0,0.4,0.2,1.2,0.2,1.2l-0.1-0.1c0.1,0.2,0.2,0.5,0.3,0.7c0-0.1,0,0.2-0.2-0.2c0,0.1,0.1,0.2,0.2,0.4c0-0.1,0-0.2,0-0.1
						c0.1,0.2,0,0.2,0.1,0.5c0-0.1,0.1,0,0.1,0.2c0,0,0,0-0.1,0l0.2,0.4c0-0.1,0,0,0,0.1c0-0.1,0.1,0.3,0.2,0.4v-0.2
						c0.1,0.4,0.2,0.4,0.2,0.8c0-0.1-0.1-0.2,0,0.1c0,0.1,0.2,0.5,0,0.8v0.1l-0.1,0.3c0.1-0.2,0.2-0.7,0.2-0.9c0,0.2,0,0.1,0,0.3
						c0,0.1,0-0.2,0-0.2c0,0.2,0,0.4-0.1,0.5l-0.2,0.4c0.1-0.2,0.2-0.4,0.2-0.5c0,0,0,0.4-0.2,0.7c-0.1,0.1,0-0.1,0-0.1
						c0,0.1-0.2,0.3-0.2,0.3c0.1,0,0.1-0.1,0.1-0.2c-0.2,0.2-0.2,0.2-0.5,0.4c-0.1,0.1-0.2,0.1-0.2,0.1c0.2-0.1,0.2,0,0.1,0.1
						c0,0-0.5,0.2-0.6,0.1c-0.2,0,0.2-0.1,0.1-0.1c0,0-0.1,0-0.2,0c-0.1,0,0.1,0-0.2,0c0,0-0.4,0-0.1,0c-0.2,0-0.2,0-0.5-0.1
						c0.1,0-0.2,0-0.4-0.2c0,0,0,0-0.1,0c-0.3-0.2-0.5-0.5-0.7-0.8c0,0-0.1-0.2-0.1-0.2c0-0.1-0.1-0.1-0.1-0.2
						c-0.1-0.2,0.1,0.2,0.1,0.1c0,0-0.1-0.3-0.2-0.5c0,0.1,0.1,0.4,0.2,0.5c0,0-0.2-0.2-0.2-0.7c0-0.3,0-0.2,0-0.2
						c0-0.3,0.1-0.5,0.1-0.5c0-0.1,0.1-0.2,0.2-0.5c0.2-0.2,0,0,0.1,0c-0.2,0.2-0.2,0.3-0.3,0.5c0-0.1,0.1-0.2,0.1-0.2
						c-0.1,0.1-0.1,0.2-0.1,0.3c0-0.1,0.1-0.3,0.2-0.6c0.2-0.2,0.5-0.4,0.7-0.5c0.1,0,0.2-0.1,0.2-0.1s-0.1,0-0.2,0
						c-0.2,0,0.3-0.1,0.1,0c0.2-0.1,0.5-0.1,0.7,0h0.1c0,0-0.2,0-0.2,0c0.2,0,0.5,0.1,0.5,0.2c-0.1,0-0.2-0.1-0.2-0.1
						c0.2,0.1,0.5,0.2,0.6,0.3c-0.1-0.1,0-0.1-0.2-0.2c0.1,0.1-0.1-0.1-0.2-0.1c-0.2-0.1-0.3-0.1-0.2-0.1c-0.2-0.1-0.3-0.1-0.5-0.1
						c0,0,0.1,0-0.2,0c0,0,0,0-0.1,0l0,0l0,0l0,0h0.1c-0.1,0-0.5,0.1-0.5,0.2c-0.2,0.1,0.1,0,0,0c-0.1,0-0.1,0.1-0.2,0.1
						c0,0-0.3,0.2-0.1,0c-0.1,0.1-0.2,0.1-0.2,0.2c-0.2,0.1-0.3,0.3-0.3,0.4c-0.1,0.1-0.1,0.3-0.1,0.2c-0.1,0.2-0.1,0.3-0.1,0.4l0,0
						c0,0.4,0.1,0.8,0.3,1.3c0.1,0.2,0.2,0.2,0.3,0.5v0.1c0.2,0.2,0.4,0.4,0.5,0.4c0.1,0.1,0.3,0.2,0.5,0.2c0.2,0.1,0.5,0,0.6,0l0,0
						c0.2,0,0.5-0.1,0.7-0.2l0,0c0.2-0.2,0.5-0.3,0.7-0.7c0,0-0.1,0.1-0.1,0.2c0.3-0.4,0.4-0.8,0.4-1.3c0-0.1,0-0.2,0-0.2l0,0
						c0,0,0,0,0-0.1c0-0.1,0-0.1,0-0.2c0,0.1,0,0.1,0,0.2c0-0.1,0-0.2-0.1-0.3v-0.1l0,0c0-0.1,0-0.1,0,0c0-0.1,0-0.1-0.1-0.2
						c0-0.1-0.1-0.3-0.1-0.4s-0.2-0.5-0.2-0.6l0,0c0-0.2-0.1-0.2-0.1-0.3v-0.1l-0.1-0.2c0-0.2-0.1-0.2,0-0.1
						c-0.2-0.4-0.1-0.3-0.2-0.6l0,0c0-0.2-0.1-0.3-0.1-0.4c0-0.2-0.1-0.5-0.1-0.8c-0.1-0.4,0-0.8,0.2-1.1c-0.1,0.1,0.2-0.2,0.2-0.3
						c0,0,0.1-0.1,0,0c0.2-0.2,0.4-0.3,0.6-0.4c0.1,0-0.1,0,0,0c0,0,0.1-0.1,0.2-0.1c0,0-0.1,0-0.1,0.1c0.3-0.1,0.4-0.2,0.4-0.2
						c0.2,0,0.2,0,0.4,0c0.1,0,0.2,0-0.1,0c0.2,0,0.8,0.2,0.8,0.2c0.1,0,0.2,0.1,0.2,0.1c0.2,0.2,0.3,0.2,0.5,0.2h-0.1
						c0.1,0,0.2,0.1,0.4,0.2l0,0c0.5,0.2,0.2,0.1,0.6,0.4l0,0c0.1,0,0.4,0.3,0.7,0.3c0,0-0.1,0-0.1-0.1c0.2,0.1,0.5,0.2,0.6,0.2H134
						c0.5,0.1,0.1,0,0.4,0c0.1,0-0.1,0.1,0.2,0c0.2,0,0.6-0.2,0.9-0.2c-0.1,0-0.2,0,0,0c0.2-0.1,0.5-0.3,0.6-0.5l0,0
						c0.1-0.2,0.2-0.6,0.1-0.7c0.1-0.1,0-0.4-0.1-0.6c-0.1-0.2-0.2-0.5-0.2-0.5c-0.1-0.2-0.2-0.3-0.2-0.5l0,0
						c-0.2-0.3-0.2-0.4-0.4-0.5c-0.1-0.1,0,0,0,0c-0.3-0.4-0.4-0.5-0.7-0.7v-0.1c-0.1-0.1-0.5-0.5-1-0.7c0,0,0,0,0.1,0
						c-0.2-0.2-0.5-0.2-0.8-0.3c-0.3-0.1-0.5-0.1-0.6-0.1c-0.2,0-0.2,0-0.4,0c0.5,0.1-0.1,0,0.2,0.1c-0.2,0-0.5-0.1-0.2-0.1l0,0
						c0.1-0.1-0.6-0.1-0.5-0.1c-0.9,0-1.8,0.2-2.7,0.3h0.1c-0.1,0-0.2,0-0.3,0.1c-0.1,0-0.1,0,0.1-0.1c-0.2,0-0.3,0.1-0.4,0.2
						c-0.4,0.1,0.2-0.1,0-0.1l-0.2,0.1h0.1c-0.2,0.1-0.2,0.1-0.4,0.2c-0.2,0-0.1,0-0.2,0c0,0,0,0-0.1,0l-0.4,0.1h0.2
						c-0.2,0.1-0.3,0.1-0.2,0.1c-0.2,0-1.3,0.5-1.4,0.5c-0.2,0.1-0.4,0.2-0.7,0.3c0.1,0,0.2,0-0.1,0.1c0.1-0.2-0.5,0.2-0.6,0.2
						c0.2,0-0.6,0.3-0.4,0.2c-0.2,0.1,0,0-0.2,0c-0.5,0.2-1,0.5-1.5,0.8c0,0,0.1,0,0,0.1l-0.3,0.1c-0.1,0.1-0.1,0.1-0.3,0.2
						c0,0,0.1,0,0,0c-0.5,0.3-1.1,0.6-1.5,0.9c-0.5,0.4-1,0.8-1.5,1.1c0.2-0.1,0.1,0-0.1,0.1c0.1-0.1,0,0,0.1,0l-0.5,0.3
						c-0.1,0.1-0.5,0.3-0.5,0.4l0.2-0.1c-0.2,0.2,0.3-0.1,0.3,0c0.2-0.2,0.5-0.3,0.8-0.6c0.1-0.1-0.1,0.1,0,0.1
						c0.1-0.1,0.2-0.2,0.3-0.3l0,0c0.5-0.4,0.7-0.5,1.3-0.9h-0.1c0.2-0.1,0.2-0.1,0.2-0.2c0.2-0.2-0.4,0.2-0.2,0.1
						c0.2-0.1,0.9-0.5,1.1-0.5c0.2-0.2-0.1,0,0.2-0.2h0.1v-0.1c0.2-0.1,0.2-0.1,0.2-0.1s-0.1,0.1-0.2,0.1c0.2-0.1,0.5-0.3,0.5-0.3
						l-0.2,0.1c0.5-0.3,1.2-0.7,1.7-1h-0.1c0.4-0.2,0.3-0.2,0.8-0.4l0,0c0.1-0.1,0.2-0.1,0.3-0.2c-0.1,0.1,0.2-0.1,0.1,0
						c0.5-0.2,0.2-0.2,0.5-0.3h0.1c0.1-0.1,0.1-0.1,0.3-0.2c-0.2,0.1,0.2,0-0.1,0.1c0.5-0.2,0.7-0.3,1-0.3c0.2-0.2-0.5,0.1-0.3,0.1
						c-0.2,0,0.2-0.1,0.3-0.2c0.2-0.1,0.3,0,0.7-0.2c-0.1,0-0.1,0-0.1,0c0.2,0,0.3-0.1,0.5-0.2c0.1-0.1,0.2-0.1,0.2-0.2l-0.4,0.1
						c0.2-0.1,0.4-0.2,0.8-0.2c0,0-0.2,0.1-0.2,0.1c0.1,0,0.2-0.1,0.3-0.1c0,0.1-0.5,0.2-0.7,0.2c0.2,0,0.5-0.2,0.3-0.1
						c0.2-0.1,0.4-0.1,0.7-0.2l0,0c0.1,0,0.2-0.1,0.2-0.1l-0.2,0.1c0.2-0.1,0.5-0.1,0.7-0.1c-0.5,0.1-0.1,0-0.3,0
						c0.5-0.1,0.3,0,1-0.1c-0.1,0-0.3,0-0.2,0c0.2,0,0.3,0,0.4,0c0.5,0-0.1,0,0.1-0.1c0.2,0,0.2,0,0.4-0.1l0,0c0.5,0,0.2-0.1,0.5,0
						h-0.2h0.2h-0.1c0.2,0,0.3,0,0.5,0.1c-0.1,0,0-0.1,0.2,0c0.2,0-0.1,0,0.2,0.1c-0.1,0-0.2,0-0.3,0h-0.1c0.2,0.1,0.4,0.1,0.5,0.1
						c0,0-0.1,0-0.1-0.1l0.5,0.1c0.1,0,0,0-0.1,0c0.1,0,0.2,0.1,0.3,0.1c-0.1,0-0.1,0-0.2,0c0.2,0,0.3,0.1,0.4,0.2
						c0,0,0.2,0.2,0.2,0.1c0.2,0.1,0.5,0.2,0.8,0.5c0,0,0.1,0,0.1,0.1c0.2,0.2,0.4,0.4,0.6,0.6l0.1,0.2c0.2,0.2-0.1-0.2,0.2,0.2
						c0.2,0.2,0,0.1,0.1,0.2c0.1,0.2,0.2,0.4,0.3,0.6C135.7,197.5,135.6,197.4,135.6,197.3z M134.6,199.8c0.1,0,0.2-0.1,0.2-0.1
						C134.8,199.7,134.7,199.7,134.6,199.8z M129.8,198.5c0.1,0,0.2,0,0.2-0.1C130,198.5,130,198.5,129.8,198.5z M126.3,203.6
						L126.3,203.6C126.2,203.8,126.2,203.7,126.3,203.6z M126.6,203.4L126.6,203.4c0,0-0.1,0.1-0.2,0.1
						C126.5,203.5,126.5,203.5,126.6,203.4z M127.5,195.1L127.5,195.1C127.4,195.2,127.5,195.2,127.5,195.1z"/>
					<path class="st10" d="M130.4,198.4L130.4,198.4C130.5,198.4,130.5,198.4,130.4,198.4z"/>
					<path class="st10" d="M134.4,195.7C134.4,195.7,134.4,195.7,134.4,195.7C134.4,195.7,134.4,195.7,134.4,195.7L134.4,195.7z"/>
					<path class="st10" d="M128.1,206.6c0.1,0,0.1,0,0.2,0C128.1,206.6,128.1,206.6,128.1,206.6z"/>
					<path class="st10" d="M128.1,203.2c-0.1,0-0.2,0-0.2-0.1C128,203.2,128.1,203.2,128.1,203.2
						C128.1,203.2,128.1,203.2,128.1,203.2z"/>
					<path class="st10" d="M128.9,204.5C128.9,204.6,128.9,204.6,128.9,204.5L128.9,204.5C128.9,204.5,128.9,204.4,128.9,204.5z"/>
					<path class="st10" d="M128.3,203.3c0,0,0.2,0.1,0.2,0.2l0,0C128.5,203.5,128.4,203.4,128.3,203.3z"/>
					<path class="st10" d="M128.5,203.5L128.5,203.5C128.6,203.5,128.6,203.5,128.5,203.5z"/>
					<path class="st10" d="M126.9,203.2L126.9,203.2C127,203.2,126.6,203.4,126.9,203.2z"/>
					<polygon class="st10" points="128.4,203.4 128.3,203.3 128.2,203.3 					"/>
					<path class="st10" d="M127.3,203.2c0.1,0,0.2,0,0.2,0c0,0,0,0,0.1,0C127.5,203.2,127.3,203.2,127.3,203.2z"/>
					<path class="st10" d="M127.6,203.2c0.1,0,0.1,0,0.2,0C127.8,203.2,127.7,203.2,127.6,203.2z"/>
					<path class="st10" d="M128.1,203.2L128.1,203.2c-0.1,0-0.2-0.1-0.2-0.1C128,203.2,128,203.2,128.1,203.2z"/>
					<path class="st10" d="M126,204.8c0,0.1,0,0.2,0,0.2C126,205,126,204.9,126,204.8L126,204.8z"/>
					<path class="st10" d="M126.1,204.1L126.1,204.1L126.1,204.1L126.1,204.1z"/>
					<path class="st10" d="M126,204.8C126,204.8,126.1,205.1,126,204.8C126,204.8,126,204.5,126,204.8z"/>
					<polygon class="st10" points="128.4,206.6 128.4,206.6 128.4,206.7 					"/>
					<path class="st10" d="M129.6,204.2c0.1,0.3,0,0.1,0.1,0.3c0,0.1,0-0.2,0-0.2C129.6,204.2,129.6,204.1,129.6,204.2z"/>
					<path class="st10" d="M129.7,204.4L129.7,204.4C129.7,204.4,129.7,204.4,129.7,204.4z"/>
					<polygon class="st10" points="117.8,200.4 117.7,200.4 117.8,200.4 					"/>
					<path class="st10" d="M117.6,200.6L117.6,200.6l-0.2,0.1C117.5,200.7,117.6,200.6,117.6,200.6z"/>
					<path class="st10" d="M134.1,199.7L134.1,199.7c0,0,0.1,0,0.2,0H134.1z"/>
					<path class="st10" d="M135.9,198.6L135.9,198.6L135.9,198.6z"/>
					<path class="st10" d="M135.3,196.8c0.1,0.1,0.1,0.2,0.2,0.2C135.3,196.9,135.3,196.8,135.3,196.8z"/>
				</g>
			</g>
		</g>
	</g>
	<g>
		<g>
			<g>
				<g>
					<path class="st10" d="M111.8,201.7C111.8,201.6,111.8,201.7,111.8,201.7C111.7,201.8,111.8,201.7,111.8,201.7z"/>
					<path class="st10" d="M112.2,201.4L112.2,201.4c0,0,0-0.1-0.1-0.2C112.2,201.3,112.2,201.4,112.2,201.4z"/>
					<path class="st10" d="M111.5,201.2c0.1-0.1,0.3-0.2,0.5-0.1l0,0c0,0,0.1,0,0.1,0.1C111.8,201,111.5,201.1,111.5,201.2z"/>
					<path class="st10" d="M111.2,201.6c0,0,0,0.2,0-0.2l0,0C111.2,201.6,111.2,201.6,111.2,201.6z"/>
					<path class="st10" d="M111.2,201.5C111.2,201.4,111.2,201.6,111.2,201.5L111.2,201.5z"/>
					<path class="st10" d="M111.3,202c0-0.1-0.1-0.1-0.1-0.2L111.3,202C111.3,202.1,111.3,202,111.3,202z"/>
					<path class="st10" d="M111.4,202.1L111.4,202.1C111.3,202,111.3,202.1,111.4,202.1z"/>
					<path class="st10" d="M111.2,201.9c0,0.1,0.1,0.1,0.1,0.2C111.3,202,111.3,202,111.2,201.9C111.3,202,111.2,201.9,111.2,201.9z
						"/>
					<path class="st10" d="M111.2,201.8C111.2,201.7,111.2,201.6,111.2,201.8c0-0.2,0-0.2,0-0.2
						C111.2,201.6,111.2,201.7,111.2,201.8z"/>
					<path class="st10" d="M111.4,201.2L111.4,201.2c0.1-0.1,0.2-0.1,0.2-0.2C111.5,201.1,111.4,201.2,111.4,201.2z"/>
					<path class="st10" d="M112.1,202.3C112,202.3,112,202.3,112.1,202.3c-0.1,0-0.2,0-0.2,0C111.9,202.3,112,202.3,112.1,202.3z"/>
					<path class="st10" d="M112,202.3c0.1,0,0.1,0,0.2-0.1C112,202.3,112,202.3,112,202.3z"/>
					<path class="st10" d="M111.4,202.1c-0.1-0.1-0.1-0.2-0.2-0.2C111.3,202,111.3,202.1,111.4,202.1L111.4,202.1z"/>
					<path class="st10" d="M112.5,201.9L112.5,201.9C112.5,202,112.5,201.9,112.5,201.9L112.5,201.9z"/>
					<path class="st10" d="M112.6,201.6C112.6,201.6,112.7,201.5,112.6,201.6c0-0.2,0-0.2,0-0.3
						C112.6,201.4,112.7,201.5,112.6,201.6z"/>
					<path class="st10" d="M112.6,201.2c0,0.1,0,0.1,0.1,0.2C112.6,201.3,112.6,201.2,112.6,201.2z"/>
					<path class="st10" d="M112.4,202.2C112.4,202.2,112.4,202.2,112.4,202.2L112.4,202.2L112.4,202.2z"/>
					<path class="st10" d="M112.4,202.1L112.4,202.1C112.5,202,112.5,202,112.4,202.1C112.5,202,112.5,202,112.4,202.1z"/>
					<path class="st10" d="M112.4,202.2L112.4,202.2L112.4,202.2z"/>
					<path class="st10" d="M111.8,202.3C111.8,202.3,112.1,202.3,111.8,202.3C111.8,202.3,111.8,202.3,111.8,202.3z"/>
					<path class="st10" d="M112.3,202.2c-0.1,0-0.1,0.1-0.2,0.1l0,0C112.1,202.3,112.2,202.3,112.3,202.2z"/>
					<polygon class="st10" points="112.4,202.2 112.3,202.2 112.3,202.2 					"/>
					<path class="st10" d="M112.6,201.4c0-0.1,0-0.2-0.1-0.2C112.6,201.3,112.6,201.4,112.6,201.4
						C112.6,201.5,112.6,201.6,112.6,201.4z"/>
					<path class="st10" d="M112.6,201.8L112.6,201.8L112.6,201.8z"/>
					<path class="st10" d="M112,200.7L112,200.7L112,200.7z"/>
					<path class="st10" d="M112.6,201.5c0,0.1,0,0.1,0,0.2C112.6,201.6,112.6,201.6,112.6,201.5L112.6,201.5z"/>
					<path class="st10" d="M112.5,201L112.5,201C112.5,201,112.5,201,112.5,201z"/>
					<path class="st10" d="M112.6,201.7L112.6,201.7L112.6,201.7z"/>
					<path class="st10" d="M112.6,201.7L112.6,201.7C112.6,201.7,112.6,201.7,112.6,201.7C112.6,201.8,112.6,201.8,112.6,201.7z"/>
					<path class="st10" d="M111.7,200.7c0,0,0.2,0,0.3,0.1c0.2,0.1,0.1,0-0.1-0.1C111.9,200.7,111.9,200.7,111.7,200.7
						c0.2,0,0.4,0.1,0.3,0.1C111.8,200.7,111.8,200.7,111.7,200.7c0.2,0-0.2,0-0.2,0C111.6,200.7,111.7,200.7,111.7,200.7
						L111.7,200.7z"/>
					<path class="st10" d="M112.2,200.8L112.2,200.8c0,0-0.1-0.1-0.2-0.1c-0.1-0.1-0.2-0.1-0.2-0.1
						C112.1,200.7,112.2,200.7,112.2,200.8L112.2,200.8z"/>
					<path class="st10" d="M112.5,201C112.5,201,112.4,200.9,112.5,201c0,0.1,0,0,0.1,0.2C112.5,200.9,112.6,201.3,112.5,201
						c0,0.1,0.1,0.1,0.1,0.2C112.5,201.2,112.5,201.1,112.5,201L112.5,201L112.5,201L112.5,201C112.5,201.1,112.5,201.1,112.5,201
						L112.5,201L112.5,201C112.5,201,112.5,201,112.5,201L112.5,201L112.5,201c-0.1-0.1-0.1-0.2-0.2-0.2
						C112.4,200.9,112.5,201,112.5,201z"/>
					<path class="st10" d="M112,202.3L112,202.3L112,202.3z"/>
					<path class="st10" d="M112.1,202.3L112.1,202.3C112,202.3,112.1,202.3,112.1,202.3C112,202.3,111.9,202.3,112.1,202.3
						L112.1,202.3c0.1,0,0.2-0.1,0.2-0.1C112.2,202.3,112.2,202.3,112.1,202.3z"/>
					<path class="st10" d="M112.6,201.7c0-0.1,0-0.2,0-0.2C112.6,201.6,112.6,201.6,112.6,201.7L112.6,201.7
						C112.6,201.6,112.6,201.7,112.6,201.7z"/>
					<path class="st10" d="M111.9,200.7L111.9,200.7c0,0-0.1,0-0.2,0C111.8,200.6,111.9,200.7,111.9,200.7z"/>
					<path class="st10" d="M111.6,200.6L111.6,200.6L111.6,200.6C111.5,200.6,111.5,200.6,111.6,200.6z"/>
					<path class="st10" d="M105.9,203.4L105.9,203.4C105.9,203.3,105.9,203.4,105.9,203.4z"/>
					<path class="st10" d="M106.2,203.8L106.2,203.8L106.2,203.8z"/>
					<path class="st10" d="M111.3,198.8c-0.1-0.1-0.2-0.1-0.2-0.1l0,0C111.2,198.8,111.2,198.8,111.3,198.8z"/>
					<path class="st10" d="M109.6,203L109.6,203C109.6,202.9,109.6,202.9,109.6,203C109.7,202.9,109.6,203,109.6,203z"/>
					<path class="st10" d="M109.7,203.1l-0.1,0.2C109.7,203.2,109.7,203.2,109.7,203.1z"/>
					<path class="st10" d="M105.3,200.4L105.3,200.4C105.3,200.5,105.3,200.4,105.3,200.4z"/>
					<path class="st10" d="M112,202.7c0.1,0,0.2,0,0.2-0.1C112.1,202.7,112.1,202.7,112,202.7z"/>
					<path class="st10" d="M106.2,203.5C106.2,203.4,106.2,203.4,106.2,203.5L106.2,203.5z"/>
					<path class="st10" d="M112.5,202.5C112.5,202.6,112.5,202.6,112.5,202.5c-0.1,0.1-0.2,0.1-0.2,0.2
						C112.4,202.6,112.5,202.6,112.5,202.5z"/>
					<path class="st10" d="M114.1,197.7L114.1,197.7L114.1,197.7z"/>
					<path class="st10" d="M116,200.2L116,200.2C115.9,200.1,115.9,200.1,116,200.2z"/>
					<path class="st10" d="M110.6,201.5C110.7,201.4,110.7,201.4,110.6,201.5L110.6,201.5z"/>
					<path class="st10" d="M110.8,201.1L110.8,201.1L110.8,201.1z"/>
					<path class="st10" d="M112.8,201.9L112.8,201.9L112.8,201.9z"/>
					<path class="st10" d="M110.7,201.3L110.7,201.3C110.7,201.4,110.7,201.4,110.7,201.3z"/>
					<path class="st10" d="M110.7,201.3L110.7,201.3C110.7,201.3,110.7,201.3,110.7,201.3z"/>
					<path class="st10" d="M110.6,201.6c0-0.1,0-0.1,0-0.2l0,0C110.6,201.5,110.6,201.5,110.6,201.6z"/>
					<path class="st10" d="M108.6,196.6L108.6,196.6C108.7,196.6,108.6,196.6,108.6,196.6z"/>
					<path class="st10" d="M109.7,199.3L109.7,199.3L109.7,199.3z"/>
					<path class="st10" d="M109.6,199.5c0-0.1,0.1-0.2,0.1-0.2l-0.1,0.1C109.6,199.4,109.6,199.5,109.6,199.5z"/>
					<path class="st10" d="M105.4,202.2v0.2C105.3,202.1,105.3,201.9,105.4,202.2c0,0,0.2,0.7,0.2,0.7l0.1,0.2v-0.1
						c0.1,0.2,0.1,0.2,0.2,0.4c0.1,0.1,0.1,0.2,0.1,0.1l0.2,0.2c0,0.1,0,0.1,0,0c0.1,0.1,0.2,0.2,0.2,0.3l0,0
						c0.1,0.1,0.2,0.2,0.2,0.2c0.1,0.1,0,0,0,0c0.1,0.1,0.1,0.1,0.2,0.2c0.1,0.1-0.1,0-0.2-0.2c0.1,0.2,0.1,0.2,0.5,0.4
						c-0.1,0-0.1-0.1-0.2-0.1c0.1,0.1,0.2,0.2,0.4,0.3c-0.1,0-0.4-0.2-0.2-0.2c0.1,0,0.2,0.1,0.2,0.1c0,0,0.1,0.1,0.2,0.1l0,0
						c0.2,0,0.2,0,0.2,0c0.2,0,0.2,0.1,0.2,0.1c0.3,0-0.2-0.1,0.2,0c0.2,0,0.4,0,0.7-0.1c0.2-0.1,0,0,0,0c0.1,0,0.1-0.1,0.2-0.1l0,0
						c0.1-0.1,0,0,0.2-0.2c0,0,0.3-0.2,0.5-0.5c0-0.1,0,0,0,0c0.2-0.3,0.1-0.2,0.2-0.5l0.1-0.2c-0.1,0.2,0-0.1,0-0.2
						c0,0.1-0.1,0.1-0.1,0.2c0-0.1,0-0.2,0.1-0.3c0,0,0,0,0,0.1c0,0,0,0,0-0.1s0-0.1,0,0v0.1c0,0.1,0,0.2,0,0.2v-0.1l0,0v-0.1v-0.1
						l0,0c0-0.2,0-0.2,0.1-0.4c0-0.3-0.1-0.5-0.2-0.9c0,0.1,0,0,0.1,0c0,0.2,0.1,0.3,0.1,0.5c0-0.2,0-0.1,0-0.1
						c0-0.2-0.1-0.2-0.1-0.4c0,0,0-0.1,0-0.2c0,0.1-0.1-0.3-0.1-0.5c0,0,0,0,0.1,0.2c0-0.2-0.1-0.3-0.1-0.5c0,0.1,0,0.1,0,0.1
						c0-0.1-0.1-0.4,0-0.3v0.1c-0.1-0.3-0.1-0.9-0.1-1v0.1c0-0.2,0.1-0.4,0.2-0.5c0,0.1,0.2-0.1,0,0.2c0.1-0.1,0.1-0.2,0.2-0.2
						c0,0-0.1,0.1-0.1,0c0.2-0.1,0.1-0.1,0.3-0.2c-0.1,0,0-0.1,0.1-0.1c0,0,0,0,0,0.1c0.1-0.1,0.2-0.1,0.3-0.1c-0.1,0,0,0,0.1,0
						c0,0,0.2,0,0.3,0h-0.2c0.3,0.1,0.3,0,0.6,0.2c-0.1,0-0.1,0,0.1,0.1c0.1,0,0.3,0.2,0.5,0.4v0.1l0.2,0.2
						c-0.1-0.1-0.4-0.4-0.6-0.5c0.1,0.1,0.1,0.1,0.2,0.2c0.1,0.1-0.1-0.1-0.2-0.1c0.1,0.1,0.2,0.2,0.3,0.3l0.2,0.2
						c-0.1-0.2-0.2-0.2-0.3-0.4c0,0,0.2,0.2,0.4,0.5c0.1,0.1-0.1,0-0.1,0s0.2,0.2,0.2,0.2l-0.1-0.1c0.1,0.2,0.2,0.2,0.2,0.5
						c0,0.1,0.1,0.2,0.1,0.2c0-0.1,0-0.2,0.1-0.1c0,0,0.2,0.4,0.2,0.5c0,0.2-0.1-0.2-0.1-0.1c0,0,0,0.1,0.1,0.1c0,0.1,0,0,0,0.2
						c0,0,0.1,0.3,0,0.1c0,0.2,0,0.2,0,0.4c0-0.1,0,0.2,0,0.3c0,0,0,0,0,0.1c-0.1,0.3-0.2,0.5-0.5,0.6c0,0-0.2,0.1-0.1,0.1
						c-0.1,0-0.1,0.1-0.2,0.1c-0.2,0.1,0.2-0.1,0.1,0c0,0-0.2,0.1-0.4,0.1c0.1,0,0.3,0,0.5-0.1c0,0-0.2,0.2-0.5,0.2
						c-0.2,0-0.1,0-0.2,0c-0.2-0.1-0.3-0.2-0.4-0.2c-0.1-0.1-0.2-0.1-0.2-0.3c-0.1-0.2,0,0,0-0.1c0.2,0.2,0.2,0.2,0.3,0.3
						c-0.1,0-0.1-0.1-0.2-0.2c0.1,0.1,0.2,0.2,0.2,0.2c-0.1,0-0.2-0.2-0.4-0.3c-0.2-0.2-0.2-0.5-0.2-0.6c0-0.1,0-0.2,0-0.2v0.2
						c0,0.1,0-0.2,0-0.1c0-0.2,0.1-0.4,0.2-0.5l0,0c0,0-0.1,0.2-0.2,0.2c0-0.1,0.2-0.3,0.3-0.3c-0.1,0-0.1,0.1-0.2,0.1
						c0.1-0.2,0.3-0.2,0.5-0.2c-0.1,0-0.1,0-0.2,0.1c0.1,0-0.1,0-0.2,0.1c-0.1,0.1-0.2,0.2-0.1,0.1c-0.2,0.1-0.2,0.2-0.2,0.4
						c0,0,0-0.1,0,0.1l0,0l0,0l0,0l0,0v-0.1c0,0.1-0.1,0.4,0,0.5c0,0.1,0-0.1,0,0c0,0.1,0,0.1,0,0.2c0,0,0.1,0.2,0,0
						c0,0.1,0.1,0.2,0.1,0.2c0.1,0.2,0.2,0.2,0.2,0.3c0.1,0.1,0.2,0.2,0.2,0.1c0.1,0.1,0.2,0.2,0.3,0.2l0,0c0.3,0.1,0.7,0.1,1.1-0.2
						c0.1-0.1,0.2-0.2,0.3-0.3l0,0c0.1-0.2,0.2-0.4,0.2-0.5c0.1-0.2,0-0.7-0.1-0.9l0,0c-0.1-0.2-0.2-0.3-0.2-0.5l0,0
						c-0.1-0.2-0.2-0.4-0.4-0.6c0,0,0.1,0.1,0.1,0.2c-0.2-0.3-0.5-0.5-0.8-0.8c-0.1-0.1-0.1-0.1-0.2-0.1l0,0l0,0l-0.1-0.1
						c0,0,0.1,0,0.1,0.1c-0.1,0-0.2-0.1-0.2-0.1l0,0l0,0c-0.1,0-0.1,0,0,0c-0.1,0-0.1,0-0.2,0c-0.1-0.1-0.2,0-0.3-0.1
						c-0.1,0-0.5,0.1-0.5,0.1l0,0c-0.1,0-0.2,0.1-0.2,0.2h-0.1c-0.1,0.1-0.1,0.2-0.2,0.2c-0.1,0.1-0.2,0.2-0.1,0
						c-0.2,0.3-0.2,0.2-0.2,0.5l0,0c0,0.1,0,0.2,0,0.3c0,0.2,0.1,1.1,0.2,1.6c0-0.1,0,0.2,0.1,0.3c0,0,0,0.1,0,0
						c0.1,0.3,0,0.4,0,0.6c0,0,0-0.1,0,0c0,0,0,0.1,0,0.2v-0.1c0,0.3,0,0.3,0,0.3c0,0.2-0.1,0.2-0.1,0.3c0,0.1-0.1,0.2,0-0.1
						c0,0.1-0.2,0.6-0.2,0.6l-0.1,0.2c-0.1,0.2-0.2,0.2-0.2,0.4l0.1-0.1c0,0.1-0.2,0.2-0.2,0.2l0,0c-0.4,0.2-0.2,0.1-0.5,0.2l0,0
						c0,0.1-0.4,0-0.6,0h0.1c-0.2,0-0.3-0.1-0.5-0.2h0.1c-0.3-0.2-0.1,0-0.3-0.1c0,0,0.1,0-0.1-0.1c-0.1,0-0.5-0.2-0.5-0.4
						c0,0.1,0.1,0.1,0,0c-0.2-0.2-0.2-0.4-0.4-0.5l0,0c-0.1-0.1-0.2-0.4-0.3-0.5c0-0.2-0.4-0.8-0.2-0.8c0-0.2-0.1-0.2-0.1-0.4l0,0
						c0-0.2-0.1-0.4-0.1-0.5c0-0.1,0,0,0,0c0-0.3,0-0.3,0-0.8l0,0c0-0.1,0.2-0.5,0.2-0.9c0,0,0,0,0,0.1c0.2-0.4,0.5-0.8,0.5-1.1
						c0.1-0.1,0.1-0.2,0.2-0.2c-0.2,0.3,0-0.1-0.1,0.1c0.1-0.2,0.2-0.3,0.2-0.2l0,0c0,0.1,0.3-0.3,0.3-0.3c0.5-0.5,1.1-0.9,1.7-1.2
						h-0.1l0.2-0.1c0.1,0,0.1,0-0.1,0.1c0.1,0,0.2-0.2,0.2-0.2c0.3-0.1-0.1,0.1,0,0.1l0.2-0.1l0,0c0.1-0.1,0.1-0.1,0.3-0.2
						c0.2,0,0.1,0,0.2,0c0,0,0,0,0.1,0l0.3-0.1H110c0.2-0.1,0.3-0.1,0.2-0.1c0.2,0,1.1,0,1.2,0c0.2,0,0.4,0.1,0.6,0.1
						c-0.1,0-0.1-0.1,0.1,0c-0.1,0.1,0.3,0.2,0.5,0.2c-0.1-0.1,0.5,0.2,0.3,0.1c0.2,0.1,0,0,0.1,0.1c0.4,0.2,0.8,0.4,1.1,0.7
						c0,0-0.1-0.1,0.1,0c0.1,0.1,0.1,0.2,0.2,0.2c0.1,0.1,0.1,0,0.2,0.2c0,0,0-0.1,0,0c0.7,0.6,1.4,1.3,1.9,2.1
						c-0.1-0.2,0-0.1,0.1,0c0-0.1,0,0,0-0.1l0.2,0.4c0.1,0,0.2,0.4,0.3,0.4l-0.1-0.1c0.2,0.1,0-0.2,0.1-0.3
						c-0.2-0.2-0.2-0.5-0.5-0.7c0-0.1,0.1,0,0.1,0c-0.1-0.1-0.2-0.2-0.2-0.2l0,0c-0.3-0.4-0.5-0.5-0.8-1v0.1
						c-0.1-0.1-0.1-0.2-0.2-0.2c-0.2-0.1,0.2,0.2,0.1,0.2c-0.1-0.2-0.6-0.6-0.6-0.7c-0.2-0.2,0,0.1-0.2-0.1v-0.1h-0.1
						c-0.1-0.1-0.2-0.2-0.2-0.2l0.1,0.1c-0.1-0.2-0.4-0.3-0.4-0.3l0.2,0.1c-0.5-0.3-0.9-0.7-1.4-0.8l0,0c-0.4-0.2-0.2-0.2-0.7-0.2
						l0,0c-0.1,0-0.2-0.1-0.3-0.1c0.1,0-0.2-0.1-0.1-0.1c-0.4-0.1-0.2,0-0.5,0h-0.1c-0.1,0-0.1,0-0.3,0c0.2,0-0.2-0.1,0.1-0.1
						c-0.5-0.1-0.6,0-0.8,0c-0.2,0.1,0.4,0,0.3,0c0.1,0-0.2,0.1-0.3,0.1c-0.2,0-0.2-0.1-0.6,0h0.1c-0.2,0-0.2,0.1-0.4,0.1
						c-0.1,0.1-0.2,0.1-0.2,0.2c0.1-0.1,0.2-0.1,0.3-0.2c-0.2,0.1-0.3,0.2-0.6,0.3c0,0,0.1-0.1,0.2-0.1c-0.1,0-0.2,0.1-0.2,0.1
						c0-0.1,0.4-0.2,0.5-0.2c-0.1,0-0.3,0.2-0.2,0.1c-0.1,0.1-0.3,0.2-0.5,0.3l0,0c0,0-0.1,0.1-0.2,0.1l0.1-0.1
						c-0.2,0.2-0.3,0.2-0.5,0.3c0.3-0.2,0.1,0,0.2-0.1c-0.4,0.3-0.3,0.1-0.7,0.5c0.1-0.1,0.2-0.2,0.2-0.1c-0.1,0.1-0.2,0.2-0.2,0.2
						c-0.2,0.2,0.1,0-0.1,0.1c-0.1,0.1-0.1,0.2-0.2,0.2l0,0c-0.3,0.3,0,0.1-0.3,0.4c0-0.1,0.1-0.1,0.1-0.2c-0.1,0.1-0.1,0.1-0.1,0.2
						v-0.1c-0.1,0.2-0.2,0.2-0.3,0.4c0.1,0,0,0.1-0.1,0.2c-0.1,0.1,0-0.1-0.1,0.2c0-0.1,0-0.2,0.1-0.2V199c-0.1,0.1-0.2,0.3-0.2,0.4
						l0.1-0.1c-0.1,0.1-0.1,0.2-0.2,0.3c0,0.1,0,0,0-0.1c0,0.1-0.1,0.2-0.1,0.2c0,0,0,0,0-0.2c-0.1,0.1-0.1,0.2-0.2,0.3
						c0,0-0.1,0.2-0.1,0.1c-0.1,0.2-0.1,0.5-0.2,0.7v0.1c-0.1,0.2-0.1,0.5-0.1,0.8v0.2c0,0.2,0-0.2,0.1,0.2c0.1,0.2,0,0.1,0,0.2
						c0,0.2,0.1,0.4,0.2,0.6C105.5,202.3,105.5,202.3,105.4,202.2z M106.9,204.4c-0.1,0-0.2-0.1-0.2-0.1S106.8,204.4,106.9,204.4z
						 M109.8,202.6c0,0.1,0,0.1,0,0.2C109.7,202.8,109.7,202.7,109.8,202.6z M110.9,202.3L110.9,202.3
						C110.9,202.3,110.9,202.3,110.9,202.3z M110.8,202C110.7,201.9,110.7,201.9,110.8,202C110.8,202.1,110.8,202.1,110.8,202
						C110.8,202,110.8,202,110.8,202z M109.3,196.6L109.3,196.6C109.4,196.6,109.3,196.6,109.3,196.6z"/>
					<path class="st10" d="M109.7,203.1L109.7,203.1C109.7,203.2,109.7,203.2,109.7,203.1z"/>
					<path class="st10" d="M105.3,200.4L105.3,200.4L105.3,200.4L105.3,200.4z"/>
					<path class="st10" d="M112.8,201L112.8,201C112.8,200.9,112.8,200.9,112.8,201z"/>
					<path class="st10" d="M111,200.8c-0.1,0-0.1,0.1-0.2,0.1C110.9,200.9,111,200.8,111,200.8L111,200.8z"/>
					<path class="st10" d="M112.3,200.8C112.3,200.9,112.3,200.9,112.3,200.8L112.3,200.8C112.2,200.8,112.2,200.8,112.3,200.8z"/>
					<path class="st10" d="M111.2,200.7c0,0,0.1-0.1,0.2-0.1l0,0C111.4,200.7,111.2,200.7,111.2,200.7z"/>
					<path class="st10" d="M111.4,200.7L111.4,200.7C111.5,200.7,111.5,200.7,111.4,200.7z"/>
					<path class="st10" d="M110.7,201.7C110.7,201.6,110.6,201.6,110.7,201.7C110.6,201.6,110.7,201.9,110.7,201.7z"/>
					<path class="st10" d="M111.2,200.7L111.2,200.7L111.2,200.7C111.2,200.7,111.2,200.7,111.2,200.7z"/>
					<path class="st10" d="M110.7,201.3c0-0.1,0-0.1,0.1-0.2c0,0,0,0,0-0.1C110.7,201.3,110.7,201.3,110.7,201.3z"/>
					<path class="st10" d="M110.8,201.1c0-0.1,0.1-0.1,0.1-0.2C110.9,201,110.8,201.1,110.8,201.1z"/>
					<path class="st10" d="M111,200.8L111,200.8c-0.1,0.1-0.1,0.1-0.2,0.2C110.9,200.9,111,200.9,111,200.8z"/>
					<path class="st10" d="M111.7,202.7c0.1,0,0.2,0,0.2,0S111.8,202.7,111.7,202.7C111.7,202.7,111.6,202.7,111.7,202.7z"/>
					<path class="st10" d="M111.2,202.5L111.2,202.5L111.2,202.5C111.2,202.5,111.2,202.5,111.2,202.5z"/>
					<path class="st10" d="M111.7,202.6C111.7,202.7,111.9,202.7,111.7,202.6C111.7,202.6,111.5,202.6,111.7,202.6z"/>
					<polygon class="st10" points="112.8,200.7 112.8,200.7 112.8,200.7 					"/>
					<path class="st10" d="M111.1,198.9c0.2,0.1,0.1,0,0.2,0.1c0.1,0-0.2-0.1-0.1-0.1C111.2,198.9,111.1,198.9,111.1,198.9z"/>
					<path class="st10" d="M111.2,199C111.2,199,111.3,199,111.2,199C111.3,199,111.2,199,111.2,199z"/>
					<polygon class="st10" points="116.2,200.7 116.3,200.8 116.3,200.7 					"/>
					<path class="st10" d="M116.5,200.9L116.5,200.9L116.5,200.9C116.5,201,116.5,200.9,116.5,200.9z"/>
					<path class="st10" d="M107.3,204.6L107.3,204.6C107.3,204.6,107.2,204.6,107.3,204.6L107.3,204.6z"/>
					<path class="st10" d="M105.9,203.2L105.9,203.2L105.9,203.2z"/>
					<path class="st10" d="M105.3,201.6c0,0.1,0,0.2,0,0.2C105.3,201.7,105.3,201.6,105.3,201.6z"/>
				</g>
			</g>
		</g>
	</g>
	<g>
		<path d="M126.1,216.7c-0.2,0.4-0.8,0.3-1-0.1s0.1-1.1-0.5-1.1c-1,0-1.2,1-1.2,2v1.6h1.1v0.1h-1.1v5.7c0,1.1,0.1,1.7,1,1.7v0.1
			h-3.2v-0.1c0.8,0,1-0.5,1-1.7c0-5,0-5.3,0-5.7h-1v-0.1h1c0-0.9,0-1.5,0-1.5c0-1.8,1.2-2.1,2.2-2.1c0.6,0,1,0.2,1.1,0.2
			C126.2,215.8,126.3,216.3,126.1,216.7z"/>
		<path d="M132.5,219.6c0,0.5-0.5,0.7-0.9,0.5c-0.4-0.2-0.4-0.8-0.9-0.5c-0.5,0.2-1.1,1.1-1.4,1.9v3.4c0,1.1,0.1,1.7,1,1.7v0.1h-3.1
			v-0.1c0.8,0,1-0.5,1-1.7v-4c0-1.1-0.1-1.7-1-1.7v-0.1h2.4v0.1c-0.2,0.1-0.2,0.7-0.2,2c0.4-1.4,1.6-2.2,2.1-2.3
			C132,218.9,132.5,219.2,132.5,219.6z"/>
		<path d="M136.3,221.5c-0.1,0.5-0.1,1-0.1,1.5c0.2,2.3,1.4,3.6,3,3.6c1,0,1.8-0.5,2.3-1.1v0.2c-0.5,0.5-1.2,0.9-2.3,1
			c-2.1,0.2-4.2-1.1-4.4-3.6c-0.2-2.3,1.6-4,3.6-4.2c1.8-0.2,3.1,0.8,3.4,2.6H136.3z M136.3,221.4h4.4c-0.2-1.2-0.6-2.4-2.1-2.4
			C137.5,219,136.6,220.1,136.3,221.4z"/>
		<path d="M150,224.7c0,1.3-1,2-2.8,2c-1.4,0-2.2-0.8-2.5-1.2c-0.3-0.5-0.2-1.1,0.2-1.2c0.4-0.2,0.8,0.2,0.8,0.5
			c0,0.5-0.5,0.8-0.2,1.2c0.3,0.3,0.8,0.6,1.7,0.6c1,0,1.7-0.6,1.7-1.4c0-1.8-4-1.9-4-4.5c0-1.1,1-1.8,2.5-1.8
			c1.4,0,1.9,0.6,2.2,1.1c0.3,0.5,0.2,1.1-0.2,1.2c-0.4,0.2-0.8-0.2-0.8-0.5c0-0.5,0.5-0.8,0.1-1.1c-0.3-0.3-0.5-0.5-1.4-0.5
			c-1,0-1.4,0.7-1.4,1.4C146,222.3,150,222.5,150,224.7z"/>
		<path d="M160.8,226.5L160.8,226.5l-3.1,0.1v-0.1c0.8,0,1-0.5,1-1.7v-3.6c0-1.1-0.2-2.2-1.7-2.2c-0.7,0-1.6,0.5-2,1.5v4.2
			c0,1.1,0.1,1.7,1,1.7v0.1h-3.2v-0.1c0.8,0,1-0.5,1-1.7v-7.7c0-1.1-0.1-1.7-1-1.7v-0.1h2.4v0.1c-0.2,0.1-0.2,0.8-0.2,2.3v2.6
			c0.4-0.8,1.1-1.4,2.2-1.4c1.5,0,2.6,0.6,2.6,2.4v3.5C159.9,225.9,160,226.5,160.8,226.5z"/>
	</g>
	<g>
		<path d="M69,226.4L69,226.4c-0.2,0.2-0.4,0.2-0.7,0.2c-0.8,0-1.7-0.2-1.7-1.4c-0.4,0.6-0.8,1.1-1.5,1.3c-1.1,0.4-2.7,0.1-2.7-1.4
			c0.1-1.6,2.3-1.8,3.3-2.1c0.3-0.1,0.6-0.2,0.8-0.4c0-0.5,0-1,0-1.4c0-1.3-0.2-2.2-1.3-2.2c-1,0-1.4,0.3-1.7,0.8
			c-0.2,0.5,0.2,0.7,0.3,1.1c0.1,0.4-0.2,0.8-0.7,0.7c-0.4-0.1-0.6-0.6-0.3-1.2c0.2-0.5,0.8-1.4,2.4-1.4c1.4,0,2.5,0.7,2.5,2.2
			s0,3.8,0,3.8c0,1,0.1,1.6,0.8,1.6C68.7,226.6,68.9,226.5,69,226.4z M66.5,225.1c0-0.1,0-0.2,0-0.3c0,0,0-1.1,0-2.3
			c-0.2,0.2-0.5,0.2-0.8,0.4c-0.8,0.3-2.1,0.4-2.3,1.7c-0.2,1.6,0.9,2,1.8,1.7C65.8,226.1,66.3,225.7,66.5,225.1z"/>
		<path d="M76.2,225.6v0.2c-0.5,0.4-1.1,0.8-2,0.9c-2.1,0.2-4.2-1.1-4.2-3.6c-0.1-2.5,1.4-3.9,3.5-4.1c1.5-0.2,2.6,0.8,2.8,1.4
			c0.2,0.5,0.1,1.1-0.3,1.2c-0.4,0.1-0.8-0.3-0.7-0.7c0.1-0.5,0.5-0.6,0.2-1.1c-0.3-0.5-1.1-0.8-2-0.8c-1.6,0.2-2.3,1.9-2.3,4
			c0.1,2.2,1.4,3.6,3,3.6C74.9,226.7,75.8,226.1,76.2,225.6z"/>
		<path d="M84.6,225.6v0.2c-0.5,0.4-1.1,0.8-2,0.9c-2.1,0.2-4.2-1.1-4.2-3.6c-0.1-2.5,1.4-3.9,3.5-4.1c1.5-0.2,2.6,0.8,2.8,1.4
			c0.2,0.5,0.1,1.1-0.3,1.2c-0.4,0.1-0.8-0.3-0.7-0.7c0.1-0.5,0.5-0.6,0.2-1.1s-1.1-0.8-2-0.8c-1.6,0.2-2.3,1.9-2.3,4
			c0.1,2.2,1.4,3.6,3,3.6C83.3,226.7,84.3,226.1,84.6,225.6z"/>
		<path d="M89.6,226.5L89.6,226.5l-3.1,0.1v-0.1c0.8,0,0.9-0.5,1-1.7v-4c0-1.1-0.1-1.7-1-1.7v-0.1h2.4v0.1c-0.2,0.1-0.2,0.8-0.2,2.3
			v3.3C88.6,225.9,88.7,226.5,89.6,226.5z M87.1,216.7c0-0.5,0.4-0.8,0.8-0.8s0.8,0.4,0.8,0.8c0,0.5-0.4,0.8-0.8,0.8
			C87.5,217.5,87.1,217.1,87.1,216.7z"/>
		<path d="M98.7,222.5c0.1,2.1-1.3,4-3.4,4.2c-2.2,0.2-4.2-1.1-4.4-3.5c-0.2-2.3,1.4-4.1,3.7-4.2C96.7,218.8,98.6,220.2,98.7,222.5z
			 M97.3,222.6c-0.2-1.9-1.2-3.6-2.7-3.6c-1.7,0.2-2.5,1.7-2.3,4.1c0.2,2.3,1.4,3.7,3,3.6C96.7,226.4,97.4,224.5,97.3,222.6z"/>
	</g>
	<g>
		<path class="st10" d="M101.1,234.8l-16.4,0.1H68.3h-8.2h-4.1h-2h-1c-0.3,0-0.7,0-1.1-0.1c-0.7-0.2-1.3-0.8-1.6-1.4
			c-0.2-0.3-0.2-0.8-0.2-1.1v-1v-4.1v-8.2v-8.2c-0.1-0.7,0.2-1.5,0.8-2c0.3-0.2,0.6-0.5,1-0.5c0.4-0.1,0.8-0.1,1.1-0.1h4.1h16.4
			h16.4l16.4,0.1l-16.4,0.1H73.5H57.1H53c-0.4,0-0.7,0-1,0.1s-0.6,0.2-0.8,0.5c-0.5,0.5-0.7,1.1-0.7,1.7v8.2v8.2v4.1v1
			c0,0.4,0,0.6,0.2,0.9c0.2,0.6,0.8,1.1,1.4,1.2c0.3,0.1,0.6,0.1,1,0.1h1h2h4.1h8.2h16.4L101.1,234.8z"/>
	</g>
	<g>
		<path class="st10" d="M119.1,208.5l17.2-0.1h17.2h17.2c0.4,0,0.8,0,1.1,0.1c0.4,0.1,0.8,0.3,1,0.5c0.6,0.5,0.8,1.4,0.8,2v4.3v8.6
			v8.6c0,0.8-0.4,1.5-1,2c-0.3,0.2-0.7,0.4-1.1,0.5s-0.8,0-1.1,0h-4.3h-17.2h-17.2l-17.2-0.1l17.2-0.1h17.2h17.2h4.3
			c0.4,0,0.8,0,1.1,0c0.3-0.1,0.7-0.2,0.9-0.4c0.5-0.4,0.8-1.1,0.8-1.7v-8.6v-8.6v-4.3c0.1-0.7-0.2-1.4-0.7-1.8
			c-0.2-0.2-0.5-0.4-0.9-0.5c-0.3-0.1-0.7-0.1-1.1-0.1h-17.2h-17.2L119.1,208.5z"/>
	</g>
</g>
</svg>
