<?xml version="1.0" encoding="utf-8"?>
<!-- Generator: Adobe Illustrator 22.1.0, SVG Export Plug-In . SVG Version: 6.00 Build 0)  -->
<svg version="1.1" id="Layer_1" xmlns="http://www.w3.org/2000/svg" xmlns:xlink="http://www.w3.org/1999/xlink" x="0px" y="0px"
	 viewBox="0 0 450 450" style="enable-background:new 0 0 450 450;" xml:space="preserve">
<style type="text/css">
	.st0{fill:url(#SVGID_1_);}
	.st1{fill:url(#SVGID_2_);}
	.st2{fill:url(#SVGID_3_);}
	.st3{fill:url(#SVGID_4_);}
	.st4{fill:url(#SVGID_5_);}
</style>
<g>
	<linearGradient id="SVGID_1_" gradientUnits="userSpaceOnUse" x1="-41.1779" y1="71.3221" x2="491.1779" y2="378.6779">
		<stop  offset="0" style="stop-color:#88815E"/>
		<stop  offset="9.957992e-02" style="stop-color:#8B8461"/>
		<stop  offset="0.2195" style="stop-color:#968E68"/>
		<stop  offset="0.35" style="stop-color:#A89E74"/>
		<stop  offset="0.4879" style="stop-color:#C1B584"/>
		<stop  offset="0.6259" style="stop-color:#E2D299"/>
		<stop  offset="0.7024" style="stop-color:#E2D39C"/>
		<stop  offset="0.7911" style="stop-color:#E3D6A6"/>
		<stop  offset="0.8855" style="stop-color:#E6DBB8"/>
		<stop  offset="0.9469" style="stop-color:#E8DFC6"/>
	</linearGradient>
	<rect class="st0" width="450" height="450"/>
	<linearGradient id="SVGID_2_" gradientUnits="userSpaceOnUse" x1="360.318" y1="272.3177" x2="392.2654" y2="226.6921">
		<stop  offset="0" style="stop-color:#855B21"/>
		<stop  offset="0.1057" style="stop-color:#885F27"/>
		<stop  offset="0.2407" style="stop-color:#916B36"/>
		<stop  offset="0.3916" style="stop-color:#9F7E51"/>
		<stop  offset="0.5542" style="stop-color:#B39975"/>
		<stop  offset="0.7261" style="stop-color:#CDBCA4"/>
		<stop  offset="0.9031" style="stop-color:#ECE6DD"/>
		<stop  offset="1" style="stop-color:#FFFFFF"/>
	</linearGradient>
	<path class="st1" d="M283.8,218.7c0,0,104.6,11.4,118,19.5s28.7,12.4,36.9,22.3c8.2,9.9,11.4,7.8,11.4,7.8v38.8L283.8,218.7z"/>
	<linearGradient id="SVGID_3_" gradientUnits="userSpaceOnUse" x1="240.5465" y1="281.1744" x2="318.1904" y2="188.642">
		<stop  offset="0" style="stop-color:#734E19"/>
		<stop  offset="0.1233" style="stop-color:#76511D"/>
		<stop  offset="0.2547" style="stop-color:#7D5B2A"/>
		<stop  offset="0.3899" style="stop-color:#8A6C3F"/>
		<stop  offset="0.5278" style="stop-color:#9D835D"/>
		<stop  offset="0.6678" style="stop-color:#B4A084"/>
		<stop  offset="0.8095" style="stop-color:#D1C4B3"/>
		<stop  offset="0.95" style="stop-color:#F2EFEA"/>
		<stop  offset="1" style="stop-color:#FFFFFF"/>
	</linearGradient>
	<path class="st2" d="M108.7,170.6c101.9,30.1,168.6,46.6,209.4,52.1c21.3,2.9,50.2,4.8,70.6,26c7.2,7.4,13.8,16.1,29.1,28.7
		c12.6,10.4,24.2,17.5,32.2,21.9c-6,3.4-15.3,8.4-27,13.8c-43.8,20.3-74.5,35.1-94.9,23.1c-19.4-11.5-25.7-67-25.7-67
		c-11.7-4.5-23.6-9.4-35.5-14.5C207.6,229.3,155,200.4,108.7,170.6z"/>
	<linearGradient id="SVGID_4_" gradientUnits="userSpaceOnUse" x1="31.7299" y1="400.5542" x2="263.1203" y2="169.1638">
		<stop  offset="0" style="stop-color:#2E2003"/>
		<stop  offset="8.661305e-02" style="stop-color:#34270B"/>
		<stop  offset="0.2199" style="stop-color:#463A20"/>
		<stop  offset="0.3832" style="stop-color:#645944"/>
		<stop  offset="0.5703" style="stop-color:#8C8475"/>
		<stop  offset="0.7775" style="stop-color:#C0BCB3"/>
		<stop  offset="1" style="stop-color:#FFFFFF"/>
	</linearGradient>
	<path class="st3" d="M0,368.8c0,0,103.6,1.2,111.7,0s7-4.6,5.4-5c-1.6-0.5,23.7-0.2,30.2,0c6.5,0.2,120.9-3.6,155.4-15.8
		s108.2-25.7,107.5-30.9c-0.6-5.2-18-7.6-26.5-11.9c-8.5-4.3-80.1-38.3-98-43.2c-18-4.9-209.5-109.4-218.2-116S0,136.9,0,136.9
		V368.8z"/>
	<linearGradient id="SVGID_5_" gradientUnits="userSpaceOnUse" x1="0" y1="374.1189" x2="450" y2="374.1189">
		<stop  offset="0" style="stop-color:#687A7C"/>
		<stop  offset="0.1391" style="stop-color:#6D7E80"/>
		<stop  offset="0.3067" style="stop-color:#7C8B8D"/>
		<stop  offset="0.4889" style="stop-color:#94A1A2"/>
		<stop  offset="0.6815" style="stop-color:#B6BFC0"/>
		<stop  offset="0.8802" style="stop-color:#E1E5E5"/>
		<stop  offset="1" style="stop-color:#FFFFFF"/>
	</linearGradient>
	<path class="st4" d="M0,368.8c0,0,112.7,0.5,114-2.6c1.3-3.1-2.3-3.6,5.9-3.8s170.4-8.3,184.6-16.6c14.2-8.4,79.8-26.1,79.8-26.1
		s22.2-2.4,22.8-4.1c0.6-1.7-9.7-7.5-24.2-6.3l-1.7-6.8c0,0,39.9-0.3,46.4-2.4c6.5-2,22.5-1.8,22.5-1.8v43.9c0,0-14.1-2.5-21.7,0.8
		c-7.6,3.3-13.5,8.4-20.6,9.8c-7.1,1.4-11.1,2.5-17.8,2.5c-6.7,0-8.4,7.6-16.7,9c-8.4,1.4-83.1,85.8-83.1,85.8H0V368.8z"/>
	<polygon points="4.5,450 99.9,450 99.9,377.2 89.6,313.2 84.9,344.9 54,129.2 22.7,348 17.2,314.6 4.5,383.6 	"/>
	<polygon points="159.5,450 266.3,450 266.3,368.1 279,351.7 279.1,205 281.5,205 277.4,200.5 265.6,142.8 253.4,200.8 249.7,205.3 
		252.2,205.3 252.2,219.1 227.5,152.2 227.4,144.7 219.6,145.2 219.3,131.2 218,131.2 214.7,97.5 211,131.4 209.7,131.4 
		209.7,143.9 210.6,143.9 210.6,156.6 206.7,155.2 193,191.3 193,178.8 190,180.9 190,186.9 187.7,178.3 164,14.3 141.4,159.6 
		141.4,140.4 143.3,138 141.4,135.4 127.9,69 114.1,135.4 111.7,138 114.2,140.3 114.2,327.9 127,344 133.3,336.9 133.3,382.1 
		138.2,384.1 159.2,404.9 	"/>
	<polygon points="280.2,450 280.2,405.2 282.3,399.7 282.3,387.1 279.7,384.6 279.7,377.7 283.1,375.3 284.8,375.3 284.8,320.3 
		283.1,318.7 284.8,316.1 289.2,269.3 294.7,316.9 296.4,308 295.2,307.9 297.8,298.1 309.4,222.6 312.4,242.2 314.8,234.1 
		314.8,230.6 315.7,230.6 318.1,221.7 318.1,218 319.5,218 321.7,209.9 321.7,205.2 322.6,205.2 335.6,156.7 334.6,156.7 
		340.5,134.6 346.4,156.5 344.9,156.5 355.9,194.6 357.4,189 358.2,191.8 359.5,184.2 361.9,196.9 363.1,198.4 361.9,198.4 
		361.9,215.9 362.4,218.1 363.1,218.1 363.1,220.6 387,308.4 386,310.6 385.2,310.6 385.2,339.2 383.2,342.9 383.2,367.3 
		398.2,366.2 398.2,354.3 397.3,354.3 398.7,351.5 401.1,334.6 403.8,351.6 405.2,354.5 404.1,354.5 404.1,378.3 409.1,363.7 
		412.9,335.1 417.2,363.7 423.5,384.9 438.1,360 438.1,333.8 450,333.8 450,450 	"/>
	<circle cx="412.9" cy="332.5" r="2.7"/>
	<circle cx="54.1" cy="127.1" r="2.1"/>
	<polygon points="54.1,103 54.9,125.8 53.3,125.8 	"/>
	<polygon points="412.9,305.2 413.7,330.5 412.1,330.5 	"/>
	<circle cx="265.7" cy="140.7" r="2.1"/>
	<polygon points="265.7,104.4 266.5,139.4 264.9,139.4 	"/>
</g>
</svg>
