<svg id="Layer_1" data-name="Layer 1" xmlns="http://www.w3.org/2000/svg" viewBox="0 0 40 40"><defs><style>.cls-1{fill:#492e83;}</style></defs><title>f-instagram</title><path class="cls-1" d="M20,0c-5.43,0-6.11,0-8.25.12a14.61,14.61,0,0,0-4.85.93A9.76,9.76,0,0,0,3.36,3.36,9.84,9.84,0,0,0,1.05,6.9a14.61,14.61,0,0,0-.93,4.85C0,13.89,0,14.57,0,20s0,6.11.12,8.25a14.61,14.61,0,0,0,.93,4.85,9.76,9.76,0,0,0,2.31,3.54A9.84,9.84,0,0,0,6.9,39a14.56,14.56,0,0,0,4.85.93c2.14.1,2.82.12,8.25.12s6.11,0,8.25-.12A14.61,14.61,0,0,0,33.1,39,10.27,10.27,0,0,0,39,33.1a14.56,14.56,0,0,0,.93-4.85C40,26.11,40,25.43,40,20s0-6.11-.12-8.25A14.61,14.61,0,0,0,39,6.9,10.27,10.27,0,0,0,33.1,1.05,14.61,14.61,0,0,0,28.25.12C26.11,0,25.43,0,20,0Zm0,3.6c5.34,0,6,0,8.08.12a10.87,10.87,0,0,1,3.71.69,6.28,6.28,0,0,1,2.31,1.5,6.46,6.46,0,0,1,1.5,2.3,11.27,11.27,0,0,1,.69,3.72c.09,2.11.11,2.74.11,8.08s0,6-.11,8.08a11.13,11.13,0,0,1-.69,3.71,6.24,6.24,0,0,1-1.5,2.3,6.16,6.16,0,0,1-2.31,1.5,10.63,10.63,0,0,1-3.71.69c-2.11.1-2.74.12-8.08.12s-6,0-8.08-.12a10.63,10.63,0,0,1-3.71-.69A6,6,0,0,1,5.9,34.1a6.22,6.22,0,0,1-1.49-2.3,10.87,10.87,0,0,1-.69-3.71C3.63,26,3.6,25.35,3.6,20s0-6,.12-8.08a11,11,0,0,1,.69-3.72A6.43,6.43,0,0,1,5.9,5.91a6.28,6.28,0,0,1,2.31-1.5,10.87,10.87,0,0,1,3.71-.69C14,3.63,14.66,3.6,20,3.6Z"/><path class="cls-1" d="M20,26.67A6.67,6.67,0,1,1,26.67,20,6.67,6.67,0,0,1,20,26.67ZM20,9.73A10.27,10.27,0,1,0,30.27,20,10.27,10.27,0,0,0,20,9.73Z"/><path class="cls-1" d="M33.08,9.33a2.4,2.4,0,1,1-2.4-2.4A2.39,2.39,0,0,1,33.08,9.33Z"/></svg>