<?xml version="1.0" encoding="utf-8"?>
<!-- Generator: Adobe Illustrator 22.1.0, SVG Export Plug-In . SVG Version: 6.00 Build 0)  -->
<svg version="1.1" id="Layer_1" xmlns="http://www.w3.org/2000/svg" xmlns:xlink="http://www.w3.org/1999/xlink" x="0px" y="0px"
	 viewBox="0 0 226 450.7" style="enable-background:new 0 0 226 450.7;" xml:space="preserve">
<style type="text/css">
	.st0{fill:#F4D8BD;stroke:#906A40;stroke-miterlimit:10;}
	.st1{fill:#FFFFFF;}
	.st2{fill:#010101;}
	.st3{fill:#A5A4A4;}
	.st4{fill:#2C3178;}
	.st5{fill:none;stroke:#7E7E7E;stroke-width:0.5;stroke-miterlimit:10;}
	.st6{fill:#7E7E7E;}
	.st7{fill:url(#SVGID_1_);stroke:#906A40;stroke-miterlimit:10;}
	.st8{fill:#AD7E46;stroke:#906A40;stroke-width:0.5;stroke-miterlimit:10;}
	.st9{opacity:0.2;fill:#D3BBA2;stroke:#D3BBA2;stroke-miterlimit:10;enable-background:new    ;}
</style>
<g>
	<path class="st0" d="M207.7,450.2H18.3c-9.8,0-17.8-8-17.8-17.8V135.6c0-9.8,8-17.8,17.8-17.8h189.4c9.8,0,17.8,8,17.8,17.8v296.9
		C225.5,442.3,217.5,450.2,207.7,450.2z"/>
	<circle class="st1" cx="114.3" cy="134.4" r="8.5"/>
	<g>
		<path class="st2" d="M105.7,205.4c0,0,0.8,0.3,2,0.3c0,0,0.5-0.8,0.2-1.3c-0.3-0.5,0.3-0.3,0.3-0.8c0.1-0.5-0.3-1.4-0.1-1.7
			c0.2-0.3,0.6-3.1,1.2-4.8s1.3-4.1,1.4-4.6c0,0,0.6,0,0.5-0.7l-0.4-0.1c0,0,1.1-2.7,1.2-3.7c0.1-1.1,0.7-2,1.1-3.4s1-2.7,1.7-5.5
			c0.8-2.7,0.2-1.6,1.4-5.7c1.2-4.1,1.6-4.5,2.1-6.9c0.7-2.4,1-2.9,0.8-3c-0.2-0.1-0.9,2-1.3,2.6c-0.3,0.7-0.6,2-1.4,4
			c-0.8,2-1.6,3.6-2.4,6.5c-0.9,2.8-1.7,4.7-2.4,7.4c-0.8,2.7-0.9,2-1.2,3.8c-0.3,1.8-1.2,2.7-1.3,3.1l-0.8-0.2c0,0-0.5,0.7,0.2,0.9
			c0,0-0.5,2.3-0.7,3.4c-0.4,1.6-1.2,3.3-1.7,4.8c-0.2,0.6-0.1,0.3-0.5,1.6c0,0-0.1,0.3-0.2,0.7c-0.1,0.5-0.1,0.7-0.1,0.9
			c0.1,0.3,0.4,0.4,0.4,0.6c0,0.1-0.2,0.1-0.3,0.3c-0.1,0.1-0.1,0.2,0,0.6C105.6,204.8,105.6,205.1,105.7,205.4z"/>
		<g>
			<path class="st3" d="M106.9,203.4c-0.1-0.9-0.1-1.8,0.1-2.6c0.1-0.9,0.7-1.6,1-2.4c0.3-0.8,0.5-1.7,0.5-2.5
				c0.4-0.8,1.2-1.4,1.3-2.2c-0.1,0.4-0.3,0.8-0.5,1.2c-0.2,0.4-0.6,0.7-0.7,1.1c0,0.9-0.2,1.8-0.5,2.5c-0.3,0.9-0.9,1.5-1,2.3
				C106.9,201.8,106.9,202.5,106.9,203.4z"/>
		</g>
		<g>
			<path class="st3" d="M108.8,194.7c0.3-0.6,0.6-1.3,0.8-1.9c0-0.2,0.1-0.3,0.2-0.5c0.1-0.2,0.2-0.3,0.3-0.4
				c0.3-0.2,0.5-0.5,0.5-0.9c0,0.4-0.3,0.7-0.5,0.9c-0.3,0.2-0.4,0.5-0.5,0.9C109.4,193.5,109.2,194.2,108.8,194.7z"/>
		</g>
		<g>
			<path class="st3" d="M110.9,188.9c0.4-1.3,0.6-2.6,1-3.9s1.4-2.3,1.6-3.7c0.1-0.7,0.2-1.4,0.3-2c0.2-0.7,0.5-1.3,0.7-1.9l1.1-3.9
				l-1.1,3.9c-0.2,0.7-0.5,1.3-0.7,2c-0.2,0.7-0.2,1.4-0.3,2c-0.3,1.4-1.3,2.4-1.7,3.7C111.5,186.4,111.3,187.6,110.9,188.9z"/>
		</g>
		<g>
			<path class="st3" d="M107.6,201.4c0.2-0.6,0.4-1.1,0.6-1.7c0.2-0.6,0.2-1.2,0.4-1.8c0.1-0.6,0.4-1.1,0.6-1.7
				c0.1-0.3,0.2-0.6,0.2-0.9c0.1-0.3,0.5-0.4,0.4-0.8c0.1,0.3-0.3,0.5-0.4,0.8c0,0.3-0.1,0.6-0.2,0.9c-0.2,0.6-0.5,1.1-0.6,1.7
				c-0.1,0.6-0.2,1.2-0.4,1.8C108.1,200.4,107.9,200.9,107.6,201.4z"/>
		</g>
		<g>
			<path class="st3" d="M110,190.9c0.1-0.3,0.4-0.5,0.6-0.7c0.3-0.2,0.3-0.5,0.4-0.8c0.2-0.6,0.5-1.2,0.7-1.8c0.1-0.6,0-1.3,0.3-1.9
				c0.1-0.3,0.3-0.6,0.4-0.9c0.1-0.3,0.3-0.6,0.2-0.9c0.1,0.3-0.1,0.6-0.2,0.9c-0.1,0.3-0.3,0.6-0.4,0.9c-0.3,0.6-0.2,1.2-0.3,1.9
				c-0.1,0.6-0.4,1.2-0.7,1.8c-0.1,0.3-0.2,0.7-0.5,0.8C110.4,190.5,110.1,190.6,110,190.9z"/>
		</g>
		<g>
			<g>
				<g>
					<g>
						<path class="st4" d="M130.4,166.2C130.4,166.1,130.4,166.1,130.4,166.2L130.4,166.2z"/>
						<path class="st4" d="M131.4,166.2L131.4,166.2c0,0,0-0.1,0-0.2C131.4,166.1,131.4,166.2,131.4,166.2z"/>
						<path class="st4" d="M130.7,165.3c0.1,0,0.5,0,0.6,0.3l0,0v0.1C131.3,165.4,130.9,165.3,130.7,165.3z"/>
						<path class="st4" d="M130.1,165.7C130.1,165.7,130,165.8,130.1,165.7L130.1,165.7C130.1,165.6,130.1,165.6,130.1,165.7z"/>
						<path class="st4" d="M130.2,165.6C130.3,165.5,130.1,165.6,130.2,165.6L130.2,165.6z"/>
						<path class="st4" d="M129.9,166.2c0-0.1,0-0.1,0-0.2V166.2C129.9,166.3,129.9,166.3,129.9,166.2z"/>
						<path class="st4" d="M129.9,166.3L129.9,166.3C129.9,166.3,129.9,166.2,129.9,166.3z"/>
						<path class="st4" d="M129.9,166c0,0.1,0,0.1,0,0.2C129.9,166.2,129.9,166.2,129.9,166C129.9,166.2,129.9,166.1,129.9,166z"/>
						<path class="st4" d="M130,165.9C130,165.8,130.1,165.7,130,165.9c0.1-0.2,0.1-0.3,0.1-0.3C130.1,165.7,130,165.7,130,165.9z"
							/>
						<path class="st4" d="M130.6,165.4L130.6,165.4h0.2C130.8,165.3,130.6,165.3,130.6,165.4z"/>
						<path class="st4" d="M130.4,167.1C130.4,167.1,130.3,167.1,130.4,167.1c-0.1-0.1-0.1-0.1-0.2-0.2
							C130.3,167,130.4,167.1,130.4,167.1z"/>
						<path class="st4" d="M130.3,167c0.1,0,0.1,0.1,0.2,0.1C130.3,167.1,130.3,167,130.3,167z"/>
						<path class="st4" d="M129.9,166.4c0-0.1,0-0.2,0-0.3C129.9,166.2,129.9,166.3,129.9,166.4L129.9,166.4z"/>
						<path class="st4" d="M131.1,167.3L131.1,167.3C131.1,167.3,131.2,167.3,131.1,167.3L131.1,167.3z"/>
						<path class="st4" d="M131.6,167.1C131.6,167.1,131.7,167,131.6,167.1c0.1-0.1,0.2-0.2,0.3-0.3
							C131.9,166.9,131.8,167,131.6,167.1z"/>
						<path class="st4" d="M132,166.8c0,0-0.1,0.1-0.1,0.2C132,166.8,132,166.8,132,166.8z"/>
						<path class="st4" d="M130.8,167.3c0,0,0,0,0.2,0H130.8C130.9,167.3,130.9,167.3,130.8,167.3z"/>
						<path class="st4" d="M130.9,167.3L130.9,167.3c0.1,0,0.2,0,0.2,0C131.1,167.3,131,167.3,130.9,167.3z"/>
						<path class="st4" d="M130.8,167.3L130.8,167.3L130.8,167.3z"/>
						<path class="st4" d="M130.1,166.8C130.2,166.9,130.3,167.1,130.1,166.8C130.1,166.8,130.2,166.9,130.1,166.8z"/>
						<path class="st4" d="M130.7,167.2c-0.1,0-0.1,0-0.2-0.1l0,0C130.6,167.2,130.6,167.2,130.7,167.2z"/>
						<path class="st4" d="M130.8,167.3L130.8,167.3C130.7,167.2,130.8,167.2,130.8,167.3L130.8,167.3z"/>
						<path class="st4" d="M131.8,167c0.1-0.1,0.1-0.1,0.2-0.2C131.9,166.8,131.8,166.9,131.8,167C131.7,167,131.7,167,131.8,167z"
							/>
						<path class="st4" d="M131.4,167.2L131.4,167.2L131.4,167.2z"/>
						<path class="st4" d="M132.2,165.7L132.2,165.7L132.2,165.7z"/>
						<path class="st4" d="M131.7,167c-0.1,0.1-0.1,0.1-0.2,0.1C131.6,167.1,131.7,167,131.7,167L131.7,167z"/>
						<path class="st4" d="M132.2,166.5c0,0,0,0.1-0.1,0.2C132.1,166.6,132.2,166.5,132.2,166.5z"/>
						<path class="st4" d="M131.4,167.2L131.4,167.2C131.5,167.2,131.5,167.2,131.4,167.2z"/>
						<path class="st4" d="M131.4,167.2C131.4,167.2,131.5,167.2,131.4,167.2C131.5,167.1,131.5,167.2,131.4,167.2L131.4,167.2z"/>
						<path class="st4" d="M132.1,165.4c0,0,0.1,0.2,0.1,0.5c0,0.2,0,0.1,0-0.1c0,0,0,0-0.1-0.2c0,0.1,0.1,0.5,0.1,0.3
							C132.2,165.5,132.2,165.6,132.1,165.4c0.1,0.2-0.1-0.3-0.1-0.2C132,165.2,132.1,165.3,132.1,165.4
							C132.1,165.4,132,165.3,132.1,165.4z"/>
						<path class="st4" d="M132.2,166.1L132.2,166.1c0,0,0-0.1,0-0.2s0-0.2,0-0.2C132.2,165.9,132.3,166,132.2,166.1L132.2,166.1z"
							/>
						<path class="st4" d="M132.1,166.6C132.1,166.5,132.2,166.3,132.1,166.6c-0.1,0.1-0.1,0.1-0.1,0.2
							C132.2,166.4,132,166.8,132.1,166.6c0,0.1-0.1,0.1-0.1,0.2C132,166.8,132.1,166.7,132.1,166.6L132.1,166.6L132.1,166.6
							L132.1,166.6C132.1,166.6,132.1,166.7,132.1,166.6L132.1,166.6L132.1,166.6C132.2,166.5,132.1,166.6,132.1,166.6L132.1,166.6
							L132.1,166.6c0.1-0.1,0.1-0.2,0.1-0.4C132.2,166.3,132.2,166.4,132.1,166.6z"/>
						<path class="st4" d="M130.3,167C130.3,167,130.4,167,130.3,167C130.4,167.1,130.4,167.1,130.3,167z"/>
						<path class="st4" d="M130.5,167.1C130.5,167.1,130.5,167.1,130.5,167.1C130.3,166.9,130.4,167,130.5,167.1
							C130.4,167,130.2,166.9,130.5,167.1L130.5,167.1c0,0,0.2,0.1,0.2,0.1C130.6,167.2,130.6,167.2,130.5,167.1z"/>
						<path class="st4" d="M131.4,167.2c0.1,0,0.2-0.1,0.3-0.2C131.7,167,131.6,167.1,131.4,167.2L131.4,167.2
							C131.5,167.1,131.5,167.1,131.4,167.2z"/>
						<path class="st4" d="M132.2,165.7L132.2,165.7c0,0,0-0.1,0-0.2C132.2,165.6,132.2,165.6,132.2,165.7z"/>
						<path class="st4" d="M132,165.2L132,165.2L132,165.2L132,165.2z"/>
						<path class="st4" d="M139.5,160.1C139.5,160.1,139.5,160,139.5,160.1C139.5,160,139.5,160.1,139.5,160.1z"/>
						<path class="st4" d="M139.1,160.6L139.1,160.6C139.2,160.6,139.2,160.6,139.1,160.6z"/>
						<path class="st4" d="M133.1,166c0-0.2,0-0.3,0-0.3l0,0C133.1,165.8,133.1,165.9,133.1,166z"/>
						<path class="st4" d="M133.7,159.7L133.7,159.7C133.6,159.7,133.6,159.7,133.7,159.7C133.6,159.7,133.6,159.7,133.7,159.7z"/>
						<path class="st4" d="M133.8,159.6h0.2C133.9,159.6,133.9,159.6,133.8,159.6z"/>
						<path class="st4" d="M137.9,156.9L137.9,156.9C138,156.9,137.9,156.9,137.9,156.9z"/>
						<path class="st4" d="M129.1,166.8c0,0.1,0.1,0.2,0.1,0.3C129.2,166.9,129.2,166.9,129.1,166.8z"/>
						<path class="st4" d="M139.6,160.5C139.7,160.4,139.7,160.4,139.6,160.5C139.6,160.4,139.6,160.5,139.6,160.5z"/>
						<path class="st4" d="M129.4,167.4L129.4,167.4c-0.1-0.1-0.1-0.2-0.2-0.3C129.3,167.2,129.3,167.3,129.4,167.4z"/>
						<path class="st4" d="M124.8,159.2L124.8,159.2L124.8,159.2z"/>
						<path class="st4" d="M121.1,161.3L121.1,161.3L121.1,161.3z"/>
						<path class="st4" d="M130.4,164.7C130.5,164.6,130.4,164.7,130.4,164.7L130.4,164.7z"/>
						<path class="st4" d="M130.8,164.7C130.8,164.6,130.8,164.7,130.8,164.7S130.8,164.6,130.8,164.7z"/>
						<path class="st4" d="M130.1,168.1L130.1,168.1L130.1,168.1z"/>
						<path class="st4" d="M130.5,164.6L130.5,164.6C130.4,164.7,130.4,164.6,130.5,164.6z"/>
						<path class="st4" d="M130.5,164.6C130.5,164.6,130.6,164.6,130.5,164.6C130.6,164.6,130.6,164.6,130.5,164.6z"/>
						<path class="st4" d="M130.2,164.7c0.1,0,0.1,0,0.2,0l0,0C130.3,164.7,130.3,164.7,130.2,164.7z"/>
						<path class="st4" d="M131.7,156.2L131.7,156.2C131.6,156.2,131.7,156.2,131.7,156.2z"/>
						<path class="st4" d="M132.3,163.6L132.3,163.6L132.3,163.6z"/>
						<path class="st4" d="M132.2,163.3c0.1,0.1,0.1,0.2,0.1,0.3v-0.1L132.2,163.3z"/>
						<path class="st4" d="M139.3,158.6c0,0.1,0,0.1,0.1,0.2C139.2,158.5,139.1,158.4,139.3,158.6c0,0,0.2,0.8,0.3,0.9v0.2
							c0,0,0,0,0-0.1c0,0.3,0.1,0.2,0,0.6c0,0.1-0.1,0.2-0.1,0.1c0,0.1-0.1,0.2-0.1,0.3c0,0.1,0,0,0,0c-0.1,0.1-0.2,0.2-0.3,0.3l0,0
							c0,0-0.1,0.1-0.2,0.2c-0.1,0,0,0,0,0c-0.1,0-0.1,0.1-0.2,0.1c-0.1,0,0.1-0.1,0.2-0.2c-0.2,0-0.2,0.1-0.7,0.2
							c0.1,0,0.2,0,0.2-0.1c-0.2,0-0.3,0.1-0.6,0c0.1,0,0.5,0,0.3,0.1c-0.1,0-0.2,0-0.3,0c0,0-0.1,0-0.3,0l0,0c-0.2,0-0.2,0-0.3,0
							c-0.2,0-0.2-0.1-0.3-0.1c-0.3-0.1,0.2,0.1-0.2,0c-0.2-0.1-0.4-0.2-0.8-0.4c-0.2-0.1,0,0,0,0l-0.2-0.1l0,0
							c-0.1-0.1,0,0-0.3-0.1c-0.1,0-0.4-0.3-0.7-0.3c-0.1,0,0,0,0,0c-0.4-0.2-0.3-0.1-0.7-0.2c-0.1,0-0.2-0.1-0.3-0.1
							c0.2,0.1-0.1,0-0.3,0.1c0.1,0,0.1,0,0.2,0c-0.1,0-0.3,0-0.4,0c0,0,0,0,0.1,0c0,0,0,0-0.1,0c-0.1,0-0.1,0,0,0h0.1
							c0.1,0,0.2,0,0.2-0.1h-0.1l0,0h-0.1h-0.1l0,0c-0.2,0-0.4,0-0.5,0.1c-0.3,0.2-0.6,0.4-0.9,0.9c0-0.1,0,0,0-0.1
							c0.1-0.1,0.2-0.4,0.5-0.6c-0.1,0.1-0.1,0.1-0.1,0c-0.1,0.1-0.3,0.3-0.4,0.4c0,0-0.1,0.1-0.1,0.2c0.1-0.1-0.1,0.4-0.1,0.6
							c0,0,0,0,0-0.3c-0.1,0.3,0,0.4,0,0.7c0-0.1,0-0.1,0-0.1c0,0.2,0.1,0.5,0,0.4v-0.1c0,0.4,0.2,1.3,0.3,1.3c0,0-0.1,0-0.1-0.1
							l0.3,0.7c0-0.1,0,0.2-0.2-0.1c0,0.1,0.1,0.2,0.1,0.4c0-0.1,0-0.2,0-0.1c0,0.3,0,0.2,0.1,0.5c0-0.1,0,0,0.1,0.2c0,0,0,0-0.1,0
							l0.2,0.4c0-0.1,0,0,0,0.1c0,0,0.1,0.3,0.1,0.4v-0.2c0.1,0.4,0.2,0.4,0.2,0.9c0-0.1-0.1-0.1,0,0.1c0,0.1,0.1,0.5,0,0.9v0.1
							l-0.1,0.3c0.1-0.2,0.2-0.7,0.1-1c0,0.2,0,0,0,0.3c0,0.1,0-0.1,0-0.2c0,0.2,0,0.4-0.1,0.6l-0.1,0.4c0.1-0.2,0.2-0.4,0.2-0.6
							c0,0,0,0.4-0.3,0.7c-0.1,0.1,0-0.1,0-0.1c0,0.1-0.2,0.3-0.3,0.3l0.1-0.1c-0.2,0.2-0.3,0.3-0.5,0.4c-0.1,0-0.3,0.1-0.3,0.1
							c0.2,0,0.2,0,0.1,0.1c0,0-0.5,0.1-0.6,0.1c-0.2,0,0.2-0.1,0.1-0.1H131c-0.1,0,0,0-0.2,0c0,0-0.4,0-0.1,0c-0.2,0-0.2,0-0.5-0.1
							c0.1,0-0.2,0-0.4-0.1l0,0c-0.4-0.3-0.5-0.5-0.7-0.8c0,0-0.1-0.2,0-0.1c0-0.1-0.1-0.1-0.1-0.2c-0.1-0.2,0.1,0.3,0,0.1
							c0,0-0.1-0.3-0.1-0.5c0,0.1,0.1,0.4,0.2,0.6c0,0-0.2-0.3-0.2-0.7c0-0.4,0-0.2,0-0.2c0-0.3,0.1-0.5,0.1-0.6
							c0-0.1,0.1-0.2,0.2-0.5c0.2-0.2,0,0,0.1,0c-0.2,0.2-0.3,0.4-0.3,0.5c0-0.1,0.1-0.1,0.1-0.2c0,0.1-0.1,0.3-0.1,0.4
							c0-0.1,0.1-0.4,0.3-0.6c0.2-0.3,0.5-0.4,0.8-0.5c0.1,0,0.2-0.1,0.2,0c-0.1,0-0.1,0-0.2,0c-0.1,0,0.3-0.1,0.1,0
							c0.2-0.1,0.5-0.1,0.8,0h0.1c0,0-0.2,0-0.3,0c0.1,0,0.5,0.1,0.6,0.1c-0.1,0-0.1-0.1-0.2-0.1c0.2,0,0.5,0.2,0.7,0.4
							c-0.1-0.1,0-0.1-0.2-0.2c0.1,0.1-0.1-0.1-0.2-0.1c-0.1-0.1-0.3-0.1-0.2-0.1c-0.2-0.1-0.3-0.1-0.6-0.1c0,0,0.1,0-0.1,0l0,0l0,0
							l0,0l0,0h0.1c-0.1,0-0.5,0.1-0.6,0.1s0.1,0,0,0s-0.1,0-0.2,0.1c0,0-0.3,0.2,0,0c-0.1,0-0.2,0.1-0.2,0.2
							c-0.1,0.1-0.3,0.3-0.3,0.4c-0.1,0.1-0.1,0.3-0.1,0.2c0,0.1-0.1,0.3-0.1,0.4l0,0c0,0.4,0.1,0.9,0.3,1.4
							c0.1,0.1,0.2,0.3,0.3,0.5l0,0c0.1,0.2,0.4,0.4,0.5,0.4c0.2,0.2,0.9,0.3,1.3,0.2l0,0c0.2,0,0.5-0.1,0.7-0.3l0,0
							c0.2-0.1,0.6-0.3,0.8-0.7c0,0-0.1,0.1-0.1,0.2c0.3-0.4,0.4-0.9,0.4-1.4c0-0.1,0-0.2,0-0.3l0,0l0,0v-0.1c0,0.1,0,0.1,0,0.1
							c0-0.1,0-0.2-0.1-0.3v-0.1l0,0c0-0.1,0-0.1,0,0c0-0.1,0-0.1,0-0.2c0-0.1-0.1-0.3-0.1-0.4c0-0.1-0.2-0.6-0.2-0.6l0,0
							c0-0.1-0.1-0.3-0.1-0.4v-0.1l-0.1-0.3c0-0.2,0-0.2,0-0.1c-0.2-0.5-0.1-0.2-0.2-0.7l0,0c0-0.1-0.1-0.3-0.1-0.4
							c0-0.3-0.3-1.4,0-2c-0.1,0.1,0.2-0.3,0.2-0.3s0.1-0.1,0,0c0.2-0.3,0.4-0.3,0.6-0.4c0,0-0.1,0,0,0c0,0,0.1,0,0.1-0.1
							c0,0,0,0-0.1,0c0.3-0.1,0.4-0.1,0.4-0.2c0.2,0,0.3,0,0.4,0c0.1,0,0.2,0-0.1,0c0.1,0,0.8,0.2,0.8,0.2c0.1,0,0.2,0.1,0.2,0.1
							c0.3,0.1,0.3,0.1,0.6,0.3h-0.1c0.1,0,0.2,0.1,0.4,0.2l0,0c0.5,0.3,0.2,0.1,0.7,0.4l0,0c0.1,0,0.4,0.3,0.7,0.4H137
							c0.2,0,0.5,0.2,0.6,0.2h-0.1c0.5,0.1,0.1,0,0.4,0c0.1,0-0.1,0.1,0.2,0c0.1,0,0.7-0.1,1-0.3c-0.1,0-0.1,0,0,0
							c0.2-0.1,0.6-0.4,0.7-0.6l0,0c0.1-0.2,0.2-0.6,0.1-0.7c0.1-0.2-0.3-1.1-0.2-1.1c-0.1-0.2-0.2-0.4-0.2-0.5l0,0
							c-0.2-0.3-0.3-0.4-0.4-0.5c0-0.1,0,0,0,0c-0.3-0.4-0.4-0.5-0.7-0.7v-0.1c-0.1-0.1-0.6-0.5-1.1-0.7c0,0,0,0,0.1,0
							c-0.3-0.1-0.6-0.2-0.9-0.4c-0.3-0.1-0.6-0.1-0.7-0.1s-0.3,0-0.4,0c0.5,0-0.1,0,0.1,0.1c-0.2,0-0.5-0.1-0.3-0.1l0,0
							c0.1-0.1-0.6-0.1-0.6-0.1c-1,0-1.9,0.1-2.8,0.3h0.1c-0.1,0-0.2,0-0.3,0.1c-0.1,0-0.1,0,0.1-0.1c-0.1,0-0.4,0.1-0.4,0.1
							c-0.4,0.1,0.2-0.1,0-0.1l-0.2,0.1l0,0c-0.1,0.1-0.1,0.1-0.4,0.2c-0.2,0-0.1,0-0.2,0c0,0,0,0-0.1,0l-0.4,0.1h0.2
							c-0.2,0.1-0.4,0.1-0.2,0.1c-0.3,0-1.4,0.5-1.6,0.5c-0.2,0.1-0.4,0.2-0.7,0.3c0.1,0,0.1,0-0.1,0.1c0-0.1-0.5,0.1-0.7,0.2
							c0.2,0-0.7,0.3-0.4,0.3c-0.2,0.1,0,0-0.2,0c-0.4,0.3-1.1,0.5-1.6,0.8c0,0,0.1,0,0,0.1l-0.3,0.1c-0.1,0.1-0.1,0.1-0.3,0.2
							c0,0,0.1,0,0,0c-0.6,0.3-1.1,0.6-1.7,1c-0.5,0.4-1,0.8-1.6,1.1c0.2-0.1,0.1,0,0,0.1c0.1,0,0,0,0.1,0l-0.5,0.3
							c0,0.1-0.5,0.4-0.5,0.4l0.1-0.1c-0.1,0.2,0.4-0.1,0.4,0c0.1-0.2,0.6-0.3,0.9-0.7c0.1,0,0,0.1,0,0.1c0.1-0.1,0.2-0.2,0.4-0.3
							l0,0c0.5-0.4,0.8-0.6,1.4-0.9h-0.1c0.1-0.1,0.2-0.1,0.2-0.1c0.1-0.2-0.4,0.2-0.3,0.1c0.2,0,1-0.6,1.1-0.6
							c0.2-0.1-0.1,0,0.1-0.1h0.1v-0.1c0.1-0.1,0.2-0.1,0.2-0.1l-0.1,0.1c0.2-0.1,0.5-0.3,0.6-0.3l-0.2,0.1c0.6-0.4,1.3-0.7,1.9-1
							h-0.1c0.4-0.2,0.4-0.2,0.9-0.4l0,0c0.1-0.1,0.2-0.1,0.4-0.2c-0.1,0.1,0.3-0.1,0.1,0c0.5-0.2,0.2-0.1,0.5-0.3h0.1
							c0.1-0.1,0.1-0.1,0.4-0.2c-0.2,0.1,0.2,0,0,0.1c0.6-0.1,0.8-0.4,1-0.4c0.2-0.2-0.5,0.1-0.3,0c-0.1,0,0.2-0.1,0.4-0.2
							s0.3,0,0.8-0.1c0,0,0,0-0.1,0c0.2,0,0.3-0.1,0.5-0.1c0.1-0.1,0.3-0.1,0.3-0.1l-0.4,0.1c0.2-0.1,0.4-0.2,0.8-0.3
							c0,0-0.1,0.1-0.2,0.1c0.1,0,0.2-0.1,0.3-0.1c0,0.1-0.5,0.1-0.7,0.2c0.1,0,0.5-0.2,0.3-0.1c0.2-0.1,0.4-0.1,0.7-0.2l0,0
							c0,0,0.1-0.1,0.2-0.1l-0.1,0.1c0.2-0.1,0.5-0.1,0.7-0.1c-0.5,0.1-0.1,0-0.3,0c0.6-0.1,0.4,0,1-0.1c-0.1,0-0.3,0-0.2,0
							c0.1,0,0.3,0,0.4,0c0.5,0-0.1,0,0.1-0.1c0.2,0,0.2,0,0.4-0.1l0,0c0.5,0,0.1-0.1,0.6,0h-0.2h0.2H135c0.3,0,0.3,0,0.6,0
							c-0.1,0,0-0.1,0.3,0c0.2,0-0.1,0,0.2,0.1c-0.1,0-0.2,0-0.3,0h-0.1c0.2,0.1,0.4,0.1,0.5,0.1h-0.1l0.5,0.1c0.1,0,0,0-0.1,0
							c0.1,0,0.2,0,0.3,0.1c0,0,0,0-0.2,0c0.1,0,0.3,0.1,0.4,0.1c0,0,0.2,0.1,0.1,0.1c0.2,0.1,0.6,0.2,0.8,0.5c0,0,0,0,0.1,0.1
							c0.2,0.2,0.4,0.4,0.7,0.7l0.1,0.2c0.2,0.2-0.1-0.3,0.2,0.1c0.2,0.3,0,0.1,0.1,0.2C139.1,158.1,139.3,158.4,139.3,158.6
							C139.3,158.7,139.3,158.7,139.3,158.6z M138.2,161c0.1,0,0.2-0.1,0.2-0.1C138.4,161,138.3,161,138.2,161z M133.1,159.7
							c0,0,0.1,0,0.2,0C133.3,159.7,133.2,159.7,133.1,159.7z M129.4,165.2L129.4,165.2C129.3,165.3,129.4,165.2,129.4,165.2z
							 M129.7,164.9L129.7,164.9C129.6,164.9,129.6,165,129.7,164.9C129.6,165,129.6,165,129.7,164.9z M130.7,156.2L130.7,156.2
							C130.6,156.2,130.6,156.2,130.7,156.2z"/>
						<path class="st4" d="M133.8,159.6L133.8,159.6L133.8,159.6z"/>
						<path class="st4" d="M137.9,156.9L137.9,156.9L137.9,156.9L137.9,156.9z"/>
						<path class="st4" d="M131.3,168.4L131.3,168.4C131.4,168.4,131.4,168.4,131.3,168.4z"/>
						<path class="st4" d="M131.4,164.7l-0.2-0.1C131.3,164.7,131.3,164.7,131.4,164.7C131.4,164.7,131.3,164.7,131.4,164.7z"/>
						<path class="st4" d="M132.2,166.2L132.2,166.2L132.2,166.2C132.2,166.1,132.2,166.1,132.2,166.2z"/>
						<path class="st4" d="M131.5,164.8c0,0,0.1,0.1,0.2,0.2l0,0C131.8,165,131.7,164.9,131.5,164.8z"/>
						<path class="st4" d="M131.8,165C131.9,165,131.9,165.1,131.8,165C131.9,165.1,131.9,165.1,131.8,165z"/>
						<path class="st4" d="M130.1,164.7L130.1,164.7C130.2,164.7,129.7,164.9,130.1,164.7z"/>
						<polygon class="st4" points="131.6,164.9 131.6,164.9 131.5,164.8 						"/>
						<path class="st4" d="M130.5,164.7c0.1,0,0.2,0,0.2,0s0,0,0.1,0C130.7,164.7,130.5,164.7,130.5,164.7z"/>
						<path class="st4" d="M130.8,164.7c0.1,0,0.1,0,0.2,0C131,164.7,130.9,164.7,130.8,164.7z"/>
						<path class="st4" d="M131.3,164.8L131.3,164.8c-0.1,0-0.2-0.1-0.2-0.1C131.2,164.7,131.3,164.7,131.3,164.8z"/>
						<path class="st4" d="M129.1,166.4c0,0.1,0,0.2,0,0.3c0,0,0,0,0-0.1C129.1,166.5,129.1,166.4,129.1,166.4z"/>
						<path class="st4" d="M129.2,165.6L129.2,165.6L129.2,165.6L129.2,165.6z"/>
						<path class="st4" d="M129.1,166.4C129.1,166.4,129.2,166.7,129.1,166.4C129.1,166.4,129.1,166.1,129.1,166.4z"/>
						<polygon class="st4" points="131.7,168.3 131.6,168.4 131.7,168.4 						"/>
						<path class="st4" d="M132.9,165.8c0,0.3,0,0.1,0.1,0.3c0,0.1,0-0.2,0-0.1C132.9,165.8,132.9,165.7,132.9,165.8z"/>
						<path class="st4" d="M132.9,166L132.9,166L132.9,166z"/>
						<polygon class="st4" points="120.6,161.7 120.4,161.8 120.5,161.8 						"/>
						<path class="st4" d="M120.3,162L120.3,162L120.3,162L120.3,162z"/>
						<path class="st4" d="M137.7,161L137.7,161L137.7,161L137.7,161z"/>
						<polygon class="st4" points="139.5,159.9 139.5,159.9 139.6,159.8 						"/>
						<path class="st4" d="M138.9,158c0,0.1,0.1,0.2,0.1,0.2C139,158.1,138.9,158,138.9,158z"/>
					</g>
				</g>
			</g>
		</g>
		<g>
			<g>
				<g>
					<g>
						<path class="st4" d="M114.1,163.1L114.1,163.1C114.1,163.2,114.1,163.1,114.1,163.1z"/>
						<path class="st4" d="M114.6,162.8L114.6,162.8C114.6,162.8,114.6,162.8,114.6,162.8C114.6,162.8,114.6,162.8,114.6,162.8z"/>
						<path class="st4" d="M113.8,162.6c0.1-0.1,0.4-0.2,0.6-0.1l0,0h0.1C114.2,162.4,113.9,162.5,113.8,162.6z"/>
						<path class="st4" d="M113.5,163C113.5,163,113.5,163.1,113.5,163L113.5,163L113.5,163z"/>
						<path class="st4" d="M113.5,162.9C113.5,162.8,113.5,163,113.5,162.9L113.5,162.9z"/>
						<path class="st4" d="M113.6,163.4C113.6,163.4,113.6,163.3,113.6,163.4C113.5,163.3,113.6,163.4,113.6,163.4
							C113.6,163.5,113.6,163.5,113.6,163.4z"/>
						<path class="st4" d="M113.7,163.5L113.7,163.5C113.6,163.5,113.6,163.5,113.7,163.5z"/>
						<path class="st4" d="M113.5,163.3C113.5,163.4,113.6,163.4,113.5,163.3C113.6,163.4,113.6,163.5,113.5,163.3
							C113.6,163.4,113.6,163.4,113.5,163.3z"/>
						<path class="st4" d="M113.5,163.2C113.5,163.1,113.5,163,113.5,163.2C113.5,162.9,113.5,162.9,113.5,163.2z"/>
						<path class="st4" d="M113.7,162.7C113.7,162.6,113.8,162.6,113.7,162.7c0.1-0.1,0.1-0.1,0.2-0.1
							C113.8,162.6,113.7,162.7,113.7,162.7z"/>
						<path class="st4" d="M114.4,163.8L114.4,163.8c-0.1,0-0.1,0-0.2,0C114.3,163.8,114.4,163.8,114.4,163.8z"/>
						<path class="st4" d="M114.3,163.8c0.1,0,0.1,0,0.2,0C114.4,163.8,114.3,163.8,114.3,163.8z"/>
						<path class="st4" d="M113.7,163.5c-0.1-0.1-0.1-0.1-0.2-0.2C113.6,163.4,113.6,163.5,113.7,163.5L113.7,163.5z"/>
						<path class="st4" d="M114.9,163.4L114.9,163.4L114.9,163.4L114.9,163.4z"/>
						<path class="st4" d="M115.1,163C115.1,163.1,115.1,162.9,115.1,163c0-0.1,0-0.2,0-0.3C115,162.8,115.1,162.9,115.1,163z"/>
						<path class="st4" d="M115,162.6C115,162.6,115,162.7,115,162.6C115,162.7,115,162.7,115,162.6z"/>
						<path class="st4" d="M114.7,163.6C114.8,163.6,114.8,163.6,114.7,163.6L114.7,163.6L114.7,163.6z"/>
						<path class="st4" d="M114.8,163.5L114.8,163.5C114.9,163.4,114.9,163.4,114.8,163.5C114.9,163.4,114.9,163.5,114.8,163.5z"/>
						<path class="st4" d="M114.7,163.6L114.7,163.6L114.7,163.6z"/>
						<path class="st4" d="M114.1,163.7C114.2,163.7,114.4,163.7,114.1,163.7C114.1,163.7,114.2,163.8,114.1,163.7z"/>
						<path class="st4" d="M114.7,163.6c0,0-0.1,0.1-0.2,0.1l0,0C114.6,163.7,114.6,163.7,114.7,163.6z"/>
						<path class="st4" d="M114.7,163.6L114.7,163.6L114.7,163.6z"/>
						<path class="st4" d="M115,162.8c0-0.1,0-0.2-0.1-0.2C115,162.8,115,162.8,115,162.8C115,162.9,115,162.9,115,162.8z"/>
						<path class="st4" d="M115,163.2L115,163.2L115,163.2z"/>
						<path class="st4" d="M114.3,162.1L114.3,162.1L114.3,162.1z"/>
						<path class="st4" d="M115,162.9c0,0.1,0,0.1,0,0.2C115,163,115,162.9,115,162.9L115,162.9z"/>
						<path class="st4" d="M114.8,162.4C114.8,162.4,114.8,162.5,114.8,162.4C114.9,162.5,114.9,162.4,114.8,162.4z"/>
						<path class="st4" d="M115,163.2L115,163.2C115,163.1,115,163.1,115,163.2z"/>
						<path class="st4" d="M115,163.2L115,163.2C115,163.1,115,163.1,115,163.2L115,163.2z"/>
						<path class="st4" d="M114,162c0,0,0.2,0,0.4,0.1c0.2,0.1,0.1,0-0.1-0.1C114.3,162,114.3,162,114,162c0.2,0,0.5,0.1,0.3,0.1
							C114.2,162,114.2,162,114,162c0.1,0-0.2,0-0.2,0C113.9,162,114,162,114,162C114.1,162,114,162,114,162z"/>
						<path class="st4" d="M114.6,162.2L114.6,162.2C114.6,162.2,114.5,162.2,114.6,162.2c-0.2-0.1-0.2-0.2-0.2-0.2
							C114.5,162.1,114.6,162.2,114.6,162.2L114.6,162.2z"/>
						<path class="st4" d="M114.9,162.5C114.9,162.5,114.8,162.3,114.9,162.5C114.9,162.6,114.9,162.5,114.9,162.5
							C114.8,162.3,115,162.7,114.9,162.5c0,0.1,0.1,0.1,0.1,0.2C115,162.6,114.9,162.6,114.9,162.5L114.9,162.5L114.9,162.5
							L114.9,162.5L114.9,162.5L114.9,162.5L114.9,162.5C114.9,162.4,114.9,162.5,114.9,162.5L114.9,162.5L114.9,162.5
							c0-0.1-0.1-0.2-0.2-0.2C114.7,162.3,114.8,162.4,114.9,162.5z"/>
						<path class="st4" d="M114.4,163.7L114.4,163.7L114.4,163.7z"/>
						<path class="st4" d="M114.5,163.7C114.5,163.7,114.5,163.7,114.5,163.7C114.3,163.7,114.4,163.7,114.5,163.7
							C114.4,163.7,114.2,163.7,114.5,163.7L114.5,163.7c0,0,0.2-0.1,0.2-0.1C114.6,163.7,114.6,163.7,114.5,163.7z"/>
						<path class="st4" d="M115,163.2c0-0.1,0-0.2,0-0.3v0.1l0,0C115,163.1,115,163.1,115,163.2z"/>
						<path class="st4" d="M114.3,162L114.3,162L114.3,162C114.2,162,114.3,162,114.3,162z"/>
						<polygon class="st4" points="113.9,162 113.9,162 113.8,162 						"/>
						<path class="st4" d="M108,164.9L108,164.9L108,164.9z"/>
						<path class="st4" d="M108.3,165.4L108.3,165.4L108.3,165.4z"/>
						<path class="st4" d="M113.6,160.1c-0.1-0.1-0.2-0.1-0.2-0.1l0,0C113.5,160.1,113.6,160.1,113.6,160.1z"/>
						<path class="st4" d="M112,164.5L112,164.5C112,164.4,112,164.4,112,164.5L112,164.5z"/>
						<path class="st4" d="M112,164.6l-0.1,0.2C112,164.7,112,164.7,112,164.6z"/>
						<path class="st4" d="M107.3,161.8L107.3,161.8C107.3,161.9,107.3,161.8,107.3,161.8z"/>
						<path class="st4" d="M114.4,164.2c0.1,0,0.2,0,0.3-0.1C114.5,164.2,114.4,164.2,114.4,164.2z"/>
						<path class="st4" d="M108.3,165C108.3,164.9,108.3,164.9,108.3,165C108.3,165,108.4,165,108.3,165z"/>
						<path class="st4" d="M114.9,164L114.9,164c-0.1,0.1-0.2,0.1-0.3,0.2C114.7,164.1,114.8,164,114.9,164z"/>
						<path class="st4" d="M116.6,158.9L116.6,158.9C116.7,158.9,116.7,158.9,116.6,158.9z"/>
						<path class="st4" d="M118.5,161.6L118.5,161.6C118.5,161.5,118.5,161.6,118.5,161.6z"/>
						<path class="st4" d="M113,162.8L113,162.8L113,162.8z"/>
						<path class="st4" d="M113.1,162.6L113.1,162.6L113.1,162.6z"/>
						<path class="st4" d="M115.3,163.3L115.3,163.3L115.3,163.3z"/>
						<path class="st4" d="M113,162.8L113,162.8C113,162.8,113,162.8,113,162.8z"/>
						<path class="st4" d="M113,162.8L113,162.8L113,162.8z"/>
						<path class="st4" d="M113,162.9L113,162.9L113,162.9C113,162.9,113,162.9,113,162.9z"/>
						<path class="st4" d="M110.7,157.8L110.7,157.8C110.8,157.8,110.8,157.8,110.7,157.8z"/>
						<path class="st4" d="M112,160.6L112,160.6L112,160.6z"/>
						<path class="st4" d="M111.9,160.9c0-0.1,0.1-0.2,0.1-0.2L111.9,160.9C111.9,160.8,111.9,160.8,111.9,160.9z"/>
						<path class="st4" d="M107.4,163.6v0.2C107.3,163.6,107.3,163.4,107.4,163.6c0,0,0.2,0.7,0.3,0.7v0.1c0,0,0,0,0-0.1
							c0.1,0.2,0.1,0.1,0.3,0.4c0.1,0.1,0.1,0.2,0,0.1l0.2,0.2c0,0.1,0,0.1,0,0c0.1,0.1,0.2,0.2,0.2,0.3l0,0c0.1,0,0.1,0.1,0.2,0.2
							c0.1,0.1,0,0,0,0l0.2,0.1c0.1,0.1-0.1,0-0.2-0.1c0.1,0.2,0.1,0.1,0.5,0.4c-0.1,0-0.1-0.1-0.2-0.1c0.1,0.1,0.2,0.2,0.4,0.3
							c-0.1,0-0.4-0.3-0.2-0.2c0.1,0,0.1,0.1,0.3,0.1c0,0,0.1,0.1,0.3,0.1l0,0c0.2,0,0.2,0,0.3,0c0.2,0,0.2,0.1,0.3,0.1
							c0.3,0-0.2-0.1,0.2,0c0.3,0,0.4,0,0.7-0.1c0.2,0,0,0,0,0l0.1-0.1l0,0c0.1-0.1,0,0,0.2-0.2c0,0,0.4-0.2,0.5-0.5c0-0.1,0,0,0,0
							c0.1-0.3,0.1-0.3,0.2-0.6l0.1-0.2c-0.1,0.2,0-0.1,0-0.3c0,0.1,0,0.1-0.1,0.1c0-0.1,0-0.2,0-0.3l0,0v-0.1c0-0.1,0,0,0,0v0.1
							c0,0.1,0,0.2,0,0.1V164l0,0c0,0,0,0,0-0.1v-0.1l0,0c0-0.1,0-0.3,0.1-0.4c0-0.3-0.1-0.5-0.2-1c0,0.1,0,0,0.1,0
							c0,0.1,0.1,0.3,0.1,0.6c0-0.1,0-0.1,0-0.1c0-0.1,0-0.3-0.1-0.4c0,0,0-0.1,0-0.2c0,0.1-0.1-0.3-0.1-0.5c0,0,0,0,0.1,0.2
							c0-0.2-0.1-0.3-0.1-0.5c0,0.1,0,0.1,0,0.1c0-0.1-0.1-0.4,0-0.3v0.1c-0.1-0.3-0.1-1-0.1-1.1v0.1c0-0.2,0.1-0.4,0.1-0.6
							c0,0.1,0.2-0.1,0,0.2c0-0.1,0.1-0.1,0.2-0.3c0,0-0.1,0.1-0.1,0c0.2-0.1,0.1-0.1,0.3-0.2c-0.1,0,0-0.1,0.1-0.1c0,0,0,0,0,0.1
							c0.1,0,0.2-0.1,0.3-0.1c-0.1,0,0,0,0.1,0c0,0,0.3,0,0.4,0h-0.1c0.3,0.1,0.4,0,0.7,0.2c0,0-0.1,0,0,0.1c0.1,0,0.4,0.1,0.6,0.4
							v0.1l0.2,0.2c-0.1-0.1-0.4-0.4-0.7-0.5c0.1,0.1,0.1,0.1,0.2,0.2c0,0.1-0.1-0.1-0.1-0.1c0.1,0.1,0.2,0.2,0.3,0.3
							c0,0,0.2,0.3,0.2,0.2c-0.1-0.1-0.2-0.3-0.4-0.4c0,0,0.3,0.2,0.4,0.4c0,0.1-0.1,0-0.1,0l0.2,0.3l-0.1-0.1
							c0.1,0.2,0.2,0.2,0.3,0.4c0,0.1,0.1,0.2,0.1,0.2c0-0.1,0-0.2,0.1-0.1c0,0,0.1,0.4,0.2,0.5c0,0.1-0.1-0.2-0.1-0.1v0.1
							c0,0.1,0,0,0,0.1c0,0,0.1,0.4,0,0.1c0,0.2,0,0.2,0,0.4c0-0.1,0,0.2,0,0.4l0,0c-0.1,0.3-0.2,0.5-0.5,0.7c0,0-0.2,0.1-0.1,0
							c0,0-0.1,0-0.2,0.1c-0.2,0,0.2-0.1,0.1,0c0,0-0.2,0.1-0.4,0.1c0,0,0.3,0,0.5-0.1c0,0-0.2,0.2-0.6,0.1c-0.3,0-0.1,0-0.2,0
							c-0.3-0.1-0.4-0.1-0.4-0.2c-0.1-0.1-0.2-0.1-0.3-0.3s0,0,0-0.1c0.1,0.2,0.2,0.3,0.3,0.4c-0.1,0-0.1-0.1-0.1-0.1
							c0.1,0.1,0.2,0.1,0.2,0.2c-0.1,0-0.3-0.2-0.4-0.4c-0.1-0.2-0.2-0.5-0.2-0.7c0-0.1,0-0.2,0-0.1v0.1c0,0.1,0-0.2,0-0.1
							c0-0.2,0-0.4,0.2-0.6l0,0c0,0-0.1,0.1-0.1,0.2c0-0.1,0.2-0.3,0.3-0.4l-0.1,0.1c0.1-0.1,0.3-0.2,0.5-0.3c-0.1,0-0.1,0-0.2,0
							c0.1,0-0.1,0-0.2,0.1c-0.1,0.1-0.2,0.2-0.1,0.1c-0.1,0.1-0.2,0.2-0.3,0.4c0,0,0-0.1,0,0.1l0,0l0,0l0,0l0,0V162
							c0,0.1-0.1,0.4,0,0.5c0,0.1,0,0,0,0v0.1c0,0,0.1,0.3,0,0c0,0.1,0,0.1,0.1,0.2c0,0.1,0.2,0.3,0.2,0.4c0.1,0.1,0.2,0.2,0.1,0.1
							c0.1,0.1,0.2,0.1,0.3,0.2l0,0c0.3,0.1,0.8,0.1,1.1-0.2c0.1-0.1,0.2-0.2,0.3-0.3l0,0c0.1-0.1,0.2-0.4,0.2-0.5
							c0.1-0.2,0-0.8-0.1-1l0,0c-0.1-0.2-0.1-0.3-0.2-0.5l0,0c-0.1-0.2-0.2-0.4-0.4-0.7l0.1,0.1c-0.2-0.3-0.5-0.6-0.8-0.8
							c-0.1-0.1-0.1-0.1-0.2-0.1l0,0l0,0c0,0-0.1,0-0.1-0.1c0,0,0.1,0,0.1,0.1c-0.1,0-0.2-0.1-0.2-0.1l0,0l0,0c-0.1,0-0.1,0,0,0
							h-0.1c-0.1,0-0.3,0-0.4-0.1c-0.1,0-0.5,0.1-0.5,0.1l0,0c-0.1,0-0.2,0.1-0.3,0.2H112c-0.1,0.1-0.1,0.1-0.1,0.2
							c-0.1,0.1-0.1,0.2-0.1,0c-0.2,0.3-0.1,0.3-0.2,0.6l0,0c0,0.1,0,0.3,0,0.3c0,0.2,0.1,1.1,0.2,1.7c0-0.1,0,0.3,0.1,0.3
							c0,0,0,0.1,0,0c0,0.3,0,0.4,0,0.6c0,0,0-0.1,0,0v0.1c0,0,0,0,0-0.1c0,0.3,0,0.3,0.1,0.4c0,0.2-0.1,0.2-0.1,0.3
							c0,0-0.1,0.1,0-0.1c0,0.1-0.2,0.6-0.2,0.6s-0.1,0.1-0.1,0.2c-0.1,0.2-0.1,0.2-0.3,0.4l0,0c0,0.1-0.1,0.1-0.3,0.3l0,0
							c-0.4,0.2-0.2,0.1-0.6,0.2l0,0c0,0.1-0.4,0-0.6,0h0.1c-0.1,0-0.4-0.1-0.5-0.2c0,0,0,0,0.1,0c-0.3-0.1-0.1,0-0.3-0.1
							c0,0,0.1,0-0.1-0.1c-0.1,0-0.5-0.2-0.6-0.4c0,0,0.1,0.1,0,0c-0.1-0.1-0.3-0.4-0.4-0.5l0,0c-0.1-0.1-0.3-0.4-0.3-0.5
							c0-0.2-0.4-0.8-0.3-0.8c0-0.1-0.1-0.3-0.1-0.4l0,0c0-0.3-0.1-0.4-0.1-0.5c0-0.1,0,0,0,0c0-0.4,0-0.4,0-0.8l0,0
							c0-0.1,0.2-0.6,0.3-1l0,0c0.1-0.4,0.6-0.9,0.6-1.1c0-0.1,0.1-0.2,0.2-0.3c-0.2,0.3,0-0.1-0.1,0c0.1-0.1,0.3-0.3,0.2-0.1l0,0
							c0,0.1,0.3-0.4,0.4-0.3c0.5-0.6,1.2-1,1.8-1.3h-0.1l0.2-0.1c0.1,0,0.1,0-0.1,0.1c0.1,0,0.3-0.1,0.3-0.1c0.3-0.1-0.1,0.1,0,0.1
							l0.1-0.1l0,0c0.1-0.1,0.1-0.1,0.3-0.1c0.1,0,0.1,0,0.1,0s0,0,0.1,0l0.3-0.1h-0.1c0.1,0,0.3,0,0.1-0.1c0.2,0,1.2,0,1.3,0
							c0.2,0,0.4,0,0.6,0.1c-0.1,0-0.1-0.1,0.1,0c-0.1,0.1,0.3,0.2,0.5,0.3c-0.1-0.1,0.5,0.2,0.4,0.1c0.2,0.1,0,0,0.1,0.1
							c0.4,0.1,0.8,0.5,1.2,0.7c0,0,0-0.1,0.1,0s0.1,0.1,0.2,0.2c0.1,0.1,0.1,0,0.2,0.1c0,0,0-0.1,0,0c0.7,0.7,1.5,1.4,2,2.2
							c-0.1-0.1,0-0.1,0.1,0c0-0.1,0,0,0,0l0.2,0.4c0.1,0,0.3,0.4,0.3,0.4l-0.1-0.1c0.2,0.1,0-0.3,0.1-0.3c-0.2-0.1-0.2-0.5-0.5-0.7
							c0-0.1,0.1,0,0.1,0c-0.1,0-0.1-0.1-0.3-0.3l0,0c-0.3-0.4-0.5-0.6-0.9-1.1v0.1c-0.1-0.1-0.1-0.1-0.1-0.2
							c-0.2-0.1,0.3,0.3,0.1,0.2c0-0.2-0.7-0.6-0.7-0.8c-0.2-0.1,0,0.1-0.1-0.1v-0.1h-0.1c-0.1-0.1-0.1-0.2-0.1-0.2l0.1,0.1
							c-0.1-0.1-0.4-0.3-0.4-0.3l0.1,0.1c-0.5-0.3-1-0.7-1.5-0.9l0,0c-0.4-0.1-0.3-0.2-0.7-0.3l0,0c-0.1,0-0.2,0-0.3-0.1
							c0.1,0-0.2-0.1,0-0.1c-0.4,0-0.2,0-0.5,0h-0.1c-0.1,0-0.1,0-0.3,0c0.2,0-0.1,0,0.1-0.1c-0.5-0.1-0.7,0.1-0.9,0
							c-0.2,0.1,0.4,0,0.3,0c0.1,0-0.2,0.1-0.3,0.1c-0.1,0-0.3-0.1-0.6,0h0.1c-0.1,0-0.3,0.1-0.4,0.1c-0.1,0.1-0.2,0.1-0.2,0.1
							l0.3-0.1c-0.2,0.1-0.3,0.2-0.6,0.3c0,0,0.1-0.1,0.2-0.1c-0.1,0-0.2,0.1-0.3,0.1c0-0.1,0.4-0.2,0.6-0.3c-0.1,0-0.4,0.2-0.3,0.1
							c-0.1,0.1-0.3,0.1-0.5,0.3l0,0c0,0-0.1,0.1-0.2,0.1l0.1-0.1c-0.2,0.1-0.4,0.2-0.5,0.3c0.3-0.2,0.1,0,0.3-0.1
							c-0.4,0.3-0.3,0.1-0.7,0.5c0.1-0.1,0.2-0.2,0.2-0.1c-0.1,0.1-0.2,0.2-0.3,0.2c-0.3,0.3,0.1,0,0,0.1c-0.1,0.1-0.1,0.1-0.2,0.3
							l0,0c-0.3,0.3,0,0.1-0.3,0.4l0.1-0.2c0,0.1-0.1,0.1-0.1,0.2v-0.1c-0.1,0.2-0.2,0.2-0.3,0.4c0,0,0,0.1-0.1,0.2
							c-0.1,0.1,0-0.1-0.1,0.2c0-0.1,0-0.1,0.1-0.2v-0.1c-0.1,0.1-0.2,0.3-0.2,0.4c0,0,0-0.1,0.1-0.1c-0.1,0.1-0.1,0.2-0.1,0.4
							c0,0.1,0,0,0,0c0,0.1,0,0.1-0.1,0.2c0,0,0,0,0-0.2c0,0.1-0.1,0.2-0.1,0.4c0,0-0.1,0.2-0.1,0.1c-0.1,0.2-0.1,0.5-0.2,0.8
							c0,0,0,0,0,0.1c0,0.3-0.1,0.5-0.1,0.8v0.2c0,0.2,0-0.2,0.1,0.2c0,0.3,0,0.1,0,0.2s0.1,0.4,0.2,0.6
							C107.5,163.7,107.4,163.7,107.4,163.6z M109,166c-0.1,0-0.2-0.1-0.2-0.1C108.9,165.9,109,166,109,166z M112,164.1
							c0,0,0,0.1,0,0.2C112,164.2,112,164.2,112,164.1z M113.2,163.7L113.2,163.7C113.2,163.8,113.2,163.7,113.2,163.7z
							 M113.1,163.4L113.1,163.4C113.1,163.5,113.1,163.5,113.1,163.4C113.1,163.5,113.1,163.5,113.1,163.4z M111.6,157.8
							L111.6,157.8L111.6,157.8z"/>
						<path class="st4" d="M112,164.6L112,164.6C112,164.7,112,164.7,112,164.6z"/>
						<path class="st4" d="M107.4,161.8L107.4,161.8C107.4,161.8,107.3,161.8,107.4,161.8L107.4,161.8z"/>
						<path class="st4" d="M115.2,162.4L115.2,162.4C115.2,162.3,115.2,162.3,115.2,162.4z"/>
						<path class="st4" d="M113.3,162.2L113.3,162.2C113.2,162.3,113.2,162.3,113.3,162.2C113.3,162.2,113.2,162.2,113.3,162.2z"/>
						<path class="st4" d="M114.7,162.3L114.7,162.3L114.7,162.3C114.6,162.2,114.6,162.2,114.7,162.3z"/>
						<path class="st4" d="M113.4,162.2c0,0,0.1-0.1,0.2-0.1l0,0C113.7,162.1,113.5,162.1,113.4,162.2z"/>
						<path class="st4" d="M113.7,162.1L113.7,162.1C113.8,162,113.7,162,113.7,162.1z"/>
						<path class="st4" d="M113,163.1C113,163,113,163.1,113,163.1C113,163,113.1,163.4,113,163.1z"/>
						<path class="st4" d="M113.5,162.1L113.5,162.1L113.5,162.1C113.5,162.2,113.5,162.1,113.5,162.1z"/>
						<path class="st4" d="M113.1,162.8c0-0.1,0-0.1,0.1-0.2l0,0C113.1,162.7,113.1,162.8,113.1,162.8z"/>
						<path class="st4" d="M113.1,162.6C113.1,162.5,113.2,162.5,113.1,162.6C113.2,162.5,113.2,162.5,113.1,162.6z"/>
						<path class="st4" d="M113.3,162.3L113.3,162.3C113.2,162.4,113.2,162.4,113.3,162.3C113.2,162.3,113.3,162.3,113.3,162.3z"/>
						<path class="st4" d="M114,164.2c0.1,0,0.1,0,0.2,0C114.2,164.2,114.2,164.2,114,164.2C114.1,164.2,114,164.2,114,164.2z"/>
						<path class="st4" d="M113.5,163.9C113.5,163.9,113.5,164,113.5,163.9L113.5,163.9L113.5,163.9z"/>
						<path class="st4" d="M114,164.1C114,164.1,114.3,164.1,114,164.1C114,164.1,113.8,164.1,114,164.1z"/>
						<path class="st4" d="M115.2,162.1L115.2,162.1L115.2,162.1z"/>
						<path class="st4" d="M113.4,160.2c0.2,0.1,0.1,0,0.2,0.1C113.7,160.3,113.5,160.2,113.4,160.2
							C113.4,160.2,113.3,160.2,113.4,160.2z"/>
						<path class="st4" d="M113.5,160.2C113.6,160.2,113.6,160.3,113.5,160.2C113.6,160.3,113.6,160.2,113.5,160.2z"/>
						<path class="st4" d="M118.8,162.1L118.8,162.1L118.8,162.1z"/>
						<path class="st4" d="M119,162.3L119,162.3L119,162.3L119,162.3z"/>
						<path class="st4" d="M109.3,166.3L109.3,166.3C109.3,166.3,109.3,166.3,109.3,166.3L109.3,166.3z"/>
						<polygon class="st4" points="107.9,164.8 107.9,164.8 107.9,164.7 						"/>
						<path class="st4" d="M107.2,163.1c0,0.1,0,0.2,0,0.2C107.2,163.1,107.3,163,107.2,163.1z"/>
					</g>
				</g>
			</g>
		</g>
		<g>
			<path d="M129.2,178.9c-0.2,0.4-0.8,0.3-1-0.1c-0.2-0.4,0.1-1.2-0.5-1.2c-1.1,0-1.3,1.1-1.3,2.1v1.7h1.3v0.1h-1.3v5.9
				c0,1.2,0.1,1.8,1,1.8v0.1h-3.3v-0.1c0.9,0,1-0.6,1-1.8c0-5.3,0-5.6,0-5.9h-1v-0.1h1c0-1,0-1.7,0-1.7c0-1.9,1.3-2.2,2.3-2.2
				c0.6,0,1.1,0.2,1.2,0.2C129.3,178.1,129.4,178.6,129.2,178.9z"/>
			<path d="M136,182.1c0,0.6-0.6,0.7-1,0.5c-0.4-0.3-0.4-0.8-1-0.6c-0.6,0.2-1.2,1.1-1.5,2v3.6c0,1.2,0.1,1.8,1,1.8v0.1h-3.3v-0.1
				c0.9,0,1-0.6,1-1.8v-4.2c0-1.2-0.1-1.8-1-1.8v-0.1h2.5v0.1c-0.1,0.1-0.3,0.8-0.3,2.2c0.4-1.5,1.7-2.3,2.2-2.4
				C135.5,181.3,136,181.6,136,182.1z"/>
			<path d="M140.1,184c-0.1,0.5-0.1,1.1-0.1,1.6c0.2,2.3,1.5,3.8,3.2,3.8c1,0,1.9-0.5,2.5-1.1v0.2c-0.6,0.5-1.3,0.9-2.5,1
				c-2.2,0.1-4.4-1.2-4.6-3.8c-0.2-2.4,1.7-4.2,3.9-4.4c1.9-0.1,3.3,0.9,3.6,2.7H140.1z M140.1,183.9h4.6c-0.1-1.3-0.7-2.5-2.2-2.5
				C141.1,181.4,140.4,182.5,140.1,183.9z"/>
			<path d="M154.5,187.3c0,1.4-1.1,2.1-2.9,2.1c-1.5,0-2.3-0.8-2.6-1.3c-0.4-0.5-0.3-1.2,0.1-1.3c0.4-0.2,0.9,0.2,0.8,0.6
				c0,0.5-0.6,0.8-0.1,1.3c0.3,0.4,0.8,0.7,1.9,0.7s1.8-0.7,1.8-1.5c0-2-4.2-2-4.2-4.8c0-1.3,1.1-1.9,2.6-1.9c1.5,0,2,0.7,2.3,1.1
				c0.4,0.5,0.3,1.1-0.1,1.3c-0.4,0.2-0.9-0.2-0.8-0.6c0-0.5,0.5-0.8,0.1-1.2c-0.3-0.3-0.6-0.6-1.5-0.6c-1,0-1.6,0.7-1.6,1.5
				C150.2,184.8,154.5,185.1,154.5,187.3z"/>
			<path d="M165.8,189.3L165.8,189.3l-3.3,0.1v-0.1c0.9,0,1-0.6,1-1.8v-3.7c0-1.1-0.2-2.3-1.8-2.3c-0.7,0-1.7,0.6-2,1.6v4.5
				c0,1.2,0.1,1.8,1,1.8v0.1h-3.3v-0.1c0.9,0,1-0.6,1-1.8v-8.1c0-1.2-0.1-1.8-1-1.8v-0.1h2.6v0.1c-0.2,0.1-0.3,0.8-0.3,2.3v2.7
				c0.4-0.8,1.2-1.5,2.3-1.5c1.6,0,2.7,0.7,2.7,2.5v3.6C164.8,188.7,164.9,189.3,165.8,189.3z"/>
		</g>
		<g>
			<path d="M69.1,189.2L69.1,189.2c-0.2,0.2-0.4,0.3-0.8,0.3c-0.9,0-1.8-0.2-1.9-1.6c-0.4,0.7-0.9,1.2-1.6,1.4
				c-1.2,0.4-2.9,0.1-2.7-1.6c0.1-1.7,2.3-2,3.5-2.2c0.3-0.1,0.6-0.2,0.9-0.4c0-0.5,0-1,0-1.5c0-1.4-0.2-2.3-1.4-2.3
				c-1.1,0-1.6,0.3-1.8,0.9c-0.2,0.5,0.2,0.7,0.3,1.2c0.1,0.4-0.3,0.8-0.7,0.7c-0.4-0.1-0.6-0.7-0.4-1.3c0.3-0.6,0.9-1.6,2.5-1.6
				c1.5,0,2.6,0.8,2.6,2.3c0,1.6,0,4,0,4c0,1.1,0,1.7,0.8,1.7C68.8,189.4,69,189.3,69.1,189.2z M66.4,187.9c0-0.1,0-0.2,0-0.3
				c0,0,0-1.2,0-2.3c-0.2,0.1-0.5,0.2-0.8,0.4c-0.8,0.3-2.2,0.4-2.4,1.9c-0.2,1.7,1,2.2,2,1.8C65.7,188.9,66.1,188.4,66.4,187.9z"/>
			<path d="M76.7,188.4v0.2c-0.5,0.4-1.3,0.9-2.2,0.9c-2.2,0.1-4.4-1.1-4.5-3.8c-0.1-2.6,1.5-4.1,3.7-4.4c1.6-0.2,2.7,0.8,3,1.5
				c0.3,0.6,0.1,1.2-0.4,1.3c-0.4,0.1-0.8-0.3-0.7-0.7c0.1-0.5,0.6-0.6,0.2-1.1c-0.3-0.5-1.3-0.8-2.1-0.8c-1.7,0.1-2.4,2-2.3,4.3
				c0.1,2.3,1.5,3.8,3.1,3.8C75.2,189.4,76.2,188.8,76.7,188.4z"/>
			<path d="M85.5,188.4v0.2c-0.5,0.4-1.3,0.9-2.2,0.9c-2.2,0.1-4.4-1.1-4.5-3.8c-0.1-2.6,1.5-4.1,3.7-4.4c1.6-0.2,2.7,0.8,3,1.5
				c0.3,0.6,0.1,1.2-0.4,1.3c-0.4,0.1-0.8-0.3-0.7-0.7c0.1-0.5,0.6-0.6,0.2-1.1c-0.3-0.5-1.3-0.8-2.1-0.8c-1.7,0.1-2.4,2-2.3,4.3
				c0.1,2.3,1.5,3.8,3.1,3.8C84.2,189.4,85.2,188.8,85.5,188.4z"/>
			<path d="M90.7,189.3L90.7,189.3l-3.3,0.1v-0.1c0.9,0,1-0.6,1-1.8v-4.2c0-1.2-0.1-1.8-1-1.8v-0.1h2.5v0.1
				c-0.2,0.1-0.3,0.8-0.3,2.4v3.5C89.7,188.7,89.7,189.3,90.7,189.3z M88.2,178.9c0-0.5,0.4-0.9,0.9-0.9s0.9,0.4,0.9,0.9
				s-0.4,0.9-0.9,0.9S88.2,179.4,88.2,178.9z"/>
			<path d="M100.3,185.1c0.1,2.2-1.4,4.2-3.6,4.4c-2.3,0.2-4.5-1.3-4.6-3.7c-0.1-2.4,1.6-4.3,3.9-4.5
				C98.2,181.2,100.3,182.6,100.3,185.1z M98.9,185.1c-0.1-2-1.3-3.8-2.9-3.7c-1.8,0.1-2.6,1.9-2.5,4.3c0.2,2.5,1.5,3.9,3.2,3.7
				C98.2,189.2,99,187.2,98.9,185.1z"/>
		</g>
		<g>
			<path class="st4" d="M102.9,198.1l-17.3,0.1H68.4h-8.6h-4.3h-2.1h-1.1c-0.4,0-0.8,0-1.2-0.1c-0.8-0.2-1.4-0.8-1.7-1.6
				c-0.1-0.4-0.2-0.8-0.2-1.2v-1.1V190v-8.6v-8.6c0-0.8,0.3-1.6,0.9-2c0.3-0.3,0.7-0.5,1-0.6c0.4-0.1,0.8-0.1,1.2-0.1h4.3h17.3h17.3
				l17.3,0.1l-17.3,0.1H73.8H56.6h-4.3c-0.4,0-0.7,0-1,0.1c-0.3,0.1-0.6,0.3-0.9,0.5c-0.5,0.5-0.8,1.1-0.7,1.8v8.6v8.6v4.3
				c0,0.7-0.1,1.5,0.1,2c0.2,0.6,0.8,1.1,1.4,1.3c0.3,0.1,0.7,0.1,1,0.1h1.1h2.1h4.3h8.6h17.3L102.9,198.1z"/>
		</g>
		<g>
			<path class="st4" d="M121.8,170.4l18.1-0.1h18.1h18.1c0.4,0,0.8,0,1.2,0.1c0.4,0.1,0.8,0.3,1.1,0.6c0.7,0.5,1,1.5,0.9,2.1v4.6
				v9.1v9.1c0,0.8-0.4,1.7-1.1,2.1c-0.3,0.3-0.8,0.4-1.2,0.5c-0.4,0-0.8,0-1.2,0h-4.6h-18.1h-18.1l-18.1-0.1l18.1-0.1h18.1h18.1h4.6
				c0.4,0,0.8,0,1.1,0c0.3-0.1,0.7-0.2,1-0.4c0.6-0.4,0.9-1.1,0.9-1.8V187V178v-4.6c0.1-0.8-0.2-1.5-0.7-1.9
				c-0.3-0.2-0.6-0.4-0.9-0.5c-0.3-0.1-0.7-0.1-1.1-0.1h-18.1H140L121.8,170.4z"/>
		</g>
	</g>
	<path class="st5" d="M113.2,126.3c1,2.2,1.9,4.2,2.5,5.6c2.8,6.3,11,9.6,0-24.3c-11-34-15.1-25.6-17-45.1S94.4,21.4,89,8.2
		S68.8,1,64.1,8.2c0,0,10.6-5.6,13.6,1s1.4,5.6,3.2,13.3s6.8,16,7,20.9s-0.3,8,1.1,11.9c2.9,7.9,7.2,22.5,7.2,28.5s2.8,15,6,19.8
		c1.4,2.1,3.7,6.6,5.9,11.6c0.2,0.5,0.7,1.6,1.2,2.8"/>
	<path class="st5" d="M63.6,9c0,0-11.4,0.9-9.5,4.1S60.6,12,63.6,9z"/>
	<path class="st5" d="M63.2,9.4c0,0,8.7-7.4,5.3-8.9C65.1-1,63.8,5.2,63.2,9.4z"/>
	<g>
		<path class="st6" d="M63.4,8.6c1-0.1,1.9-0.1,2.9,0.1c0.9,0.2,1.8,0.6,2.5,1.2c-0.7-0.6-1.6-0.8-2.5-0.9c-0.9-0.1-1.8,0.1-2.6,0.3
			l0,0c-0.2,0.1-0.4-0.1-0.5-0.3C63,8.9,63.1,8.7,63.4,8.6C63.3,8.6,63.3,8.6,63.4,8.6z"/>
	</g>
	<g>
		
			<linearGradient id="SVGID_1_" gradientUnits="userSpaceOnUse" x1="18.3003" y1="-230.6051" x2="242.0582" y2="-230.6051" gradientTransform="matrix(0.9674 -0.2533 -0.2533 -0.9674 -69.3716 104.0099)">
			<stop  offset="0.1898" style="stop-color:#A9773F"/>
			<stop  offset="0.3044" style="stop-color:#AE7B41"/>
			<stop  offset="0.6175" style="stop-color:#B37F43"/>
			<stop  offset="0.9688" style="stop-color:#B68045"/>
		</linearGradient>
		<path class="st7" d="M12.9,310.7c2-1.2,4.1-2.3,6.3-3.5c4.3-2.3,3.6-1.8,9.5-5c5.2-2.8,9.2-5,10.2-5.6c7.5-4.2,13.1-7.5,17.1-9.7
			c16.5-9.5,12.6-7.2,23.2-13.3c8.3-4.8,20.3-11.7,31.7-18.5c55.1-32.5,82.3-49.2,86.5-53.3c0.4-0.4,2.3-2.4,3.6-1.9
			c0.9,0.4,0.9,1.6,1.5,3.5c0.8,2.6,1.8,3.7,2.8,5.4c2.3,4,6.6,14.8,8.1,19.5c8.7,26.6,4,50.6,4,50.6c-4.2,20.8-14.8,34.4-19.7,40.6
			c-12.8,16.3-27.4,24.3-37.3,29.9c-16.1,9-29.6,12.5-32.6,13.2c-7.8,2-21.3,5.3-38.3,3.6c-1-0.1-2.4-0.2-4.2-0.5
			c-8.2-1.2-15.1-3.6-22.6-6.9c-1-0.4-19.6-8.8-36.9-21.8c0,0-11.1-8.4-14.4-14.5c0,0-0.1-0.1-0.2-0.3c-0.6-1.1-1.1-1.8-1.4-2.3
			C8,317.9,8,317.9,8,317.9c-1.1-1.1-1.8-0.9-2.7-2c-0.3-0.4-0.9-1.1-0.6-1.7c0.3-0.7,1.5-0.6,2.6-0.8C9,313.3,9.5,312.7,12.9,310.7
			z"/>
		<path class="st8" d="M18.8,324.5c1.1-2.1,3.9-7.7,8-8.8c1.4-0.4-4.8,8.5-6.8,9.6C18.1,326.3,18.2,325.8,18.8,324.5z"/>
		<path class="st8" d="M28.2,333c1.2-1.9,4.3-7.5,8.5-8.4c1.4-0.3-5.2,8.3-7.2,9.2C27.4,334.8,27.4,334.2,28.2,333z"/>
		<path class="st8" d="M39.2,341c1.2-1.9,4.3-7.5,8.5-8.4c1.4-0.3-5.2,8.3-7.2,9.2C38.4,342.9,38.5,342.3,39.2,341z"/>
		<path class="st8" d="M54.2,350.1c0.9-2.2,3.2-8,7.2-9.5c1.3-0.5-4.1,8.9-5.9,10.1C53.7,352.1,53.7,351.5,54.2,350.1z"/>
		<path class="st8" d="M70.4,356.4c0.5-2.2,1.8-8.5,5.4-10.6c1.3-0.7-2.4,9.5-4,11C70.2,358.4,70.1,357.8,70.4,356.4z"/>
		<path class="st8" d="M87.3,360.7c0.1-2.3,0.4-8.6,3.7-11.3c1.1-0.9-0.9,9.7-2.2,11.5C87.5,362.7,87.2,362.1,87.3,360.7z"/>
		<path class="st8" d="M109.7,360.6c-0.4-2.3-1.8-8.5,0.7-11.8c0.9-1.2,1.6,9.6,0.8,11.7C110.3,362.5,110,362,109.7,360.6z"/>
		<path class="st8" d="M128.6,356.9c-0.9-2.1-3.6-7.9-1.9-11.7c0.6-1.3,3.7,9,3.3,11.2C129.7,358.6,129.2,358.1,128.6,356.9z"/>
		<path class="st8" d="M144.9,351.6c-1.1-2-4.4-7.5-3.1-11.5c0.5-1.4,4.6,8.6,4.4,10.8C146.1,353.2,145.6,352.8,144.9,351.6z"/>
		<path class="st8" d="M160.4,344.9c-1.4-1.8-5.4-6.8-4.7-10.9c0.3-1.4,5.8,7.9,6,10.1C161.8,346.3,161.3,346,160.4,344.9z"/>
		<path class="st8" d="M180,331.2c-1.6-1.6-6.3-6-6.1-10.2c0-1.4,6.7,7.1,7.2,9.3C181.6,332.4,181.1,332.2,180,331.2z"/>
		<path class="st8" d="M192.2,319c-2-1.2-7.5-4.4-8.3-8.5c-0.3-1.4,8.2,5.3,9.2,7.3C194.1,319.8,193.5,319.7,192.2,319z"/>
		<path class="st8" d="M200.6,306.8c-2.1-1-7.8-3.7-9-7.8c-0.4-1.4,8.6,4.6,9.7,6.5C202.4,307.5,201.8,307.4,200.6,306.8z"/>
		<path class="st8" d="M207.1,293c-2.2-0.7-8.3-2.6-9.9-6.5c-0.6-1.3,9.2,3.4,10.5,5.1C209.1,293.4,208.5,293.5,207.1,293z"/>
		<path class="st8" d="M212.4,277.3c-2.3-0.3-8.6-0.9-11.1-4.3c-0.8-1.1,9.6,1.4,11.4,2.8C214.4,277.3,213.8,277.4,212.4,277.3z"/>
		<path class="st8" d="M213.2,253.7c-2.3,0.2-8.7,0.8-11.7-2.1c-1-1,9.7-0.4,11.7,0.6C215.2,253.4,214.6,253.7,213.2,253.7z"/>
		<path class="st8" d="M211.7,237.6c-2.2,0.5-8.4,2.1-11.9-0.3c-1.2-0.8,9.6-2,11.7-1.2C213.6,236.9,213.1,237.3,211.7,237.6z"/>
		<path class="st8" d="M208.5,224.2c-2.2,0.7-8.1,2.9-11.8,0.9c-1.3-0.7,9.3-2.9,11.5-2.4C210.4,223.4,209.8,223.8,208.5,224.2z"/>
		<path class="st8" d="M203.9,213.7c-2.1,1-7.7,3.9-11.6,2.3c-1.4-0.5,8.9-4,11.1-3.7C205.6,212.6,205.2,213.1,203.9,213.7z"/>
		<path class="st9" d="M45.2,305c-3.6,3.4-10.6,8.6-7.3,11.8c3.2,3.1,11.1,10,20.8,5.8s18,13.6,25.9,12.1c8-1.6,33.6-11.6,27.4-21.4
			c-6.2-9.8-15.2-13.9-15.2-21.8s-3-11.4-9.1-9.8c-6.1,1.6-14.3,15.1-22.3,17.6C57.2,301.7,51.5,299,45.2,305z"/>
		<path class="st9" d="M185.6,223.9c5.1-0.2,7.3,6.3,9.1,23.8s1.9,28.6-1.8,36c-3.7,7.3-5.8,14.1-3.4,19.3c2.4,5.3,4.5,7.1-4.8,3.1
			c-9.3-4-15.9,12.5-16.5,6.6s14.9-14.4,12.8-20.6c-2.1-6.3,2.6-21.6-1.4-26.4s10.4-8.1,8.6-13.2c-1.7-5.1-10.8-1.3-10.5-6.2
			c0.4-4.8,8.7-12.8,6.3-14.7S169.1,224.5,185.6,223.9z"/>
		<path class="st9" d="M130.7,332.2c0.3,2.4-0.2,5.2,2.9,11.1c3.1,5.8,5.1,16.8,5.4,8.3s-3.7-16.5,0-17.9s1.7,2.7,8.5-1.4
			s8.1-2.2,12.6-1.3c4.4,0.8,6-4.9-0.2-8.5c-6.2-3.5-10-4.4-10.3-10.1c-0.3-5.8-12.9-9-12.5-3.1c0.5,6,8.9,13.9,4.2,14.9
			C136.4,325.4,130.1,327.4,130.7,332.2z"/>
		<path class="st9" d="M136.9,257.2c-5.3,4.1-13.9,10.2-12.6,14.9c1.3,4.7,0.4,8.6-3.9,15.1c-4.2,6.5-7.9,11.1,7.9,0.5
			c15.8-10.6,5,4.9,11.7,2.4c6.6-2.5,15.7-8.8,11.5-9.9c-4.2-1.2-9.8,2-10.6-0.3c-0.8-2.4,14.7-6.4,14-8.2s-3.3-3.3,1-5.5
			c4.2-2.3,11-8.5,6.4-7.9c-4.6,0.6-13.4,4.6-14.3,1.2s-5.6,3.3-7.4,7.9c-1.9,4.7-6.9-1.6-3.9-5.5S140,254.8,136.9,257.2z"/>
	</g>
	<g>
		<path d="M48.9,417.6c0,2.2-1.9,3.4-4,3.4l-1.8,0l0,3.1c0,1.3,0.1,1.8,1.1,1.8l0,0.1l-3.7-0.1l0-0.1c0.9,0,1-0.6,1.1-1.9l0-8
			c0-1.3-0.1-1.8-1.1-1.8l0-0.1l4.4,0.1C47,414.1,48.9,415.4,48.9,417.6z M47.3,417.6c0-2.3-1.3-3.3-2.5-3.3l-0.6,0
			c-0.9,0-1,0.6-1.1,1.9l0,4.8l1.6,0C45.9,420.9,47.3,419.9,47.3,417.6z"/>
		<path d="M60.5,414.2L60.5,414.2c-0.9,0.1-1,0.7-1.1,2l0,6.2c0,3-1.9,3.8-3.8,3.8c-1.8,0-4.3-0.9-4.3-3.8l0-6.2
			c0-1.3-0.1-1.8-1.1-1.8l0-0.1l3.7,0.1l0,0.1c-0.9,0-1,0.6-1.1,1.9l0,6.4c0,2.2,1.2,3.5,2.8,3.5c2.6,0,3.8-1.4,3.9-3.7l0-6.2
			c0-1.3-0.1-1.8-1.1-1.8l0-0.1L60.5,414.2z"/>
		<path d="M74.2,424.2c0,1.3,0.1,1.8,1.1,1.8l0,0.1l-3.7-0.1l0-0.1c0.9,0,1-0.6,1.1-1.9l0-9.8l-4.3,9.3l0,0l0,0l-0.1,0
			c0,0-4.3-8-4.7-8.4l0,7.6c0,2.1,1,3.2,2.1,3.2l0,0.1l-4.3-0.1l0-0.1c1.1,0,2.2-1.2,2.1-3.2l0-7.7c-0.4-0.5-0.8-0.8-1.4-0.8l0-0.1
			l2.6,0l4.3,7.9l3.7-7.9l2.5,0l0,0.1c-0.9,0-1,0.6-1.1,1.9L74.2,424.2z"/>
		<path d="M85.3,417.7c0,2.2-1.9,3.4-4,3.4l-1.8,0l0,3.1c0,1.3,0.1,1.8,1.1,1.8l0,0.1l-3.7-0.1l0-0.1c0.9,0,1-0.6,1.1-1.9l0-8
			c0-1.3-0.1-1.8-1.1-1.8l0-0.1l4.4,0.1C83.4,414.3,85.4,415.4,85.3,417.7z M83.7,417.6c0-2.3-1.3-3.3-2.5-3.3l-0.6,0
			c-0.9,0-1,0.6-1.1,1.9l0,4.8l1.6,0C82.3,421,83.7,419.9,83.7,417.6z"/>
		<path d="M98.3,426L98.3,426l-3.4,0.1l-4.6-5.9c-0.3,0.2-0.6,0.6-0.8,0.7l0,3.2c0,1.3,0.1,1.8,1.1,1.8l0,0.1l-3.7-0.1l0-0.1
			c0.9,0,1-0.6,1.1-1.9l0-8c0-1.3-0.1-1.8-1.1-1.8l0-0.1l3.7,0.1l0,0.1c-0.9,0-1,0.6-1.1,1.9l0,4.7c1-0.9,3.1-2.8,4.2-4
			c1.2-1.3,1.3-2.5,0.1-2.6l0-0.1l3.7-0.1l0,0.1c-1.1,0-3.1,2-3.9,2.8c-0.6,0.6-1.4,1.4-2.3,2.1c0.2,0.2,2.9,3.7,3.7,4.7
			C95.7,424.8,97.1,426,98.3,426z"/>
		<path d="M101.8,424.3c0,1.3,0.1,1.8,1.1,1.8l0,0.1l-3.7-0.1l0-0.1c0.9,0,1-0.6,1.1-1.9l0-8c0-1.3-0.1-1.8-1.1-1.8l0-0.1l3.7,0.1
			l0,0.1c-0.9,0-1,0.6-1.1,1.9L101.8,424.3z"/>
		<path d="M116.6,414.3L116.6,414.3c-1.1,0.1-2,1.3-2.1,3.2l0,8.6l-0.2,0c-0.1-0.1-7.7-9.9-8.1-10.3l0,7c0,2.1,1,3.2,2.1,3.2l0,0.1
			l-4.3-0.1l0-0.1c1.1,0,2.1-1.2,2.1-3.2l0-7.1c-0.6-0.7-1.3-1.4-2-1.3l0-0.1l2.9,0l7.5,9.7l0-6.3c0-2.1-1-3.2-2.1-3.2l0-0.1
			L116.6,414.3z"/>
		<path d="M129.6,417.8c0,2.2-1.9,3.4-4,3.4l-1.8,0l0,3.1c0,1.3,0.1,1.8,1.1,1.8l0,0.1l-3.7-0.1l0-0.1c0.9,0,1-0.6,1.1-1.9l0-8
			c0-1.3-0.1-1.8-1.1-1.8l0-0.1l4.4,0.1C127.7,414.3,129.7,415.5,129.6,417.8z M128,417.8c0-2.3-1.3-3.3-2.5-3.3l-0.6,0
			c-0.9,0-1,0.6-1.1,1.9l0,4.8l1.6,0C126.7,421,128,420,128,417.8z"/>
		<path d="M140.1,426.1L140.1,426.1l-3.8,0.1l0-0.1c0.8,0,0.9-0.4,0.4-1.6c-0.1-0.5-0.6-1.7-1.2-3.1l-4.1-0.1
			c-0.3,0.7-0.4,1.3-0.6,1.4c-0.6,1.4-0.4,3.2,0.7,3.2l0,0.1l-3.7,0.1l0-0.1c1.1-0.1,1.9-0.9,2.6-2.7c0.6-1.5,3.7-9.1,3.7-9.1l0.1,0
			c0,0,3.2,8.5,3.7,9.6C138.6,425,139,426.1,140.1,426.1z M135.6,421.5c-1-2.4-1.9-5.1-2-5.1c-0.7,1.6-1.4,3.7-2,5.2L135.6,421.5z"
			/>
		<path d="M149,423.3c0,2.1-1.7,3.1-4.1,3.2c-0.9,0-1.8-0.2-2.4-0.3c-0.6-0.1-1.4-0.3-1.5,0.8l-0.1,0l0.1-4.3l0.1,0
			c0,1,1.1,3.8,3.8,3.7c1.5,0,2.6-1,2.6-2.3c0-3-6.3-3.2-6.2-6.8c0-2.1,1.8-3,3.5-2.9c0.9,0,1.7,0.3,2.5,0.5c0.6,0.2,0.9,0,0.9-0.9
			l0.1,0l-0.1,4.3l-0.1,0c0-2.1-1.3-3.8-3.4-3.7c-1.1,0-2.3,0.6-2.3,2.3C142.6,419.4,148.9,419.8,149,423.3z"/>
		<path d="M160.3,416.9L160.3,416.9c-0.6-1.1-1.3-2.5-3-2.5l-0.3,0c-0.9,0-1,0.6-1.1,1.9l0,8c0,1.3,0.1,1.8,1.1,1.8l0,0.1l-3.7-0.1
			l0-0.1c0.9,0,1-0.6,1.1-1.9l0-8c0-1.3-0.1-1.8-1.1-1.8l-0.3,0c-1.7,0-2.5,1.3-3,2.5l-0.1,0l0.4-2.5l9.5,0L160.3,416.9z"/>
		<path d="M164.4,424.3c0,1.3,0.1,1.8,1.1,1.8l0,0.1l-3.7-0.1l0-0.1c0.9,0,1-0.6,1.1-1.9l0-8c0-1.3-0.1-1.8-1.1-1.8l0-0.1l3.7,0.1
			l0,0.1c-0.9,0-1,0.6-1.1,1.9L164.4,424.3z"/>
		<path d="M176.1,423.4l-0.6,2.9l-8.3,0l0-0.1c0.9,0,1-0.6,1.1-1.9l0-8c0-1.3-0.1-1.8-1.1-1.8l0-0.1l7.7,0l0.6,2.3l-0.1,0
			c-0.5-1.1-1.4-2.3-3.1-2.3l-1.4,0c-0.9,0-1,0.6-1.1,1.9l-0.1,4l1.3,0c1.4,0,2.4-1,2.4-2.1l0.1,0l-0.1,4.3l-0.1,0
			c0-1.1-1.1-2.1-2.3-2.1l-1.3,0l-0.1,3.9c0,1.3,0.1,1.8,1.1,1.8l2,0C174.4,426.2,175.4,424.6,176.1,423.4L176.1,423.4z"/>
		<path d="M185.3,423.4c0,2.1-1.7,3.1-4.1,3.2c-0.9,0-1.8-0.2-2.4-0.3c-0.6-0.1-1.4-0.3-1.5,0.8l-0.1,0l0.1-4.3l0.1,0
			c0,1,1.1,3.8,3.8,3.7c1.5,0,2.6-1,2.6-2.3c0-3-6.3-3.2-6.2-6.8c0-2.1,1.8-3,3.5-2.9c0.9,0,1.7,0.3,2.5,0.5c0.6,0.2,0.9,0,0.9-0.9
			l0.1,0l-0.1,4.3l-0.1,0c0-2.1-1.3-3.8-3.4-3.7c-1.1,0-2.3,0.6-2.3,2.3C178.9,419.5,185.2,419.8,185.3,423.4z"/>
	</g>
	<g>
		<path d="M96.6,435l-20.4,0.1l-20.4,0.1l-20.4,0.1l-2.5,0c-0.5,0-0.8,0-1.3,0s-0.9-0.1-1.3-0.3c-0.8-0.3-1.5-1-1.9-1.9
			c-0.1-0.5-0.1-0.9-0.1-1.4l0-1.3l0-10.2l0.1-10.2l0-1.3c0-0.5,0-0.9,0.1-1.4c0.2-0.9,1-1.6,1.8-2c0.5-0.2,0.9-0.2,1.4-0.4
			c0.5,0,0.8,0,1.3,0l2.5,0l20.4,0l20.4,0l20.4,0.2l-20.4,0.1l-20.4,0.1l-20.4,0.1l-2.5,0c-0.9,0-1.7-0.1-2.4,0.3
			c-0.7,0.4-1.4,0.9-1.6,1.6c-0.1,0.3-0.1,0.8-0.1,1.2l0,1.3l0,10.2l-0.1,10.2l0,1.3c0,0.5,0,0.8,0.1,1.1c0.2,0.7,0.8,1.4,1.5,1.7
			c0.7,0.3,1.5,0.3,2.4,0.3l2.5,0l20.4,0l20.4,0L96.6,435z"/>
	</g>
	<g>
		<path d="M113.7,405.4l24.3-0.1l24.4,0l24.4,0l6.1,0l1.5,0c0.6,0,1,0.1,1.6,0.3c0.9,0.4,1.9,1.4,1.9,2.5l0.1,12.2l-0.1,12.2
			c-0.1,1.2-0.9,2.1-1.9,2.6c-0.5,0.2-1,0.4-1.6,0.4l-1.5,0l-6.1,0l-24.4-0.1l-24.4-0.1l-24.4-0.2l24.3-0.1l24.4,0l24.4,0l6.1,0
			c1,0,2.1,0.1,2.9-0.3c0.8-0.4,1.6-1.2,1.6-2.1l0.1-12.2l0.1-12.2c0-0.9-0.7-1.7-1.6-2.2c-0.8-0.4-1.8-0.3-2.9-0.3l-6.1,0
			l-24.4-0.1l-24.4-0.1L113.7,405.4z"/>
	</g>
</g>
</svg>
