<svg id="Layer_1" data-name="Layer 1" xmlns="http://www.w3.org/2000/svg" viewBox="0 0 40 32.48"><defs><style>.cls-1{fill:#492e83;}</style></defs><title>f-twitter</title><path class="cls-1" d="M12.56,36.24c15.12,0,23.36-12.48,23.36-23.36v-1A17.13,17.13,0,0,0,40,7.6a16.55,16.55,0,0,1-4.72,1.28,8.52,8.52,0,0,0,3.6-4.56,17.11,17.11,0,0,1-5.2,2A8.21,8.21,0,0,0,19.52,12a6.82,6.82,0,0,0,.24,1.84,23.28,23.28,0,0,1-17-8.56,8.32,8.32,0,0,0,2.48,11,8.07,8.07,0,0,1-3.76-1v.08a8.31,8.31,0,0,0,6.56,8.08,8.19,8.19,0,0,1-3.68.16,8.17,8.17,0,0,0,7.68,5.68A16.16,16.16,0,0,1,1.92,32.72,15.41,15.41,0,0,1,0,32.64a23.89,23.89,0,0,0,12.56,3.6" transform="translate(0 -3.76)"/></svg>