<?xml version="1.0" encoding="utf-8"?>
<!-- Generator: Adobe Illustrator 22.1.0, SVG Export Plug-In . SVG Version: 6.00 Build 0)  -->
<svg version="1.1" xmlns="http://www.w3.org/2000/svg" xmlns:xlink="http://www.w3.org/1999/xlink" x="0px" y="0px"
	 viewBox="0 0 356 508" style="enable-background:new 0 0 356 508;" xml:space="preserve">
<style type="text/css">
	.st0{fill:url(#SVGID_1_);stroke:#121212;stroke-miterlimit:10;}
	.st1{fill:#121212;}
	.st2{fill:url(#SVGID_2_);}
	.st3{fill:url(#SVGID_3_);}
	.st4{fill:#FFFFFF;}
	.st5{fill:none;stroke:#7D7D7D;stroke-width:0.5;stroke-miterlimit:10;}
	.st6{fill:#7D7D7D;}
	.st7{stroke:#FFFFFF;stroke-width:0.25;stroke-miterlimit:10;}
	.st8{fill:#A5A4A4;}
	.st9{fill:#2D2F77;}
	.st10{fill:#663695;}
</style>
<g id="Layer_1">
</g>
<g id="_x3C_Layer_x3E_">
	<g>
		<linearGradient id="SVGID_1_" gradientUnits="userSpaceOnUse" x1="178" y1="135.2908" x2="178" y2="508">
			<stop  offset="0.2655" style="stop-color:#24347D"/>
			<stop  offset="0.3621" style="stop-color:#2C4188"/>
			<stop  offset="0.6407" style="stop-color:#4364A6"/>
			<stop  offset="0.8516" style="stop-color:#537CBB"/>
			<stop  offset="0.9688" style="stop-color:#5B88C6"/>
		</linearGradient>
		<path class="st0" d="M289.4,508H66.6c-9.5,0-17.1-7.7-17.1-17.1V152.4c0-9.5,7.7-17.1,17.1-17.1h222.8c9.5,0,17.1,7.7,17.1,17.1
			v338.5C306.5,500.3,298.8,508,289.4,508z"/>
		<path class="st1" d="M87.8,376.2c-2.9-2.2-3.8-5.8-4.5-7.4s-0.3-8,7.7-6.9c8,1,5.5,7.8,5.1,9.5s2.3,3.7,7.8,3
			c5.5-0.7,10.7,48.9,20.2,60.4c0,0,6.6,9.7,7.8,10.5c0,0-49.6,14.7-69.4-1.7c0,0,0.9-5.2,7-13.1c6.1-7.9,13.1-22.5,12.4-31.4
			s1.7-18.2,3.5-20c0,0,0.5-1.1,3-1.1S87.8,376.2,87.8,376.2z"/>
		<path class="st1" d="M205.6,382.3c0.7-2.3,1-5.7,0.5-6.4s-3.4,0.9-4.5-1.1c-1.1-2-7.2-7.4-1-12.5c6.2-5.1,10.7,0,11.2,2.9
			c0.5,2.9-0.9,6.3,0.4,6.7c1.3,0.4,2.9-1.3,6,6.2c3.2,7.6,19.6,43.6,22.7,65.9c0,0-44.1,6.6-50.5,1.9c0,0,2-35.8,7.3-46
			C202.8,389.8,205.6,382.3,205.6,382.3z"/>
		<path class="st1" d="M189.6,412.8c-3.8,0.1-8.1,2-8.5,5.4c-0.4,3.4-3.1,2.4-3.1,5.9c0,3.5,0.1,7.7,2.9,8.5
			c2.8,0.8,5.6-1.3,7.4-1.2c1.8,0.1,53.7-0.9,56.6,1.4s7.8,8.5,8.7,10.5c0,0,2.3-28.7,2-31.9l-2-1.4c0,0-25.7,1.1-27.7,2.6
			C223.8,414.3,189.6,412.8,189.6,412.8z"/>
		<linearGradient id="SVGID_2_" gradientUnits="userSpaceOnUse" x1="186.6983" y1="291.4219" x2="153.2846" y2="291.4219">
			<stop  offset="0" style="stop-color:#000000"/>
			<stop  offset="0.4988" style="stop-color:#070708"/>
			<stop  offset="0.6785" style="stop-color:#1E1E1F"/>
			<stop  offset="0.8065" style="stop-color:#38383A"/>
			<stop  offset="0.9094" style="stop-color:#4C4C4E"/>
			<stop  offset="0.9688" style="stop-color:#58595B"/>
		</linearGradient>
		<path class="st2" d="M153.4,219.6c0,0,2.3,46.4,2,56.8s-2.2,42.5-0.6,57.2c1.6,14.7-0.1,114-0.1,114h32c0,0-8.4-56.1-8.7-78
			c-0.3-22,0.2-37.6-2.4-50.2c-2.5-12.6-0.5-46.7-1-49.7c-0.5-3-4.2-42-3.9-50c0.4-11.9-2.4-56.7-2.4-62.3c0-5.6-0.3-22-0.3-22
			l-14.7,0c0,0-0.2,58.7,0,69C153.6,214.7,153.3,218.5,153.4,219.6z"/>
		<linearGradient id="SVGID_3_" gradientUnits="userSpaceOnUse" x1="290.747" y1="291.4219" x2="250.1386" y2="291.4219">
			<stop  offset="0" style="stop-color:#000000"/>
			<stop  offset="0.4988" style="stop-color:#070708"/>
			<stop  offset="0.6785" style="stop-color:#1E1E1F"/>
			<stop  offset="0.8065" style="stop-color:#38383A"/>
			<stop  offset="0.9094" style="stop-color:#4C4C4E"/>
			<stop  offset="0.9688" style="stop-color:#58595B"/>
		</linearGradient>
		<path class="st3" d="M250.1,219.6c0,0,2.1,49,2.1,63.9c0,14.9-0.6,83.7-0.3,92.8c0.3,9.1-0.2,71.3-0.2,71.3h39
			c0,0-4.7-30.2-4.4-55.7c0.3-25.6-2.7-86.5-4.9-93.5c-2.1-7-0.9-78.8-0.9-78.8c0.5-9.4-1.1-83.3-1.1-83.3c-1.1-0.3-2.9-0.6-5-0.8
			c-2.2-0.2-3.7-0.2-7.1-0.2c-2.5,0-5,0-7.4,0c-2.4,0-5.7,0-9.8,0c0,20.8,0,41.6,0,62.4C250.1,205,250.1,212.3,250.1,219.6z"/>
		<path class="st1" d="M306.5,437.7v35c0,19.5-15.8,35.3-35.3,35.3H84.8c-19.5,0-35.3-15.8-35.3-35.3v-34c0,0,71.9-0.7,90.1,1.1
			c18.2,1.7,64,0,69.9-0.9c5.9-0.9,61.2-1.3,67.2-0.2S306.5,437.7,306.5,437.7z"/>
		<circle class="st4" cx="178" cy="156.1" r="11.1"/>
		<path class="st5" d="M171.5,147c1.1,2.6,2.1,4.9,2.8,6.5c3.2,7.4,12.3,11.2,0-28.4c-12.3-39.6-16.8-29.8-18.9-52.6
			s-4.8-47.9-10.9-63.2s-22.6-8.5-27.8,0c0,0,11.9-6.5,15.2,1.1s1.5,6.6,3.6,15.5c2,8.9,7.6,18.7,7.8,24.4s-0.3,9.4,1.2,13.8
			c3.3,9.2,8.1,26.3,8.1,33.3c0,7,3.2,17.5,6.7,23.1c1.5,2.5,4,7.7,6.6,13.5"/>
		<path class="st5" d="M116.2,9.7c0,0-12.7,1-10.6,4.6C107.7,17.9,112.9,13.1,116.2,9.7z"/>
		<path class="st5" d="M115.7,10.2c0,0,9.8-8.3,6-9.9S116.5,5.5,115.7,10.2z"/>
		<g>
			<path class="st6" d="M115.9,9.4c1.1-0.1,2.1-0.1,3.2,0.1c1,0.2,2,0.6,2.8,1.4c-0.8-0.6-1.8-0.9-2.8-1c-1-0.1-2,0-3,0.3l0,0
				c-0.2,0.1-0.4-0.1-0.5-0.3C115.6,9.7,115.7,9.5,115.9,9.4C115.9,9.4,115.9,9.4,115.9,9.4z"/>
		</g>
		<g>
			<path class="st4" d="M93.8,472.2L93.8,472.2c-0.6-1.2-1.7-2.5-3.5-2.5h-1.5c-1.1,0-1.2,0.7-1.2,2v4.3h1.4c1.4,0,2.6-1,2.6-2.3
				h0.1v4.7h-0.1c0-1.2-1.2-2.3-2.6-2.3h-1.4v4.3c0,1.4,0.1,2,1.2,2v0.1h-4v-0.1c1.1,0,1.2-0.7,1.2-2v-8.7c0-1.4-0.1-2-1.2-2v-0.1
				h8.4L93.8,472.2z"/>
			<path class="st4" d="M108.9,475.5c0.4,4-2.5,6.9-6.4,7.2c-3.8,0.4-7.2-2-7.6-6c-0.4-4.1,2.5-6.9,6.4-7.3
				C105.2,469.1,108.5,471.4,108.9,475.5z M107,475.6c-0.3-3.6-2.9-6.3-5.7-6.1c-2.8,0.2-4.9,3.4-4.5,7c0.3,3.6,2.9,6.3,5.7,6.1
				C105.3,482.4,107.4,479.3,107,475.6z"/>
			<path class="st4" d="M122.9,482.5L122.9,482.5c0,0.1-1,0.1-2,0.1c-0.8,0-1.6-0.2-2.1-0.8c-1.6-1.8-1.8-5.5-3.8-5.6
				c0,0-1.4,0-1.6,0v4.3c0,1.4,0.1,2,1.2,2v0.1h-4v-0.1c1.1,0,1.2-0.7,1.2-2v-8.7c0-1.4-0.1-2-1.2-2v-0.1h5.1c1.8,0,3.9,0.9,3.9,3.3
				c0,1.9-1.4,2.9-3.1,3.2c1.8,0.6,2.3,2.7,3.4,4.5C120.8,481.7,121.8,482.5,122.9,482.5z M115.2,476.1c1.2,0,2.7-0.9,2.7-3.2
				s-1.6-3.2-2.7-3.2h-0.6c-1.1,0-1.2,0.7-1.2,2v4.3C114.1,476.1,114.8,476.1,115.2,476.1z"/>
			<path class="st4" d="M134.1,479.3c0,2.3-2.1,3.3-4.1,3.3H124v-0.1c1.1,0,1.2-0.7,1.2-2v-8.7c0-1.4-0.1-2-1.2-2v-0.1h5.2
				c1.8,0,3.9,0.9,3.9,3.2c0,1.9-1.4,2.9-3,3.1C132,476,134.1,477,134.1,479.3z M128,469.7c-1.1,0-1.2,0.7-1.2,2v4.3
				c0.7,0,1.5,0,2,0c1.4,0,2.6-0.8,2.6-3.1s-1.5-3.2-2.6-3.2H128z M132.3,479.3c0-2.3-1.6-3.2-2.7-3.2c0,0-2.5,0-2.7,0v4.4
				c0,1.4,0.1,2,1.2,2c0.6,0,1.2,0,1.6,0C130.8,482.5,132.3,481.7,132.3,479.3z"/>
			<path class="st4" d="M138.4,480.5c0,1.4,0.1,2,1.2,2v0.1h-4v-0.1c1.1,0,1.2-0.7,1.2-2v-8.7c0-1.4-0.1-2-1.2-2v-0.1h4v0.1
				c-1.1,0-1.2,0.7-1.2,2V480.5z"/>
			<path class="st4" d="M153.7,476.1c0,3.6-2,6.5-6,6.5h-6.2v-0.1c1.1,0,1.2-0.7,1.2-2v-8.7c0-1.4-0.1-2-1.2-2v-0.1h6.2
				C151.7,469.6,153.7,472.5,153.7,476.1z M151.8,476.1c0-5-2.6-6.4-5-6.4h-1.4c-1.1,0-1.2,0.7-1.2,2v8.7c0,1.4,0.1,2,1.2,2
				c0.4,0,0.9,0,1.4,0C149.2,482.5,151.8,481.1,151.8,476.1z"/>
			<path class="st4" d="M167.6,476.1c0,3.6-2,6.5-6,6.5h-6.2v-0.1c1.1,0,1.2-0.7,1.2-2v-8.7c0-1.4-0.1-2-1.2-2v-0.1h6.2
				C165.6,469.6,167.6,472.5,167.6,476.1z M165.8,476.1c0-5-2.6-6.4-5-6.4h-1.4c-1.1,0-1.2,0.7-1.2,2v8.7c0,1.4,0.1,2,1.2,2
				c0.4,0,0.9,0,1.4,0C163.2,482.5,165.8,481.1,165.8,476.1z"/>
			<path class="st4" d="M179.2,479.5l-0.8,3.1h-9v-0.1c1.1,0,1.2-0.7,1.2-2v-8.7c0-1.4-0.1-2-1.2-2v-0.1h8.4l0.6,2.6h-0.1
				c-0.5-1.2-1.6-2.5-3.5-2.5h-1.5c-1.1,0-1.2,0.7-1.2,2v4.3h1.4c1.4,0,2.6-1,2.6-2.3h0.1v4.7h-0.1c0-1.2-1.2-2.3-2.6-2.3h-1.4v4.3
				c0,1.4,0.1,2,1.2,2h2.1C177.3,482.5,178.5,480.7,179.2,479.5L179.2,479.5z"/>
			<path class="st4" d="M193.7,469.6L193.7,469.6c-1.2,0.1-2.3,1.4-2.3,3.6v9.4h-0.2c-0.1-0.2-8.5-10.8-8.9-11.3v7.7
				c0,2.2,1,3.5,2.3,3.5v0.1h-4.7v-0.1c1.3,0,2.3-1.3,2.3-3.5v-7.8c-0.6-0.8-1.4-1.5-2.2-1.5v-0.1h3.1l8.2,10.5v-6.9
				c0-2.2-1-3.5-2.3-3.5v-0.1H193.7z"/>
			<path class="st4" d="M208,472.2L208,472.2c-0.6-1.2-1.7-2.5-3.5-2.5h-1.5c-1.1,0-1.2,0.7-1.2,2v4.3h1.4c1.4,0,2.6-1,2.6-2.3h0.1
				v4.7h-0.1c0-1.2-1.2-2.3-2.6-2.3h-1.4v4.3c0,1.4,0.1,2,1.2,2v0.1h-4v-0.1c1.1,0,1.2-0.7,1.2-2v-8.7c0-1.4-0.1-2-1.2-2v-0.1h8.4
				L208,472.2z"/>
			<path class="st4" d="M223.1,475.5c0.4,4-2.5,6.9-6.4,7.2c-3.8,0.4-7.2-2-7.6-6c-0.4-4.1,2.5-6.9,6.4-7.3
				C219.4,469.1,222.7,471.4,223.1,475.5z M221.2,475.6c-0.3-3.6-2.9-6.3-5.7-6.1c-2.8,0.2-4.9,3.4-4.5,7c0.3,3.6,2.9,6.3,5.7,6.1
				C219.5,482.4,221.6,479.3,221.2,475.6z"/>
			<path class="st4" d="M237.1,482.5L237.1,482.5c0,0.1-1,0.1-2,0.1c-0.8,0-1.6-0.2-2.1-0.8c-1.6-1.8-1.8-5.5-3.8-5.6
				c0,0-1.4,0-1.6,0v4.3c0,1.4,0.1,2,1.2,2v0.1h-4v-0.1c1.1,0,1.2-0.7,1.2-2v-8.7c0-1.4-0.1-2-1.2-2v-0.1h5.1c1.8,0,3.9,0.9,3.9,3.3
				c0,1.9-1.4,2.9-3.1,3.2c1.8,0.6,2.3,2.7,3.4,4.5C235,481.7,236,482.5,237.1,482.5z M229.4,476.1c1.2,0,2.7-0.9,2.7-3.2
				s-1.6-3.2-2.7-3.2h-0.6c-1.1,0-1.2,0.7-1.2,2v4.3C228.3,476.1,229,476.1,229.4,476.1z"/>
			<path class="st4" d="M248,479.5l-0.8,3.1h-9v-0.1c1.1,0,1.2-0.7,1.2-2v-8.7c0-1.4-0.1-2-1.2-2v-0.1h8.4l0.6,2.6h-0.1
				c-0.5-1.2-1.6-2.5-3.5-2.5h-1.5c-1.1,0-1.2,0.7-1.2,2v4.3h1.4c1.4,0,2.6-1,2.6-2.3h0.1v4.7H245c0-1.2-1.2-2.3-2.6-2.3H241v4.3
				c0,1.4,0.1,2,1.2,2h2.1C246.2,482.5,247.4,480.7,248,479.5L248,479.5z"/>
			<path class="st4" d="M258.1,479.4c0,2.3-1.9,3.4-4.4,3.4c-1,0-2-0.2-2.6-0.4c-0.6-0.1-1.6-0.4-1.6,0.9h-0.1v-4.7h0.1
				c0,1.1,1.2,4.1,4.2,4.1c1.7,0,2.8-1.1,2.8-2.6c0-3.3-6.8-3.5-6.8-7.4c0-2.2,1.9-3.2,3.9-3.2c1,0,1.9,0.3,2.7,0.5c0.7,0.2,1,0,1-1
				h0.1v4.7h-0.1c0-2.3-1.5-4.1-3.7-4.1c-1.2,0-2.5,0.7-2.5,2.5C251.2,475.2,258.1,475.6,258.1,479.4z"/>
			<path class="st4" d="M270.4,472.4L270.4,472.4c-0.6-1.2-1.5-2.7-3.3-2.7h-0.3c-1.1,0-1.2,0.7-1.2,2v8.7c0,1.4,0.1,2,1.2,2v0.1h-4
				v-0.1c1.1,0,1.2-0.7,1.2-2v-8.7c0-1.4-0.1-2-1.2-2h-0.3c-1.9,0-2.7,1.5-3.2,2.7h-0.1l0.4-2.8H270L270.4,472.4z"/>
		</g>
		<g>
			<path class="st4" d="M159.7,492.3l-24.2,0.1l-24.2,0l-24.2,0c-2,0-4,0-6.1,0c-1-0.1-2.1-0.6-2.8-1.4c-0.4-0.4-0.6-0.9-0.7-1.4
				c-0.1-0.6,0-1-0.1-1.5l0-12.1l0-12.1c0-0.5,0-1,0.1-1.5c0.1-0.5,0.4-1,0.7-1.4c0.7-0.8,1.8-1.2,2.8-1.4c2.1-0.1,4,0,6.1,0l24.2,0
				l24.2,0l24.2,0.1l-24.2,0.1l-24.2,0l-24.2,0c-2,0-4.1,0-6,0c-1,0.1-1.9,0.5-2.5,1.2c-0.3,0.3-0.5,0.8-0.6,1.2c-0.1,0.4,0,1,0,1.5
				l0,12.1l0,12.1c0,0.5,0,1,0,1.5c0.1,0.5,0.3,0.9,0.6,1.2c0.6,0.7,1.6,1.1,2.5,1.2c2,0.1,4,0,6,0l24.2,0l24.2,0L159.7,492.3z"/>
		</g>
		<g>
			<path class="st4" d="M178.3,459.8l28.4-0.1l28.4,0l28.4,0l7.1,0l1.8,0c0.6,0,1.2,0,1.8,0.1c1.2,0.2,2.4,0.9,2.9,2.1
				c0.3,0.6,0.2,1.3,0.3,1.8l0,1.8l0,3.5l0,7.1l0,7.1l0,3.5l0,1.8c0,0.6,0,1.2-0.3,1.8c-0.5,1.2-1.8,1.9-2.9,2.1
				c-0.6,0.1-1.2,0.1-1.8,0.1l-1.8,0l-7.1,0l-28.4,0l-28.4,0l-28.4-0.1l28.4-0.1l28.4,0l28.4,0l7.1,0l1.8,0c0.6,0,1.2,0,1.7-0.1
				c1.1-0.2,2.2-0.9,2.6-1.9c0.3-0.5,0.2-1,0.2-1.6l0-1.8l0-3.5l0-7.1l0-7.1l0-3.5l0-1.8c0-0.6,0-1.2-0.2-1.6
				c-0.5-1-1.5-1.6-2.6-1.9c-0.5-0.1-1.1-0.1-1.7-0.1l-1.8,0l-7.1,0l-28.4,0l-28.4,0L178.3,459.8z"/>
		</g>
		<path class="st7" d="M273,257.6H84c-1.6,0-3-1.3-3-3v-67.8c0-1.6,1.3-3,3-3h189c1.6,0,3,1.3,3,3v67.8
			C276,256.3,274.6,257.6,273,257.6z"/>
		<g>
			<path d="M167.2,252.7c0,0,0.9,0.4,2.5,0.3c0,0,0.6-1,0.3-1.6c-0.3-0.6,0.3-0.4,0.4-1c0.1-0.6-0.4-1.7-0.1-2s0.7-3.8,1.5-5.9
				c0.8-2.1,1.6-5.1,1.7-5.8c0,0,0.7,0,0.6-0.8l-0.5-0.2c0,0,1.3-3.4,1.5-4.7c0.1-1.3,0.9-2.4,1.3-4.2c0.4-1.8,1.2-3.4,2.1-6.8
				s0.2-2,1.7-7.1c1.4-5.1,1.9-5.6,2.7-8.7c0.8-3.1,1.2-3.6,1-3.8s-1.2,2.4-1.5,3.3c-0.4,0.9-0.7,2.4-1.7,5s-1.9,4.6-3,8.2
				c-1.1,3.6-2.1,5.8-3,9.3s-1.1,2.5-1.5,4.8s-1.5,3.4-1.6,3.9l-0.9-0.2c0,0-0.7,0.8,0.3,1.1c0,0-0.6,2.9-0.9,4.3
				c-0.4,1.9-1.5,4.1-2.1,6c-0.2,0.7-0.1,0.4-0.6,1.9c0,0-0.1,0.3-0.2,0.8c-0.1,0.6-0.2,0.9-0.1,1.1c0.2,0.4,0.5,0.5,0.4,0.7
				c0,0.1-0.2,0.1-0.3,0.3c-0.1,0.1-0.1,0.3,0,0.8C167.1,252,167.1,252.3,167.2,252.7z"/>
			<g>
				<path class="st8" d="M168.7,250.3c-0.1-1.1-0.1-2.2,0.1-3.2c0.1-1.1,0.9-2,1.2-3c0.4-1,0.6-2.1,0.6-3.2c0.2-0.5,0.6-0.9,0.9-1.3
					c0.3-0.4,0.6-0.9,0.7-1.4c-0.1,0.5-0.3,1-0.6,1.5c-0.3,0.4-0.7,0.8-0.9,1.3c0,1.1-0.2,2.2-0.6,3.2c-0.3,1-1.1,1.9-1.2,3
					C168.7,248.2,168.6,249.2,168.7,250.3z"/>
			</g>
			<g>
				<path class="st8" d="M171,239.4c0.4-0.7,0.7-1.5,0.9-2.4c0.1-0.2,0.1-0.4,0.2-0.6c0.1-0.2,0.3-0.4,0.4-0.5
					c0.3-0.3,0.6-0.6,0.7-1c0,0.4-0.3,0.8-0.6,1.1c-0.4,0.3-0.5,0.7-0.6,1.1C171.8,237.9,171.5,238.7,171,239.4z"/>
			</g>
			<g>
				<path class="st8" d="M173.7,232.2c0.5-1.6,0.7-3.3,1.3-4.9c0.5-1.6,1.7-3,2-4.6c0.2-0.8,0.2-1.7,0.4-2.5
					c0.2-0.8,0.7-1.6,0.9-2.4c0.5-1.6,0.9-3.2,1.4-4.9c-0.4,1.6-0.9,3.3-1.3,4.9c-0.2,0.8-0.6,1.6-0.8,2.4c-0.2,0.8-0.2,1.7-0.4,2.5
					c-0.3,1.7-1.6,3-2.1,4.6C174.4,228.9,174.1,230.5,173.7,232.2z"/>
			</g>
			<g>
				<path class="st8" d="M169.6,247.8c0.3-0.7,0.5-1.4,0.8-2.1c0.2-0.7,0.3-1.4,0.4-2.1c0.2-0.7,0.5-1.4,0.8-2.1
					c0.1-0.3,0.2-0.7,0.3-1.1c0.1-0.4,0.6-0.5,0.5-0.9c0.1,0.4-0.4,0.6-0.5,0.9c0,0.4-0.1,0.7-0.3,1.1c-0.3,0.7-0.6,1.4-0.7,2.1
					c-0.2,0.7-0.2,1.4-0.5,2.1C170.2,246.5,169.8,247.1,169.6,247.8z"/>
			</g>
			<g>
				<path class="st8" d="M172.6,234.7c0.1-0.4,0.5-0.6,0.8-0.9c0.4-0.2,0.4-0.6,0.5-1c0.3-0.7,0.6-1.4,0.8-2.2
					c0.1-0.7,0-1.6,0.4-2.3c0.2-0.4,0.4-0.7,0.5-1c0.2-0.3,0.4-0.7,0.3-1.1c0.1,0.4-0.1,0.8-0.2,1.1c-0.2,0.4-0.4,0.7-0.5,1
					c-0.3,0.7-0.2,1.5-0.3,2.3c-0.2,0.8-0.5,1.5-0.8,2.2c-0.1,0.2-0.1,0.4-0.2,0.6c-0.1,0.2-0.2,0.4-0.4,0.5
					C173,234.1,172.7,234.3,172.6,234.7z"/>
			</g>
			<g>
				<g>
					<g>
						<g>
							<path class="st9" d="M198.1,203.6C198.1,203.6,198.1,203.5,198.1,203.6C198.1,203.7,198.1,203.6,198.1,203.6z"/>
							<path class="st9" d="M199.3,203.7L199.3,203.7c0-0.1,0-0.1,0-0.2C199.3,203.5,199.3,203.6,199.3,203.7z"/>
							<path class="st9" d="M198.4,202.6c0.1,0,0.6,0,0.8,0.3l0,0c0,0,0,0.1,0.1,0.1c-0.1-0.2-0.2-0.3-0.4-0.4
								C198.7,202.6,198.6,202.6,198.4,202.6z"/>
							<path class="st9" d="M197.7,203c0,0-0.1,0.1,0.1-0.2c0,0,0,0,0,0C197.8,202.9,197.7,202.9,197.7,203z"/>
							<path class="st9" d="M197.8,202.9C197.9,202.8,197.7,203,197.8,202.9L197.8,202.9z"/>
							<path class="st9" d="M197.5,203.6c0-0.1,0-0.2,0-0.2C197.5,203.4,197.5,203.6,197.5,203.6
								C197.5,203.8,197.5,203.7,197.5,203.6z"/>
							<path class="st9" d="M197.5,203.8l0-0.1C197.5,203.7,197.5,203.7,197.5,203.8z"/>
							<path class="st9" d="M197.5,203.5c0,0.1,0,0.2,0,0.2c0,0,0,0,0-0.1C197.5,203.6,197.5,203.6,197.5,203.5z"/>
							<path class="st9" d="M197.5,203.3C197.6,203.2,197.7,203,197.5,203.3c0.1-0.3,0.2-0.3,0.2-0.3
								C197.7,203,197.6,203.1,197.5,203.3z"/>
							<path class="st9" d="M198.4,202.6c0.1,0,0.1,0,0.2,0c0,0,0.1,0,0.1,0C198.6,202.6,198.3,202.6,198.4,202.6z"/>
							<path class="st9" d="M198,204.9C198,204.9,198,204.8,198,204.9c-0.1-0.1-0.2-0.1-0.2-0.2C197.9,204.8,198,204.9,198,204.9z"
								/>
							<path class="st9" d="M198,204.8c0.1,0.1,0.1,0.1,0.2,0.1C198,204.8,198,204.8,198,204.8z"/>
							<path class="st9" d="M197.5,203.9c0-0.1,0-0.3,0-0.4C197.5,203.6,197.5,203.8,197.5,203.9L197.5,203.9z"/>
							<path class="st9" d="M199,205.1c0,0-0.1,0-0.1,0c0.1,0,0.2,0,0.3,0C199,205.1,199,205.1,199,205.1z"/>
							<path class="st9" d="M199.6,204.9C199.5,204.9,199.7,204.8,199.6,204.9c0.2-0.1,0.3-0.2,0.4-0.3
								C199.9,204.6,199.7,204.8,199.6,204.9z"/>
							<path class="st9" d="M200.1,204.3c0,0.1-0.1,0.1-0.1,0.2C200,204.5,200,204.4,200.1,204.3z"/>
							<path class="st9" d="M198.6,205.1c0,0,0.1,0,0.2,0L198.6,205.1C198.7,205.1,198.6,205.1,198.6,205.1z"/>
							<path class="st9" d="M198.7,205.1L198.7,205.1c0.1,0,0.2,0,0.2,0C198.9,205.1,198.8,205.1,198.7,205.1z"/>
							<path class="st9" d="M198.6,205.1L198.6,205.1C198.6,205.1,198.6,205.1,198.6,205.1z"/>
							<path class="st9" d="M197.7,204.5c0.1,0.1,0.3,0.4,0.1,0.1C197.8,204.5,197.8,204.7,197.7,204.5z"/>
							<path class="st9" d="M198.5,205c-0.1,0-0.2-0.1-0.3-0.1c0,0,0,0,0,0C198.3,205,198.4,205,198.5,205z"/>
							<path class="st9" d="M198.6,205.1c0,0-0.1,0-0.1,0C198.5,205.1,198.5,205.1,198.6,205.1L198.6,205.1z"/>
							<path class="st9" d="M199.8,204.7c0.1-0.1,0.2-0.2,0.3-0.3C199.9,204.5,199.8,204.6,199.8,204.7
								C199.7,204.8,199.6,204.8,199.8,204.7z"/>
							<path class="st9" d="M199.3,205L199.3,205C199.3,205,199.3,205,199.3,205z"/>
							<polygon class="st9" points="200.3,203.1 200.3,203.1 200.3,203.1 							"/>
							<path class="st9" d="M199.7,204.8c-0.1,0.1-0.2,0.1-0.2,0.1C199.6,204.9,199.6,204.8,199.7,204.8
								C199.7,204.7,199.7,204.7,199.7,204.8z"/>
							<path class="st9" d="M200.2,204c0,0.1,0,0.1-0.1,0.2C200.2,204.1,200.2,204,200.2,204z"/>
							<path class="st9" d="M199.3,205L199.3,205C199.4,205,199.4,205,199.3,205z"/>
							<path class="st9" d="M199.3,205c0.1,0,0.1,0,0.1-0.1C199.4,204.9,199.4,205,199.3,205C199.3,205,199.3,205,199.3,205z"/>
							<path class="st9" d="M200.1,202.7c0,0,0.1,0.3,0.2,0.6c0,0.3,0,0.1,0-0.1c0,0,0,0-0.1-0.3c0,0.1,0.1,0.6,0.1,0.4
								C200.2,202.8,200.2,202.9,200.1,202.7c0.1,0.2-0.2-0.3-0.1-0.2C200,202.5,200.1,202.6,200.1,202.7
								C200.1,202.7,200.1,202.6,200.1,202.7z"/>
							<path class="st9" d="M200.3,203.6l0,0.1c0-0.1,0-0.2,0-0.4c0-0.2,0-0.2,0-0.2C200.3,203.3,200.3,203.4,200.3,203.6
								L200.3,203.6z"/>
							<path class="st9" d="M200.2,204.2c0-0.1,0.1-0.3,0.1-0.2c-0.1,0.3-0.1,0.2-0.2,0.4C200.3,203.9,200,204.5,200.2,204.2
								c0,0.1-0.1,0.2-0.1,0.2C200.1,204.3,200.1,204.3,200.2,204.2L200.2,204.2L200.2,204.2L200.2,204.2
								C200.2,204.2,200.1,204.2,200.2,204.2L200.2,204.2L200.2,204.2C200.2,204,200.2,204.1,200.2,204.2L200.2,204.2L200.2,204.2
								c0.1-0.1,0.1-0.3,0.1-0.5C200.3,203.8,200.3,203.9,200.2,204.2z"/>
							<path class="st9" d="M198,204.8L198,204.8C198,204.8,198.1,204.8,198,204.8z"/>
							<path class="st9" d="M198.2,204.9c0,0-0.1,0-0.2-0.1c-0.1-0.1,0,0,0,0c-0.1,0-0.2-0.2,0,0l0,0c0.2,0.1,0.4,0.2,0.4,0.2
								C198.4,205,198.3,205,198.2,204.9z"/>
							<path class="st9" d="M199.3,204.9c0.1-0.1,0.3-0.1,0.4-0.2c-0.1,0-0.1,0.1-0.2,0.1l0,0C199.4,204.9,199.4,204.9,199.3,204.9z
								"/>
							<path class="st9" d="M200.3,203L200.3,203c0,0,0-0.1-0.1-0.2C200.3,202.9,200.3,202.9,200.3,203z"/>
							<path class="st9" d="M200.1,202.5L200.1,202.5c0,0,0-0.1-0.1-0.1L200.1,202.5z"/>
							<path class="st9" d="M209.5,196.1c0,0,0-0.1,0-0.1C209.5,196,209.5,196.1,209.5,196.1z"/>
							<path class="st9" d="M209,196.8L209,196.8C209,196.7,209,196.7,209,196.8z"/>
							<path class="st9" d="M201.5,203.4c0-0.2,0-0.4-0.1-0.4l0,0.1C201.4,203.2,201.4,203.3,201.5,203.4z"/>
							<path class="st9" d="M202.2,195.6L202.2,195.6c-0.1,0-0.1,0-0.2,0C202.1,195.6,202.1,195.6,202.2,195.6z"/>
							<path class="st9" d="M202.3,195.5c0.1,0,0.2,0,0.2,0C202.5,195.5,202.4,195.5,202.3,195.5z"/>
							<path class="st9" d="M207.5,192l-0.1-0.1C207.6,192.1,207.5,192,207.5,192z"/>
							<path class="st9" d="M196.6,204.5c0,0.2,0.1,0.3,0.1,0.4C196.6,204.7,196.6,204.7,196.6,204.5z"/>
							<path class="st9" d="M209.6,196.5c0-0.1,0-0.1,0-0.1C209.6,196.5,209.6,196.5,209.6,196.5z"/>
							<path class="st9" d="M196.9,205.3C196.8,205.2,196.8,205.2,196.9,205.3c-0.1-0.2-0.1-0.3-0.2-0.4
								C196.7,205,196.8,205.1,196.9,205.3z"/>
							<path class="st9" d="M191,195C191,195,191,195,191,195C190.9,195,191,195,191,195z"/>
							<path class="st9" d="M186.5,197.6c0,0,0.1-0.1,0.2-0.1C186.6,197.5,186.5,197.5,186.5,197.6z"/>
							<path class="st9" d="M198,201.8C198.2,201.8,198.1,201.8,198,201.8L198,201.8z"/>
							<path class="st9" d="M198.6,201.8C198.6,201.8,198.6,201.8,198.6,201.8C198.6,201.8,198.6,201.8,198.6,201.8z"/>
							<path class="st9" d="M197.7,206.1L197.7,206.1C197.7,206.1,197.7,206.1,197.7,206.1z"/>
							<path class="st9" d="M198.2,201.8c0,0-0.1,0-0.2,0C198.1,201.8,198.1,201.8,198.2,201.8z"/>
							<path class="st9" d="M198.2,201.8c0,0,0.1,0,0.1,0C198.3,201.8,198.3,201.8,198.2,201.8z"/>
							<path class="st9" d="M197.9,201.8c0.1,0,0.1,0,0.2,0c0,0,0,0,0,0C198,201.8,198,201.8,197.9,201.8z"/>
							<path class="st9" d="M199.7,191.2C199.7,191.2,199.7,191.2,199.7,191.2C199.6,191.2,199.6,191.2,199.7,191.2z"/>
							<polygon class="st9" points="200.5,200.5 200.5,200.5 200.5,200.5 							"/>
							<path class="st9" d="M200.3,200.1c0.1,0.2,0.1,0.3,0.1,0.4l0-0.1L200.3,200.1z"/>
							<path class="st9" d="M209.2,194.1c0,0.1,0.1,0.2,0.1,0.3C209.1,194.1,209,193.8,209.2,194.1c0,0,0.3,1,0.3,1.1l0,0.2
								c0-0.1,0-0.1,0-0.1c0,0.4,0.1,0.3,0,0.7c0,0.2-0.1,0.2-0.1,0.1c0,0.1-0.1,0.2-0.1,0.3c-0.1,0.1-0.1,0.1,0,0
								c-0.1,0.1-0.2,0.3-0.3,0.4l0,0c-0.1,0.1-0.2,0.2-0.3,0.2c-0.1,0.1,0.1,0,0,0c-0.1,0.1-0.2,0.1-0.3,0.1
								c-0.1,0,0.1-0.1,0.3-0.2c-0.3,0.1-0.2,0.2-0.8,0.3c0.1,0,0.2-0.1,0.3-0.1c-0.2,0-0.4,0.1-0.7,0.1c0.1,0,0.7,0,0.3,0.1
								c-0.1,0-0.1,0-0.4,0c0,0-0.2,0-0.4,0l0,0c-0.1,0-0.2,0-0.4,0c-0.3-0.1-0.3-0.1-0.4-0.1c-0.4-0.1,0.2,0.1-0.2,0
								c-0.3-0.2-0.5-0.3-0.9-0.5c-0.2-0.1,0,0,0,0l-0.2-0.1c0,0,0,0,0,0c-0.2-0.1,0,0-0.3-0.1c-0.1,0-0.5-0.3-0.9-0.4
								c-0.1,0,0,0,0,0c-0.5-0.2-0.4-0.1-0.8-0.2c-0.1,0-0.2-0.1-0.4-0.1c0.3,0.1-0.1,0-0.4,0c0.1,0,0.2,0,0.2,0c-0.2,0-0.3,0-0.5,0
								c-0.1,0,0,0,0.1,0c0,0-0.1,0-0.1,0c-0.2,0-0.1,0,0,0c0.1,0,0.1,0,0.2,0c0.1,0,0.2,0,0.2-0.1c-0.1,0-0.1,0-0.2,0
								c0,0,0.1,0,0,0c0,0-0.1,0-0.1,0l-0.1,0l0,0c-0.2,0-0.4,0.1-0.6,0.1c-0.4,0.2-0.8,0.4-1.1,1.1c0.1-0.2,0-0.1,0-0.1
								c0.1-0.2,0.3-0.5,0.6-0.7c-0.2,0.1-0.1,0.1-0.1,0c-0.2,0.1-0.3,0.3-0.4,0.5c0,0-0.1,0.1-0.2,0.3c0.1-0.1-0.1,0.5-0.1,0.8
								c0,0,0,0,0-0.4c-0.1,0.4,0,0.5,0,0.8c0-0.1,0-0.1,0-0.2c0,0.2,0.1,0.6,0,0.5l0-0.1c0,0.5,0.3,1.6,0.3,1.6
								c0,0-0.1-0.1-0.1-0.1c0.1,0.3,0.2,0.6,0.4,0.9c0-0.1,0,0.3-0.2-0.2c0,0.1,0.1,0.3,0.2,0.5c0-0.1,0-0.2,0-0.1
								c0.1,0.3,0,0.2,0.1,0.6c0-0.1,0.1,0,0.1,0.2c0,0,0,0-0.1,0l0.2,0.5c0-0.1,0,0,0,0.1c0-0.1,0.1,0.4,0.2,0.5l0-0.2
								c0.1,0.5,0.2,0.5,0.3,1.1c0-0.1-0.1-0.2,0,0.1c0,0.1,0.2,0.6,0,1.1l0,0.1l-0.1,0.4c0.1-0.2,0.2-0.9,0.2-1.2
								c0,0.2,0,0.1,0,0.4c0,0.1,0-0.2,0-0.3c0,0.2,0,0.5-0.1,0.7c0,0-0.2,0.5-0.2,0.5c0.1-0.2,0.2-0.5,0.3-0.7c0,0,0,0.5-0.3,0.9
								c-0.1,0.1,0-0.1,0-0.1c0,0.1-0.3,0.4-0.3,0.4c0.1,0,0.1-0.1,0.1-0.2c-0.2,0.2-0.3,0.3-0.6,0.5c-0.1,0.1-0.3,0.1-0.3,0.1
								c0.2-0.1,0.2,0,0.1,0.1c0,0-0.6,0.2-0.8,0.1c-0.2,0,0.3-0.1,0.1-0.1c0,0-0.1,0-0.2,0c-0.1,0,0.1,0-0.2,0c0,0-0.5,0-0.1,0
								c-0.3,0-0.3,0-0.6-0.1c0.1,0-0.3,0-0.5-0.2c0,0,0,0-0.1,0c-0.4-0.3-0.6-0.6-0.9-1c0,0-0.1-0.3-0.1-0.2c0-0.1-0.1-0.1-0.1-0.3
								c-0.1-0.3,0.1,0.3,0.1,0.1c0,0-0.1-0.4-0.2-0.6c0,0.1,0.1,0.5,0.2,0.7c0,0-0.2-0.3-0.3-0.9c0-0.4,0-0.2,0-0.3
								c0-0.4,0.1-0.6,0.1-0.7c0-0.1,0.1-0.3,0.3-0.6c0.2-0.2,0,0,0.1,0c-0.2,0.3-0.3,0.4-0.4,0.7c0-0.1,0.1-0.2,0.1-0.3
								c-0.1,0.1-0.1,0.3-0.1,0.4c0-0.1,0.1-0.4,0.3-0.8c0.2-0.3,0.6-0.5,0.9-0.6c0.1,0,0.3-0.1,0.2-0.1c-0.1,0-0.1,0-0.2,0
								c-0.2,0,0.4-0.1,0.1,0c0.3-0.1,0.6-0.1,0.9,0l0.1,0c0,0-0.2,0-0.3,0c0.2,0,0.6,0.1,0.7,0.2c-0.1,0-0.2-0.1-0.2-0.1
								c0.3,0.1,0.6,0.2,0.8,0.4c-0.1-0.1,0-0.1-0.2-0.2c0.1,0.1-0.1-0.1-0.3-0.1c-0.2-0.1-0.4-0.1-0.2-0.1
								c-0.2-0.1-0.4-0.1-0.7-0.1c0,0,0.1,0-0.2,0c0,0,0,0-0.1,0l0,0c0,0,0,0,0,0c0,0,0,0,0,0l0.1,0c-0.1,0-0.6,0.1-0.7,0.2
								c-0.2,0.1,0.1,0,0,0c-0.1,0-0.1,0.1-0.2,0.1c0,0-0.4,0.2-0.1,0c-0.1,0.1-0.2,0.1-0.3,0.2c-0.2,0.1-0.4,0.4-0.4,0.5
								c-0.1,0.1-0.1,0.4-0.1,0.3c-0.1,0.2-0.1,0.4-0.1,0.5l0,0c0,0.5,0.1,1.1,0.4,1.7c0.1,0.2,0.2,0.3,0.4,0.6l0,0.1
								c0.2,0.2,0.5,0.5,0.6,0.5c0.1,0.1,0.4,0.2,0.7,0.2c0.3,0.1,0.6,0,0.8,0l0,0c0.3,0,0.6-0.1,0.9-0.3l0,0
								c0.3-0.2,0.7-0.4,0.9-0.9c0,0-0.1,0.1-0.1,0.2c0.4-0.5,0.5-1.1,0.5-1.7c0-0.1,0-0.2,0-0.3c0,0,0,0,0,0c0,0,0,0,0-0.1
								c0-0.1,0-0.1,0-0.2c0,0.1,0,0.1,0,0.2c0-0.1,0-0.2-0.1-0.4l0-0.1c0,0,0,0,0,0c0-0.1,0-0.1,0,0c0-0.1,0-0.1-0.1-0.2
								c0-0.1-0.1-0.4-0.1-0.5c0-0.1-0.2-0.7-0.3-0.8c0,0,0,0,0,0c0-0.2-0.1-0.3-0.1-0.4l0-0.1l-0.1-0.3c0-0.2-0.1-0.3,0-0.1
								c-0.2-0.5-0.1-0.4-0.3-0.8l0,0c0-0.2-0.1-0.4-0.1-0.5c0-0.2-0.1-0.6-0.1-1.1c-0.1-0.5,0-1.1,0.2-1.5
								c-0.1,0.1,0.2-0.3,0.2-0.4c0,0,0.1-0.1,0,0c0.3-0.3,0.5-0.4,0.8-0.5c0.1,0-0.1,0,0,0c0,0,0.1-0.1,0.2-0.1c0,0-0.1,0-0.1,0.1
								c0.4-0.1,0.5-0.2,0.5-0.2c0.3,0,0.2,0,0.5,0c0.1,0,0.2,0-0.1,0c0.2,0,1,0.2,1,0.2c0.1,0,0.2,0.1,0.3,0.1
								c0.3,0.2,0.4,0.2,0.7,0.3l-0.1,0c0.1,0,0.3,0.1,0.5,0.2l0,0c0.6,0.3,0.3,0.1,0.8,0.5l0,0c0.1,0,0.5,0.4,0.9,0.4
								c0,0-0.1,0-0.1-0.1c0.2,0.1,0.6,0.2,0.8,0.2c0,0-0.1,0-0.1,0c0.6,0.1,0.1,0,0.5,0c0.1,0-0.1,0.1,0.2,0c0.2,0,0.8-0.2,1.2-0.3
								c-0.1,0-0.2,0,0,0c0.3-0.1,0.7-0.4,0.8-0.7c0,0,0,0,0,0c0.1-0.2,0.2-0.8,0.1-0.9c0.1-0.1,0-0.5-0.1-0.8
								c-0.1-0.3-0.2-0.6-0.2-0.6c-0.1-0.2-0.2-0.4-0.3-0.6l0,0c-0.2-0.4-0.3-0.5-0.5-0.6c-0.1-0.1,0,0,0,0
								c-0.4-0.5-0.5-0.6-0.9-0.9l0-0.1c-0.1-0.1-0.7-0.6-1.3-0.9c0,0,0,0,0.1,0c-0.3-0.2-0.7-0.3-1.1-0.4c-0.4-0.1-0.7-0.1-0.8-0.1
								c-0.2,0-0.3,0-0.5,0c0.6,0.1-0.1,0,0.2,0.1c-0.2,0-0.6-0.1-0.3-0.1l0,0c0.1-0.1-0.8-0.1-0.7-0.1c-1.2,0-2.4,0.2-3.5,0.4
								l0.1,0c-0.1,0-0.3,0-0.4,0.1c-0.1,0-0.1,0,0.1-0.1c-0.2,0-0.4,0.1-0.5,0.2c-0.5,0.1,0.2-0.1,0-0.1l-0.2,0.1l0.1,0
								c-0.2,0.1-0.2,0.1-0.5,0.2c-0.2,0-0.1,0-0.2,0c0,0,0,0-0.1,0l-0.5,0.1l0.2,0c-0.2,0.1-0.4,0.1-0.2,0.1
								c-0.3,0-1.7,0.6-1.9,0.6c-0.3,0.1-0.5,0.3-0.9,0.4c0.1,0,0.2,0-0.1,0.1c0.1-0.2-0.6,0.2-0.8,0.2c0.2,0-0.8,0.4-0.5,0.3
								c-0.2,0.1,0,0-0.2,0c-0.6,0.3-1.3,0.6-2,1c0,0,0.1,0,0,0.1l-0.4,0.1c-0.1,0.1-0.1,0.1-0.4,0.2c0,0,0.1,0,0,0
								c-0.7,0.4-1.4,0.8-2,1.2c-0.7,0.5-1.3,1-2,1.4c0.2-0.1,0.1,0-0.1,0.1c0.1-0.1,0,0,0.1,0l-0.6,0.4c-0.1,0.1-0.6,0.4-0.6,0.5
								l0.2-0.1c-0.2,0.2,0.4-0.1,0.4,0c0.2-0.3,0.7-0.4,1.1-0.8c0.1-0.1-0.1,0.1,0,0.1c0.1-0.1,0.2-0.2,0.4-0.4l0,0
								c0.6-0.5,0.9-0.7,1.7-1.2l-0.1,0c0.2-0.1,0.2-0.1,0.3-0.2c0.2-0.2-0.5,0.3-0.3,0.1c0.3-0.1,1.2-0.7,1.4-0.7
								c0.3-0.2-0.1,0,0.2-0.2l0.1,0l0-0.1c0.2-0.1,0.3-0.1,0.3-0.1c0,0-0.1,0.1-0.2,0.1c0.2-0.1,0.6-0.4,0.7-0.4l-0.3,0.1
								c0.7-0.4,1.6-0.9,2.3-1.3l-0.1,0c0.5-0.3,0.4-0.2,1-0.5l0,0c0.1-0.1,0.3-0.1,0.4-0.2c-0.1,0.1,0.3-0.1,0.1,0
								c0.6-0.3,0.3-0.2,0.7-0.4l0.1,0c0.1-0.1,0.1-0.1,0.4-0.2c-0.2,0.1,0.2,0-0.1,0.1c0.7-0.2,0.9-0.4,1.3-0.4
								c0.3-0.2-0.6,0.1-0.4,0.1c-0.2,0,0.2-0.1,0.4-0.2c0.2-0.1,0.4,0,0.9-0.2c-0.1,0-0.1,0-0.1,0c0.2,0,0.4-0.1,0.6-0.2
								c0.1-0.1,0.3-0.1,0.3-0.2l-0.5,0.1c0.3-0.1,0.5-0.2,1-0.3c0,0-0.2,0.1-0.3,0.1c0.1,0,0.3-0.1,0.4-0.1c0,0.1-0.6,0.2-0.9,0.3
								c0.2,0,0.6-0.2,0.4-0.1c0.2-0.1,0.5-0.1,0.9-0.3l0,0c0.1,0,0.2-0.1,0.3-0.1l-0.2,0.1c0.3-0.1,0.6-0.1,0.9-0.1
								c-0.6,0.1-0.1,0-0.4,0c0.7-0.1,0.4,0,1.3-0.1c-0.1,0-0.4,0-0.3,0c0.2,0,0.4,0,0.5,0c0.6,0-0.1,0,0.1-0.1c0.2,0,0.3,0,0.5-0.1
								l0,0c0.6,0,0.2-0.1,0.7,0l-0.2,0l0.3,0l-0.1,0c0.3,0,0.4,0,0.7,0.1c-0.1,0,0-0.1,0.3,0c0.2,0-0.1,0,0.3,0.1
								c-0.1,0-0.2,0-0.4,0c0,0-0.1,0-0.1,0c0.2,0.1,0.5,0.1,0.6,0.1c0,0-0.1,0-0.1-0.1l0.6,0.1c0.1,0,0,0-0.1,0
								c0.1,0,0.2,0.1,0.4,0.1c-0.1,0-0.1,0-0.3,0c0.2,0,0.4,0.1,0.5,0.2c0,0,0.2,0.2,0.2,0.1c0.3,0.1,0.7,0.3,1,0.6
								c0,0,0.1,0,0.1,0.1c0.3,0.2,0.5,0.5,0.8,0.8l0.1,0.2c0.2,0.3-0.1-0.3,0.2,0.2c0.2,0.3,0,0.1,0.1,0.3c0.1,0.2,0.3,0.5,0.4,0.8
								C209.3,194.3,209.2,194.2,209.2,194.1z M207.8,197.3c0.1,0,0.2-0.1,0.3-0.1C208.1,197.2,208,197.2,207.8,197.3z M201.5,195.6
								c0.1,0,0.2,0,0.3-0.1C201.7,195.6,201.7,195.6,201.5,195.6z M196.9,202.4L196.9,202.4C196.8,202.6,196.8,202.5,196.9,202.4z
								 M197.2,202.1C197.2,202.1,197.2,202.1,197.2,202.1c0,0-0.1,0.1-0.2,0.1C197.1,202.2,197.1,202.2,197.2,202.1z M198.4,191.2
								L198.4,191.2C198.3,191.3,198.4,191.3,198.4,191.2z"/>
							<path class="st9" d="M202.3,195.5C202.3,195.5,202.3,195.5,202.3,195.5C202.4,195.5,202.4,195.5,202.3,195.5z"/>
							<path class="st9" d="M207.6,192C207.6,192,207.5,192,207.6,192C207.5,192,207.5,192,207.6,192L207.6,192z"/>
							<path class="st9" d="M199.2,206.4c0.1,0,0.1,0,0.2,0C199.3,206.4,199.3,206.4,199.2,206.4z"/>
							<path class="st9" d="M199.3,201.9c-0.1,0-0.2,0-0.3-0.1C199.1,201.8,199.2,201.8,199.3,201.9
								C199.2,201.9,199.2,201.8,199.3,201.9z"/>
							<path class="st9" d="M200.3,203.6c0,0.1,0,0.1,0,0.1l0,0C200.3,203.6,200.3,203.5,200.3,203.6z"/>
							<path class="st9" d="M199.5,202c0,0,0.2,0.1,0.3,0.2l0,0C199.8,202.2,199.6,202.1,199.5,202z"/>
							<path class="st9" d="M199.8,202.2l0.1,0.1C199.9,202.3,199.9,202.3,199.8,202.2z"/>
							<path class="st9" d="M197.7,201.9C197.7,201.9,197.7,201.9,197.7,201.9C197.8,201.8,197.2,202.1,197.7,201.9z"/>
							<polygon class="st9" points="199.6,202.1 199.5,202 199.4,202 							"/>
							<path class="st9" d="M198.2,201.8c0.1,0,0.2,0,0.3,0c0,0,0,0,0.1,0C198.4,201.8,198.2,201.8,198.2,201.8z"/>
							<path class="st9" d="M198.6,201.8c0.1,0,0.1,0,0.2,0C198.8,201.8,198.7,201.8,198.6,201.8z"/>
							<path class="st9" d="M199.2,201.9L199.2,201.9c-0.1,0-0.2-0.1-0.3-0.1C199.1,201.8,199.1,201.9,199.2,201.9z"/>
							<path class="st9" d="M196.5,203.9c0,0.1,0,0.2,0,0.3c0,0,0-0.1,0-0.2C196.5,204,196.5,203.9,196.5,203.9z"/>
							<path class="st9" d="M196.6,203c0,0,0,0.1,0,0.1l0,0L196.6,203z"/>
							<path class="st9" d="M196.5,203.9C196.5,203.9,196.6,204.3,196.5,203.9C196.5,203.9,196.5,203.6,196.5,203.9z"/>
							<polygon class="st9" points="199.7,206.4 199.6,206.4 199.6,206.5 							"/>
							<path class="st9" d="M201.2,203.2c0.1,0.4,0,0.1,0.1,0.4c0,0.1,0-0.3,0-0.2C201.2,203.2,201.2,203.1,201.2,203.2z"/>
							<path class="st9" d="M201.3,203.4c0,0,0,0.1,0,0.1C201.3,203.4,201.3,203.4,201.3,203.4z"/>
							<polygon class="st9" points="185.7,198.1 185.5,198.2 185.7,198.2 							"/>
							<path class="st9" d="M185.4,198.4L185.4,198.4l-0.2,0.1C185.3,198.5,185.4,198.4,185.4,198.4z"/>
							<path class="st9" d="M207.2,197.2L207.2,197.2c0,0,0.1,0,0.2,0L207.2,197.2z"/>
							<polygon class="st9" points="209.5,195.8 209.5,195.9 209.5,195.8 							"/>
							<path class="st9" d="M208.8,193.4c0.1,0.1,0.1,0.2,0.2,0.3C208.8,193.5,208.8,193.4,208.8,193.4z"/>
						</g>
					</g>
				</g>
			</g>
			<g>
				<g>
					<g>
						<g>
							<path class="st9" d="M177.7,199.9C177.7,199.8,177.7,199.9,177.7,199.9C177.6,200,177.7,199.9,177.7,199.9z"/>
							<path class="st9" d="M178.3,199.5L178.3,199.5c0,0,0-0.1-0.1-0.2C178.3,199.4,178.3,199.5,178.3,199.5z"/>
							<path class="st9" d="M177.3,199.2c0.1-0.1,0.4-0.2,0.7-0.1l0,0c0,0,0.1,0,0.1,0.1C177.8,199,177.4,199.1,177.3,199.2z"/>
							<path class="st9" d="M176.9,199.8c0,0,0,0.2,0-0.2c0,0,0,0,0,0C176.9,199.7,176.9,199.7,176.9,199.8z"/>
							<path class="st9" d="M176.9,199.6C177,199.5,176.9,199.7,176.9,199.6L176.9,199.6z"/>
							<path class="st9" d="M177.1,200.3c0-0.1-0.1-0.1-0.1-0.2C177,200.1,177.1,200.3,177.1,200.3
								C177.1,200.4,177.1,200.3,177.1,200.3z"/>
							<path class="st9" d="M177.2,200.4L177.2,200.4C177.1,200.3,177.1,200.4,177.2,200.4z"/>
							<path class="st9" d="M177,200.1c0,0.1,0.1,0.1,0.1,0.2C177.1,200.3,177.1,200.3,177,200.1C177.1,200.3,177,200.2,177,200.1z"
								/>
							<path class="st9" d="M177,200C176.9,199.9,176.9,199.8,177,200c0-0.2,0-0.3,0-0.3C176.9,199.8,176.9,199.9,177,200z"/>
							<path class="st9" d="M177.2,199.2c0,0,0.1-0.1,0.1-0.1c0,0,0.1,0,0.1-0.1C177.4,199.1,177.2,199.2,177.2,199.2z"/>
							<path class="st9" d="M178.1,200.7C178,200.7,178,200.7,178.1,200.7c-0.1,0-0.2,0-0.2,0C177.9,200.7,178,200.7,178.1,200.7z"
								/>
							<path class="st9" d="M178,200.7c0.1,0,0.1,0,0.2-0.1C178,200.7,178,200.7,178,200.7z"/>
							<path class="st9" d="M177.2,200.4c-0.1-0.1-0.1-0.2-0.2-0.3C177.1,200.3,177.1,200.4,177.2,200.4L177.2,200.4z"/>
							<path class="st9" d="M178.7,200.2L178.7,200.2C178.7,200.3,178.7,200.2,178.7,200.2L178.7,200.2z"/>
							<path class="st9" d="M178.8,199.7C178.8,199.8,178.9,199.6,178.8,199.7c0-0.2,0-0.3,0-0.4
								C178.8,199.5,178.9,199.6,178.8,199.7z"/>
							<path class="st9" d="M178.8,199.2c0,0.1,0,0.1,0.1,0.2C178.8,199.3,178.8,199.2,178.8,199.2z"/>
							<path class="st9" d="M178.5,200.5c0,0,0,0,0.1-0.1L178.5,200.5L178.5,200.5z"/>
							<path class="st9" d="M178.5,200.4L178.5,200.4c0.1-0.1,0.1-0.1,0.1-0.1C178.6,200.3,178.6,200.3,178.5,200.4z"/>
							<path class="st9" d="M178.5,200.5L178.5,200.5C178.5,200.5,178.5,200.5,178.5,200.5z"/>
							<path class="st9" d="M177.7,200.7c0.1,0,0.4,0,0.1,0C177.7,200.7,177.8,200.7,177.7,200.7z"/>
							<path class="st9" d="M178.4,200.5c-0.1,0-0.1,0.1-0.2,0.1c0,0,0,0,0,0C178.2,200.6,178.3,200.6,178.4,200.5z"/>
							<polygon class="st9" points="178.5,200.5 178.4,200.5 178.4,200.5 							"/>
							<path class="st9" d="M178.8,199.5c0-0.1,0-0.2-0.1-0.3C178.8,199.4,178.8,199.5,178.8,199.5
								C178.8,199.6,178.8,199.7,178.8,199.5z"/>
							<path class="st9" d="M178.8,200L178.8,200C178.8,200,178.8,200,178.8,200z"/>
							<polygon class="st9" points="178,198.5 178,198.5 178,198.5 							"/>
							<path class="st9" d="M178.8,199.6c0,0.1,0,0.1,0,0.2C178.8,199.8,178.8,199.7,178.8,199.6
								C178.8,199.6,178.8,199.6,178.8,199.6z"/>
							<path class="st9" d="M178.6,198.9c0,0,0.1,0.1,0.1,0.1C178.7,199,178.6,198.9,178.6,198.9z"/>
							<path class="st9" d="M178.8,199.9L178.8,199.9C178.8,199.9,178.8,199.9,178.8,199.9z"/>
							<path class="st9" d="M178.8,199.9c0,0,0-0.1,0-0.1C178.8,199.9,178.8,199.9,178.8,199.9C178.8,200,178.8,200,178.8,199.9z"/>
							<path class="st9" d="M177.6,198.5c0,0,0.3,0,0.4,0.1c0.2,0.1,0.1,0-0.1-0.1c0,0,0,0-0.2,0c0.1,0,0.4,0.1,0.3,0.1
								C177.8,198.5,177.8,198.5,177.6,198.5c0.2,0-0.3,0-0.2,0C177.5,198.5,177.6,198.5,177.6,198.5
								C177.6,198.5,177.6,198.5,177.6,198.5z"/>
							<path class="st9" d="M178.3,198.7L178.3,198.7c0,0-0.1-0.1-0.2-0.1c-0.1-0.1-0.2-0.1-0.2-0.1
								C178.1,198.5,178.3,198.6,178.3,198.7L178.3,198.7z"/>
							<path class="st9" d="M178.7,199c0-0.1-0.2-0.2-0.1-0.1c0.1,0.2,0.1,0.1,0.2,0.3C178.6,198.8,178.8,199.3,178.7,199
								c0,0.1,0.1,0.1,0.1,0.2C178.7,199.2,178.7,199.1,178.7,199L178.7,199L178.7,199L178.7,199C178.7,199.1,178.7,199.1,178.7,199
								L178.7,199L178.7,199C178.6,198.9,178.7,199,178.7,199L178.7,199L178.7,199c-0.1-0.1-0.1-0.2-0.3-0.3
								C178.5,198.8,178.6,198.9,178.7,199z"/>
							<path class="st9" d="M178,200.6C178,200.6,178,200.6,178,200.6C178,200.6,178,200.6,178,200.6z"/>
							<path class="st9" d="M178.2,200.6c0,0-0.1,0-0.1,0c-0.1,0,0,0,0,0c-0.1,0-0.2,0,0,0l0,0c0.2,0,0.4-0.1,0.3-0.1
								C178.3,200.6,178.3,200.6,178.2,200.6z"/>
							<path class="st9" d="M178.8,199.9c0-0.1,0-0.2,0-0.3c0,0.1,0,0.1,0,0.2l0,0C178.8,199.8,178.8,199.9,178.8,199.9z"/>
							<path class="st9" d="M177.9,198.5L177.9,198.5c0,0-0.1,0-0.2,0C177.8,198.4,177.9,198.5,177.9,198.5z"/>
							<path class="st9" d="M177.5,198.4L177.5,198.4l-0.1,0C177.4,198.4,177.4,198.4,177.5,198.4z"/>
							<path class="st9" d="M170,202.1L170,202.1C170,202,170,202.1,170,202.1z"/>
							<path class="st9" d="M170.4,202.7L170.4,202.7C170.4,202.7,170.4,202.7,170.4,202.7z"/>
							<path class="st9" d="M177.1,196.1c-0.1-0.1-0.3-0.1-0.3-0.1l0,0C177,196.1,177,196.1,177.1,196.1z"/>
							<path class="st9" d="M174.9,201.6L174.9,201.6c0-0.1,0-0.1,0-0.1C175,201.5,174.9,201.6,174.9,201.6z"/>
							<path class="st9" d="M175,201.7l-0.1,0.2C175,201.9,175,201.8,175,201.7z"/>
							<path class="st9" d="M169.2,198.2l0-0.1C169.2,198.3,169.2,198.2,169.2,198.2z"/>
							<path class="st9" d="M178,201.2c0.1,0,0.2,0,0.3-0.1C178.2,201.2,178.1,201.2,178,201.2z"/>
							<path class="st9" d="M170.4,202.2C170.4,202.1,170.3,202.1,170.4,202.2C170.4,202.2,170.4,202.2,170.4,202.2z"/>
							<path class="st9" d="M178.7,200.9C178.7,201,178.6,201,178.7,200.9c-0.1,0.1-0.2,0.1-0.3,0.2
								C178.5,201.1,178.6,201,178.7,200.9z"/>
							<path class="st9" d="M180.8,194.6C180.8,194.6,180.8,194.6,180.8,194.6C180.8,194.6,180.8,194.6,180.8,194.6z"/>
							<path class="st9" d="M183.3,197.9c0,0-0.1-0.1-0.1-0.1C183.2,197.8,183.2,197.8,183.3,197.9z"/>
							<path class="st9" d="M176.2,199.6C176.3,199.5,176.3,199.5,176.2,199.6L176.2,199.6z"/>
							<path class="st9" d="M176.4,199.1C176.4,199.1,176.4,199.1,176.4,199.1C176.4,199.1,176.4,199.1,176.4,199.1z"/>
							<path class="st9" d="M179.1,200.1L179.1,200.1C179.1,200.1,179.1,200.1,179.1,200.1z"/>
							<path class="st9" d="M176.3,199.4c0,0,0,0.1,0,0.1C176.3,199.5,176.3,199.5,176.3,199.4z"/>
							<path class="st9" d="M176.3,199.4C176.3,199.4,176.3,199.4,176.3,199.4C176.3,199.3,176.3,199.3,176.3,199.4z"/>
							<path class="st9" d="M176.2,199.7c0-0.1,0-0.1,0-0.2c0,0,0,0,0,0C176.2,199.6,176.2,199.6,176.2,199.7z"/>
							<path class="st9" d="M173.5,193.2C173.5,193.2,173.5,193.2,173.5,193.2C173.6,193.2,173.5,193.2,173.5,193.2z"/>
							<polygon class="st9" points="175,196.7 175,196.7 175,196.7 							"/>
							<path class="st9" d="M174.9,197c0-0.1,0.1-0.2,0.1-0.3l-0.1,0.1C174.9,196.9,174.9,197,174.9,197z"/>
							<path class="st9" d="M169.3,200.5l0,0.2C169.2,200.4,169.2,200.2,169.3,200.5c0,0,0.2,0.9,0.3,0.9l0.1,0.2c0,0,0-0.1,0-0.1
								c0.1,0.3,0.1,0.2,0.3,0.5c0.1,0.1,0.1,0.2,0.1,0.1l0.2,0.2c0,0.1,0,0.1,0,0c0.1,0.1,0.2,0.3,0.3,0.4l0,0
								c0.1,0.1,0.2,0.2,0.2,0.2c0.1,0.1,0,0,0,0c0.1,0.1,0.1,0.1,0.2,0.2c0.1,0.1-0.1,0-0.2-0.2c0.1,0.2,0.1,0.2,0.6,0.5
								c-0.1,0-0.1-0.1-0.2-0.1c0.1,0.1,0.3,0.2,0.5,0.4c-0.1,0-0.5-0.3-0.2-0.2c0.1,0,0.2,0.1,0.3,0.1c0,0,0.1,0.1,0.3,0.1l0,0
								c0.2,0,0.2,0,0.3,0c0.2,0,0.3,0.1,0.3,0.1c0.4,0-0.3-0.1,0.2,0c0.3,0,0.5,0,0.9-0.1c0.2-0.1,0,0,0,0c0.1,0,0.1-0.1,0.2-0.1
								c0,0,0,0,0,0c0.1-0.1,0,0,0.2-0.2c0,0,0.4-0.3,0.6-0.6c0-0.1,0,0,0,0c0.2-0.4,0.1-0.3,0.2-0.7l0.1-0.3c-0.1,0.2,0-0.1,0-0.3
								c0,0.1-0.1,0.1-0.1,0.2c0-0.1,0-0.2,0.1-0.4c0,0,0,0,0,0.1c0,0,0,0,0-0.1c0-0.1,0-0.1,0,0l0,0.1c0,0.1,0,0.2,0,0.2
								c0,0,0-0.1,0-0.1c0,0,0,0,0,0c0,0,0-0.1,0-0.1l0-0.1l0,0c0-0.2,0-0.3,0.1-0.5c0-0.4-0.1-0.7-0.2-1.2c0,0.1,0,0,0.1,0
								c0,0.2,0.1,0.4,0.1,0.7c0-0.2,0-0.1,0-0.1c0-0.2-0.1-0.3-0.1-0.5c0,0,0-0.1,0-0.2c0,0.1-0.1-0.4-0.1-0.6c0,0,0,0,0.1,0.3
								c0-0.3-0.1-0.4-0.1-0.6c0,0.1,0,0.1,0,0.1c0-0.1-0.1-0.5,0-0.4l0,0.1c-0.1-0.4-0.1-1.2-0.1-1.3c0,0,0,0.1,0,0.1
								c0-0.2,0.1-0.5,0.2-0.7c0,0.1,0.2-0.1,0,0.2c0.1-0.1,0.1-0.2,0.3-0.3c0,0-0.1,0.1-0.1,0c0.2-0.1,0.1-0.1,0.4-0.2
								c-0.1,0,0-0.1,0.1-0.1c0,0,0,0,0,0.1c0.1-0.1,0.2-0.1,0.4-0.1c-0.1,0,0,0,0.1,0c0,0,0.3,0,0.4,0l-0.2,0
								c0.4,0.1,0.4,0,0.8,0.2c-0.1,0-0.1,0,0.1,0.1c0.1,0,0.4,0.2,0.7,0.5l0,0.1l0.2,0.2c-0.1-0.1-0.5-0.5-0.8-0.6
								c0.1,0.1,0.1,0.1,0.2,0.2c0.1,0.1-0.1-0.1-0.2-0.1c0.1,0.1,0.3,0.3,0.4,0.4c0,0,0.3,0.3,0.3,0.3c-0.1-0.2-0.3-0.3-0.4-0.5
								c0,0,0.3,0.2,0.5,0.6c0.1,0.1-0.1,0-0.1,0c0,0,0.2,0.3,0.3,0.3l-0.1-0.1c0.1,0.2,0.2,0.3,0.3,0.6c0,0.1,0.1,0.3,0.1,0.3
								c0-0.1,0-0.2,0.1-0.1c0,0,0.2,0.5,0.2,0.6c0,0.2-0.1-0.2-0.1-0.1c0,0,0,0.1,0.1,0.1c0,0.1,0,0,0,0.2c0,0,0.1,0.4,0,0.1
								c0,0.2,0,0.2,0,0.5c0-0.1,0,0.2,0,0.4c0,0,0,0,0,0.1c-0.1,0.4-0.3,0.6-0.6,0.8c0,0-0.2,0.1-0.1,0.1c-0.1,0-0.1,0.1-0.2,0.1
								c-0.2,0.1,0.3-0.1,0.1,0c0,0-0.3,0.1-0.5,0.1c0.1,0,0.4,0,0.6-0.1c0,0-0.3,0.2-0.7,0.2c-0.3,0-0.1,0-0.2,0
								c-0.3-0.1-0.4-0.2-0.5-0.2c-0.1-0.1-0.2-0.1-0.3-0.4c-0.1-0.2,0,0,0-0.1c0.2,0.2,0.3,0.3,0.4,0.4c-0.1,0-0.1-0.1-0.2-0.2
								c0.1,0.1,0.2,0.2,0.3,0.2c-0.1,0-0.3-0.2-0.5-0.4c-0.2-0.3-0.3-0.6-0.3-0.8c0-0.1,0-0.2,0-0.2l0,0.2c0,0.1,0-0.3,0-0.1
								c0-0.2,0.1-0.5,0.2-0.7c0,0,0,0,0,0c0,0-0.1,0.2-0.2,0.2c0-0.1,0.3-0.4,0.4-0.4c-0.1,0-0.1,0.1-0.2,0.1
								c0.1-0.2,0.4-0.3,0.7-0.3c-0.1,0-0.1,0-0.2,0.1c0.1,0-0.1,0-0.2,0.1c-0.1,0.1-0.2,0.2-0.1,0.1c-0.2,0.1-0.2,0.2-0.3,0.5
								c0,0,0-0.1,0,0.1c0,0,0,0,0,0l0,0l0,0c0,0,0,0,0,0c0,0,0-0.1,0-0.1c0,0.1-0.1,0.5,0,0.6c0,0.1,0-0.1,0,0c0,0.1,0,0.1,0,0.2
								c0,0,0.1,0.3,0,0c0,0.1,0.1,0.2,0.1,0.3c0.1,0.2,0.2,0.3,0.3,0.4c0.1,0.1,0.3,0.2,0.2,0.1c0.1,0.1,0.3,0.2,0.4,0.2l0,0
								c0.4,0.1,0.9,0.1,1.4-0.2c0.1-0.1,0.2-0.2,0.4-0.4l0,0c0.1-0.2,0.2-0.5,0.2-0.6c0.1-0.2,0-0.9-0.1-1.2l0,0
								c-0.1-0.2-0.2-0.4-0.3-0.7l0,0c-0.1-0.2-0.3-0.5-0.5-0.8c0,0,0.1,0.1,0.1,0.2c-0.2-0.4-0.6-0.7-1-1c-0.1-0.1-0.1-0.1-0.2-0.1
								c0,0,0,0,0,0c0,0,0,0,0,0c0,0-0.1-0.1-0.1-0.1c0,0,0.1,0,0.1,0.1c-0.1,0-0.2-0.1-0.3-0.1l0,0c0,0,0,0,0,0c-0.1,0-0.1,0,0,0
								c-0.1,0-0.1,0-0.2,0c-0.1-0.1-0.3,0-0.4-0.1c-0.1,0-0.6,0.1-0.7,0.1c0,0,0,0,0,0c-0.1,0-0.2,0.1-0.3,0.2l-0.1,0
								c-0.1,0.1-0.1,0.2-0.2,0.2c-0.1,0.1-0.2,0.2-0.1,0c-0.2,0.4-0.2,0.3-0.2,0.7l0,0c0,0.1,0,0.3,0,0.4c0,0.3,0.1,1.4,0.2,2.1
								c0-0.1,0,0.3,0.1,0.4c0,0,0,0.1,0,0c0.1,0.4,0,0.5,0,0.8c0,0,0-0.1,0,0c0,0,0,0.1,0,0.2c0,0,0-0.1,0-0.1c0,0.4,0,0.4,0,0.4
								c0,0.2-0.1,0.3-0.1,0.4c0,0.1-0.1,0.2,0-0.1c0,0.1-0.2,0.8-0.2,0.8c0,0-0.1,0.2-0.1,0.2c-0.1,0.2-0.2,0.3-0.3,0.5l0.1-0.1
								c0,0.1-0.2,0.2-0.3,0.3l0,0c-0.5,0.2-0.2,0.1-0.7,0.2l0,0c0,0.1-0.5,0-0.8,0l0.1,0c-0.2,0-0.4-0.1-0.6-0.2c0,0,0.1,0,0.1,0
								c-0.4-0.2-0.1,0-0.4-0.1c0,0,0.1,0-0.1-0.1c-0.1,0-0.6-0.2-0.7-0.5c0,0.1,0.1,0.1,0,0c-0.2-0.2-0.3-0.5-0.5-0.7c0,0,0,0,0,0
								c-0.1-0.1-0.3-0.5-0.4-0.6c0-0.2-0.5-1-0.3-1c0-0.2-0.1-0.3-0.1-0.5l0,0c0-0.3-0.1-0.5-0.1-0.6c0-0.1,0,0,0,0
								c0-0.4,0-0.4,0-1l0,0c0-0.1,0.2-0.7,0.3-1.2c0,0,0,0,0,0.1c0.2-0.5,0.7-1.1,0.7-1.4c0.1-0.1,0.1-0.2,0.2-0.3
								c-0.3,0.4,0-0.1-0.1,0.1c0.1-0.2,0.3-0.4,0.2-0.2l0,0c0,0.1,0.4-0.4,0.4-0.4c0.6-0.7,1.4-1.2,2.2-1.6l-0.1,0l0.3-0.1
								c0.1,0,0.1,0-0.1,0.1c0.1,0,0.3-0.2,0.3-0.2c0.4-0.1-0.1,0.1,0,0.1l0.2-0.1l0,0c0.1-0.1,0.1-0.1,0.4-0.2c0.2,0,0.1,0,0.2,0
								c0,0,0,0,0.1,0l0.4-0.1l-0.2,0c0.2-0.1,0.4-0.1,0.2-0.1c0.3,0,1.4,0,1.6,0c0.2,0,0.5,0.1,0.8,0.1c-0.1,0-0.1-0.1,0.1,0
								c-0.1,0.1,0.4,0.2,0.6,0.3c-0.1-0.1,0.7,0.3,0.4,0.1c0.2,0.1,0,0,0.1,0.1c0.5,0.2,1,0.5,1.5,0.9c0,0-0.1-0.1,0.1,0
								c0.1,0.1,0.1,0.2,0.2,0.3c0.1,0.1,0.1,0,0.3,0.2c0,0,0-0.1,0,0c0.9,0.8,1.8,1.7,2.5,2.8c-0.1-0.2,0-0.1,0.1,0
								c0-0.1,0,0,0-0.1l0.2,0.5c0.1,0,0.3,0.5,0.4,0.5l-0.1-0.1c0.2,0.1,0-0.3,0.1-0.4c-0.2-0.2-0.3-0.6-0.6-0.9c0-0.1,0.1,0,0.1,0
								c-0.1-0.1-0.2-0.2-0.3-0.3l0,0c-0.4-0.5-0.6-0.7-1.1-1.3l0,0.1c-0.1-0.1-0.1-0.2-0.2-0.2c-0.2-0.1,0.3,0.3,0.1,0.3
								c-0.1-0.2-0.8-0.8-0.8-0.9c-0.2-0.2,0,0.1-0.2-0.1l0-0.1l-0.1,0c-0.1-0.1-0.2-0.2-0.2-0.2c0,0,0.1,0.1,0.1,0.1
								c-0.1-0.2-0.5-0.4-0.5-0.4l0.2,0.1c-0.6-0.4-1.2-0.9-1.9-1l0,0c-0.5-0.2-0.3-0.2-0.9-0.3l0,0c-0.1,0-0.2-0.1-0.4-0.1
								c0.1,0-0.2-0.1-0.1-0.1c-0.5-0.1-0.3,0-0.6,0l-0.1,0c-0.1,0-0.1,0-0.4,0c0.2,0-0.2-0.1,0.1-0.1c-0.6-0.1-0.8,0-1.1,0
								c-0.2,0.1,0.5,0,0.4,0c0.1,0-0.2,0.1-0.4,0.1c-0.2,0-0.3-0.1-0.8,0c0,0,0.1,0,0.1,0c-0.2,0-0.3,0.1-0.5,0.1
								c-0.1,0.1-0.3,0.1-0.3,0.2c0.1-0.1,0.3-0.1,0.4-0.2c-0.2,0.1-0.4,0.2-0.8,0.4c0,0,0.1-0.1,0.2-0.1c-0.1,0-0.2,0.1-0.3,0.1
								c0-0.1,0.5-0.2,0.7-0.3c-0.1,0-0.4,0.2-0.3,0.1c-0.1,0.1-0.4,0.2-0.7,0.4l0,0c0,0-0.1,0.1-0.2,0.1l0.1-0.1
								c-0.2,0.2-0.4,0.2-0.6,0.4c0.4-0.3,0.1,0,0.3-0.1c-0.5,0.4-0.4,0.1-0.9,0.6c0.1-0.1,0.3-0.2,0.2-0.1
								c-0.1,0.1-0.2,0.2-0.3,0.2c-0.3,0.3,0.1,0-0.1,0.1c-0.1,0.1-0.1,0.2-0.3,0.3l0,0c-0.4,0.4,0,0.1-0.4,0.5
								c0-0.1,0.1-0.1,0.1-0.2c-0.1,0.1-0.1,0.1-0.1,0.2l0-0.1c-0.1,0.2-0.2,0.3-0.4,0.5c0.1,0,0,0.1-0.1,0.3
								c-0.1,0.1,0-0.1-0.1,0.2c0-0.1,0-0.2,0.1-0.3c0,0,0-0.1,0-0.1c-0.1,0.1-0.2,0.4-0.3,0.5c0,0,0.1-0.1,0.1-0.1
								c-0.1,0.1-0.1,0.3-0.2,0.4c0,0.1,0,0,0-0.1c0,0.1-0.1,0.2-0.1,0.3c0,0,0,0,0-0.2c-0.1,0.1-0.1,0.3-0.2,0.4
								c0,0-0.1,0.2-0.1,0.1c-0.1,0.2-0.1,0.6-0.2,0.9c0,0,0,0.1,0,0.1c-0.1,0.3-0.1,0.6-0.1,1l0,0.2c0,0.3,0-0.3,0.1,0.2
								c0.1,0.3,0,0.1,0,0.3c0,0.2,0.1,0.5,0.2,0.8C169.4,200.7,169.4,200.6,169.3,200.5z M171.3,203.4c-0.1,0-0.2-0.1-0.2-0.1
								C171.1,203.3,171.2,203.4,171.3,203.4z M175.1,201.1c0,0.1,0,0.1,0,0.2C175,201.3,175,201.2,175.1,201.1z M176.5,200.6
								L176.5,200.6C176.6,200.7,176.6,200.7,176.5,200.6z M176.4,200.3C176.3,200.2,176.3,200.2,176.4,200.3c0,0.1,0,0.1,0.1,0.1
								C176.4,200.3,176.4,200.3,176.4,200.3z M174.5,193.2L174.5,193.2C174.6,193.1,174.5,193.1,174.5,193.2z"/>
							<path class="st9" d="M175,201.7C175,201.7,175,201.7,175,201.7C175,201.8,175,201.8,175,201.7z"/>
							<path class="st9" d="M169.2,198.2L169.2,198.2C169.2,198.2,169.2,198.2,169.2,198.2L169.2,198.2z"/>
							<path class="st9" d="M179.1,198.9l0-0.1C179,198.8,179,198.8,179.1,198.9z"/>
							<path class="st9" d="M176.7,198.7c-0.1,0-0.1,0.1-0.2,0.1C176.6,198.8,176.7,198.7,176.7,198.7
								C176.7,198.7,176.7,198.7,176.7,198.7z"/>
							<path class="st9" d="M178.4,198.7C178.4,198.8,178.4,198.8,178.4,198.7L178.4,198.7C178.3,198.7,178.3,198.7,178.4,198.7z"/>
							<path class="st9" d="M176.9,198.6c0,0,0.1-0.1,0.3-0.1l0,0C177.2,198.5,177,198.5,176.9,198.6z"/>
							<path class="st9" d="M177.2,198.5c0,0,0.1,0,0.1,0C177.3,198.5,177.3,198.5,177.2,198.5z"/>
							<path class="st9" d="M176.3,199.9C176.3,199.8,176.2,199.8,176.3,199.9C176.2,199.7,176.3,200.2,176.3,199.9z"/>
							<path class="st9" d="M177,198.6L177,198.6l-0.1,0.1C176.9,198.6,177,198.6,177,198.6z"/>
							<path class="st9" d="M176.3,199.4c0-0.1,0-0.1,0.1-0.2c0,0,0,0,0-0.1C176.3,199.3,176.3,199.4,176.3,199.4z"/>
							<path class="st9" d="M176.4,199.1c0-0.1,0.1-0.1,0.1-0.2C176.5,199,176.4,199.1,176.4,199.1z"/>
							<path class="st9" d="M176.7,198.7L176.7,198.7c-0.1,0.1-0.1,0.1-0.2,0.2C176.6,198.8,176.7,198.8,176.7,198.7z"/>
							<path class="st9" d="M177.6,201.2c0.1,0,0.2,0,0.2,0c0,0,0,0-0.1,0C177.6,201.2,177.5,201.2,177.6,201.2z"/>
							<path class="st9" d="M176.9,200.9C176.9,200.9,176.9,200.9,176.9,200.9L176.9,200.9C177,200.9,176.9,200.9,176.9,200.9z"/>
							<path class="st9" d="M177.6,201.1C177.6,201.2,177.9,201.2,177.6,201.1C177.6,201.1,177.3,201.1,177.6,201.1z"/>
							<polygon class="st9" points="179,198.5 179,198.6 179,198.6 							"/>
							<path class="st9" d="M176.8,196.2c0.3,0.1,0.1,0,0.3,0.1c0.1,0-0.2-0.1-0.1-0.1C176.9,196.2,176.8,196.2,176.8,196.2z"/>
							<path class="st9" d="M177,196.3C177,196.3,177.1,196.3,177,196.3C177.1,196.3,177,196.3,177,196.3z"/>
							<polygon class="st9" points="183.6,198.5 183.7,198.7 183.7,198.6 							"/>
							<path class="st9" d="M183.9,198.8L183.9,198.8l0.1,0.1C183.9,198.9,183.9,198.8,183.9,198.8z"/>
							<path class="st9" d="M171.8,203.7L171.8,203.7c0,0-0.1,0-0.1-0.1L171.8,203.7z"/>
							<polygon class="st9" points="169.9,201.9 169.9,201.9 169.9,201.9 							"/>
							<path class="st9" d="M169.1,199.8c0,0.1,0,0.2,0,0.3C169.1,199.9,169.2,199.8,169.1,199.8z"/>
						</g>
					</g>
				</g>
			</g>
			<path class="st10" d="M164.3,240.1h-60.6c-1.6,0-2.9-1.3-2.9-2.9v-21.8c0-1.6,1.3-2.9,2.9-2.9h66.2"/>
			<path class="st10" d="M186.8,212.5h65.5c1.6,0,2.9,1.3,2.9,2.9v21.8c0,1.6-1.3,2.9-2.9,2.9H182"/>
			<g>
				<path class="st4" d="M196.6,219.6c-0.3,0.5-1,0.4-1.3-0.1c-0.3-0.5,0.1-1.5-0.6-1.5c-1.3,0-1.6,1.3-1.6,2.7v2.1h1.5v0.1h-1.5
					v7.5c0,1.5,0.1,2.2,1.3,2.2v0.1h-4.2v-0.1c1.1,0,1.3-0.7,1.3-2.2c0-6.6,0-7,0-7.5h-1.3v-0.1h1.3c0-1.2,0-2,0-2
					c0-2.4,1.6-2.8,2.9-2.8c0.8,0,1.3,0.2,1.5,0.3C196.7,218.5,196.9,219.2,196.6,219.6z"/>
				<path class="st4" d="M205,223.5c0,0.7-0.7,0.9-1.2,0.6c-0.5-0.3-0.5-1-1.2-0.7c-0.7,0.2-1.5,1.4-1.8,2.5l0,4.5
					c0,1.5,0.1,2.2,1.3,2.2v0.1h-4.1v-0.1c1.1,0,1.3-0.7,1.3-2.2v-5.3c0-1.5-0.1-2.2-1.3-2.2v-0.1h3.2v0.1c-0.2,0.1-0.3,0.9-0.3,2.7
					c0.5-1.8,2.1-2.9,2.8-3C204.4,222.5,205.1,222.9,205,223.5z"/>
				<path class="st4" d="M210.1,226c-0.1,0.6-0.1,1.3-0.1,2c0.3,3,1.9,4.8,4,4.7c1.3,0,2.4-0.7,3.1-1.4v0.2
					c-0.7,0.6-1.6,1.2-3.1,1.3c-2.8,0.2-5.5-1.5-5.8-4.7c-0.2-3.1,2.1-5.3,4.8-5.5c2.4-0.2,4.1,1.1,4.5,3.4H210.1z M208.3,228.1
					 M210.1,225.9h5.8c-0.2-1.6-0.8-3.2-2.8-3.2C211.6,222.7,210.5,224.1,210.1,225.9z"/>
				<path class="st4" d="M228.2,230.2c0,1.7-1.3,2.6-3.7,2.6c-1.8,0-2.9-1-3.3-1.6c-0.4-0.7-0.3-1.4,0.2-1.6c0.5-0.2,1.1,0.2,1,0.7
					c0,0.6-0.7,1-0.2,1.6c0.4,0.4,1,0.8,2.3,0.8c1.3,0,2.2-0.8,2.2-1.8c0-2.4-5.3-2.5-5.3-5.9c0-1.5,1.3-2.4,3.3-2.4
					c1.8,0,2.5,0.8,2.9,1.4c0.4,0.7,0.3,1.4-0.2,1.6c-0.5,0.2-1.1-0.2-1-0.7c0-0.6,0.6-1,0.1-1.5c-0.4-0.4-0.7-0.7-1.8-0.7
					c-1.3,0-1.9,0.9-1.9,1.8C222.9,227,228.2,227.3,228.2,230.2z"/>
				<path class="st4" d="M242.4,232.6L242.4,232.6l-4.1,0.1v-0.1c1.1,0,1.3-0.7,1.3-2.2v-4.7c0-1.4-0.2-2.9-2.2-2.9
					c-0.9,0-2.1,0.7-2.6,2v5.6c0,1.5,0.1,2.2,1.3,2.2v0.1h-4.2v-0.1c1.1,0,1.3-0.7,1.3-2.2v-10.1c0-1.5-0.1-2.2-1.3-2.2V218h3.2v0.1
					c-0.2,0.1-0.3,1-0.3,3v3.4c0.5-1,1.5-1.9,2.9-1.9c2,0,3.4,0.8,3.4,3.2v4.6C241.2,231.8,241.3,232.6,242.4,232.6z"/>
			</g>
			<g>
				<path class="st4" d="M121.3,232.5L121.3,232.5c-0.3,0.3-0.5,0.3-0.9,0.3c-1.1,0-2.2-0.3-2.3-1.9c-0.5,0.8-1.1,1.5-2,1.7
					c-1.5,0.5-3.6,0.1-3.5-1.9c0.1-2.1,3-2.4,4.3-2.8c0.4-0.1,0.8-0.3,1.1-0.5c0-0.6,0-1.3,0-1.8c0-1.7-0.2-2.9-1.7-2.9
					c-1.3,0-1.9,0.4-2.2,1.1c-0.3,0.6,0.3,0.9,0.4,1.5c0.1,0.5-0.3,1-0.9,0.9c-0.5-0.1-0.8-0.8-0.4-1.6c0.3-0.7,1.1-1.9,3.2-1.9
					c1.9,0,3.3,0.9,3.3,2.9c0,2,0,5,0,5c0,1.3,0.1,2.1,1,2.1C120.9,232.7,121.2,232.6,121.3,232.5z M118,230.8c0-0.1,0-0.2,0-0.4
					c0,0,0-1.5,0-3c-0.3,0.2-0.6,0.3-1,0.5c-1,0.4-2.8,0.5-3,2.3c-0.2,2.1,1.2,2.7,2.4,2.2C117.1,232.1,117.7,231.5,118,230.8z"/>
				<path class="st4" d="M130.8,231.4v0.2c-0.6,0.5-1.5,1.1-2.7,1.2c-2.8,0.2-5.5-1.4-5.6-4.8c-0.1-3.3,1.9-5.2,4.6-5.4
					c2-0.2,3.4,1,3.7,1.8c0.3,0.7,0.1,1.4-0.4,1.6c-0.5,0.1-1-0.4-0.9-0.9c0.1-0.6,0.7-0.8,0.3-1.4c-0.4-0.6-1.5-1-2.7-1
					c-2.1,0.2-3.1,2.5-3,5.3c0.1,2.9,1.8,4.7,3.9,4.7C129,232.8,130.2,232,130.8,231.4z"/>
				<path class="st4" d="M141.9,231.4v0.2c-0.6,0.5-1.5,1.1-2.7,1.2c-2.8,0.2-5.5-1.4-5.6-4.8c-0.1-3.3,1.9-5.2,4.6-5.4
					c2-0.2,3.4,1,3.7,1.8c0.3,0.7,0.1,1.4-0.4,1.6c-0.5,0.1-1-0.4-0.9-0.9c0.1-0.6,0.7-0.8,0.3-1.4c-0.4-0.6-1.5-1-2.7-1
					c-2.1,0.2-3.1,2.5-3,5.3c0.1,2.9,1.8,4.7,3.9,4.7C140.2,232.8,141.4,232,141.9,231.4z"/>
				<path class="st4" d="M148.4,232.6L148.4,232.6l-4.1,0.1v-0.1c1.1,0,1.2-0.7,1.3-2.2v-5.3c0-1.5-0.1-2.2-1.3-2.2v-0.1h3.2v0.1
					c-0.2,0.1-0.3,1-0.3,3v4.4C147.1,231.8,147.2,232.6,148.4,232.6z M145.2,219.6c0-0.6,0.5-1.1,1.1-1.1c0.6,0,1.1,0.5,1.1,1.1
					c0,0.6-0.5,1.1-1.1,1.1C145.7,220.7,145.2,220.2,145.2,219.6z"/>
				<path class="st4" d="M160.4,227.3c0.1,2.8-1.7,5.3-4.5,5.5c-2.9,0.3-5.6-1.5-5.8-4.6c-0.2-3,1.9-5.4,4.9-5.6
					C157.8,222.4,160.3,224.3,160.4,227.3z M158.6,227.4c-0.2-2.5-1.6-4.8-3.6-4.7c-2.2,0.2-3.3,2.3-3.1,5.4c0.2,3.1,1.9,4.9,4,4.7
					C157.8,232.5,158.8,230,158.6,227.4z"/>
			</g>
			<g>
				<path class="st9" d="M163.6,243.6l-21.6,0.1l-21.6,0l-10.8,0l-5.4,0l-2.7,0l-1.3,0c-0.4,0-0.9,0-1.4-0.1c-0.9-0.3-1.7-1-2.1-1.9
					c-0.2-0.4-0.2-1-0.2-1.4l0-1.3l0-5.4l0-10.8l0-10.8c-0.1-0.9,0.3-2,1-2.6c0.4-0.3,0.8-0.6,1.3-0.7c0.5-0.1,1-0.1,1.4-0.1l5.4,0
					l21.6,0l21.6,0l21.6,0.1l-21.6,0.1l-21.6,0l-21.6,0l-5.4,0c-0.5,0-0.9,0-1.3,0.1c-0.4,0.1-0.8,0.3-1.1,0.6
					c-0.6,0.6-0.9,1.4-0.9,2.3l0,10.8l0,10.8l0,5.4l0,1.3c0,0.5,0,0.8,0.2,1.2c0.3,0.8,1,1.4,1.8,1.6c0.4,0.1,0.8,0.1,1.3,0.1l1.3,0
					l2.7,0l5.4,0l10.8,0l21.6,0L163.6,243.6z"/>
			</g>
			<g>
				<path class="st9" d="M187.4,208.9l22.7-0.1l22.7,0l22.7,0c0.5,0,1,0,1.5,0.1c0.5,0.1,1,0.4,1.3,0.7c0.8,0.7,1.1,1.8,1.1,2.7
					l0,5.7l0,11.4l0,11.4c0,1-0.5,2-1.3,2.6c-0.4,0.3-0.9,0.5-1.4,0.6c-0.5,0.1-1,0-1.4,0l-5.7,0l-22.7,0l-22.7,0l-22.7-0.1
					l22.7-0.1l22.7,0l22.7,0l5.7,0c0.5,0,1,0,1.4,0c0.4-0.1,0.9-0.2,1.2-0.5c0.7-0.5,1.1-1.4,1.1-2.3l0-11.4l0-11.4l0-5.7
					c0.1-0.9-0.2-1.8-0.9-2.4c-0.3-0.3-0.7-0.5-1.2-0.6c-0.4-0.1-0.9-0.1-1.4-0.1l-22.7,0l-22.7,0L187.4,208.9z"/>
			</g>
		</g>
	</g>
</g>
</svg>
