<?xml version="1.0" encoding="utf-8"?>
<!-- Generator: Adobe Illustrator 22.1.0, SVG Export Plug-In . SVG Version: 6.00 Build 0)  -->
<svg version="1.1" id="Layer_1" xmlns="http://www.w3.org/2000/svg" xmlns:xlink="http://www.w3.org/1999/xlink" x="0px" y="0px"
	 viewBox="0 0 150 68" style="enable-background:new 0 0 150 68;" xml:space="preserve">
<style type="text/css">
	.st0{fill:#D7D45B;stroke:#898966;stroke-width:0.1;stroke-miterlimit:10;}
	.st1{fill:#424242;stroke:#0B0B0B;stroke-width:0.1;stroke-miterlimit:10;}
	.st2{fill:#BDA380;stroke:#A08B72;stroke-width:0.1;stroke-miterlimit:10;}
	.st3{fill:#9B513E;}
	.st4{fill:#DCD889;}
	.st5{fill:#C08065;stroke:#895D4D;stroke-width:0.1;stroke-miterlimit:10;}
	.st6{fill:#59423A;}
	.st7{fill:#D1BAAE;}
	.st8{fill:#E8E0DD;}
	.st9{fill:#424242;}
	.st10{fill:#E6D0B3;}
	.st11{fill:#DB5441;stroke:#DB5441;stroke-width:0.1;stroke-miterlimit:10;}
	.st12{fill:none;stroke:#353331;stroke-width:0.1;stroke-miterlimit:10;}
	.st13{fill:#EAEAEA;}
	.st14{fill:#353331;}
	.st15{fill:#BC7268;}
	.st16{opacity:0.4;fill:#E0AB99;}
	.st17{fill:#974F49;}
	.st18{fill:#9B8C7C;}
</style>
<g>
	<path class="st0" d="M4.1,10.8C5.2,9.3,5.7,8,5.9,7c0.2-0.8,0.3-1.6,0.9-2.4C7.3,4,8.1,3.4,8.1,3.4c0.4-0.3,0.4-0.2,0.9-0.6
		c0.9-0.5,1.5-1.1,2-1.5c0.4-0.3,1-0.9,1-0.9l0,0c-0.2,0.2-0.4,0.6-0.6,1.1c-0.4,0.8-0.5,1.4-0.7,2.3c-0.3,1.1-0.5,1.8-1,2.5
		C9.2,7.2,8.6,7.4,7.5,8C6.6,8.6,5.4,9.4,4.1,10.8z"/>
	<path class="st1" d="M99.6,49.7c0,0.2,0,0.3,0.1,0.5c0.8,2.1,14.7,1,15.4,0.5c0.7-0.5,3.2-4,4.3-2.2c1.1,1.8,4.2,9,4.7,11
		s0.5,6.5,0,6.6s-2.8,0.3-2.8-2.1c0-2.4-3.5-3.5-5.8-3.7s-14.9-1.6-16.2-1.7S92,59.3,91,57.1c-0.9-2.2-2.1-4.4-2.1-5.6
		c0,0,0-0.1,0-0.1c0,0,1.6-1.2,2-1.1s1.4,0.5,2.1,0.4c0.7-0.1,2.3-0.7,2.6-0.7C95.9,50,99.6,49.7,99.6,49.7z"/>
	<path class="st2" d="M99.6,49.7c-0.2-2.7,3.3-11.1,3.3-11.1l-0.5-0.7c-0.5-0.3-1.2-2.9-1.5-3.6c-0.3-0.7-0.8-1.1-0.8-1.1
		c-1.7-1.2-6.6-3.6-7.8-4.4s-1.5-0.7-1.5-0.7c-1.5,0-0.3-1.4-0.3-1.4c-0.9,0-1.4,0.4-1.8,1.3c-0.4,1,0.8,3.6,1,5.1
		c0,0,0.1,0.9-0.3,1.4s-0.1,12.2-0.5,13.2c-0.4,1,0,2.5,0,3.7c0,0,1.5-1.3,2.1-1.2c0.6,0.1,1.6,0.6,2.2,0.4c0.6-0.2,2-0.6,2.5-0.6
		S99.6,49.7,99.6,49.7z"/>
	<path class="st3" d="M101.2,50.9c0,0,1.5,0.3,3.2,0.4l-0.8,7.7c0,0-3-0.3-3.3-0.3L101.2,50.9z"/>
	<path class="st4" d="M102.2,51.1c0,0,0.8,0.1,1.1,0.1l-0.9,7.6l-1.1-0.1L102.2,51.1z"/>
	<path class="st5" d="M128.9,28.1c-2.3,1-3.9,2.5-5.1,2.5c-1.7,0-3.6,4-4.5,4.7c-0.9,0.7-1.3,1.1-2.8,1.2c-1.5,0.1,0.3-1.8,0.3-2.5
		c0.1-0.7-1.2-2.8-1.3-3.4c-0.2-0.6-7.5-2.6-9.7-2.6s-3.3,2.4-3.3,3.8c0,1.4-4.2,2.5-4.6,2.2c-0.4-0.3-6.8-3.1-9.2-3.8
		c0,0,7,3.9,8.6,4.8c1.6,0.9,1.9,5.4,2.7,4.9c0.8-0.5,2.8-1.7,3.7-1.7s4.9,0.2,7.7,0.7c2.8,0.5,2.2,1.2,5.3,1.5
		c3.1,0.4,2.2,0.8,3.6-0.3c1.5-1.1,1.6-1.6,1.6-2.3s-0.1-2.1,0.6-2.1s6-4.7,6.4-7.3V28.1z"/>
	<path class="st6" d="M35.9,30.3c0,0-0.7,0.8,0,1.3S49.6,33,50.2,33c0.6,0,7.7,0.4,8.6,0.4c0.9,0,13.2,1.3,14.6,1.7
		c1.4,0.3,5.3,3.3,7.3,3.5s23.4,4.7,23.4,4.7s1.2,0,1.6,0.6c0.4,0.5,2.1,1.6,2.6,1.2c0,0,2.6,0.1,3-0.4c0,0,0.2,1.3,0.8,1.5
		c0.6,0.1,9.1,3.8,9.9,4.3c0.8,0.5,11.3,3.9,16.5,2.5s10.5-1.2,11.1-1.6c0.6-0.5,0.6-1,0.3-1.2c-0.2-0.2-7.7-2.8-9.1-3.4
		c-1.4-0.6-8.6-4.5-13.3-4c-4.7,0.5-12.3-1.7-15.5-0.8c0,0-1-1.2-3.1-0.7c0,0-1.7-1-3.1,0l-13-2.5l-11-2c0,0-3.3-0.7-3.8-1.4
		c-0.5-0.7-4.9-2.6-9.4-2.9c-4.5-0.3-14.2-1.3-18.8-1.3s-8.2-0.4-10.2-0.6C37.6,30.1,36.9,30.1,35.9,30.3z"/>
	<path class="st7" d="M109.1,41c0,0,1.2-0.4,2.5,0.4l-0.9,3.5c0,0-0.8,0.2-2.3,0.2L109.1,41z"/>
	<path class="st7" d="M106.4,40.7c0,0,1-0.4,2.3,0.2l-0.7,4.2c0,0-1.2-0.1-2.3-1.2L106.4,40.7z"/>
	<path class="st7" d="M112.2,41.7c0,0,0.5-0.1,0.9-0.1l-1.3,4.5c0,0-0.5-0.4-0.5-1.1L112.2,41.7z"/>
	<g>
		<path class="st8" d="M116.6,43.7c1.4,0.3,2.8,0.4,4.1,0.5c1.4,0.1,2.8,0.2,4.2,0.2c1.4,0.1,2.8,0.3,4.1,0.6c0.7,0.1,1.2,0.7,1.8,1
			c0.3,0.2,0.6,0.3,1,0.3l1,0c0.3,0,0.7,0,1,0.1c0.2,0,0.3,0,0.5,0.1c0.1,0,0.2,0,0.3,0.1c0,0,0.1,0,0.1,0.1c0,0,0,0.1,0.1,0.1
			c0.5,0.5,1.1,0.8,1.8,0.9c0.7,0.1,1.4-0.3,2.1-0.1c0.7,0.1,1.3,0.4,2,0.7c1.3,0.5,2.6,0.9,4,1.2c1.4,0.3,2.7,0.7,4,1v0
			c-1.4-0.3-2.7-0.7-4.1-1c-1.4-0.3-2.7-0.6-4-1.1c-0.6-0.3-1.3-0.6-2-0.7c-0.7-0.2-1.4,0.2-2.1,0.1c-0.7-0.1-1.4-0.4-1.9-0.9
			c0,0-0.1-0.1-0.1-0.1c0,0,0,0-0.1,0c-0.1,0-0.2,0-0.2-0.1c-0.2,0-0.3-0.1-0.5-0.1c-0.3,0-0.7-0.1-1-0.1l-1-0.1
			c-0.3,0-0.7-0.1-1-0.3c-0.6-0.4-1.1-0.9-1.8-1c-1.4-0.3-2.7-0.5-4.1-0.5c-1.4,0-2.8-0.1-4.2-0.2C119.3,44.1,117.9,44,116.6,43.7
			L116.6,43.7z"/>
	</g>
	<g>
		<path class="st8" d="M117.2,44.7c0.6,0,1.2,0.3,1.8,0.5c0.6,0.2,1.2,0.1,1.8,0.2c0.6,0.1,1.2,0.3,1.8,0.5c0.3,0.1,0.6,0.3,0.8,0.3
			l0.9,0.1l1.9,0.2c0.6,0.1,1.2,0,1.9,0.2c0.6,0.1,1.1,0.5,1.7,0.7c0.6,0.2,1.2,0.3,1.8,0.3l1.9,0c0.6,0,1.2,0.3,1.7,0.7
			c0.2,0.2,0.5,0.4,0.7,0.5c0.3,0.1,0.6,0.1,0.9,0.1c0.6,0,1.2-0.1,1.9,0.1c0.6,0.1,1.2,0.4,1.8,0.5c0.6,0.1,1.2,0.1,1.8,0.2
			c1.3-0.1,2.3,1.1,3.6,1v0c-1.3,0.1-2.3-1.1-3.6-0.9c-0.6,0-1.2,0-1.9-0.1c-0.6-0.1-1.2-0.4-1.8-0.5c-0.6-0.1-1.2-0.1-1.8-0.1
			c-0.3,0-0.6,0-0.9-0.1c-0.3-0.1-0.5-0.4-0.8-0.5c-0.5-0.4-1.1-0.6-1.7-0.7l-1.9,0c-0.6,0-1.2-0.1-1.8-0.3
			c-0.6-0.2-1.1-0.6-1.7-0.7c-0.6-0.2-1.2-0.1-1.8-0.1l-1.9-0.1l-0.9-0.1c-0.3-0.1-0.6-0.2-0.9-0.3c-0.6-0.2-1.2-0.5-1.8-0.5
			c-0.6-0.1-1.2,0-1.8-0.2C118.4,45.1,117.9,44.8,117.2,44.7L117.2,44.7z"/>
	</g>
	<g>
		<path class="st8" d="M124.5,45.3c1,0.1,2-0.2,3,0.1c0.5,0.1,1,0.3,1.3,0.6c0.3,0.4,0.7,0.8,1.2,0.8c0.5,0.1,1,0,1.5-0.1
			c0.5-0.1,1-0.1,1.5,0.1c1,0.3,1.9,0.5,2.9,0.7c1,0.2,1.9,0.5,2.9,0.6c1,0.1,2-0.1,3-0.2c0.5,0,1,0.1,1.5,0.3
			c0.5,0.2,0.9,0.4,1.4,0.5c0.5,0.3,0.7,0.7,1,1.1c0.3,0.4,0.5,0.9,1,1v0c-0.3,0-0.5-0.2-0.6-0.4c-0.2-0.2-0.3-0.4-0.5-0.6
			c-0.3-0.4-0.6-0.8-1-1.1c-0.5-0.1-1-0.3-1.4-0.5c-0.5-0.2-0.9-0.3-1.4-0.3c-1,0-2,0.3-3,0.2c-0.5,0-1-0.2-1.5-0.3l-1.4-0.4
			l-2.9-0.7c-0.5-0.1-1-0.2-1.5,0c-0.5,0.1-1,0.2-1.5,0.1c-0.5,0-0.9-0.5-1.2-0.8c-0.3-0.4-0.8-0.5-1.3-0.6
			C126.5,45.2,125.5,45.5,124.5,45.3L124.5,45.3z"/>
	</g>
	<g>
		<path class="st8" d="M115.2,45.1c1.2,0.4,2.4,0.7,3.7,0.9c1.3,0.1,2.5,0.4,3.7,0.8c0.6,0,1.3-0.2,1.9,0c0.6,0.3,0.8,1,1.4,1.3
			c0.3,0.1,0.6,0.1,0.9,0.1c0.3,0,0.6,0,1,0c0.6,0,1.2,0.4,1.8,0.5c1.3,0.2,2.5-0.1,3.8,0c0.6,0.1,1.2,0.3,1.9,0.4
			c0.3,0.1,0.6,0.1,0.9,0.2c0.3,0.1,0.6,0.3,0.9,0.4c0.3,0.2,0.5,0.3,0.8,0.4c0.3,0.1,0.6,0,0.9-0.1c0.3-0.1,0.7-0.1,1,0
			c0.3,0.1,0.6,0.2,0.9,0.3c0.6,0.3,1.2,0.4,1.8,0.2c0.6-0.2,1.2,0.2,1.9,0.2l0,0c-0.6,0-1.2-0.3-1.9-0.2c-0.6,0.2-1.3,0-1.9-0.2
			c-0.3-0.1-0.6-0.2-0.9-0.3c-0.3-0.1-0.6-0.1-0.9,0c-0.1,0.1-0.3,0.1-0.5,0.2c-0.2,0-0.3,0-0.5,0c-0.3-0.1-0.6-0.3-0.9-0.4
			c-0.5-0.4-1.1-0.5-1.8-0.6c-0.6-0.1-1.2-0.3-1.9-0.4c-1.3-0.1-2.5,0.2-3.8,0c-0.6-0.1-1.2-0.4-1.8-0.5c-0.3,0-0.6,0-0.9,0
			c-0.3,0-0.6,0.1-0.9-0.1c-0.6-0.3-0.8-1-1.4-1.3c-0.6-0.2-1.2,0-1.9,0c-1.2-0.4-2.4-0.7-3.7-0.8C117.7,45.9,116.4,45.5,115.2,45.1
			L115.2,45.1z"/>
	</g>
	<g>
		<path class="st8" d="M121,46c0.9,0.1,1.9,0.2,2.8,0.3c0.9,0.1,1.9,0.2,2.7,0.6c0.4,0.2,0.8,0.5,1.3,0.6c0.4,0.1,0.9,0.2,1.3,0.5
			c0.2,0.1,0.4,0.3,0.5,0.5c0.1,0.2,0,0.5,0.2,0.7c0.2,0.2,0.4,0.2,0.6,0.2c0.2,0,0.5,0,0.7,0c0.5,0,0.9-0.2,1.3-0.4
			c0.4-0.2,0.6-0.6,1.1-0.9c0.9,0.3,1.8,0.3,2.8,0.3c0.9,0,1.9,0,2.8,0.2c0.3,0.1,0.2,0.4,0.2,0.6c0,0.2,0,0.5,0,0.7
			c0,0.2,0,0.5,0.2,0.7c0.1,0.2,0.4,0.3,0.6,0.3l0,0c-0.2,0-0.5-0.1-0.6-0.3c-0.2-0.2-0.2-0.4-0.2-0.7c0-0.2,0-0.5,0-0.7
			c0-0.2,0-0.5-0.2-0.6c-0.4-0.2-0.9-0.2-1.4-0.2l-1.4,0c-0.5,0-0.9,0-1.4,0c-0.2,0-0.5,0-0.7-0.1c-0.2,0-0.5-0.3-0.6-0.2
			c-0.4,0.2-0.7,0.6-1.1,0.9c-0.4,0.3-0.9,0.4-1.3,0.4c-0.2,0-0.5,0-0.7,0c-0.2,0-0.5,0-0.7-0.2c-0.2-0.2-0.1-0.5-0.1-0.7
			c-0.1-0.2-0.3-0.4-0.5-0.5c-0.4-0.3-0.9-0.4-1.3-0.5c-0.5-0.1-0.8-0.4-1.3-0.6C124.7,46.3,122.8,46.2,121,46L121,46z"/>
	</g>
	<g>
		<path class="st8" d="M127.1,43.7c0.9,0,1.9,0,2.8,0.3c0.5,0.1,0.9,0.3,1.3,0.5c0.4,0.2,0.9,0.2,1.4,0.2c0.5,0,0.9-0.2,1.4-0.1
			c0.2,0,0.5,0.1,0.7,0.2c0,0,0.1,0.1,0.1,0.2c0,0.1,0,0.1,0,0.1c0.1,0.1,0.2,0.1,0.3,0.1c0.2,0.1,0.5,0.1,0.6,0.3
			c0.2,0.2,0.3,0.4,0.4,0.6c0.2,0.4,0.5,0.8,1,0.9l0,0c-0.5-0.1-0.8-0.5-1-0.9c-0.1-0.2-0.2-0.4-0.4-0.6c-0.2-0.2-0.4-0.2-0.6-0.3
			c-0.1,0-0.2-0.1-0.3-0.2c-0.1,0-0.1-0.2-0.1-0.2c0,0,0-0.1-0.1-0.1c-0.2-0.1-0.4-0.2-0.6-0.2c-0.5,0-0.9,0.1-1.4,0.1
			c-0.5,0-0.9,0-1.4-0.2c-0.4-0.2-0.8-0.4-1.3-0.5C129,43.9,128.1,43.8,127.1,43.7L127.1,43.7z"/>
	</g>
	<g>
		<path class="st8" d="M116.9,46.4c0.5,0,1,0,1.5,0.3c0.4,0.3,0.9,0.3,1.4,0.3l1.5,0.1c0.5,0,1,0.1,1.5,0.4c0.4,0.4,0.2,1,0.6,1.3
			c0.4,0.3,1,0.2,1.4,0.2c0.5-0.1,1-0.2,1.5,0c0.5,0.2,0.9,0.4,1.4,0.6c0.5,0.2,0.9,0.4,1.4,0.5c0.5,0.1,1,0,1.5,0.1
			c1,0,2,0.3,3,0.4c0.2,0,0.5,0,0.7,0c0.3,0,0.4-0.2,0.7-0.3c0.2-0.1,0.5-0.1,0.8,0c0.2,0.1,0.5,0.2,0.7,0.3c0.9,0.5,1.8,1,2.8,0.8
			l0,0c-1,0.2-2-0.3-2.9-0.8c-0.2-0.1-0.4-0.2-0.7-0.3c-0.2-0.1-0.5-0.1-0.7,0c-0.2,0.1-0.4,0.3-0.7,0.3c-0.3,0-0.5,0-0.8,0
			c-1-0.1-2-0.4-3-0.5c-0.5,0-1,0-1.5-0.1c-0.5-0.1-1-0.3-1.4-0.5c-0.5-0.2-0.9-0.4-1.4-0.6c-0.5-0.2-1-0.1-1.5,0
			c-0.5,0-1,0.1-1.5-0.2c-0.4-0.4-0.3-1-0.6-1.3c-0.4-0.3-0.9-0.3-1.4-0.4l-1.5-0.1c-0.5,0-1,0-1.5-0.4
			C118,46.5,117.4,46.4,116.9,46.4L116.9,46.4z"/>
	</g>
	<g>
		<path class="st8" d="M114.7,46c1.2,0.5,2.2,1.5,3.5,1.6c1.3,0.2,2.6,0,3.9-0.2c0.3,0,0.6-0.1,1,0c0.3,0,0.7,0.1,0.8,0.5
			c0.2,0.6,0.6,1.2,1.1,1.5c0.3,0.2,0.6,0.3,0.9,0.4c0.3,0.1,0.6,0.1,0.9,0.3c0.6,0.3,1.2,0.5,1.8,0.7c1.2,0.4,2.5,0.4,3.8,0.4
			c0.3,0,0.6-0.1,0.9-0.2c0.3-0.1,0.6-0.3,0.6-0.6c0-0.2,0-0.3,0-0.5c0-0.2,0.1-0.3,0.3-0.4c0.2-0.1,0.3-0.1,0.5-0.1
			c0.2,0,0.3,0.2,0.4,0.3c0.2,0.3,0.3,0.6,0.4,0.9c0.1,0.3,0.2,0.6,0.6,0.6c0.3,0.1,0.6,0.4,0.8,0.6c0.2,0.2,0.6,0.3,0.9,0.3
			c0.6-0.1,1.2-0.5,1.8-0.7c0.6-0.2,1.2-0.4,1.9-0.4l0,0c-0.6,0-1.3,0.1-1.9,0.4c-0.6,0.2-1.1,0.6-1.8,0.7c-0.3,0-0.7-0.1-0.9-0.3
			c-0.3-0.2-0.5-0.5-0.8-0.5c-0.1,0-0.4-0.1-0.4-0.2c-0.1-0.1-0.2-0.3-0.2-0.4c-0.1-0.3-0.2-0.6-0.4-0.9c-0.1-0.1-0.2-0.2-0.3-0.3
			c-0.1,0-0.3,0-0.4,0.1c-0.3,0.1-0.2,0.5-0.3,0.8c0,0.4-0.3,0.6-0.6,0.7c-0.3,0.1-0.6,0.1-1,0.2c-1.3,0.1-2.6,0-3.9-0.4
			c-0.6-0.2-1.2-0.5-1.8-0.7c-0.3-0.2-0.6-0.2-0.9-0.3c-0.3-0.1-0.6-0.2-0.9-0.4c-0.5-0.4-0.9-0.9-1.1-1.6c-0.1-0.3-0.5-0.4-0.8-0.4
			c-0.3,0-0.6,0-1,0c-1.3,0.2-2.6,0.4-3.9,0.1C116.8,47.5,115.8,46.5,114.7,46L114.7,46z"/>
	</g>
	<g>
		<path class="st8" d="M114.6,42.5c0.5,0.1,1,0.2,1.5,0l0.7-0.2c0.3-0.1,0.5,0,0.8,0.1c0.1,0.1,0.2,0.1,0.3,0.3
			c0.1,0.1,0.1,0.3,0,0.4c0,0.1-0.1,0.2-0.1,0.4c0,0.1,0.2,0.1,0.3,0.1c0.5,0,1-0.1,1.5-0.2c0.2-0.1,0.5-0.2,0.7-0.2
			c0.3-0.1,0.5,0.1,0.8,0.2c0.2,0.1,0.4,0.2,0.7,0.3c0.2,0.1,0.5,0.1,0.7,0.1c1,0,2.1-0.1,3,0.3l0,0c-0.5-0.1-1-0.3-1.5-0.2
			c-0.5,0-1,0-1.5,0c-0.3,0-0.5,0-0.8-0.1c-0.3-0.1-0.5-0.2-0.7-0.3c-0.2-0.1-0.5-0.3-0.7-0.2c-0.2,0.1-0.5,0.2-0.7,0.2
			c-0.5,0.1-1,0.2-1.5,0.2c-0.1,0-0.3,0-0.4-0.1c0-0.1,0.1-0.3,0.1-0.4c0.1-0.3-0.1-0.5-0.3-0.6c-0.5-0.3-1,0-1.5,0.1
			C115.7,42.8,115.1,42.7,114.6,42.5L114.6,42.5z"/>
	</g>
	<path class="st9" d="M33.6,15.8c-0.9-0.2-3.1-0.4-3-0.9c0.1-0.6,0.3-0.3,0.8-0.3c0.5,0-1.5-0.4-1.7-0.7c-0.2-0.2,0.3-0.4,1.2-0.3
		c0.9,0.1-1.8-0.3-1.8-0.7c0.1-0.3,1.1-0.3,2,0c0.1,0,0.3,0.1,0.3,0c0.1-0.1-0.1-0.5-0.4-0.8c-0.3-0.2-0.7-0.2-0.8-0.3
		c-0.2,0-0.2,0-0.5,0c-0.1,0-0.8,0-0.8-0.2c0-0.2,0.3-0.4,0.6-0.5c0.1,0,0.5-0.2,1.4-0.1c0.5,0,0.8,0.1,1,0.2
		c0.4,0.1,1.8,1.3,2.4,1.3c0.6,0,3-0.2,3.5-0.1s1.9-0.9,2.8-0.9c0.9,0,4.5-0.5,5.1-0.6c0.6-0.1,3.6-0.6,4.5-0.6
		c0.9,0.1,7-0.5,7.9-0.8l1.3-0.4c0,0-0.2,2.5,0.1,2.8c0.3,0.3,0.7,0.2,1,0.1c0,0,0.2,1,0.6,1c0.4,0,0.6,0.4,0.5,0.8
		C61.5,14.5,62,15,62.1,15c0.2,0,0.5,0.9,1.2,0.8c0.8-0.1,3.1-1.4,3.3-1.6c0.3-0.2,0,0.2,0,0.2l1.1,0.7c0,0-0.2,1.3,0.1,1.4
		c0.3,0.1,2,2.2,2.1,2.2c0.1,0-6.6,1.2-8.4-0.1c-1.9-1.3-3.1-0.2-3.7-0.1c-0.5,0-7.4-1.3-8.2-1.5s-2.6-0.1-3.5-0.1
		c-1,0-6.2-0.3-7.1-0.3c-0.7,0-2.1-0.2-3.9-0.4C34.6,15.9,34,15.8,33.6,15.8z"/>
	<path class="st10" d="M59.5,6.5c0,0.5-0.2,2.2,0,2.9c0,0-0.1,2.3,0.1,2.8c0.3,0.5,1.3-0.2,1,0.1c0,0,0,0.8,0.6,1
		c0.6,0.2,0.4,0.3,0.5,0.8c0.1,0.5,0.1,0.8,0.5,0.9c0,0,0.5,0.9,1.2,0.8c0.7-0.1,3.3-1.6,3.3-1.6s1.6,0.7,2.6,0.6c0,0,0-3.5,1.5-5.1
		c0,0-1-0.1-1.3-0.3c0,0-0.8,0-0.8-0.3c0-0.3,0.4-1.2-0.2-1.2s-1.2,0-1.2,0.6c-0.1,0.6-0.4,1-0.4,1.3c0,0.3-1.8,0.3-2,0.3
		s-1.6-1.1-1.6-1.5c-0.1-0.4-1.6-0.9-1.8-1.4c-0.1-0.5-0.2-1.3-0.5-1.2c-0.4,0-1.4-0.1-1.5,0.2C59.5,6.3,59.5,6.5,59.5,6.5z"/>
	<path class="st11" d="M66.9,14.4c0,0,1.9,4,3.5,4.6c1.6,0.5,2.6,1.2,2.6,1.8s0.1,5.4,0,5.9c-0.1,0.5,6.4,1.5,7.7,0.5
		c1.3-1,2.9,0,4,0c1.1,0,3.5-0.2,3.6,0.4c0,0.5-1.7,2.3-0.4,2.3s9.5,3.6,10,4c0.4,0.3,4.6-0.8,4.6-2.2c0-1.4,1.2-3.8,3.3-3.8
		s9.5,1.9,9.7,2.6c0.2,0.6,1.4,2.7,1.3,3.4c-0.1,0.7-1.8,2.6-0.3,2.5c1.5-0.1,1.9-0.5,2.8-1.2c0.9-0.7,2.8-4.7,4.5-4.7
		s4-2.6,7.6-3.2c3.6-0.6,4.7-7.7,4.5-9.2c-0.3-1.5-1-2.3-2.6-1.4c-1.6,0.9-3.2,1.9-5.4,2.3c-2.2,0.4-7,1.4-7.5,0.5
		c-0.4-0.9-5.1-7.2-8-7.4c-2.9-0.2-12.2-1.2-13.7-1.5s-4.5-3.3-6.3-3.3s-2.4,0-3.9,0s-4.5,0.3-5.2,0c-0.7-0.3,0.4-1.7,0.1-1.7
		c-0.3,0.1-1-1.1-2-0.9s-1-1-1.7-1c-0.8,0.1-2.6,0.2-2.9,0.7c-0.4,0.5-0.7-0.6-1.5-0.3C74.3,4.7,74,4.7,74,5.2
		c0,0.5-1.3,1.1-0.6,1.7C74.1,7.5,67.4,10.5,66.9,14.4z"/>
	<path class="st9" d="M73,25.5c0,0-2.2,1.1-2.2,1.4c0,0.3-6.4,2.7-7.3,2.8c-1,0.1-2.9,1.2-2.9,1.7s1.3-0.2,1.8-0.2
		c0,0-1.6,1.4-2.4,1.6c-0.9,0.2-0.9,1.1-0.4,1.1s1.6-0.3,1.7-0.3s-2.5,0.8-1.8,1c0.7,0.2,1.8-0.3,2.1-0.4s-0.5,0.7-0.1,0.9
		s4,0.1,4.6-0.2s7.9-1.1,9.2-1.6s6.8-2.1,6.8-3.1c0-1.1-0.3-1.2-1.2-0.7s-2.5-0.1-2.6-0.3s-0.7-0.3-1.4,0.2s-1.9,1-2.5,1
		c-0.6,0-2.4-1.8-2.2-2.5C72.4,27.1,73.5,25.2,73,25.5z"/>
	<path class="st10" d="M79.9,27.5c0,0-3.2,2-4.2,2.5c-1,0.5-1.5,0.3-2.1-0.2c-0.6-0.5-1.7-1.6-1.3-2.3l0.7-1.6c0,0-0.3,1.1,0.3,1.1
		c0.6,0,1.8,0.7,4,0.7S79.9,27.5,79.9,27.5z"/>
	<circle class="st12" cx="60.8" cy="10.1" r="1.1"/>
	<circle class="st13" cx="60.7" cy="10.1" r="0.6"/>
	<circle class="st14" cx="60.4" cy="9.9" r="0.3"/>
	<g>
		<path class="st15" d="M60.1,8.3c-0.1-0.3-0.2-0.6-0.2-1l0-0.1l0.1,0.1c0.2,0.2,0.4,0.3,0.6,0.5l-0.1,0.1c-0.1-0.5-0.2-1-0.2-1.6
			c0.2,0.5,0.3,1,0.4,1.5L60.6,8l-0.2-0.2c-0.2-0.2-0.4-0.3-0.5-0.5l0.1,0C60,7.6,60,8,60.1,8.3z"/>
	</g>
	<line class="st12" x1="61.9" y1="10.1" x2="63.3" y2="8.5"/>
	<path class="st12" d="M59.7,10.2c0,0-0.2-0.2-0.4-0.1"/>
	<path class="st9" d="M59.6,8.5V9c0,0,1.3-0.4,1.6-0.4c0.3,0,0.8,0.2,0.8,0.2s-0.8-0.6-1-0.6S59.6,8.5,59.6,8.5z"/>
	<path class="st16" d="M107.3,31.4c-2.5,0.3-3.3,1-3.5,1.6c-0.1,0.2-0.1,0.5-0.4,0.7c-0.6,0.4-1.6,0-1.6,0.3c0,0.1,0.1,0.2,0.1,0.3
		c-0.1,0.2-0.5,0-0.9,0.2c-0.2,0.1-0.5,0.3-0.6,0.6c-0.1,0.4,0.3,0.5,0.4,0.9c0.2,0.9-1.3,1.9-1.2,2.2c0.1,0.1,0.2,0,0.4,0
		c1.5-0.3,2.2-0.5,2.4-0.7c0.3-0.5,0.2-0.9,0.4-1c0.3-0.1,0.4,0.4,1,0.6c0.8,0.3,1.8-0.2,1.8-0.6c0-0.2-0.1-0.2-0.3-0.5
		c-0.2-0.5,0-1.2,0.3-1.2c0.3-0.1,0.5,0.8,0.9,0.8c0.3,0,0.4-0.5,0.8-0.6c0.3-0.1,0.7,0,2,0.6c1.4,0.7,1.7,0.9,1.9,0.8
		c0.4-0.3,0-1.6,0.3-1.7c0.1-0.1,0.3,0.1,0.5,0c0.2-0.1,0.2-0.4,0.3-0.4c0,0,0.1,0.1,0.1,0.2c0.1,0.3,0.3,0.4,0.4,0.6
		c0.6,0.5,0.7,1.5,1,1.5c0.1,0,0.2-0.2,0.3-0.3c0.4-0.8,1.5-1.4,1.5-2.2c0-0.5-0.2-0.8-0.3-1c-0.3-0.5-0.6-0.4-1.1-0.9
		c-0.4-0.5-0.5-0.8-0.9-1c-0.1,0-0.3-0.1-0.5-0.1c-0.8,0-1.1,0.6-1.6,0.5c-0.6-0.1-0.7-0.9-1-0.8c-0.2,0.1-0.1,0.6-0.4,0.9
		C109.4,31.7,108.8,31.9,107.3,31.4z"/>
	<path class="st16" d="M123.1,32.4c0.9-0.8,3.1-2.6,3.6-2.7c0.5,0,1.3-1.1,1.3-0.4s-1.7,2.1-2.1,2.7c-0.4,0.6-1.8,0.9-2.1,1.6
		c-0.3,0.8-2.7,1.6-2.7,2.3c0.1,0.8,0.1,2.1,0,2.3s-1.8,2.9-1.4,1.6c0.4-1.3-0.3-3.7,0-3.8c0.3-0.1,2.3-2,2.3-2.5
		C122,33.1,123.1,32.4,123.1,32.4z"/>
	<path class="st1" d="M96.9,51.6c0,0.2,0,0.3,0.1,0.5c0.8,2.1,14.7,1,15.4,0.5c0.7-0.5,3.2-4,4.3-2.2c1.1,1.8,4.2,9,4.7,11
		s0.5,6.5,0,6.6s-2.8,0.3-2.8-2.1c0-2.4-3.5-3.5-5.8-3.7c-2.3-0.2-14.9-1.6-16.2-1.7s-7.3,0.7-8.3-1.5c-0.9-2.2-2.1-4.4-2.1-5.6
		c0,0,0-0.1,0-0.1c0,0,1.6-1.2,2-1.1c0.4,0.1,1.4,0.5,2.1,0.4c0.7-0.1,2.3-0.7,2.6-0.7C93.2,52,96.9,51.6,96.9,51.6z"/>
	<path class="st2" d="M96.9,51.6c-0.2-2.7,3.3-11.1,3.3-11.1l-0.5-0.7c-0.5-0.3-1.2-2.9-1.5-3.6s-0.8-1.1-0.8-1.1
		c-1.7-1.2-6.6-3.6-7.8-4.4S88.1,30,88.1,30c-1.5,0-0.3-1.4-0.3-1.4c-0.9,0-1.4,0.4-1.8,1.3c-0.4,1,0.8,3.6,1,5.1
		c0,0,0.1,0.9-0.3,1.4s-0.1,12.2-0.5,13.2c-0.4,1,0,2.5,0,3.7c0,0,1.5-1.3,2.1-1.2s1.6,0.6,2.2,0.4c0.6-0.2,2-0.6,2.5-0.6
		C93.4,52,96.9,51.6,96.9,51.6z"/>
	<path class="st3" d="M98.5,52.9c0,0,1.5,0.3,3.2,0.4l-0.8,7.7c0,0-3-0.3-3.3-0.3L98.5,52.9z"/>
	<path class="st4" d="M99.6,53.1c0,0,0.8,0.1,1.1,0.1l-0.9,7.6l-1.1-0.1L99.6,53.1z"/>
	<path class="st14" d="M70.8,9.6c0,0-1-0.1-1.3-0.3c0,0-0.8,0-0.8-0.3c0-0.3,0.4-1.2-0.2-1.2s-1.2,0-1.2,0.6c-0.1,0.6-0.4,1-0.4,1.3
		c0,0.3-1.8,0.3-2,0.3s-1.6-1.1-1.6-1.5c-0.1-0.4-1.6-0.9-1.8-1.4c-0.1-0.5-0.2-1.3-0.5-1.2c-0.4,0-1.4-0.1-1.5,0.2
		c0,0.1,0,0.2-0.1,0.2c0,0-1.3,0.1-1.3-0.4s0.1-0.8-0.2-1.2s-0.9-0.9-0.3-0.9s0.8-0.6,0.7-0.9c-0.1-0.3-0.7-0.7-0.3-0.8
		s1.4-0.8,1.4-1.1s0.3-0.7,1-0.5s1.2,0.2,1.5-0.1c0.3-0.2,1.5-0.4,1.8-0.2s0.6,0.3,1.3,0.3c0.6,0,1.4,1,2.1,0.5
		c0.6-0.5,1.9-0.6,2.3-0.2c0.4,0.4,0,0.8,0.5,0.8c0.5,0,0.7,1,1.4,1c0.6,0.1,0.9,1,0.9,1.1c0,0.1-0.7,0.9-0.4,0.9s0.8,0.1,1,0.4
		c0.2,0.4,0.7,0.5,0.7,0.9c0,0.4,0,0.6-0.1,1c-0.1,0.4,0.3,1.2-0.2,1.5S72,8.9,72,9.1s-0.1,0.6-0.3,0.6C71.5,9.6,70.8,9.6,70.8,9.6z
		"/>
	<g>
		<path class="st17" d="M80.6,26.3c1.1-1,2.1-2.1,2.9-3.4c0.4-0.6,0.8-1.3,0.8-2c0.1-0.7-0.3-1.4-0.7-2.1c-0.8-1.3-1.7-2.4-2.8-3.4
			c-0.5-0.5-1.1-1-1.7-1.4c-0.6-0.4-1.3-0.8-2-0.9c0.7,0.1,1.4,0.5,2,0.9c0.6,0.4,1.2,0.9,1.7,1.4c1.1,1,2.1,2.1,2.9,3.4
			c0.4,0.6,0.7,1.3,0.7,2.1c-0.1,0.8-0.5,1.4-0.9,2C82.7,24.2,81.7,25.3,80.6,26.3z"/>
	</g>
	<circle class="st0" cx="2.9" cy="12.1" r="2.9"/>
	<path class="st0" d="M0.9,12.5C2,11,2.5,9.7,2.7,8.7C2.9,8,3,7.1,3.6,6.3C4.1,5.7,4.9,5.2,5,5.1c0.4-0.3,0.4-0.2,0.9-0.6
		c0.9-0.5,1.5-1.1,2-1.5c0.4-0.3,1-0.9,1-0.9l0,0C8.8,2.4,8.5,2.8,8.3,3.3C7.9,4.1,7.9,4.7,7.6,5.5c-0.3,1.1-0.5,1.8-1,2.5
		C6.1,8.9,5.4,9.1,4.4,9.8C3.5,10.3,2.2,11.2,0.9,12.5z"/>
	<g>
		<path class="st18" d="M67.6,10.1c0.3-0.2,0.4-0.4,0.6-0.6c0.1-0.2,0.3-0.5,0.2-0.8c0-0.1-0.2-0.2-0.2-0.4c0-0.1-0.2-0.1-0.3-0.1
			c-0.1,0-0.1,0-0.1,0.1c0,0.1,0,0.2-0.1,0.2c-0.1,0.1-0.2,0.2-0.2,0.4c0-0.2,0.1-0.3,0.2-0.4c0-0.1,0.1-0.1,0-0.2
			c0-0.1,0.1-0.1,0.2-0.2c0.1,0,0.2,0,0.2,0c0.1,0,0.2,0,0.2,0.2c0,0.1,0.2,0.2,0.2,0.4c0.1,0.3-0.1,0.6-0.2,0.9
			C68,9.8,67.8,10,67.6,10.1z"/>
	</g>
</g>
</svg>
