<svg id="Layer_1" data-name="Layer 1" xmlns="http://www.w3.org/2000/svg" viewBox="0 0 501.46 491.37"><defs><style>.cls-1{fill:#ebe6f2;}.cls-1,.cls-14{opacity:0.29;}.cls-14,.cls-2,.cls-3{fill:#e8eaea;}.cls-2{opacity:0.5;}.cls-4{fill:#e2f3f7;stroke:#a7cbd0;}.cls-11,.cls-12,.cls-4,.cls-5,.cls-8,.cls-9{stroke-miterlimit:10;}.cls-5{fill:#a8a8a6;stroke:#7a7a78;}.cls-6{fill:#131315;}.cls-7{fill:#545657;}.cls-8{fill:#2f3249;}.cls-12,.cls-8{stroke:#2f3249;stroke-width:0.5px;}.cls-11,.cls-9{fill:none;}.cls-9{stroke:#2a2b30;stroke-width:2px;}.cls-10{fill:#2a2b30;}.cls-11{stroke:#2a282b;stroke-linecap:round;}.cls-12{fill:#444774;}.cls-13{fill:#fff;}.cls-15{fill:#d8efee;}.cls-16{fill:#a9cad3;}</style></defs><title>hogsmeade-sign</title><path class="cls-1" d="M73.48,62.48c-25.95.77-58.87,11.58-32,20.79s23.37,25.86.87,26-34.2,32.14,19,30.7c10.77-.29,19.48,2.15,31.52,3,4.93.33,11.47.61,24.57,1.16,17,.73,19.47.66,22.91,0,9.45-1.79,10.29-4.89,19.5-7.55,11.61-3.36,17.28-2.25,28.33-1.6,30.29,1.79,65.35-32.08,14.71-37.13S107.24,81,129.75,79.77,193.81,58.91,73.48,62.48Z" transform="translate(0.66 -9.13)"/><path class="cls-2" d="M195.32,50.55c21.36,2.66,63.79-4.18,45.84,11.14S193.9,81.13,208.77,91.13s-9.7,18.15-30.4,8.78-34.06-12.31-53-7-60.8,2.35-47.87-11.17,45.28-2.94,40.1-17.65,5.69-12.12,19-9.29S167,47,195.32,50.55Z" transform="translate(0.66 -9.13)"/><path class="cls-1" d="M365.06,117.73c-34.68,0-83.9,10-51.46,18.52s44.22,23.41,20.43,25.37S306.33,182.8,384.64,173s87.82-18.44,68.24-29-66-14.9-46.43-21S365.06,117.73,365.06,117.73Z" transform="translate(0.66 -9.13)"/><path class="cls-3" d="M396.62,53.28a61.89,61.89,0,0,1,14.21,5.1c13.28,6.92,12.38,13.8,23.21,21,11.15,7.44,16.17,2.87,29.93,10.52,10.44,5.81,22.68,16.86,19.08,25-2.08,4.72-8.85,7.08-15.84,9-20.5,5.63-63.69,17.5-103.1.12-18.19-8-15.58-13.44-31.38-17.23-20.56-4.93-31.06,2.81-58.09-2.34-8.28-1.57-18.5-3.62-28.07-10.16-9.07-6.19-21.7-19.25-17.09-28.33s21.75-5.4,84.61-12.7C329.8,51.45,369.43,46.5,396.62,53.28Z" transform="translate(0.66 -9.13)"/><path class="cls-4" d="M0,500c2.63-9.18,14.74-48.63,44.68-65.91,22.61-13,44-6.88,51.27-4.79,14.62,4.22,14.09,9.16,29.5,15,23.92,9.12,44.66,4.64,64.81,0,26.33-6.07,23.75-11.42,49.33-17.77,15.73-3.91,38.58-9.58,65.77-3.42,32.13,7.29,33.7,22.8,57.55,20.5,16.87-1.62,19.41-9.7,43.34-11.72,10.59-.9,22.86-1.77,37.61,4.95,13.3,6.07,22.17,15.37,28.84,22.49,7.39,7.89,17.75,20.86,27.3,40.63Z" transform="translate(0.66 -9.13)"/><path class="cls-5" d="M202.37,441V214.43a15.86,15.86,0,0,0-16.54,0v230.1Z" transform="translate(0.66 -9.13)"/><ellipse class="cls-6" cx="196.34" cy="202.84" rx="16.8" ry="4.81"/><path class="cls-7" d="M179.34,210.84q0-32.19,0-64.38s15.92-9.42,32.11,0v63.87a14.91,14.91,0,0,0-2.37-1.26,17.29,17.29,0,0,0-3.14-.9,44.67,44.67,0,0,0-4.76-.75,53,53,0,0,0-5.53-.26,60.3,60.3,0,0,0-9.44.83,25.6,25.6,0,0,0-2.51.6,11.58,11.58,0,0,0-2.51.93A9,9,0,0,0,179.34,210.84Z" transform="translate(0.66 -9.13)"/><path class="cls-8" d="M202.37,266s-6.78-2.87-16.54,0V215.86s9.6,1.74,16.54,0Z" transform="translate(0.66 -9.13)"/><path class="cls-8" d="M179.36,146.46v-4.19l14.46-27.66,1.59-3,1.55,3q7.24,13.88,14.51,27.74v4.19a30.39,30.39,0,0,0-7-3,31.81,31.81,0,0,0-9.2-1.18,34.87,34.87,0,0,0-9.86,1.65A35.72,35.72,0,0,0,179.36,146.46Z" transform="translate(0.66 -9.13)"/><line class="cls-9" x1="196.07" y1="105.45" x2="196.07" y2="87.04"/><circle class="cls-10" cx="196.07" cy="85.42" r="2.91"/><path class="cls-11" d="M195.41,104s-16.63.59-18.49,1c-1.14.23-3.25.35-4.68,1.85a6.68,6.68,0,0,0-1.48,4.72c0,7.53-.32,15.06-.09,22.59.12,3.85.12,7.24.11,12,0,2.65,0,3.57-.09,9.11,0,1.05,0,5.55-.12,14.52q-.06,7.53-.13,15.06c-.08,9.22-.09,10.9-.16,14-.06,2.46-.1,4.93-.17,7.39-.09,3.18-.19,6.21,0,10.09.28,5.5.87,6.64,1.74,7.34s1.9.78,5,.77c2.33,0,5.37,0,9-.19" transform="translate(0.66 -9.13)"/><path class="cls-11" d="M202.37,224.43c1.16.53,7.19,3.16,9.61.77.54-.53.85-1.25,1-7.8.08-4.36,0-7.64,0-8-.06-3.17-.1-4.75-.23-7.77-.41-9.42,1-70.16-1.27-85.47a10.46,10.46,0,0,0-.66-2.5c-2.17-5.42-8.5-8.18-14.53-9.64" transform="translate(0.66 -9.13)"/><path class="cls-11" d="M196.28,103.22s5.15-5.29,6.86-7,2.79-1.87,2.86.85.43,36.49.43,36.49" transform="translate(0.66 -9.13)"/><path class="cls-12" d="M211.47,182.65s74.53,35.19,77.3,35,0-2.65,0-2.65,4,0,2.21-3c0,0,2.82-.44,1.56-2.81,0,0,2.86-.59,1.94-3.16,0,0,5.62,3.54,6,.83s-2.77-5.09-21.07-15.26-67.9-37.23-67.9-37.23Z" transform="translate(0.66 -9.13)"/><path class="cls-13" d="M232.51,173.71c0-.61,0-1.12,0-1.52a4.14,4.14,0,0,0-.11-1,1,1,0,0,0-.31-.56,1.26,1.26,0,0,0-.57-.26v-.26l.82.08c.27,0,.55,0,.83,0h.68c.22,0,.44,0,.66-.05v.27a1.07,1.07,0,0,0-.56.22,1.09,1.09,0,0,0-.32.55,3.8,3.8,0,0,0-.15,1c0,.4-.05.91-.07,1.53l-.18,7.34c0,.61,0,1.12,0,1.52a4.22,4.22,0,0,0,.1,1,1.07,1.07,0,0,0,.31.56,1.25,1.25,0,0,0,.58.26v.26l-.77-.08c-.26,0-.52,0-.78,0h-.74c-.25,0-.49,0-.73.05v-.27a1.14,1.14,0,0,0,.58-.22,1.16,1.16,0,0,0,.32-.55,4.23,4.23,0,0,0,.16-1q0-.6.06-1.53l.1-4-3.77-.1-.1,4c0,.61,0,1.12,0,1.53a4.28,4.28,0,0,0,.1,1,1.08,1.08,0,0,0,.31.55,1.16,1.16,0,0,0,.58.26v.26l-.77-.08-.78,0h-.74l-.74.05v-.26a1.24,1.24,0,0,0,.58-.23,1.18,1.18,0,0,0,.32-.54,4.33,4.33,0,0,0,.16-1c0-.4.05-.91.06-1.52l.19-7.34c0-.62,0-1.13,0-1.53a4.21,4.21,0,0,0-.11-1,1,1,0,0,0-.31-.56,1.26,1.26,0,0,0-.57-.26V170l.82.09.83,0c.23,0,.45,0,.67,0s.45,0,.67,0v.26a1.14,1.14,0,0,0-.57.23,1.07,1.07,0,0,0-.31.54,4.33,4.33,0,0,0-.16,1c0,.41,0,.91-.06,1.53l-.07,2.68,3.78.1Z" transform="translate(0.66 -9.13)"/><path class="cls-13" d="M234.23,180.23a21,21,0,0,1,.25-3.26,11.83,11.83,0,0,1,.62-2.44A4.27,4.27,0,0,1,236,173a1.39,1.39,0,0,1,2.18,0,4.52,4.52,0,0,1,.88,1.54,12,12,0,0,1,.59,2.44,21.51,21.51,0,0,1,.2,3.26,22.4,22.4,0,0,1-.24,3.26A12.94,12.94,0,0,1,239,186a4.39,4.39,0,0,1-.91,1.53A1.5,1.5,0,0,1,237,188a1.54,1.54,0,0,1-1.09-.54,4.37,4.37,0,0,1-.88-1.53,12.66,12.66,0,0,1-.59-2.44A21.51,21.51,0,0,1,234.23,180.23Zm.81,0a22.42,22.42,0,0,0,.12,2.63,13.78,13.78,0,0,0,.38,2.22,5.12,5.12,0,0,0,.62,1.53,1,1,0,0,0,.84.58,1,1,0,0,0,.84-.57,5.3,5.3,0,0,0,.64-1.52,13.58,13.58,0,0,0,.41-2.22,24.26,24.26,0,0,0,.16-2.62c0-.92,0-1.79-.12-2.63a16.42,16.42,0,0,0-.38-2.22,5.57,5.57,0,0,0-.62-1.53.91.91,0,0,0-1.69,0,5.46,5.46,0,0,0-.64,1.52,14.59,14.59,0,0,0-.41,2.21A22.29,22.29,0,0,0,235,180.23Z" transform="translate(0.66 -9.13)"/><path class="cls-13" d="M245.52,181.53c-.09-.54-.2-1.06-.31-1.56a9.16,9.16,0,0,0-.39-1.35,3.31,3.31,0,0,0-.53-1,1,1,0,0,0-.73-.37,1.06,1.06,0,0,0-.89.56,5.61,5.61,0,0,0-.7,1.51,14.06,14.06,0,0,0-.47,2.11,20.52,20.52,0,0,0-.2,2.34,22.65,22.65,0,0,0,.08,2.51,12.18,12.18,0,0,0,.37,2.08,4.59,4.59,0,0,0,.62,1.42,1.08,1.08,0,0,0,.86.54,1.72,1.72,0,0,0,.82-.18,1.93,1.93,0,0,0,.76-.79l.07-2.7c0-.95-.26-1.45-.86-1.51v-.25l.6.07a5.7,5.7,0,0,0,.62,0c.22,0,.43,0,.65,0s.42,0,.64,0v.25a1,1,0,0,0-.34.1.59.59,0,0,0-.27.27,1.56,1.56,0,0,0-.19.51,5.4,5.4,0,0,0-.08.82l-.08,2.94c-.4.31-.8.59-1.2.86a2,2,0,0,1-1.13.38,1.75,1.75,0,0,1-1.12-.5,4.29,4.29,0,0,1-1-1.42,9.76,9.76,0,0,1-.64-2.28,17.35,17.35,0,0,1-.19-3.11,14.83,14.83,0,0,1,.34-2.85,10.31,10.31,0,0,1,.76-2.28,5.1,5.1,0,0,1,1-1.5,1.61,1.61,0,0,1,1.15-.52,2.15,2.15,0,0,1,.64.09,2.58,2.58,0,0,1,.51.2,4.23,4.23,0,0,1,.42.25l.35.24v.89c0,.37,0,.76,0,1.15s0,.79,0,1.16,0,.67,0,.89Z" transform="translate(0.66 -9.13)"/><path class="cls-13" d="M250.34,183.75a11.61,11.61,0,0,0-.29-1.27,6.69,6.69,0,0,0-.42-1.13,3.17,3.17,0,0,0-.54-.81,1,1,0,0,0-.67-.31,1.08,1.08,0,0,0-.89.39,2.43,2.43,0,0,0-.38,1.49,3.81,3.81,0,0,0,.12,1.12,3.26,3.26,0,0,0,.4.84,3.61,3.61,0,0,0,.57.67l.66.63a8.63,8.63,0,0,1,.65.69,3.45,3.45,0,0,1,.57.87,5.73,5.73,0,0,1,.39,1.17,6.86,6.86,0,0,1,.11,1.58,7.86,7.86,0,0,1-.21,1.69,3.89,3.89,0,0,1-.49,1.16,1.94,1.94,0,0,1-.68.66,1.58,1.58,0,0,1-.82.2,1.5,1.5,0,0,1-.49-.11,3.51,3.51,0,0,1-.48-.22l-.43-.21a.62.62,0,0,0-.3-.1.31.31,0,0,0-.2.06l-.2.15c0-.76-.08-1.5-.14-2.23s-.12-1.46-.18-2.22l.12-.14c.11.47.23,1,.38,1.46a9.53,9.53,0,0,0,.5,1.4,4.8,4.8,0,0,0,.64,1.06,1,1,0,0,0,.78.44,1.28,1.28,0,0,0,.53-.12,1.13,1.13,0,0,0,.45-.4,2,2,0,0,0,.33-.72,4.61,4.61,0,0,0,.14-1.1,3.92,3.92,0,0,0-.24-1.58,4.05,4.05,0,0,0-.65-1.11,7.16,7.16,0,0,0-.85-.89,6.28,6.28,0,0,1-.86-.92,4.29,4.29,0,0,1-.88-2.92,6,6,0,0,1,.18-1.41,3.87,3.87,0,0,1,.41-1.08,2,2,0,0,1,.57-.68,1.08,1.08,0,0,1,.68-.22,2,2,0,0,1,.62.12l.54.23c.18.08.35.17.53.24a1.48,1.48,0,0,0,.56.13c0,.6,0,1.18,0,1.75s0,1.13,0,1.71Z" transform="translate(0.66 -9.13)"/><path class="cls-13" d="M255.32,182.69a5.25,5.25,0,0,0,.55.09l.54.05h.48l.49,0,0,.24a1,1,0,0,0-.55.45,2.91,2.91,0,0,0-.28,1.28c0,.34,0,.88,0,1.64v2.47c0,.9,0,1.79,0,2.69s0,1.66,0,2.28c0,.27,0,.51,0,.71a3.73,3.73,0,0,0,.1.54,1.22,1.22,0,0,0,.21.39,1.09,1.09,0,0,0,.39.25V196q-.3-.06-.6-.09t-.6-.06h-.57l-.56,0v-.24a1.73,1.73,0,0,0,.31-.14.79.79,0,0,0,.27-.25,1.54,1.54,0,0,0,.2-.48,4.79,4.79,0,0,0,.11-.83c0-.16,0-.37,0-.64s0-.57,0-.92l-.05-8.08h0c-.2.95-.4,1.89-.61,2.82l-.63,2.8c-.21.94-.41,1.88-.61,2.84s-.39,1.94-.56,2.95h0c-.12-2.07-.28-4.08-.47-6s-.41-3.86-.64-5.8h0c-.08.73-.17,1.54-.26,2.43s-.18,1.76-.26,2.6-.16,1.62-.22,2.31-.1,1.23-.12,1.57,0,.82,0,1.14a3.69,3.69,0,0,0,.08.81,1.18,1.18,0,0,0,.24.49.78.78,0,0,0,.43.23v.24l-.62-.1-.62-.05h-.46a3.71,3.71,0,0,0-.47,0v-.24a.94.94,0,0,0,.33-.14,1.49,1.49,0,0,0,.3-.31,2.49,2.49,0,0,0,.24-.49,3,3,0,0,0,.15-.68c.06-.47.12-.95.17-1.46s.11-1,.17-1.53l.78-7.09a2.18,2.18,0,0,0-.35-.58,1.57,1.57,0,0,0-.42-.34v-.24l.65.09c.21,0,.43,0,.64.06h.47c.16,0,.31,0,.47,0v.24a.88.88,0,0,0-.29.31,1.66,1.66,0,0,0-.16.72,4.84,4.84,0,0,0,0,.66c0,.22,0,.44.06.67l.66,7c.34-1.39.67-2.8,1-4.2s.61-2.85.89-4.33a1.43,1.43,0,0,0-.17-.43,1.23,1.23,0,0,0-.22-.27Z" transform="translate(0.66 -9.13)"/><path class="cls-13" d="M259.24,198.13l.18.09.23.08.25.08a.77.77,0,0,0,.25,0,1.91,1.91,0,0,0,.9-.18,2.08,2.08,0,0,0,.74-.64,5.53,5.53,0,0,0,.65-1.13c.2-.46.41-1,.63-1.67l.09.19-.86,4.1L262,199l-.29,0-3.13-.08h-.48l-.48.05v-.24a.9.9,0,0,0,.47-.22,1,1,0,0,0,.27-.5,4.8,4.8,0,0,0,.12-.91c0-.38.05-.85.06-1.43l.17-6.84c0-.57,0-1.05,0-1.42a4.55,4.55,0,0,0-.08-.92,1,1,0,0,0-.24-.51.88.88,0,0,0-.47-.24v-.25l.53.06.52,0,.58,0h.68c.39,0,.78,0,1.17,0l1.18,0c0,.15,0,.3,0,.45s0,.29,0,.43l0,.82c0,.3,0,.6,0,.91s0,.65,0,1l-.11.08a10.46,10.46,0,0,0-.24-1.62,3.15,3.15,0,0,0-.4-1,1.29,1.29,0,0,0-.5-.49,1.54,1.54,0,0,0-.6-.13,5.62,5.62,0,0,0-1.16.09l-.13,5.12h.32l.32,0a1,1,0,0,0,.92-.54,4.69,4.69,0,0,0,.46-2h.1c0,.49,0,1,0,1.47s0,1-.05,1.46,0,1,0,1.47l0,1.48h-.1c0-.57-.09-1-.15-1.4a2.82,2.82,0,0,0-.25-.84.84.84,0,0,0-.39-.4,1.6,1.6,0,0,0-.57-.12h-.54Z" transform="translate(0.66 -9.13)"/><path class="cls-13" d="M263.59,195.71l-.68,3.56-.06.27c0,.08,0,.16,0,.26a2.2,2.2,0,0,0,.08.61,1.72,1.72,0,0,0,.22.43,1.45,1.45,0,0,0,.27.28l.24.14v.24a5,5,0,0,0-.54-.08l-.55,0H262l-.55,0v-.23a1.25,1.25,0,0,0,.47-.42,2.79,2.79,0,0,0,.33-.67,8.12,8.12,0,0,0,.24-.86q.11-.48.21-1l1.76-8.35.06-.26a.88.88,0,0,0,0-.21,2.13,2.13,0,0,0,0-.3,3.37,3.37,0,0,0-.06-.36,1.52,1.52,0,0,0,.41-.24,4.29,4.29,0,0,1,.38-.33l1.59,11.34a4.43,4.43,0,0,0,.32,1.23,1,1,0,0,0,.65.57v.24l-.71-.08c-.23,0-.47,0-.72,0h-.75l-.27,0-.29,0v-.23a1.17,1.17,0,0,0,.64-.41A1.39,1.39,0,0,0,266,200a1.67,1.67,0,0,0,0-.32c0-.11,0-.21,0-.3l-.5-3.65Zm1.11-5.59-1,5,1.69,0Z" transform="translate(0.66 -9.13)"/><path class="cls-13" d="M267.43,204.24a.78.78,0,0,0,.38-.21,1.09,1.09,0,0,0,.22-.36,1.57,1.57,0,0,0,.1-.44c0-.16,0-.32,0-.47l.23-9.1v-.76a2.29,2.29,0,0,0-.08-.56.86.86,0,0,0-.2-.38.81.81,0,0,0-.38-.2v-.24l.36.07.37,0a3,3,0,0,0,.92-.12,2.91,2.91,0,0,1,.88-.11,1.54,1.54,0,0,1,1.06.51,4.29,4.29,0,0,1,.85,1.43,11.22,11.22,0,0,1,.54,2.23,19,19,0,0,1,.15,2.92,15.84,15.84,0,0,1-.29,2.78,7.54,7.54,0,0,1-.61,1.88,2.81,2.81,0,0,1-.84,1.05,1.55,1.55,0,0,1-1,.31l-.65,0-.48,0-.37,0h-.78l-.48.05Zm1.37-1.31a1.92,1.92,0,0,0,.5.84.93.93,0,0,0,.58.25c.73,0,1.27-.49,1.63-1.51a15.6,15.6,0,0,0,.61-4.5,16.87,16.87,0,0,0-.1-2.4,11.46,11.46,0,0,0-.41-2,4.32,4.32,0,0,0-.67-1.31,1.07,1.07,0,0,0-1.83,0q-.06,1-.09,2c0,.67,0,1.37-.06,2.07Z" transform="translate(0.66 -9.13)"/><path class="cls-13" d="M274.5,205.34a.67.67,0,0,0,.17.08l.22.09.24.07.23,0a1.71,1.71,0,0,0,.85-.17,1.92,1.92,0,0,0,.69-.6,5.4,5.4,0,0,0,.61-1.06c.19-.44.39-1,.6-1.57l.08.17-.81,3.86a2.61,2.61,0,0,0-.27-.06l-.28,0-2.94-.07h-.45a3.8,3.8,0,0,0-.46,0v-.24a.79.79,0,0,0,.44-.2,1,1,0,0,0,.25-.47,4.33,4.33,0,0,0,.12-.86c0-.35,0-.8.05-1.34l.16-6.45c0-.54,0-1,0-1.34a4.75,4.75,0,0,0-.08-.86.9.9,0,0,0-.23-.49.91.91,0,0,0-.44-.22v-.23l.5.05.49,0,.54,0,.65,0h1.09l1.11,0c0,.14,0,.28,0,.42s0,.28,0,.41l0,.77c0,.28,0,.57,0,.86s0,.61,0,1l-.11.08a9.3,9.3,0,0,0-.23-1.52,3.22,3.22,0,0,0-.36-.93,1.38,1.38,0,0,0-.48-.46,1.53,1.53,0,0,0-.56-.13,5.11,5.11,0,0,0-1.1.09l-.12,4.83a1.51,1.51,0,0,0,.3,0h.3a1,1,0,0,0,.87-.51,4.52,4.52,0,0,0,.44-1.93h.09c0,.46,0,.92,0,1.39s0,.92,0,1.37l0,1.38,0,1.39h-.09c0-.54-.08-1-.14-1.32a2.56,2.56,0,0,0-.24-.79.8.8,0,0,0-.37-.38,1.34,1.34,0,0,0-.53-.11h-.5Z" transform="translate(0.66 -9.13)"/><path class="cls-12" d="M207.09,133.89S277.86,65.81,284.59,61s18.28-16.4,23.12-15.14-4.64,13-12.81,19.26a7.34,7.34,0,0,1-3.1,9.44s2.87,6-3.11,9.55c0,0,2.42,6.21-3,9.09a7.25,7.25,0,0,1-1.27,6.44l-73,61.31V142.27Z" transform="translate(0.66 -9.13)"/><path class="cls-13" d="M220.94,133.16c-.06-.75-.12-1.36-.17-1.85a6.31,6.31,0,0,0-.23-1.18,1.39,1.39,0,0,0-.37-.64,1.09,1.09,0,0,0-.6-.24l0-.32c.28,0,.56,0,.83,0a7.94,7.94,0,0,0,.83,0c.22,0,.44,0,.67-.07s.43-.08.65-.14l0,.32a1.06,1.06,0,0,0-.53.34,1.3,1.3,0,0,0-.25.69,6.15,6.15,0,0,0,0,1.19q0,.74.12,1.86l.69,8.89c.06.74.12,1.36.17,1.84a6.31,6.31,0,0,0,.23,1.18,1.39,1.39,0,0,0,.37.64,1.21,1.21,0,0,0,.61.25l0,.32a6.77,6.77,0,0,0-.78,0q-.39,0-.78,0l-.73.08-.73.14,0-.32a1,1,0,0,0,.54-.34,1.38,1.38,0,0,0,.26-.69,6.12,6.12,0,0,0,0-1.19c0-.49-.06-1.11-.12-1.85l-.37-4.79-3.77.29.38,4.79c0,.75.11,1.36.17,1.85a6.12,6.12,0,0,0,.22,1.17,1.34,1.34,0,0,0,.37.64,1.06,1.06,0,0,0,.61.25l0,.32-.78,0c-.26,0-.52,0-.77,0s-.5,0-.74.09a6.26,6.26,0,0,0-.73.14l0-.32a1.12,1.12,0,0,0,.54-.34,1.38,1.38,0,0,0,.26-.69,6.26,6.26,0,0,0,0-1.2c0-.49-.06-1.1-.12-1.85l-.69-8.89c-.06-.74-.12-1.36-.17-1.85a7.45,7.45,0,0,0-.22-1.17,1.34,1.34,0,0,0-.38-.64,1.18,1.18,0,0,0-.6-.25l0-.32c.28,0,.56,0,.83,0l.83,0c.22,0,.45,0,.67-.08l.65-.13,0,.32a1,1,0,0,0-.54.34,1.38,1.38,0,0,0-.25.68,6.26,6.26,0,0,0,0,1.2c0,.49.06,1.11.12,1.85l.26,3.25,3.76-.3Z" transform="translate(0.66 -9.13)"/><path class="cls-13" d="M222.32,132.34a21.45,21.45,0,0,1,.21-3.55,12.43,12.43,0,0,1,.65-2.67,4.8,4.8,0,0,1,1-1.67,1.76,1.76,0,0,1,1.23-.6,1.81,1.81,0,0,1,1.25.56,4.79,4.79,0,0,1,1.05,1.65,13.37,13.37,0,0,1,.72,2.65,20.7,20.7,0,0,1,.3,3.54,22.68,22.68,0,0,1-.2,3.55,13,13,0,0,1-.66,2.67,4.91,4.91,0,0,1-1,1.68,1.83,1.83,0,0,1-1.24.59,1.78,1.78,0,0,1-1.25-.56,4.78,4.78,0,0,1-1-1.65,13,13,0,0,1-.73-2.65A22.94,22.94,0,0,1,222.32,132.34Zm.92,0a26.07,26.07,0,0,0,.19,2.86,15.1,15.1,0,0,0,.49,2.4,5.72,5.72,0,0,0,.74,1.66,1.2,1.2,0,0,0,1,.61,1.18,1.18,0,0,0,1-.64,5.82,5.82,0,0,0,.7-1.67,14.93,14.93,0,0,0,.42-2.42,26.57,26.57,0,0,0,.12-2.86,26.21,26.21,0,0,0-.2-2.87,16.38,16.38,0,0,0-.48-2.4,6.09,6.09,0,0,0-.74-1.65,1.06,1.06,0,0,0-1.93,0,5.77,5.77,0,0,0-.7,1.68,15.82,15.82,0,0,0-.41,2.41A26.65,26.65,0,0,0,223.24,132.33Z" transform="translate(0.66 -9.13)"/><path class="cls-13" d="M233.93,123c-.12-.65-.25-1.29-.38-1.91a12.9,12.9,0,0,0-.45-1.65,4.64,4.64,0,0,0-.57-1.16.91.91,0,0,0-.75-.43c-.33,0-.62.25-.87.73a8,8,0,0,0-.63,1.91,18.49,18.49,0,0,0-.38,2.62,28.31,28.31,0,0,0-.11,2.91c0,1.09.08,2.12.19,3.09a15.51,15.51,0,0,0,.45,2.55,6.55,6.55,0,0,0,.68,1.73,1.08,1.08,0,0,0,.89.64,1.58,1.58,0,0,0,.81-.26,2.23,2.23,0,0,0,.73-1l0-3.34c0-1.18-.33-1.79-.92-1.83v-.31l.61,0a3.13,3.13,0,0,0,.63,0l.64,0,.64-.09v.31a.81.81,0,0,0-.33.14.72.72,0,0,0-.26.34,2.42,2.42,0,0,0-.17.64,6,6,0,0,0-.05,1l.05,3.63c-.39.4-.78.78-1.17,1.12a1.81,1.81,0,0,1-1.12.52,1.64,1.64,0,0,1-1.15-.57,5.17,5.17,0,0,1-1-1.71,14.3,14.3,0,0,1-.74-2.79,24.73,24.73,0,0,1-.32-3.83,22.19,22.19,0,0,1,.22-3.55,15.42,15.42,0,0,1,.66-2.85,6.51,6.51,0,0,1,1-1.89,1.5,1.5,0,0,1,1.12-.7,2.18,2.18,0,0,1,.65.08,2.22,2.22,0,0,1,.52.23,3.58,3.58,0,0,1,.43.29l.37.28c0,.28,0,.64,0,1.1s.05.93.08,1.43.06,1,.09,1.42,0,.83.07,1.1Z" transform="translate(0.66 -9.13)"/><path class="cls-13" d="M232,113.58l.82,0,.8-.1.89-.16q.43-.09.87-.21l0,.3-.36.19a.81.81,0,0,0-.3.31,1.54,1.54,0,0,0-.18.56,3.4,3.4,0,0,0,0,.87,4.87,4.87,0,0,0,.22.85c.11.34.24.73.4,1.19l2.95,9,.24-7.94-1.08-3.18c-.44-1.29-1-1.92-1.59-1.9l0-.3q.38,0,.75,0l.75-.09.94-.17c.31-.06.62-.13.93-.22l0,.31a1.15,1.15,0,0,0-.31.16,1.5,1.5,0,0,0-.32.3,1.48,1.48,0,0,0-.21.49,1.92,1.92,0,0,0,0,.72,4.34,4.34,0,0,0,.14.59c.07.25.18.59.32,1l3.17,9.68.27-9.89c0-.34,0-.72,0-1.13s0-.71-.07-.92a1.88,1.88,0,0,0-.2-.62,1.2,1.2,0,0,0-.34-.39,1.3,1.3,0,0,0-.36-.2,1.79,1.79,0,0,0-.33-.07l0-.3q.39,0,.75,0c.25,0,.49,0,.73-.09s.44-.07.65-.12.43-.11.65-.18l0,.31a1,1,0,0,0-.51.46,2.51,2.51,0,0,0-.28.8,6.1,6.1,0,0,0-.13,1q0,.53-.06,1l-.55,13.77-.19,0-3.15-9.74-.38,10.27-.2,0-4.33-13.21a12.32,12.32,0,0,0-.57-1.48,3.7,3.7,0,0,0-.46-.75.93.93,0,0,0-.4-.3l-.4-.11Z" transform="translate(0.66 -9.13)"/><path class="cls-13" d="M244.14,115.45l-.14,5.12c0,.15,0,.28,0,.4a2.3,2.3,0,0,0,0,.36,2.86,2.86,0,0,0,.2.86,2.24,2.24,0,0,0,.33.56,1.59,1.59,0,0,0,.67.51l0,.34c-.21,0-.42,0-.63,0s-.42,0-.64,0a6,6,0,0,0-.61.09l-.62.16,0-.34a1.44,1.44,0,0,0,.47-.66,4.17,4.17,0,0,0,.25-1c.06-.38.1-.79.13-1.25s0-.92.06-1.42l.51-12c0-.14,0-.26,0-.37a1.55,1.55,0,0,0,0-.31,2.57,2.57,0,0,0-.08-.41,4.39,4.39,0,0,0-.14-.5,1.68,1.68,0,0,0,.43-.41c.11-.16.24-.34.39-.52l3.89,15.7a7.12,7.12,0,0,0,.6,1.67,1.27,1.27,0,0,0,.85.71l0,.34h-.83l-.84.06-.49.06-.37,0-.31.08-.33.09,0-.33a1.47,1.47,0,0,0,.67-.68,2.41,2.41,0,0,0,.16-1.28,3.82,3.82,0,0,0-.09-.44c0-.14-.07-.28-.1-.41l-1.23-5Zm.26-8-.25,7.19,2-.22Z" transform="translate(0.66 -9.13)"/><path class="cls-13" d="M256.89,118l-1.89.14c-.53-1.22-1-2.47-1.5-3.76s-.9-2.65-1.31-4.1a1,1,0,0,1-.27,0l-.34-.1a2.55,2.55,0,0,1-.35-.14l-.28-.16.32,4.25c.06.76.11,1.39.16,1.89a7.78,7.78,0,0,0,.23,1.2,1.38,1.38,0,0,0,.38.65,1.21,1.21,0,0,0,.63.26l0,.32-.8,0c-.26,0-.53,0-.79,0l-.77.08-.74.14,0-.32a1.16,1.16,0,0,0,.57-.35,1.42,1.42,0,0,0,.27-.7,6.45,6.45,0,0,0,0-1.22c0-.5-.06-1.13-.11-1.89l-.68-9.09c-.05-.76-.11-1.39-.16-1.89a6.74,6.74,0,0,0-.23-1.2,1.38,1.38,0,0,0-.37-.65,1.1,1.1,0,0,0-.61-.26l0-.33.68,0,.67,0a2.22,2.22,0,0,0,.36-.06l.46-.13.49-.14a2.65,2.65,0,0,1,.44-.07,1.68,1.68,0,0,1,.94.23,2.66,2.66,0,0,1,.92.89,6,6,0,0,1,.74,1.61,10.51,10.51,0,0,1,.42,2.38,9.62,9.62,0,0,1,0,1.7,7.1,7.1,0,0,1-.26,1.3,3.43,3.43,0,0,1-.45.94,2.06,2.06,0,0,1-.59.56c.13.43.29.91.46,1.44s.36,1.08.57,1.63.42,1.09.64,1.63a14.1,14.1,0,0,0,.7,1.45,7.34,7.34,0,0,0,.71,1.07,1.27,1.27,0,0,0,.7.49Zm-6-9.07a1.46,1.46,0,0,0,1,.39c.55,0,.94-.4,1.19-1.08a8.15,8.15,0,0,0,.22-3.21,9.92,9.92,0,0,0-.25-1.61,6.11,6.11,0,0,0-.46-1.22,2.28,2.28,0,0,0-.59-.78.85.85,0,0,0-.64-.24,2.28,2.28,0,0,0-.51.09,1.36,1.36,0,0,0-.47.28c.05.87.1,1.76.16,2.64s.13,1.85.21,2.89Z" transform="translate(0.66 -9.13)"/><path class="cls-13" d="M257.4,111.67a1.56,1.56,0,0,0,.72-.34,1.25,1.25,0,0,0,.35-.69,5,5,0,0,0,.09-1.18c0-.48-.05-1.09-.1-1.83l-.89-12.21a5.49,5.49,0,0,0-1.16.19,1.43,1.43,0,0,0-.77.6,4.08,4.08,0,0,0-.5,1.37,21.32,21.32,0,0,0-.33,2.48l-.18-.09-.19-5.17c.37,0,.74,0,1.1,0l1.1,0,3.09-.23,1-.1c.35,0,.69-.1,1-.16l.56,5.15-.16.12a21.68,21.68,0,0,0-.69-2.41,3.79,3.79,0,0,0-.7-1.29,1.44,1.44,0,0,0-.86-.48,5.8,5.8,0,0,0-1.2,0l.89,12.21c.05.74.11,1.35.16,1.83a5.17,5.17,0,0,0,.26,1.16,1.3,1.3,0,0,0,.46.63,1.85,1.85,0,0,0,.79.23l0,.32c-.34,0-.67,0-1,0s-.67,0-1,0-.65,0-1,.09-.63.09-.95.15Z" transform="translate(0.66 -9.13)"/><path class="cls-13" d="M268.21,93.46a16.4,16.4,0,0,0-.52-1.64A9.4,9.4,0,0,0,267,90.4a4.09,4.09,0,0,0-.8-1,1.18,1.18,0,0,0-.9-.33,1.38,1.38,0,0,0-1.09.63,3.3,3.3,0,0,0-.3,2,5.12,5.12,0,0,0,.31,1.44,4.14,4.14,0,0,0,.61,1,5.7,5.7,0,0,0,.82.81l.92.73c.31.25.62.52.93.82a5.53,5.53,0,0,1,.84,1.07,7.24,7.24,0,0,1,.64,1.48,9.87,9.87,0,0,1,.35,2.06,10.68,10.68,0,0,1,0,2.23,5.17,5.17,0,0,1-.48,1.58,2.52,2.52,0,0,1-.79,1,2,2,0,0,1-1,.37,2.08,2.08,0,0,1-.64-.08c-.22-.07-.44-.14-.65-.23l-.57-.23a1,1,0,0,0-.4-.09.38.38,0,0,0-.24.11l-.24.22c-.15-1-.3-2-.47-2.9s-.34-1.9-.51-2.88l.14-.2c.19.6.41,1.22.66,1.87a15.19,15.19,0,0,0,.83,1.76,6.43,6.43,0,0,0,.95,1.31,1.33,1.33,0,0,0,1.05.47,1.44,1.44,0,0,0,.66-.22,1.6,1.6,0,0,0,.54-.58,3.13,3.13,0,0,0,.32-1,6.18,6.18,0,0,0,0-1.46,5.35,5.35,0,0,0-.5-2,5.7,5.7,0,0,0-1-1.38,9.3,9.3,0,0,0-1.21-1.05,8.35,8.35,0,0,1-1.21-1.1,6,6,0,0,1-1-1.48,6.27,6.27,0,0,1-.51-2.23,8.82,8.82,0,0,1,0-1.87,5.52,5.52,0,0,1,.39-1.46,2.55,2.55,0,0,1,.64-.95,1.4,1.4,0,0,1,.84-.38,2.34,2.34,0,0,1,.81.07q.38.1.72.24l.71.25a1.82,1.82,0,0,0,.74.09c.05.79.11,1.55.18,2.29s.15,1.49.24,2.24Z" transform="translate(0.66 -9.13)"/><path class="cls-3" d="M82.37,12.05A48.1,48.1,0,0,0,70.9,16.37C60.17,22.22,60.9,28,52.15,34.16c-9,6.29-13,2.42-24.16,8.9C19.56,48,9.68,57.32,12.58,64.21c1.68,4,7.15,6,12.79,7.61,16.55,4.76,51.42,14.8,83.25.1C123.3,65.14,121.19,60.55,134,57.35c16.6-4.18,25.08,2.37,46.9-2,6.68-1.33,14.94-3.06,22.66-8.59,7.32-5.24,17.52-16.29,13.8-24S199.75,18.23,149,12.05C136.32,10.51,104.32,6.32,82.37,12.05Z" transform="translate(0.66 -9.13)"/><path class="cls-14" d="M436.55,21.56c-28.66,4-44,7.87-29.52,15.75s26.9,5.38,32.15,18.11,60.36,10.75,57.73-10.9-16.4-11.81-29.52-13.12S460.81,18.21,436.55,21.56Z" transform="translate(0.66 -9.13)"/><path class="cls-1" d="M255.1,12.52C235.49,14.31,196.52,9.71,213,20s43.4,13.09,29.74,19.82,8.91,12.21,27.92,5.91,31.27-8.29,48.69-4.72,55.83,1.58,43.95-7.53-41.57-2-36.82-11.87-5.22-8.16-17.46-6.26S281.11,10.14,255.1,12.52Z" transform="translate(0.66 -9.13)"/><path class="cls-2" d="M421.24,10.05c44.51,6.17,68.27,12.28,45.85,24.55S425.32,43,417.17,62.84s-93.74,16.78-89.67-17S353,27.44,373.35,25.39,383.57,4.83,421.24,10.05Z" transform="translate(0.66 -9.13)"/><path class="cls-15" d="M242.88,346.43a77.53,77.53,0,0,1,15.89-11.67A83.86,83.86,0,0,1,277,327.08a76.88,76.88,0,0,1,19.61-2.92,80.61,80.61,0,0,1,19.74,2.26q2.4.65,4.79,1.33l4.72,1.46,9.41,3c6.26,2,12.52,4,18.8,6a330.2,330.2,0,0,0,38.12,9.74,150.13,150.13,0,0,0,19.45,2.38,89.15,89.15,0,0,0,19.46-1.07,55.28,55.28,0,0,0,18.23-6.44c.35-.2.71-.38,1.05-.59l1-.67,2-1.34,1.91-1.49c.63-.5,1.29-1,1.87-1.54l1.79-1.64a22.87,22.87,0,0,0,1.67-1.74,37.44,37.44,0,0,0,3.05-3.74,29.24,29.24,0,0,0,4.1-8.65,22.62,22.62,0,0,0,.58-9.51,28.2,28.2,0,0,0-9.29-16.53,32.32,32.32,0,0,0-17.37-8.21A27.36,27.36,0,0,0,423,291.42a27.37,27.37,0,0,1,8.93-4.14,28.18,28.18,0,0,1,9.86-.66,33.05,33.05,0,0,1,18,8,29.2,29.2,0,0,1,9.89,17.07,24.05,24.05,0,0,1-.47,10.06,30.82,30.82,0,0,1-4.19,9.16,44,44,0,0,1-6.67,7.5A22.83,22.83,0,0,1,456.4,340l-2,1.55L452.34,343l-1,.7c-.35.22-.72.41-1.08.62A57.13,57.13,0,0,1,431.43,351a90.64,90.64,0,0,1-19.87,1.19,151.56,151.56,0,0,1-19.72-2.33c-26-4.85-50.8-14.4-75.86-22a78.39,78.39,0,0,0-19.35-2.49,76.47,76.47,0,0,0-19.37,2.6,82.87,82.87,0,0,0-18.23,7.2,86.9,86.9,0,0,0-8.41,5.12A66.87,66.87,0,0,0,242.88,346.43Z" transform="translate(0.66 -9.13)"/><path class="cls-15" d="M254,295.13a49.82,49.82,0,0,1,10.25-7.64,54.9,54.9,0,0,1,11.81-5.06,50.32,50.32,0,0,1,12.74-1.94,52,52,0,0,1,12.85,1.43c4.21,1.07,8.21,2.43,12.28,3.72s8.12,2.61,12.18,3.85a212.44,212.44,0,0,0,24.65,6.27c8.3,1.52,16.83,2.31,25.08.88a35.56,35.56,0,0,0,11.71-4.12c.93-.48,1.75-1.12,2.63-1.66s1.66-1.25,2.43-1.95a26.88,26.88,0,0,0,4.19-4.54,18.67,18.67,0,0,0,2.64-5.51,14.42,14.42,0,0,0,.39-6.06A18.1,18.1,0,0,0,394,262.19a20.76,20.76,0,0,0-11.15-5.35,17.7,17.7,0,0,0-12.12,2.67,17.9,17.9,0,0,1,5.77-2.73,18.24,18.24,0,0,1,6.42-.47,21.5,21.5,0,0,1,11.73,5.15,19.12,19.12,0,0,1,6.51,11.15,15.69,15.69,0,0,1-.29,6.61,20.45,20.45,0,0,1-2.72,6c-5.05,7.3-13.38,11.7-21.9,13.19s-17.33.79-25.76-.71c-16.9-3.17-33-9.36-49.13-14.32a50.93,50.93,0,0,0-12.47-1.65,49.45,49.45,0,0,0-12.5,1.62A54.41,54.41,0,0,0,264.54,288a59.17,59.17,0,0,0-5.45,3.28A44.39,44.39,0,0,0,254,295.13Z" transform="translate(0.66 -9.13)"/><path class="cls-16" d="M230.1,232.05a9.35,9.35,0,0,1,.5,2.22,9.6,9.6,0,0,1,.05,2.21c-.1.74-.34,1.48-.39,2.22a8.76,8.76,0,0,0,.17,2.22,15.37,15.37,0,0,1,.3,2.22c.06.74.1,1.48.09,2.22a16.73,16.73,0,0,1-.72,4.43s-.06.07-.1.05-.05,0-.05-.05a16.35,16.35,0,0,1-.73-4.43c0-.74,0-1.48.09-2.22a15.37,15.37,0,0,1,.3-2.22,8.76,8.76,0,0,0,.17-2.22c-.05-.74-.29-1.48-.38-2.22a9.07,9.07,0,0,1,0-2.21,8.91,8.91,0,0,1,.51-2.22.08.08,0,0,1,.1-.05A.12.12,0,0,1,230.1,232.05Z" transform="translate(0.66 -9.13)"/><path class="cls-16" d="M238.89,241a8.93,8.93,0,0,1-2.21.51,9.16,9.16,0,0,1-2.22,0c-.74-.09-1.48-.33-2.22-.38a8.76,8.76,0,0,0-2.22.17,15.37,15.37,0,0,1-2.22.3c-.74.06-1.48.1-2.21.09a16.36,16.36,0,0,1-4.44-.73.07.07,0,0,1-.05-.09.1.1,0,0,1,.05-.06,16.74,16.74,0,0,1,4.44-.72c.73,0,1.47,0,2.21.09a15.37,15.37,0,0,1,2.22.3,8.76,8.76,0,0,0,2.22.17c.74-.05,1.48-.29,2.22-.38a9.16,9.16,0,0,1,2.22,0,9.38,9.38,0,0,1,2.21.5.09.09,0,0,1,.05.11A.07.07,0,0,1,238.89,241Z" transform="translate(0.66 -9.13)"/><path class="cls-16" d="M233.55,232.78a10.92,10.92,0,0,1-1.23,4.3c-.37.64-.88,1.23-1.21,1.89a8.89,8.89,0,0,0-.71,2.11,15.64,15.64,0,0,1-.59,2.16c-.23.7-.48,1.4-.78,2.08a16.63,16.63,0,0,1-2.4,3.8.08.08,0,0,1-.11,0,.09.09,0,0,1,0-.07,17,17,0,0,1,1.06-4.37c.28-.68.61-1.35.95-2a16.29,16.29,0,0,1,1.14-1.93,8.64,8.64,0,0,0,1-2c.25-.7.31-1.47.52-2.19a9.37,9.37,0,0,1,.9-2,9,9,0,0,1,1.33-1.85.08.08,0,0,1,.11,0A.07.07,0,0,1,233.55,232.78Z" transform="translate(0.66 -9.13)"/><path class="cls-16" d="M226.63,232.72a9,9,0,0,1,1.33,1.85,9.4,9.4,0,0,1,.91,2c.2.72.26,1.49.51,2.19a8.64,8.64,0,0,0,1,2,16.29,16.29,0,0,1,1.14,1.93c.34.65.67,1.32,1,2a16.63,16.63,0,0,1,1.06,4.37.1.1,0,0,1-.07.09.09.09,0,0,1-.07,0,16.63,16.63,0,0,1-2.4-3.8c-.3-.68-.55-1.38-.78-2.08a17.18,17.18,0,0,1-.59-2.16,8.07,8.07,0,0,0-.71-2.11c-.33-.66-.84-1.25-1.21-1.89a10.92,10.92,0,0,1-1.23-4.3.08.08,0,0,1,.08-.08A0,0,0,0,1,226.63,232.72Z" transform="translate(0.66 -9.13)"/><path class="cls-16" d="M222,234.89a11.27,11.27,0,0,1,2.33,1.08,13,13,0,0,1,2.06,1.46c.62.57,1.15,1.27,1.8,1.8a10.64,10.64,0,0,0,2.12,1.36,20.66,20.66,0,0,1,2.21,1.25c.71.45,1.41.91,2.08,1.42a21.48,21.48,0,0,1,3.63,3.57.08.08,0,0,1,0,.11.06.06,0,0,1-.07,0,21,21,0,0,1-4.49-2.4c-.68-.49-1.33-1-2-1.57a20.06,20.06,0,0,1-1.85-1.73,11.5,11.5,0,0,0-1.93-1.63c-.7-.46-1.52-.76-2.25-1.18a12,12,0,0,1-2-1.53,11.19,11.19,0,0,1-1.72-1.9.07.07,0,0,1,0-.11A0,0,0,0,1,222,234.89Z" transform="translate(0.66 -9.13)"/><path class="cls-16" d="M238.18,235a11.68,11.68,0,0,1-1.73,1.9,12.32,12.32,0,0,1-2,1.53c-.74.42-1.56.72-2.26,1.18a11.91,11.91,0,0,0-1.93,1.63,17.79,17.79,0,0,1-1.85,1.73c-.64.55-1.29,1.08-2,1.57A20.76,20.76,0,0,1,222,247a.07.07,0,0,1-.1,0,.11.11,0,0,1,0-.08,21.07,21.07,0,0,1,3.62-3.57c.67-.51,1.37-1,2.08-1.42a20.66,20.66,0,0,1,2.21-1.25,11,11,0,0,0,2.13-1.36c.64-.53,1.18-1.23,1.8-1.8a12.91,12.91,0,0,1,2-1.46,11.27,11.27,0,0,1,2.33-1.08s.08,0,.1.05A.17.17,0,0,1,238.18,235Z" transform="translate(0.66 -9.13)"/><path class="cls-16" d="M461.69,163.88a18.2,18.2,0,0,1,.51,3.17,19.73,19.73,0,0,1,0,3.17c-.09,1.05-.33,2.11-.38,3.16a17.69,17.69,0,0,0,.17,3.17,31.11,31.11,0,0,1,.29,3.17c.05,1.06.12,2.12.1,3.17a33.31,33.31,0,0,1-.73,6.34.08.08,0,0,1-.09.06.09.09,0,0,1-.06-.06,33.3,33.3,0,0,1-.72-6.34c0-1,0-2.11.09-3.17a28.54,28.54,0,0,1,.3-3.17,17.69,17.69,0,0,0,.16-3.17c0-1-.29-2.11-.38-3.16a19.73,19.73,0,0,1,0-3.17,18.2,18.2,0,0,1,.51-3.17.08.08,0,0,1,.1-.06A.1.1,0,0,1,461.69,163.88Z" transform="translate(0.66 -9.13)"/><path class="cls-16" d="M474.29,176.63a18.2,18.2,0,0,1-3.17.51,19.73,19.73,0,0,1-3.17,0c-1.05-.09-2.11-.34-3.16-.38a17.69,17.69,0,0,0-3.17.16,28.54,28.54,0,0,1-3.17.3c-1.06.05-2.12.11-3.17.09a33.3,33.3,0,0,1-6.34-.72.08.08,0,0,1-.06-.09.09.09,0,0,1,.06-.06,33.31,33.31,0,0,1,6.34-.73c1.05,0,2.11.05,3.17.1a31.11,31.11,0,0,1,3.17.29,17.69,17.69,0,0,0,3.17.17c1-.05,2.11-.29,3.16-.38a19.73,19.73,0,0,1,3.17,0,18.2,18.2,0,0,1,3.17.51.07.07,0,0,1,.06.09A.09.09,0,0,1,474.29,176.63Z" transform="translate(0.66 -9.13)"/><path class="cls-16" d="M466.63,164.91a18.85,18.85,0,0,1-.77,3.11,20.36,20.36,0,0,1-1.2,2.94c-.5.94-1.13,1.82-1.58,2.77a18.3,18.3,0,0,0-1.09,3,29,29,0,0,1-1,3c-.36,1-.72,2-1.15,2.95a32.57,32.57,0,0,1-3.14,5.56.08.08,0,0,1-.1,0,.07.07,0,0,1,0-.08,33.18,33.18,0,0,1,1.8-6.12c.39-1,.86-1.93,1.32-2.88a29.31,29.31,0,0,1,1.51-2.81,17.88,17.88,0,0,0,1.39-2.85c.37-1,.56-2.06.88-3.07a19.66,19.66,0,0,1,1.28-2.9,16.89,16.89,0,0,1,1.7-2.72.08.08,0,0,1,.14.06Z" transform="translate(0.66 -9.13)"/><path class="cls-16" d="M456.74,164.85a17.68,17.68,0,0,1,1.71,2.72,20.72,20.72,0,0,1,1.27,2.9c.33,1,.52,2.08.88,3.07a17.88,17.88,0,0,0,1.39,2.85,29.31,29.31,0,0,1,1.51,2.81c.46,1,.93,1.9,1.32,2.88a33.21,33.21,0,0,1,1.81,6.12.09.09,0,0,1-.07.09.08.08,0,0,1-.07,0,33.26,33.26,0,0,1-3.14-5.56c-.43-1-.78-2-1.15-2.95a31.56,31.56,0,0,1-1-3,18.27,18.27,0,0,0-1.08-3c-.46-.95-1.09-1.83-1.59-2.77a19.24,19.24,0,0,1-1.19-2.94,17,17,0,0,1-.77-3.11.07.07,0,0,1,.13-.06Z" transform="translate(0.66 -9.13)"/><path class="cls-16" d="M450.07,168a22.33,22.33,0,0,1,3.2,1.73,25,25,0,0,1,2.92,2.09c.91.79,1.73,1.7,2.67,2.44a22.36,22.36,0,0,0,3,2c1.05.6,2.09,1.22,3.07,1.9s2,1.33,3,2.06a42.23,42.23,0,0,1,5.36,4.85.08.08,0,0,1,0,.11.1.1,0,0,1-.09,0,42.46,42.46,0,0,1-6.22-3.69c-1-.69-1.91-1.45-2.84-2.2s-1.85-1.55-2.73-2.38a23.26,23.26,0,0,0-2.8-2.26c-1-.68-2.1-1.19-3.12-1.83a25.12,25.12,0,0,1-2.87-2.17,23.05,23.05,0,0,1-2.6-2.54.08.08,0,0,1,0-.11A.08.08,0,0,1,450.07,168Z" transform="translate(0.66 -9.13)"/><path class="cls-16" d="M473.25,168.08a23.05,23.05,0,0,1-2.6,2.54,24.27,24.27,0,0,1-2.87,2.17c-1,.64-2.13,1.15-3.12,1.83a23.26,23.26,0,0,0-2.8,2.26c-.88.83-1.78,1.64-2.72,2.38s-1.87,1.51-2.84,2.2a43.1,43.1,0,0,1-6.23,3.69.07.07,0,0,1-.1,0,.08.08,0,0,1,0-.08,42.32,42.32,0,0,1,5.37-4.85c.95-.73,1.95-1.39,2.95-2.06s2-1.3,3.07-1.9a21.74,21.74,0,0,0,3-2c.94-.74,1.76-1.65,2.67-2.44a25,25,0,0,1,2.92-2.09,23.46,23.46,0,0,1,3.2-1.73.07.07,0,0,1,.1,0A.08.08,0,0,1,473.25,168.08Z" transform="translate(0.66 -9.13)"/><path class="cls-16" d="M48.8,237.8a9.27,9.27,0,0,1,.5,2.21,9,9,0,0,1,0,2.2c-.09.73-.33,1.47-.38,2.2a8.57,8.57,0,0,0,.17,2.2,15.23,15.23,0,0,1,.3,2.21c.06.73.1,1.46.09,2.2a16.45,16.45,0,0,1-.72,4.4s-.06.07-.1.05-.05,0-.05-.05a16.08,16.08,0,0,1-.73-4.4c0-.74,0-1.47.09-2.2a15.23,15.23,0,0,1,.3-2.21,8.57,8.57,0,0,0,.17-2.2c0-.73-.29-1.47-.38-2.2a9,9,0,0,1,0-2.2,8.83,8.83,0,0,1,.51-2.21.07.07,0,0,1,.1,0A.1.1,0,0,1,48.8,237.8Z" transform="translate(0.66 -9.13)"/><path class="cls-16" d="M57.53,246.69a9.19,9.19,0,0,1-2.2.5,9.54,9.54,0,0,1-2.2.05c-.74-.1-1.47-.34-2.21-.38a8.59,8.59,0,0,0-2.2.16,15.1,15.1,0,0,1-2.2.3,20.34,20.34,0,0,1-2.2.09,16.52,16.52,0,0,1-4.41-.72.09.09,0,0,1,0-.1.08.08,0,0,1,0-.05,16.54,16.54,0,0,1,4.41-.73c.73,0,1.46,0,2.2.09a18.44,18.44,0,0,1,2.2.3,8.6,8.6,0,0,0,2.2.17c.74,0,1.47-.29,2.21-.38a9,9,0,0,1,2.2,0,9.22,9.22,0,0,1,2.2.51.08.08,0,0,1,0,.1A.12.12,0,0,1,57.53,246.69Z" transform="translate(0.66 -9.13)"/><path class="cls-16" d="M52.22,238.53A10.69,10.69,0,0,1,51,242.8c-.37.64-.88,1.22-1.21,1.88a8.43,8.43,0,0,0-.7,2.09,16.56,16.56,0,0,1-.58,2.15,21.27,21.27,0,0,1-.78,2.06,16.77,16.77,0,0,1-2.38,3.78.09.09,0,0,1-.12,0,.11.11,0,0,1,0-.06,16.4,16.4,0,0,1,1.05-4.34,21.23,21.23,0,0,1,.94-2,15.56,15.56,0,0,1,1.13-1.92,8.7,8.7,0,0,0,1-2c.24-.69.3-1.46.5-2.18a9.51,9.51,0,0,1,.9-2,9.11,9.11,0,0,1,1.32-1.83.09.09,0,0,1,.12,0A.07.07,0,0,1,52.22,238.53Z" transform="translate(0.66 -9.13)"/><path class="cls-16" d="M45.36,238.47a9.11,9.11,0,0,1,1.32,1.83,9.51,9.51,0,0,1,.9,2c.2.72.26,1.49.5,2.18a8.7,8.7,0,0,0,1,2,15.56,15.56,0,0,1,1.13,1.92,19,19,0,0,1,.94,2,16,16,0,0,1,1,4.34.07.07,0,0,1-.07.08l-.07,0A16.77,16.77,0,0,1,49.7,251a18.89,18.89,0,0,1-.77-2.06,15.13,15.13,0,0,1-.59-2.15,8.43,8.43,0,0,0-.7-2.09c-.33-.66-.84-1.24-1.21-1.88a10.69,10.69,0,0,1-1.21-4.27.08.08,0,0,1,.08-.08Z" transform="translate(0.66 -9.13)"/><path class="cls-16" d="M40.71,240.62A12,12,0,0,1,43,241.7a11.55,11.55,0,0,1,2,1.45c.62.57,1.15,1.26,1.79,1.79A11.26,11.26,0,0,0,49,246.28a20.3,20.3,0,0,1,2.19,1.24c.71.45,1.41.91,2.07,1.41a21.57,21.57,0,0,1,3.6,3.55s0,.09,0,.11a.06.06,0,0,1-.07,0,21.15,21.15,0,0,1-4.46-2.38c-.68-.48-1.32-1-2-1.55a19.85,19.85,0,0,1-1.83-1.73,11.31,11.31,0,0,0-1.92-1.61c-.69-.46-1.51-.76-2.24-1.18a12.11,12.11,0,0,1-2-1.52,11.12,11.12,0,0,1-1.72-1.89.09.09,0,0,1,0-.11Z" transform="translate(0.66 -9.13)"/><path class="cls-16" d="M56.82,240.74a11.12,11.12,0,0,1-1.72,1.89,12.11,12.11,0,0,1-2,1.52c-.73.42-1.55.72-2.24,1.18A11.31,11.31,0,0,0,49,246.94a19.85,19.85,0,0,1-1.83,1.73c-.64.54-1.28,1.07-2,1.55a21.15,21.15,0,0,1-4.46,2.38.07.07,0,0,1-.1,0,.11.11,0,0,1,0-.08,21.57,21.57,0,0,1,3.6-3.55c.66-.5,1.36-1,2.07-1.41a20.3,20.3,0,0,1,2.19-1.24,11.26,11.26,0,0,0,2.11-1.34c.64-.53,1.17-1.22,1.79-1.79a11.26,11.26,0,0,1,2-1.45,11.64,11.64,0,0,1,2.31-1.08.08.08,0,0,1,.1.06A.07.07,0,0,1,56.82,240.74Z" transform="translate(0.66 -9.13)"/><path class="cls-16" d="M36.12,141.69a18.48,18.48,0,0,1,.5,3.17,19.74,19.74,0,0,1,.05,3.17c-.1,1.06-.34,2.11-.38,3.17a17.73,17.73,0,0,0,.16,3.17,30.88,30.88,0,0,1,.3,3.17c0,1.06.11,2.11.09,3.17a33.48,33.48,0,0,1-.72,6.34.08.08,0,0,1-.09.06s-.06,0-.06-.06a33.5,33.5,0,0,1-.73-6.34c0-1.06,0-2.11.1-3.17a30.85,30.85,0,0,1,.29-3.17,17.74,17.74,0,0,0,.17-3.17c0-1.06-.29-2.11-.38-3.17a19.74,19.74,0,0,1,0-3.17,18.51,18.51,0,0,1,.51-3.17.07.07,0,0,1,.09-.05A.1.1,0,0,1,36.12,141.69Z" transform="translate(0.66 -9.13)"/><path class="cls-16" d="M48.72,154.45a18.33,18.33,0,0,1-3.17.5,19.74,19.74,0,0,1-3.17,0c-1.05-.09-2.11-.33-3.17-.38a18.78,18.78,0,0,0-3.17.17,30.62,30.62,0,0,1-3.17.3c-1,0-2.11.11-3.17.09a33.29,33.29,0,0,1-6.33-.72.08.08,0,0,1-.06-.1.06.06,0,0,1,.06,0,32.51,32.51,0,0,1,6.33-.73c1.06,0,2.12,0,3.17.09A30.62,30.62,0,0,1,36,154a18.78,18.78,0,0,0,3.17.17c1.06,0,2.12-.29,3.17-.38a19.74,19.74,0,0,1,3.17,0,17.44,17.44,0,0,1,3.17.51.08.08,0,0,1,.06.09A.09.09,0,0,1,48.72,154.45Z" transform="translate(0.66 -9.13)"/><path class="cls-16" d="M41.05,142.72a17.79,17.79,0,0,1-.77,3.12,19.24,19.24,0,0,1-1.19,2.94c-.5.93-1.13,1.81-1.59,2.77a18.27,18.27,0,0,0-1.08,3,30.51,30.51,0,0,1-1,3c-.37,1-.72,2-1.15,3a32.78,32.78,0,0,1-3.14,5.55.07.07,0,0,1-.11,0,.11.11,0,0,1,0-.07,33,33,0,0,1,1.81-6.12c.39-1,.86-1.93,1.32-2.89a31.44,31.44,0,0,1,1.5-2.8,17.45,17.45,0,0,0,1.39-2.85c.37-1,.56-2.06.89-3.07a20.22,20.22,0,0,1,1.27-2.9,18.42,18.42,0,0,1,1.7-2.72.08.08,0,0,1,.11,0A.06.06,0,0,1,41.05,142.72Z" transform="translate(0.66 -9.13)"/><path class="cls-16" d="M31.17,142.67a17.62,17.62,0,0,1,1.7,2.72,19.21,19.21,0,0,1,1.28,2.9c.32,1,.51,2.08.88,3.07a18.3,18.3,0,0,0,1.39,2.85,31.55,31.55,0,0,1,1.51,2.8c.46,1,.93,1.91,1.32,2.89a33,33,0,0,1,1.8,6.12.08.08,0,0,1-.06.09.09.09,0,0,1-.08,0,32.73,32.73,0,0,1-3.13-5.55c-.43-1-.79-2-1.15-3a30.56,30.56,0,0,1-1-3,17.38,17.38,0,0,0-1.08-3c-.45-1-1.09-1.84-1.58-2.77a20.36,20.36,0,0,1-1.2-2.94,18.72,18.72,0,0,1-.77-3.12.08.08,0,0,1,.07-.08S31.15,142.64,31.17,142.67Z" transform="translate(0.66 -9.13)"/><path class="cls-16" d="M24.5,145.78a24.55,24.55,0,0,1,3.2,1.72,27.31,27.31,0,0,1,2.92,2.1c.91.79,1.73,1.69,2.67,2.44a22.68,22.68,0,0,0,3,2c1.05.59,2.08,1.21,3.07,1.9s2,1.33,3,2.05a43.09,43.09,0,0,1,5.37,4.85.08.08,0,0,1,0,.11.06.06,0,0,1-.08,0,42.15,42.15,0,0,1-6.23-3.68c-1-.69-1.9-1.46-2.84-2.21s-1.84-1.54-2.72-2.37a23.35,23.35,0,0,0-2.8-2.27c-1-.67-2.1-1.19-3.12-1.82A24.27,24.27,0,0,1,27,148.44a23.07,23.07,0,0,1-2.6-2.54.08.08,0,0,1,0-.11A.08.08,0,0,1,24.5,145.78Z" transform="translate(0.66 -9.13)"/><path class="cls-16" d="M47.68,145.9a24,24,0,0,1-2.6,2.54,25.12,25.12,0,0,1-2.87,2.17c-1,.63-2.13,1.15-3.13,1.82a22.49,22.49,0,0,0-2.79,2.27c-.88.83-1.78,1.63-2.73,2.37s-1.86,1.52-2.84,2.21A41.54,41.54,0,0,1,24.5,163a.07.07,0,0,1-.1,0,.08.08,0,0,1,0-.09A42.31,42.31,0,0,1,29.77,158c1-.72,2-1.39,3-2.05A35.68,35.68,0,0,1,35.8,154a24.07,24.07,0,0,0,3-2c.93-.75,1.76-1.65,2.67-2.44a26.34,26.34,0,0,1,2.92-2.1,23.32,23.32,0,0,1,3.2-1.72.07.07,0,0,1,.1,0A.08.08,0,0,1,47.68,145.9Z" transform="translate(0.66 -9.13)"/><path class="cls-16" d="M372.83,182.8a18.48,18.48,0,0,1,.5,3.17,19.76,19.76,0,0,1,.05,3.17c-.1,1.06-.34,2.12-.38,3.17a17.69,17.69,0,0,0,.16,3.17,31.15,31.15,0,0,1,.3,3.17c.05,1.06.11,2.11.09,3.17a33.39,33.39,0,0,1-.72,6.34.08.08,0,0,1-.09.06s-.06,0-.06-.06a33.41,33.41,0,0,1-.73-6.34c0-1.06.05-2.11.1-3.17a31.11,31.11,0,0,1,.29-3.17,17.69,17.69,0,0,0,.17-3.17c-.05-1.05-.29-2.11-.38-3.17a19.75,19.75,0,0,1,0-3.17,18.51,18.51,0,0,1,.51-3.17.07.07,0,0,1,.09-.05A.1.1,0,0,1,372.83,182.8Z" transform="translate(0.66 -9.13)"/><path class="cls-16" d="M385.43,195.56a18.33,18.33,0,0,1-3.17.5,19.74,19.74,0,0,1-3.17.05c-1-.1-2.11-.34-3.17-.38a17.78,17.78,0,0,0-3.17.16,30.62,30.62,0,0,1-3.17.3c-1.05.05-2.11.11-3.17.09a33.29,33.29,0,0,1-6.33-.72.07.07,0,0,1-.06-.09.06.06,0,0,1,.06-.06,32.51,32.51,0,0,1,6.33-.73c1.06,0,2.12,0,3.17.1a30.6,30.6,0,0,1,3.17.29,17.79,17.79,0,0,0,3.17.17c1.06-.05,2.12-.29,3.17-.38a19.74,19.74,0,0,1,3.17,0,17.44,17.44,0,0,1,3.17.51.08.08,0,0,1,.06.09A.09.09,0,0,1,385.43,195.56Z" transform="translate(0.66 -9.13)"/><path class="cls-16" d="M377.76,183.84A17.9,17.9,0,0,1,377,187a19.24,19.24,0,0,1-1.19,2.94c-.5.93-1.13,1.81-1.59,2.77a18.27,18.27,0,0,0-1.08,3,31.56,31.56,0,0,1-1,3c-.37,1-.72,2-1.15,2.95a33.26,33.26,0,0,1-3.14,5.56.08.08,0,0,1-.14-.06,33,33,0,0,1,1.81-6.12c.39-1,.86-1.93,1.32-2.88a31.61,31.61,0,0,1,1.5-2.81,16.67,16.67,0,0,0,1.39-2.85c.37-1,.56-2.06.89-3.07a20.22,20.22,0,0,1,1.27-2.9,18.42,18.42,0,0,1,1.7-2.72.08.08,0,0,1,.11,0A.07.07,0,0,1,377.76,183.84Z" transform="translate(0.66 -9.13)"/><path class="cls-16" d="M367.88,183.78a17.62,17.62,0,0,1,1.7,2.72,19.21,19.21,0,0,1,1.28,2.9c.32,1,.51,2.08.88,3.07a18.3,18.3,0,0,0,1.39,2.85,29.31,29.31,0,0,1,1.51,2.81c.46,1,.93,1.9,1.32,2.88a33,33,0,0,1,1.8,6.12.08.08,0,0,1-.06.09.11.11,0,0,1-.08,0,33.2,33.2,0,0,1-3.13-5.56c-.43-1-.79-2-1.15-2.95a31.62,31.62,0,0,1-1-3,17.38,17.38,0,0,0-1.08-3c-.45-1-1.09-1.84-1.58-2.77a20.36,20.36,0,0,1-1.2-2.94,18.85,18.85,0,0,1-.77-3.11.08.08,0,0,1,.07-.09S367.86,183.76,367.88,183.78Z" transform="translate(0.66 -9.13)"/><path class="cls-16" d="M361.21,186.89a24.55,24.55,0,0,1,3.2,1.72,27.31,27.31,0,0,1,2.92,2.1c.91.79,1.73,1.69,2.67,2.44a21.74,21.74,0,0,0,3,2c1.05.6,2.08,1.21,3.07,1.9s2,1.33,2.95,2a42.4,42.4,0,0,1,5.37,4.86.07.07,0,0,1,0,.1.08.08,0,0,1-.08,0,43.1,43.1,0,0,1-6.23-3.69c-1-.69-1.9-1.45-2.84-2.21s-1.84-1.54-2.72-2.37a24.36,24.36,0,0,0-2.8-2.27c-1-.67-2.1-1.19-3.12-1.82a24.27,24.27,0,0,1-2.87-2.17,23.07,23.07,0,0,1-2.6-2.54.08.08,0,0,1,0-.11A.08.08,0,0,1,361.21,186.89Z" transform="translate(0.66 -9.13)"/><path class="cls-16" d="M384.39,187a24,24,0,0,1-2.6,2.54,25.12,25.12,0,0,1-2.87,2.17c-1,.63-2.13,1.15-3.13,1.82a24.26,24.26,0,0,0-2.79,2.27,35.91,35.91,0,0,1-2.73,2.37c-.93.76-1.86,1.52-2.84,2.21a42.46,42.46,0,0,1-6.22,3.69s-.09,0-.1,0a.06.06,0,0,1,0-.08,41.64,41.64,0,0,1,5.36-4.86c1-.72,2-1.38,3-2s2-1.3,3.07-1.9a23,23,0,0,0,3-2c.93-.75,1.76-1.65,2.67-2.44a26.34,26.34,0,0,1,2.92-2.1,23.32,23.32,0,0,1,3.2-1.72.07.07,0,0,1,.1,0A.08.08,0,0,1,384.39,187Z" transform="translate(0.66 -9.13)"/><path class="cls-16" d="M47,307.09a18.48,18.48,0,0,1,.5,3.17,19.74,19.74,0,0,1,0,3.17c-.09,1.06-.33,2.11-.38,3.17a18.72,18.72,0,0,0,.17,3.17,30.88,30.88,0,0,1,.3,3.17c0,1.06.11,2.11.09,3.17a33.48,33.48,0,0,1-.72,6.34.1.1,0,0,1-.1.06.06.06,0,0,1,0-.06,32.7,32.7,0,0,1-.73-6.34c0-1.06,0-2.11.09-3.17a30.88,30.88,0,0,1,.3-3.17,18.72,18.72,0,0,0,.17-3.17c0-1.06-.29-2.11-.38-3.17a19.74,19.74,0,0,1,0-3.17,17.58,17.58,0,0,1,.51-3.17.07.07,0,0,1,.09,0S47,307.07,47,307.09Z" transform="translate(0.66 -9.13)"/><path class="cls-16" d="M59.61,319.84a17.44,17.44,0,0,1-3.17.51,19.74,19.74,0,0,1-3.17,0c-1.06-.09-2.11-.33-3.17-.38a18.72,18.72,0,0,0-3.17.17,30.88,30.88,0,0,1-3.17.3c-1.06,0-2.11.11-3.17.09a32.7,32.7,0,0,1-6.34-.73s-.06,0-.06-.09a.09.09,0,0,1,.06-.06,33.48,33.48,0,0,1,6.34-.72c1.06,0,2.11,0,3.17.09a30.88,30.88,0,0,1,3.17.3,18.72,18.72,0,0,0,3.17.17c1.06,0,2.11-.29,3.17-.38a19.74,19.74,0,0,1,3.17,0,18.33,18.33,0,0,1,3.17.5.09.09,0,0,1,0,.1A.05.05,0,0,1,59.61,319.84Z" transform="translate(0.66 -9.13)"/><path class="cls-16" d="M51.94,308.12a17.79,17.79,0,0,1-.77,3.12A19.24,19.24,0,0,1,50,314.18c-.5.93-1.14,1.81-1.59,2.77a18.27,18.27,0,0,0-1.08,3,28.14,28.14,0,0,1-1,3c-.36,1-.71,2-1.14,3a32.78,32.78,0,0,1-3.14,5.55.07.07,0,0,1-.11,0,.11.11,0,0,1,0-.07,33,33,0,0,1,1.8-6.12c.4-1,.87-1.93,1.33-2.89a31.44,31.44,0,0,1,1.5-2.8,18.3,18.3,0,0,0,1.39-2.85c.37-1,.56-2.06.89-3.07a19.16,19.16,0,0,1,1.27-2.9,18.42,18.42,0,0,1,1.7-2.72.08.08,0,0,1,.11,0A.11.11,0,0,1,51.94,308.12Z" transform="translate(0.66 -9.13)"/><path class="cls-16" d="M42.06,308.07a18.42,18.42,0,0,1,1.7,2.72,19.16,19.16,0,0,1,1.27,2.9c.33,1,.52,2.08.89,3.07a18.3,18.3,0,0,0,1.39,2.85c.54.92,1.06,1.84,1.51,2.8s.92,1.9,1.32,2.89a33,33,0,0,1,1.8,6.12.06.06,0,0,1-.06.08.07.07,0,0,1-.08,0,32.78,32.78,0,0,1-3.14-5.55c-.43-1-.78-2-1.14-3a30.56,30.56,0,0,1-1-3,17.38,17.38,0,0,0-1.08-3c-.45-1-1.09-1.84-1.58-2.77a18.32,18.32,0,0,1-1.2-2.94,17.79,17.79,0,0,1-.77-3.12A.07.07,0,0,1,42,308S42,308,42.06,308.07Z" transform="translate(0.66 -9.13)"/><path class="cls-16" d="M35.39,311.18a23.8,23.8,0,0,1,3.19,1.72,26.46,26.46,0,0,1,2.93,2.1c.91.79,1.73,1.69,2.67,2.44a23.25,23.25,0,0,0,3,2,35.85,35.85,0,0,1,3.08,1.9c1,.66,2,1.32,3,2.05a42.31,42.31,0,0,1,5.36,4.85.08.08,0,0,1,0,.11.06.06,0,0,1-.08,0,41.64,41.64,0,0,1-6.23-3.68c-1-.69-1.91-1.46-2.84-2.21s-1.84-1.54-2.72-2.37a23.35,23.35,0,0,0-2.8-2.27c-1-.67-2.1-1.19-3.12-1.82a26.46,26.46,0,0,1-2.88-2.17,23,23,0,0,1-2.59-2.54.07.07,0,0,1,0-.11A.08.08,0,0,1,35.39,311.18Z" transform="translate(0.66 -9.13)"/><path class="cls-16" d="M58.56,311.3A23,23,0,0,1,56,313.84,27.35,27.35,0,0,1,53.1,316c-1,.63-2.13,1.15-3.13,1.82a23.35,23.35,0,0,0-2.8,2.27c-.88.83-1.77,1.63-2.72,2.37s-1.86,1.52-2.84,2.21a42,42,0,0,1-6.22,3.68.09.09,0,0,1-.11,0,.1.1,0,0,1,0-.09,42.31,42.31,0,0,1,5.36-4.85c1-.73,2-1.39,3-2.05a35.85,35.85,0,0,1,3.08-1.9,23.25,23.25,0,0,0,3-2c.94-.75,1.76-1.65,2.68-2.44a25.43,25.43,0,0,1,2.92-2.1,23.32,23.32,0,0,1,3.2-1.72.08.08,0,0,1,.1,0A.08.08,0,0,1,58.56,311.3Z" transform="translate(0.66 -9.13)"/><path class="cls-16" d="M420.71,300.42a17.58,17.58,0,0,1,.51,3.17,19.74,19.74,0,0,1,0,3.17c-.09,1.06-.33,2.11-.38,3.17a18.72,18.72,0,0,0,.17,3.17,30.88,30.88,0,0,1,.3,3.17c0,1.06.11,2.11.09,3.17a32.7,32.7,0,0,1-.73,6.34.07.07,0,0,1-.09.06.09.09,0,0,1-.06-.06,33.48,33.48,0,0,1-.72-6.34c0-1.06,0-2.11.09-3.17a30.88,30.88,0,0,1,.3-3.17,18.72,18.72,0,0,0,.17-3.17c0-1.06-.29-2.11-.38-3.17a19.74,19.74,0,0,1,0-3.17,18.48,18.48,0,0,1,.5-3.17.09.09,0,0,1,.1-.05S420.71,300.4,420.71,300.42Z" transform="translate(0.66 -9.13)"/><path class="cls-16" d="M433.32,313.18a18.48,18.48,0,0,1-3.17.5,19.75,19.75,0,0,1-3.17,0c-1.06-.09-2.11-.33-3.17-.38a18.72,18.72,0,0,0-3.17.17,30.88,30.88,0,0,1-3.17.3c-1.06.05-2.11.11-3.17.09a33.39,33.39,0,0,1-6.34-.72.09.09,0,0,1-.06-.1A.06.06,0,0,1,408,313a32.61,32.61,0,0,1,6.34-.73c1.06,0,2.11,0,3.17.09a30.88,30.88,0,0,1,3.17.3,18.72,18.72,0,0,0,3.17.17c1.06-.05,2.11-.29,3.17-.38a19.75,19.75,0,0,1,3.17,0,17.58,17.58,0,0,1,3.17.51.07.07,0,0,1,.05.09A.1.1,0,0,1,433.32,313.18Z" transform="translate(0.66 -9.13)"/><path class="cls-16" d="M425.65,301.45a17.79,17.79,0,0,1-.77,3.12,18.32,18.32,0,0,1-1.2,2.94c-.49.93-1.13,1.81-1.58,2.77a17.38,17.38,0,0,0-1.08,3,30.56,30.56,0,0,1-1,3c-.36,1-.71,2-1.14,3a32.78,32.78,0,0,1-3.14,5.55.07.07,0,0,1-.11,0s0-.05,0-.07a33,33,0,0,1,1.8-6.12c.4-1,.87-1.93,1.32-2.89s1-1.88,1.51-2.8a18.3,18.3,0,0,0,1.39-2.85c.37-1,.56-2.06.89-3.07a19.16,19.16,0,0,1,1.27-2.9,18.42,18.42,0,0,1,1.7-2.72.08.08,0,0,1,.11,0A.11.11,0,0,1,425.65,301.45Z" transform="translate(0.66 -9.13)"/><path class="cls-16" d="M415.77,301.4a18.42,18.42,0,0,1,1.7,2.72,19.16,19.16,0,0,1,1.27,2.9c.33,1,.52,2.08.89,3.07a18.3,18.3,0,0,0,1.39,2.85,31.44,31.44,0,0,1,1.5,2.8c.46,1,.93,1.91,1.33,2.89a33,33,0,0,1,1.8,6.12.08.08,0,0,1-.06.09.09.09,0,0,1-.08,0,32.78,32.78,0,0,1-3.14-5.55c-.43-1-.78-2-1.14-3a28.14,28.14,0,0,1-1-3,18.27,18.27,0,0,0-1.08-3c-.45-1-1.09-1.84-1.59-2.77a19.24,19.24,0,0,1-1.19-2.94,17.79,17.79,0,0,1-.77-3.12.07.07,0,0,1,.07-.08A.06.06,0,0,1,415.77,301.4Z" transform="translate(0.66 -9.13)"/><path class="cls-16" d="M409.09,304.51a23.32,23.32,0,0,1,3.2,1.72,25.43,25.43,0,0,1,2.92,2.1c.92.79,1.74,1.69,2.68,2.44a23.25,23.25,0,0,0,3,2,35.85,35.85,0,0,1,3.08,1.9c1,.66,2,1.33,3,2.05a42.31,42.31,0,0,1,5.36,4.85.08.08,0,0,1,0,.11.07.07,0,0,1-.09,0A42,42,0,0,1,426,318c-1-.69-1.91-1.46-2.84-2.21s-1.84-1.54-2.72-2.37a23.35,23.35,0,0,0-2.8-2.27c-1-.67-2.1-1.19-3.13-1.82a26,26,0,0,1-2.87-2.17,23,23,0,0,1-2.59-2.54.08.08,0,0,1,0-.11A.08.08,0,0,1,409.09,304.51Z" transform="translate(0.66 -9.13)"/><path class="cls-16" d="M432.27,304.63a23,23,0,0,1-2.59,2.54,25.23,25.23,0,0,1-2.88,2.17c-1,.63-2.13,1.15-3.12,1.82a23.35,23.35,0,0,0-2.8,2.27c-.88.83-1.77,1.63-2.72,2.37s-1.86,1.52-2.84,2.21a41.64,41.64,0,0,1-6.23,3.68.07.07,0,0,1-.1,0,.1.1,0,0,1,0-.09,42.31,42.31,0,0,1,5.36-4.85c.95-.72,2-1.39,2.95-2.05a35.85,35.85,0,0,1,3.08-1.9,23.25,23.25,0,0,0,3-2c.94-.75,1.76-1.65,2.67-2.44a26.46,26.46,0,0,1,2.93-2.1,23.8,23.8,0,0,1,3.19-1.72.08.08,0,0,1,.11,0A.08.08,0,0,1,432.27,304.63Z" transform="translate(0.66 -9.13)"/><path class="cls-16" d="M300.54,245.83a17.44,17.44,0,0,1,.51,3.17,19.74,19.74,0,0,1,0,3.17c-.09,1.05-.33,2.11-.38,3.17a17.79,17.79,0,0,0,.17,3.17,30.6,30.6,0,0,1,.29,3.17c.06,1.05.12,2.11.1,3.17a32.51,32.51,0,0,1-.73,6.33.07.07,0,0,1-.09.06s-.05,0-.06-.06a33.29,33.29,0,0,1-.72-6.33c0-1.06,0-2.12.09-3.17a30.62,30.62,0,0,1,.3-3.17,17.78,17.78,0,0,0,.16-3.17c0-1.06-.28-2.12-.38-3.17a19.74,19.74,0,0,1,.05-3.17,18.33,18.33,0,0,1,.5-3.17.09.09,0,0,1,.1-.06A.06.06,0,0,1,300.54,245.83Z" transform="translate(0.66 -9.13)"/><path class="cls-16" d="M313.15,258.58a18.51,18.51,0,0,1-3.17.51,19.75,19.75,0,0,1-3.17,0c-1.06-.09-2.12-.33-3.17-.38a17.69,17.69,0,0,0-3.17.17,30.85,30.85,0,0,1-3.17.29c-1.06.05-2.11.12-3.17.1a33.41,33.41,0,0,1-6.34-.73.08.08,0,0,1-.06-.09.09.09,0,0,1,.06-.06,33.39,33.39,0,0,1,6.34-.72c1.06,0,2.11,0,3.17.09a30.88,30.88,0,0,1,3.17.3,17.69,17.69,0,0,0,3.17.16c1.05,0,2.11-.28,3.17-.38a19.76,19.76,0,0,1,3.17.05,18.48,18.48,0,0,1,3.17.5.08.08,0,0,1,.05.1A.12.12,0,0,1,313.15,258.58Z" transform="translate(0.66 -9.13)"/><path class="cls-16" d="M305.48,246.86a18.72,18.72,0,0,1-.77,3.12,19.6,19.6,0,0,1-1.2,2.93c-.49.94-1.13,1.82-1.58,2.77a17.18,17.18,0,0,0-1.08,3,31.42,31.42,0,0,1-1,3c-.36,1-.72,2-1.15,3a33.12,33.12,0,0,1-3.13,5.55.08.08,0,0,1-.11,0,.07.07,0,0,1,0-.08,33.41,33.41,0,0,1,1.8-6.12c.39-1,.86-1.93,1.32-2.88a30.21,30.21,0,0,1,1.51-2.8,18.4,18.4,0,0,0,1.39-2.86c.37-1,.56-2.05.88-3.06a19.32,19.32,0,0,1,1.28-2.91,18.11,18.11,0,0,1,1.7-2.72.08.08,0,0,1,.11,0A.09.09,0,0,1,305.48,246.86Z" transform="translate(0.66 -9.13)"/><path class="cls-16" d="M295.6,246.8a19,19,0,0,1,1.7,2.72,19.27,19.27,0,0,1,1.27,2.91c.33,1,.52,2.07.89,3.06a17.55,17.55,0,0,0,1.39,2.86,30.12,30.12,0,0,1,1.5,2.8c.46,1,.93,1.9,1.33,2.88a34.22,34.22,0,0,1,1.8,6.12.08.08,0,0,1-.06.09.08.08,0,0,1-.08,0,33.17,33.17,0,0,1-3.14-5.55c-.43-1-.78-2-1.15-3a31.37,31.37,0,0,1-1-3,18,18,0,0,0-1.08-3c-.46-1-1.09-1.83-1.59-2.77a19.55,19.55,0,0,1-1.19-2.93,17.79,17.79,0,0,1-.77-3.12.08.08,0,0,1,.06-.09A.11.11,0,0,1,295.6,246.8Z" transform="translate(0.66 -9.13)"/><path class="cls-16" d="M288.92,249.91a22.33,22.33,0,0,1,3.2,1.73,24.27,24.27,0,0,1,2.92,2.1c.91.78,1.74,1.69,2.67,2.44a25.23,25.23,0,0,0,3,2c1.05.59,2.09,1.21,3.07,1.89s2,1.33,3,2.06A42.31,42.31,0,0,1,312.1,267a.08.08,0,0,1,0,.11.1.1,0,0,1-.09,0,42.93,42.93,0,0,1-6.22-3.68c-1-.7-1.91-1.46-2.84-2.21s-1.85-1.54-2.73-2.37a21.62,21.62,0,0,0-2.79-2.27c-1-.67-2.11-1.19-3.13-1.83a26,26,0,0,1-2.87-2.17,22.22,22.22,0,0,1-2.6-2.54.08.08,0,0,1,0-.1A.09.09,0,0,1,288.92,249.91Z" transform="translate(0.66 -9.13)"/><path class="cls-16" d="M312.1,250a20.77,20.77,0,0,1-2.6,2.54,24.27,24.27,0,0,1-2.87,2.17c-1,.64-2.13,1.16-3.12,1.83a22.41,22.41,0,0,0-2.8,2.27c-.88.83-1.78,1.63-2.72,2.37s-1.86,1.51-2.84,2.21a43,43,0,0,1-6.23,3.68.07.07,0,0,1-.1,0,.08.08,0,0,1,0-.08,43.09,43.09,0,0,1,5.37-4.85c.95-.73,2-1.39,2.95-2.06s2-1.3,3.07-1.89a23.71,23.71,0,0,0,3-2c.94-.75,1.76-1.66,2.67-2.44a25.21,25.21,0,0,1,2.93-2.1,22.77,22.77,0,0,1,3.19-1.73s.09,0,.1,0A.06.06,0,0,1,312.1,250Z" transform="translate(0.66 -9.13)"/><path class="cls-16" d="M138.87,158.15a17.3,17.3,0,0,1,.51,3.17,19.73,19.73,0,0,1,0,3.17c-.09,1-.33,2.11-.38,3.16a17.69,17.69,0,0,0,.17,3.17,31.11,31.11,0,0,1,.29,3.17c.06,1.06.12,2.12.1,3.17a32.53,32.53,0,0,1-.73,6.34.08.08,0,0,1-.09.06.09.09,0,0,1-.06-.06,33.3,33.3,0,0,1-.72-6.34c0-1,0-2.11.09-3.17a31.15,31.15,0,0,1,.3-3.17,18.67,18.67,0,0,0,.17-3.17c-.05-1.05-.29-2.11-.39-3.16a19.72,19.72,0,0,1,.05-3.17,18.18,18.18,0,0,1,.5-3.17.09.09,0,0,1,.1-.06A.06.06,0,0,1,138.87,158.15Z" transform="translate(0.66 -9.13)"/><path class="cls-16" d="M151.48,170.9a18.51,18.51,0,0,1-3.17.51,19.75,19.75,0,0,1-3.17,0c-1.06-.09-2.12-.34-3.17-.38a17.69,17.69,0,0,0-3.17.16,28.31,28.31,0,0,1-3.17.3c-1.06.05-2.11.11-3.17.09a32.6,32.6,0,0,1-6.34-.72.08.08,0,0,1-.06-.09.09.09,0,0,1,.06-.06,33.41,33.41,0,0,1,6.34-.73c1.06,0,2.11,0,3.17.1a30.85,30.85,0,0,1,3.17.29,17.69,17.69,0,0,0,3.17.17c1.05-.05,2.11-.29,3.17-.38a19.75,19.75,0,0,1,3.17,0,18.51,18.51,0,0,1,3.17.51.07.07,0,0,1,.05.09A.1.1,0,0,1,151.48,170.9Z" transform="translate(0.66 -9.13)"/><path class="cls-16" d="M143.81,159.18a18.6,18.6,0,0,1-.77,3.11,19.28,19.28,0,0,1-1.2,2.94c-.49.94-1.13,1.82-1.58,2.77a17.38,17.38,0,0,0-1.08,3,31.62,31.62,0,0,1-1,3c-.36,1-.71,2-1.15,2.95a33.2,33.2,0,0,1-3.13,5.56.09.09,0,0,1-.11,0,.07.07,0,0,1,0-.08,33.18,33.18,0,0,1,1.8-6.12c.39-1,.86-1.93,1.32-2.88a31.72,31.72,0,0,1,1.51-2.81,17.88,17.88,0,0,0,1.39-2.85c.37-1,.56-2.06.88-3.07a20.78,20.78,0,0,1,1.28-2.9,18.11,18.11,0,0,1,1.7-2.72.08.08,0,0,1,.11,0A.08.08,0,0,1,143.81,159.18Z" transform="translate(0.66 -9.13)"/><path class="cls-16" d="M133.93,159.12a19,19,0,0,1,1.7,2.72,19.61,19.61,0,0,1,1.27,2.9c.33,1,.52,2.08.89,3.07a17.06,17.06,0,0,0,1.39,2.85,31.61,31.61,0,0,1,1.5,2.81c.46.95.93,1.9,1.33,2.88a33.18,33.18,0,0,1,1.8,6.12.08.08,0,0,1-.06.09.11.11,0,0,1-.08,0,33.26,33.26,0,0,1-3.14-5.56c-.43-1-.78-2-1.15-2.95a31.56,31.56,0,0,1-1-3,18.27,18.27,0,0,0-1.08-3c-.46-.95-1.09-1.83-1.59-2.77a19.24,19.24,0,0,1-1.19-2.94,17.68,17.68,0,0,1-.77-3.11.08.08,0,0,1,.06-.09A.11.11,0,0,1,133.93,159.12Z" transform="translate(0.66 -9.13)"/><path class="cls-16" d="M127.25,162.23a22.33,22.33,0,0,1,3.2,1.73,24.2,24.2,0,0,1,2.92,2.09c.91.79,1.74,1.7,2.68,2.45a23.18,23.18,0,0,0,3,2c1.05.6,2.09,1.22,3.07,1.9s2,1.33,3,2.06a41.56,41.56,0,0,1,5.36,4.85.08.08,0,0,1,0,.11.1.1,0,0,1-.09,0,43.86,43.86,0,0,1-6.22-3.68c-1-.7-1.91-1.46-2.84-2.21s-1.85-1.55-2.73-2.37a21.62,21.62,0,0,0-2.79-2.27c-1-.68-2.11-1.19-3.13-1.83a26,26,0,0,1-2.87-2.17,23.05,23.05,0,0,1-2.6-2.54.09.09,0,0,1,0-.11A.08.08,0,0,1,127.25,162.23Z" transform="translate(0.66 -9.13)"/><path class="cls-16" d="M150.43,162.35a22.16,22.16,0,0,1-2.59,2.54,25.23,25.23,0,0,1-2.88,2.17c-1,.64-2.13,1.15-3.12,1.83a22.41,22.41,0,0,0-2.8,2.27c-.88.82-1.78,1.63-2.72,2.37s-1.86,1.51-2.84,2.21a43.41,43.41,0,0,1-6.23,3.68.07.07,0,0,1-.1,0,.08.08,0,0,1,0-.08,42.32,42.32,0,0,1,5.37-4.85c.95-.73,2-1.39,2.95-2.06s2-1.3,3.07-1.9a22.61,22.61,0,0,0,3-2c.94-.75,1.76-1.66,2.67-2.45a25.13,25.13,0,0,1,2.93-2.09,22.77,22.77,0,0,1,3.19-1.73.07.07,0,0,1,.1,0A.06.06,0,0,1,150.43,162.35Z" transform="translate(0.66 -9.13)"/><path class="cls-16" d="M300,356.09a18.2,18.2,0,0,1,.51,3.17,19.73,19.73,0,0,1,0,3.17c-.09,1.05-.34,2.11-.38,3.17a16.9,16.9,0,0,0,.17,3.17,30.66,30.66,0,0,1,.29,3.16c.05,1.06.11,2.12.09,3.17a32.51,32.51,0,0,1-.72,6.34.08.08,0,0,1-.09.06.09.09,0,0,1-.06-.06,33.31,33.31,0,0,1-.73-6.34c0-1.05,0-2.11.1-3.17a30.66,30.66,0,0,1,.29-3.16,17.79,17.79,0,0,0,.17-3.17c0-1.06-.29-2.12-.38-3.17a19.73,19.73,0,0,1,0-3.17,18.2,18.2,0,0,1,.51-3.17A.08.08,0,0,1,300,356,.09.09,0,0,1,300,356.09Z" transform="translate(0.66 -9.13)"/><path class="cls-16" d="M312.64,368.84a18.2,18.2,0,0,1-3.17.51,19.73,19.73,0,0,1-3.17,0c-1.05-.09-2.11-.34-3.17-.38a17.79,17.79,0,0,0-3.17.17,30.66,30.66,0,0,1-3.16.29c-1.06,0-2.12.12-3.17.1a33.31,33.31,0,0,1-6.34-.73.08.08,0,0,1-.06-.09.09.09,0,0,1,.06-.06,32.51,32.51,0,0,1,6.34-.72c1.05,0,2.11,0,3.17.09a30.66,30.66,0,0,1,3.16.29,16.9,16.9,0,0,0,3.17.17c1.06,0,2.12-.29,3.17-.38a19.73,19.73,0,0,1,3.17,0,18.2,18.2,0,0,1,3.17.51.08.08,0,0,1,.06.1A.1.1,0,0,1,312.64,368.84Z" transform="translate(0.66 -9.13)"/><path class="cls-16" d="M305,357.12a18,18,0,0,1-.76,3.12,20.72,20.72,0,0,1-1.2,2.93c-.5.94-1.13,1.82-1.59,2.77a18,18,0,0,0-1.08,3,29.58,29.58,0,0,1-1,3c-.36,1-.72,2-1.15,3a33.26,33.26,0,0,1-3.14,5.56.08.08,0,0,1-.1,0,.09.09,0,0,1,0-.08,33.21,33.21,0,0,1,1.81-6.12c.39-1,.86-1.93,1.32-2.88a28,28,0,0,1,1.51-2.8,18.4,18.4,0,0,0,1.39-2.86c.36-1,.55-2.06.88-3.07a20.72,20.72,0,0,1,1.27-2.9,18.18,18.18,0,0,1,1.71-2.72.08.08,0,0,1,.11,0A.06.06,0,0,1,305,357.12Z" transform="translate(0.66 -9.13)"/><path class="cls-16" d="M295.09,357.06a17.34,17.34,0,0,1,1.7,2.72,19.66,19.66,0,0,1,1.28,2.9c.33,1,.51,2.08.88,3.07a18.4,18.4,0,0,0,1.39,2.86,28,28,0,0,1,1.51,2.8c.46.95.93,1.9,1.32,2.88a32.43,32.43,0,0,1,1.8,6.12.08.08,0,0,1-.06.09.06.06,0,0,1-.07,0,33.26,33.26,0,0,1-3.14-5.56c-.43-1-.79-2-1.15-3a29.58,29.58,0,0,1-1-3,19,19,0,0,0-1.08-3c-.46-.95-1.09-1.83-1.59-2.77a20.72,20.72,0,0,1-1.2-2.93,19,19,0,0,1-.77-3.12A.1.1,0,0,1,295,357,.08.08,0,0,1,295.09,357.06Z" transform="translate(0.66 -9.13)"/><path class="cls-16" d="M288.42,360.17a22.88,22.88,0,0,1,3.2,1.73,24,24,0,0,1,2.92,2.1c.91.78,1.73,1.69,2.67,2.44a22.61,22.61,0,0,0,3,2c1.05.6,2.08,1.22,3.07,1.9s2,1.33,3,2.06a43.09,43.09,0,0,1,5.37,4.85.08.08,0,0,1,0,.11.08.08,0,0,1-.08,0,42.4,42.4,0,0,1-6.22-3.68c-1-.7-1.91-1.46-2.85-2.21s-1.84-1.55-2.72-2.37a22.41,22.41,0,0,0-2.8-2.27c-1-.68-2.1-1.19-3.12-1.83a24.27,24.27,0,0,1-2.87-2.17,23.05,23.05,0,0,1-2.6-2.54.08.08,0,0,1,0-.11A.08.08,0,0,1,288.42,360.17Z" transform="translate(0.66 -9.13)"/><path class="cls-16" d="M311.6,360.29a23.05,23.05,0,0,1-2.6,2.54,25.12,25.12,0,0,1-2.87,2.17c-1,.64-2.13,1.15-3.12,1.83a22.41,22.41,0,0,0-2.8,2.27c-.88.82-1.78,1.63-2.72,2.37s-1.87,1.51-2.85,2.21a42.4,42.4,0,0,1-6.22,3.68.07.07,0,0,1-.1,0,.06.06,0,0,1,0-.08,42.39,42.39,0,0,1,5.37-4.85c.95-.73,1.95-1.39,2.95-2.06s2-1.3,3.07-1.9a23.29,23.29,0,0,0,3-2c.94-.75,1.76-1.66,2.67-2.44a24,24,0,0,1,2.92-2.1,22.33,22.33,0,0,1,3.2-1.73.07.07,0,0,1,.1,0A.08.08,0,0,1,311.6,360.29Z" transform="translate(0.66 -9.13)"/><path class="cls-16" d="M147.5,303.67A10.39,10.39,0,0,1,148,306a11,11,0,0,1,.05,2.36c-.1.79-.34,1.58-.39,2.36a10.43,10.43,0,0,0,.17,2.36,17.31,17.31,0,0,1,.3,2.36,23.16,23.16,0,0,1,.09,2.36,18.75,18.75,0,0,1-.72,4.71.08.08,0,0,1-.1.06s0,0-.05-.06a18.76,18.76,0,0,1-.73-4.71c0-.79,0-1.58.09-2.36a19,19,0,0,1,.3-2.36,9.88,9.88,0,0,0,.17-2.36c0-.78-.29-1.57-.38-2.36a12.13,12.13,0,0,1,.55-4.71.07.07,0,0,1,.1-.05A.08.08,0,0,1,147.5,303.67Z" transform="translate(0.66 -9.13)"/><path class="cls-16" d="M156.86,313.18a10.47,10.47,0,0,1-2.36.5,10.35,10.35,0,0,1-2.36,0c-.79-.09-1.57-.33-2.36-.38a9.92,9.92,0,0,0-2.36.17,17.11,17.11,0,0,1-2.36.3c-.78.06-1.57.1-2.35.09a18.75,18.75,0,0,1-4.72-.72s-.07-.06-.05-.1A0,0,0,0,1,138,313a18.33,18.33,0,0,1,4.72-.73c.78,0,1.57,0,2.35.09a17.11,17.11,0,0,1,2.36.3,9.92,9.92,0,0,0,2.36.17c.79-.05,1.57-.29,2.36-.38a10.35,10.35,0,0,1,2.36,0,10,10,0,0,1,2.36.51.08.08,0,0,1,0,.1Z" transform="translate(0.66 -9.13)"/><path class="cls-16" d="M151.17,304.44a10.15,10.15,0,0,1-.45,2.37,11.52,11.52,0,0,1-.88,2.19c-.4.69-.93,1.32-1.27,2a9.73,9.73,0,0,0-.77,2.24,17.62,17.62,0,0,1-.64,2.29c-.25.75-.52,1.49-.84,2.21a19.07,19.07,0,0,1-2.5,4.06.09.09,0,0,1-.12,0,.07.07,0,0,1,0-.07,18.72,18.72,0,0,1,1.17-4.63c.29-.73.64-1.43,1-2.13a17.72,17.72,0,0,1,1.19-2.06,9.56,9.56,0,0,0,1.08-2.11c.26-.74.35-1.56.57-2.32a12.65,12.65,0,0,1,2.34-4.13.08.08,0,0,1,.11,0A.09.09,0,0,1,151.17,304.44Z" transform="translate(0.66 -9.13)"/><path class="cls-16" d="M143.82,304.38a10.07,10.07,0,0,1,1.38,2,10.61,10.61,0,0,1,1,2.15c.22.76.3,1.58.57,2.32a9.52,9.52,0,0,0,1.07,2.11A19.37,19.37,0,0,1,149,315c.36.7.7,1.4,1,2.13a18.72,18.72,0,0,1,1.17,4.63.1.1,0,0,1-.07.09.09.09,0,0,1-.07,0,18.72,18.72,0,0,1-2.51-4.06c-.31-.72-.58-1.46-.83-2.21a19.39,19.39,0,0,1-.65-2.29,9.7,9.7,0,0,0-.76-2.24c-.35-.7-.88-1.33-1.27-2a10.9,10.9,0,0,1-.88-2.19,10.15,10.15,0,0,1-.45-2.37.07.07,0,0,1,.07-.08Z" transform="translate(0.66 -9.13)"/><path class="cls-16" d="M138.84,306.69a13.61,13.61,0,0,1,2.46,1.18,14.58,14.58,0,0,1,2.18,1.55c.66.61,1.24,1.33,1.93,1.9a12.62,12.62,0,0,0,2.26,1.45,22.41,22.41,0,0,1,2.33,1.35c.76.48,1.5,1,2.21,1.51a23.75,23.75,0,0,1,3.88,3.76.08.08,0,0,1,0,.11.08.08,0,0,1-.08,0,24.11,24.11,0,0,1-4.74-2.59c-.73-.52-1.42-1.08-2.1-1.66a21.35,21.35,0,0,1-2-1.83,13,13,0,0,0-2.06-1.72c-.74-.5-1.6-.83-2.38-1.28a13.91,13.91,0,0,1-2.13-1.62,13.64,13.64,0,0,1-1.86-2,.09.09,0,0,1,0-.11A.06.06,0,0,1,138.84,306.69Z" transform="translate(0.66 -9.13)"/><path class="cls-16" d="M156.09,306.81a13.58,13.58,0,0,1-1.85,2,14.42,14.42,0,0,1-2.13,1.62c-.78.45-1.64.78-2.39,1.28a12.89,12.89,0,0,0-2.05,1.72,22.7,22.7,0,0,1-2,1.83c-.68.58-1.38,1.14-2.1,1.66a23.91,23.91,0,0,1-4.75,2.59.07.07,0,0,1-.1,0,.11.11,0,0,1,0-.08,23.81,23.81,0,0,1,3.89-3.76c.71-.54,1.45-1,2.21-1.51a21.42,21.42,0,0,1,2.33-1.35,13,13,0,0,0,2.26-1.45c.69-.57,1.26-1.29,1.93-1.9a14.09,14.09,0,0,1,2.18-1.55,13.2,13.2,0,0,1,2.45-1.18.08.08,0,0,1,.1.05A.06.06,0,0,1,156.09,306.81Z" transform="translate(0.66 -9.13)"/><path class="cls-16" d="M30.65,375.62a9.5,9.5,0,0,1,.5,2.24,9.89,9.89,0,0,1,.05,2.24c-.1.75-.34,1.5-.39,2.24a9.37,9.37,0,0,0,.17,2.24,15.77,15.77,0,0,1,.3,2.25c.06.74.1,1.49.09,2.24a17.09,17.09,0,0,1-.72,4.48.09.09,0,0,1-.1.05s-.05,0-.05-.05a16.71,16.71,0,0,1-.73-4.48c0-.75,0-1.5.09-2.24a15.77,15.77,0,0,1,.3-2.25,8.88,8.88,0,0,0,.17-2.24c0-.74-.29-1.49-.38-2.24a9.34,9.34,0,0,1,0-2.24,9.06,9.06,0,0,1,.51-2.24.08.08,0,0,1,.1-.05Z" transform="translate(0.66 -9.13)"/><path class="cls-16" d="M39.54,384.66a9.64,9.64,0,0,1-2.24.51,10.58,10.58,0,0,1-2.25,0c-.74-.1-1.49-.34-2.24-.38a8.5,8.5,0,0,0-2.24.17,17,17,0,0,1-2.24.29,21,21,0,0,1-2.24.1,17.47,17.47,0,0,1-4.48-.73.07.07,0,0,1-.05-.1.08.08,0,0,1,.05-.05,17,17,0,0,1,4.48-.73,21,21,0,0,1,2.24.1,17,17,0,0,1,2.24.29,8.5,8.5,0,0,0,2.24.17c.75,0,1.5-.29,2.24-.38a10,10,0,0,1,2.25,0,9.64,9.64,0,0,1,2.24.51.07.07,0,0,1,0,.1A.07.07,0,0,1,39.54,384.66Z" transform="translate(0.66 -9.13)"/><path class="cls-16" d="M34.13,376.36a9.22,9.22,0,0,1-.4,2.26,9.64,9.64,0,0,1-.84,2.08c-.37.65-.89,1.24-1.22,1.91a8.77,8.77,0,0,0-.72,2.13,15.56,15.56,0,0,1-.6,2.18,18.88,18.88,0,0,1-.79,2.1,17,17,0,0,1-2.41,3.85.08.08,0,0,1-.11,0,.11.11,0,0,1,0-.07,17,17,0,0,1,1.08-4.41c.28-.69.61-1.36,1-2a16.78,16.78,0,0,1,1.14-1.95,8.37,8.37,0,0,0,1-2c.25-.71.32-1.49.52-2.22a9.59,9.59,0,0,1,.92-2A9.07,9.07,0,0,1,34,376.3a.08.08,0,0,1,.11,0A0,0,0,0,1,34.13,376.36Z" transform="translate(0.66 -9.13)"/><path class="cls-16" d="M27.15,376.3a9.89,9.89,0,0,1,1.34,1.87,9.56,9.56,0,0,1,.91,2c.2.73.27,1.51.52,2.22a9.17,9.17,0,0,0,1,2,16.87,16.87,0,0,1,1.15,1.95c.35.67.68,1.34,1,2a16.94,16.94,0,0,1,1.07,4.41.08.08,0,0,1-.07.09.07.07,0,0,1-.06,0A17,17,0,0,1,31.58,389c-.3-.68-.55-1.38-.79-2.1a17.05,17.05,0,0,1-.6-2.18,9.2,9.2,0,0,0-.71-2.13c-.34-.67-.85-1.26-1.23-1.91a9.61,9.61,0,0,1-.83-2.08,9.22,9.22,0,0,1-.41-2.26.07.07,0,0,1,.08-.08S27.13,376.28,27.15,376.3Z" transform="translate(0.66 -9.13)"/><path class="cls-16" d="M22.42,378.49a11.75,11.75,0,0,1,2.35,1.1,12.69,12.69,0,0,1,2.07,1.47c.63.58,1.17,1.28,1.83,1.82a11.38,11.38,0,0,0,2.15,1.37A22,22,0,0,1,33,385.52a25.14,25.14,0,0,1,2.1,1.44,21.16,21.16,0,0,1,3.67,3.6.08.08,0,0,1,0,.11.11.11,0,0,1-.08,0,22.35,22.35,0,0,1-4.53-2.43c-.69-.5-1.34-1-2-1.59a19.17,19.17,0,0,1-1.87-1.74,11.29,11.29,0,0,0-1.95-1.65c-.71-.47-1.54-.77-2.28-1.2a13.14,13.14,0,0,1-2-1.54,12.37,12.37,0,0,1-1.75-1.92.09.09,0,0,1,0-.11A.09.09,0,0,1,22.42,378.49Z" transform="translate(0.66 -9.13)"/><path class="cls-16" d="M38.81,378.61a11.89,11.89,0,0,1-1.75,1.92,12.68,12.68,0,0,1-2,1.54c-.74.43-1.57.73-2.28,1.2a10.87,10.87,0,0,0-1.94,1.65,20.5,20.5,0,0,1-1.88,1.74c-.64.56-1.3,1.09-2,1.59a22.35,22.35,0,0,1-4.53,2.43.08.08,0,0,1-.09-.12A21.52,21.52,0,0,1,26,387c.68-.52,1.38-1,2.1-1.44a22.15,22.15,0,0,1,2.23-1.27,11.71,11.71,0,0,0,2.15-1.37c.65-.54,1.19-1.24,1.82-1.82a13.14,13.14,0,0,1,2.07-1.47,11.75,11.75,0,0,1,2.35-1.1.08.08,0,0,1,.1.05A.06.06,0,0,1,38.81,378.61Z" transform="translate(0.66 -9.13)"/><path class="cls-16" d="M147.5,380.44a18.33,18.33,0,0,1,.5,3.17,19.74,19.74,0,0,1,.05,3.17c-.1,1.06-.34,2.11-.38,3.17a17.73,17.73,0,0,0,.16,3.17,30.62,30.62,0,0,1,.3,3.17c.05,1,.11,2.11.09,3.17a33.48,33.48,0,0,1-.72,6.34.07.07,0,0,1-.09.05.06.06,0,0,1-.06-.05,33.5,33.5,0,0,1-.73-6.34c0-1.06,0-2.12.1-3.17a30.6,30.6,0,0,1,.29-3.17,17.74,17.74,0,0,0,.17-3.17c-.05-1.06-.29-2.11-.38-3.17a19.74,19.74,0,0,1,0-3.17,18.35,18.35,0,0,1,.51-3.17.07.07,0,0,1,.09-.05A.06.06,0,0,1,147.5,380.44Z" transform="translate(0.66 -9.13)"/><path class="cls-16" d="M160.1,393.19a17.44,17.44,0,0,1-3.17.51,19.74,19.74,0,0,1-3.17,0c-1-.09-2.11-.33-3.17-.38a17.79,17.79,0,0,0-3.17.17,30.6,30.6,0,0,1-3.17.29c-1.05.06-2.11.12-3.17.1a32.51,32.51,0,0,1-6.33-.73.07.07,0,0,1-.06-.09s0-.05.06-.06a33.29,33.29,0,0,1,6.33-.72c1.06,0,2.12,0,3.17.09a30.62,30.62,0,0,1,3.17.3,17.78,17.78,0,0,0,3.17.16c1.06,0,2.12-.28,3.17-.38a19.74,19.74,0,0,1,3.17.05,18.33,18.33,0,0,1,3.17.5.09.09,0,0,1,.06.1A.06.06,0,0,1,160.1,393.19Z" transform="translate(0.66 -9.13)"/><path class="cls-16" d="M152.43,381.47a17.79,17.79,0,0,1-.77,3.12,19.55,19.55,0,0,1-1.19,2.93c-.5.94-1.13,1.82-1.59,2.77a18,18,0,0,0-1.08,3,30.51,30.51,0,0,1-1,3c-.37,1-.72,2-1.15,3a33.17,33.17,0,0,1-3.14,5.55s-.07,0-.11,0a.11.11,0,0,1,0-.08,33.44,33.44,0,0,1,1.81-6.12c.39-1,.86-1.93,1.32-2.88A30.12,30.12,0,0,1,147,393a16.41,16.41,0,0,0,1.39-2.86c.37-1,.56-2.05.89-3.06a20.22,20.22,0,0,1,1.27-2.9,18.51,18.51,0,0,1,1.7-2.73.08.08,0,0,1,.11,0A.06.06,0,0,1,152.43,381.47Z" transform="translate(0.66 -9.13)"/><path class="cls-16" d="M142.55,381.41a17.71,17.71,0,0,1,1.7,2.73,19.21,19.21,0,0,1,1.28,2.9c.32,1,.51,2.07.88,3.06A18,18,0,0,0,147.8,393a28,28,0,0,1,1.51,2.8c.46.95.93,1.9,1.32,2.88a33.41,33.41,0,0,1,1.8,6.12.07.07,0,0,1-.06.09.07.07,0,0,1-.08,0,33.12,33.12,0,0,1-3.13-5.55c-.43-1-.79-2-1.15-3a30.56,30.56,0,0,1-1-3,17.18,17.18,0,0,0-1.08-3c-.45-1-1.09-1.83-1.58-2.77a20.72,20.72,0,0,1-1.2-2.93,18.72,18.72,0,0,1-.77-3.12.1.1,0,0,1,.07-.09A.09.09,0,0,1,142.55,381.41Z" transform="translate(0.66 -9.13)"/><path class="cls-16" d="M135.88,384.52a23.46,23.46,0,0,1,3.2,1.73,26,26,0,0,1,2.92,2.1c.91.78,1.73,1.69,2.67,2.44a22.68,22.68,0,0,0,3,2c1.05.59,2.08,1.21,3.07,1.89s2,1.33,2.95,2.06a43.09,43.09,0,0,1,5.37,4.85.08.08,0,0,1,0,.11.08.08,0,0,1-.08,0,42.15,42.15,0,0,1-6.23-3.68c-1-.7-1.9-1.46-2.84-2.21s-1.84-1.54-2.72-2.37a23.35,23.35,0,0,0-2.8-2.27c-1-.67-2.1-1.19-3.12-1.83a25.33,25.33,0,0,1-2.87-2.16,22.34,22.34,0,0,1-2.6-2.55.07.07,0,0,1,0-.1A.08.08,0,0,1,135.88,384.52Z" transform="translate(0.66 -9.13)"/><path class="cls-16" d="M159.06,384.64a23.15,23.15,0,0,1-2.6,2.55,26.25,26.25,0,0,1-2.87,2.16c-1,.64-2.13,1.16-3.13,1.83a23.25,23.25,0,0,0-2.79,2.27c-.88.83-1.78,1.63-2.73,2.37s-1.86,1.51-2.84,2.21a41.54,41.54,0,0,1-6.22,3.68.07.07,0,0,1-.1,0,.06.06,0,0,1,0-.08,42.31,42.31,0,0,1,5.36-4.85c1-.73,2-1.39,3-2.06s2-1.3,3.07-1.89a24.07,24.07,0,0,0,3-2c.93-.75,1.76-1.66,2.67-2.44a25.1,25.1,0,0,1,2.92-2.1,22.33,22.33,0,0,1,3.2-1.73.09.09,0,0,1,.1.05A.06.06,0,0,1,159.06,384.64Z" transform="translate(0.66 -9.13)"/><path class="cls-16" d="M263.22,300.75a16.43,16.43,0,0,1,.27,3.95c-.05.65-.16,1.31-.19,2a13,13,0,0,0,.09,2,29,29,0,0,1-.17,7.89s0,0-.05,0l0,0a28.58,28.58,0,0,1-.16-7.89,14.43,14.43,0,0,0,.08-2c0-.66-.14-1.32-.19-2a17,17,0,0,1,.27-3.95.05.05,0,0,1,.05,0A0,0,0,0,1,263.22,300.75Z" transform="translate(0.66 -9.13)"/><path class="cls-16" d="M271.07,308.68a16.34,16.34,0,0,1-3.94.27c-.66-.05-1.32-.16-2-.19a14.51,14.51,0,0,0-2,.09,29,29,0,0,1-7.89-.17s0,0,0,0,0,0,0,0a28.58,28.58,0,0,1,7.89-.16,14.49,14.49,0,0,0,2,.08c.66,0,1.32-.14,2-.19a16.87,16.87,0,0,1,3.94.27s0,0,0,0A0,0,0,0,1,271.07,308.68Z" transform="translate(0.66 -9.13)"/><path class="cls-16" d="M266.29,301.39a16.69,16.69,0,0,1-1.28,3.74c-.31.58-.67,1.15-.95,1.74a15.23,15.23,0,0,0-.69,1.85,28.8,28.8,0,0,1-3.23,7.21,0,0,0,0,1-.05,0,0,0,0,0,1,0,0,28.64,28.64,0,0,1,2.92-7.34,13.79,13.79,0,0,0,.85-1.78c.23-.62.39-1.27.59-1.89a17,17,0,0,1,1.79-3.53s0,0,.06,0S266.3,301.37,266.29,301.39Z" transform="translate(0.66 -9.13)"/><path class="cls-16" d="M260.14,301.36a16.51,16.51,0,0,1,1.79,3.53c.21.62.36,1.27.59,1.89a13.79,13.79,0,0,0,.85,1.78,28.64,28.64,0,0,1,2.92,7.34s0,0,0,0,0,0,0,0a28.8,28.8,0,0,1-3.23-7.21,13.72,13.72,0,0,0-.69-1.85c-.28-.59-.64-1.16-.94-1.74a16.71,16.71,0,0,1-1.29-3.74.05.05,0,0,1,0-.05A.05.05,0,0,1,260.14,301.36Z" transform="translate(0.66 -9.13)"/><path class="cls-16" d="M256,303.3a21.85,21.85,0,0,1,3.77,2.43c.57.49,1.11,1,1.69,1.49a18.24,18.24,0,0,0,1.85,1.26,36.5,36.5,0,0,1,7.12,5.44.06.06,0,0,1,0,.06h-.05a36.74,36.74,0,0,1-7.31-5.17,17.88,17.88,0,0,0-1.75-1.4c-.62-.42-1.29-.77-1.92-1.17a22,22,0,0,1-3.45-2.88s0,0,0-.05S256,303.29,256,303.3Z" transform="translate(0.66 -9.13)"/><path class="cls-16" d="M270.42,303.36a21.52,21.52,0,0,1-3.45,2.88c-.63.4-1.29.75-1.91,1.17a18,18,0,0,0-1.76,1.4A36.46,36.46,0,0,1,256,314s0,0-.05,0a0,0,0,0,1,0-.05,36.8,36.8,0,0,1,7.12-5.44,18.24,18.24,0,0,0,1.85-1.26c.59-.47,1.12-1,1.69-1.49a21.85,21.85,0,0,1,3.77-2.43,0,0,0,0,1,.06,0A.06.06,0,0,1,270.42,303.36Z" transform="translate(0.66 -9.13)"/><path class="cls-16" d="M88.92,281.79a16.46,16.46,0,0,1,.27,3.95c0,.66-.16,1.32-.19,2a14.58,14.58,0,0,0,.09,2,29,29,0,0,1-.17,7.89s0,0,0,0,0,0,0,0a28.58,28.58,0,0,1-.16-7.89,14.57,14.57,0,0,0,.08-2c0-.65-.14-1.31-.19-2a17,17,0,0,1,.27-3.95.05.05,0,0,1,0,0S88.92,281.78,88.92,281.79Z" transform="translate(0.66 -9.13)"/><path class="cls-16" d="M96.77,289.72a16.35,16.35,0,0,1-3.94.28c-.66-.05-1.32-.16-2-.19a14.57,14.57,0,0,0-2,.08,28.2,28.2,0,0,1-7.89-.17s0,0,0,0a0,0,0,0,1,0,0,28.58,28.58,0,0,1,7.89-.17,14.58,14.58,0,0,0,2,.09c.65,0,1.31-.14,2-.2a16.88,16.88,0,0,1,3.94.28s0,0,0,0A0,0,0,0,1,96.77,289.72Z" transform="translate(0.66 -9.13)"/><path class="cls-16" d="M92,282.43a16.52,16.52,0,0,1-1.28,3.74c-.31.59-.67,1.15-.95,1.75a14.63,14.63,0,0,0-.69,1.85,28.73,28.73,0,0,1-3.23,7.2s0,0,0,0,0,0,0,0a28.72,28.72,0,0,1,2.92-7.33,13.31,13.31,0,0,0,.85-1.79c.23-.61.39-1.26.59-1.89a17.49,17.49,0,0,1,1.79-3.53.07.07,0,0,1,.06,0S92,282.42,92,282.43Z" transform="translate(0.66 -9.13)"/><path class="cls-16" d="M85.84,282.4a16.51,16.51,0,0,1,1.79,3.53c.21.63.36,1.28.6,1.89a13.25,13.25,0,0,0,.84,1.79A28.72,28.72,0,0,1,92,296.94s0,0,0,.05l0,0a28.73,28.73,0,0,1-3.23-7.2,13.24,13.24,0,0,0-.69-1.85c-.28-.6-.64-1.16-.94-1.75a16.54,16.54,0,0,1-1.29-3.74s0,0,0,0S85.83,282.39,85.84,282.4Z" transform="translate(0.66 -9.13)"/><path class="cls-16" d="M81.69,284.34a21.91,21.91,0,0,1,3.77,2.44c.57.49,1.11,1,1.69,1.48A16.74,16.74,0,0,0,89,289.52,36.55,36.55,0,0,1,96.12,295a0,0,0,0,1,0,0s0,0,0,0a36.57,36.57,0,0,1-7.32-5.18A19.39,19.39,0,0,0,87,288.46c-.62-.42-1.29-.78-1.92-1.18a21.43,21.43,0,0,1-3.45-2.88s0,0,0,0Z" transform="translate(0.66 -9.13)"/><path class="cls-16" d="M96.12,284.4a21,21,0,0,1-3.45,2.88c-.63.4-1.29.76-1.91,1.18A19.53,19.53,0,0,0,89,289.85,36.5,36.5,0,0,1,81.69,295a0,0,0,0,1,0,0,0,0,0,0,1,0,0,36.85,36.85,0,0,1,7.12-5.45,16.74,16.74,0,0,0,1.85-1.26c.59-.46,1.13-1,1.69-1.48a21.61,21.61,0,0,1,3.78-2.44s0,0,0,0S96.13,284.39,96.12,284.4Z" transform="translate(0.66 -9.13)"/><path class="cls-16" d="M103.35,342.87a16.34,16.34,0,0,1,.27,3.94c-.05.66-.16,1.32-.19,2a14.58,14.58,0,0,0,.09,2,29,29,0,0,1-.17,7.89s0,0,0,0,0,0,0,0a28.58,28.58,0,0,1-.16-7.89,14.57,14.57,0,0,0,.08-2c0-.65-.14-1.31-.19-2a16.87,16.87,0,0,1,.27-3.94.05.05,0,0,1,0,0S103.35,342.85,103.35,342.87Z" transform="translate(0.66 -9.13)"/><path class="cls-16" d="M111.2,350.8a16.87,16.87,0,0,1-3.94.27c-.66-.05-1.32-.16-2-.19a14.57,14.57,0,0,0-2,.08,28.58,28.58,0,0,1-7.89-.16.05.05,0,0,1,0-.05,0,0,0,0,1,0,0,29,29,0,0,1,7.89-.17,14.58,14.58,0,0,0,2,.09c.65,0,1.31-.14,2-.19a16.34,16.34,0,0,1,3.94.27,0,0,0,0,1,0,0A.08.08,0,0,1,111.2,350.8Z" transform="translate(0.66 -9.13)"/><path class="cls-16" d="M106.42,343.5a16.77,16.77,0,0,1-1.28,3.75c-.31.58-.66,1.14-1,1.74a14.63,14.63,0,0,0-.69,1.85,28.73,28.73,0,0,1-3.23,7.2s0,0,0,0,0,0,0,0a28.72,28.72,0,0,1,2.92-7.33,13.31,13.31,0,0,0,.85-1.79c.23-.61.39-1.26.59-1.89a17.49,17.49,0,0,1,1.79-3.53.07.07,0,0,1,.06,0S106.43,343.49,106.42,343.5Z" transform="translate(0.66 -9.13)"/><path class="cls-16" d="M100.27,343.47a16.51,16.51,0,0,1,1.79,3.53c.21.63.36,1.28.6,1.89a13.25,13.25,0,0,0,.84,1.79,28.36,28.36,0,0,1,2.92,7.33s0,0,0,.05l0,0a28.73,28.73,0,0,1-3.23-7.2,13.24,13.24,0,0,0-.69-1.85c-.28-.6-.64-1.16-.94-1.74a16.79,16.79,0,0,1-1.29-3.75s0,0,0,0Z" transform="translate(0.66 -9.13)"/><path class="cls-16" d="M96.12,345.41a21.91,21.91,0,0,1,3.77,2.44c.57.49,1.11,1,1.69,1.48a17.73,17.73,0,0,0,1.85,1.26,37,37,0,0,1,7.12,5.45,0,0,0,0,1,0,0,0,0,0,0,1,0,0,36.57,36.57,0,0,1-7.32-5.18,19.39,19.39,0,0,0-1.75-1.39c-.62-.42-1.29-.78-1.92-1.18a21.39,21.39,0,0,1-3.44-2.87,0,0,0,0,1,0-.06Z" transform="translate(0.66 -9.13)"/><path class="cls-16" d="M110.55,345.48a21.46,21.46,0,0,1-3.45,2.87c-.63.4-1.29.76-1.91,1.18a19.53,19.53,0,0,0-1.76,1.39,36.5,36.5,0,0,1-7.31,5.18,0,0,0,0,1-.05,0,0,0,0,0,1,0,0,36.88,36.88,0,0,1,7.11-5.45,16.74,16.74,0,0,0,1.85-1.26c.59-.46,1.13-1,1.69-1.48a21.61,21.61,0,0,1,3.78-2.44s0,0,0,0A.09.09,0,0,1,110.55,345.48Z" transform="translate(0.66 -9.13)"/><path class="cls-16" d="M135.87,242.13a16.88,16.88,0,0,1,.28,3.94c-.06.66-.17,1.32-.2,2a14.51,14.51,0,0,0,.09,2,28.58,28.58,0,0,1-.17,7.89s0,0,0,0a0,0,0,0,1,0,0,28.2,28.2,0,0,1-.17-7.89,14.49,14.49,0,0,0,.08-2c0-.66-.14-1.32-.19-2a16.35,16.35,0,0,1,.28-3.94s0,0,0,0A0,0,0,0,1,135.87,242.13Z" transform="translate(0.66 -9.13)"/><path class="cls-16" d="M143.73,250.06a17,17,0,0,1-3.95.27c-.66-.05-1.32-.16-2-.19a14.57,14.57,0,0,0-2,.08,28.58,28.58,0,0,1-7.89-.16.05.05,0,0,1,0-.05l0,0a29,29,0,0,1,7.89-.17,13.13,13.13,0,0,0,2,.09c.65,0,1.31-.14,2-.19a17,17,0,0,1,3.95.27.05.05,0,0,1,0,.05Z" transform="translate(0.66 -9.13)"/><path class="cls-16" d="M138.94,242.77a16.69,16.69,0,0,1-1.28,3.74c-.31.58-.66,1.14-.95,1.74a14.63,14.63,0,0,0-.69,1.85,28.57,28.57,0,0,1-3.23,7.2s0,0,0,0a.05.05,0,0,1,0,0,28.72,28.72,0,0,1,2.92-7.33,13.79,13.79,0,0,0,.85-1.78c.23-.62.39-1.27.59-1.9a17.16,17.16,0,0,1,1.79-3.52s0,0,.06,0S139,242.75,138.94,242.77Z" transform="translate(0.66 -9.13)"/><path class="cls-16" d="M132.79,242.74a16.21,16.21,0,0,1,1.79,3.52c.21.63.37,1.28.6,1.9a15.18,15.18,0,0,0,.84,1.78,28.36,28.36,0,0,1,2.92,7.33,0,0,0,0,1,0,.05s0,0,0,0a28.57,28.57,0,0,1-3.23-7.2,12.09,12.09,0,0,0-.69-1.85c-.28-.6-.64-1.16-.94-1.74a16.71,16.71,0,0,1-1.29-3.74s0-.05,0-.05S132.78,242.72,132.79,242.74Z" transform="translate(0.66 -9.13)"/><path class="cls-16" d="M128.64,244.68a21.48,21.48,0,0,1,3.77,2.43c.57.49,1.11,1,1.69,1.48a17.86,17.86,0,0,0,1.86,1.26,37.19,37.19,0,0,1,7.11,5.45,0,0,0,0,1,0,.06h0a36.45,36.45,0,0,1-7.32-5.18,18.09,18.09,0,0,0-1.75-1.39c-.62-.42-1.29-.78-1.92-1.18a20.88,20.88,0,0,1-3.44-2.87,0,0,0,0,1,0-.06A0,0,0,0,1,128.64,244.68Z" transform="translate(0.66 -9.13)"/><path class="cls-16" d="M143.07,244.74a20.88,20.88,0,0,1-3.44,2.87c-.64.4-1.3.76-1.92,1.18a18.09,18.09,0,0,0-1.75,1.39,36.45,36.45,0,0,1-7.32,5.18,0,0,0,0,1,0,0s0,0,0,0a37.19,37.19,0,0,1,7.11-5.45,17.86,17.86,0,0,0,1.86-1.26c.58-.46,1.12-1,1.69-1.48a21.11,21.11,0,0,1,3.77-2.43,0,0,0,0,1,.05,0A.07.07,0,0,1,143.07,244.74Z" transform="translate(0.66 -9.13)"/><path class="cls-16" d="M96.13,185a16.43,16.43,0,0,1,.28,3.95c0,.66-.16,1.31-.19,2a14.57,14.57,0,0,0,.08,2,28.2,28.2,0,0,1-.17,7.89s0,0,0,0a0,0,0,0,1,0,0,29,29,0,0,1-.17-7.89,14.58,14.58,0,0,0,.09-2c0-.66-.14-1.31-.19-2a16.43,16.43,0,0,1,.27-3.95s0,0,0,0S96.13,185,96.13,185Z" transform="translate(0.66 -9.13)"/><path class="cls-16" d="M104,193a17,17,0,0,1-3.95.28c-.65-.06-1.31-.17-2-.19a14.36,14.36,0,0,0-2,.08,28.28,28.28,0,0,1-7.9-.17s0,0,0,0l0,0a28.28,28.28,0,0,1,7.9-.17,12.93,12.93,0,0,0,2,.08c.66,0,1.32-.13,2-.19a17,17,0,0,1,3.95.28s0,0,0,0A0,0,0,0,1,104,193Z" transform="translate(0.66 -9.13)"/><path class="cls-16" d="M99.21,185.66a16.54,16.54,0,0,1-1.29,3.74c-.3.59-.66,1.15-.94,1.75a12.78,12.78,0,0,0-.69,1.85,28.73,28.73,0,0,1-3.23,7.2,0,0,0,0,1-.06,0s0,0,0,0a28.22,28.22,0,0,1,2.92-7.33,14.59,14.59,0,0,0,.84-1.79c.24-.62.39-1.26.6-1.89a16.28,16.28,0,0,1,1.79-3.53,0,0,0,0,1,0,0A.08.08,0,0,1,99.21,185.66Z" transform="translate(0.66 -9.13)"/><path class="cls-16" d="M93.06,185.63a17.23,17.23,0,0,1,1.79,3.53c.2.63.36,1.27.59,1.89a13.31,13.31,0,0,0,.85,1.79,28.57,28.57,0,0,1,2.92,7.33.05.05,0,0,1,0,.05.05.05,0,0,1,0,0,28.73,28.73,0,0,1-3.23-7.2,14.08,14.08,0,0,0-.69-1.85c-.29-.6-.64-1.16-1-1.75A16.52,16.52,0,0,1,93,185.66s0,0,0,0S93.05,185.62,93.06,185.63Z" transform="translate(0.66 -9.13)"/><path class="cls-16" d="M88.9,187.57A21.16,21.16,0,0,1,92.67,190c.57.48,1.11,1,1.7,1.48a16.74,16.74,0,0,0,1.85,1.26,36.79,36.79,0,0,1,7.11,5.45,0,0,0,0,1,0,.05s0,0,0,0A36.5,36.5,0,0,1,96,193.08a19.53,19.53,0,0,0-1.76-1.39c-.62-.43-1.28-.78-1.92-1.18a21.36,21.36,0,0,1-3.44-2.88,0,0,0,0,1,0,0Z" transform="translate(0.66 -9.13)"/><path class="cls-16" d="M103.33,187.63a20.94,20.94,0,0,1-3.44,2.88c-.63.4-1.3.75-1.92,1.18a18.09,18.09,0,0,0-1.75,1.39,36.86,36.86,0,0,1-7.32,5.18s0,0-.05,0a.06.06,0,0,1,0,0A36.55,36.55,0,0,1,96,192.75a17.73,17.73,0,0,0,1.85-1.26c.58-.47,1.12-1,1.69-1.48a21.91,21.91,0,0,1,3.77-2.44,0,0,0,0,1,0,0A0,0,0,0,1,103.33,187.63Z" transform="translate(0.66 -9.13)"/><path class="cls-16" d="M423.63,246.83a16.43,16.43,0,0,1,.27,3.95c0,.66-.16,1.32-.19,2a13.13,13.13,0,0,0,.09,2,29,29,0,0,1-.17,7.89s0,0-.05,0l0,0a28.58,28.58,0,0,1-.16-7.89,14.57,14.57,0,0,0,.08-2c0-.65-.14-1.31-.19-2a17,17,0,0,1,.27-3.95.05.05,0,0,1,.05,0S423.63,246.82,423.63,246.83Z" transform="translate(0.66 -9.13)"/><path class="cls-16" d="M431.48,254.76a16.35,16.35,0,0,1-3.94.28c-.66-.06-1.32-.16-2-.19a14.49,14.49,0,0,0-2,.08,28.2,28.2,0,0,1-7.89-.17s0,0,0,0a0,0,0,0,1,0,0,28.58,28.58,0,0,1,7.89-.17,13,13,0,0,0,2,.08c.66,0,1.32-.13,2-.19a16.88,16.88,0,0,1,3.94.28s0,0,0,0A0,0,0,0,1,431.48,254.76Z" transform="translate(0.66 -9.13)"/><path class="cls-16" d="M426.7,247.47a16.52,16.52,0,0,1-1.28,3.74c-.31.59-.67,1.15-.95,1.75a14.08,14.08,0,0,0-.69,1.85,28.73,28.73,0,0,1-3.23,7.2,0,0,0,0,1-.05,0,0,0,0,0,1,0,0,28.72,28.72,0,0,1,2.92-7.33,13.31,13.31,0,0,0,.85-1.79c.23-.61.38-1.26.59-1.89a17.23,17.23,0,0,1,1.79-3.53.06.06,0,0,1,.06,0A.06.06,0,0,1,426.7,247.47Z" transform="translate(0.66 -9.13)"/><path class="cls-16" d="M420.55,247.44a16.75,16.75,0,0,1,1.79,3.53c.21.63.36,1.28.59,1.89a13.31,13.31,0,0,0,.85,1.79A28.72,28.72,0,0,1,426.7,262s0,0,0,0l0,0a28.73,28.73,0,0,1-3.23-7.2,12.78,12.78,0,0,0-.69-1.85c-.28-.6-.64-1.16-.94-1.75a16.54,16.54,0,0,1-1.29-3.74s0,0,0,0S420.54,247.43,420.55,247.44Z" transform="translate(0.66 -9.13)"/><path class="cls-16" d="M416.4,249.38a21.91,21.91,0,0,1,3.77,2.44c.57.48,1.1,1,1.69,1.48a16.74,16.74,0,0,0,1.85,1.26,36.55,36.55,0,0,1,7.12,5.45,0,0,0,0,1,0,.05,0,0,0,0,1-.05,0,36.79,36.79,0,0,1-7.31-5.18,19.39,19.39,0,0,0-1.75-1.39c-.62-.42-1.29-.78-1.92-1.18a21.43,21.43,0,0,1-3.45-2.88,0,0,0,0,1,0-.05Z" transform="translate(0.66 -9.13)"/><path class="cls-16" d="M430.83,249.44a21,21,0,0,1-3.45,2.88c-.63.4-1.3.76-1.91,1.18a19.53,19.53,0,0,0-1.76,1.39,36.5,36.5,0,0,1-7.31,5.18,0,0,0,0,1,0,0,0,0,0,0,1,0,0,36.85,36.85,0,0,1,7.12-5.45,16.74,16.74,0,0,0,1.85-1.26c.59-.46,1.12-1,1.69-1.48a21.91,21.91,0,0,1,3.77-2.44,0,0,0,0,1,.06,0A.06.06,0,0,1,430.83,249.44Z" transform="translate(0.66 -9.13)"/><path class="cls-16" d="M375.06,388a16.35,16.35,0,0,1,.28,3.94c0,.66-.16,1.32-.19,2a14.43,14.43,0,0,0,.08,2,28.2,28.2,0,0,1-.17,7.89s0,0,0,0a0,0,0,0,1,0,0,29,29,0,0,1-.17-7.89,14.44,14.44,0,0,0,.09-2c0-.66-.14-1.32-.19-2A16.34,16.34,0,0,1,375,388s0,0,0,0A0,0,0,0,1,375.06,388Z" transform="translate(0.66 -9.13)"/><path class="cls-16" d="M382.92,396a16.43,16.43,0,0,1-3.95.27c-.65-.05-1.31-.16-2-.19a13,13,0,0,0-2,.09,29,29,0,0,1-7.89-.17s0,0,0-.05l0,0a28.58,28.58,0,0,1,7.89-.16,14.43,14.43,0,0,0,2,.08c.66,0,1.32-.14,2-.19a17,17,0,0,1,3.95.27.05.05,0,0,1,0,.05Z" transform="translate(0.66 -9.13)"/><path class="cls-16" d="M378.14,388.68a16.71,16.71,0,0,1-1.29,3.74c-.3.58-.66,1.15-.94,1.74a13.72,13.72,0,0,0-.69,1.85,28.57,28.57,0,0,1-3.23,7.2s0,0-.06,0a0,0,0,0,1,0-.05,28.36,28.36,0,0,1,2.92-7.33,15.18,15.18,0,0,0,.84-1.78c.24-.62.39-1.27.6-1.89a16.06,16.06,0,0,1,1.79-3.53s0,0,.05,0S378.14,388.66,378.14,388.68Z" transform="translate(0.66 -9.13)"/><path class="cls-16" d="M372,388.65a17,17,0,0,1,1.79,3.53c.2.62.36,1.27.59,1.89a13.79,13.79,0,0,0,.85,1.78,28.72,28.72,0,0,1,2.92,7.33s0,.05,0,.05,0,0,0,0a28.57,28.57,0,0,1-3.23-7.2,15.23,15.23,0,0,0-.69-1.85c-.29-.59-.64-1.16-.95-1.74a16.69,16.69,0,0,1-1.28-3.74s0,0,0-.05Z" transform="translate(0.66 -9.13)"/><path class="cls-16" d="M367.83,390.59A21.11,21.11,0,0,1,371.6,393c.57.49,1.11,1,1.7,1.48a16.82,16.82,0,0,0,1.85,1.27,36.74,36.74,0,0,1,7.11,5.44,0,0,0,0,1,0,.06h0a36.46,36.46,0,0,1-7.31-5.17,18,18,0,0,0-1.76-1.4c-.62-.42-1.28-.77-1.92-1.17a21.89,21.89,0,0,1-3.44-2.88.06.06,0,0,1,0-.06Z" transform="translate(0.66 -9.13)"/><path class="cls-16" d="M382.26,390.65a21.45,21.45,0,0,1-3.44,2.88c-.63.4-1.3.75-1.92,1.17a17.88,17.88,0,0,0-1.75,1.4,36.81,36.81,0,0,1-7.32,5.17,0,0,0,0,1-.05,0,.07.07,0,0,1,0-.05,36.5,36.5,0,0,1,7.12-5.44,17.83,17.83,0,0,0,1.85-1.27c.58-.46,1.12-1,1.69-1.48a21.85,21.85,0,0,1,3.77-2.43,0,0,0,0,1,0,0A0,0,0,0,1,382.26,390.65Z" transform="translate(0.66 -9.13)"/><path class="cls-16" d="M352.22,305.21a16.88,16.88,0,0,1,.28,3.94c-.06.66-.17,1.32-.2,2a14.51,14.51,0,0,0,.09,2,29,29,0,0,1-.17,7.89s0,0,0,0a0,0,0,0,1,0,0,28.2,28.2,0,0,1-.17-7.89,14.49,14.49,0,0,0,.08-2c0-.66-.14-1.32-.19-2a16.35,16.35,0,0,1,.28-3.94s0,0,0,0A0,0,0,0,1,352.22,305.21Z" transform="translate(0.66 -9.13)"/><path class="cls-16" d="M360.08,313.14a17,17,0,0,1-3.95.27c-.66-.05-1.32-.16-2-.19a13.13,13.13,0,0,0-2,.09,29,29,0,0,1-7.89-.17.05.05,0,0,1,0-.05l0,0a29,29,0,0,1,7.89-.17,13.13,13.13,0,0,0,2,.09c.65,0,1.31-.14,2-.19a17,17,0,0,1,3.95.27.05.05,0,0,1,0,.05Z" transform="translate(0.66 -9.13)"/><path class="cls-16" d="M355.29,305.85a16.69,16.69,0,0,1-1.28,3.74c-.31.58-.66,1.15-.95,1.74a14.63,14.63,0,0,0-.69,1.85,28.57,28.57,0,0,1-3.23,7.2s0,0-.05,0,0,0,0,0A28.72,28.72,0,0,1,352,313a13.79,13.79,0,0,0,.85-1.78c.23-.62.39-1.27.59-1.9a17.16,17.16,0,0,1,1.79-3.52s0,0,.06,0S355.3,305.83,355.29,305.85Z" transform="translate(0.66 -9.13)"/><path class="cls-16" d="M349.14,305.82a16.21,16.21,0,0,1,1.79,3.52c.21.63.37,1.28.6,1.9a15.18,15.18,0,0,0,.84,1.78,28.36,28.36,0,0,1,2.92,7.33s0,0,0,0a0,0,0,0,1,0,0,28.57,28.57,0,0,1-3.23-7.2,13.24,13.24,0,0,0-.69-1.85c-.28-.59-.64-1.16-.94-1.74a16.71,16.71,0,0,1-1.29-3.74.05.05,0,0,1,0-.05S349.13,305.8,349.14,305.82Z" transform="translate(0.66 -9.13)"/><path class="cls-16" d="M345,307.76a21.85,21.85,0,0,1,3.77,2.43c.57.49,1.11,1,1.69,1.48a17.73,17.73,0,0,0,1.85,1.26,37,37,0,0,1,7.12,5.45,0,0,0,0,1,0,.06h0a36.81,36.81,0,0,1-7.32-5.17,16.77,16.77,0,0,0-1.75-1.4c-.62-.42-1.29-.78-1.92-1.17a21.45,21.45,0,0,1-3.44-2.88,0,0,0,0,1,0-.06Z" transform="translate(0.66 -9.13)"/><path class="cls-16" d="M359.42,307.82A21.89,21.89,0,0,1,356,310.7c-.64.39-1.3.75-1.92,1.17a18,18,0,0,0-1.76,1.4,36.46,36.46,0,0,1-7.31,5.17s0,0-.05,0,0,0,0-.05a37.19,37.19,0,0,1,7.11-5.45,16.74,16.74,0,0,0,1.85-1.26c.59-.46,1.13-1,1.7-1.48a21.11,21.11,0,0,1,3.77-2.43s0,0,.05,0A.07.07,0,0,1,359.42,307.82Z" transform="translate(0.66 -9.13)"/><path class="cls-16" d="M456.75,359.48a9.37,9.37,0,0,1,.51,2.22,9.7,9.7,0,0,1,0,2.22c-.1.74-.34,1.47-.38,2.21a8.32,8.32,0,0,0,.17,2.22,16.87,16.87,0,0,1,.29,2.22,20.61,20.61,0,0,1,.1,2.22,16.62,16.62,0,0,1-.73,4.43.07.07,0,0,1-.1,0s0,0,0,0a17,17,0,0,1-.73-4.43,20.61,20.61,0,0,1,.1-2.22,16.87,16.87,0,0,1,.29-2.22,8.32,8.32,0,0,0,.17-2.22c0-.74-.28-1.47-.38-2.21a10.3,10.3,0,0,1,0-2.22,9.37,9.37,0,0,1,.51-2.22.09.09,0,0,1,.1-.05A.08.08,0,0,1,456.75,359.48Z" transform="translate(0.66 -9.13)"/><path class="cls-16" d="M465.55,368.43a9.35,9.35,0,0,1-2.22.5,9.7,9.7,0,0,1-2.22.05c-.74-.1-1.48-.34-2.22-.39a9.12,9.12,0,0,0-2.21.17,15.37,15.37,0,0,1-2.22.3c-.74.06-1.48.1-2.22.09a16.74,16.74,0,0,1-4.44-.72.09.09,0,0,1-.05-.1s0-.05.05-.05a16.36,16.36,0,0,1,4.44-.73c.74,0,1.48,0,2.22.09a15.37,15.37,0,0,1,2.22.3,8.65,8.65,0,0,0,2.21.17c.74,0,1.48-.29,2.22-.38a9.16,9.16,0,0,1,2.22,0,8.91,8.91,0,0,1,2.22.51.07.07,0,0,1,0,.1A.1.1,0,0,1,465.55,368.43Z" transform="translate(0.66 -9.13)"/><path class="cls-16" d="M460.2,360.21a8.69,8.69,0,0,1-.4,2.24,9,9,0,0,1-.82,2.06c-.38.64-.89,1.23-1.22,1.89a9.2,9.2,0,0,0-.71,2.11,15.64,15.64,0,0,1-.59,2.16,21.64,21.64,0,0,1-.78,2.08,16.58,16.58,0,0,1-2.39,3.8.08.08,0,0,1-.11,0,.09.09,0,0,1,0-.07,16.47,16.47,0,0,1,1.06-4.36,20.51,20.51,0,0,1,1-2,14.58,14.58,0,0,1,1.14-1.93,9,9,0,0,0,1-2c.24-.7.31-1.48.51-2.2a9.59,9.59,0,0,1,.9-2,9.4,9.4,0,0,1,1.33-1.85.09.09,0,0,1,.12,0A.14.14,0,0,1,460.2,360.21Z" transform="translate(0.66 -9.13)"/><path class="cls-16" d="M453.29,360.15a9.4,9.4,0,0,1,1.33,1.85,9.59,9.59,0,0,1,.9,2c.2.72.27,1.5.51,2.2a9.45,9.45,0,0,0,1,2,14.58,14.58,0,0,1,1.14,1.93,20.51,20.51,0,0,1,.95,2,16.47,16.47,0,0,1,1.06,4.36.07.07,0,0,1-.07.09.09.09,0,0,1-.07,0,16.58,16.58,0,0,1-2.39-3.8,21.64,21.64,0,0,1-.78-2.08,15.64,15.64,0,0,1-.59-2.16,9.2,9.2,0,0,0-.71-2.11c-.33-.66-.84-1.25-1.22-1.89a9.42,9.42,0,0,1-.82-2.06,8.69,8.69,0,0,1-.4-2.24.08.08,0,0,1,.08-.08Z" transform="translate(0.66 -9.13)"/><path class="cls-16" d="M448.61,362.32a12.09,12.09,0,0,1,2.33,1.08,12.91,12.91,0,0,1,2.05,1.46c.62.58,1.15,1.27,1.8,1.8a11,11,0,0,0,2.13,1.36,21.53,21.53,0,0,1,2.2,1.25c.72.45,1.42.92,2.09,1.42a21.43,21.43,0,0,1,3.62,3.57.08.08,0,0,1,0,.11.08.08,0,0,1-.08,0,20.69,20.69,0,0,1-4.48-2.4c-.69-.49-1.34-1-2-1.56a20.18,20.18,0,0,1-1.85-1.74,11.11,11.11,0,0,0-1.93-1.63c-.7-.46-1.52-.76-2.25-1.18a12.32,12.32,0,0,1-2-1.53,11.68,11.68,0,0,1-1.73-1.9.08.08,0,0,1,0-.11A.09.09,0,0,1,448.61,362.32Z" transform="translate(0.66 -9.13)"/><path class="cls-16" d="M464.83,362.44a11.68,11.68,0,0,1-1.73,1.9,12.32,12.32,0,0,1-2,1.53c-.73.42-1.55.72-2.25,1.18a11.11,11.11,0,0,0-1.93,1.63,20.18,20.18,0,0,1-1.85,1.74c-.64.54-1.29,1.07-2,1.56a20.69,20.69,0,0,1-4.48,2.4.07.07,0,0,1-.1,0,.08.08,0,0,1,0-.08,21.87,21.87,0,0,1,3.63-3.57c.66-.5,1.36-1,2.08-1.42a21.53,21.53,0,0,1,2.2-1.25,11,11,0,0,0,2.13-1.36c.65-.53,1.18-1.22,1.8-1.8a12.91,12.91,0,0,1,2.05-1.46,12.37,12.37,0,0,1,2.33-1.08.08.08,0,0,1,.09.12Z" transform="translate(0.66 -9.13)"/></svg>