<?xml version="1.0" encoding="utf-8"?>
<!-- Generator: Adobe Illustrator 22.1.0, SVG Export Plug-In . SVG Version: 6.00 Build 0)  -->
<svg version="1.1" xmlns="http://www.w3.org/2000/svg" xmlns:xlink="http://www.w3.org/1999/xlink" x="0px" y="0px"
	 viewBox="0 0 356 508" style="enable-background:new 0 0 356 508;" xml:space="preserve">
<style type="text/css">
	.st0{fill:url(#SVGID_1_);stroke:#8F6940;stroke-miterlimit:10;}
	.st1{fill:#AD7E46;stroke:#8F6940;stroke-width:0.5;stroke-miterlimit:10;}
	.st2{opacity:0.2;fill:#D3BBA1;stroke:#D3BBA1;stroke-miterlimit:10;}
	.st3{fill:#FFFFFF;}
	.st4{fill:none;stroke:#7D7D7D;stroke-width:0.5;stroke-miterlimit:10;}
	.st5{fill:#7D7D7D;}
	.st6{fill:#A5A4A4;}
	.st7{fill:#2D2F77;}
	.st8{fill:#663695;}
</style>
<g id="Layer_1">
</g>
<g id="_x3C_Layer_x3E_">
	<g>
		
			<linearGradient id="SVGID_1_" gradientUnits="userSpaceOnUse" x1="28.4085" y1="504.3549" x2="378.4001" y2="504.3549" gradientTransform="matrix(0.9629 0.27 -0.27 0.9629 106.2441 -300.8888)">
			<stop  offset="0.1898" style="stop-color:#A9773F"/>
			<stop  offset="0.3044" style="stop-color:#AD7A41"/>
			<stop  offset="0.6175" style="stop-color:#B37F44"/>
			<stop  offset="0.9688" style="stop-color:#B68045"/>
		</linearGradient>
		<path class="st0" d="M15.2,181.3c3.7,0,7.4,0.2,11.2,0.3c7.6,0.2,6.2,0.4,16.8,0.8c9.3,0.3,16.4,0.5,18.1,0.5
			c13.4,0.3,23.6,0.3,30.7,0.4c29.7,0.2,22.7,0.2,41.8,0.3c14.9,0.1,36.6,0.2,57.4,0.1c100-0.4,150-1.4,158.8-3.7
			c0.8-0.2,5-1.4,6.3,0.3c0.9,1.2-0.1,2.9-0.7,5.9c-0.9,4.1-0.5,6.4-0.5,9.5c0,7.2-2.8,25.1-4.5,32.7c-9.2,42.8-34.6,71.4-34.6,71.4
			c-22.1,24.8-47.1,34.8-58.6,39.3c-30.2,11.9-56.2,11.2-74,10.9c-28.8-0.6-49.8-6.5-54.5-7.9c-12.1-3.5-32.9-9.7-54.6-25.4
			c-1.2-0.9-3.1-2.2-5.2-4c-10.2-8.1-17.5-16.7-25.1-27.2c-1-1.4-19.5-27.3-32.6-58.5c0,0-8.4-20.1-8-31c0,0,0-0.2,0-0.5
			c0.1-1.9,0-3.3-0.1-4.3c-0.3-4-0.3-4-0.3-4c-0.6-2.3-1.8-2.6-2-4.8c-0.1-0.7-0.3-2.2,0.5-2.8c0.9-0.7,2.5,0.3,4.1,1
			C7.9,181.7,9.1,181.3,15.2,181.3z"/>
		<path class="st1" d="M12.4,204.6c3.1-1.9,11.4-7.3,17.7-5.6c2.2,0.6-13.2,7.7-16.7,7.6C9.9,206.5,10.5,205.8,12.4,204.6z"/>
		<path class="st1" d="M18.3,223.4c3.1-1.7,11.8-6.7,18-4.6c2.1,0.7-13.6,7-17,6.7C15.7,225.3,16.3,224.5,18.3,223.4z"/>
		<path class="st1" d="M26.8,243c3.1-1.7,11.8-6.7,18-4.6c2.1,0.7-13.6,7-17,6.7C24.3,244.9,24.9,244.1,26.8,243z"/>
		<path class="st1" d="M39.9,267.1c2.9-2.2,10.7-8.3,17.2-7.1c2.2,0.4-12.5,8.8-16,9C37.6,269.3,38.1,268.5,39.9,267.1z"/>
		<path class="st1" d="M56.8,288.4c2.4-2.6,9.1-10.1,15.6-10c2.3,0-10.7,10.9-14.1,11.7C54.9,290.9,55.3,290,56.8,288.4z"/>
		<path class="st1" d="M76.2,307.5c2-3,7.4-11.3,13.9-12.3c2.2-0.3-8.9,12.4-12.1,13.8S75,309.3,76.2,307.5z"/>
		<path class="st1" d="M106.5,325.1c1.2-3.4,4.3-12.9,10.3-15.4c2.1-0.9-5.4,14.3-8.2,16.4C105.8,328.2,105.8,327.3,106.5,325.1z"/>
		<path class="st1" d="M135,335c0.4-3.6,1.4-13.5,6.7-17.3c1.8-1.3-2.2,15.1-4.4,17.8C135,338.2,134.8,337.2,135,335z"/>
		<path class="st1" d="M161.1,340.7c0.1-3.6,0-13.6,4.9-17.9c1.7-1.5-0.6,15.3-2.6,18.1C161.4,343.8,161.1,342.9,161.1,340.7z"/>
		<path class="st1" d="M187.3,343.9c-0.5-3.6-2-13.4,2.2-18.4c1.5-1.7,1.6,15.2,0.1,18.3C188.1,346.9,187.6,346.1,187.3,343.9z"/>
		<path class="st1" d="M224.6,340.9c-0.9-3.5-3.7-13.1-0.2-18.6c1.2-1.9,3.5,14.9,2.4,18.2C225.7,343.8,225.2,343.1,224.6,340.9z"/>
		<path class="st1" d="M250.7,334.1c-1.7-3.2-6.6-11.8-4.5-18c0.7-2.1,6.9,13.6,6.6,17.1C252.5,336.7,251.8,336.1,250.7,334.1z"/>
		<path class="st1" d="M271.6,324.2c-2-3-7.6-11.2-6-17.6c0.6-2.2,8,13,8,16.5C273.6,326.6,272.8,326.1,271.6,324.2z"/>
		<path class="st1" d="M291.3,310.8c-2.4-2.7-9.1-10.1-8.3-16.6c0.2-2.2,9.7,11.8,10.2,15.2C293.6,312.9,292.8,312.5,291.3,310.8z"
			/>
		<path class="st1" d="M310.9,293.8c-2.9-2.2-10.9-8-11.6-14.5c-0.2-2.2,11.9,9.5,13.1,12.8C313.6,295.3,312.7,295.1,310.9,293.8z"
			/>
		<path class="st1" d="M330.5,262.6c-3.2-1.6-12.3-5.8-14.1-12c-0.6-2.2,13.5,7.1,15.3,10.1S332.5,263.6,330.5,262.6z"/>
		<path class="st1" d="M341.3,239.6c-3.4-1.1-13-3.8-15.8-9.7c-1-2,14.5,4.9,16.7,7.6C344.4,240.2,343.4,240.3,341.3,239.6z"/>
		<path class="st1" d="M347.5,219.1c-3.5-0.7-13.3-2.5-16.7-8.1c-1.2-1.9,14.9,3.4,17.4,5.9S349.7,219.5,347.5,219.1z"/>
		<path class="st1" d="M349.7,201.2c-3.6-0.3-13.5-0.9-17.5-6.1c-1.4-1.8,15.2,1.6,17.9,3.8C352.8,201.1,351.9,201.4,349.7,201.2z"
			/>
		<path class="st2" d="M63.4,199.1c-7.5,1.8-21.1,3.3-19.2,10.1s7,22.3,23.5,24.2s13.5,32.5,25.4,36.7c12,4.2,54.5,10.9,53.8-7.2
			c-0.7-18.1-9.5-30.8-3.4-41.4s5-17.8-4.5-20.4c-9.5-2.7-31.2,9.1-44,6.1S76.5,196,63.4,199.1z"/>
		<path class="st2" d="M316.8,200.5c7,3.8,4.8,14.3-6.5,39.4C299,265,290.2,280,279.4,287c-10.7,6.9-19,14.4-19.9,23.4
			s0.5,13.2-8.9,0.4c-9.4-12.7-31.4,4.3-27.5-4.1s31.5-7.6,33.6-17.7s20.5-27.1,19-36.7c-1.5-9.6,20.4-2.7,22.1-11
			c1.7-8.3-13.6-10.3-9.3-16.6c4.3-6.2,21.9-10.4,20.1-14.8S294.1,188.3,316.8,200.5z"/>
		<path class="st2" d="M157.3,303.3c-1.5,3.5-4.4,6.9-4.8,17.3c-0.5,10.3-6.4,26.7,0.7,15.5c7.1-11.2,8-25.2,14.1-24.1
			c6.1,1.1,0.1,5,12.5,4.8c12.4-0.2,12.7,3.5,18,8.1c5.3,4.5,12-1.9,6.4-11.6s-10.1-13.8-5.9-21.8c4.2-8-10.3-22.4-14.4-14
			s1.1,25.8-6.1,23.5C170.3,298.6,160.2,296.3,157.3,303.3z"/>
		<path class="st2" d="M224.9,207c-10.4,1.3-26.8,2.8-28.8,10.2c-2,7.4-6.3,11.9-17.1,17.3s-19.4,8.7,10.3,6.9s2.8,10.6,13.8,12.5
			c10.9,1.9,28.1,0.5,23.3-4.3c-4.8-4.9-14.8-5-14-8.8s24.9,3,25.3,0c0.4-3-1.8-7,5.7-6.7c7.5,0.3,21.5-2.8,14.9-5.6
			c-6.7-2.8-21.7-4.3-20.2-9.6s-10.1,0-16.3,4.8c-6.2,4.8-8-7.6-1-10.5S231,206.2,224.9,207z"/>
		<circle class="st3" cx="188.6" cy="200.6" r="8.9"/>
		<path class="st4" d="M183.6,193.3c0.9,2.1,1.6,3.9,2.1,5.2c2.4,5.9,9.6,9.1,0.4-22.6c-9.3-31.7-13-24-14.4-42.2
			c-1.4-18.2-3.2-38.3-7.9-50.5s-17.9-7-22.2-0.4c0,0,9.6-5,12.1,1.1c2.5,6.1,1.1,5.3,2.6,12.4c1.5,7.1,5.8,15,5.9,19.5
			c0.1,4.5-0.4,7.4,0.8,11c2.5,7.4,6.1,21.1,6,26.6c-0.1,5.6,2.3,14,5,18.5c1.2,2,3.1,6.2,5.1,10.8"/>
		<path class="st4" d="M141.3,83.2c0,0-10.2,0.6-8.5,3.5C134.4,89.6,138.6,85.8,141.3,83.2z"/>
		<path class="st4" d="M140.9,83.5c0,0,7.9-6.5,4.9-7.8C142.7,74.3,141.5,79.8,140.9,83.5z"/>
		<g>
			<path class="st5" d="M141,82.8c0.9-0.1,1.7,0,2.6,0.1c0.8,0.2,1.6,0.6,2.2,1.2c-0.7-0.5-1.5-0.7-2.3-0.8c-0.8-0.1-1.6,0-2.3,0.2
				l0,0c-0.2,0.1-0.4-0.1-0.5-0.3C140.7,83.1,140.8,82.9,141,82.8C141,82.8,141,82.8,141,82.8z"/>
		</g>
		<g>
			<path class="st3" d="M129.4,283.4c0,1.9-1.7,2.9-3.5,2.9l-1.6,0l0,2.7c0,1.1,0.1,1.6,0.9,1.6l0,0.1l-3.2-0.1l0-0.1
				c0.8,0,0.9-0.5,1-1.6l0.1-7c0-1.1-0.1-1.6-0.9-1.6l0-0.1l3.8,0.1C127.8,280.4,129.5,281.5,129.4,283.4z M128,283.4
				c0-2-1.1-2.9-2.1-2.9l-0.5,0c-0.8,0-0.9,0.5-1,1.6l-0.1,4.2l1.4,0C126.8,286.3,128,285.4,128,283.4z"/>
			<path class="st3" d="M139.6,280.6L139.6,280.6c-0.8,0.1-0.9,0.6-1,1.7l-0.1,5.4c0,2.6-1.7,3.3-3.4,3.3c-1.6,0-3.7-0.8-3.7-3.4
				l0.1-5.4c0-1.1-0.1-1.6-0.9-1.6l0-0.1l3.2,0.1l0,0.1c-0.8,0-0.9,0.5-1,1.6l-0.1,5.6c0,1.9,1,3.1,2.4,3.1c2.3,0,3.3-1.2,3.4-3.2
				l0.1-5.4c0-1.1-0.1-1.6-0.9-1.6l0-0.1L139.6,280.6z"/>
			<path class="st3" d="M151.4,289.5c0,1.1,0.1,1.6,0.9,1.6l0,0.1l-3.2-0.1l0-0.1c0.8,0,0.9-0.5,1-1.6l0.1-8.5l-3.9,8h0h0l-0.1,0
				c0,0-3.6-7-4-7.4l-0.1,6.6c0,1.8,0.8,2.8,1.8,2.8l0,0.1l-3.7-0.1l0-0.1c1,0,1.9-1,1.9-2.8l0.1-6.7c-0.3-0.4-0.7-0.7-1.2-0.7
				l0-0.1l2.3,0l3.6,6.9l3.3-6.8l2.2,0l0,0.1c-0.8,0-0.9,0.5-1,1.6L151.4,289.5z"/>
			<path class="st3" d="M161.1,284c0,1.9-1.7,2.9-3.5,2.9l-1.6,0l0,2.7c0,1.1,0.1,1.6,0.9,1.6l0,0.1l-3.2-0.1l0-0.1
				c0.8,0,0.9-0.5,1-1.6l0.1-7c0-1.1-0.1-1.6-0.9-1.6l0-0.1l3.8,0.1C159.5,281,161.2,282,161.1,284z M159.7,283.9
				c0-2-1.1-2.9-2.1-2.9l-0.5,0c-0.8,0-0.9,0.5-1,1.6l-0.1,4.2l1.4,0C158.5,286.8,159.7,285.9,159.7,283.9z"/>
			<path class="st3" d="M172.3,291.4L172.3,291.4l-3,0l-3.9-5.2c-0.3,0.2-0.5,0.5-0.7,0.6l0,2.8c0,1.1,0.1,1.6,0.9,1.6l0,0.1
				l-3.2-0.1l0-0.1c0.8,0,0.9-0.5,1-1.6l0.1-7c0-1.1-0.1-1.6-0.9-1.6l0-0.1l3.2,0.1l0,0.1c-0.8,0-0.9,0.5-1,1.6l-0.1,4.1
				c0.9-0.8,2.7-2.4,3.7-3.4c1.1-1.1,1.2-2.2,0.1-2.3l0-0.1l3.2,0l0,0.1c-1,0-2.7,1.7-3.4,2.4c-0.5,0.5-1.2,1.2-2,1.8
				c0.2,0.2,2.5,3.3,3.2,4.1C170.1,290.3,171.3,291.4,172.3,291.4z"/>
			<path class="st3" d="M175.4,289.9c0,1.1,0.1,1.6,0.9,1.6l0,0.1l-3.2-0.1l0-0.1c0.8,0,0.9-0.5,1-1.6l0.1-7c0-1.1-0.1-1.6-0.9-1.6
				l0-0.1l3.2,0.1l0,0.1c-0.8,0-0.9,0.5-1,1.6L175.4,289.9z"/>
			<path class="st3" d="M188.4,281.4L188.4,281.4c-1,0.1-1.8,1.1-1.9,2.8l-0.1,7.5l-0.2,0c-0.1-0.1-6.6-8.7-6.9-9.1l-0.1,6.1
				c0,1.8,0.8,2.8,1.8,2.8l0,0.1l-3.7-0.1l0-0.1c1,0,1.8-1,1.9-2.8l0.1-6.2c-0.5-0.6-1.1-1.2-1.7-1.2l0-0.1l2.5,0l6.4,8.5l0.1-5.5
				c0-1.8-0.8-2.8-1.8-2.8l0-0.1L188.4,281.4z"/>
			<path class="st3" d="M199.7,284.6c0,1.9-1.7,2.9-3.5,2.9l-1.6,0l0,2.7c0,1.1,0.1,1.6,0.9,1.6l0,0.1l-3.2-0.1l0-0.1
				c0.8,0,0.9-0.5,1-1.6l0.1-7c0-1.1-0.1-1.6-0.9-1.6l0-0.1l3.8,0.1C198.1,281.6,199.8,282.6,199.7,284.6z M198.3,284.6
				c0-2-1.1-2.9-2.1-2.9l-0.5,0c-0.8,0-0.9,0.5-1,1.6l-0.1,4.2l1.4,0C197.1,287.4,198.3,286.5,198.3,284.6z"/>
			<path class="st3" d="M208.7,292L208.7,292l-3.3,0l0-0.1c0.7,0,0.8-0.3,0.4-1.4c-0.1-0.4-0.5-1.5-1-2.7l-3.6-0.1
				c-0.3,0.6-0.4,1.1-0.5,1.2c-0.5,1.2-0.4,2.8,0.6,2.8l0,0.1l-3.2,0l0-0.1c1-0.1,1.7-0.8,2.3-2.3c0.5-1.3,3.3-7.9,3.3-7.9l0.1,0
				c0,0,2.7,7.4,3.1,8.4C207.4,291,207.8,292,208.7,292z M204.9,287.9c-0.8-2.1-1.6-4.5-1.7-4.5c-0.6,1.4-1.3,3.2-1.8,4.5
				L204.9,287.9z"/>
			<path class="st3" d="M216.5,289.7c0,1.8-1.5,2.7-3.6,2.7c-0.8,0-1.6-0.2-2.1-0.3c-0.5-0.1-1.2-0.3-1.3,0.7l-0.1,0l0.1-3.7l0.1,0
				c0,0.9,0.9,3.3,3.3,3.3c1.3,0,2.3-0.8,2.3-2c0-2.6-5.4-2.9-5.3-6c0-1.8,1.6-2.6,3.1-2.5c0.8,0,1.5,0.3,2.2,0.5
				c0.5,0.2,0.8,0,0.8-0.8l0.1,0l-0.1,3.7l-0.1,0c0-1.8-1.1-3.3-2.9-3.3c-1,0-2,0.5-2,2C211,286.2,216.5,286.6,216.5,289.7z"/>
			<path class="st3" d="M226.4,284.2L226.4,284.2c-0.5-1-1.1-2.2-2.6-2.2l-0.3,0c-0.8,0-0.9,0.5-1,1.6l-0.1,7c0,1.1,0.1,1.6,0.9,1.6
				l0,0.1l-3.2-0.1l0-0.1c0.8,0,0.9-0.5,1-1.6l0.1-7c0-1.1-0.1-1.6-0.9-1.6l-0.3,0c-1.5,0-2.2,1.1-2.6,2.1l-0.1,0l0.4-2.2l8.3,0.1
				L226.4,284.2z"/>
			<path class="st3" d="M229.9,290.7c0,1.1,0.1,1.6,0.9,1.6l0,0.1l-3.2-0.1l0-0.1c0.8,0,0.9-0.5,1-1.6l0.1-7c0-1.1-0.1-1.6-0.9-1.6
				l0-0.1l3.2,0.1l0,0.1c-0.8,0-0.9,0.5-1,1.6L229.9,290.7z"/>
			<path class="st3" d="M240.1,290.1l-0.6,2.5l-7.2-0.1l0-0.1c0.8,0,0.9-0.5,1-1.6l0.1-7c0-1.1-0.1-1.6-0.9-1.6l0-0.1l6.7,0.1l0.5,2
				l-0.1,0c-0.4-1-1.2-2-2.7-2l-1.2,0c-0.8,0-0.9,0.5-1,1.6l-0.1,3.5l1.1,0c1.2,0,2.1-0.8,2.1-1.8l0.1,0l-0.1,3.7l-0.1,0
				c0-1-0.9-1.8-2-1.9l-1.1,0l-0.1,3.4c0,1.1,0.1,1.6,0.9,1.6l1.7,0C238.6,292.5,239.5,291.1,240.1,290.1L240.1,290.1z"/>
			<path class="st3" d="M248.1,290.2c0,1.8-1.5,2.7-3.6,2.7c-0.8,0-1.6-0.2-2.1-0.3c-0.5-0.1-1.2-0.3-1.3,0.7l-0.1,0l0.1-3.7l0.1,0
				c0,0.9,0.9,3.3,3.3,3.3c1.3,0,2.3-0.8,2.3-2c0-2.6-5.4-2.9-5.3-6c0-1.8,1.6-2.6,3.1-2.5c0.8,0,1.5,0.3,2.2,0.5
				c0.5,0.2,0.8,0,0.8-0.8l0.1,0l-0.1,3.7l-0.1,0c0-1.8-1.1-3.3-2.9-3.3c-1,0-2,0.5-2,2C242.6,286.7,248.1,287.1,248.1,290.2z"/>
		</g>
		<g>
			<path d="M176.3,258.7c0,0,0.7,0.3,1.8,0.3c0,0,0.5-0.7,0.2-1.1c-0.2-0.4,0.2-0.3,0.3-0.7c0.1-0.4-0.3-1.2-0.1-1.5
				s0.5-2.8,1.1-4.3c0.6-1.5,1.2-3.7,1.3-4.2c0,0,0.5,0,0.4-0.6l-0.4-0.1c0,0,1-2.4,1.1-3.4c0.1-1,0.7-1.7,1-3.1s0.9-2.5,1.6-4.9
				c0.8-2.5,0.2-1.4,1.3-5.1c1.1-3.7,1.5-4.1,2.1-6.3s0.9-2.6,0.8-2.8s-0.9,1.8-1.2,2.4c-0.3,0.6-0.5,1.8-1.3,3.7
				c-0.8,1.9-1.5,3.3-2.3,5.9c-0.8,2.6-1.6,4.2-2.3,6.7s-0.8,1.8-1.2,3.5c-0.3,1.6-1.1,2.5-1.2,2.8l-0.7-0.2c0,0-0.5,0.6,0.2,0.8
				c0,0-0.4,2.1-0.7,3.1c-0.3,1.4-1.1,3-1.6,4.3c-0.2,0.5-0.1,0.3-0.4,1.4c0,0-0.1,0.2-0.2,0.6c-0.1,0.4-0.1,0.7-0.1,0.8
				c0.1,0.3,0.4,0.4,0.3,0.5c0,0.1-0.2,0.1-0.3,0.2c-0.1,0.1-0.1,0.2,0,0.5C176.2,258.2,176.2,258.4,176.3,258.7z"/>
			<g>
				<path class="st6" d="M177.4,257c-0.1-0.8,0-1.6,0.1-2.4c0.1-0.8,0.7-1.4,0.9-2.2c0.3-0.7,0.5-1.5,0.5-2.3c0.4-0.7,1.1-1.2,1.2-2
					c-0.1,0.4-0.3,0.8-0.5,1.1c-0.2,0.3-0.5,0.6-0.7,1c0,0.8-0.2,1.6-0.5,2.3c-0.3,0.8-0.8,1.4-0.9,2.2
					C177.4,255.4,177.4,256.2,177.4,257z"/>
			</g>
			<g>
				<path class="st6" d="M179.2,249c0.3-0.5,0.6-1.1,0.7-1.7c0-0.1,0.1-0.3,0.2-0.4c0.1-0.2,0.2-0.3,0.3-0.4
					c0.2-0.2,0.5-0.4,0.5-0.7c0,0.3-0.2,0.6-0.5,0.8c-0.3,0.2-0.3,0.5-0.4,0.8C179.8,248,179.6,248.5,179.2,249z"/>
			</g>
			<g>
				<path class="st6" d="M181.3,243.8c0.3-1.2,0.6-2.4,1-3.6c0.4-1.2,1.3-2.1,1.5-3.3c0.1-0.6,0.2-1.2,0.3-1.8
					c0.2-0.6,0.5-1.1,0.7-1.7l1.1-3.5c-0.3,1.2-0.7,2.4-1,3.5c-0.2,0.6-0.5,1.1-0.6,1.7c-0.2,0.6-0.2,1.2-0.3,1.8
					c-0.3,1.2-1.2,2.2-1.6,3.3C181.9,241.4,181.6,242.6,181.3,243.8z"/>
			</g>
			<g>
				<path class="st6" d="M178.1,255.1c0.2-0.5,0.4-1,0.6-1.5c0.2-0.5,0.2-1,0.3-1.6c0.1-0.5,0.4-1,0.6-1.5c0.1-0.2,0.2-0.5,0.2-0.8
					c0.1-0.3,0.5-0.4,0.4-0.7c0.1,0.3-0.3,0.4-0.3,0.7c0,0.3-0.1,0.5-0.2,0.8c-0.2,0.5-0.4,1-0.5,1.5c-0.1,0.5-0.2,1.1-0.4,1.6
					C178.5,254.2,178.3,254.7,178.1,255.1z"/>
			</g>
			<g>
				<path class="st6" d="M180.4,245.6c0.1-0.3,0.3-0.5,0.6-0.6c0.3-0.2,0.3-0.5,0.4-0.7c0.2-0.5,0.5-1,0.6-1.6
					c0.1-0.5,0-1.1,0.3-1.7c0.1-0.3,0.3-0.5,0.4-0.8c0.1-0.2,0.3-0.5,0.2-0.8c0.1,0.3-0.1,0.6-0.2,0.8c-0.1,0.3-0.3,0.5-0.4,0.8
					c-0.2,0.5-0.2,1.1-0.3,1.7c-0.1,0.6-0.4,1.1-0.6,1.6c-0.1,0.2-0.1,0.6-0.4,0.7C180.8,245.2,180.5,245.3,180.4,245.6z"/>
			</g>
			<g>
				<g>
					<g>
						<g>
							<path class="st7" d="M199.4,223.3C199.4,223.2,199.4,223.2,199.4,223.3C199.4,223.3,199.4,223.3,199.4,223.3z"/>
							<path class="st7" d="M200.3,223.3L200.3,223.3c0,0,0-0.1,0-0.2C200.3,223.2,200.3,223.3,200.3,223.3z"/>
							<path class="st7" d="M199.7,222.5c0.1,0,0.5,0,0.6,0.3l0,0c0,0,0,0.1,0,0.1C200.2,222.6,199.8,222.5,199.7,222.5z"/>
							<path class="st7" d="M199.1,222.8c0,0-0.1,0.1,0.1-0.1C199.2,222.7,199.2,222.7,199.1,222.8
								C199.2,222.7,199.1,222.8,199.1,222.8z"/>
							<path class="st7" d="M199.2,222.7C199.3,222.6,199.1,222.8,199.2,222.7L199.2,222.7z"/>
							<path class="st7" d="M199,223.3c0-0.1,0-0.1,0-0.2C199,223.1,198.9,223.3,199,223.3C198.9,223.4,198.9,223.4,199,223.3z"/>
							<path class="st7" d="M199,223.4L199,223.4C199,223.4,199,223.3,199,223.4z"/>
							<path class="st7" d="M199,223.1c0,0.1,0,0.1,0,0.2C199,223.3,199,223.3,199,223.1C199,223.3,199,223.2,199,223.1z"/>
							<path class="st7" d="M199,223C199,223,199.1,222.8,199,223C199.2,222.7,199.1,222.8,199,223z"/>
							<path class="st7" d="M199.6,222.6c0,0,0.1,0,0.1,0c0,0,0.1,0,0.1,0C199.8,222.5,199.6,222.5,199.6,222.6z"/>
							<path class="st7" d="M199.3,224.2C199.3,224.2,199.3,224.2,199.3,224.2c-0.1-0.1-0.1-0.1-0.1-0.1
								C199.2,224.1,199.3,224.2,199.3,224.2z"/>
							<path class="st7" d="M199.3,224.1c0,0,0.1,0.1,0.2,0.1C199.3,224.2,199.3,224.1,199.3,224.1z"/>
							<path class="st7" d="M199,223.4c0-0.1,0-0.2,0-0.3C199,223.3,199,223.4,199,223.4L199,223.4z"/>
							<path class="st7" d="M200,224.4c0,0-0.1,0-0.1,0C200,224.4,200,224.4,200,224.4L200,224.4z"/>
							<path class="st7" d="M200.5,224.2C200.4,224.2,200.6,224.1,200.5,224.2c0.1-0.1,0.2-0.2,0.3-0.2
								C200.7,224,200.6,224.1,200.5,224.2z"/>
							<path class="st7" d="M200.8,223.8c0,0-0.1,0.1-0.1,0.1C200.8,223.9,200.8,223.9,200.8,223.8z"/>
							<path class="st7" d="M199.7,224.3c0,0,0,0,0.1,0L199.7,224.3C199.8,224.4,199.8,224.3,199.7,224.3z"/>
							<path class="st7" d="M199.8,224.4L199.8,224.4c0.1,0,0.1,0,0.2,0C200,224.4,199.9,224.4,199.8,224.4z"/>
							<path class="st7" d="M199.7,224.3L199.7,224.3C199.7,224.3,199.7,224.3,199.7,224.3z"/>
							<path class="st7" d="M199.1,223.9C199.2,224,199.3,224.2,199.1,223.9C199.1,223.9,199.2,224,199.1,223.9z"/>
							<path class="st7" d="M199.6,224.3c-0.1,0-0.1,0-0.2-0.1c0,0,0,0,0,0C199.5,224.3,199.6,224.3,199.6,224.3z"/>
							<path class="st7" d="M199.7,224.3L199.7,224.3C199.7,224.3,199.7,224.3,199.7,224.3L199.7,224.3z"/>
							<path class="st7" d="M200.6,224.1c0.1-0.1,0.1-0.1,0.2-0.2C200.7,224,200.7,224,200.6,224.1
								C200.6,224.1,200.5,224.2,200.6,224.1z"/>
							<path class="st7" d="M200.2,224.3L200.2,224.3C200.3,224.3,200.2,224.3,200.2,224.3z"/>
							<polygon class="st7" points="201,222.9 201,222.9 201,222.9 							"/>
							<path class="st7" d="M200.5,224.1c-0.1,0-0.1,0.1-0.2,0.1C200.4,224.2,200.5,224.2,200.5,224.1
								C200.6,224.1,200.6,224.1,200.5,224.1z"/>
							<path class="st7" d="M201,223.6c0,0,0,0.1-0.1,0.1C200.9,223.7,201,223.6,201,223.6z"/>
							<path class="st7" d="M200.3,224.3L200.3,224.3C200.3,224.3,200.3,224.3,200.3,224.3z"/>
							<path class="st7" d="M200.3,224.3c0,0,0.1,0,0.1,0C200.3,224.2,200.3,224.3,200.3,224.3C200.3,224.3,200.3,224.3,200.3,224.3
								z"/>
							<path class="st7" d="M200.9,222.6c0,0,0.1,0.2,0.1,0.4c0,0.2,0,0.1,0-0.1c0,0,0,0-0.1-0.2c0,0.1,0.1,0.4,0,0.3
								C201,222.7,201,222.8,200.9,222.6c0.1,0.1-0.1-0.2-0.1-0.2C200.8,222.5,200.9,222.5,200.9,222.6
								C200.9,222.6,200.9,222.5,200.9,222.6z"/>
							<path class="st7" d="M201,223.3L201,223.3c0,0,0-0.1,0-0.2c0-0.1,0-0.2,0-0.2C201,223,201,223.2,201,223.3L201,223.3z"/>
							<path class="st7" d="M200.9,223.7c0-0.1,0.1-0.2,0-0.1c-0.1,0.2-0.1,0.2-0.1,0.3C201,223.5,200.8,223.9,200.9,223.7
								c0,0.1-0.1,0.1-0.1,0.2C200.8,223.8,200.9,223.8,200.9,223.7L200.9,223.7L200.9,223.7L200.9,223.7
								C200.9,223.7,200.9,223.7,200.9,223.7L200.9,223.7L200.9,223.7C201,223.6,200.9,223.7,200.9,223.7L200.9,223.7L200.9,223.7
								c0.1-0.1,0.1-0.2,0.1-0.3C201,223.4,201,223.5,200.9,223.7z"/>
							<path class="st7" d="M199.3,224.1L199.3,224.1C199.3,224.2,199.4,224.2,199.3,224.1z"/>
							<path class="st7" d="M199.4,224.2c0,0,0,0-0.1-0.1c-0.1-0.1,0,0,0,0c0,0-0.1-0.1,0,0l0,0c0.1,0.1,0.3,0.2,0.3,0.2
								C199.6,224.3,199.5,224.3,199.4,224.2z"/>
							<path class="st7" d="M200.3,224.3c0.1,0,0.2-0.1,0.3-0.2c0,0-0.1,0.1-0.1,0.1l0,0C200.3,224.3,200.3,224.2,200.3,224.3z"/>
							<path class="st7" d="M201,222.8L201,222.8c0,0,0-0.1,0-0.1C201,222.8,201,222.8,201,222.8z"/>
							<path class="st7" d="M200.9,222.5L200.9,222.5C200.8,222.4,200.8,222.4,200.9,222.5L200.9,222.5z"/>
							<path class="st7" d="M207.7,217.9C207.7,217.9,207.8,217.9,207.7,217.9C207.7,217.9,207.7,217.9,207.7,217.9z"/>
							<path class="st7" d="M207.4,218.4L207.4,218.4C207.4,218.4,207.4,218.4,207.4,218.4z"/>
							<path class="st7" d="M201.9,223.2c0-0.1,0-0.3,0-0.3l0,0C201.8,223,201.9,223.1,201.9,223.2z"/>
							<path class="st7" d="M202.5,217.5L202.5,217.5c-0.1,0-0.1,0-0.1,0C202.4,217.5,202.4,217.5,202.5,217.5z"/>
							<path class="st7" d="M202.6,217.4l0.2,0C202.7,217.4,202.6,217.4,202.6,217.4z"/>
							<path class="st7" d="M206.4,215L206.4,215C206.4,215,206.4,215,206.4,215z"/>
							<path class="st7" d="M198.2,223.9c0,0.1,0,0.2,0.1,0.3C198.3,224,198.3,224,198.2,223.9z"/>
							<path class="st7" d="M207.9,218.3C207.9,218.2,207.9,218.2,207.9,218.3C207.9,218.2,207.9,218.3,207.9,218.3z"/>
							<path class="st7" d="M198.5,224.5C198.4,224.5,198.4,224.4,198.5,224.5c-0.1-0.1-0.1-0.2-0.1-0.3
								C198.4,224.3,198.4,224.4,198.5,224.5z"/>
							<path class="st7" d="M194.3,216.9C194.3,216.9,194.3,217,194.3,216.9C194.3,217,194.3,217,194.3,216.9z"/>
							<path class="st7" d="M191,218.7c0,0,0.1-0.1,0.1-0.1C191.1,218.6,191,218.7,191,218.7z"/>
							<path class="st7" d="M199.4,221.9C199.5,221.9,199.4,221.9,199.4,221.9L199.4,221.9z"/>
							<path class="st7" d="M199.8,221.9C199.8,221.9,199.8,221.9,199.8,221.9C199.8,221.9,199.8,221.9,199.8,221.9z"/>
							<path class="st7" d="M199.1,225.1L199.1,225.1C199.1,225.1,199.1,225.1,199.1,225.1z"/>
							<path class="st7" d="M199.5,221.9c0,0-0.1,0-0.1,0C199.4,221.9,199.4,221.9,199.5,221.9z"/>
							<path class="st7" d="M199.5,221.9C199.5,221.9,199.5,221.9,199.5,221.9C199.6,221.9,199.6,221.9,199.5,221.9z"/>
							<path class="st7" d="M199.3,221.9c0,0,0.1,0,0.1,0c0,0,0,0,0,0C199.3,221.9,199.3,221.9,199.3,221.9z"/>
							<path class="st7" d="M200.7,214.2C200.7,214.2,200.7,214.2,200.7,214.2C200.6,214.3,200.6,214.3,200.7,214.2z"/>
							<polygon class="st7" points="201.1,221 201.1,221.1 201.1,221 							"/>
							<path class="st7" d="M201,220.7c0.1,0.1,0.1,0.2,0.1,0.3l0-0.1L201,220.7z"/>
							<path class="st7" d="M207.6,216.5c0,0.1,0,0.1,0,0.2C207.5,216.4,207.4,216.3,207.6,216.5c0,0,0.2,0.8,0.2,0.8l0,0.1
								c0,0,0,0,0-0.1c0,0.3,0.1,0.2,0,0.5c0,0.1-0.1,0.2-0.1,0.1c0,0.1,0,0.2-0.1,0.2c0,0.1,0,0,0,0c-0.1,0.1-0.1,0.2-0.2,0.3l0,0
								c0,0-0.1,0.1-0.2,0.2c-0.1,0,0,0,0,0c-0.1,0-0.1,0.1-0.2,0.1c-0.1,0,0.1-0.1,0.2-0.1c-0.2,0-0.1,0.1-0.6,0.2
								c0.1,0,0.1,0,0.2-0.1c-0.1,0-0.3,0-0.5,0c0.1,0,0.5,0,0.2,0.1c-0.1,0-0.2,0-0.3,0c0,0-0.1,0-0.3,0l0,0c-0.2,0-0.2,0-0.3,0
								c-0.2,0-0.2-0.1-0.2-0.1c-0.3-0.1,0.2,0.1-0.1,0c-0.2-0.1-0.4-0.2-0.7-0.4c-0.2-0.1,0,0,0,0l-0.2-0.1c0,0,0,0,0,0
								c-0.1-0.1,0,0-0.2-0.1c-0.1,0-0.4-0.2-0.7-0.3c-0.1,0,0,0,0,0c-0.4-0.1-0.3-0.1-0.6-0.2c-0.1,0-0.2-0.1-0.3-0.1
								c0.2,0.1-0.1,0-0.3,0c0.1,0,0.1,0,0.2,0c-0.1,0-0.2,0-0.3,0c0,0,0,0,0,0l-0.1,0c-0.1,0-0.1,0,0,0l0.1,0c0.1,0,0.2,0,0.2-0.1
								c0,0-0.1,0-0.1,0c0,0,0,0,0,0c0,0,0,0-0.1,0l-0.1,0l0,0c-0.2,0-0.3,0-0.5,0.1c-0.3,0.1-0.6,0.3-0.8,0.8c0-0.1,0,0,0-0.1
								c0.1-0.1,0.2-0.4,0.5-0.5c-0.1,0.1-0.1,0.1-0.1,0c-0.1,0.1-0.2,0.2-0.3,0.4c0,0-0.1,0.1-0.1,0.2c0.1-0.1-0.1,0.4-0.1,0.6
								c0,0,0,0,0-0.3c-0.1,0.3,0,0.3,0,0.6c0-0.1,0-0.1,0-0.1c0,0.1,0,0.5,0,0.4l0-0.1c0,0.4,0.2,1.2,0.2,1.2c0,0-0.1,0-0.1-0.1
								l0.3,0.6c0-0.1,0,0.2-0.1-0.1c0,0.1,0,0.2,0.1,0.4c0-0.1,0-0.2,0-0.1c0,0.2,0,0.2,0.1,0.4c0-0.1,0,0,0.1,0.1c0,0,0,0-0.1,0
								l0.1,0.3c0-0.1,0,0,0,0.1c0,0,0.1,0.3,0.1,0.4l0-0.2c0.1,0.4,0.2,0.4,0.2,0.8c0,0-0.1-0.1,0,0.1c0,0.1,0.1,0.4,0,0.8l0,0.1
								l-0.1,0.3c0.1-0.2,0.2-0.6,0.1-0.9c0,0.1,0,0,0,0.3c0,0.1,0-0.1,0-0.2c0,0.2,0,0.3-0.1,0.5c0,0-0.1,0.4-0.1,0.3
								c0.1-0.2,0.2-0.3,0.2-0.5c0,0,0,0.3-0.2,0.6c-0.1,0.1,0-0.1,0-0.1c0,0-0.2,0.3-0.3,0.3c0,0,0.1-0.1,0.1-0.1
								c-0.1,0.1-0.2,0.2-0.5,0.3c-0.1,0-0.2,0.1-0.2,0.1c0.1,0,0.2,0,0.1,0.1c0,0-0.5,0.1-0.6,0.1c-0.1,0,0.2-0.1,0.1-0.1
								c0,0-0.1,0-0.1,0c-0.1,0,0,0-0.2,0c0,0-0.4,0-0.1,0c-0.2,0-0.2,0-0.4-0.1c0.1,0-0.2,0-0.4-0.1c0,0,0,0,0,0
								c-0.3-0.2-0.4-0.4-0.6-0.8c0,0-0.1-0.2,0-0.1c0,0,0-0.1-0.1-0.2c-0.1-0.2,0.1,0.2,0,0.1c0,0-0.1-0.3-0.1-0.4
								c0,0.1,0.1,0.4,0.1,0.5c0,0-0.2-0.3-0.2-0.6c0-0.3,0-0.1,0-0.2c0-0.3,0.1-0.4,0.1-0.5c0-0.1,0.1-0.2,0.2-0.4
								c0.1-0.1,0,0,0.1,0c-0.2,0.2-0.2,0.3-0.3,0.5c0-0.1,0-0.1,0.1-0.2c0,0.1-0.1,0.2-0.1,0.3c0-0.1,0.1-0.3,0.3-0.5
								c0.2-0.2,0.5-0.4,0.7-0.4c0.1,0,0.2,0,0.1,0c0,0-0.1,0-0.1,0c-0.1,0,0.3-0.1,0.1,0c0.2,0,0.4-0.1,0.7,0l0,0c0,0-0.2,0-0.3,0
								c0.1,0,0.4,0.1,0.5,0.1c-0.1,0-0.1-0.1-0.2-0.1c0.2,0,0.4,0.1,0.6,0.3c-0.1-0.1,0,0-0.2-0.2c0.1,0.1-0.1,0-0.2-0.1
								c-0.1-0.1-0.3-0.1-0.1-0.1c-0.2-0.1-0.3-0.1-0.5-0.1c0,0,0.1,0-0.1,0c0,0,0,0,0,0l0,0l0,0c0,0,0,0,0,0c0,0,0.1,0,0.1,0
								c-0.1,0-0.4,0.1-0.5,0.1c-0.1,0,0,0,0,0c-0.1,0-0.1,0-0.1,0.1c0,0-0.3,0.1,0,0c-0.1,0-0.2,0.1-0.2,0.1
								c-0.1,0.1-0.3,0.3-0.3,0.4c-0.1,0.1-0.1,0.3-0.1,0.2c0,0.1-0.1,0.3-0.1,0.4l0,0c0,0.4,0.1,0.8,0.2,1.2
								c0.1,0.1,0.1,0.2,0.3,0.4l0,0c0.1,0.1,0.4,0.4,0.5,0.4c0.1,0.2,0.8,0.3,1.1,0.2l0,0c0.2,0,0.4-0.1,0.6-0.2l0,0
								c0.2-0.1,0.5-0.3,0.7-0.6c0,0-0.1,0.1-0.1,0.1c0.3-0.3,0.4-0.8,0.4-1.2c0-0.1,0-0.1,0-0.2c0,0,0,0,0,0c0,0,0,0,0,0
								c0,0,0-0.1,0-0.1c0,0,0,0.1,0,0.1c0-0.1,0-0.2-0.1-0.3l0,0c0,0,0,0,0,0c0-0.1,0-0.1,0,0c0,0,0-0.1,0-0.1
								c0-0.1-0.1-0.3-0.1-0.4c0-0.1-0.2-0.5-0.2-0.6c0,0,0,0,0,0c0-0.1-0.1-0.2-0.1-0.3l0-0.1l-0.1-0.2c0-0.2,0-0.2,0-0.1
								c-0.1-0.4-0.1-0.2-0.2-0.6l0,0c0-0.1-0.1-0.3-0.1-0.4c0-0.2-0.3-1.3,0-1.9c-0.1,0.1,0.2-0.2,0.2-0.3c0,0,0.1-0.1,0,0
								c0.2-0.2,0.4-0.3,0.6-0.4c0,0-0.1,0,0,0c0,0,0.1,0,0.1,0c0,0,0,0-0.1,0c0.3-0.1,0.3-0.1,0.4-0.2c0.2,0,0.3,0,0.4,0
								c0.1,0,0.2,0-0.1,0c0.1,0,0.7,0.2,0.7,0.1c0.1,0,0.1,0.1,0.2,0.1c0.2,0.1,0.3,0.1,0.5,0.2l-0.1,0c0.1,0,0.2,0.1,0.4,0.2l0,0
								c0.4,0.3,0.2,0.1,0.6,0.3l0,0c0.1,0,0.3,0.3,0.6,0.3l-0.1,0c0.1,0,0.4,0.2,0.6,0.2c0,0-0.1,0-0.1,0c0.4,0.1,0.1,0,0.4,0
								c0.1,0-0.1,0,0.1,0c0.1,0,0.6-0.1,0.9-0.2c-0.1,0-0.1,0,0,0c0.2-0.1,0.6-0.3,0.6-0.5c0,0,0,0,0,0c0.1-0.2,0.1-0.6,0.1-0.7
								c0.1-0.2-0.2-1-0.2-1c-0.1-0.2-0.1-0.3-0.2-0.5l0,0c-0.2-0.3-0.2-0.4-0.3-0.5c0-0.1,0,0,0,0c-0.3-0.4-0.3-0.4-0.6-0.7l0-0.1
								c-0.1-0.1-0.5-0.5-1-0.7c0,0,0,0,0.1,0c-0.2-0.1-0.5-0.2-0.8-0.3c-0.3-0.1-0.5-0.1-0.6-0.1c-0.1,0-0.2,0-0.3,0
								c0.4,0-0.1,0,0.1,0.1c-0.2,0-0.4-0.1-0.2-0.1l0,0c0.1-0.1-0.6-0.1-0.5-0.1c-0.9,0-1.7,0.1-2.5,0.3l0.1,0
								c-0.1,0-0.2,0-0.3,0.1c-0.1,0-0.1,0,0.1-0.1c-0.1,0-0.3,0.1-0.3,0.1c-0.4,0.1,0.1-0.1,0-0.1l-0.2,0l0,0
								c-0.1,0.1-0.1,0.1-0.4,0.1c-0.2,0-0.1,0-0.1,0c0,0,0,0-0.1,0l-0.3,0.1l0.2,0c-0.1,0.1-0.3,0.1-0.2,0.1
								c-0.3,0-1.3,0.4-1.4,0.4c-0.2,0.1-0.4,0.2-0.7,0.3c0.1,0,0.1,0-0.1,0.1c0-0.1-0.4,0.1-0.6,0.1c0.2,0-0.6,0.3-0.3,0.2
								c-0.2,0.1,0,0-0.2,0c-0.4,0.2-0.9,0.4-1.4,0.7c0,0,0.1,0,0,0.1l-0.3,0.1c-0.1,0.1,0,0.1-0.3,0.2c0,0,0.1,0,0,0
								c-0.5,0.2-1,0.6-1.5,0.9c-0.5,0.3-0.9,0.7-1.5,1c0.1-0.1,0.1,0,0,0.1c0.1,0,0,0,0.1,0l-0.4,0.2c0,0.1-0.4,0.3-0.4,0.4
								l0.1-0.1c-0.1,0.2,0.3,0,0.4,0.1c0.1-0.2,0.5-0.3,0.8-0.6c0.1,0,0,0.1,0,0.1c0.1-0.1,0.1-0.2,0.3-0.3l0,0
								c0.5-0.4,0.7-0.5,1.3-0.8l-0.1,0c0.1-0.1,0.2-0.1,0.2-0.1c0.1-0.1-0.3,0.2-0.3,0.1c0.2,0,0.9-0.5,1-0.5
								c0.2-0.1-0.1,0,0.1-0.1l0.1,0l0-0.1c0.1-0.1,0.2-0.1,0.2-0.1c0,0-0.1,0.1-0.1,0.1c0.2-0.1,0.5-0.3,0.5-0.3l-0.2,0.1
								c0.5-0.3,1.2-0.6,1.7-0.9l0,0c0.4-0.2,0.3-0.1,0.8-0.3l0,0c0.1-0.1,0.2-0.1,0.3-0.2c-0.1,0.1,0.2,0,0.1,0
								c0.4-0.2,0.2-0.1,0.5-0.3l0.1,0c0.1-0.1,0.1-0.1,0.3-0.2c-0.2,0.1,0.2,0,0,0.1c0.5-0.1,0.7-0.3,0.9-0.3
								c0.2-0.1-0.4,0.1-0.3,0c-0.1,0,0.2-0.1,0.3-0.2c0.2,0,0.3,0,0.7-0.1c0,0,0,0-0.1,0c0.2,0,0.3-0.1,0.5-0.1
								c0.1-0.1,0.2-0.1,0.2-0.1l-0.4,0.1c0.2-0.1,0.4-0.2,0.7-0.2c0,0-0.1,0-0.2,0.1c0.1,0,0.2-0.1,0.3-0.1c0,0.1-0.4,0.1-0.6,0.2
								c0.1,0,0.4-0.2,0.3-0.1c0.1-0.1,0.4-0.1,0.6-0.2l0,0c0,0,0.1,0,0.2-0.1l-0.1,0.1c0.2-0.1,0.4,0,0.6-0.1c-0.4,0.1-0.1,0-0.3,0
								c0.5-0.1,0.3,0,0.9,0c-0.1,0-0.3,0-0.2,0c0.1,0,0.3,0,0.3,0c0.4,0-0.1,0,0.1-0.1c0.1,0,0.2,0,0.4,0l0,0c0.5,0,0.1-0.1,0.5,0
								l-0.2,0l0.2,0l0,0c0.2,0,0.3,0,0.5,0c0,0,0-0.1,0.2,0c0.1,0-0.1,0,0.2,0.1c-0.1,0-0.1,0-0.3,0c0,0-0.1,0-0.1,0
								c0.1,0.1,0.4,0.1,0.5,0.1c0,0-0.1,0-0.1,0l0.4,0.1c0.1,0,0,0,0,0c0.1,0,0.1,0,0.3,0.1c0,0,0,0-0.2,0c0.1,0,0.3,0.1,0.4,0.1
								c0,0,0.2,0.1,0.1,0.1c0.2,0.1,0.5,0.2,0.7,0.4c0,0,0,0,0.1,0.1c0.2,0.2,0.3,0.4,0.6,0.6l0.1,0.2c0.1,0.2-0.1-0.2,0.2,0.1
								c0.2,0.2,0,0.1,0.1,0.2c0.1,0.1,0.2,0.3,0.3,0.6C207.6,216.6,207.6,216.5,207.6,216.5z M206.6,218.7c0.1,0,0.2-0.1,0.2,0
								C206.7,218.7,206.7,218.7,206.6,218.7z M202,217.5c0,0,0.1,0,0.2,0C202.1,217.5,202.1,217.5,202,217.5z M198.5,222.4
								L198.5,222.4C198.4,222.5,198.5,222.4,198.5,222.4z M198.8,222.2C198.8,222.1,198.8,222.1,198.8,222.2
								c-0.1,0-0.1,0.1-0.1,0.1C198.7,222.2,198.7,222.2,198.8,222.2z M199.8,214.2L199.8,214.2
								C199.7,214.3,199.7,214.2,199.8,214.2z"/>
							<path class="st7" d="M202.6,217.4C202.6,217.4,202.6,217.4,202.6,217.4C202.6,217.4,202.6,217.4,202.6,217.4z"/>
							<path class="st7" d="M206.4,215L206.4,215C206.4,215,206.4,215,206.4,215L206.4,215z"/>
							<path class="st7" d="M200.2,225.3l0.1,0C200.3,225.3,200.2,225.3,200.2,225.3z"/>
							<path class="st7" d="M200.3,222l-0.2-0.1C200.2,222,200.2,222,200.3,222C200.2,222,200.2,222,200.3,222z"/>
							<path class="st7" d="M201,223.3C201,223.4,201,223.4,201,223.3L201,223.3C201,223.3,201,223.2,201,223.3z"/>
							<path class="st7" d="M200.4,222.1c0,0,0.1,0.1,0.2,0.1l0,0C200.7,222.2,200.5,222.2,200.4,222.1z"/>
							<path class="st7" d="M200.7,222.3C200.7,222.3,200.7,222.3,200.7,222.3C200.8,222.4,200.7,222.3,200.7,222.3z"/>
							<path class="st7" d="M199.1,222C199.2,222,199.1,222,199.1,222C199.2,221.9,198.8,222.1,199.1,222z"/>
							<polygon class="st7" points="200.5,222.2 200.5,222.1 200.4,222.1 							"/>
							<path class="st7" d="M199.5,221.9c0.1,0,0.1,0,0.2,0c0,0,0,0,0.1,0C199.7,221.9,199.5,221.9,199.5,221.9z"/>
							<path class="st7" d="M199.8,221.9c0.1,0,0.1,0,0.2,0C199.9,222,199.9,221.9,199.8,221.9z"/>
							<path class="st7" d="M200.2,222L200.2,222c-0.1,0-0.2-0.1-0.2-0.1C200.1,222,200.2,222,200.2,222z"/>
							<path class="st7" d="M198.2,223.5c0,0.1,0,0.2,0,0.2c0,0,0,0,0-0.1C198.2,223.5,198.2,223.4,198.2,223.5z"/>
							<path class="st7" d="M198.3,222.8C198.3,222.8,198.3,222.8,198.3,222.8l0,0.1L198.3,222.8z"/>
							<path class="st7" d="M198.3,223.4C198.3,223.5,198.3,223.8,198.3,223.4C198.3,223.5,198.3,223.2,198.3,223.4z"/>
							<polygon class="st7" points="200.5,225.3 200.4,225.3 200.5,225.4 							"/>
							<path class="st7" d="M201.7,223c0,0.3,0,0.1,0.1,0.3c0,0.1,0-0.2,0-0.1C201.7,223,201.7,222.9,201.7,223z"/>
							<path class="st7" d="M201.7,223.1C201.7,223.2,201.7,223.2,201.7,223.1C201.7,223.2,201.7,223.2,201.7,223.1z"/>
							<polygon class="st7" points="190.4,219 190.3,219.1 190.4,219.1 							"/>
							<path class="st7" d="M190.2,219.3L190.2,219.3l-0.1,0.1C190.1,219.4,190.2,219.3,190.2,219.3z"/>
							<path class="st7" d="M206.1,218.7L206.1,218.7c0,0,0,0,0.1,0L206.1,218.7z"/>
							<polygon class="st7" points="207.7,217.7 207.7,217.7 207.8,217.7 							"/>
							<path class="st7" d="M207.2,216c0,0.1,0.1,0.1,0.1,0.2C207.3,216.1,207.3,216,207.2,216z"/>
						</g>
					</g>
				</g>
			</g>
			<g>
				<g>
					<g>
						<g>
							<path class="st7" d="M184.5,220.3C184.6,220.3,184.6,220.3,184.5,220.3C184.5,220.4,184.5,220.3,184.5,220.3z"/>
							<path class="st7" d="M185,220.1L185,220.1c0,0,0-0.1,0-0.1C185,220,185,220,185,220.1z"/>
							<path class="st7" d="M184.3,219.8c0.1-0.1,0.3-0.1,0.5-0.1l0,0c0,0,0,0,0.1,0C184.7,219.6,184.4,219.7,184.3,219.8z"/>
							<path class="st7" d="M184,220.2c0,0,0,0.1,0-0.1C184,220.1,184,220.1,184,220.2C184,220.1,184,220.2,184,220.2z"/>
							<path class="st7" d="M184,220.1C184,220,184,220.2,184,220.1L184,220.1z"/>
							<path class="st7" d="M184.1,220.6c0,0,0-0.1-0.1-0.1C184,220.5,184.1,220.6,184.1,220.6C184.1,220.7,184.1,220.6,184.1,220.6
								z"/>
							<path class="st7" d="M184.2,220.7L184.2,220.7C184.1,220.6,184.1,220.6,184.2,220.7z"/>
							<path class="st7" d="M184.1,220.5c0,0,0,0.1,0.1,0.1C184.1,220.6,184.1,220.6,184.1,220.5
								C184.1,220.6,184.1,220.6,184.1,220.5z"/>
							<path class="st7" d="M184,220.4C184,220.3,184,220.2,184,220.4C184,220.1,184,220.2,184,220.4z"/>
							<path class="st7" d="M184.2,219.8C184.2,219.8,184.3,219.8,184.2,219.8c0.1-0.1,0.1-0.1,0.2-0.1
								C184.3,219.7,184.2,219.8,184.2,219.8z"/>
							<path class="st7" d="M184.8,220.9C184.8,220.9,184.8,220.9,184.8,220.9c-0.1,0-0.1,0-0.2,0
								C184.7,220.9,184.8,220.9,184.8,220.9z"/>
							<path class="st7" d="M184.8,220.9c0,0,0.1,0,0.1,0C184.8,220.9,184.8,220.9,184.8,220.9z"/>
							<path class="st7" d="M184.2,220.7c-0.1-0.1-0.1-0.1-0.1-0.2C184.1,220.6,184.2,220.7,184.2,220.7L184.2,220.7z"/>
							<path class="st7" d="M185.3,220.6L185.3,220.6C185.3,220.6,185.3,220.6,185.3,220.6L185.3,220.6z"/>
							<path class="st7" d="M185.4,220.2C185.4,220.3,185.4,220.1,185.4,220.2c0-0.1,0-0.2,0-0.3C185.4,220,185.4,220.1,185.4,220.2
								z"/>
							<path class="st7" d="M185.4,219.8c0,0,0,0.1,0,0.1C185.4,219.9,185.4,219.8,185.4,219.8z"/>
							<path class="st7" d="M185.1,220.7C185.1,220.7,185.2,220.7,185.1,220.7L185.1,220.7L185.1,220.7z"/>
							<path class="st7" d="M185.2,220.7L185.2,220.7C185.2,220.7,185.3,220.6,185.2,220.7C185.3,220.6,185.2,220.7,185.2,220.7z"/>
							<path class="st7" d="M185.1,220.7L185.1,220.7C185.1,220.7,185.1,220.7,185.1,220.7z"/>
							<path class="st7" d="M184.5,220.9C184.6,220.9,184.8,220.9,184.5,220.9C184.6,220.9,184.7,220.9,184.5,220.9z"/>
							<path class="st7" d="M185.1,220.8c0,0-0.1,0.1-0.1,0.1c0,0,0,0,0,0C185,220.8,185,220.8,185.1,220.8z"/>
							<polygon class="st7" points="185.1,220.7 185.1,220.8 185.1,220.8 							"/>
							<path class="st7" d="M185.4,220.1c0-0.1,0-0.1,0-0.2C185.4,219.9,185.4,220,185.4,220.1C185.4,220.1,185.4,220.2,185.4,220.1
								z"/>
							<path class="st7" d="M185.4,220.4L185.4,220.4C185.4,220.4,185.4,220.4,185.4,220.4z"/>
							<polygon class="st7" points="184.8,219.3 184.8,219.3 184.8,219.3 							"/>
							<path class="st7" d="M185.4,220.1c0,0.1,0,0.1,0,0.1C185.4,220.2,185.4,220.2,185.4,220.1
								C185.4,220.1,185.4,220.1,185.4,220.1z"/>
							<path class="st7" d="M185.2,219.6c0,0,0,0.1,0.1,0.1C185.3,219.7,185.2,219.6,185.2,219.6z"/>
							<path class="st7" d="M185.4,220.4L185.4,220.4C185.4,220.4,185.4,220.4,185.4,220.4z"/>
							<path class="st7" d="M185.4,220.4C185.4,220.3,185.4,220.3,185.4,220.4C185.4,220.3,185.4,220.4,185.4,220.4L185.4,220.4z"/>
							<path class="st7" d="M184.5,219.3c0,0,0.2,0,0.3,0.1c0.1,0.1,0.1,0-0.1-0.1c0,0,0,0-0.2,0c0.1,0,0.3,0.1,0.2,0.1
								C184.6,219.3,184.7,219.3,184.5,219.3c0.1,0-0.2,0-0.2,0C184.4,219.3,184.5,219.3,184.5,219.3
								C184.5,219.3,184.5,219.3,184.5,219.3z"/>
							<path class="st7" d="M185.1,219.4L185.1,219.4c0,0,0,0-0.1-0.1c-0.1,0-0.1,0-0.1,0C184.9,219.3,185,219.4,185.1,219.4
								L185.1,219.4z"/>
							<path class="st7" d="M185.3,219.7C185.3,219.7,185.2,219.5,185.3,219.7c0,0.1,0,0,0.1,0.1
								C185.2,219.5,185.4,219.9,185.3,219.7c0,0.1,0.1,0.1,0.1,0.2C185.3,219.8,185.3,219.7,185.3,219.7L185.3,219.7L185.3,219.7
								L185.3,219.7C185.3,219.7,185.3,219.7,185.3,219.7L185.3,219.7C185.3,219.7,185.3,219.7,185.3,219.7
								C185.2,219.6,185.3,219.7,185.3,219.7L185.3,219.7L185.3,219.7c0-0.1-0.1-0.2-0.2-0.2C185.2,219.5,185.2,219.6,185.3,219.7z"
								/>
							<path class="st7" d="M184.8,220.9L184.8,220.9C184.8,220.9,184.8,220.9,184.8,220.9z"/>
							<path class="st7" d="M184.9,220.8c0,0,0,0-0.1,0c-0.1,0,0,0,0,0c0,0-0.1,0,0,0l0,0c0.1,0,0.3-0.1,0.2-0.1
								C185,220.8,185,220.8,184.9,220.8z"/>
							<path class="st7" d="M185.4,220.4c0-0.1,0-0.2,0-0.2c0,0,0,0.1,0,0.1l0,0C185.4,220.3,185.4,220.3,185.4,220.4z"/>
							<path class="st7" d="M184.8,219.3L184.8,219.3c0,0-0.1,0-0.1,0C184.7,219.3,184.7,219.3,184.8,219.3z"/>
							<polygon class="st7" points="184.4,219.2 184.4,219.2 184.3,219.2 							"/>
							<path class="st7" d="M178.9,221.9L178.9,221.9C178.9,221.8,178.9,221.8,178.9,221.9z"/>
							<path class="st7" d="M179.2,222.3L179.2,222.3C179.2,222.3,179.2,222.3,179.2,222.3z"/>
							<path class="st7" d="M184.2,217.5c-0.1-0.1-0.2-0.1-0.2-0.1l0,0C184.1,217.5,184.1,217.5,184.2,217.5z"/>
							<path class="st7" d="M182.5,221.5L182.5,221.5c0-0.1,0-0.1,0-0.1C182.5,221.5,182.5,221.5,182.5,221.5z"/>
							<path class="st7" d="M182.6,221.6l0,0.1C182.6,221.7,182.6,221.7,182.6,221.6z"/>
							<path class="st7" d="M178.4,219L178.4,219C178.3,219,178.4,219,178.4,219z"/>
							<path class="st7" d="M184.8,221.3c0.1,0,0.2,0,0.2-0.1C184.9,221.3,184.8,221.3,184.8,221.3z"/>
							<path class="st7" d="M179.3,221.9C179.2,221.9,179.2,221.8,179.3,221.9C179.2,221.9,179.3,221.9,179.3,221.9z"/>
							<path class="st7" d="M185.3,221.1C185.3,221.1,185.3,221.1,185.3,221.1c-0.1,0.1-0.2,0.1-0.2,0.1
								C185.1,221.2,185.2,221.2,185.3,221.1z"/>
							<path class="st7" d="M186.9,216.4C186.9,216.4,186.9,216.4,186.9,216.4C186.9,216.4,186.9,216.4,186.9,216.4z"/>
							<path class="st7" d="M188.6,219c0,0,0-0.1-0.1-0.1C188.6,218.9,188.6,218.9,188.6,219z"/>
							<path class="st7" d="M183.5,220.1C183.5,220,183.5,220,183.5,220.1L183.5,220.1z"/>
							<path class="st7" d="M183.6,219.7C183.6,219.7,183.6,219.8,183.6,219.7C183.6,219.8,183.6,219.7,183.6,219.7z"/>
							<path class="st7" d="M185.6,220.5L185.6,220.5C185.6,220.5,185.6,220.5,185.6,220.5z"/>
							<path class="st7" d="M183.5,219.9C183.5,220,183.5,220,183.5,219.9C183.5,220,183.5,220,183.5,219.9z"/>
							<path class="st7" d="M183.5,220C183.5,219.9,183.5,219.9,183.5,220C183.5,219.9,183.5,219.9,183.5,220z"/>
							<path class="st7" d="M183.5,220.1c0,0,0-0.1,0-0.1C183.5,220,183.5,220.1,183.5,220.1C183.5,220.1,183.5,220.1,183.5,220.1z"
								/>
							<path class="st7" d="M181.5,215.4L181.5,215.4C181.6,215.3,181.6,215.4,181.5,215.4z"/>
							<polygon class="st7" points="182.6,218 182.6,218 182.6,218 							"/>
							<path class="st7" d="M182.6,218.2c0-0.1,0-0.2,0.1-0.2l-0.1,0C182.6,218.1,182.6,218.2,182.6,218.2z"/>
							<path class="st7" d="M178.4,220.7l0,0.2C178.3,220.6,178.3,220.5,178.4,220.7c0,0,0.1,0.7,0.2,0.7l0,0.1c0,0,0,0,0-0.1
								c0.1,0.2,0.1,0.1,0.2,0.4c0,0.1,0.1,0.2,0,0.1l0.1,0.2c0,0.1,0,0,0,0c0.1,0.1,0.1,0.2,0.2,0.3l0,0c0.1,0,0.1,0.1,0.2,0.1
								c0.1,0.1,0,0,0,0l0.1,0.1c0,0.1-0.1,0-0.2-0.1c0.1,0.2,0.1,0.1,0.4,0.4l-0.2-0.1c0.1,0.1,0.2,0.2,0.4,0.3
								c-0.1,0-0.3-0.3-0.1-0.2c0,0,0.1,0.1,0.2,0.1c0,0,0.1,0.1,0.2,0.1l0,0c0.2,0,0.1,0,0.2,0c0.2,0,0.2,0.1,0.2,0.1
								c0.3,0-0.2-0.1,0.1,0c0.2,0,0.4,0,0.6-0.1c0.2,0,0,0,0,0c0,0,0.1-0.1,0.1-0.1c0,0,0,0,0,0c0.1-0.1,0,0,0.1-0.1
								c0,0,0.3-0.2,0.4-0.4c0,0,0,0,0,0c0.1-0.3,0.1-0.2,0.2-0.5l0.1-0.2c-0.1,0.1,0-0.1,0-0.2c0,0.1,0,0.1-0.1,0.1
								c0-0.1,0-0.2,0-0.3c0,0,0,0,0,0l0-0.1c0-0.1,0,0,0,0l0,0.1c0,0.1,0,0.1,0,0.1c0,0,0-0.1,0-0.1c0,0,0,0,0,0c0,0,0,0,0-0.1
								l0-0.1l0,0c0-0.1,0-0.2,0.1-0.4c0-0.3-0.1-0.5-0.1-0.9c0,0.1,0,0,0.1,0c0,0.1,0.1,0.3,0.1,0.5c0-0.1,0-0.1,0-0.1
								c0-0.1,0-0.3-0.1-0.4c0,0,0-0.1,0-0.2c0,0.1-0.1-0.3-0.1-0.4c0,0,0,0,0.1,0.2c0-0.2-0.1-0.3-0.1-0.5c0,0,0,0.1,0,0.1
								c0-0.1,0-0.4,0-0.3l0,0c0-0.3-0.1-0.9,0-0.9c0,0,0,0,0,0.1c0-0.2,0-0.4,0.1-0.5c0,0.1,0.1,0,0,0.2c0-0.1,0.1-0.1,0.2-0.2
								c0,0-0.1,0.1-0.1,0c0.2-0.1,0.1-0.1,0.3-0.2c-0.1,0,0-0.1,0.1-0.1c0,0,0,0,0,0.1c0.1,0,0.2-0.1,0.3-0.1c-0.1,0,0,0,0.1,0
								c0,0,0.2,0,0.3,0l-0.1,0c0.3,0.1,0.3,0,0.6,0.2c0,0-0.1,0,0,0.1c0.1,0,0.3,0.1,0.5,0.3l0,0l0.1,0.2c-0.1-0.1-0.4-0.4-0.6-0.4
								c0.1,0.1,0,0,0.2,0.1c0,0-0.1-0.1-0.1-0.1c0.1,0.1,0.2,0.2,0.3,0.3c0,0,0.2,0.2,0.2,0.2c-0.1-0.1-0.2-0.2-0.3-0.3
								c0,0,0.2,0.1,0.4,0.4c0,0.1-0.1,0-0.1,0c0,0,0.2,0.2,0.2,0.3l-0.1-0.1c0.1,0.1,0.2,0.2,0.2,0.4c0,0.1,0.1,0.2,0.1,0.2
								c0-0.1,0-0.2,0.1-0.1c0,0,0.1,0.4,0.1,0.4c0,0.1-0.1-0.2-0.1-0.1c0,0,0,0.1,0,0.1c0,0.1,0,0,0,0.1c0,0,0,0.3,0,0.1
								c0,0.2,0,0.2,0,0.3c0-0.1,0,0.2,0,0.3c0,0,0,0,0,0c-0.1,0.3-0.2,0.4-0.5,0.6c0,0-0.2,0.1-0.1,0c0,0-0.1,0-0.2,0.1
								c-0.2,0,0.2-0.1,0.1,0c0,0-0.2,0.1-0.4,0.1c0,0,0.3,0,0.4-0.1c0,0-0.2,0.1-0.5,0.1c-0.3,0-0.1,0-0.1,0
								c-0.4-0.2-0.4-0.1-0.6-0.4c-0.1-0.1,0,0,0-0.1c0.1,0.2,0.2,0.3,0.3,0.3c0,0-0.1-0.1-0.1-0.1c0,0,0.2,0.1,0.2,0.2
								c-0.1,0-0.2-0.1-0.3-0.3c-0.1-0.2-0.2-0.4-0.2-0.6c0-0.1,0-0.2,0-0.1l0,0.1c0,0.1,0-0.2,0-0.1c0-0.2,0-0.3,0.2-0.5l0,0
								c0,0-0.1,0.1-0.1,0.2c0-0.1,0.2-0.3,0.3-0.3c0,0-0.1,0.1-0.1,0.1c0.1-0.1,0.3-0.2,0.5-0.2c-0.1,0,0,0-0.2,0
								c0.1,0-0.1,0-0.2,0.1c-0.1,0.1-0.2,0.1-0.1,0.1c-0.1,0.1-0.2,0.2-0.3,0.3c0,0,0-0.1,0,0.1c0,0,0,0,0,0l0,0l0,0c0,0,0,0,0,0
								c0,0,0-0.1,0-0.1c0,0.1-0.1,0.3,0,0.4c0,0.1,0,0,0,0c0,0,0,0.1,0,0.1c0,0,0.1,0.3,0,0c0,0.1,0,0.1,0.1,0.2
								c0,0.1,0.1,0.3,0.2,0.3c0.1,0.1,0.2,0.2,0.1,0.1c0.1,0.1,0.2,0.1,0.3,0.1l0,0c0.3,0.1,0.7,0.1,1-0.1c0.1-0.1,0.2-0.1,0.3-0.3
								l0,0c0.1-0.1,0.2-0.4,0.2-0.5c0.1-0.1,0-0.7-0.1-0.9l0,0c0-0.2-0.1-0.3-0.2-0.5l0,0c-0.1-0.2-0.2-0.4-0.4-0.6
								c0,0,0.1,0.1,0.1,0.1c-0.2-0.3-0.5-0.5-0.7-0.7c-0.1-0.1-0.1-0.1-0.2-0.1c0,0,0,0,0,0l0,0c0,0-0.1,0-0.1-0.1c0,0,0.1,0,0.1,0
								c-0.1,0-0.1-0.1-0.2-0.1l0,0c0,0,0,0,0,0c-0.1,0-0.1,0,0,0c0,0-0.1,0-0.1,0c-0.1,0-0.2,0-0.3-0.1c-0.1,0-0.5,0-0.5,0.1
								c0,0,0,0,0,0c-0.1,0-0.2,0.1-0.3,0.1l0,0c-0.1,0.1-0.1,0.1-0.1,0.2c-0.1,0.1-0.1,0.1-0.1,0c-0.1,0.3-0.1,0.2-0.2,0.5l0,0
								c0,0.1,0,0.2,0,0.3c0,0.2,0.1,1,0.1,1.5c0-0.1,0,0.2,0,0.3c0,0,0,0.1,0,0c0,0.3,0,0.4,0,0.6c0,0,0-0.1,0,0c0,0,0,0.1,0,0.1
								c0,0,0,0,0-0.1c0,0.3,0,0.3,0,0.3c0,0.1-0.1,0.2,0,0.3c0,0-0.1,0.1,0,0c0,0.1-0.2,0.5-0.2,0.6c0,0-0.1,0.1-0.1,0.1
								c-0.1,0.2-0.1,0.2-0.3,0.3l0,0c0,0.1-0.1,0.1-0.2,0.2l0,0c-0.3,0.1-0.1,0.1-0.5,0.2l0,0c0,0.1-0.3,0-0.5,0l0.1,0
								c-0.1,0-0.3-0.1-0.4-0.2c0,0,0,0,0.1,0c-0.3-0.1,0,0-0.3,0c0,0,0.1,0-0.1-0.1c-0.1,0-0.4-0.2-0.5-0.4c0,0,0,0.1,0,0
								c-0.1-0.1-0.2-0.4-0.4-0.5c0,0,0,0,0,0c-0.1-0.1-0.2-0.3-0.3-0.4c0-0.1-0.3-0.7-0.2-0.8c0-0.1-0.1-0.3-0.1-0.4l0,0
								c0-0.2,0-0.3-0.1-0.4c0-0.1,0,0,0,0c0-0.4,0-0.4,0-0.7l0,0c0-0.1,0.2-0.5,0.3-0.8c0,0,0,0,0,0c0.1-0.4,0.5-0.8,0.5-1
								c0-0.1,0.1-0.2,0.1-0.2c-0.2,0.3,0-0.1-0.1,0c0.1-0.1,0.3-0.3,0.2-0.1l0,0c0,0.1,0.3-0.3,0.3-0.3c0.5-0.5,1-0.8,1.6-1.1
								l-0.1,0l0.2-0.1c0.1,0,0.1,0-0.1,0.1c0.1,0,0.2-0.1,0.2-0.1c0.3-0.1-0.1,0.1,0,0.1l0.1,0l0,0c0.1-0.1,0.1-0.1,0.3-0.1
								c0.1,0,0.1,0,0.1,0c0,0,0,0,0.1,0l0.3,0l-0.1,0c0.1,0,0.3,0,0.1-0.1c0.2,0,1,0,1.2,0c0.2,0,0.3,0,0.5,0.1
								c-0.1,0-0.1-0.1,0.1,0c-0.1,0.1,0.3,0.2,0.4,0.3c-0.1-0.1,0.5,0.2,0.3,0c0.1,0.1,0,0,0.1,0.1c0.3,0.1,0.7,0.4,1,0.7
								c0,0,0-0.1,0.1,0c0,0.1,0.1,0.1,0.1,0.2c0.1,0.1,0.1,0,0.2,0.1c0,0,0-0.1,0,0c0.6,0.6,1.3,1.2,1.7,2.1c0-0.1,0-0.1,0.1,0
								c0-0.1,0,0,0,0l0.2,0.4c0.1,0,0.2,0.3,0.3,0.3l-0.1-0.1c0.1,0.1,0-0.3,0.1-0.3c-0.2-0.1-0.2-0.5-0.4-0.6c0-0.1,0.1,0,0.1,0
								c-0.1,0-0.1-0.1-0.2-0.3l0,0c-0.3-0.4-0.4-0.6-0.8-1l0,0.1c-0.1-0.1-0.1-0.1-0.1-0.2c-0.1-0.1,0.2,0.2,0.1,0.2
								c0-0.2-0.6-0.6-0.6-0.7c-0.1-0.1,0,0.1-0.1,0l0-0.1l-0.1,0c-0.1-0.1-0.1-0.1-0.1-0.2c0,0,0.1,0,0.1,0.1
								c-0.1-0.1-0.3-0.3-0.4-0.3l0.1,0.1c-0.4-0.3-0.9-0.6-1.4-0.8l0,0c-0.3-0.1-0.3-0.1-0.6-0.3l0,0c-0.1,0-0.2,0-0.3-0.1
								c0.1,0-0.2-0.1,0-0.1c-0.4,0-0.2,0-0.5,0l-0.1,0c-0.1,0-0.1,0-0.3,0c0.2,0-0.1-0.1,0.1-0.1c-0.4-0.1-0.6,0-0.8,0
								c-0.2,0.1,0.4,0,0.3,0c0.1,0-0.2,0.1-0.3,0.1c-0.1,0-0.2-0.1-0.6,0l0.1,0c-0.1,0-0.2,0.1-0.4,0.1c-0.1,0.1-0.2,0.1-0.2,0.1
								l0.3-0.1c-0.2,0.1-0.3,0.2-0.6,0.3c0,0,0.1-0.1,0.1-0.1c-0.1,0-0.1,0.1-0.2,0.1c0-0.1,0.3-0.2,0.5-0.3
								c-0.1,0-0.3,0.2-0.3,0.1c-0.1,0.1-0.3,0.1-0.5,0.3l0,0c0,0-0.1,0.1-0.1,0.1l0.1-0.1c-0.1,0.1-0.3,0.2-0.5,0.3
								c0.3-0.2,0.1,0,0.2-0.1c-0.4,0.3-0.3,0.1-0.7,0.4c0-0.1,0.2-0.2,0.1-0.1c-0.1,0.1-0.2,0.1-0.2,0.2c-0.2,0.2,0.1,0,0,0.1
								c-0.1,0.1-0.1,0.1-0.2,0.2l0,0c-0.3,0.3,0,0.1-0.3,0.4l0.1-0.1c0,0-0.1,0.1-0.1,0.1l0-0.1c-0.1,0.2-0.1,0.2-0.3,0.4
								c0,0,0,0.1-0.1,0.2c-0.1,0.1,0-0.1-0.1,0.1c0-0.1,0-0.1,0.1-0.2c0,0,0-0.1,0-0.1c-0.1,0.1-0.2,0.3-0.2,0.3c0,0,0-0.1,0.1-0.1
								c0,0.1-0.1,0.2-0.1,0.3c0,0,0,0,0,0c0,0.1,0,0.1-0.1,0.2c0,0,0,0,0-0.2c0,0.1-0.1,0.2-0.1,0.3c0,0-0.1,0.1-0.1,0.1
								c-0.1,0.2-0.1,0.5-0.2,0.7c0,0,0,0,0,0.1c0,0.2-0.1,0.4-0.1,0.7l0,0.2c0,0.2,0-0.2,0.1,0.1c0,0.3,0,0.1,0,0.2
								c0,0.1,0.1,0.3,0.2,0.6C178.4,220.8,178.4,220.7,178.4,220.7z M179.8,222.9c0,0-0.1-0.1-0.2-0.1
								C179.7,222.8,179.8,222.8,179.8,222.9z M182.6,221.2c0,0,0,0.1,0,0.2C182.6,221.3,182.6,221.3,182.6,221.2z M183.7,220.8
								L183.7,220.8C183.7,220.9,183.7,220.9,183.7,220.8z M183.6,220.6C183.6,220.6,183.6,220.6,183.6,220.6c0,0.1,0,0.1,0,0.1
								C183.6,220.6,183.6,220.6,183.6,220.6z M182.3,215.4L182.3,215.4C182.4,215.4,182.3,215.4,182.3,215.4z"/>
							<path class="st7" d="M182.6,221.6C182.6,221.6,182.6,221.6,182.6,221.6C182.6,221.7,182.6,221.7,182.6,221.6z"/>
							<polygon class="st7" points="178.4,219 178.4,219 178.4,219 							"/>
							<path class="st7" d="M185.6,219.6L185.6,219.6C185.5,219.5,185.5,219.5,185.6,219.6z"/>
							<path class="st7" d="M183.8,219.4c0,0-0.1,0.1-0.1,0.1C183.8,219.5,183.8,219.5,183.8,219.4
								C183.8,219.4,183.8,219.4,183.8,219.4z"/>
							<path class="st7" d="M185.1,219.5C185.1,219.5,185.1,219.5,185.1,219.5L185.1,219.5C185.1,219.5,185,219.4,185.1,219.5z"/>
							<path class="st7" d="M184,219.4c0,0,0.1,0,0.2-0.1c0,0,0,0,0,0C184.2,219.3,184.1,219.3,184,219.4z"/>
							<path class="st7" d="M184.2,219.3C184.2,219.3,184.3,219.3,184.2,219.3C184.3,219.3,184.3,219.3,184.2,219.3z"/>
							<path class="st7" d="M183.5,220.3C183.5,220.2,183.5,220.3,183.5,220.3C183.5,220.2,183.5,220.6,183.5,220.3z"/>
							<polygon class="st7" points="184.1,219.3 184,219.4 184,219.4 							"/>
							<path class="st7" d="M183.6,219.9c0-0.1,0-0.1,0.1-0.2c0,0,0,0,0,0C183.6,219.8,183.6,219.9,183.6,219.9z"/>
							<path class="st7" d="M183.6,219.7c0,0,0-0.1,0.1-0.1C183.7,219.7,183.6,219.7,183.6,219.7z"/>
							<path class="st7" d="M183.9,219.5L183.9,219.5c-0.1,0.1-0.1,0.1-0.1,0.1C183.8,219.5,183.8,219.5,183.9,219.5z"/>
							<path class="st7" d="M184.5,221.3c0.1,0,0.1,0,0.2,0C184.7,221.3,184.6,221.3,184.5,221.3
								C184.5,221.3,184.4,221.3,184.5,221.3z"/>
							<path class="st7" d="M184,221C184,221,184,221.1,184,221L184,221L184,221z"/>
							<path class="st7" d="M184.4,221.2C184.5,221.2,184.7,221.2,184.4,221.2C184.5,221.2,184.3,221.2,184.4,221.2z"/>
							<polygon class="st7" points="185.5,219.3 185.5,219.4 185.6,219.4 							"/>
							<path class="st7" d="M184,217.6c0.2,0.1,0.1,0,0.2,0.1c0,0-0.1-0.1-0.1-0.1C184,217.6,183.9,217.6,184,217.6z"/>
							<path class="st7" d="M184.1,217.7C184.1,217.7,184.1,217.7,184.1,217.7C184.1,217.7,184.1,217.7,184.1,217.7z"/>
							<polygon class="st7" points="188.8,219.4 188.9,219.5 188.9,219.4 							"/>
							<path class="st7" d="M189,219.6L189,219.6L189,219.6C189.1,219.7,189,219.6,189,219.6z"/>
							<path class="st7" d="M180.2,223.1L180.2,223.1c0,0,0,0-0.1-0.1L180.2,223.1z"/>
							<polygon class="st7" points="178.8,221.7 178.8,221.7 178.8,221.7 							"/>
							<path class="st7" d="M178.3,220.2c0,0.1,0,0.1,0,0.2C178.3,220.2,178.3,220.1,178.3,220.2z"/>
						</g>
					</g>
				</g>
			</g>
			<path class="st8" d="M174.3,249.5l-44.2-0.7c-1.2,0-2.1-1-2.1-2.2l0.3-15.9c0-1.2,1-2.1,2.2-2.1l48.2,0.8"/>
			<path class="st8" d="M191.1,229.6l47.7,0.8c1.2,0,2.1,1,2.1,2.2l-0.3,15.9c0,1.2-1,2.1-2.2,2.1l-51.2-0.8"/>
			<g>
				<path class="st3" d="M198.1,234.9c-0.2,0.3-0.7,0.3-0.9-0.1c-0.2-0.4,0.1-1.1-0.4-1.1c-1,0-1.2,0.9-1.2,1.9l0,1.6l1.1,0l0,0.1
					l-1.1,0l-0.1,5.4c0,1.1,0.1,1.6,0.9,1.6l0,0.1l-3,0l0-0.1c0.8,0,0.9-0.5,0.9-1.6c0.1-4.8,0.1-5.1,0.1-5.4l-0.9,0l0-0.1l0.9,0
					c0-0.9,0-1.5,0-1.5c0-1.7,1.2-2.1,2.2-2c0.6,0,1,0.2,1.1,0.2C198.2,234.1,198.3,234.6,198.1,234.9z"/>
				<path class="st3" d="M204.2,237.9c0,0.5-0.5,0.6-0.9,0.4c-0.4-0.2-0.4-0.7-0.9-0.6c-0.5,0.1-1.1,1-1.3,1.8l-0.1,3.3
					c0,1.1,0.1,1.6,0.9,1.6l0,0.1l-3,0l0-0.1c0.8,0,0.9-0.5,0.9-1.6l0.1-3.8c0-1.1-0.1-1.6-0.9-1.6l0-0.1l2.4,0l0,0.1
					c-0.1,0.1-0.2,0.7-0.3,2c0.4-1.3,1.5-2.1,2.1-2.2C203.8,237.1,204.2,237.4,204.2,237.9z"/>
				<path class="st3" d="M207.9,239.7c-0.1,0.4-0.1,1-0.1,1.5c0.2,2.2,1.3,3.5,2.9,3.5c0.9,0,1.7-0.5,2.3-1l0,0.2
					c-0.5,0.4-1.2,0.8-2.3,0.9c-2.1,0.1-4-1.1-4.2-3.5c-0.1-2.3,1.6-3.8,3.6-3.9c1.7-0.1,3,0.9,3.3,2.5L207.9,239.7z M206.5,241.2
					 M207.9,239.7l4.2,0.1c-0.1-1.2-0.5-2.3-2-2.4C209,237.3,208.2,238.3,207.9,239.7z"/>
				<path class="st3" d="M221.1,243c0,1.2-1,1.9-2.7,1.9c-1.3,0-2.1-0.8-2.4-1.2c-0.3-0.5-0.2-1,0.1-1.2c0.4-0.1,0.8,0.2,0.7,0.5
					c0,0.4-0.5,0.7-0.1,1.1c0.3,0.3,0.7,0.6,1.6,0.6c0.9,0,1.6-0.6,1.6-1.3c0-1.8-3.8-1.9-3.8-4.4c0-1.1,1-1.7,2.5-1.7
					c1.3,0,1.8,0.6,2.1,1.1c0.3,0.5,0.2,1-0.1,1.2c-0.4,0.1-0.8-0.2-0.7-0.5c0-0.4,0.5-0.7,0.1-1.1c-0.3-0.3-0.5-0.5-1.3-0.5
					c-0.9,0-1.4,0.6-1.4,1.3C217.2,240.6,221.1,240.9,221.1,243z"/>
				<path class="st3" d="M231.4,244.9L231.4,244.9l-3,0l0-0.1c0.8,0,0.9-0.5,0.9-1.6l0.1-3.4c0-1-0.1-2.2-1.5-2.2
					c-0.6,0-1.5,0.5-1.9,1.4l-0.1,4.1c0,1.1,0.1,1.6,0.9,1.6l0,0.1l-3,0l0-0.1c0.8,0,0.9-0.5,0.9-1.6l0.1-7.4c0-1.1-0.1-1.6-0.9-1.6
					l0-0.1l2.4,0l0,0.1c-0.1,0.1-0.3,0.7-0.3,2.2l0,2.5c0.4-0.7,1.1-1.3,2.2-1.3c1.4,0,2.5,0.6,2.4,2.4l-0.1,3.3
					C230.5,244.3,230.6,244.9,231.4,244.9z"/>
			</g>
			<g>
				<path class="st3" d="M143.1,243.4L143.1,243.4c-0.2,0.2-0.4,0.2-0.7,0.2c-0.8,0-1.6-0.2-1.7-1.4c-0.3,0.6-0.8,1-1.4,1.2
					c-1.1,0.3-2.6,0-2.5-1.4c0.1-1.5,2.2-1.7,3.2-2c0.3-0.1,0.6-0.2,0.8-0.3c0-0.5,0-0.9,0-1.3c0-1.2-0.1-2.2-1.2-2.2
					c-0.9,0-1.4,0.3-1.6,0.7c-0.2,0.5,0.2,0.6,0.3,1.1c0.1,0.4-0.3,0.7-0.7,0.6c-0.4-0.1-0.6-0.6-0.3-1.1c0.3-0.5,0.8-1.4,2.3-1.4
					c1.4,0,2.4,0.7,2.3,2.2c0,1.4-0.1,3.7-0.1,3.7c0,1,0,1.5,0.7,1.6C142.8,243.6,143,243.5,143.1,243.4z M140.7,242.2
					c0-0.1,0-0.2,0-0.3c0,0,0-1.1,0-2.2c-0.2,0.1-0.4,0.2-0.7,0.3c-0.7,0.3-2.1,0.4-2.2,1.7c-0.2,1.5,0.8,2,1.7,1.6
					C140.1,243.1,140.4,242.7,140.7,242.2z"/>
				<path class="st3" d="M150,242.8l0,0.2c-0.5,0.3-1.1,0.8-2,0.8c-2.1,0.1-4-1.1-4-3.5c-0.1-2.4,1.4-3.7,3.4-3.9
					c1.4-0.1,2.5,0.8,2.7,1.3c0.2,0.5,0.1,1-0.3,1.1c-0.4,0.1-0.7-0.3-0.6-0.7c0.1-0.4,0.5-0.5,0.2-1c-0.3-0.4-1.1-0.8-1.9-0.7
					c-1.5,0.1-2.3,1.8-2.2,3.8c0.1,2.1,1.2,3.5,2.8,3.5C148.7,243.7,149.6,243.2,150,242.8z"/>
				<path class="st3" d="M158.1,242.9l0,0.2c-0.5,0.3-1.1,0.8-2,0.8c-2.1,0.1-4-1.1-4-3.5c-0.1-2.4,1.4-3.7,3.4-3.9
					c1.4-0.1,2.5,0.8,2.7,1.3c0.2,0.5,0.1,1-0.3,1.1c-0.4,0.1-0.7-0.3-0.6-0.7c0.1-0.4,0.5-0.5,0.2-1c-0.3-0.4-1.1-0.8-1.9-0.7
					c-1.5,0.1-2.3,1.8-2.2,3.8c0.1,2.1,1.2,3.5,2.8,3.5C156.8,243.8,157.7,243.3,158.1,242.9z"/>
				<path class="st3" d="M162.8,243.8L162.8,243.8l-3,0l0-0.1c0.8,0,0.9-0.5,0.9-1.6l0.1-3.8c0-1.1-0.1-1.6-0.9-1.6l0-0.1l2.4,0
					l0,0.1c-0.1,0.1-0.3,0.7-0.3,2.2l-0.1,3.2C161.9,243.2,162,243.8,162.8,243.8z M160.7,234.3c0-0.5,0.3-0.8,0.8-0.8
					c0.4,0,0.8,0.4,0.8,0.8c0,0.5-0.4,0.8-0.8,0.8C161,235.1,160.7,234.8,160.7,234.3z"/>
				<path class="st3" d="M171.6,240.1c0,2-1.3,3.8-3.3,4c-2.1,0.2-4-1.2-4.1-3.4c-0.1-2.2,1.4-3.9,3.6-4
					C169.8,236.5,171.6,237.9,171.6,240.1z M170.4,240.1c-0.1-1.8-1.1-3.5-2.6-3.4c-1.6,0.1-2.5,1.7-2.3,3.9
					c0.1,2.3,1.3,3.6,2.9,3.4C169.7,243.8,170.5,242.1,170.4,240.1z"/>
			</g>
			<g>
				<path class="st7" d="M173.8,252l-15.7-0.1l-15.7-0.2l-7.9-0.1l-3.9-0.1l-2,0l-1,0c-0.3,0-0.7,0-1-0.1c-0.7-0.2-1.3-0.7-1.5-1.4
					c-0.1-0.3-0.2-0.7-0.1-1l0-1l0.1-3.9l0.1-7.9l0.1-7.9c0-0.7,0.3-1.5,0.8-1.9c0.5-0.5,1.4-0.6,2-0.6l3.9,0.1l15.7,0.3l15.7,0.3
					l15.7,0.4l-15.7-0.1l-15.7-0.2l-15.7-0.2l-3.9-0.1c-0.7,0-1.2,0.1-1.7,0.5c-0.5,0.4-0.7,1-0.7,1.6l-0.1,7.9l-0.1,7.9l-0.1,3.9
					c0,0.7-0.1,1.3,0.1,1.9c0.2,0.6,0.7,1,1.2,1.2c0.5,0.2,1.3,0.1,1.9,0.1l2,0l3.9,0.1l7.9,0.1l15.7,0.3L173.8,252z"/>
			</g>
			<g>
				<path class="st7" d="M191.5,227l16.6,0.1l16.6,0.2l16.6,0.2c0.3,0,0.7,0,1.1,0.1c0.4,0.1,0.7,0.3,1,0.5c0.6,0.5,0.8,1.3,0.8,2
					l-0.1,4.1l-0.1,8.3l-0.2,8.3c0,0.8-0.4,1.5-1,1.9c-0.3,0.2-0.7,0.4-1.1,0.4c-0.4,0-0.7,0-1.1,0l-4.1-0.1l-16.6-0.3l-16.6-0.3
					l-16.6-0.4l16.6,0.1l16.6,0.2l16.6,0.2l4.1,0.1c0.3,0,0.7,0,1,0c0.3,0,0.6-0.1,0.9-0.3c0.5-0.4,0.8-1,0.8-1.6l0.1-8.3l0.2-8.3
					l0.1-4.1c0.1-0.7-0.1-1.3-0.6-1.7c-0.2-0.2-0.5-0.4-0.8-0.4c-0.3-0.1-0.6-0.1-1-0.1l-16.6-0.3l-16.6-0.3L191.5,227z"/>
			</g>
		</g>
		<g>
			<path class="st3" d="M170.7,299.2l-17.8-0.2l-17.8-0.2l-17.8-0.2l-2.2,0c-0.4,0-0.7,0-1.1,0c-0.4,0-0.8-0.1-1.1-0.3
				c-0.7-0.3-1.3-0.9-1.6-1.7c-0.1-0.4-0.1-0.8-0.1-1.2l0-1.1l0.1-8.9l0.2-8.9l0-1.1c0-0.4,0-0.8,0.1-1.2c0.2-0.8,0.9-1.4,1.6-1.7
				c0.4-0.2,0.8-0.2,1.2-0.3c0.4,0,0.7,0,1.1,0l2.2,0l17.8,0.3l17.8,0.3l17.8,0.4l-17.8-0.2l-17.8-0.2l-17.8-0.2l-2.2,0
				c-0.8,0-1.5-0.1-2.1,0.2c-0.6,0.3-1.2,0.8-1.4,1.4c-0.1,0.3-0.1,0.7-0.1,1l0,1.1l-0.1,8.9l-0.2,8.9l0,1.1c0,0.4,0,0.7,0.1,1
				c0.2,0.6,0.7,1.2,1.3,1.5c0.6,0.3,1.3,0.3,2.1,0.3l2.2,0l17.8,0.3l17.8,0.3L170.7,299.2z"/>
		</g>
		<g>
			<path class="st3" d="M186,273.6l21.2,0.2l21.2,0.3l21.2,0.3l5.3,0.1l1.3,0c0.5,0,0.9,0.1,1.4,0.3c0.8,0.4,1.6,1.2,1.6,2.2
				l-0.1,10.6l-0.2,10.6c-0.1,1-0.8,1.8-1.7,2.2c-0.4,0.2-0.9,0.3-1.4,0.3l-1.3,0l-5.3-0.1l-21.2-0.4l-21.2-0.4l-21.2-0.5l21.2,0.2
				l21.2,0.3l21.2,0.3l5.3,0.1c0.9,0,1.8,0.1,2.5-0.2c0.7-0.3,1.4-1,1.4-1.8l0.2-10.6l0.2-10.6c0-0.8-0.6-1.5-1.4-1.9
				c-0.7-0.4-1.6-0.3-2.5-0.3l-5.3-0.1l-21.2-0.4l-21.2-0.4L186,273.6z"/>
		</g>
	</g>
</g>
</svg>
